ISO-10303-21;
HEADER;
/* Generated by software containing ST-Developer
 * from STEP Tools, Inc. (www.steptools.com) 
 */

FILE_DESCRIPTION(
/* description */ (''),
/* implementation_level */ '2;1');

FILE_NAME(
/* name */ '16 teeth bearing mount.step',
/* time_stamp */ '2026-01-02T21:51:41+01:00',
/* author */ (''),
/* organization */ (''),
/* preprocessor_version */ 'ST-DEVELOPER v20.1',
/* originating_system */ 'Autodesk Translation Framework v14.21.0.0',
/* authorisation */ '');

FILE_SCHEMA (('AUTOMOTIVE_DESIGN { 1 0 10303 214 3 1 1 }'));
ENDSEC;

DATA;
#10=MECHANICAL_DESIGN_GEOMETRIC_PRESENTATION_REPRESENTATION('',(#13),#220);
#11=SHAPE_REPRESENTATION_RELATIONSHIP('SRR','None',#227,#12);
#12=ADVANCED_BREP_SHAPE_REPRESENTATION('',(#14),#219);
#13=STYLED_ITEM('',(#237),#14);
#14=MANIFOLD_SOLID_BREP('16 teeth bearing mount',#118);
#15=CONICAL_SURFACE('',#141,2.1,0.785398163397448);
#16=LINE('',#197,#21);
#17=LINE('',#201,#22);
#18=LINE('',#208,#23);
#19=LINE('',#214,#24);
#20=LINE('',#216,#25);
#21=VECTOR('',#160,1.6);
#22=VECTOR('',#165,3.5);
#23=VECTOR('',#174,2.1);
#24=VECTOR('',#183,2.5);
#25=VECTOR('',#186,1.6);
#26=CYLINDRICAL_SURFACE('',#135,1.6);
#27=CYLINDRICAL_SURFACE('',#138,3.5);
#28=CYLINDRICAL_SURFACE('',#146,2.5);
#29=CYLINDRICAL_SURFACE('',#147,1.6);
#30=FACE_BOUND('',#42,.T.);
#31=FACE_BOUND('',#46,.T.);
#32=FACE_BOUND('',#49,.T.);
#33=FACE_OUTER_BOUND('',#41,.T.);
#34=FACE_OUTER_BOUND('',#43,.T.);
#35=FACE_OUTER_BOUND('',#44,.T.);
#36=FACE_OUTER_BOUND('',#45,.T.);
#37=FACE_OUTER_BOUND('',#47,.T.);
#38=FACE_OUTER_BOUND('',#48,.T.);
#39=FACE_OUTER_BOUND('',#50,.T.);
#40=FACE_OUTER_BOUND('',#51,.T.);
#41=EDGE_LOOP('',(#81));
#42=EDGE_LOOP('',(#82));
#43=EDGE_LOOP('',(#83,#84,#85,#86));
#44=EDGE_LOOP('',(#87,#88,#89,#90));
#45=EDGE_LOOP('',(#91));
#46=EDGE_LOOP('',(#92));
#47=EDGE_LOOP('',(#93,#94,#95,#96));
#48=EDGE_LOOP('',(#97));
#49=EDGE_LOOP('',(#98));
#50=EDGE_LOOP('',(#99,#100,#101,#102));
#51=EDGE_LOOP('',(#103,#104,#105,#106));
#52=CIRCLE('',#133,3.5);
#53=CIRCLE('',#134,2.5);
#54=CIRCLE('',#136,1.6);
#55=CIRCLE('',#137,1.6);
#56=CIRCLE('',#139,3.5);
#57=CIRCLE('',#142,2.5);
#58=CIRCLE('',#143,1.7);
#59=CIRCLE('',#145,1.6);
#60=VERTEX_POINT('',#189);
#61=VERTEX_POINT('',#191);
#62=VERTEX_POINT('',#194);
#63=VERTEX_POINT('',#196);
#64=VERTEX_POINT('',#200);
#65=VERTEX_POINT('',#205);
#66=VERTEX_POINT('',#207);
#67=VERTEX_POINT('',#211);
#68=EDGE_CURVE('',#60,#60,#52,.T.);
#69=EDGE_CURVE('',#61,#61,#53,.T.);
#70=EDGE_CURVE('',#62,#62,#54,.T.);
#71=EDGE_CURVE('',#62,#63,#16,.T.);
#72=EDGE_CURVE('',#63,#63,#55,.T.);
#73=EDGE_CURVE('',#60,#64,#17,.T.);
#74=EDGE_CURVE('',#64,#64,#56,.T.);
#75=EDGE_CURVE('',#65,#65,#57,.T.);
#76=EDGE_CURVE('',#65,#66,#18,.T.);
#77=EDGE_CURVE('',#66,#66,#58,.T.);
#78=EDGE_CURVE('',#67,#67,#59,.T.);
#79=EDGE_CURVE('',#65,#61,#19,.T.);
#80=EDGE_CURVE('',#63,#67,#20,.T.);
#81=ORIENTED_EDGE('',*,*,#68,.T.);
#82=ORIENTED_EDGE('',*,*,#69,.F.);
#83=ORIENTED_EDGE('',*,*,#70,.T.);
#84=ORIENTED_EDGE('',*,*,#71,.T.);
#85=ORIENTED_EDGE('',*,*,#72,.F.);
#86=ORIENTED_EDGE('',*,*,#71,.F.);
#87=ORIENTED_EDGE('',*,*,#68,.F.);
#88=ORIENTED_EDGE('',*,*,#73,.T.);
#89=ORIENTED_EDGE('',*,*,#74,.T.);
#90=ORIENTED_EDGE('',*,*,#73,.F.);
#91=ORIENTED_EDGE('',*,*,#74,.F.);
#92=ORIENTED_EDGE('',*,*,#70,.F.);
#93=ORIENTED_EDGE('',*,*,#75,.T.);
#94=ORIENTED_EDGE('',*,*,#76,.T.);
#95=ORIENTED_EDGE('',*,*,#77,.T.);
#96=ORIENTED_EDGE('',*,*,#76,.F.);
#97=ORIENTED_EDGE('',*,*,#77,.F.);
#98=ORIENTED_EDGE('',*,*,#78,.T.);
#99=ORIENTED_EDGE('',*,*,#75,.F.);
#100=ORIENTED_EDGE('',*,*,#79,.T.);
#101=ORIENTED_EDGE('',*,*,#69,.T.);
#102=ORIENTED_EDGE('',*,*,#79,.F.);
#103=ORIENTED_EDGE('',*,*,#72,.T.);
#104=ORIENTED_EDGE('',*,*,#80,.T.);
#105=ORIENTED_EDGE('',*,*,#78,.F.);
#106=ORIENTED_EDGE('',*,*,#80,.F.);
#107=PLANE('',#132);
#108=PLANE('',#140);
#109=PLANE('',#144);
#110=ADVANCED_FACE('',(#33,#30),#107,.T.);
#111=ADVANCED_FACE('',(#34),#26,.F.);
#112=ADVANCED_FACE('',(#35),#27,.T.);
#113=ADVANCED_FACE('',(#36,#31),#108,.F.);
#114=ADVANCED_FACE('',(#37),#15,.T.);
#115=ADVANCED_FACE('',(#38,#32),#109,.T.);
#116=ADVANCED_FACE('',(#39),#28,.T.);
#117=ADVANCED_FACE('',(#40),#29,.F.);
#118=CLOSED_SHELL('',(#110,#111,#112,#113,#114,#115,#116,#117));
#119=DERIVED_UNIT_ELEMENT(#121,1.);
#120=DERIVED_UNIT_ELEMENT(#222,-3.);
#121=(
MASS_UNIT()
NAMED_UNIT(*)
SI_UNIT(.KILO.,.GRAM.)
);
#122=DERIVED_UNIT((#119,#120));
#123=MEASURE_REPRESENTATION_ITEM('density measure',
POSITIVE_RATIO_MEASURE(7850.),#122);
#124=PROPERTY_DEFINITION_REPRESENTATION(#129,#126);
#125=PROPERTY_DEFINITION_REPRESENTATION(#130,#127);
#126=REPRESENTATION('material name',(#128),#219);
#127=REPRESENTATION('density',(#123),#219);
#128=DESCRIPTIVE_REPRESENTATION_ITEM('Stahl','Stahl');
#129=PROPERTY_DEFINITION('material property','material name',#229);
#130=PROPERTY_DEFINITION('material property','density of part',#229);
#131=AXIS2_PLACEMENT_3D('',#187,#148,#149);
#132=AXIS2_PLACEMENT_3D('',#188,#150,#151);
#133=AXIS2_PLACEMENT_3D('',#190,#152,#153);
#134=AXIS2_PLACEMENT_3D('',#192,#154,#155);
#135=AXIS2_PLACEMENT_3D('',#193,#156,#157);
#136=AXIS2_PLACEMENT_3D('',#195,#158,#159);
#137=AXIS2_PLACEMENT_3D('',#198,#161,#162);
#138=AXIS2_PLACEMENT_3D('',#199,#163,#164);
#139=AXIS2_PLACEMENT_3D('',#202,#166,#167);
#140=AXIS2_PLACEMENT_3D('',#203,#168,#169);
#141=AXIS2_PLACEMENT_3D('',#204,#170,#171);
#142=AXIS2_PLACEMENT_3D('',#206,#172,#173);
#143=AXIS2_PLACEMENT_3D('',#209,#175,#176);
#144=AXIS2_PLACEMENT_3D('',#210,#177,#178);
#145=AXIS2_PLACEMENT_3D('',#212,#179,#180);
#146=AXIS2_PLACEMENT_3D('',#213,#181,#182);
#147=AXIS2_PLACEMENT_3D('',#215,#184,#185);
#148=DIRECTION('axis',(0.,0.,1.));
#149=DIRECTION('refdir',(1.,0.,0.));
#150=DIRECTION('center_axis',(5.09875303792017E-18,1.11022302462513E-16,
-1.));
#151=DIRECTION('ref_axis',(-1.,-2.77555756156289E-17,-5.09875303792017E-18));
#152=DIRECTION('center_axis',(5.09875303792017E-18,1.11022302462513E-16,
-1.));
#153=DIRECTION('ref_axis',(-1.,-2.77555756156289E-17,-5.09875303792017E-18));
#154=DIRECTION('center_axis',(5.09875303792017E-18,1.11022302462513E-16,
-1.));
#155=DIRECTION('ref_axis',(-1.,1.84889274661175E-32,-5.09875303792017E-18));
#156=DIRECTION('center_axis',(5.09875303792017E-18,1.11022302462513E-16,
-1.));
#157=DIRECTION('ref_axis',(-1.,-2.77555756156289E-17,-5.09875303792017E-18));
#158=DIRECTION('center_axis',(-5.09875303792017E-18,-1.11022302462513E-16,
1.));
#159=DIRECTION('ref_axis',(-1.,-2.77555756156289E-17,-5.09875303792017E-18));
#160=DIRECTION('',(5.09875303792017E-18,1.11022302462513E-16,-1.));
#161=DIRECTION('center_axis',(-5.09875303792017E-18,-1.11022302462513E-16,
1.));
#162=DIRECTION('ref_axis',(-1.,1.92592994438723E-32,-5.09875303792017E-18));
#163=DIRECTION('center_axis',(5.09875303792017E-18,1.11022302462513E-16,
-1.));
#164=DIRECTION('ref_axis',(-1.,-2.77555756156289E-17,-5.09875303792017E-18));
#165=DIRECTION('',(-5.09875303792017E-18,-1.11022302462513E-16,1.));
#166=DIRECTION('center_axis',(5.09875303792017E-18,1.11022302462513E-16,
-1.));
#167=DIRECTION('ref_axis',(-1.,-2.77555756156289E-17,-5.09875303792017E-18));
#168=DIRECTION('center_axis',(5.09875303792017E-18,1.11022302462513E-16,
-1.));
#169=DIRECTION('ref_axis',(-1.,-2.77555756156289E-17,-5.09875303792017E-18));
#170=DIRECTION('center_axis',(-5.09875303792017E-18,-1.11022302462513E-16,
1.));
#171=DIRECTION('ref_axis',(-1.,1.83421899465451E-32,-5.09875303792017E-18));
#172=DIRECTION('center_axis',(5.09875303792017E-18,1.11022302462513E-16,
-1.));
#173=DIRECTION('ref_axis',(-1.,1.84889274661175E-32,-5.09875303792017E-18));
#174=DIRECTION('',(-0.707106781186547,-8.09098268936237E-18,-0.707106781186548));
#175=DIRECTION('center_axis',(-5.09875303792017E-18,-1.11022302462513E-16,
1.));
#176=DIRECTION('ref_axis',(-1.,1.81263994765858E-32,-5.09875303792017E-18));
#177=DIRECTION('center_axis',(5.09875303792017E-18,1.11022302462513E-16,
-1.));
#178=DIRECTION('ref_axis',(-1.,1.84889274661175E-32,-5.09875303792017E-18));
#179=DIRECTION('center_axis',(-5.09875303792017E-18,-1.11022302462513E-16,
1.));
#180=DIRECTION('ref_axis',(-1.,1.92592994438723E-32,-5.09875303792017E-18));
#181=DIRECTION('center_axis',(5.09875303792017E-18,1.11022302462513E-16,
-1.));
#182=DIRECTION('ref_axis',(-1.,1.84889274661175E-32,-5.09875303792017E-18));
#183=DIRECTION('',(-5.09875303792017E-18,-1.11022302462513E-16,1.));
#184=DIRECTION('center_axis',(5.09875303792017E-18,1.11022302462513E-16,
-1.));
#185=DIRECTION('ref_axis',(-1.,1.92592994438723E-32,-5.09875303792017E-18));
#186=DIRECTION('',(5.09875303792017E-18,1.11022302462513E-16,-1.));
#187=CARTESIAN_POINT('',(0.,0.,0.));
#188=CARTESIAN_POINT('Origin',(-5.32907051820075E-14,2.61665689116358E-15,
16.5999999999995));
#189=CARTESIAN_POINT('',(3.49999999999994,2.2851750261167E-15,16.5999999999995));
#190=CARTESIAN_POINT('Origin',(-5.32907051820075E-14,2.61665689116358E-15,
16.5999999999995));
#191=CARTESIAN_POINT('',(2.50000227987732,2.54001524320852E-13,16.5999999999995));
#192=CARTESIAN_POINT('Origin',(2.27987731804546E-6,2.54307686020639E-13,
16.5999999999995));
#193=CARTESIAN_POINT('Origin',(-5.32907051820075E-14,2.52783904919358E-15,
17.3999999999995));
#194=CARTESIAN_POINT('',(1.59999999999995,2.37630448231506E-15,17.3999999999995));
#195=CARTESIAN_POINT('Origin',(-5.32907051820075E-14,2.52783904919358E-15,
17.3999999999995));
#196=CARTESIAN_POINT('',(1.60000227987732,2.54133946993268E-13,16.399999999999));
#197=CARTESIAN_POINT('',(1.59999999999995,2.37630448231501E-15,17.3999999999995));
#198=CARTESIAN_POINT('Origin',(2.27987731804546E-6,2.54329890481131E-13,
16.399999999999));
#199=CARTESIAN_POINT('Origin',(-5.32907051820075E-14,2.52783904919358E-15,
17.3999999999995));
#200=CARTESIAN_POINT('',(3.49999999999994,2.19635718414668E-15,17.3999999999995));
#201=CARTESIAN_POINT('',(3.49999999999995,2.19635718414671E-15,17.3999999999995));
#202=CARTESIAN_POINT('Origin',(-5.32907051820075E-14,2.52783904919358E-15,
17.3999999999995));
#203=CARTESIAN_POINT('Origin',(-5.32907051820075E-14,2.52783904919358E-15,
17.3999999999995));
#204=CARTESIAN_POINT('Origin',(2.27987731804546E-6,2.55306886742801E-13,
7.59999999999904));
#205=CARTESIAN_POINT('',(2.50000227987732,2.54956316122029E-13,7.99999999999903));
#206=CARTESIAN_POINT('Origin',(2.27987731804546E-6,2.55262477821816E-13,
7.99999999999903));
#207=CARTESIAN_POINT('',(1.70000227987732,2.55559485619641E-13,7.19999999999903));
#208=CARTESIAN_POINT('',(2.10000227987732,2.55564062570622E-13,7.59999999999904));
#209=CARTESIAN_POINT('Origin',(2.27987731804546E-6,2.55351295663786E-13,
7.19999999999903));
#210=CARTESIAN_POINT('Origin',(2.27987731804546E-6,2.55351295663786E-13,
7.19999999999903));
#211=CARTESIAN_POINT('',(1.60000227987732,2.55155352175923E-13,7.19999999999903));
#212=CARTESIAN_POINT('Origin',(2.27987731804546E-6,2.55351295663786E-13,
7.19999999999903));
#213=CARTESIAN_POINT('Origin',(2.27987731804546E-6,2.54329890481131E-13,
16.399999999999));
#214=CARTESIAN_POINT('',(2.50000227987732,2.54023728781344E-13,16.399999999999));
#215=CARTESIAN_POINT('Origin',(2.27987731804546E-6,2.54329890481131E-13,
16.399999999999));
#216=CARTESIAN_POINT('',(1.60000227987732,2.54133946993267E-13,16.399999999999));
#217=UNCERTAINTY_MEASURE_WITH_UNIT(LENGTH_MEASURE(0.01),#221,
'DISTANCE_ACCURACY_VALUE',
'Maximum model space distance between geometric entities at asserted c
onnectivities');
#218=UNCERTAINTY_MEASURE_WITH_UNIT(LENGTH_MEASURE(0.01),#221,
'DISTANCE_ACCURACY_VALUE',
'Maximum model space distance between geometric entities at asserted c
onnectivities');
#219=(
GEOMETRIC_REPRESENTATION_CONTEXT(3)
GLOBAL_UNCERTAINTY_ASSIGNED_CONTEXT((#217))
GLOBAL_UNIT_ASSIGNED_CONTEXT((#221,#223,#224))
REPRESENTATION_CONTEXT('','3D')
);
#220=(
GEOMETRIC_REPRESENTATION_CONTEXT(3)
GLOBAL_UNCERTAINTY_ASSIGNED_CONTEXT((#218))
GLOBAL_UNIT_ASSIGNED_CONTEXT((#221,#223,#224))
REPRESENTATION_CONTEXT('','3D')
);
#221=(
LENGTH_UNIT()
NAMED_UNIT(*)
SI_UNIT(.MILLI.,.METRE.)
);
#222=(
LENGTH_UNIT()
NAMED_UNIT(*)
SI_UNIT($,.METRE.)
);
#223=(
NAMED_UNIT(*)
PLANE_ANGLE_UNIT()
SI_UNIT($,.RADIAN.)
);
#224=(
NAMED_UNIT(*)
SI_UNIT($,.STERADIAN.)
SOLID_ANGLE_UNIT()
);
#225=SHAPE_DEFINITION_REPRESENTATION(#226,#227);
#226=PRODUCT_DEFINITION_SHAPE('',$,#229);
#227=SHAPE_REPRESENTATION('',(#131),#219);
#228=PRODUCT_DEFINITION_CONTEXT('part definition',#233,'design');
#229=PRODUCT_DEFINITION('16 teeth bearing mount',
'16 teeth bearing mount',#230,#228);
#230=PRODUCT_DEFINITION_FORMATION('',$,#235);
#231=PRODUCT_RELATED_PRODUCT_CATEGORY('16 teeth bearing mount',
'16 teeth bearing mount',(#235));
#232=APPLICATION_PROTOCOL_DEFINITION('international standard',
'automotive_design',2009,#233);
#233=APPLICATION_CONTEXT(
'Core Data for Automotive Mechanical Design Process');
#234=PRODUCT_CONTEXT('part definition',#233,'mechanical');
#235=PRODUCT('16 teeth bearing mount','16 teeth bearing mount',$,(#234));
#236=PRESENTATION_STYLE_ASSIGNMENT((#238));
#237=PRESENTATION_STYLE_ASSIGNMENT((#239));
#238=SURFACE_STYLE_USAGE(.BOTH.,#240);
#239=SURFACE_STYLE_USAGE(.BOTH.,#241);
#240=SURFACE_SIDE_STYLE('',(#242));
#241=SURFACE_SIDE_STYLE('',(#243));
#242=SURFACE_STYLE_FILL_AREA(#244);
#243=SURFACE_STYLE_FILL_AREA(#245);
#244=FILL_AREA_STYLE('Stahl - satiniert',(#246));
#245=FILL_AREA_STYLE('Opaque(160,160,160)',(#247));
#246=FILL_AREA_STYLE_COLOUR('Stahl - satiniert',#248);
#247=FILL_AREA_STYLE_COLOUR('Opaque(160,160,160)',#249);
#248=COLOUR_RGB('Stahl - satiniert',0.627450980392157,0.627450980392157,
0.627450980392157);
#249=COLOUR_RGB('Opaque(160,160,160)',0.392156862745098,0.392156862745098,
0.392156862745098);
ENDSEC;
END-ISO-10303-21;
