ISO-10303-21;
HEADER;
/* Generated by software containing ST-Developer
 * from STEP Tools, Inc. (www.steptools.com) 
 */

FILE_DESCRIPTION(
/* description */ (''),
/* implementation_level */ '2;1');

FILE_NAME(
/* name */ 'Battery lid.step',
/* time_stamp */ '2026-04-11T13:45:24+02:00',
/* author */ (''),
/* organization */ (''),
/* preprocessor_version */ 'ST-DEVELOPER v20.1',
/* originating_system */ 'Autodesk Translation Framework v14.24.0.0',
/* authorisation */ '');

FILE_SCHEMA (('AUTOMOTIVE_DESIGN { 1 0 10303 214 3 1 1 }'));
ENDSEC;

DATA;
#10=MECHANICAL_DESIGN_GEOMETRIC_PRESENTATION_REPRESENTATION('',(#13),#1361);
#11=SHAPE_REPRESENTATION_RELATIONSHIP('SRR','None',#1368,#12);
#12=ADVANCED_BREP_SHAPE_REPRESENTATION('',(#14),#1360);
#13=STYLED_ITEM('',(#1377),#14);
#14=MANIFOLD_SOLID_BREP('Battery lid',#762);
#15=CONICAL_SURFACE('',#840,1.5,0.872664625997165);
#16=CONICAL_SURFACE('',#844,1.5,0.872664625997165);
#17=B_SPLINE_SURFACE_WITH_KNOTS('',1,3,((#1261,#1262,#1263,#1264,#1265,
#1266,#1267),(#1268,#1269,#1270,#1271,#1272,#1273,#1274)),.UNSPECIFIED.,
 .F.,.F.,.F.,(2,2),(4,1,1,1,4),(0.,0.5),(0.0454829835970481,0.481286795939137,
1.35289442062332,2.22450204530749,3.09610966999167),.UNSPECIFIED.);
#18=B_SPLINE_SURFACE_WITH_KNOTS('',1,3,((#1302,#1303,#1304,#1305,#1306,
#1307,#1308),(#1309,#1310,#1311,#1312,#1313,#1314,#1315)),.UNSPECIFIED.,
 .F.,.F.,.F.,(2,2),(4,1,1,1,4),(0.,0.500000000000001),(-3.09610966999168,
-2.2245020453078,-1.78869823296587,-0.917090608281995,-0.0454829835981223),
 .UNSPECIFIED.);
#19=FACE_BOUND('',#96,.T.);
#20=FACE_BOUND('',#101,.T.);
#21=FACE_BOUND('',#102,.T.);
#22=FACE_BOUND('',#131,.T.);
#23=FACE_BOUND('',#133,.T.);
#24=B_SPLINE_CURVE_WITH_KNOTS('',3,(#1086,#1087,#1088,#1089,#1090,#1091,
#1092),.UNSPECIFIED.,.F.,.F.,(4,1,1,1,4),(0.0454829835981223,0.917090608281995,
1.78869823296587,2.2245020453078,3.09610966999168),.UNSPECIFIED.);
#25=B_SPLINE_CURVE_WITH_KNOTS('',3,(#1122,#1123,#1124,#1125,#1126,#1127,
#1128),.UNSPECIFIED.,.F.,.F.,(4,1,1,1,4),(0.0454829835970481,0.481286795939137,
1.35289442062332,2.22450204530749,3.09610966999167),.UNSPECIFIED.);
#26=B_SPLINE_CURVE_WITH_KNOTS('',3,(#1171,#1172,#1173,#1174,#1175,#1176,
#1177),.UNSPECIFIED.,.F.,.F.,(4,1,1,1,4),(0.0454829835970481,0.481286795939137,
1.35289442062332,2.22450204530749,3.09610966999167),.UNSPECIFIED.);
#27=B_SPLINE_CURVE_WITH_KNOTS('',3,(#1205,#1206,#1207,#1208,#1209,#1210,
#1211),.UNSPECIFIED.,.F.,.F.,(4,1,1,1,4),(0.0454829835981223,0.917090608281995,
1.78869823296587,2.2245020453078,3.09610966999168),.UNSPECIFIED.);
#28=B_SPLINE_CURVE_WITH_KNOTS('',3,(#1222,#1223,#1224,#1225,#1226,#1227),
 .UNSPECIFIED.,.F.,.F.,(4,2,4),(0.2,0.3,0.4),.UNSPECIFIED.);
#29=B_SPLINE_CURVE_WITH_KNOTS('',3,(#1275,#1276,#1277,#1278,#1279,#1280),
 .UNSPECIFIED.,.F.,.F.,(4,2,4),(-0.2,-0.1,0.),.UNSPECIFIED.);
#30=B_SPLINE_CURVE_WITH_KNOTS('',3,(#1287,#1288,#1289,#1290,#1291,#1292),
 .UNSPECIFIED.,.F.,.F.,(4,2,4),(-0.2,-0.1,0.),.UNSPECIFIED.);
#31=B_SPLINE_CURVE_WITH_KNOTS('',3,(#1296,#1297,#1298,#1299,#1300,#1301),
 .UNSPECIFIED.,.F.,.F.,(4,2,4),(0.,0.1,0.2),.UNSPECIFIED.);
#32=PLANE('',#779);
#33=PLANE('',#794);
#34=PLANE('',#795);
#35=PLANE('',#796);
#36=PLANE('',#809);
#37=PLANE('',#811);
#38=PLANE('',#813);
#39=PLANE('',#815);
#40=PLANE('',#816);
#41=PLANE('',#817);
#42=PLANE('',#818);
#43=PLANE('',#819);
#44=PLANE('',#820);
#45=PLANE('',#821);
#46=PLANE('',#822);
#47=PLANE('',#824);
#48=PLANE('',#826);
#49=PLANE('',#829);
#50=PLANE('',#834);
#51=PLANE('',#836);
#52=PLANE('',#838);
#53=FACE_OUTER_BOUND('',#94,.T.);
#54=FACE_OUTER_BOUND('',#95,.T.);
#55=FACE_OUTER_BOUND('',#97,.T.);
#56=FACE_OUTER_BOUND('',#98,.T.);
#57=FACE_OUTER_BOUND('',#99,.T.);
#58=FACE_OUTER_BOUND('',#100,.T.);
#59=FACE_OUTER_BOUND('',#103,.T.);
#60=FACE_OUTER_BOUND('',#104,.T.);
#61=FACE_OUTER_BOUND('',#105,.T.);
#62=FACE_OUTER_BOUND('',#106,.T.);
#63=FACE_OUTER_BOUND('',#107,.T.);
#64=FACE_OUTER_BOUND('',#108,.T.);
#65=FACE_OUTER_BOUND('',#109,.T.);
#66=FACE_OUTER_BOUND('',#110,.T.);
#67=FACE_OUTER_BOUND('',#111,.T.);
#68=FACE_OUTER_BOUND('',#112,.T.);
#69=FACE_OUTER_BOUND('',#113,.T.);
#70=FACE_OUTER_BOUND('',#114,.T.);
#71=FACE_OUTER_BOUND('',#115,.T.);
#72=FACE_OUTER_BOUND('',#116,.T.);
#73=FACE_OUTER_BOUND('',#117,.T.);
#74=FACE_OUTER_BOUND('',#118,.T.);
#75=FACE_OUTER_BOUND('',#119,.T.);
#76=FACE_OUTER_BOUND('',#120,.T.);
#77=FACE_OUTER_BOUND('',#121,.T.);
#78=FACE_OUTER_BOUND('',#122,.T.);
#79=FACE_OUTER_BOUND('',#123,.T.);
#80=FACE_OUTER_BOUND('',#124,.T.);
#81=FACE_OUTER_BOUND('',#125,.T.);
#82=FACE_OUTER_BOUND('',#126,.T.);
#83=FACE_OUTER_BOUND('',#127,.T.);
#84=FACE_OUTER_BOUND('',#128,.T.);
#85=FACE_OUTER_BOUND('',#129,.T.);
#86=FACE_OUTER_BOUND('',#130,.T.);
#87=FACE_OUTER_BOUND('',#132,.T.);
#88=FACE_OUTER_BOUND('',#134,.T.);
#89=FACE_OUTER_BOUND('',#135,.T.);
#90=FACE_OUTER_BOUND('',#136,.T.);
#91=FACE_OUTER_BOUND('',#137,.T.);
#92=FACE_OUTER_BOUND('',#138,.T.);
#93=FACE_OUTER_BOUND('',#139,.T.);
#94=EDGE_LOOP('',(#487,#488,#489,#490));
#95=EDGE_LOOP('',(#491,#492,#493,#494,#495,#496,#497,#498,#499,#500,#501,
#502,#503,#504,#505,#506,#507,#508,#509,#510,#511,#512,#513,#514,#515,#516,
#517));
#96=EDGE_LOOP('',(#518,#519,#520,#521));
#97=EDGE_LOOP('',(#522,#523,#524,#525));
#98=EDGE_LOOP('',(#526,#527,#528,#529));
#99=EDGE_LOOP('',(#530,#531,#532,#533));
#100=EDGE_LOOP('',(#534,#535,#536,#537,#538,#539,#540,#541,#542,#543,#544,
#545,#546,#547,#548,#549,#550,#551,#552,#553,#554,#555,#556,#557,#558,#559));
#101=EDGE_LOOP('',(#560));
#102=EDGE_LOOP('',(#561));
#103=EDGE_LOOP('',(#562,#563,#564,#565));
#104=EDGE_LOOP('',(#566,#567,#568,#569));
#105=EDGE_LOOP('',(#570,#571,#572,#573));
#106=EDGE_LOOP('',(#574,#575,#576,#577));
#107=EDGE_LOOP('',(#578,#579,#580,#581));
#108=EDGE_LOOP('',(#582,#583,#584,#585));
#109=EDGE_LOOP('',(#586,#587,#588,#589));
#110=EDGE_LOOP('',(#590,#591,#592,#593));
#111=EDGE_LOOP('',(#594,#595,#596,#597));
#112=EDGE_LOOP('',(#598,#599,#600,#601));
#113=EDGE_LOOP('',(#602,#603,#604,#605));
#114=EDGE_LOOP('',(#606,#607,#608,#609));
#115=EDGE_LOOP('',(#610,#611,#612,#613));
#116=EDGE_LOOP('',(#614,#615,#616,#617));
#117=EDGE_LOOP('',(#618,#619,#620,#621));
#118=EDGE_LOOP('',(#622,#623,#624,#625));
#119=EDGE_LOOP('',(#626,#627,#628,#629));
#120=EDGE_LOOP('',(#630,#631,#632,#633));
#121=EDGE_LOOP('',(#634,#635,#636,#637));
#122=EDGE_LOOP('',(#638,#639,#640,#641));
#123=EDGE_LOOP('',(#642,#643,#644,#645,#646,#647,#648));
#124=EDGE_LOOP('',(#649,#650,#651,#652));
#125=EDGE_LOOP('',(#653,#654,#655,#656));
#126=EDGE_LOOP('',(#657,#658,#659,#660));
#127=EDGE_LOOP('',(#661,#662,#663,#664,#665,#666,#667,#668));
#128=EDGE_LOOP('',(#669,#670,#671,#672));
#129=EDGE_LOOP('',(#673,#674,#675,#676));
#130=EDGE_LOOP('',(#677));
#131=EDGE_LOOP('',(#678));
#132=EDGE_LOOP('',(#679));
#133=EDGE_LOOP('',(#680));
#134=EDGE_LOOP('',(#681,#682,#683,#684));
#135=EDGE_LOOP('',(#685,#686,#687,#688));
#136=EDGE_LOOP('',(#689,#690,#691,#692));
#137=EDGE_LOOP('',(#693,#694,#695,#696));
#138=EDGE_LOOP('',(#697,#698,#699,#700));
#139=EDGE_LOOP('',(#701,#702,#703,#704));
#140=LINE('',#1072,#206);
#141=LINE('',#1075,#207);
#142=LINE('',#1080,#208);
#143=LINE('',#1084,#209);
#144=LINE('',#1094,#210);
#145=LINE('',#1098,#211);
#146=LINE('',#1102,#212);
#147=LINE('',#1106,#213);
#148=LINE('',#1110,#214);
#149=LINE('',#1114,#215);
#150=LINE('',#1120,#216);
#151=LINE('',#1130,#217);
#152=LINE('',#1136,#218);
#153=LINE('',#1139,#219);
#154=LINE('',#1142,#220);
#155=LINE('',#1144,#221);
#156=LINE('',#1146,#222);
#157=LINE('',#1147,#223);
#158=LINE('',#1151,#224);
#159=LINE('',#1154,#225);
#160=LINE('',#1155,#226);
#161=LINE('',#1158,#227);
#162=LINE('',#1160,#228);
#163=LINE('',#1161,#229);
#164=LINE('',#1169,#230);
#165=LINE('',#1179,#231);
#166=LINE('',#1183,#232);
#167=LINE('',#1187,#233);
#168=LINE('',#1191,#234);
#169=LINE('',#1195,#235);
#170=LINE('',#1199,#236);
#171=LINE('',#1203,#237);
#172=LINE('',#1213,#238);
#173=LINE('',#1216,#239);
#174=LINE('',#1228,#240);
#175=LINE('',#1230,#241);
#176=LINE('',#1231,#242);
#177=LINE('',#1233,#243);
#178=LINE('',#1236,#244);
#179=LINE('',#1238,#245);
#180=LINE('',#1239,#246);
#181=LINE('',#1241,#247);
#182=LINE('',#1243,#248);
#183=LINE('',#1246,#249);
#184=LINE('',#1248,#250);
#185=LINE('',#1249,#251);
#186=LINE('',#1252,#252);
#187=LINE('',#1253,#253);
#188=LINE('',#1256,#254);
#189=LINE('',#1257,#255);
#190=LINE('',#1259,#256);
#191=LINE('',#1282,#257);
#192=LINE('',#1284,#258);
#193=LINE('',#1286,#259);
#194=LINE('',#1294,#260);
#195=LINE('',#1319,#261);
#196=LINE('',#1320,#262);
#197=LINE('',#1323,#263);
#198=LINE('',#1328,#264);
#199=LINE('',#1329,#265);
#200=LINE('',#1342,#266);
#201=LINE('',#1345,#267);
#202=LINE('',#1350,#268);
#203=LINE('',#1353,#269);
#204=LINE('',#1355,#270);
#205=LINE('',#1357,#271);
#206=VECTOR('',#856,10.);
#207=VECTOR('',#859,10.);
#208=VECTOR('',#864,10.);
#209=VECTOR('',#867,10.);
#210=VECTOR('',#868,10.);
#211=VECTOR('',#871,10.);
#212=VECTOR('',#874,10.);
#213=VECTOR('',#877,10.);
#214=VECTOR('',#880,10.);
#215=VECTOR('',#883,10.);
#216=VECTOR('',#888,10.);
#217=VECTOR('',#889,10.);
#218=VECTOR('',#894,10.);
#219=VECTOR('',#897,10.);
#220=VECTOR('',#898,10.);
#221=VECTOR('',#899,10.);
#222=VECTOR('',#900,10.);
#223=VECTOR('',#901,10.);
#224=VECTOR('',#906,10.);
#225=VECTOR('',#909,10.);
#226=VECTOR('',#910,10.);
#227=VECTOR('',#913,10.);
#228=VECTOR('',#914,10.);
#229=VECTOR('',#915,10.);
#230=VECTOR('',#924,10.);
#231=VECTOR('',#925,10.);
#232=VECTOR('',#928,10.);
#233=VECTOR('',#931,10.);
#234=VECTOR('',#934,10.);
#235=VECTOR('',#937,10.);
#236=VECTOR('',#940,10.);
#237=VECTOR('',#943,10.);
#238=VECTOR('',#944,10.);
#239=VECTOR('',#947,10.);
#240=VECTOR('',#954,10.);
#241=VECTOR('',#957,10.);
#242=VECTOR('',#958,10.);
#243=VECTOR('',#961,10.);
#244=VECTOR('',#966,10.);
#245=VECTOR('',#969,10.);
#246=VECTOR('',#970,10.);
#247=VECTOR('',#973,10.);
#248=VECTOR('',#976,10.);
#249=VECTOR('',#979,10.);
#250=VECTOR('',#980,10.);
#251=VECTOR('',#981,10.);
#252=VECTOR('',#984,10.);
#253=VECTOR('',#985,10.);
#254=VECTOR('',#988,10.);
#255=VECTOR('',#989,10.);
#256=VECTOR('',#992,10.);
#257=VECTOR('',#997,10.);
#258=VECTOR('',#1000,10.);
#259=VECTOR('',#1003,10.);
#260=VECTOR('',#1006,10.);
#261=VECTOR('',#1013,3.79999999999999);
#262=VECTOR('',#1014,10.);
#263=VECTOR('',#1019,10.);
#264=VECTOR('',#1026,3.8);
#265=VECTOR('',#1027,10.);
#266=VECTOR('',#1044,1.5);
#267=VECTOR('',#1049,3.);
#268=VECTOR('',#1054,1.5);
#269=VECTOR('',#1059,3.);
#270=VECTOR('',#1062,1.6);
#271=VECTOR('',#1065,1.6);
#272=CIRCLE('',#777,3.90000000000002);
#273=CIRCLE('',#778,3.90000000000002);
#274=CIRCLE('',#780,4.1);
#275=CIRCLE('',#781,3.69999999999999);
#276=CIRCLE('',#782,3.9);
#277=CIRCLE('',#783,4.);
#278=CIRCLE('',#784,0.899999999999996);
#279=CIRCLE('',#785,1.00000000000001);
#280=CIRCLE('',#786,4.1);
#281=CIRCLE('',#787,3.7);
#282=CIRCLE('',#788,3.7);
#283=CIRCLE('',#789,4.);
#284=CIRCLE('',#790,4.);
#285=CIRCLE('',#791,4.00000000000001);
#286=CIRCLE('',#793,4.1);
#287=CIRCLE('',#797,4.00000000000001);
#288=CIRCLE('',#798,4.);
#289=CIRCLE('',#799,4.);
#290=CIRCLE('',#800,3.7);
#291=CIRCLE('',#801,4.1);
#292=CIRCLE('',#802,1.00000000000001);
#293=CIRCLE('',#803,0.899999999999996);
#294=CIRCLE('',#804,4.);
#295=CIRCLE('',#805,3.9);
#296=CIRCLE('',#806,3.69999999999999);
#297=CIRCLE('',#807,3.);
#298=CIRCLE('',#808,3.);
#299=CIRCLE('',#828,3.69999999999999);
#300=CIRCLE('',#833,3.7);
#301=CIRCLE('',#837,1.6);
#302=CIRCLE('',#839,1.6);
#303=CIRCLE('',#841,3.);
#304=CIRCLE('',#842,1.6);
#305=CIRCLE('',#845,3.);
#306=CIRCLE('',#846,1.6);
#307=VERTEX_POINT('',#1068);
#308=VERTEX_POINT('',#1069);
#309=VERTEX_POINT('',#1071);
#310=VERTEX_POINT('',#1073);
#311=VERTEX_POINT('',#1077);
#312=VERTEX_POINT('',#1079);
#313=VERTEX_POINT('',#1081);
#314=VERTEX_POINT('',#1083);
#315=VERTEX_POINT('',#1085);
#316=VERTEX_POINT('',#1093);
#317=VERTEX_POINT('',#1095);
#318=VERTEX_POINT('',#1097);
#319=VERTEX_POINT('',#1099);
#320=VERTEX_POINT('',#1101);
#321=VERTEX_POINT('',#1103);
#322=VERTEX_POINT('',#1105);
#323=VERTEX_POINT('',#1107);
#324=VERTEX_POINT('',#1109);
#325=VERTEX_POINT('',#1111);
#326=VERTEX_POINT('',#1113);
#327=VERTEX_POINT('',#1115);
#328=VERTEX_POINT('',#1117);
#329=VERTEX_POINT('',#1119);
#330=VERTEX_POINT('',#1121);
#331=VERTEX_POINT('',#1129);
#332=VERTEX_POINT('',#1131);
#333=VERTEX_POINT('',#1133);
#334=VERTEX_POINT('',#1135);
#335=VERTEX_POINT('',#1137);
#336=VERTEX_POINT('',#1140);
#337=VERTEX_POINT('',#1141);
#338=VERTEX_POINT('',#1143);
#339=VERTEX_POINT('',#1145);
#340=VERTEX_POINT('',#1149);
#341=VERTEX_POINT('',#1153);
#342=VERTEX_POINT('',#1157);
#343=VERTEX_POINT('',#1159);
#344=VERTEX_POINT('',#1164);
#345=VERTEX_POINT('',#1166);
#346=VERTEX_POINT('',#1168);
#347=VERTEX_POINT('',#1170);
#348=VERTEX_POINT('',#1178);
#349=VERTEX_POINT('',#1180);
#350=VERTEX_POINT('',#1182);
#351=VERTEX_POINT('',#1184);
#352=VERTEX_POINT('',#1186);
#353=VERTEX_POINT('',#1188);
#354=VERTEX_POINT('',#1190);
#355=VERTEX_POINT('',#1192);
#356=VERTEX_POINT('',#1194);
#357=VERTEX_POINT('',#1196);
#358=VERTEX_POINT('',#1198);
#359=VERTEX_POINT('',#1200);
#360=VERTEX_POINT('',#1202);
#361=VERTEX_POINT('',#1204);
#362=VERTEX_POINT('',#1212);
#363=VERTEX_POINT('',#1214);
#364=VERTEX_POINT('',#1217);
#365=VERTEX_POINT('',#1219);
#366=VERTEX_POINT('',#1245);
#367=VERTEX_POINT('',#1247);
#368=VERTEX_POINT('',#1251);
#369=VERTEX_POINT('',#1255);
#370=VERTEX_POINT('',#1317);
#371=VERTEX_POINT('',#1326);
#372=VERTEX_POINT('',#1333);
#373=VERTEX_POINT('',#1336);
#374=VERTEX_POINT('',#1339);
#375=VERTEX_POINT('',#1341);
#376=VERTEX_POINT('',#1347);
#377=VERTEX_POINT('',#1349);
#378=EDGE_CURVE('',#307,#308,#272,.T.);
#379=EDGE_CURVE('',#308,#309,#140,.T.);
#380=EDGE_CURVE('',#309,#310,#273,.T.);
#381=EDGE_CURVE('',#310,#307,#141,.T.);
#382=EDGE_CURVE('',#311,#309,#274,.T.);
#383=EDGE_CURVE('',#312,#311,#142,.T.);
#384=EDGE_CURVE('',#313,#312,#275,.F.);
#385=EDGE_CURVE('',#314,#313,#143,.T.);
#386=EDGE_CURVE('',#314,#315,#24,.F.);
#387=EDGE_CURVE('',#315,#316,#144,.F.);
#388=EDGE_CURVE('',#316,#317,#276,.F.);
#389=EDGE_CURVE('',#317,#318,#145,.F.);
#390=EDGE_CURVE('',#319,#318,#277,.T.);
#391=EDGE_CURVE('',#319,#320,#146,.F.);
#392=EDGE_CURVE('',#320,#321,#278,.F.);
#393=EDGE_CURVE('',#321,#322,#147,.F.);
#394=EDGE_CURVE('',#323,#322,#279,.T.);
#395=EDGE_CURVE('',#323,#324,#148,.F.);
#396=EDGE_CURVE('',#325,#324,#280,.T.);
#397=EDGE_CURVE('',#326,#325,#149,.T.);
#398=EDGE_CURVE('',#327,#326,#281,.F.);
#399=EDGE_CURVE('',#328,#327,#282,.F.);
#400=EDGE_CURVE('',#328,#329,#150,.F.);
#401=EDGE_CURVE('',#329,#330,#25,.F.);
#402=EDGE_CURVE('',#330,#331,#151,.T.);
#403=EDGE_CURVE('',#331,#332,#283,.T.);
#404=EDGE_CURVE('',#332,#333,#284,.T.);
#405=EDGE_CURVE('',#333,#334,#152,.T.);
#406=EDGE_CURVE('',#335,#334,#285,.T.);
#407=EDGE_CURVE('',#335,#310,#153,.F.);
#408=EDGE_CURVE('',#336,#337,#154,.T.);
#409=EDGE_CURVE('',#337,#338,#155,.T.);
#410=EDGE_CURVE('',#338,#339,#156,.T.);
#411=EDGE_CURVE('',#339,#336,#157,.T.);
#412=EDGE_CURVE('',#340,#308,#286,.T.);
#413=EDGE_CURVE('',#340,#311,#158,.T.);
#414=EDGE_CURVE('',#341,#335,#159,.T.);
#415=EDGE_CURVE('',#307,#341,#160,.T.);
#416=EDGE_CURVE('',#334,#342,#161,.T.);
#417=EDGE_CURVE('',#343,#333,#162,.T.);
#418=EDGE_CURVE('',#342,#343,#163,.T.);
#419=EDGE_CURVE('',#342,#341,#287,.T.);
#420=EDGE_CURVE('',#343,#344,#288,.T.);
#421=EDGE_CURVE('',#344,#345,#289,.T.);
#422=EDGE_CURVE('',#345,#346,#164,.T.);
#423=EDGE_CURVE('',#346,#347,#26,.T.);
#424=EDGE_CURVE('',#347,#348,#165,.T.);
#425=EDGE_CURVE('',#348,#349,#290,.T.);
#426=EDGE_CURVE('',#349,#350,#166,.T.);
#427=EDGE_CURVE('',#350,#351,#291,.T.);
#428=EDGE_CURVE('',#351,#352,#167,.T.);
#429=EDGE_CURVE('',#353,#352,#292,.T.);
#430=EDGE_CURVE('',#353,#354,#168,.T.);
#431=EDGE_CURVE('',#354,#355,#293,.T.);
#432=EDGE_CURVE('',#355,#356,#169,.T.);
#433=EDGE_CURVE('',#357,#356,#294,.T.);
#434=EDGE_CURVE('',#357,#358,#170,.T.);
#435=EDGE_CURVE('',#358,#359,#295,.T.);
#436=EDGE_CURVE('',#359,#360,#171,.T.);
#437=EDGE_CURVE('',#360,#361,#27,.T.);
#438=EDGE_CURVE('',#361,#362,#172,.T.);
#439=EDGE_CURVE('',#362,#363,#296,.T.);
#440=EDGE_CURVE('',#363,#340,#173,.T.);
#441=EDGE_CURVE('',#364,#364,#297,.T.);
#442=EDGE_CURVE('',#365,#365,#298,.T.);
#443=EDGE_CURVE('',#346,#330,#28,.T.);
#444=EDGE_CURVE('',#331,#345,#174,.T.);
#445=EDGE_CURVE('',#356,#319,#175,.T.);
#446=EDGE_CURVE('',#318,#357,#176,.T.);
#447=EDGE_CURVE('',#355,#320,#177,.T.);
#448=EDGE_CURVE('',#358,#317,#178,.T.);
#449=EDGE_CURVE('',#352,#323,#179,.T.);
#450=EDGE_CURVE('',#322,#353,#180,.T.);
#451=EDGE_CURVE('',#351,#324,#181,.T.);
#452=EDGE_CURVE('',#354,#321,#182,.T.);
#453=EDGE_CURVE('',#338,#366,#183,.T.);
#454=EDGE_CURVE('',#367,#337,#184,.T.);
#455=EDGE_CURVE('',#367,#366,#185,.T.);
#456=EDGE_CURVE('',#336,#368,#186,.T.);
#457=EDGE_CURVE('',#368,#367,#187,.T.);
#458=EDGE_CURVE('',#369,#339,#188,.T.);
#459=EDGE_CURVE('',#369,#368,#189,.T.);
#460=EDGE_CURVE('',#366,#369,#190,.T.);
#461=EDGE_CURVE('',#347,#329,#29,.T.);
#462=EDGE_CURVE('',#348,#328,#191,.T.);
#463=EDGE_CURVE('',#350,#325,#192,.T.);
#464=EDGE_CURVE('',#362,#313,#193,.T.);
#465=EDGE_CURVE('',#361,#314,#30,.T.);
#466=EDGE_CURVE('',#359,#316,#194,.T.);
#467=EDGE_CURVE('',#360,#315,#31,.T.);
#468=EDGE_CURVE('',#370,#370,#299,.F.);
#469=EDGE_CURVE('',#370,#313,#195,.T.);
#470=EDGE_CURVE('',#363,#312,#196,.T.);
#471=EDGE_CURVE('',#344,#332,#197,.T.);
#472=EDGE_CURVE('',#371,#371,#300,.F.);
#473=EDGE_CURVE('',#371,#327,#198,.T.);
#474=EDGE_CURVE('',#349,#326,#199,.T.);
#475=EDGE_CURVE('',#372,#372,#301,.T.);
#476=EDGE_CURVE('',#373,#373,#302,.T.);
#477=EDGE_CURVE('',#374,#374,#303,.T.);
#478=EDGE_CURVE('',#374,#375,#200,.T.);
#479=EDGE_CURVE('',#375,#375,#304,.T.);
#480=EDGE_CURVE('',#364,#374,#201,.T.);
#481=EDGE_CURVE('',#376,#376,#305,.T.);
#482=EDGE_CURVE('',#376,#377,#202,.T.);
#483=EDGE_CURVE('',#377,#377,#306,.T.);
#484=EDGE_CURVE('',#365,#376,#203,.T.);
#485=EDGE_CURVE('',#377,#372,#204,.T.);
#486=EDGE_CURVE('',#375,#373,#205,.T.);
#487=ORIENTED_EDGE('',*,*,#378,.T.);
#488=ORIENTED_EDGE('',*,*,#379,.T.);
#489=ORIENTED_EDGE('',*,*,#380,.T.);
#490=ORIENTED_EDGE('',*,*,#381,.T.);
#491=ORIENTED_EDGE('',*,*,#380,.F.);
#492=ORIENTED_EDGE('',*,*,#382,.F.);
#493=ORIENTED_EDGE('',*,*,#383,.F.);
#494=ORIENTED_EDGE('',*,*,#384,.F.);
#495=ORIENTED_EDGE('',*,*,#385,.F.);
#496=ORIENTED_EDGE('',*,*,#386,.T.);
#497=ORIENTED_EDGE('',*,*,#387,.T.);
#498=ORIENTED_EDGE('',*,*,#388,.T.);
#499=ORIENTED_EDGE('',*,*,#389,.T.);
#500=ORIENTED_EDGE('',*,*,#390,.F.);
#501=ORIENTED_EDGE('',*,*,#391,.T.);
#502=ORIENTED_EDGE('',*,*,#392,.T.);
#503=ORIENTED_EDGE('',*,*,#393,.T.);
#504=ORIENTED_EDGE('',*,*,#394,.F.);
#505=ORIENTED_EDGE('',*,*,#395,.T.);
#506=ORIENTED_EDGE('',*,*,#396,.F.);
#507=ORIENTED_EDGE('',*,*,#397,.F.);
#508=ORIENTED_EDGE('',*,*,#398,.F.);
#509=ORIENTED_EDGE('',*,*,#399,.F.);
#510=ORIENTED_EDGE('',*,*,#400,.T.);
#511=ORIENTED_EDGE('',*,*,#401,.T.);
#512=ORIENTED_EDGE('',*,*,#402,.T.);
#513=ORIENTED_EDGE('',*,*,#403,.T.);
#514=ORIENTED_EDGE('',*,*,#404,.T.);
#515=ORIENTED_EDGE('',*,*,#405,.T.);
#516=ORIENTED_EDGE('',*,*,#406,.F.);
#517=ORIENTED_EDGE('',*,*,#407,.T.);
#518=ORIENTED_EDGE('',*,*,#408,.T.);
#519=ORIENTED_EDGE('',*,*,#409,.T.);
#520=ORIENTED_EDGE('',*,*,#410,.T.);
#521=ORIENTED_EDGE('',*,*,#411,.T.);
#522=ORIENTED_EDGE('',*,*,#379,.F.);
#523=ORIENTED_EDGE('',*,*,#412,.F.);
#524=ORIENTED_EDGE('',*,*,#413,.T.);
#525=ORIENTED_EDGE('',*,*,#382,.T.);
#526=ORIENTED_EDGE('',*,*,#381,.F.);
#527=ORIENTED_EDGE('',*,*,#407,.F.);
#528=ORIENTED_EDGE('',*,*,#414,.F.);
#529=ORIENTED_EDGE('',*,*,#415,.F.);
#530=ORIENTED_EDGE('',*,*,#416,.F.);
#531=ORIENTED_EDGE('',*,*,#405,.F.);
#532=ORIENTED_EDGE('',*,*,#417,.F.);
#533=ORIENTED_EDGE('',*,*,#418,.F.);
#534=ORIENTED_EDGE('',*,*,#378,.F.);
#535=ORIENTED_EDGE('',*,*,#415,.T.);
#536=ORIENTED_EDGE('',*,*,#419,.F.);
#537=ORIENTED_EDGE('',*,*,#418,.T.);
#538=ORIENTED_EDGE('',*,*,#420,.T.);
#539=ORIENTED_EDGE('',*,*,#421,.T.);
#540=ORIENTED_EDGE('',*,*,#422,.T.);
#541=ORIENTED_EDGE('',*,*,#423,.T.);
#542=ORIENTED_EDGE('',*,*,#424,.T.);
#543=ORIENTED_EDGE('',*,*,#425,.T.);
#544=ORIENTED_EDGE('',*,*,#426,.T.);
#545=ORIENTED_EDGE('',*,*,#427,.T.);
#546=ORIENTED_EDGE('',*,*,#428,.T.);
#547=ORIENTED_EDGE('',*,*,#429,.F.);
#548=ORIENTED_EDGE('',*,*,#430,.T.);
#549=ORIENTED_EDGE('',*,*,#431,.T.);
#550=ORIENTED_EDGE('',*,*,#432,.T.);
#551=ORIENTED_EDGE('',*,*,#433,.F.);
#552=ORIENTED_EDGE('',*,*,#434,.T.);
#553=ORIENTED_EDGE('',*,*,#435,.T.);
#554=ORIENTED_EDGE('',*,*,#436,.T.);
#555=ORIENTED_EDGE('',*,*,#437,.T.);
#556=ORIENTED_EDGE('',*,*,#438,.T.);
#557=ORIENTED_EDGE('',*,*,#439,.T.);
#558=ORIENTED_EDGE('',*,*,#440,.T.);
#559=ORIENTED_EDGE('',*,*,#412,.T.);
#560=ORIENTED_EDGE('',*,*,#441,.T.);
#561=ORIENTED_EDGE('',*,*,#442,.T.);
#562=ORIENTED_EDGE('',*,*,#402,.F.);
#563=ORIENTED_EDGE('',*,*,#443,.F.);
#564=ORIENTED_EDGE('',*,*,#422,.F.);
#565=ORIENTED_EDGE('',*,*,#444,.F.);
#566=ORIENTED_EDGE('',*,*,#433,.T.);
#567=ORIENTED_EDGE('',*,*,#445,.T.);
#568=ORIENTED_EDGE('',*,*,#390,.T.);
#569=ORIENTED_EDGE('',*,*,#446,.T.);
#570=ORIENTED_EDGE('',*,*,#445,.F.);
#571=ORIENTED_EDGE('',*,*,#432,.F.);
#572=ORIENTED_EDGE('',*,*,#447,.T.);
#573=ORIENTED_EDGE('',*,*,#391,.F.);
#574=ORIENTED_EDGE('',*,*,#419,.T.);
#575=ORIENTED_EDGE('',*,*,#414,.T.);
#576=ORIENTED_EDGE('',*,*,#406,.T.);
#577=ORIENTED_EDGE('',*,*,#416,.T.);
#578=ORIENTED_EDGE('',*,*,#446,.F.);
#579=ORIENTED_EDGE('',*,*,#389,.F.);
#580=ORIENTED_EDGE('',*,*,#448,.F.);
#581=ORIENTED_EDGE('',*,*,#434,.F.);
#582=ORIENTED_EDGE('',*,*,#429,.T.);
#583=ORIENTED_EDGE('',*,*,#449,.T.);
#584=ORIENTED_EDGE('',*,*,#394,.T.);
#585=ORIENTED_EDGE('',*,*,#450,.T.);
#586=ORIENTED_EDGE('',*,*,#449,.F.);
#587=ORIENTED_EDGE('',*,*,#428,.F.);
#588=ORIENTED_EDGE('',*,*,#451,.T.);
#589=ORIENTED_EDGE('',*,*,#395,.F.);
#590=ORIENTED_EDGE('',*,*,#450,.F.);
#591=ORIENTED_EDGE('',*,*,#393,.F.);
#592=ORIENTED_EDGE('',*,*,#452,.F.);
#593=ORIENTED_EDGE('',*,*,#430,.F.);
#594=ORIENTED_EDGE('',*,*,#453,.F.);
#595=ORIENTED_EDGE('',*,*,#409,.F.);
#596=ORIENTED_EDGE('',*,*,#454,.F.);
#597=ORIENTED_EDGE('',*,*,#455,.T.);
#598=ORIENTED_EDGE('',*,*,#454,.T.);
#599=ORIENTED_EDGE('',*,*,#408,.F.);
#600=ORIENTED_EDGE('',*,*,#456,.T.);
#601=ORIENTED_EDGE('',*,*,#457,.T.);
#602=ORIENTED_EDGE('',*,*,#456,.F.);
#603=ORIENTED_EDGE('',*,*,#411,.F.);
#604=ORIENTED_EDGE('',*,*,#458,.F.);
#605=ORIENTED_EDGE('',*,*,#459,.T.);
#606=ORIENTED_EDGE('',*,*,#453,.T.);
#607=ORIENTED_EDGE('',*,*,#460,.T.);
#608=ORIENTED_EDGE('',*,*,#458,.T.);
#609=ORIENTED_EDGE('',*,*,#410,.F.);
#610=ORIENTED_EDGE('',*,*,#455,.F.);
#611=ORIENTED_EDGE('',*,*,#457,.F.);
#612=ORIENTED_EDGE('',*,*,#459,.F.);
#613=ORIENTED_EDGE('',*,*,#460,.F.);
#614=ORIENTED_EDGE('',*,*,#443,.T.);
#615=ORIENTED_EDGE('',*,*,#401,.F.);
#616=ORIENTED_EDGE('',*,*,#461,.F.);
#617=ORIENTED_EDGE('',*,*,#423,.F.);
#618=ORIENTED_EDGE('',*,*,#461,.T.);
#619=ORIENTED_EDGE('',*,*,#400,.F.);
#620=ORIENTED_EDGE('',*,*,#462,.F.);
#621=ORIENTED_EDGE('',*,*,#424,.F.);
#622=ORIENTED_EDGE('',*,*,#396,.T.);
#623=ORIENTED_EDGE('',*,*,#451,.F.);
#624=ORIENTED_EDGE('',*,*,#427,.F.);
#625=ORIENTED_EDGE('',*,*,#463,.T.);
#626=ORIENTED_EDGE('',*,*,#385,.T.);
#627=ORIENTED_EDGE('',*,*,#464,.F.);
#628=ORIENTED_EDGE('',*,*,#438,.F.);
#629=ORIENTED_EDGE('',*,*,#465,.T.);
#630=ORIENTED_EDGE('',*,*,#435,.F.);
#631=ORIENTED_EDGE('',*,*,#448,.T.);
#632=ORIENTED_EDGE('',*,*,#388,.F.);
#633=ORIENTED_EDGE('',*,*,#466,.F.);
#634=ORIENTED_EDGE('',*,*,#436,.F.);
#635=ORIENTED_EDGE('',*,*,#466,.T.);
#636=ORIENTED_EDGE('',*,*,#387,.F.);
#637=ORIENTED_EDGE('',*,*,#467,.F.);
#638=ORIENTED_EDGE('',*,*,#437,.F.);
#639=ORIENTED_EDGE('',*,*,#467,.T.);
#640=ORIENTED_EDGE('',*,*,#386,.F.);
#641=ORIENTED_EDGE('',*,*,#465,.F.);
#642=ORIENTED_EDGE('',*,*,#468,.F.);
#643=ORIENTED_EDGE('',*,*,#469,.T.);
#644=ORIENTED_EDGE('',*,*,#384,.T.);
#645=ORIENTED_EDGE('',*,*,#470,.F.);
#646=ORIENTED_EDGE('',*,*,#439,.F.);
#647=ORIENTED_EDGE('',*,*,#464,.T.);
#648=ORIENTED_EDGE('',*,*,#469,.F.);
#649=ORIENTED_EDGE('',*,*,#383,.T.);
#650=ORIENTED_EDGE('',*,*,#413,.F.);
#651=ORIENTED_EDGE('',*,*,#440,.F.);
#652=ORIENTED_EDGE('',*,*,#470,.T.);
#653=ORIENTED_EDGE('',*,*,#420,.F.);
#654=ORIENTED_EDGE('',*,*,#417,.T.);
#655=ORIENTED_EDGE('',*,*,#404,.F.);
#656=ORIENTED_EDGE('',*,*,#471,.F.);
#657=ORIENTED_EDGE('',*,*,#421,.F.);
#658=ORIENTED_EDGE('',*,*,#471,.T.);
#659=ORIENTED_EDGE('',*,*,#403,.F.);
#660=ORIENTED_EDGE('',*,*,#444,.T.);
#661=ORIENTED_EDGE('',*,*,#472,.F.);
#662=ORIENTED_EDGE('',*,*,#473,.T.);
#663=ORIENTED_EDGE('',*,*,#398,.T.);
#664=ORIENTED_EDGE('',*,*,#474,.F.);
#665=ORIENTED_EDGE('',*,*,#425,.F.);
#666=ORIENTED_EDGE('',*,*,#462,.T.);
#667=ORIENTED_EDGE('',*,*,#399,.T.);
#668=ORIENTED_EDGE('',*,*,#473,.F.);
#669=ORIENTED_EDGE('',*,*,#397,.T.);
#670=ORIENTED_EDGE('',*,*,#463,.F.);
#671=ORIENTED_EDGE('',*,*,#426,.F.);
#672=ORIENTED_EDGE('',*,*,#474,.T.);
#673=ORIENTED_EDGE('',*,*,#431,.F.);
#674=ORIENTED_EDGE('',*,*,#452,.T.);
#675=ORIENTED_EDGE('',*,*,#392,.F.);
#676=ORIENTED_EDGE('',*,*,#447,.F.);
#677=ORIENTED_EDGE('',*,*,#472,.T.);
#678=ORIENTED_EDGE('',*,*,#475,.T.);
#679=ORIENTED_EDGE('',*,*,#468,.T.);
#680=ORIENTED_EDGE('',*,*,#476,.T.);
#681=ORIENTED_EDGE('',*,*,#477,.F.);
#682=ORIENTED_EDGE('',*,*,#478,.T.);
#683=ORIENTED_EDGE('',*,*,#479,.F.);
#684=ORIENTED_EDGE('',*,*,#478,.F.);
#685=ORIENTED_EDGE('',*,*,#441,.F.);
#686=ORIENTED_EDGE('',*,*,#480,.T.);
#687=ORIENTED_EDGE('',*,*,#477,.T.);
#688=ORIENTED_EDGE('',*,*,#480,.F.);
#689=ORIENTED_EDGE('',*,*,#481,.F.);
#690=ORIENTED_EDGE('',*,*,#482,.T.);
#691=ORIENTED_EDGE('',*,*,#483,.F.);
#692=ORIENTED_EDGE('',*,*,#482,.F.);
#693=ORIENTED_EDGE('',*,*,#442,.F.);
#694=ORIENTED_EDGE('',*,*,#484,.T.);
#695=ORIENTED_EDGE('',*,*,#481,.T.);
#696=ORIENTED_EDGE('',*,*,#484,.F.);
#697=ORIENTED_EDGE('',*,*,#483,.T.);
#698=ORIENTED_EDGE('',*,*,#485,.T.);
#699=ORIENTED_EDGE('',*,*,#475,.F.);
#700=ORIENTED_EDGE('',*,*,#485,.F.);
#701=ORIENTED_EDGE('',*,*,#479,.T.);
#702=ORIENTED_EDGE('',*,*,#486,.T.);
#703=ORIENTED_EDGE('',*,*,#476,.F.);
#704=ORIENTED_EDGE('',*,*,#486,.F.);
#705=CYLINDRICAL_SURFACE('',#776,3.90000000000002);
#706=CYLINDRICAL_SURFACE('',#792,4.1);
#707=CYLINDRICAL_SURFACE('',#810,4.);
#708=CYLINDRICAL_SURFACE('',#812,4.00000000000001);
#709=CYLINDRICAL_SURFACE('',#814,1.00000000000001);
#710=CYLINDRICAL_SURFACE('',#823,4.1);
#711=CYLINDRICAL_SURFACE('',#825,3.9);
#712=CYLINDRICAL_SURFACE('',#827,3.69999999999999);
#713=CYLINDRICAL_SURFACE('',#830,4.);
#714=CYLINDRICAL_SURFACE('',#831,4.);
#715=CYLINDRICAL_SURFACE('',#832,3.7);
#716=CYLINDRICAL_SURFACE('',#835,0.899999999999996);
#717=CYLINDRICAL_SURFACE('',#843,3.);
#718=CYLINDRICAL_SURFACE('',#847,3.);
#719=CYLINDRICAL_SURFACE('',#848,1.6);
#720=CYLINDRICAL_SURFACE('',#849,1.6);
#721=ADVANCED_FACE('',(#53),#705,.T.);
#722=ADVANCED_FACE('',(#54,#19),#32,.F.);
#723=ADVANCED_FACE('',(#55),#706,.F.);
#724=ADVANCED_FACE('',(#56),#33,.F.);
#725=ADVANCED_FACE('',(#57),#34,.F.);
#726=ADVANCED_FACE('',(#58,#20,#21),#35,.T.);
#727=ADVANCED_FACE('',(#59),#36,.F.);
#728=ADVANCED_FACE('',(#60),#707,.F.);
#729=ADVANCED_FACE('',(#61),#37,.F.);
#730=ADVANCED_FACE('',(#62),#708,.T.);
#731=ADVANCED_FACE('',(#63),#38,.F.);
#732=ADVANCED_FACE('',(#64),#709,.T.);
#733=ADVANCED_FACE('',(#65),#39,.F.);
#734=ADVANCED_FACE('',(#66),#40,.F.);
#735=ADVANCED_FACE('',(#67),#41,.T.);
#736=ADVANCED_FACE('',(#68),#42,.F.);
#737=ADVANCED_FACE('',(#69),#43,.T.);
#738=ADVANCED_FACE('',(#70),#44,.F.);
#739=ADVANCED_FACE('',(#71),#45,.F.);
#740=ADVANCED_FACE('',(#72),#17,.T.);
#741=ADVANCED_FACE('',(#73),#46,.F.);
#742=ADVANCED_FACE('',(#74),#710,.F.);
#743=ADVANCED_FACE('',(#75),#47,.F.);
#744=ADVANCED_FACE('',(#76),#711,.T.);
#745=ADVANCED_FACE('',(#77),#48,.F.);
#746=ADVANCED_FACE('',(#78),#18,.T.);
#747=ADVANCED_FACE('',(#79),#712,.T.);
#748=ADVANCED_FACE('',(#80),#49,.F.);
#749=ADVANCED_FACE('',(#81),#713,.F.);
#750=ADVANCED_FACE('',(#82),#714,.T.);
#751=ADVANCED_FACE('',(#83),#715,.T.);
#752=ADVANCED_FACE('',(#84),#50,.F.);
#753=ADVANCED_FACE('',(#85),#716,.T.);
#754=ADVANCED_FACE('',(#86,#22),#51,.F.);
#755=ADVANCED_FACE('',(#87,#23),#52,.F.);
#756=ADVANCED_FACE('',(#88),#15,.F.);
#757=ADVANCED_FACE('',(#89),#717,.F.);
#758=ADVANCED_FACE('',(#90),#16,.F.);
#759=ADVANCED_FACE('',(#91),#718,.F.);
#760=ADVANCED_FACE('',(#92),#719,.F.);
#761=ADVANCED_FACE('',(#93),#720,.F.);
#762=CLOSED_SHELL('',(#721,#722,#723,#724,#725,#726,#727,#728,#729,#730,
#731,#732,#733,#734,#735,#736,#737,#738,#739,#740,#741,#742,#743,#744,#745,
#746,#747,#748,#749,#750,#751,#752,#753,#754,#755,#756,#757,#758,#759,#760,
#761));
#763=DERIVED_UNIT_ELEMENT(#765,1.);
#764=DERIVED_UNIT_ELEMENT(#1363,-3.);
#765=(
MASS_UNIT()
NAMED_UNIT(*)
SI_UNIT(.KILO.,.GRAM.)
);
#766=DERIVED_UNIT((#763,#764));
#767=MEASURE_REPRESENTATION_ITEM('density measure',
POSITIVE_RATIO_MEASURE(7850.),#766);
#768=PROPERTY_DEFINITION_REPRESENTATION(#773,#770);
#769=PROPERTY_DEFINITION_REPRESENTATION(#774,#771);
#770=REPRESENTATION('material name',(#772),#1360);
#771=REPRESENTATION('density',(#767),#1360);
#772=DESCRIPTIVE_REPRESENTATION_ITEM('Stahl','Stahl');
#773=PROPERTY_DEFINITION('material property','material name',#1370);
#774=PROPERTY_DEFINITION('material property','density of part',#1370);
#775=AXIS2_PLACEMENT_3D('',#1066,#850,#851);
#776=AXIS2_PLACEMENT_3D('',#1067,#852,#853);
#777=AXIS2_PLACEMENT_3D('',#1070,#854,#855);
#778=AXIS2_PLACEMENT_3D('',#1074,#857,#858);
#779=AXIS2_PLACEMENT_3D('',#1076,#860,#861);
#780=AXIS2_PLACEMENT_3D('',#1078,#862,#863);
#781=AXIS2_PLACEMENT_3D('',#1082,#865,#866);
#782=AXIS2_PLACEMENT_3D('',#1096,#869,#870);
#783=AXIS2_PLACEMENT_3D('',#1100,#872,#873);
#784=AXIS2_PLACEMENT_3D('',#1104,#875,#876);
#785=AXIS2_PLACEMENT_3D('',#1108,#878,#879);
#786=AXIS2_PLACEMENT_3D('',#1112,#881,#882);
#787=AXIS2_PLACEMENT_3D('',#1116,#884,#885);
#788=AXIS2_PLACEMENT_3D('',#1118,#886,#887);
#789=AXIS2_PLACEMENT_3D('',#1132,#890,#891);
#790=AXIS2_PLACEMENT_3D('',#1134,#892,#893);
#791=AXIS2_PLACEMENT_3D('',#1138,#895,#896);
#792=AXIS2_PLACEMENT_3D('',#1148,#902,#903);
#793=AXIS2_PLACEMENT_3D('',#1150,#904,#905);
#794=AXIS2_PLACEMENT_3D('',#1152,#907,#908);
#795=AXIS2_PLACEMENT_3D('',#1156,#911,#912);
#796=AXIS2_PLACEMENT_3D('',#1162,#916,#917);
#797=AXIS2_PLACEMENT_3D('',#1163,#918,#919);
#798=AXIS2_PLACEMENT_3D('',#1165,#920,#921);
#799=AXIS2_PLACEMENT_3D('',#1167,#922,#923);
#800=AXIS2_PLACEMENT_3D('',#1181,#926,#927);
#801=AXIS2_PLACEMENT_3D('',#1185,#929,#930);
#802=AXIS2_PLACEMENT_3D('',#1189,#932,#933);
#803=AXIS2_PLACEMENT_3D('',#1193,#935,#936);
#804=AXIS2_PLACEMENT_3D('',#1197,#938,#939);
#805=AXIS2_PLACEMENT_3D('',#1201,#941,#942);
#806=AXIS2_PLACEMENT_3D('',#1215,#945,#946);
#807=AXIS2_PLACEMENT_3D('',#1218,#948,#949);
#808=AXIS2_PLACEMENT_3D('',#1220,#950,#951);
#809=AXIS2_PLACEMENT_3D('',#1221,#952,#953);
#810=AXIS2_PLACEMENT_3D('',#1229,#955,#956);
#811=AXIS2_PLACEMENT_3D('',#1232,#959,#960);
#812=AXIS2_PLACEMENT_3D('',#1234,#962,#963);
#813=AXIS2_PLACEMENT_3D('',#1235,#964,#965);
#814=AXIS2_PLACEMENT_3D('',#1237,#967,#968);
#815=AXIS2_PLACEMENT_3D('',#1240,#971,#972);
#816=AXIS2_PLACEMENT_3D('',#1242,#974,#975);
#817=AXIS2_PLACEMENT_3D('',#1244,#977,#978);
#818=AXIS2_PLACEMENT_3D('',#1250,#982,#983);
#819=AXIS2_PLACEMENT_3D('',#1254,#986,#987);
#820=AXIS2_PLACEMENT_3D('',#1258,#990,#991);
#821=AXIS2_PLACEMENT_3D('',#1260,#993,#994);
#822=AXIS2_PLACEMENT_3D('',#1281,#995,#996);
#823=AXIS2_PLACEMENT_3D('',#1283,#998,#999);
#824=AXIS2_PLACEMENT_3D('',#1285,#1001,#1002);
#825=AXIS2_PLACEMENT_3D('',#1293,#1004,#1005);
#826=AXIS2_PLACEMENT_3D('',#1295,#1007,#1008);
#827=AXIS2_PLACEMENT_3D('',#1316,#1009,#1010);
#828=AXIS2_PLACEMENT_3D('',#1318,#1011,#1012);
#829=AXIS2_PLACEMENT_3D('',#1321,#1015,#1016);
#830=AXIS2_PLACEMENT_3D('',#1322,#1017,#1018);
#831=AXIS2_PLACEMENT_3D('',#1324,#1020,#1021);
#832=AXIS2_PLACEMENT_3D('',#1325,#1022,#1023);
#833=AXIS2_PLACEMENT_3D('',#1327,#1024,#1025);
#834=AXIS2_PLACEMENT_3D('',#1330,#1028,#1029);
#835=AXIS2_PLACEMENT_3D('',#1331,#1030,#1031);
#836=AXIS2_PLACEMENT_3D('',#1332,#1032,#1033);
#837=AXIS2_PLACEMENT_3D('',#1334,#1034,#1035);
#838=AXIS2_PLACEMENT_3D('',#1335,#1036,#1037);
#839=AXIS2_PLACEMENT_3D('',#1337,#1038,#1039);
#840=AXIS2_PLACEMENT_3D('',#1338,#1040,#1041);
#841=AXIS2_PLACEMENT_3D('',#1340,#1042,#1043);
#842=AXIS2_PLACEMENT_3D('',#1343,#1045,#1046);
#843=AXIS2_PLACEMENT_3D('',#1344,#1047,#1048);
#844=AXIS2_PLACEMENT_3D('',#1346,#1050,#1051);
#845=AXIS2_PLACEMENT_3D('',#1348,#1052,#1053);
#846=AXIS2_PLACEMENT_3D('',#1351,#1055,#1056);
#847=AXIS2_PLACEMENT_3D('',#1352,#1057,#1058);
#848=AXIS2_PLACEMENT_3D('',#1354,#1060,#1061);
#849=AXIS2_PLACEMENT_3D('',#1356,#1063,#1064);
#850=DIRECTION('axis',(0.,0.,1.));
#851=DIRECTION('refdir',(1.,0.,0.));
#852=DIRECTION('center_axis',(0.,0.,-1.));
#853=DIRECTION('ref_axis',(0.612372435695793,-0.790569415042096,0.));
#854=DIRECTION('center_axis',(0.,0.,1.));
#855=DIRECTION('ref_axis',(0.612372435695793,-0.790569415042096,0.));
#856=DIRECTION('',(0.,0.,1.));
#857=DIRECTION('center_axis',(0.,0.,-1.));
#858=DIRECTION('ref_axis',(0.612372435695793,-0.790569415042096,0.));
#859=DIRECTION('',(0.,0.,-1.));
#860=DIRECTION('center_axis',(0.,0.,-1.));
#861=DIRECTION('ref_axis',(1.,0.,0.));
#862=DIRECTION('center_axis',(0.,0.,1.));
#863=DIRECTION('ref_axis',(0.,1.,0.));
#864=DIRECTION('',(-1.,-2.71601486411488E-14,0.));
#865=DIRECTION('center_axis',(0.,0.,-1.));
#866=DIRECTION('ref_axis',(-1.,0.,0.));
#867=DIRECTION('',(0.,-1.,0.));
#868=DIRECTION('',(0.,-1.,0.));
#869=DIRECTION('center_axis',(0.,0.,-1.));
#870=DIRECTION('ref_axis',(1.,0.,0.));
#871=DIRECTION('',(1.,0.,0.));
#872=DIRECTION('center_axis',(0.,0.,1.));
#873=DIRECTION('ref_axis',(-0.707106781186546,-0.707106781186549,0.));
#874=DIRECTION('',(0.,-1.,0.));
#875=DIRECTION('center_axis',(0.,0.,-1.));
#876=DIRECTION('ref_axis',(1.,0.,0.));
#877=DIRECTION('',(1.,-1.1416175060413E-16,0.));
#878=DIRECTION('center_axis',(0.,0.,-1.));
#879=DIRECTION('ref_axis',(-0.707106781186548,0.707106781186548,0.));
#880=DIRECTION('',(5.16382802151228E-16,1.,0.));
#881=DIRECTION('center_axis',(0.,0.,1.));
#882=DIRECTION('ref_axis',(0.,-1.,0.));
#883=DIRECTION('',(1.,-1.33226271611347E-13,0.));
#884=DIRECTION('center_axis',(0.,0.,-1.));
#885=DIRECTION('ref_axis',(-1.,0.,0.));
#886=DIRECTION('center_axis',(0.,0.,-1.));
#887=DIRECTION('ref_axis',(-1.,0.,0.));
#888=DIRECTION('',(0.,1.,0.));
#889=DIRECTION('',(0.,-1.,0.));
#890=DIRECTION('center_axis',(0.,0.,1.));
#891=DIRECTION('ref_axis',(-1.,-4.44089209850062E-15,0.));
#892=DIRECTION('center_axis',(0.,0.,-1.));
#893=DIRECTION('ref_axis',(1.,0.,0.));
#894=DIRECTION('',(0.,-1.,0.));
#895=DIRECTION('center_axis',(0.,0.,-1.));
#896=DIRECTION('ref_axis',(-0.707106781186548,-0.707106781186548,0.));
#897=DIRECTION('',(-1.,-3.09254324408123E-17,0.));
#898=DIRECTION('',(0.,-1.,0.));
#899=DIRECTION('',(-1.,0.,0.));
#900=DIRECTION('',(0.,1.,0.));
#901=DIRECTION('',(1.,0.,0.));
#902=DIRECTION('center_axis',(0.,0.,-1.));
#903=DIRECTION('ref_axis',(0.,1.,0.));
#904=DIRECTION('center_axis',(0.,0.,1.));
#905=DIRECTION('ref_axis',(0.,1.,0.));
#906=DIRECTION('',(0.,0.,1.));
#907=DIRECTION('center_axis',(-3.09254324408123E-17,1.,0.));
#908=DIRECTION('ref_axis',(1.,3.09254324408123E-17,0.));
#909=DIRECTION('',(0.,0.,1.));
#910=DIRECTION('',(-1.,-3.09254324408123E-17,0.));
#911=DIRECTION('center_axis',(1.,0.,0.));
#912=DIRECTION('ref_axis',(0.,0.,-1.));
#913=DIRECTION('',(0.,0.,-1.));
#914=DIRECTION('',(0.,0.,1.));
#915=DIRECTION('',(0.,1.,0.));
#916=DIRECTION('center_axis',(0.,0.,-1.));
#917=DIRECTION('ref_axis',(1.,0.,0.));
#918=DIRECTION('center_axis',(0.,0.,1.));
#919=DIRECTION('ref_axis',(-0.707106781186548,-0.707106781186548,0.));
#920=DIRECTION('center_axis',(0.,0.,1.));
#921=DIRECTION('ref_axis',(1.,0.,0.));
#922=DIRECTION('center_axis',(0.,0.,-1.));
#923=DIRECTION('ref_axis',(-1.,-4.44089209850062E-15,0.));
#924=DIRECTION('',(0.,1.,0.));
#925=DIRECTION('',(0.,1.,0.));
#926=DIRECTION('center_axis',(0.,0.,-1.));
#927=DIRECTION('ref_axis',(-1.,0.,0.));
#928=DIRECTION('',(1.,-1.33226271611347E-13,0.));
#929=DIRECTION('center_axis',(0.,0.,1.));
#930=DIRECTION('ref_axis',(0.,-1.,0.));
#931=DIRECTION('',(5.16382802151228E-16,1.,0.));
#932=DIRECTION('center_axis',(0.,0.,1.));
#933=DIRECTION('ref_axis',(-0.707106781186548,0.707106781186548,0.));
#934=DIRECTION('',(1.,-1.1416175060413E-16,0.));
#935=DIRECTION('center_axis',(0.,0.,-1.));
#936=DIRECTION('ref_axis',(1.,0.,0.));
#937=DIRECTION('',(0.,-1.,0.));
#938=DIRECTION('center_axis',(0.,0.,-1.));
#939=DIRECTION('ref_axis',(-0.707106781186546,-0.707106781186549,0.));
#940=DIRECTION('',(1.,0.,0.));
#941=DIRECTION('center_axis',(0.,0.,-1.));
#942=DIRECTION('ref_axis',(1.,0.,0.));
#943=DIRECTION('',(0.,-1.,0.));
#944=DIRECTION('',(0.,-1.,0.));
#945=DIRECTION('center_axis',(0.,0.,-1.));
#946=DIRECTION('ref_axis',(-1.,0.,0.));
#947=DIRECTION('',(-1.,-2.71601486411488E-14,0.));
#948=DIRECTION('center_axis',(0.,0.,1.));
#949=DIRECTION('ref_axis',(-1.,0.,0.));
#950=DIRECTION('center_axis',(0.,0.,1.));
#951=DIRECTION('ref_axis',(-1.,0.,0.));
#952=DIRECTION('center_axis',(1.,0.,0.));
#953=DIRECTION('ref_axis',(0.,-1.,0.));
#954=DIRECTION('',(0.,0.,-1.));
#955=DIRECTION('center_axis',(0.,0.,1.));
#956=DIRECTION('ref_axis',(-0.707106781186546,-0.707106781186549,0.));
#957=DIRECTION('',(0.,0.,1.));
#958=DIRECTION('',(0.,0.,-1.));
#959=DIRECTION('center_axis',(-1.,0.,0.));
#960=DIRECTION('ref_axis',(0.,1.,0.));
#961=DIRECTION('',(0.,0.,1.));
#962=DIRECTION('center_axis',(0.,0.,-1.));
#963=DIRECTION('ref_axis',(-0.707106781186548,-0.707106781186548,0.));
#964=DIRECTION('center_axis',(0.,-1.,0.));
#965=DIRECTION('ref_axis',(-1.,0.,0.));
#966=DIRECTION('',(0.,0.,1.));
#967=DIRECTION('center_axis',(0.,0.,-1.));
#968=DIRECTION('ref_axis',(-0.707106781186548,0.707106781186548,0.));
#969=DIRECTION('',(0.,0.,1.));
#970=DIRECTION('',(0.,0.,-1.));
#971=DIRECTION('center_axis',(1.,-5.16382802151228E-16,0.));
#972=DIRECTION('ref_axis',(-5.16382802151228E-16,-1.,0.));
#973=DIRECTION('',(0.,0.,1.));
#974=DIRECTION('center_axis',(-1.1416175060413E-16,-1.,0.));
#975=DIRECTION('ref_axis',(-1.,1.1416175060413E-16,0.));
#976=DIRECTION('',(0.,0.,1.));
#977=DIRECTION('center_axis',(0.,0.707106781186548,0.707106781186547));
#978=DIRECTION('ref_axis',(1.,0.,0.));
#979=DIRECTION('',(0.,0.707106781186547,-0.707106781186548));
#980=DIRECTION('',(0.,-0.707106781186547,0.707106781186548));
#981=DIRECTION('',(-1.,0.,0.));
#982=DIRECTION('center_axis',(1.,0.,0.));
#983=DIRECTION('ref_axis',(0.,-1.,0.));
#984=DIRECTION('',(0.,-0.707106781186546,-0.707106781186549));
#985=DIRECTION('',(0.,-1.,0.));
#986=DIRECTION('center_axis',(0.,-0.707106781186549,0.707106781186546));
#987=DIRECTION('ref_axis',(1.,0.,0.));
#988=DIRECTION('',(0.,0.707106781186546,0.707106781186549));
#989=DIRECTION('',(1.,0.,0.));
#990=DIRECTION('center_axis',(-1.,0.,0.));
#991=DIRECTION('ref_axis',(0.,1.,0.));
#992=DIRECTION('',(0.,1.,0.));
#993=DIRECTION('center_axis',(0.,0.,-1.));
#994=DIRECTION('ref_axis',(-1.,0.,0.));
#995=DIRECTION('center_axis',(1.,0.,0.));
#996=DIRECTION('ref_axis',(0.,-1.,0.));
#997=DIRECTION('',(0.,0.,1.));
#998=DIRECTION('center_axis',(0.,0.,-1.));
#999=DIRECTION('ref_axis',(0.,-1.,0.));
#1000=DIRECTION('',(0.,0.,1.));
#1001=DIRECTION('center_axis',(-1.,0.,0.));
#1002=DIRECTION('ref_axis',(0.,1.,0.));
#1003=DIRECTION('',(0.,0.,1.));
#1004=DIRECTION('center_axis',(0.,0.,-1.));
#1005=DIRECTION('ref_axis',(1.,0.,0.));
#1006=DIRECTION('',(0.,0.,1.));
#1007=DIRECTION('center_axis',(-1.,0.,0.));
#1008=DIRECTION('ref_axis',(0.,1.,0.));
#1009=DIRECTION('center_axis',(0.,0.,-1.));
#1010=DIRECTION('ref_axis',(-1.,0.,0.));
#1011=DIRECTION('center_axis',(0.,0.,-1.));
#1012=DIRECTION('ref_axis',(-1.,0.,0.));
#1013=DIRECTION('',(0.,0.,-1.));
#1014=DIRECTION('',(0.,0.,1.));
#1015=DIRECTION('center_axis',(-2.71601486411488E-14,1.,0.));
#1016=DIRECTION('ref_axis',(1.,2.71601486411488E-14,0.));
#1017=DIRECTION('center_axis',(0.,0.,-1.));
#1018=DIRECTION('ref_axis',(1.,0.,0.));
#1019=DIRECTION('',(0.,0.,1.));
#1020=DIRECTION('center_axis',(0.,0.,-1.));
#1021=DIRECTION('ref_axis',(-1.,-4.44089209850062E-15,0.));
#1022=DIRECTION('center_axis',(0.,0.,-1.));
#1023=DIRECTION('ref_axis',(-1.,0.,0.));
#1024=DIRECTION('center_axis',(0.,0.,-1.));
#1025=DIRECTION('ref_axis',(-1.,0.,0.));
#1026=DIRECTION('',(0.,0.,-1.));
#1027=DIRECTION('',(0.,0.,1.));
#1028=DIRECTION('center_axis',(-1.33226271611347E-13,-1.,0.));
#1029=DIRECTION('ref_axis',(-1.,1.33226271611347E-13,0.));
#1030=DIRECTION('center_axis',(0.,0.,-1.));
#1031=DIRECTION('ref_axis',(1.,0.,0.));
#1032=DIRECTION('center_axis',(0.,0.,-1.));
#1033=DIRECTION('ref_axis',(1.,0.,0.));
#1034=DIRECTION('center_axis',(0.,0.,-1.));
#1035=DIRECTION('ref_axis',(-1.,0.,0.));
#1036=DIRECTION('center_axis',(0.,0.,-1.));
#1037=DIRECTION('ref_axis',(1.,0.,0.));
#1038=DIRECTION('center_axis',(0.,0.,-1.));
#1039=DIRECTION('ref_axis',(-1.,0.,0.));
#1040=DIRECTION('center_axis',(0.,0.,-1.));
#1041=DIRECTION('ref_axis',(-1.,0.,0.));
#1042=DIRECTION('center_axis',(0.,0.,1.));
#1043=DIRECTION('ref_axis',(-1.,0.,0.));
#1044=DIRECTION('',(-0.766044443118978,-9.38133875270273E-17,0.642787609686539));
#1045=DIRECTION('center_axis',(0.,0.,-1.));
#1046=DIRECTION('ref_axis',(-1.,0.,0.));
#1047=DIRECTION('center_axis',(0.,0.,1.));
#1048=DIRECTION('ref_axis',(-1.,0.,0.));
#1049=DIRECTION('',(0.,0.,1.));
#1050=DIRECTION('center_axis',(0.,0.,-1.));
#1051=DIRECTION('ref_axis',(-1.,0.,0.));
#1052=DIRECTION('center_axis',(0.,0.,1.));
#1053=DIRECTION('ref_axis',(-1.,0.,0.));
#1054=DIRECTION('',(-0.766044443118978,-9.38133875270273E-17,0.642787609686539));
#1055=DIRECTION('center_axis',(0.,0.,-1.));
#1056=DIRECTION('ref_axis',(-1.,0.,0.));
#1057=DIRECTION('center_axis',(0.,0.,1.));
#1058=DIRECTION('ref_axis',(-1.,0.,0.));
#1059=DIRECTION('',(0.,0.,1.));
#1060=DIRECTION('center_axis',(0.,0.,-1.));
#1061=DIRECTION('ref_axis',(-1.,0.,0.));
#1062=DIRECTION('',(0.,0.,1.));
#1063=DIRECTION('center_axis',(0.,0.,-1.));
#1064=DIRECTION('ref_axis',(-1.,0.,0.));
#1065=DIRECTION('',(0.,0.,1.));
#1066=CARTESIAN_POINT('',(0.,0.,0.));
#1067=CARTESIAN_POINT('Origin',(112.6,15.4000000000002,-12.9999999999995));
#1068=CARTESIAN_POINT('',(112.6,11.5000000000002,-14.9999999999995));
#1069=CARTESIAN_POINT('',(116.376158762552,14.4250000000002,-14.9999999999995));
#1070=CARTESIAN_POINT('Origin',(112.6,15.4000000000002,-14.9999999999995));
#1071=CARTESIAN_POINT('',(116.376158762552,14.4250000000002,-12.9999999999995));
#1072=CARTESIAN_POINT('',(116.376158762552,14.4250000000002,-12.9999999999995));
#1073=CARTESIAN_POINT('',(112.6,11.5000000000002,-12.9999999999995));
#1074=CARTESIAN_POINT('Origin',(112.6,15.4000000000002,-12.9999999999995));
#1075=CARTESIAN_POINT('',(112.6,11.5000000000002,-12.9999999999995));
#1076=CARTESIAN_POINT('Origin',(121.,37.2000000000002,-12.9999999999995));
#1077=CARTESIAN_POINT('',(120.345966692415,17.5000000000002,-12.9999999999995));
#1078=CARTESIAN_POINT('Origin',(120.345966692415,13.4000000000002,-12.9999999999995));
#1079=CARTESIAN_POINT('',(120.999997295439,17.5000000000002,-12.9999999999995));
#1080=CARTESIAN_POINT('',(120.672983346208,17.5000000000002,-12.9999999999995));
#1081=CARTESIAN_POINT('',(124.7,21.2000000000002,-12.9999999999995));
#1082=CARTESIAN_POINT('Origin',(121.,21.2000000000002,-12.9999999999995));
#1083=CARTESIAN_POINT('',(124.7,33.1045484448612,-12.9999999999995));
#1084=CARTESIAN_POINT('',(124.7,29.2000000000002,-12.9999999999995));
#1085=CARTESIAN_POINT('',(124.7,41.2954515551392,-12.9999999999995));
#1086=CARTESIAN_POINT('Ctrl Pts',(124.7,41.2954515551392,-12.9999999999995));
#1087=CARTESIAN_POINT('Ctrl Pts',(124.062017937376,41.2373768478176,-12.9999999999995));
#1088=CARTESIAN_POINT('Ctrl Pts',(122.894544598076,39.9819918401863,-12.9999999999995));
#1089=CARTESIAN_POINT('Ctrl Pts',(122.554783687761,36.8477000501345,-12.9999999999995));
#1090=CARTESIAN_POINT('Ctrl Pts',(123.194775882491,34.1049812888408,-12.9999999999995));
#1091=CARTESIAN_POINT('Ctrl Pts',(124.062017937376,33.1626231521828,-12.9999999999995));
#1092=CARTESIAN_POINT('Ctrl Pts',(124.7,33.1045484448612,-12.9999999999995));
#1093=CARTESIAN_POINT('',(124.7,53.0000000000002,-12.9999999999995));
#1094=CARTESIAN_POINT('',(124.7,39.2000000000002,-12.9999999999995));
#1095=CARTESIAN_POINT('',(120.8,56.9000000000002,-12.9999999999995));
#1096=CARTESIAN_POINT('Origin',(120.8,53.0000000000002,-12.9999999999995));
#1097=CARTESIAN_POINT('',(120.5,56.9000000000002,-12.9999999999995));
#1098=CARTESIAN_POINT('',(120.9,56.9000000000002,-12.9999999999995));
#1099=CARTESIAN_POINT('',(116.5,60.9000000000002,-12.9999999999995));
#1100=CARTESIAN_POINT('Origin',(120.5,60.9000000000002,-12.9999999999995));
#1101=CARTESIAN_POINT('',(116.5,74.5000000000001,-12.9999999999995));
#1102=CARTESIAN_POINT('',(116.5,49.1000000000002,-12.9999999999995));
#1103=CARTESIAN_POINT('',(115.6,75.4000000000001,-12.9999999999995));
#1104=CARTESIAN_POINT('Origin',(115.6,74.5000000000001,-12.9999999999995));
#1105=CARTESIAN_POINT('',(38.3000000000003,75.4000000000001,-12.9999999999995));
#1106=CARTESIAN_POINT('',(118.3,75.4000000000001,-12.9999999999995));
#1107=CARTESIAN_POINT('',(37.3000000000003,74.4000000000001,-12.9999999999995));
#1108=CARTESIAN_POINT('Origin',(38.3000000000003,74.4000000000001,-12.9999999999995));
#1109=CARTESIAN_POINT('',(37.3000000000003,65.9,-12.9999999999995));
#1110=CARTESIAN_POINT('',(37.3000000000003,55.8500000000002,-12.9999999999995));
#1111=CARTESIAN_POINT('',(33.2000000000003,61.8,-12.9999999999995));
#1112=CARTESIAN_POINT('Origin',(33.2000000000003,65.9,-12.9999999999995));
#1113=CARTESIAN_POINT('',(32.9999992623925,61.8,-12.9999999999995));
#1114=CARTESIAN_POINT('',(77.1000000000018,61.7999999999941,-12.9999999999995));
#1115=CARTESIAN_POINT('',(36.7000000000003,58.1,-12.9999999999995));
#1116=CARTESIAN_POINT('Origin',(33.0000000000003,58.1,-12.9999999999995));
#1117=CARTESIAN_POINT('',(29.3000000000003,58.1,-12.9999999999995));
#1118=CARTESIAN_POINT('Origin',(33.0000000000003,58.1,-12.9999999999995));
#1119=CARTESIAN_POINT('',(29.3000000000003,54.295451555139,-12.9999999999995));
#1120=CARTESIAN_POINT('',(29.3000000000003,47.6500000000001,-12.9999999999995));
#1121=CARTESIAN_POINT('',(29.299999999998,46.1045484448605,-12.9999999999995));
#1122=CARTESIAN_POINT('Ctrl Pts',(29.2999999999979,46.1045484448607,-12.9999999999995));
#1123=CARTESIAN_POINT('Ctrl Pts',(29.6189910313101,46.1335857985208,-12.9999999999995));
#1124=CARTESIAN_POINT('Ctrl Pts',(30.5432238513815,46.6311896969932,-12.9999999999995));
#1125=CARTESIAN_POINT('Ctrl Pts',(31.5156655464948,49.208718383851,-12.9999999999995));
#1126=CARTESIAN_POINT('Ctrl Pts',(31.1057827908515,52.9876063602257,-12.9999999999995));
#1127=CARTESIAN_POINT('Ctrl Pts',(29.9379820626246,54.2373768478174,-12.9999999999995));
#1128=CARTESIAN_POINT('Ctrl Pts',(29.3000000000003,54.295451555139,-12.9999999999995));
#1129=CARTESIAN_POINT('',(29.3000000000003,42.3,-12.9999999999995));
#1130=CARTESIAN_POINT('',(29.3000000000003,47.6500000000001,-12.9999999999995));
#1131=CARTESIAN_POINT('',(33.3000000000003,38.3,-12.9999999999995));
#1132=CARTESIAN_POINT('Origin',(33.3000000000003,42.3,-12.9999999999995));
#1133=CARTESIAN_POINT('',(37.3000000000003,34.3,-12.9999999999995));
#1134=CARTESIAN_POINT('Origin',(33.3000000000003,34.3,-12.9999999999995));
#1135=CARTESIAN_POINT('',(37.3000000000003,15.5000000000002,-12.9999999999995));
#1136=CARTESIAN_POINT('',(37.3000000000003,35.7500000000001,-12.9999999999995));
#1137=CARTESIAN_POINT('',(41.3000000000003,11.5000000000002,-12.9999999999995));
#1138=CARTESIAN_POINT('Origin',(41.3000000000003,15.5000000000002,-12.9999999999995));
#1139=CARTESIAN_POINT('',(81.2000000000002,11.5000000000002,-12.9999999999995));
#1140=CARTESIAN_POINT('',(114.6,72.5000000000001,-12.9999999999995));
#1141=CARTESIAN_POINT('',(114.6,13.4000000000002,-12.9999999999995));
#1142=CARTESIAN_POINT('',(114.6,54.8500000000002,-12.9999999999995));
#1143=CARTESIAN_POINT('',(39.2000000000003,13.4000000000002,-12.9999999999995));
#1144=CARTESIAN_POINT('',(117.8,13.4000000000002,-12.9999999999995));
#1145=CARTESIAN_POINT('',(39.2000000000003,72.5000000000001,-12.9999999999995));
#1146=CARTESIAN_POINT('',(39.2000000000003,25.3000000000002,-12.9999999999995));
#1147=CARTESIAN_POINT('',(80.1000000000002,72.5000000000001,-12.9999999999995));
#1148=CARTESIAN_POINT('Origin',(120.345966692415,13.4000000000002,-12.9999999999995));
#1149=CARTESIAN_POINT('',(120.345966692415,17.5000000000002,-14.9999999999995));
#1150=CARTESIAN_POINT('Origin',(120.345966692415,13.4000000000002,-14.9999999999995));
#1151=CARTESIAN_POINT('',(120.345966692415,17.5000000000002,-12.9999999999995));
#1152=CARTESIAN_POINT('Origin',(41.3000000000003,11.5000000000002,-12.9999999999995));
#1153=CARTESIAN_POINT('',(41.3000000000003,11.5000000000002,-14.9999999999995));
#1154=CARTESIAN_POINT('',(41.3000000000003,11.5000000000002,-12.9999999999995));
#1155=CARTESIAN_POINT('',(81.2000000000002,11.5000000000002,-14.9999999999995));
#1156=CARTESIAN_POINT('Origin',(37.3000000000003,34.3,-12.9999999999995));
#1157=CARTESIAN_POINT('',(37.3000000000003,15.5000000000002,-14.9999999999995));
#1158=CARTESIAN_POINT('',(37.3000000000003,15.5000000000002,-12.9999999999995));
#1159=CARTESIAN_POINT('',(37.3000000000003,34.3,-14.9999999999995));
#1160=CARTESIAN_POINT('',(37.3000000000003,34.3,-12.9999999999995));
#1161=CARTESIAN_POINT('',(37.3000000000003,35.7500000000001,-14.9999999999995));
#1162=CARTESIAN_POINT('Origin',(121.,37.2000000000002,-14.9999999999995));
#1163=CARTESIAN_POINT('Origin',(41.3000000000003,15.5000000000002,-14.9999999999995));
#1164=CARTESIAN_POINT('',(33.3000000000003,38.3,-14.9999999999995));
#1165=CARTESIAN_POINT('Origin',(33.3000000000003,34.3,-14.9999999999995));
#1166=CARTESIAN_POINT('',(29.3000000000003,42.3,-14.9999999999995));
#1167=CARTESIAN_POINT('Origin',(33.3000000000003,42.3,-14.9999999999995));
#1168=CARTESIAN_POINT('',(29.299999999998,46.1045484448605,-14.9999999999995));
#1169=CARTESIAN_POINT('',(29.3000000000003,47.6500000000001,-14.9999999999995));
#1170=CARTESIAN_POINT('',(29.3000000000003,54.295451555139,-14.9999999999995));
#1171=CARTESIAN_POINT('Ctrl Pts',(29.2999999999979,46.1045484448607,-14.9999999999995));
#1172=CARTESIAN_POINT('Ctrl Pts',(29.6189910313101,46.1335857985208,-14.9999999999995));
#1173=CARTESIAN_POINT('Ctrl Pts',(30.5432238513815,46.6311896969932,-14.9999999999995));
#1174=CARTESIAN_POINT('Ctrl Pts',(31.5156655464948,49.208718383851,-14.9999999999995));
#1175=CARTESIAN_POINT('Ctrl Pts',(31.1057827908515,52.9876063602257,-14.9999999999995));
#1176=CARTESIAN_POINT('Ctrl Pts',(29.9379820626246,54.2373768478174,-14.9999999999995));
#1177=CARTESIAN_POINT('Ctrl Pts',(29.3000000000003,54.295451555139,-14.9999999999995));
#1178=CARTESIAN_POINT('',(29.3000000000003,58.1,-14.9999999999995));
#1179=CARTESIAN_POINT('',(29.3000000000003,47.6500000000001,-14.9999999999995));
#1180=CARTESIAN_POINT('',(32.9999992623925,61.8,-14.9999999999995));
#1181=CARTESIAN_POINT('Origin',(33.0000000000003,58.1,-14.9999999999995));
#1182=CARTESIAN_POINT('',(33.2000000000003,61.8,-14.9999999999995));
#1183=CARTESIAN_POINT('',(77.1000000000018,61.7999999999941,-14.9999999999995));
#1184=CARTESIAN_POINT('',(37.3000000000003,65.9,-14.9999999999995));
#1185=CARTESIAN_POINT('Origin',(33.2000000000003,65.9,-14.9999999999995));
#1186=CARTESIAN_POINT('',(37.3000000000003,74.4000000000001,-14.9999999999995));
#1187=CARTESIAN_POINT('',(37.3000000000003,55.8500000000002,-14.9999999999995));
#1188=CARTESIAN_POINT('',(38.3000000000003,75.4000000000001,-14.9999999999995));
#1189=CARTESIAN_POINT('Origin',(38.3000000000003,74.4000000000001,-14.9999999999995));
#1190=CARTESIAN_POINT('',(115.6,75.4000000000001,-14.9999999999995));
#1191=CARTESIAN_POINT('',(118.3,75.4000000000001,-14.9999999999995));
#1192=CARTESIAN_POINT('',(116.5,74.5000000000001,-14.9999999999995));
#1193=CARTESIAN_POINT('Origin',(115.6,74.5000000000001,-14.9999999999995));
#1194=CARTESIAN_POINT('',(116.5,60.9000000000002,-14.9999999999995));
#1195=CARTESIAN_POINT('',(116.5,49.1000000000002,-14.9999999999995));
#1196=CARTESIAN_POINT('',(120.5,56.9000000000002,-14.9999999999995));
#1197=CARTESIAN_POINT('Origin',(120.5,60.9000000000002,-14.9999999999995));
#1198=CARTESIAN_POINT('',(120.8,56.9000000000002,-14.9999999999995));
#1199=CARTESIAN_POINT('',(120.9,56.9000000000002,-14.9999999999995));
#1200=CARTESIAN_POINT('',(124.7,53.0000000000002,-14.9999999999995));
#1201=CARTESIAN_POINT('Origin',(120.8,53.0000000000002,-14.9999999999995));
#1202=CARTESIAN_POINT('',(124.7,41.2954515551392,-14.9999999999995));
#1203=CARTESIAN_POINT('',(124.7,39.2000000000002,-14.9999999999995));
#1204=CARTESIAN_POINT('',(124.7,33.1045484448612,-14.9999999999995));
#1205=CARTESIAN_POINT('Ctrl Pts',(124.7,41.2954515551392,-14.9999999999995));
#1206=CARTESIAN_POINT('Ctrl Pts',(124.062017937376,41.2373768478176,-14.9999999999995));
#1207=CARTESIAN_POINT('Ctrl Pts',(122.894544598076,39.9819918401863,-14.9999999999995));
#1208=CARTESIAN_POINT('Ctrl Pts',(122.554783687761,36.8477000501345,-14.9999999999995));
#1209=CARTESIAN_POINT('Ctrl Pts',(123.194775882491,34.1049812888408,-14.9999999999995));
#1210=CARTESIAN_POINT('Ctrl Pts',(124.062017937376,33.1626231521828,-14.9999999999995));
#1211=CARTESIAN_POINT('Ctrl Pts',(124.7,33.1045484448612,-14.9999999999995));
#1212=CARTESIAN_POINT('',(124.7,21.2000000000002,-14.9999999999995));
#1213=CARTESIAN_POINT('',(124.7,29.2000000000002,-14.9999999999995));
#1214=CARTESIAN_POINT('',(120.999997295439,17.5000000000002,-14.9999999999995));
#1215=CARTESIAN_POINT('Origin',(121.,21.2000000000002,-14.9999999999995));
#1216=CARTESIAN_POINT('',(120.672983346208,17.5000000000002,-14.9999999999995));
#1217=CARTESIAN_POINT('',(124.,21.2000000000002,-14.9999999999995));
#1218=CARTESIAN_POINT('Origin',(121.,21.2000000000002,-14.9999999999995));
#1219=CARTESIAN_POINT('',(36.0000000000003,58.1,-14.9999999999995));
#1220=CARTESIAN_POINT('Origin',(33.0000000000003,58.1,-14.9999999999995));
#1221=CARTESIAN_POINT('Origin',(29.3000000000003,58.1,-12.9999999999995));
#1222=CARTESIAN_POINT('Ctrl Pts',(29.3000000000003,46.1045484448609,-14.9999999999995));
#1223=CARTESIAN_POINT('Ctrl Pts',(29.3000000000003,46.1045484448609,-14.6666666666662));
#1224=CARTESIAN_POINT('Ctrl Pts',(29.3000000000003,46.1045484448609,-14.3333333333328));
#1225=CARTESIAN_POINT('Ctrl Pts',(29.3000000000003,46.1045484448609,-13.6666666666662));
#1226=CARTESIAN_POINT('Ctrl Pts',(29.3000000000003,46.1045484448609,-13.3333333333328));
#1227=CARTESIAN_POINT('Ctrl Pts',(29.3000000000003,46.1045484448609,-12.9999999999995));
#1228=CARTESIAN_POINT('',(29.3000000000003,42.3,-12.9999999999995));
#1229=CARTESIAN_POINT('Origin',(120.5,60.9000000000002,-12.9999999999995));
#1230=CARTESIAN_POINT('',(116.5,60.9000000000002,-12.9999999999995));
#1231=CARTESIAN_POINT('',(120.5,56.9000000000002,-12.9999999999995));
#1232=CARTESIAN_POINT('Origin',(116.5,61.0000000000002,-12.9999999999995));
#1233=CARTESIAN_POINT('',(116.5,74.5000000000001,-12.9999999999995));
#1234=CARTESIAN_POINT('Origin',(41.3000000000003,15.5000000000002,-12.9999999999995));
#1235=CARTESIAN_POINT('Origin',(120.8,56.9000000000002,-12.9999999999995));
#1236=CARTESIAN_POINT('',(120.8,56.9000000000002,-12.9999999999995));
#1237=CARTESIAN_POINT('Origin',(38.3000000000003,74.4000000000001,-12.9999999999995));
#1238=CARTESIAN_POINT('',(37.3000000000003,74.4000000000001,-12.9999999999995));
#1239=CARTESIAN_POINT('',(38.3000000000003,75.4000000000001,-12.9999999999995));
#1240=CARTESIAN_POINT('Origin',(37.3000000000003,74.5000000000001,-12.9999999999995));
#1241=CARTESIAN_POINT('',(37.3000000000003,65.9,-12.9999999999995));
#1242=CARTESIAN_POINT('Origin',(115.6,75.4000000000001,-12.9999999999995));
#1243=CARTESIAN_POINT('',(115.6,75.4000000000001,-12.9999999999995));
#1244=CARTESIAN_POINT('Origin',(95.7500000000001,13.9000000000002,-13.4999999999995));
#1245=CARTESIAN_POINT('',(39.2000000000003,14.4000000000002,-13.9999999999995));
#1246=CARTESIAN_POINT('',(39.2000000000003,13.6500000000002,-13.2499999999995));
#1247=CARTESIAN_POINT('',(114.6,14.4000000000002,-13.9999999999995));
#1248=CARTESIAN_POINT('',(114.6,28.4250000000001,-28.0249999999995));
#1249=CARTESIAN_POINT('',(95.7500000000001,14.4000000000002,-13.9999999999995));
#1250=CARTESIAN_POINT('Origin',(114.6,72.5000000000001,-12.9999999999995));
#1251=CARTESIAN_POINT('',(114.6,71.5000000000001,-13.9999999999995));
#1252=CARTESIAN_POINT('',(114.6,72.2500000000001,-13.2499999999995));
#1253=CARTESIAN_POINT('',(114.6,13.4000000000002,-13.9999999999995));
#1254=CARTESIAN_POINT('Origin',(58.0500000000002,72.0000000000001,-13.4999999999995));
#1255=CARTESIAN_POINT('',(39.2000000000003,71.5000000000001,-13.9999999999995));
#1256=CARTESIAN_POINT('',(39.2000000000003,57.4750000000002,-28.0249999999995));
#1257=CARTESIAN_POINT('',(58.0500000000002,71.5000000000001,-13.9999999999995));
#1258=CARTESIAN_POINT('Origin',(39.2000000000003,13.4000000000002,-12.9999999999995));
#1259=CARTESIAN_POINT('',(39.2000000000003,72.5000000000001,-13.9999999999995));
#1260=CARTESIAN_POINT('Origin',(76.9000000000001,42.9500000000002,-13.9999999999995));
#1261=CARTESIAN_POINT('Ctrl Pts',(29.2999999999979,46.1045484448607,-14.9999999999995));
#1262=CARTESIAN_POINT('Ctrl Pts',(29.6189910313101,46.1335857985208,-14.9999999999995));
#1263=CARTESIAN_POINT('Ctrl Pts',(30.5432238513815,46.6311896969932,-14.9999999999995));
#1264=CARTESIAN_POINT('Ctrl Pts',(31.5156655464948,49.208718383851,-14.9999999999995));
#1265=CARTESIAN_POINT('Ctrl Pts',(31.1057827908515,52.9876063602257,-14.9999999999995));
#1266=CARTESIAN_POINT('Ctrl Pts',(29.9379820626246,54.2373768478174,-14.9999999999995));
#1267=CARTESIAN_POINT('Ctrl Pts',(29.3000000000003,54.295451555139,-14.9999999999995));
#1268=CARTESIAN_POINT('Ctrl Pts',(29.2999999999979,46.1045484448607,-12.9999999999995));
#1269=CARTESIAN_POINT('Ctrl Pts',(29.6189910313101,46.1335857985208,-12.9999999999995));
#1270=CARTESIAN_POINT('Ctrl Pts',(30.5432238513815,46.6311896969932,-12.9999999999995));
#1271=CARTESIAN_POINT('Ctrl Pts',(31.5156655464948,49.208718383851,-12.9999999999995));
#1272=CARTESIAN_POINT('Ctrl Pts',(31.1057827908515,52.9876063602257,-12.9999999999995));
#1273=CARTESIAN_POINT('Ctrl Pts',(29.9379820626246,54.2373768478174,-12.9999999999995));
#1274=CARTESIAN_POINT('Ctrl Pts',(29.3000000000003,54.295451555139,-12.9999999999995));
#1275=CARTESIAN_POINT('Ctrl Pts',(29.3000000000003,54.295451555139,-14.9999999999995));
#1276=CARTESIAN_POINT('Ctrl Pts',(29.3000000000003,54.295451555139,-14.6666666666662));
#1277=CARTESIAN_POINT('Ctrl Pts',(29.3000000000003,54.295451555139,-14.3333333333328));
#1278=CARTESIAN_POINT('Ctrl Pts',(29.3000000000003,54.295451555139,-13.6666666666662));
#1279=CARTESIAN_POINT('Ctrl Pts',(29.3000000000003,54.295451555139,-13.3333333333328));
#1280=CARTESIAN_POINT('Ctrl Pts',(29.3000000000003,54.295451555139,-12.9999999999995));
#1281=CARTESIAN_POINT('Origin',(29.3000000000003,58.1,-12.9999999999995));
#1282=CARTESIAN_POINT('',(29.3000000000003,58.1,-12.9999999999995));
#1283=CARTESIAN_POINT('Origin',(33.2000000000003,65.9,-12.9999999999995));
#1284=CARTESIAN_POINT('',(33.2000000000003,61.8,-12.9999999999995));
#1285=CARTESIAN_POINT('Origin',(124.7,21.2000000000002,-12.9999999999995));
#1286=CARTESIAN_POINT('',(124.7,21.2000000000002,-12.9999999999995));
#1287=CARTESIAN_POINT('Ctrl Pts',(124.7,33.1045484448612,-14.9999999999995));
#1288=CARTESIAN_POINT('Ctrl Pts',(124.7,33.1045484448612,-14.6666666666662));
#1289=CARTESIAN_POINT('Ctrl Pts',(124.7,33.1045484448612,-14.3333333333328));
#1290=CARTESIAN_POINT('Ctrl Pts',(124.7,33.1045484448612,-13.6666666666662));
#1291=CARTESIAN_POINT('Ctrl Pts',(124.7,33.1045484448612,-13.3333333333328));
#1292=CARTESIAN_POINT('Ctrl Pts',(124.7,33.1045484448612,-12.9999999999995));
#1293=CARTESIAN_POINT('Origin',(120.8,53.0000000000002,-12.9999999999995));
#1294=CARTESIAN_POINT('',(124.7,53.0000000000002,-12.9999999999995));
#1295=CARTESIAN_POINT('Origin',(124.7,41.2000000000002,-12.9999999999995));
#1296=CARTESIAN_POINT('Ctrl Pts',(124.7,41.2954515551392,-14.9999999999995));
#1297=CARTESIAN_POINT('Ctrl Pts',(124.7,41.2954515551392,-14.6666666666662));
#1298=CARTESIAN_POINT('Ctrl Pts',(124.7,41.2954515551392,-14.3333333333328));
#1299=CARTESIAN_POINT('Ctrl Pts',(124.7,41.2954515551392,-13.6666666666662));
#1300=CARTESIAN_POINT('Ctrl Pts',(124.7,41.2954515551392,-13.3333333333328));
#1301=CARTESIAN_POINT('Ctrl Pts',(124.7,41.2954515551392,-12.9999999999995));
#1302=CARTESIAN_POINT('Ctrl Pts',(124.7,33.1045484448612,-12.9999999999995));
#1303=CARTESIAN_POINT('Ctrl Pts',(124.062017937376,33.1626231521828,-12.9999999999995));
#1304=CARTESIAN_POINT('Ctrl Pts',(123.194775882491,34.1049812888408,-12.9999999999995));
#1305=CARTESIAN_POINT('Ctrl Pts',(122.554783687761,36.8477000501345,-12.9999999999995));
#1306=CARTESIAN_POINT('Ctrl Pts',(122.894544598076,39.9819918401863,-12.9999999999995));
#1307=CARTESIAN_POINT('Ctrl Pts',(124.062017937376,41.2373768478176,-12.9999999999995));
#1308=CARTESIAN_POINT('Ctrl Pts',(124.7,41.2954515551392,-12.9999999999995));
#1309=CARTESIAN_POINT('Ctrl Pts',(124.7,33.1045484448612,-14.9999999999995));
#1310=CARTESIAN_POINT('Ctrl Pts',(124.062017937376,33.1626231521828,-14.9999999999995));
#1311=CARTESIAN_POINT('Ctrl Pts',(123.194775882491,34.1049812888408,-14.9999999999995));
#1312=CARTESIAN_POINT('Ctrl Pts',(122.554783687761,36.8477000501345,-14.9999999999995));
#1313=CARTESIAN_POINT('Ctrl Pts',(122.894544598076,39.9819918401863,-14.9999999999995));
#1314=CARTESIAN_POINT('Ctrl Pts',(124.062017937376,41.2373768478176,-14.9999999999995));
#1315=CARTESIAN_POINT('Ctrl Pts',(124.7,41.2954515551392,-14.9999999999995));
#1316=CARTESIAN_POINT('Origin',(121.,21.2000000000002,-12.9999999999995));
#1317=CARTESIAN_POINT('',(124.7,21.2000000000002,-9.79999999999951));
#1318=CARTESIAN_POINT('Origin',(121.,21.2000000000002,-9.79999999999951));
#1319=CARTESIAN_POINT('',(124.7,21.2000000000002,-12.9999999999995));
#1320=CARTESIAN_POINT('',(120.999997295439,17.5000000000002,-12.9999999999995));
#1321=CARTESIAN_POINT('Origin',(120.345966692415,17.5000000000002,-12.9999999999995));
#1322=CARTESIAN_POINT('Origin',(33.3000000000003,34.3,-12.9999999999995));
#1323=CARTESIAN_POINT('',(33.3000000000003,38.3,-12.9999999999995));
#1324=CARTESIAN_POINT('Origin',(33.3000000000003,42.3,-12.9999999999995));
#1325=CARTESIAN_POINT('Origin',(33.0000000000003,58.1,-12.9999999999995));
#1326=CARTESIAN_POINT('',(36.7000000000003,58.1,-9.79999999999951));
#1327=CARTESIAN_POINT('Origin',(33.0000000000003,58.1,-9.79999999999951));
#1328=CARTESIAN_POINT('',(36.7000000000003,58.1,-12.9999999999995));
#1329=CARTESIAN_POINT('',(32.9999992623925,61.8,-12.9999999999995));
#1330=CARTESIAN_POINT('Origin',(33.2000000000003,61.8,-12.9999999999995));
#1331=CARTESIAN_POINT('Origin',(115.6,74.5000000000001,-12.9999999999995));
#1332=CARTESIAN_POINT('Origin',(33.0000000000003,58.1,-9.79999999999951));
#1333=CARTESIAN_POINT('',(34.6000000000003,58.1,-9.79999999999951));
#1334=CARTESIAN_POINT('Origin',(33.0000000000003,58.1,-9.79999999999951));
#1335=CARTESIAN_POINT('Origin',(121.,21.2000000000002,-9.79999999999951));
#1336=CARTESIAN_POINT('',(122.6,21.2000000000002,-9.79999999999951));
#1337=CARTESIAN_POINT('Origin',(121.,21.2000000000002,-9.79999999999951));
#1338=CARTESIAN_POINT('Origin',(121.,21.2000000000002,-11.2413505532336));
#1339=CARTESIAN_POINT('',(124.,21.2000000000002,-12.4999999999995));
#1340=CARTESIAN_POINT('Origin',(121.,21.2000000000002,-12.4999999999995));
#1341=CARTESIAN_POINT('',(122.6,21.2000000000002,-11.3252605163513));
#1342=CARTESIAN_POINT('',(122.5,21.2000000000002,-11.2413505532336));
#1343=CARTESIAN_POINT('Origin',(121.,21.2000000000002,-11.3252605163513));
#1344=CARTESIAN_POINT('Origin',(121.,21.2000000000002,-13.7499999999995));
#1345=CARTESIAN_POINT('',(124.,21.2000000000002,-13.7499999999995));
#1346=CARTESIAN_POINT('Origin',(33.0000000000003,58.1,-11.2413505532336));
#1347=CARTESIAN_POINT('',(36.0000000000003,58.1,-12.4999999999995));
#1348=CARTESIAN_POINT('Origin',(33.0000000000003,58.1,-12.4999999999995));
#1349=CARTESIAN_POINT('',(34.6000000000003,58.1,-11.3252605163513));
#1350=CARTESIAN_POINT('',(34.5000000000003,58.1,-11.2413505532336));
#1351=CARTESIAN_POINT('Origin',(33.0000000000003,58.1,-11.3252605163513));
#1352=CARTESIAN_POINT('Origin',(33.0000000000003,58.1,-13.7499999999995));
#1353=CARTESIAN_POINT('',(36.0000000000003,58.1,-13.7499999999995));
#1354=CARTESIAN_POINT('Origin',(33.0000000000003,58.1,-9.79999999999951));
#1355=CARTESIAN_POINT('',(34.6000000000003,58.1,-9.79999999999951));
#1356=CARTESIAN_POINT('Origin',(121.,21.2000000000002,-9.79999999999951));
#1357=CARTESIAN_POINT('',(122.6,21.2000000000002,-9.79999999999951));
#1358=UNCERTAINTY_MEASURE_WITH_UNIT(LENGTH_MEASURE(0.01),#1362,
'DISTANCE_ACCURACY_VALUE',
'Maximum model space distance between geometric entities at asserted c
onnectivities');
#1359=UNCERTAINTY_MEASURE_WITH_UNIT(LENGTH_MEASURE(0.01),#1362,
'DISTANCE_ACCURACY_VALUE',
'Maximum model space distance between geometric entities at asserted c
onnectivities');
#1360=(
GEOMETRIC_REPRESENTATION_CONTEXT(3)
GLOBAL_UNCERTAINTY_ASSIGNED_CONTEXT((#1358))
GLOBAL_UNIT_ASSIGNED_CONTEXT((#1362,#1364,#1365))
REPRESENTATION_CONTEXT('','3D')
);
#1361=(
GEOMETRIC_REPRESENTATION_CONTEXT(3)
GLOBAL_UNCERTAINTY_ASSIGNED_CONTEXT((#1359))
GLOBAL_UNIT_ASSIGNED_CONTEXT((#1362,#1364,#1365))
REPRESENTATION_CONTEXT('','3D')
);
#1362=(
LENGTH_UNIT()
NAMED_UNIT(*)
SI_UNIT(.MILLI.,.METRE.)
);
#1363=(
LENGTH_UNIT()
NAMED_UNIT(*)
SI_UNIT($,.METRE.)
);
#1364=(
NAMED_UNIT(*)
PLANE_ANGLE_UNIT()
SI_UNIT($,.RADIAN.)
);
#1365=(
NAMED_UNIT(*)
SI_UNIT($,.STERADIAN.)
SOLID_ANGLE_UNIT()
);
#1366=SHAPE_DEFINITION_REPRESENTATION(#1367,#1368);
#1367=PRODUCT_DEFINITION_SHAPE('',$,#1370);
#1368=SHAPE_REPRESENTATION('',(#775),#1360);
#1369=PRODUCT_DEFINITION_CONTEXT('part definition',#1374,'design');
#1370=PRODUCT_DEFINITION('Battery lid','Battery lid',#1371,#1369);
#1371=PRODUCT_DEFINITION_FORMATION('',$,#1376);
#1372=PRODUCT_RELATED_PRODUCT_CATEGORY('Battery lid','Battery lid',(#1376));
#1373=APPLICATION_PROTOCOL_DEFINITION('international standard',
'automotive_design',2009,#1374);
#1374=APPLICATION_CONTEXT(
'Core Data for Automotive Mechanical Design Process');
#1375=PRODUCT_CONTEXT('part definition',#1374,'mechanical');
#1376=PRODUCT('Battery lid','Battery lid',$,(#1375));
#1377=PRESENTATION_STYLE_ASSIGNMENT((#1378));
#1378=SURFACE_STYLE_USAGE(.BOTH.,#1379);
#1379=SURFACE_SIDE_STYLE('',(#1380));
#1380=SURFACE_STYLE_FILL_AREA(#1381);
#1381=FILL_AREA_STYLE('Stahl - satiniert',(#1382));
#1382=FILL_AREA_STYLE_COLOUR('Stahl - satiniert',#1383);
#1383=COLOUR_RGB('Stahl - satiniert',0.627450980392157,0.627450980392157,
0.627450980392157);
ENDSEC;
END-ISO-10303-21;
