ISO-10303-21;
HEADER;
/* Generated by software containing ST-Developer
 * from STEP Tools, Inc. (www.steptools.com) 
 */

FILE_DESCRIPTION(
/* description */ (''),
/* implementation_level */ '2;1');

FILE_NAME(
/* name */ 'Differential spacer.step',
/* time_stamp */ '2026-04-11T13:49:06+02:00',
/* author */ (''),
/* organization */ (''),
/* preprocessor_version */ 'ST-DEVELOPER v20.1',
/* originating_system */ 'Autodesk Translation Framework v14.24.0.0',
/* authorisation */ '');

FILE_SCHEMA (('AUTOMOTIVE_DESIGN { 1 0 10303 214 3 1 1 }'));
ENDSEC;

DATA;
#10=MECHANICAL_DESIGN_GEOMETRIC_PRESENTATION_REPRESENTATION('',(#13),#125);
#11=SHAPE_REPRESENTATION_RELATIONSHIP('SRR','None',#132,#12);
#12=ADVANCED_BREP_SHAPE_REPRESENTATION('',(#14),#124);
#13=STYLED_ITEM('',(#142),#14);
#14=MANIFOLD_SOLID_BREP('Differential spacer',#65);
#15=LINE('',#116,#17);
#16=LINE('',#120,#18);
#17=VECTOR('',#99,2.5);
#18=VECTOR('',#104,1.6);
#19=CYLINDRICAL_SURFACE('',#82,2.5);
#20=CYLINDRICAL_SURFACE('',#84,1.6);
#21=FACE_BOUND('',#28,.T.);
#22=FACE_BOUND('',#32,.T.);
#23=FACE_OUTER_BOUND('',#27,.T.);
#24=FACE_OUTER_BOUND('',#29,.T.);
#25=FACE_OUTER_BOUND('',#30,.T.);
#26=FACE_OUTER_BOUND('',#31,.T.);
#27=EDGE_LOOP('',(#47));
#28=EDGE_LOOP('',(#48));
#29=EDGE_LOOP('',(#49,#50,#51,#52));
#30=EDGE_LOOP('',(#53,#54,#55,#56));
#31=EDGE_LOOP('',(#57));
#32=EDGE_LOOP('',(#58));
#33=CIRCLE('',#80,2.5);
#34=CIRCLE('',#81,1.6);
#35=CIRCLE('',#83,2.5);
#36=CIRCLE('',#85,1.6);
#37=VERTEX_POINT('',#109);
#38=VERTEX_POINT('',#111);
#39=VERTEX_POINT('',#114);
#40=VERTEX_POINT('',#118);
#41=EDGE_CURVE('',#37,#37,#33,.T.);
#42=EDGE_CURVE('',#38,#38,#34,.T.);
#43=EDGE_CURVE('',#39,#39,#35,.T.);
#44=EDGE_CURVE('',#39,#37,#15,.T.);
#45=EDGE_CURVE('',#40,#40,#36,.T.);
#46=EDGE_CURVE('',#40,#38,#16,.T.);
#47=ORIENTED_EDGE('',*,*,#41,.F.);
#48=ORIENTED_EDGE('',*,*,#42,.F.);
#49=ORIENTED_EDGE('',*,*,#43,.T.);
#50=ORIENTED_EDGE('',*,*,#44,.T.);
#51=ORIENTED_EDGE('',*,*,#41,.T.);
#52=ORIENTED_EDGE('',*,*,#44,.F.);
#53=ORIENTED_EDGE('',*,*,#45,.T.);
#54=ORIENTED_EDGE('',*,*,#46,.T.);
#55=ORIENTED_EDGE('',*,*,#42,.T.);
#56=ORIENTED_EDGE('',*,*,#46,.F.);
#57=ORIENTED_EDGE('',*,*,#43,.F.);
#58=ORIENTED_EDGE('',*,*,#45,.F.);
#59=PLANE('',#79);
#60=PLANE('',#86);
#61=ADVANCED_FACE('',(#23,#21),#59,.F.);
#62=ADVANCED_FACE('',(#24),#19,.T.);
#63=ADVANCED_FACE('',(#25),#20,.F.);
#64=ADVANCED_FACE('',(#26,#22),#60,.F.);
#65=CLOSED_SHELL('',(#61,#62,#63,#64));
#66=DERIVED_UNIT_ELEMENT(#68,1.);
#67=DERIVED_UNIT_ELEMENT(#127,-3.);
#68=(
MASS_UNIT()
NAMED_UNIT(*)
SI_UNIT(.KILO.,.GRAM.)
);
#69=DERIVED_UNIT((#66,#67));
#70=MEASURE_REPRESENTATION_ITEM('density measure',
POSITIVE_RATIO_MEASURE(7850.),#69);
#71=PROPERTY_DEFINITION_REPRESENTATION(#76,#73);
#72=PROPERTY_DEFINITION_REPRESENTATION(#77,#74);
#73=REPRESENTATION('material name',(#75),#124);
#74=REPRESENTATION('density',(#70),#124);
#75=DESCRIPTIVE_REPRESENTATION_ITEM('Stahl','Stahl');
#76=PROPERTY_DEFINITION('material property','material name',#134);
#77=PROPERTY_DEFINITION('material property','density of part',#134);
#78=AXIS2_PLACEMENT_3D('',#107,#87,#88);
#79=AXIS2_PLACEMENT_3D('',#108,#89,#90);
#80=AXIS2_PLACEMENT_3D('',#110,#91,#92);
#81=AXIS2_PLACEMENT_3D('',#112,#93,#94);
#82=AXIS2_PLACEMENT_3D('',#113,#95,#96);
#83=AXIS2_PLACEMENT_3D('',#115,#97,#98);
#84=AXIS2_PLACEMENT_3D('',#117,#100,#101);
#85=AXIS2_PLACEMENT_3D('',#119,#102,#103);
#86=AXIS2_PLACEMENT_3D('',#121,#105,#106);
#87=DIRECTION('axis',(0.,0.,1.));
#88=DIRECTION('refdir',(1.,0.,0.));
#89=DIRECTION('center_axis',(-0.707106781186547,-0.707106781186548,-5.48593656884959E-16));
#90=DIRECTION('ref_axis',(0.707106781186548,-0.707106781186547,5.71615343689186E-15));
#91=DIRECTION('center_axis',(-0.707106781186547,-0.707106781186548,-5.48593656884959E-16));
#92=DIRECTION('ref_axis',(0.500000000000001,-0.500000000000001,-0.707106781186547));
#93=DIRECTION('center_axis',(0.707106781186547,0.707106781186548,5.48593656884959E-16));
#94=DIRECTION('ref_axis',(0.707106781186548,-0.707106781186547,5.71615343689186E-15));
#95=DIRECTION('center_axis',(-0.707106781186547,-0.707106781186548,5.78236751674115E-16));
#96=DIRECTION('ref_axis',(-0.500000000000001,0.5,0.707106781186547));
#97=DIRECTION('center_axis',(0.707106781186547,0.707106781186548,-4.4738248035944E-15));
#98=DIRECTION('ref_axis',(0.500000000000001,-0.500000000000001,-0.707106781186547));
#99=DIRECTION('',(0.707106781186547,0.707106781186548,-5.78236751674115E-16));
#100=DIRECTION('center_axis',(0.707106781186547,0.707106781186548,-4.3828140275413E-15));
#101=DIRECTION('ref_axis',(-0.707106781186548,0.707106781186547,2.20829831498651E-16));
#102=DIRECTION('center_axis',(-0.707106781186547,-0.707106781186548,4.4738248035944E-15));
#103=DIRECTION('ref_axis',(-0.707106781186548,0.707106781186547,2.20829831498651E-16));
#104=DIRECTION('',(0.707106781186547,0.707106781186548,-4.3828140275413E-15));
#105=DIRECTION('center_axis',(0.707106781186547,0.707106781186548,-4.4738248035944E-15));
#106=DIRECTION('ref_axis',(-0.707106781186548,0.707106781186547,2.2082983149865E-16));
#107=CARTESIAN_POINT('',(0.,0.,0.));
#108=CARTESIAN_POINT('Origin',(16.5566044276252,2.5566044276169,6.88677999983498));
#109=CARTESIAN_POINT('',(17.8066044276181,1.30660442762399,5.1190130468686));
#110=CARTESIAN_POINT('Origin',(16.5566044276181,2.55660442762398,6.88677999983497));
#111=CARTESIAN_POINT('',(17.6879752775166,1.42523357772551,6.88677999983496));
#112=CARTESIAN_POINT('Origin',(16.5566044276252,2.5566044276169,6.88677999983498));
#113=CARTESIAN_POINT('Origin',(12.6307386875312,-1.36926131246293,6.88677999983497));
#114=CARTESIAN_POINT('',(12.6933955723762,-3.80660442761794,5.11901304686861));
#115=CARTESIAN_POINT('Origin',(11.4433955723762,-2.55660442761794,6.88677999983498));
#116=CARTESIAN_POINT('',(13.8807386875312,-2.61926131246293,5.11901304686861));
#117=CARTESIAN_POINT('Origin',(11.5848169286136,-2.41518307138057,6.88677999983499));
#118=CARTESIAN_POINT('',(12.5747664222747,-3.6879752775164,6.88677999983499));
#119=CARTESIAN_POINT('Origin',(11.4433955723762,-2.55660442761795,6.886779999835));
#120=CARTESIAN_POINT('',(12.7161877785121,-3.54655392127905,6.88677999983499));
#121=CARTESIAN_POINT('Origin',(11.4433955723762,-2.55660442761795,6.886779999835));
#122=UNCERTAINTY_MEASURE_WITH_UNIT(LENGTH_MEASURE(0.01),#126,
'DISTANCE_ACCURACY_VALUE',
'Maximum model space distance between geometric entities at asserted c
onnectivities');
#123=UNCERTAINTY_MEASURE_WITH_UNIT(LENGTH_MEASURE(0.01),#126,
'DISTANCE_ACCURACY_VALUE',
'Maximum model space distance between geometric entities at asserted c
onnectivities');
#124=(
GEOMETRIC_REPRESENTATION_CONTEXT(3)
GLOBAL_UNCERTAINTY_ASSIGNED_CONTEXT((#122))
GLOBAL_UNIT_ASSIGNED_CONTEXT((#126,#128,#129))
REPRESENTATION_CONTEXT('','3D')
);
#125=(
GEOMETRIC_REPRESENTATION_CONTEXT(3)
GLOBAL_UNCERTAINTY_ASSIGNED_CONTEXT((#123))
GLOBAL_UNIT_ASSIGNED_CONTEXT((#126,#128,#129))
REPRESENTATION_CONTEXT('','3D')
);
#126=(
LENGTH_UNIT()
NAMED_UNIT(*)
SI_UNIT(.MILLI.,.METRE.)
);
#127=(
LENGTH_UNIT()
NAMED_UNIT(*)
SI_UNIT($,.METRE.)
);
#128=(
NAMED_UNIT(*)
PLANE_ANGLE_UNIT()
SI_UNIT($,.RADIAN.)
);
#129=(
NAMED_UNIT(*)
SI_UNIT($,.STERADIAN.)
SOLID_ANGLE_UNIT()
);
#130=SHAPE_DEFINITION_REPRESENTATION(#131,#132);
#131=PRODUCT_DEFINITION_SHAPE('',$,#134);
#132=SHAPE_REPRESENTATION('',(#78),#124);
#133=PRODUCT_DEFINITION_CONTEXT('part definition',#138,'design');
#134=PRODUCT_DEFINITION('Differential spacer','Differential spacer',#135,
#133);
#135=PRODUCT_DEFINITION_FORMATION('',$,#140);
#136=PRODUCT_RELATED_PRODUCT_CATEGORY('Differential spacer',
'Differential spacer',(#140));
#137=APPLICATION_PROTOCOL_DEFINITION('international standard',
'automotive_design',2009,#138);
#138=APPLICATION_CONTEXT(
'Core Data for Automotive Mechanical Design Process');
#139=PRODUCT_CONTEXT('part definition',#138,'mechanical');
#140=PRODUCT('Differential spacer','Differential spacer',$,(#139));
#141=PRESENTATION_STYLE_ASSIGNMENT((#143));
#142=PRESENTATION_STYLE_ASSIGNMENT((#144));
#143=SURFACE_STYLE_USAGE(.BOTH.,#145);
#144=SURFACE_STYLE_USAGE(.BOTH.,#146);
#145=SURFACE_SIDE_STYLE('',(#147));
#146=SURFACE_SIDE_STYLE('',(#148));
#147=SURFACE_STYLE_FILL_AREA(#149);
#148=SURFACE_STYLE_FILL_AREA(#150);
#149=FILL_AREA_STYLE('Stahl - satiniert',(#151));
#150=FILL_AREA_STYLE('Opaque(160,160,160)',(#152));
#151=FILL_AREA_STYLE_COLOUR('Stahl - satiniert',#153);
#152=FILL_AREA_STYLE_COLOUR('Opaque(160,160,160)',#154);
#153=COLOUR_RGB('Stahl - satiniert',0.627450980392157,0.627450980392157,
0.627450980392157);
#154=COLOUR_RGB('Opaque(160,160,160)',0.392156862745098,0.392156862745098,
0.392156862745098);
ENDSEC;
END-ISO-10303-21;
