ISO-10303-21;
HEADER;
/* Generated by software containing ST-Developer
 * from STEP Tools, Inc. (www.steptools.com) 
 */

FILE_DESCRIPTION(
/* description */ (''),
/* implementation_level */ '2;1');

FILE_NAME(
/* name */ 'Front wheel mount spacer.step',
/* time_stamp */ '2026-04-11T13:44:51+02:00',
/* author */ (''),
/* organization */ (''),
/* preprocessor_version */ 'ST-DEVELOPER v20.1',
/* originating_system */ 'Autodesk Translation Framework v14.24.0.0',
/* authorisation */ '');

FILE_SCHEMA (('AUTOMOTIVE_DESIGN { 1 0 10303 214 3 1 1 }'));
ENDSEC;

DATA;
#10=MECHANICAL_DESIGN_GEOMETRIC_PRESENTATION_REPRESENTATION('',(#13),#170);
#11=SHAPE_REPRESENTATION_RELATIONSHIP('SRR','None',#177,#12);
#12=ADVANCED_BREP_SHAPE_REPRESENTATION('',(#14),#169);
#13=STYLED_ITEM('',(#186),#14);
#14=MANIFOLD_SOLID_BREP('Front wheel mount spacer',#90);
#15=LINE('',#157,#18);
#16=LINE('',#164,#19);
#17=LINE('',#166,#20);
#18=VECTOR('',#132,2.50000000000223);
#19=VECTOR('',#141,1.60000000000143);
#20=VECTOR('',#144,5.00000000000446);
#21=CYLINDRICAL_SURFACE('',#110,2.50000000000223);
#22=CYLINDRICAL_SURFACE('',#114,1.60000000000143);
#23=CYLINDRICAL_SURFACE('',#115,5.00000000000446);
#24=FACE_BOUND('',#34,.T.);
#25=FACE_BOUND('',#36,.T.);
#26=FACE_BOUND('',#39,.T.);
#27=FACE_OUTER_BOUND('',#33,.T.);
#28=FACE_OUTER_BOUND('',#35,.T.);
#29=FACE_OUTER_BOUND('',#37,.T.);
#30=FACE_OUTER_BOUND('',#38,.T.);
#31=FACE_OUTER_BOUND('',#40,.T.);
#32=FACE_OUTER_BOUND('',#41,.T.);
#33=EDGE_LOOP('',(#63));
#34=EDGE_LOOP('',(#64));
#35=EDGE_LOOP('',(#65));
#36=EDGE_LOOP('',(#66));
#37=EDGE_LOOP('',(#67,#68,#69,#70));
#38=EDGE_LOOP('',(#71));
#39=EDGE_LOOP('',(#72));
#40=EDGE_LOOP('',(#73,#74,#75,#76));
#41=EDGE_LOOP('',(#77,#78,#79,#80));
#42=CIRCLE('',#105,2.50000000000223);
#43=CIRCLE('',#106,1.60000000000143);
#44=CIRCLE('',#108,5.00000000000446);
#45=CIRCLE('',#109,2.50000000000223);
#46=CIRCLE('',#112,5.00000000000446);
#47=CIRCLE('',#113,1.60000000000143);
#48=VERTEX_POINT('',#147);
#49=VERTEX_POINT('',#149);
#50=VERTEX_POINT('',#152);
#51=VERTEX_POINT('',#154);
#52=VERTEX_POINT('',#159);
#53=VERTEX_POINT('',#161);
#54=EDGE_CURVE('',#48,#48,#42,.T.);
#55=EDGE_CURVE('',#49,#49,#43,.T.);
#56=EDGE_CURVE('',#50,#50,#44,.T.);
#57=EDGE_CURVE('',#51,#51,#45,.T.);
#58=EDGE_CURVE('',#51,#48,#15,.T.);
#59=EDGE_CURVE('',#52,#52,#46,.T.);
#60=EDGE_CURVE('',#53,#53,#47,.T.);
#61=EDGE_CURVE('',#53,#49,#16,.T.);
#62=EDGE_CURVE('',#50,#52,#17,.T.);
#63=ORIENTED_EDGE('',*,*,#54,.F.);
#64=ORIENTED_EDGE('',*,*,#55,.F.);
#65=ORIENTED_EDGE('',*,*,#56,.F.);
#66=ORIENTED_EDGE('',*,*,#57,.T.);
#67=ORIENTED_EDGE('',*,*,#57,.F.);
#68=ORIENTED_EDGE('',*,*,#58,.T.);
#69=ORIENTED_EDGE('',*,*,#54,.T.);
#70=ORIENTED_EDGE('',*,*,#58,.F.);
#71=ORIENTED_EDGE('',*,*,#59,.F.);
#72=ORIENTED_EDGE('',*,*,#60,.F.);
#73=ORIENTED_EDGE('',*,*,#60,.T.);
#74=ORIENTED_EDGE('',*,*,#61,.T.);
#75=ORIENTED_EDGE('',*,*,#55,.T.);
#76=ORIENTED_EDGE('',*,*,#61,.F.);
#77=ORIENTED_EDGE('',*,*,#56,.T.);
#78=ORIENTED_EDGE('',*,*,#62,.T.);
#79=ORIENTED_EDGE('',*,*,#59,.T.);
#80=ORIENTED_EDGE('',*,*,#62,.F.);
#81=PLANE('',#104);
#82=PLANE('',#107);
#83=PLANE('',#111);
#84=ADVANCED_FACE('',(#27,#24),#81,.F.);
#85=ADVANCED_FACE('',(#28,#25),#82,.F.);
#86=ADVANCED_FACE('',(#29),#21,.T.);
#87=ADVANCED_FACE('',(#30,#26),#83,.T.);
#88=ADVANCED_FACE('',(#31),#22,.F.);
#89=ADVANCED_FACE('',(#32),#23,.T.);
#90=CLOSED_SHELL('',(#84,#85,#86,#87,#88,#89));
#91=DERIVED_UNIT_ELEMENT(#93,1.);
#92=DERIVED_UNIT_ELEMENT(#172,-3.);
#93=(
MASS_UNIT()
NAMED_UNIT(*)
SI_UNIT(.KILO.,.GRAM.)
);
#94=DERIVED_UNIT((#91,#92));
#95=MEASURE_REPRESENTATION_ITEM('density measure',
POSITIVE_RATIO_MEASURE(7850.),#94);
#96=PROPERTY_DEFINITION_REPRESENTATION(#101,#98);
#97=PROPERTY_DEFINITION_REPRESENTATION(#102,#99);
#98=REPRESENTATION('material name',(#100),#169);
#99=REPRESENTATION('density',(#95),#169);
#100=DESCRIPTIVE_REPRESENTATION_ITEM('Stahl','Stahl');
#101=PROPERTY_DEFINITION('material property','material name',#179);
#102=PROPERTY_DEFINITION('material property','density of part',#179);
#103=AXIS2_PLACEMENT_3D('',#145,#116,#117);
#104=AXIS2_PLACEMENT_3D('',#146,#118,#119);
#105=AXIS2_PLACEMENT_3D('',#148,#120,#121);
#106=AXIS2_PLACEMENT_3D('',#150,#122,#123);
#107=AXIS2_PLACEMENT_3D('',#151,#124,#125);
#108=AXIS2_PLACEMENT_3D('',#153,#126,#127);
#109=AXIS2_PLACEMENT_3D('',#155,#128,#129);
#110=AXIS2_PLACEMENT_3D('',#156,#130,#131);
#111=AXIS2_PLACEMENT_3D('',#158,#133,#134);
#112=AXIS2_PLACEMENT_3D('',#160,#135,#136);
#113=AXIS2_PLACEMENT_3D('',#162,#137,#138);
#114=AXIS2_PLACEMENT_3D('',#163,#139,#140);
#115=AXIS2_PLACEMENT_3D('',#165,#142,#143);
#116=DIRECTION('axis',(0.,0.,1.));
#117=DIRECTION('refdir',(1.,0.,0.));
#118=DIRECTION('center_axis',(3.80830783574869E-13,-1.,6.33771659913545E-17));
#119=DIRECTION('ref_axis',(1.,3.80830783574869E-13,1.72475766759433E-16));
#120=DIRECTION('center_axis',(3.80830783574869E-13,-1.,6.33771659913545E-17));
#121=DIRECTION('ref_axis',(1.,3.80830783574869E-13,1.72475766759433E-16));
#122=DIRECTION('center_axis',(-3.80830783574869E-13,1.,-6.33771659913545E-17));
#123=DIRECTION('ref_axis',(1.,3.80830783574869E-13,1.11245634069533E-16));
#124=DIRECTION('center_axis',(3.82220297079126E-13,-1.,6.33771659913548E-17));
#125=DIRECTION('ref_axis',(1.,3.82220297079126E-13,1.11245634069534E-16));
#126=DIRECTION('center_axis',(3.82220297079126E-13,-1.,6.33771659913548E-17));
#127=DIRECTION('ref_axis',(1.,3.82220297079126E-13,1.11245634069534E-16));
#128=DIRECTION('center_axis',(3.82220297079126E-13,-1.,6.33771659913548E-17));
#129=DIRECTION('ref_axis',(1.,3.82220297079126E-13,1.72475766759433E-16));
#130=DIRECTION('center_axis',(3.80832518298345E-13,-1.,6.33771659913545E-17));
#131=DIRECTION('ref_axis',(1.,3.80832518298345E-13,1.72475766759433E-16));
#132=DIRECTION('',(-3.80832518298345E-13,1.,-6.33771659913545E-17));
#133=DIRECTION('center_axis',(3.82220297079126E-13,-1.,6.33771659913548E-17));
#134=DIRECTION('ref_axis',(1.11245634069558E-16,-6.33771659913123E-17,-1.));
#135=DIRECTION('center_axis',(-3.82220297079126E-13,1.,-6.33771659913548E-17));
#136=DIRECTION('ref_axis',(1.,3.82220297079126E-13,1.11245634069533E-16));
#137=DIRECTION('center_axis',(3.82220297079126E-13,-1.,6.33771659913548E-17));
#138=DIRECTION('ref_axis',(1.,3.82220297079126E-13,1.11245634069533E-16));
#139=DIRECTION('center_axis',(-3.82220297079126E-13,1.,-6.33771659913548E-17));
#140=DIRECTION('ref_axis',(1.,3.82220297079126E-13,1.11245634069533E-16));
#141=DIRECTION('',(-3.82220297079126E-13,1.,-6.33771659913548E-17));
#142=DIRECTION('center_axis',(-3.82220297079126E-13,1.,-6.33771659913548E-17));
#143=DIRECTION('ref_axis',(1.,3.82220297079126E-13,1.11245634069533E-16));
#144=DIRECTION('',(3.82220297079126E-13,-1.,6.33771659913548E-17));
#145=CARTESIAN_POINT('',(0.,0.,0.));
#146=CARTESIAN_POINT('Origin',(-9.69880429318854E-13,120.600232221978,-5.10771811187898E-12));
#147=CARTESIAN_POINT('',(-2.5000000000032,120.600232221977,-5.10845546299566E-12));
#148=CARTESIAN_POINT('Origin',(-9.68586325605776E-13,120.600232221978,-5.1077175970201E-12));
#149=CARTESIAN_POINT('',(-1.60000000000728,120.600232221977,-1.2312300973036E-11));
#150=CARTESIAN_POINT('Origin',(-5.06313761392704E-12,120.600232221978,-1.2311828553459E-11));
#151=CARTESIAN_POINT('Origin',(-4.14756097164829E-12,118.200232221979,-1.23116769631195E-11));
#152=CARTESIAN_POINT('',(-5.00000000000861,118.200232221977,-1.23116208678903E-11));
#153=CARTESIAN_POINT('Origin',(-4.14756097164829E-12,118.200232221979,-1.23116769631195E-11));
#154=CARTESIAN_POINT('',(-2.50000000000229,118.200232221975,-5.10830335779728E-12));
#155=CARTESIAN_POINT('Origin',(-5.45882816901616E-14,118.200232221979,-5.10756549182172E-12));
#156=CARTESIAN_POINT('Origin',(7.33821767363143E-13,116.130232221974,-5.10743378622924E-12));
#157=CARTESIAN_POINT('',(-2.5000000000015,116.130232221973,-5.10817113734593E-12));
#158=CARTESIAN_POINT('Origin',(-2.23795134844029E-12,113.200232221974,-1.23113590475718E-11));
#159=CARTESIAN_POINT('',(-5.0000000000067,113.200232221972,-1.23113029523426E-11));
#160=CARTESIAN_POINT('Origin',(-2.23795134844029E-12,113.200232221974,-1.23113590475718E-11));
#161=CARTESIAN_POINT('',(-1.60000000000367,113.200232221974,-1.23113410970984E-11));
#162=CARTESIAN_POINT('Origin',(-2.23795134844029E-12,113.200232221974,-1.23113590475718E-11));
#163=CARTESIAN_POINT('Origin',(-3.7400771159626E-12,117.130232221978,-1.23116081198341E-11));
#164=CARTESIAN_POINT('',(-1.60000000000517,117.130232221977,-1.23115901693607E-11));
#165=CARTESIAN_POINT('Origin',(-3.7400771159626E-12,117.130232221978,-1.23116081198341E-11));
#166=CARTESIAN_POINT('',(-5.0000000000082,117.130232221976,-1.23115520246049E-11));
#167=UNCERTAINTY_MEASURE_WITH_UNIT(LENGTH_MEASURE(0.01),#171,
'DISTANCE_ACCURACY_VALUE',
'Maximum model space distance between geometric entities at asserted c
onnectivities');
#168=UNCERTAINTY_MEASURE_WITH_UNIT(LENGTH_MEASURE(0.01),#171,
'DISTANCE_ACCURACY_VALUE',
'Maximum model space distance between geometric entities at asserted c
onnectivities');
#169=(
GEOMETRIC_REPRESENTATION_CONTEXT(3)
GLOBAL_UNCERTAINTY_ASSIGNED_CONTEXT((#167))
GLOBAL_UNIT_ASSIGNED_CONTEXT((#171,#173,#174))
REPRESENTATION_CONTEXT('','3D')
);
#170=(
GEOMETRIC_REPRESENTATION_CONTEXT(3)
GLOBAL_UNCERTAINTY_ASSIGNED_CONTEXT((#168))
GLOBAL_UNIT_ASSIGNED_CONTEXT((#171,#173,#174))
REPRESENTATION_CONTEXT('','3D')
);
#171=(
LENGTH_UNIT()
NAMED_UNIT(*)
SI_UNIT(.MILLI.,.METRE.)
);
#172=(
LENGTH_UNIT()
NAMED_UNIT(*)
SI_UNIT($,.METRE.)
);
#173=(
NAMED_UNIT(*)
PLANE_ANGLE_UNIT()
SI_UNIT($,.RADIAN.)
);
#174=(
NAMED_UNIT(*)
SI_UNIT($,.STERADIAN.)
SOLID_ANGLE_UNIT()
);
#175=SHAPE_DEFINITION_REPRESENTATION(#176,#177);
#176=PRODUCT_DEFINITION_SHAPE('',$,#179);
#177=SHAPE_REPRESENTATION('',(#103),#169);
#178=PRODUCT_DEFINITION_CONTEXT('part definition',#183,'design');
#179=PRODUCT_DEFINITION('Front wheel mount spacer',
'Front wheel mount spacer',#180,#178);
#180=PRODUCT_DEFINITION_FORMATION('',$,#185);
#181=PRODUCT_RELATED_PRODUCT_CATEGORY('Front wheel mount spacer',
'Front wheel mount spacer',(#185));
#182=APPLICATION_PROTOCOL_DEFINITION('international standard',
'automotive_design',2009,#183);
#183=APPLICATION_CONTEXT(
'Core Data for Automotive Mechanical Design Process');
#184=PRODUCT_CONTEXT('part definition',#183,'mechanical');
#185=PRODUCT('Front wheel mount spacer','Front wheel mount spacer',$,(#184));
#186=PRESENTATION_STYLE_ASSIGNMENT((#187));
#187=SURFACE_STYLE_USAGE(.BOTH.,#188);
#188=SURFACE_SIDE_STYLE('',(#189));
#189=SURFACE_STYLE_FILL_AREA(#190);
#190=FILL_AREA_STYLE('Stahl - satiniert',(#191));
#191=FILL_AREA_STYLE_COLOUR('Stahl - satiniert',#192);
#192=COLOUR_RGB('Stahl - satiniert',0.627450980392157,0.627450980392157,
0.627450980392157);
ENDSEC;
END-ISO-10303-21;
