ISO-10303-21;
HEADER;
/* Generated by software containing ST-Developer
 * from STEP Tools, Inc. (www.steptools.com) 
 */

FILE_DESCRIPTION(
/* description */ (''),
/* implementation_level */ '2;1');

FILE_NAME(
/* name */ 'Front bumper.step',
/* time_stamp */ '2026-04-11T13:45:14+02:00',
/* author */ (''),
/* organization */ (''),
/* preprocessor_version */ 'ST-DEVELOPER v20.1',
/* originating_system */ 'Autodesk Translation Framework v14.24.0.0',
/* authorisation */ '');

FILE_SCHEMA (('AUTOMOTIVE_DESIGN { 1 0 10303 214 3 1 1 }'));
ENDSEC;

DATA;
#10=MECHANICAL_DESIGN_GEOMETRIC_PRESENTATION_REPRESENTATION('',(#13),#351);
#11=SHAPE_REPRESENTATION_RELATIONSHIP('SRR','None',#358,#12);
#12=ADVANCED_BREP_SHAPE_REPRESENTATION('',(#14),#350);
#13=STYLED_ITEM('',(#367),#14);
#14=MANIFOLD_SOLID_BREP('Front bumper',#203);
#15=CYLINDRICAL_SURFACE('',#221,3.);
#16=CYLINDRICAL_SURFACE('',#225,3.);
#17=CYLINDRICAL_SURFACE('',#230,1.6);
#18=CYLINDRICAL_SURFACE('',#232,1.6);
#19=FACE_BOUND('',#47,.T.);
#20=FACE_BOUND('',#48,.T.);
#21=FACE_BOUND('',#51,.T.);
#22=FACE_BOUND('',#54,.T.);
#23=FACE_BOUND('',#61,.T.);
#24=FACE_BOUND('',#62,.T.);
#25=CIRCLE('',#219,3.);
#26=CIRCLE('',#220,3.);
#27=CIRCLE('',#222,3.);
#28=CIRCLE('',#224,1.6);
#29=CIRCLE('',#226,3.);
#30=CIRCLE('',#228,1.6);
#31=CIRCLE('',#231,1.6);
#32=CIRCLE('',#233,1.6);
#33=FACE_OUTER_BOUND('',#45,.T.);
#34=FACE_OUTER_BOUND('',#46,.T.);
#35=FACE_OUTER_BOUND('',#49,.T.);
#36=FACE_OUTER_BOUND('',#50,.T.);
#37=FACE_OUTER_BOUND('',#52,.T.);
#38=FACE_OUTER_BOUND('',#53,.T.);
#39=FACE_OUTER_BOUND('',#55,.T.);
#40=FACE_OUTER_BOUND('',#56,.T.);
#41=FACE_OUTER_BOUND('',#57,.T.);
#42=FACE_OUTER_BOUND('',#58,.T.);
#43=FACE_OUTER_BOUND('',#59,.T.);
#44=FACE_OUTER_BOUND('',#60,.T.);
#45=EDGE_LOOP('',(#135,#136,#137,#138));
#46=EDGE_LOOP('',(#139,#140,#141,#142));
#47=EDGE_LOOP('',(#143));
#48=EDGE_LOOP('',(#144));
#49=EDGE_LOOP('',(#145,#146,#147,#148));
#50=EDGE_LOOP('',(#149));
#51=EDGE_LOOP('',(#150));
#52=EDGE_LOOP('',(#151,#152,#153,#154));
#53=EDGE_LOOP('',(#155));
#54=EDGE_LOOP('',(#156));
#55=EDGE_LOOP('',(#157,#158,#159,#160));
#56=EDGE_LOOP('',(#161,#162,#163,#164));
#57=EDGE_LOOP('',(#165,#166,#167,#168));
#58=EDGE_LOOP('',(#169,#170,#171,#172));
#59=EDGE_LOOP('',(#173,#174,#175,#176));
#60=EDGE_LOOP('',(#177,#178,#179,#180));
#61=EDGE_LOOP('',(#181));
#62=EDGE_LOOP('',(#182));
#63=LINE('',#299,#79);
#64=LINE('',#301,#80);
#65=LINE('',#303,#81);
#66=LINE('',#304,#82);
#67=LINE('',#307,#83);
#68=LINE('',#309,#84);
#69=LINE('',#310,#85);
#70=LINE('',#317,#86);
#71=LINE('',#324,#87);
#72=LINE('',#331,#88);
#73=LINE('',#333,#89);
#74=LINE('',#334,#90);
#75=LINE('',#338,#91);
#76=LINE('',#342,#92);
#77=LINE('',#344,#93);
#78=LINE('',#346,#94);
#79=VECTOR('',#241,10.);
#80=VECTOR('',#242,10.);
#81=VECTOR('',#243,10.);
#82=VECTOR('',#244,10.);
#83=VECTOR('',#247,10.);
#84=VECTOR('',#248,10.);
#85=VECTOR('',#249,10.);
#86=VECTOR('',#256,3.);
#87=VECTOR('',#265,3.);
#88=VECTOR('',#274,10.);
#89=VECTOR('',#275,10.);
#90=VECTOR('',#276,10.);
#91=VECTOR('',#281,1.6);
#92=VECTOR('',#286,1.6);
#93=VECTOR('',#289,10.);
#94=VECTOR('',#292,10.);
#95=VERTEX_POINT('',#297);
#96=VERTEX_POINT('',#298);
#97=VERTEX_POINT('',#300);
#98=VERTEX_POINT('',#302);
#99=VERTEX_POINT('',#306);
#100=VERTEX_POINT('',#308);
#101=VERTEX_POINT('',#311);
#102=VERTEX_POINT('',#313);
#103=VERTEX_POINT('',#316);
#104=VERTEX_POINT('',#320);
#105=VERTEX_POINT('',#323);
#106=VERTEX_POINT('',#327);
#107=VERTEX_POINT('',#330);
#108=VERTEX_POINT('',#332);
#109=VERTEX_POINT('',#336);
#110=VERTEX_POINT('',#340);
#111=EDGE_CURVE('',#95,#96,#63,.T.);
#112=EDGE_CURVE('',#97,#96,#64,.T.);
#113=EDGE_CURVE('',#98,#97,#65,.T.);
#114=EDGE_CURVE('',#98,#95,#66,.T.);
#115=EDGE_CURVE('',#96,#99,#67,.T.);
#116=EDGE_CURVE('',#99,#100,#68,.T.);
#117=EDGE_CURVE('',#100,#97,#69,.T.);
#118=EDGE_CURVE('',#101,#101,#25,.T.);
#119=EDGE_CURVE('',#102,#102,#26,.T.);
#120=EDGE_CURVE('',#101,#103,#70,.T.);
#121=EDGE_CURVE('',#103,#103,#27,.T.);
#122=EDGE_CURVE('',#104,#104,#28,.T.);
#123=EDGE_CURVE('',#102,#105,#71,.T.);
#124=EDGE_CURVE('',#105,#105,#29,.T.);
#125=EDGE_CURVE('',#106,#106,#30,.T.);
#126=EDGE_CURVE('',#107,#99,#72,.T.);
#127=EDGE_CURVE('',#108,#107,#73,.T.);
#128=EDGE_CURVE('',#108,#100,#74,.T.);
#129=EDGE_CURVE('',#109,#109,#31,.T.);
#130=EDGE_CURVE('',#109,#104,#75,.T.);
#131=EDGE_CURVE('',#110,#110,#32,.T.);
#132=EDGE_CURVE('',#110,#106,#76,.T.);
#133=EDGE_CURVE('',#95,#107,#77,.T.);
#134=EDGE_CURVE('',#108,#98,#78,.T.);
#135=ORIENTED_EDGE('',*,*,#111,.T.);
#136=ORIENTED_EDGE('',*,*,#112,.F.);
#137=ORIENTED_EDGE('',*,*,#113,.F.);
#138=ORIENTED_EDGE('',*,*,#114,.T.);
#139=ORIENTED_EDGE('',*,*,#115,.T.);
#140=ORIENTED_EDGE('',*,*,#116,.T.);
#141=ORIENTED_EDGE('',*,*,#117,.T.);
#142=ORIENTED_EDGE('',*,*,#112,.T.);
#143=ORIENTED_EDGE('',*,*,#118,.T.);
#144=ORIENTED_EDGE('',*,*,#119,.T.);
#145=ORIENTED_EDGE('',*,*,#118,.F.);
#146=ORIENTED_EDGE('',*,*,#120,.T.);
#147=ORIENTED_EDGE('',*,*,#121,.T.);
#148=ORIENTED_EDGE('',*,*,#120,.F.);
#149=ORIENTED_EDGE('',*,*,#121,.F.);
#150=ORIENTED_EDGE('',*,*,#122,.F.);
#151=ORIENTED_EDGE('',*,*,#119,.F.);
#152=ORIENTED_EDGE('',*,*,#123,.T.);
#153=ORIENTED_EDGE('',*,*,#124,.T.);
#154=ORIENTED_EDGE('',*,*,#123,.F.);
#155=ORIENTED_EDGE('',*,*,#124,.F.);
#156=ORIENTED_EDGE('',*,*,#125,.F.);
#157=ORIENTED_EDGE('',*,*,#126,.F.);
#158=ORIENTED_EDGE('',*,*,#127,.F.);
#159=ORIENTED_EDGE('',*,*,#128,.T.);
#160=ORIENTED_EDGE('',*,*,#116,.F.);
#161=ORIENTED_EDGE('',*,*,#129,.T.);
#162=ORIENTED_EDGE('',*,*,#130,.T.);
#163=ORIENTED_EDGE('',*,*,#122,.T.);
#164=ORIENTED_EDGE('',*,*,#130,.F.);
#165=ORIENTED_EDGE('',*,*,#131,.T.);
#166=ORIENTED_EDGE('',*,*,#132,.T.);
#167=ORIENTED_EDGE('',*,*,#125,.T.);
#168=ORIENTED_EDGE('',*,*,#132,.F.);
#169=ORIENTED_EDGE('',*,*,#111,.F.);
#170=ORIENTED_EDGE('',*,*,#133,.T.);
#171=ORIENTED_EDGE('',*,*,#126,.T.);
#172=ORIENTED_EDGE('',*,*,#115,.F.);
#173=ORIENTED_EDGE('',*,*,#134,.T.);
#174=ORIENTED_EDGE('',*,*,#113,.T.);
#175=ORIENTED_EDGE('',*,*,#117,.F.);
#176=ORIENTED_EDGE('',*,*,#128,.F.);
#177=ORIENTED_EDGE('',*,*,#134,.F.);
#178=ORIENTED_EDGE('',*,*,#127,.T.);
#179=ORIENTED_EDGE('',*,*,#133,.F.);
#180=ORIENTED_EDGE('',*,*,#114,.F.);
#181=ORIENTED_EDGE('',*,*,#131,.F.);
#182=ORIENTED_EDGE('',*,*,#129,.F.);
#183=PLANE('',#217);
#184=PLANE('',#218);
#185=PLANE('',#223);
#186=PLANE('',#227);
#187=PLANE('',#229);
#188=PLANE('',#234);
#189=PLANE('',#235);
#190=PLANE('',#236);
#191=ADVANCED_FACE('',(#33),#183,.T.);
#192=ADVANCED_FACE('',(#34,#19,#20),#184,.T.);
#193=ADVANCED_FACE('',(#35),#15,.F.);
#194=ADVANCED_FACE('',(#36,#21),#185,.F.);
#195=ADVANCED_FACE('',(#37),#16,.F.);
#196=ADVANCED_FACE('',(#38,#22),#186,.F.);
#197=ADVANCED_FACE('',(#39),#187,.T.);
#198=ADVANCED_FACE('',(#40),#17,.F.);
#199=ADVANCED_FACE('',(#41),#18,.F.);
#200=ADVANCED_FACE('',(#42),#188,.T.);
#201=ADVANCED_FACE('',(#43),#189,.T.);
#202=ADVANCED_FACE('',(#44,#23,#24),#190,.F.);
#203=CLOSED_SHELL('',(#191,#192,#193,#194,#195,#196,#197,#198,#199,#200,
#201,#202));
#204=DERIVED_UNIT_ELEMENT(#206,1.);
#205=DERIVED_UNIT_ELEMENT(#353,-3.);
#206=(
MASS_UNIT()
NAMED_UNIT(*)
SI_UNIT(.KILO.,.GRAM.)
);
#207=DERIVED_UNIT((#204,#205));
#208=MEASURE_REPRESENTATION_ITEM('density measure',
POSITIVE_RATIO_MEASURE(7850.),#207);
#209=PROPERTY_DEFINITION_REPRESENTATION(#214,#211);
#210=PROPERTY_DEFINITION_REPRESENTATION(#215,#212);
#211=REPRESENTATION('material name',(#213),#350);
#212=REPRESENTATION('density',(#208),#350);
#213=DESCRIPTIVE_REPRESENTATION_ITEM('Stahl','Stahl');
#214=PROPERTY_DEFINITION('material property','material name',#360);
#215=PROPERTY_DEFINITION('material property','density of part',#360);
#216=AXIS2_PLACEMENT_3D('',#295,#237,#238);
#217=AXIS2_PLACEMENT_3D('',#296,#239,#240);
#218=AXIS2_PLACEMENT_3D('',#305,#245,#246);
#219=AXIS2_PLACEMENT_3D('',#312,#250,#251);
#220=AXIS2_PLACEMENT_3D('',#314,#252,#253);
#221=AXIS2_PLACEMENT_3D('',#315,#254,#255);
#222=AXIS2_PLACEMENT_3D('',#318,#257,#258);
#223=AXIS2_PLACEMENT_3D('',#319,#259,#260);
#224=AXIS2_PLACEMENT_3D('',#321,#261,#262);
#225=AXIS2_PLACEMENT_3D('',#322,#263,#264);
#226=AXIS2_PLACEMENT_3D('',#325,#266,#267);
#227=AXIS2_PLACEMENT_3D('',#326,#268,#269);
#228=AXIS2_PLACEMENT_3D('',#328,#270,#271);
#229=AXIS2_PLACEMENT_3D('',#329,#272,#273);
#230=AXIS2_PLACEMENT_3D('',#335,#277,#278);
#231=AXIS2_PLACEMENT_3D('',#337,#279,#280);
#232=AXIS2_PLACEMENT_3D('',#339,#282,#283);
#233=AXIS2_PLACEMENT_3D('',#341,#284,#285);
#234=AXIS2_PLACEMENT_3D('',#343,#287,#288);
#235=AXIS2_PLACEMENT_3D('',#345,#290,#291);
#236=AXIS2_PLACEMENT_3D('',#347,#293,#294);
#237=DIRECTION('axis',(0.,0.,1.));
#238=DIRECTION('refdir',(1.,0.,0.));
#239=DIRECTION('center_axis',(0.,-1.,0.));
#240=DIRECTION('ref_axis',(0.,0.,1.));
#241=DIRECTION('',(-1.,0.,0.));
#242=DIRECTION('',(0.,0.,1.));
#243=DIRECTION('',(-1.,0.,0.));
#244=DIRECTION('',(0.,0.,1.));
#245=DIRECTION('center_axis',(-1.,0.,0.));
#246=DIRECTION('ref_axis',(0.,-1.,0.));
#247=DIRECTION('',(0.,1.,0.));
#248=DIRECTION('',(0.,0.,-1.));
#249=DIRECTION('',(0.,-1.,0.));
#250=DIRECTION('center_axis',(1.,0.,0.));
#251=DIRECTION('ref_axis',(0.,-1.,0.));
#252=DIRECTION('center_axis',(1.,0.,0.));
#253=DIRECTION('ref_axis',(0.,-1.,0.));
#254=DIRECTION('center_axis',(1.,0.,0.));
#255=DIRECTION('ref_axis',(0.,-1.,0.));
#256=DIRECTION('',(1.,0.,0.));
#257=DIRECTION('center_axis',(1.,0.,0.));
#258=DIRECTION('ref_axis',(0.,-1.,0.));
#259=DIRECTION('center_axis',(1.,0.,0.));
#260=DIRECTION('ref_axis',(0.,-1.,0.));
#261=DIRECTION('center_axis',(-1.,0.,0.));
#262=DIRECTION('ref_axis',(0.,-1.,0.));
#263=DIRECTION('center_axis',(1.,0.,0.));
#264=DIRECTION('ref_axis',(0.,-1.,0.));
#265=DIRECTION('',(1.,0.,0.));
#266=DIRECTION('center_axis',(1.,0.,0.));
#267=DIRECTION('ref_axis',(0.,-1.,0.));
#268=DIRECTION('center_axis',(1.,0.,0.));
#269=DIRECTION('ref_axis',(0.,-1.,0.));
#270=DIRECTION('center_axis',(-1.,0.,0.));
#271=DIRECTION('ref_axis',(0.,-1.,0.));
#272=DIRECTION('center_axis',(0.,1.,0.));
#273=DIRECTION('ref_axis',(0.,0.,-1.));
#274=DIRECTION('',(-1.,0.,0.));
#275=DIRECTION('',(0.,0.,1.));
#276=DIRECTION('',(-1.,0.,0.));
#277=DIRECTION('center_axis',(-1.,0.,0.));
#278=DIRECTION('ref_axis',(0.,-1.,0.));
#279=DIRECTION('center_axis',(1.,0.,0.));
#280=DIRECTION('ref_axis',(0.,-1.,0.));
#281=DIRECTION('',(-1.,0.,0.));
#282=DIRECTION('center_axis',(-1.,0.,0.));
#283=DIRECTION('ref_axis',(0.,-1.,0.));
#284=DIRECTION('center_axis',(1.,0.,0.));
#285=DIRECTION('ref_axis',(0.,-1.,0.));
#286=DIRECTION('',(-1.,0.,0.));
#287=DIRECTION('center_axis',(0.,0.,1.));
#288=DIRECTION('ref_axis',(0.,1.,0.));
#289=DIRECTION('',(0.,1.,0.));
#290=DIRECTION('center_axis',(0.,0.,-1.));
#291=DIRECTION('ref_axis',(0.,-1.,0.));
#292=DIRECTION('',(0.,-1.,0.));
#293=DIRECTION('center_axis',(-1.,0.,0.));
#294=DIRECTION('ref_axis',(0.,-1.,0.));
#295=CARTESIAN_POINT('',(0.,0.,0.));
#296=CARTESIAN_POINT('Origin',(-19.9999999999997,39.1000000000002,-14.9999999999995));
#297=CARTESIAN_POINT('',(-19.9999999999997,39.1000000000002,-6.99999999999947));
#298=CARTESIAN_POINT('',(-40.5999999999997,39.1000000000002,-6.99999999999947));
#299=CARTESIAN_POINT('',(-19.9999999999997,39.1000000000002,-6.99999999999947));
#300=CARTESIAN_POINT('',(-40.5999999999997,39.1000000000002,-14.9999999999995));
#301=CARTESIAN_POINT('',(-40.5999999999997,39.1000000000002,-14.9999999999995));
#302=CARTESIAN_POINT('',(-19.9999999999997,39.1000000000002,-14.9999999999995));
#303=CARTESIAN_POINT('',(-19.9999999999997,39.1000000000002,-14.9999999999995));
#304=CARTESIAN_POINT('',(-19.9999999999997,39.1000000000002,-14.9999999999995));
#305=CARTESIAN_POINT('Origin',(-40.5999999999997,66.1000000000002,-10.9999999999995));
#306=CARTESIAN_POINT('',(-40.5999999999997,93.1000000000002,-6.99999999999947));
#307=CARTESIAN_POINT('',(-40.5999999999997,50.6000000000002,-6.99999999999947));
#308=CARTESIAN_POINT('',(-40.5999999999997,93.1000000000002,-14.9999999999995));
#309=CARTESIAN_POINT('',(-40.5999999999997,93.1000000000002,-14.9999999999995));
#310=CARTESIAN_POINT('',(-40.5999999999997,93.1000000000002,-14.9999999999995));
#311=CARTESIAN_POINT('',(-40.5999999999997,46.1000000000002,-10.9999999999995));
#312=CARTESIAN_POINT('Origin',(-40.5999999999997,43.1000000000002,-10.9999999999995));
#313=CARTESIAN_POINT('',(-40.5999999999997,92.1000000000002,-10.9999999999995));
#314=CARTESIAN_POINT('Origin',(-40.5999999999997,89.1000000000002,-10.9999999999995));
#315=CARTESIAN_POINT('Origin',(-31.2999999999997,43.1000000000002,-10.9999999999995));
#316=CARTESIAN_POINT('',(-21.9999999999997,46.1000000000002,-10.9999999999995));
#317=CARTESIAN_POINT('',(-31.2999999999997,46.1000000000002,-10.9999999999995));
#318=CARTESIAN_POINT('Origin',(-21.9999999999997,43.1000000000002,-10.9999999999995));
#319=CARTESIAN_POINT('Origin',(-21.9999999999997,43.1000000000002,-10.9999999999995));
#320=CARTESIAN_POINT('',(-21.9999999999997,44.7000000000002,-10.9999999999995));
#321=CARTESIAN_POINT('Origin',(-21.9999999999997,43.1000000000002,-10.9999999999995));
#322=CARTESIAN_POINT('Origin',(-31.2999999999997,89.1000000000002,-10.9999999999995));
#323=CARTESIAN_POINT('',(-21.9999999999997,92.1000000000002,-10.9999999999995));
#324=CARTESIAN_POINT('',(-31.2999999999997,92.1000000000002,-10.9999999999995));
#325=CARTESIAN_POINT('Origin',(-21.9999999999997,89.1000000000002,-10.9999999999995));
#326=CARTESIAN_POINT('Origin',(-21.9999999999997,89.1000000000002,-10.9999999999995));
#327=CARTESIAN_POINT('',(-21.9999999999997,90.7000000000002,-10.9999999999995));
#328=CARTESIAN_POINT('Origin',(-21.9999999999997,89.1000000000002,-10.9999999999995));
#329=CARTESIAN_POINT('Origin',(-19.9999999999997,93.1000000000002,-6.99999999999947));
#330=CARTESIAN_POINT('',(-19.9999999999997,93.1000000000002,-6.99999999999947));
#331=CARTESIAN_POINT('',(-19.9999999999997,93.1000000000002,-6.99999999999947));
#332=CARTESIAN_POINT('',(-19.9999999999997,93.1000000000002,-14.9999999999995));
#333=CARTESIAN_POINT('',(-19.9999999999997,93.1000000000002,-14.9999999999995));
#334=CARTESIAN_POINT('',(-19.9999999999997,93.1000000000002,-14.9999999999995));
#335=CARTESIAN_POINT('Origin',(-19.9999999999997,43.1000000000002,-10.9999999999995));
#336=CARTESIAN_POINT('',(-19.9999999999997,44.7000000000002,-10.9999999999995));
#337=CARTESIAN_POINT('Origin',(-19.9999999999997,43.1000000000002,-10.9999999999995));
#338=CARTESIAN_POINT('',(-19.9999999999997,44.7000000000002,-10.9999999999995));
#339=CARTESIAN_POINT('Origin',(-19.9999999999997,89.1000000000002,-10.9999999999995));
#340=CARTESIAN_POINT('',(-19.9999999999997,90.7000000000002,-10.9999999999995));
#341=CARTESIAN_POINT('Origin',(-19.9999999999997,89.1000000000002,-10.9999999999995));
#342=CARTESIAN_POINT('',(-19.9999999999997,90.7000000000002,-10.9999999999995));
#343=CARTESIAN_POINT('Origin',(-19.9999999999997,35.1000000000002,-6.99999999999947));
#344=CARTESIAN_POINT('',(-19.9999999999997,35.1000000000002,-6.99999999999947));
#345=CARTESIAN_POINT('Origin',(-19.9999999999997,97.1000000000002,-14.9999999999995));
#346=CARTESIAN_POINT('',(-19.9999999999997,93.1000000000002,-14.9999999999995));
#347=CARTESIAN_POINT('Origin',(-19.9999999999997,66.1000000000002,-10.9999999999995));
#348=UNCERTAINTY_MEASURE_WITH_UNIT(LENGTH_MEASURE(0.01),#352,
'DISTANCE_ACCURACY_VALUE',
'Maximum model space distance between geometric entities at asserted c
onnectivities');
#349=UNCERTAINTY_MEASURE_WITH_UNIT(LENGTH_MEASURE(0.01),#352,
'DISTANCE_ACCURACY_VALUE',
'Maximum model space distance between geometric entities at asserted c
onnectivities');
#350=(
GEOMETRIC_REPRESENTATION_CONTEXT(3)
GLOBAL_UNCERTAINTY_ASSIGNED_CONTEXT((#348))
GLOBAL_UNIT_ASSIGNED_CONTEXT((#352,#354,#355))
REPRESENTATION_CONTEXT('','3D')
);
#351=(
GEOMETRIC_REPRESENTATION_CONTEXT(3)
GLOBAL_UNCERTAINTY_ASSIGNED_CONTEXT((#349))
GLOBAL_UNIT_ASSIGNED_CONTEXT((#352,#354,#355))
REPRESENTATION_CONTEXT('','3D')
);
#352=(
LENGTH_UNIT()
NAMED_UNIT(*)
SI_UNIT(.MILLI.,.METRE.)
);
#353=(
LENGTH_UNIT()
NAMED_UNIT(*)
SI_UNIT($,.METRE.)
);
#354=(
NAMED_UNIT(*)
PLANE_ANGLE_UNIT()
SI_UNIT($,.RADIAN.)
);
#355=(
NAMED_UNIT(*)
SI_UNIT($,.STERADIAN.)
SOLID_ANGLE_UNIT()
);
#356=SHAPE_DEFINITION_REPRESENTATION(#357,#358);
#357=PRODUCT_DEFINITION_SHAPE('',$,#360);
#358=SHAPE_REPRESENTATION('',(#216),#350);
#359=PRODUCT_DEFINITION_CONTEXT('part definition',#364,'design');
#360=PRODUCT_DEFINITION('Front bumper','Front bumper',#361,#359);
#361=PRODUCT_DEFINITION_FORMATION('',$,#366);
#362=PRODUCT_RELATED_PRODUCT_CATEGORY('Front bumper','Front bumper',(#366));
#363=APPLICATION_PROTOCOL_DEFINITION('international standard',
'automotive_design',2009,#364);
#364=APPLICATION_CONTEXT(
'Core Data for Automotive Mechanical Design Process');
#365=PRODUCT_CONTEXT('part definition',#364,'mechanical');
#366=PRODUCT('Front bumper','Front bumper',$,(#365));
#367=PRESENTATION_STYLE_ASSIGNMENT((#368));
#368=SURFACE_STYLE_USAGE(.BOTH.,#369);
#369=SURFACE_SIDE_STYLE('',(#370));
#370=SURFACE_STYLE_FILL_AREA(#371);
#371=FILL_AREA_STYLE('Stahl - satiniert',(#372));
#372=FILL_AREA_STYLE_COLOUR('Stahl - satiniert',#373);
#373=COLOUR_RGB('Stahl - satiniert',0.627450980392157,0.627450980392157,
0.627450980392157);
ENDSEC;
END-ISO-10303-21;
