ISO-10303-21;
HEADER;
/* Generated by software containing ST-Developer
 * from STEP Tools, Inc. (www.steptools.com) 
 */

FILE_DESCRIPTION(
/* description */ (''),
/* implementation_level */ '2;1');

FILE_NAME(
/* name */ 'Front rim spacer.step',
/* time_stamp */ '2026-01-02T21:42:43+01:00',
/* author */ (''),
/* organization */ (''),
/* preprocessor_version */ 'ST-DEVELOPER v20.1',
/* originating_system */ 'Autodesk Translation Framework v14.21.0.0',
/* authorisation */ '');

FILE_SCHEMA (('AUTOMOTIVE_DESIGN { 1 0 10303 214 3 1 1 }'));
ENDSEC;

DATA;
#10=MECHANICAL_DESIGN_GEOMETRIC_PRESENTATION_REPRESENTATION('',(#13),#215);
#11=SHAPE_REPRESENTATION_RELATIONSHIP('SRR','None',#222,#12);
#12=ADVANCED_BREP_SHAPE_REPRESENTATION('',(#14),#214);
#13=STYLED_ITEM('',(#232),#14);
#14=MANIFOLD_SOLID_BREP('Front rim spacer',#115);
#15=LINE('',#195,#19);
#16=LINE('',#200,#20);
#17=LINE('',#206,#21);
#18=LINE('',#210,#22);
#19=VECTOR('',#161,2.50000000000193);
#20=VECTOR('',#166,3.00000000000232);
#21=VECTOR('',#175,1.60000000000124);
#22=VECTOR('',#180,5.25000000000406);
#23=CYLINDRICAL_SURFACE('',#135,2.50000000000193);
#24=CYLINDRICAL_SURFACE('',#136,3.00000000000232);
#25=CYLINDRICAL_SURFACE('',#141,1.60000000000124);
#26=CYLINDRICAL_SURFACE('',#142,5.25000000000406);
#27=FACE_BOUND('',#40,.T.);
#28=FACE_BOUND('',#42,.T.);
#29=FACE_BOUND('',#46,.T.);
#30=FACE_BOUND('',#50,.T.);
#31=FACE_OUTER_BOUND('',#39,.T.);
#32=FACE_OUTER_BOUND('',#41,.T.);
#33=FACE_OUTER_BOUND('',#43,.T.);
#34=FACE_OUTER_BOUND('',#44,.T.);
#35=FACE_OUTER_BOUND('',#45,.T.);
#36=FACE_OUTER_BOUND('',#47,.T.);
#37=FACE_OUTER_BOUND('',#48,.T.);
#38=FACE_OUTER_BOUND('',#49,.T.);
#39=EDGE_LOOP('',(#79));
#40=EDGE_LOOP('',(#80));
#41=EDGE_LOOP('',(#81));
#42=EDGE_LOOP('',(#82));
#43=EDGE_LOOP('',(#83,#84,#85,#86));
#44=EDGE_LOOP('',(#87,#88,#89,#90));
#45=EDGE_LOOP('',(#91));
#46=EDGE_LOOP('',(#92));
#47=EDGE_LOOP('',(#93,#94,#95,#96));
#48=EDGE_LOOP('',(#97,#98,#99,#100));
#49=EDGE_LOOP('',(#101));
#50=EDGE_LOOP('',(#102));
#51=CIRCLE('',#130,2.50000000000193);
#52=CIRCLE('',#131,1.60000000000124);
#53=CIRCLE('',#133,5.25000000000406);
#54=CIRCLE('',#134,2.50000000000193);
#55=CIRCLE('',#137,3.00000000000232);
#56=CIRCLE('',#138,3.00000000000232);
#57=CIRCLE('',#140,1.60000000000124);
#58=CIRCLE('',#143,5.25000000000406);
#59=VERTEX_POINT('',#185);
#60=VERTEX_POINT('',#187);
#61=VERTEX_POINT('',#190);
#62=VERTEX_POINT('',#192);
#63=VERTEX_POINT('',#197);
#64=VERTEX_POINT('',#199);
#65=VERTEX_POINT('',#203);
#66=VERTEX_POINT('',#208);
#67=EDGE_CURVE('',#59,#59,#51,.T.);
#68=EDGE_CURVE('',#60,#60,#52,.T.);
#69=EDGE_CURVE('',#61,#61,#53,.T.);
#70=EDGE_CURVE('',#62,#62,#54,.T.);
#71=EDGE_CURVE('',#59,#62,#15,.T.);
#72=EDGE_CURVE('',#63,#63,#55,.T.);
#73=EDGE_CURVE('',#63,#64,#16,.T.);
#74=EDGE_CURVE('',#64,#64,#56,.T.);
#75=EDGE_CURVE('',#65,#65,#57,.T.);
#76=EDGE_CURVE('',#60,#65,#17,.T.);
#77=EDGE_CURVE('',#66,#66,#58,.F.);
#78=EDGE_CURVE('',#66,#61,#18,.T.);
#79=ORIENTED_EDGE('',*,*,#67,.T.);
#80=ORIENTED_EDGE('',*,*,#68,.T.);
#81=ORIENTED_EDGE('',*,*,#69,.T.);
#82=ORIENTED_EDGE('',*,*,#70,.F.);
#83=ORIENTED_EDGE('',*,*,#67,.F.);
#84=ORIENTED_EDGE('',*,*,#71,.T.);
#85=ORIENTED_EDGE('',*,*,#70,.T.);
#86=ORIENTED_EDGE('',*,*,#71,.F.);
#87=ORIENTED_EDGE('',*,*,#72,.F.);
#88=ORIENTED_EDGE('',*,*,#73,.T.);
#89=ORIENTED_EDGE('',*,*,#74,.T.);
#90=ORIENTED_EDGE('',*,*,#73,.F.);
#91=ORIENTED_EDGE('',*,*,#74,.F.);
#92=ORIENTED_EDGE('',*,*,#75,.F.);
#93=ORIENTED_EDGE('',*,*,#68,.F.);
#94=ORIENTED_EDGE('',*,*,#76,.T.);
#95=ORIENTED_EDGE('',*,*,#75,.T.);
#96=ORIENTED_EDGE('',*,*,#76,.F.);
#97=ORIENTED_EDGE('',*,*,#77,.F.);
#98=ORIENTED_EDGE('',*,*,#78,.T.);
#99=ORIENTED_EDGE('',*,*,#69,.F.);
#100=ORIENTED_EDGE('',*,*,#78,.F.);
#101=ORIENTED_EDGE('',*,*,#77,.T.);
#102=ORIENTED_EDGE('',*,*,#72,.T.);
#103=PLANE('',#129);
#104=PLANE('',#132);
#105=PLANE('',#139);
#106=PLANE('',#144);
#107=ADVANCED_FACE('',(#31,#27),#103,.T.);
#108=ADVANCED_FACE('',(#32,#28),#104,.F.);
#109=ADVANCED_FACE('',(#33),#23,.T.);
#110=ADVANCED_FACE('',(#34),#24,.F.);
#111=ADVANCED_FACE('',(#35,#29),#105,.F.);
#112=ADVANCED_FACE('',(#36),#25,.F.);
#113=ADVANCED_FACE('',(#37),#26,.T.);
#114=ADVANCED_FACE('',(#38,#30),#106,.T.);
#115=CLOSED_SHELL('',(#107,#108,#109,#110,#111,#112,#113,#114));
#116=DERIVED_UNIT_ELEMENT(#118,1.);
#117=DERIVED_UNIT_ELEMENT(#217,-3.);
#118=(
MASS_UNIT()
NAMED_UNIT(*)
SI_UNIT(.KILO.,.GRAM.)
);
#119=DERIVED_UNIT((#116,#117));
#120=MEASURE_REPRESENTATION_ITEM('density measure',
POSITIVE_RATIO_MEASURE(7850.),#119);
#121=PROPERTY_DEFINITION_REPRESENTATION(#126,#123);
#122=PROPERTY_DEFINITION_REPRESENTATION(#127,#124);
#123=REPRESENTATION('material name',(#125),#214);
#124=REPRESENTATION('density',(#120),#214);
#125=DESCRIPTIVE_REPRESENTATION_ITEM('Stahl','Stahl');
#126=PROPERTY_DEFINITION('material property','material name',#224);
#127=PROPERTY_DEFINITION('material property','density of part',#224);
#128=AXIS2_PLACEMENT_3D('',#183,#145,#146);
#129=AXIS2_PLACEMENT_3D('',#184,#147,#148);
#130=AXIS2_PLACEMENT_3D('',#186,#149,#150);
#131=AXIS2_PLACEMENT_3D('',#188,#151,#152);
#132=AXIS2_PLACEMENT_3D('',#189,#153,#154);
#133=AXIS2_PLACEMENT_3D('',#191,#155,#156);
#134=AXIS2_PLACEMENT_3D('',#193,#157,#158);
#135=AXIS2_PLACEMENT_3D('',#194,#159,#160);
#136=AXIS2_PLACEMENT_3D('',#196,#162,#163);
#137=AXIS2_PLACEMENT_3D('',#198,#164,#165);
#138=AXIS2_PLACEMENT_3D('',#201,#167,#168);
#139=AXIS2_PLACEMENT_3D('',#202,#169,#170);
#140=AXIS2_PLACEMENT_3D('',#204,#171,#172);
#141=AXIS2_PLACEMENT_3D('',#205,#173,#174);
#142=AXIS2_PLACEMENT_3D('',#207,#176,#177);
#143=AXIS2_PLACEMENT_3D('',#209,#178,#179);
#144=AXIS2_PLACEMENT_3D('',#211,#181,#182);
#145=DIRECTION('axis',(0.,0.,1.));
#146=DIRECTION('refdir',(1.,0.,0.));
#147=DIRECTION('center_axis',(2.11358708312851E-13,1.,-4.95892274715274E-18));
#148=DIRECTION('ref_axis',(-1.,2.11358708312851E-13,-4.97220995394075E-17));
#149=DIRECTION('center_axis',(2.11358708312851E-13,1.,-4.95892274715274E-18));
#150=DIRECTION('ref_axis',(-1.,2.11358708312851E-13,-4.97220995394075E-17));
#151=DIRECTION('center_axis',(-2.11358708312851E-13,-1.,4.95892274715274E-18));
#152=DIRECTION('ref_axis',(-1.,2.11358708312851E-13,-4.97220995394075E-17));
#153=DIRECTION('center_axis',(-2.1231627567159E-13,-1.,4.95892274715269E-18));
#154=DIRECTION('ref_axis',(-1.,2.1231627567159E-13,-4.97220995394075E-17));
#155=DIRECTION('center_axis',(2.1231627567159E-13,1.,-4.95892274715269E-18));
#156=DIRECTION('ref_axis',(-1.,2.1231627567159E-13,-4.97220995394075E-17));
#157=DIRECTION('center_axis',(2.1231627567159E-13,1.,-4.95892274715269E-18));
#158=DIRECTION('ref_axis',(-1.,2.1231627567159E-13,-4.97220995394075E-17));
#159=DIRECTION('center_axis',(2.11358708312851E-13,1.,-4.95892274715274E-18));
#160=DIRECTION('ref_axis',(-1.,2.11358708312851E-13,-4.97220995394075E-17));
#161=DIRECTION('',(-2.11358708312851E-13,-1.,4.95892274715274E-18));
#162=DIRECTION('center_axis',(2.1231627567159E-13,1.,-4.95892274715269E-18));
#163=DIRECTION('ref_axis',(-4.97220995394065E-17,4.95892274716325E-18,1.));
#164=DIRECTION('center_axis',(2.1231627567159E-13,1.,-4.95892274715269E-18));
#165=DIRECTION('ref_axis',(-4.97220995394065E-17,4.95892274716325E-18,1.));
#166=DIRECTION('',(2.1231627567159E-13,1.,-4.95892274715269E-18));
#167=DIRECTION('center_axis',(2.1231627567159E-13,1.,-4.95892274715269E-18));
#168=DIRECTION('ref_axis',(-4.97220995394065E-17,4.95892274716325E-18,1.));
#169=DIRECTION('center_axis',(2.1231627567159E-13,1.,-4.95892274715269E-18));
#170=DIRECTION('ref_axis',(-4.97220995394064E-17,4.95892274716325E-18,1.));
#171=DIRECTION('center_axis',(-2.1231627567159E-13,-1.,4.95892274715269E-18));
#172=DIRECTION('ref_axis',(-1.,2.1231627567159E-13,-4.97220995394075E-17));
#173=DIRECTION('center_axis',(-2.10609307771229E-13,-1.,4.95892274715278E-18));
#174=DIRECTION('ref_axis',(-1.,2.10609307771229E-13,-4.97220995394075E-17));
#175=DIRECTION('',(-2.10609307771229E-13,-1.,4.95892274715278E-18));
#176=DIRECTION('center_axis',(-2.10609307771229E-13,-1.,4.95892274715278E-18));
#177=DIRECTION('ref_axis',(-1.,2.10609307771229E-13,-4.97220995394075E-17));
#178=DIRECTION('center_axis',(2.1231627567159E-13,1.,-4.95892274715269E-18));
#179=DIRECTION('ref_axis',(-1.,2.1231627567159E-13,-4.97220995394075E-17));
#180=DIRECTION('',(2.10609307771229E-13,1.,-4.95892274715278E-18));
#181=DIRECTION('center_axis',(-2.1231627567159E-13,-1.,4.95892274715269E-18));
#182=DIRECTION('ref_axis',(-1.,2.1231627567159E-13,-4.97220995394075E-17));
#183=CARTESIAN_POINT('',(0.,0.,0.));
#184=CARTESIAN_POINT('Origin',(-3.31440378980652E-12,11.5997677780433,-1.22194019934435E-11));
#185=CARTESIAN_POINT('',(2.49999999999862,11.5997677780428,-1.22195838498944E-11));
#186=CARTESIAN_POINT('Origin',(-3.31440378980652E-12,11.5997677780433,-1.22194019934435E-11));
#187=CARTESIAN_POINT('',(1.59999999999763,11.5997677780429,-1.22195183815721E-11));
#188=CARTESIAN_POINT('Origin',(-3.61289577061538E-12,11.5997677780433,-1.22194019934435E-11));
#189=CARTESIAN_POINT('Origin',(-4.15736301967936E-12,8.99976777804127,-1.22193891002443E-11));
#190=CARTESIAN_POINT('',(5.2499999999999,8.99976777804017,-1.22197709987913E-11));
#191=CARTESIAN_POINT('Origin',(-4.15578095186927E-12,8.99976777804127,-1.22193891002443E-11));
#192=CARTESIAN_POINT('',(2.49999999999807,8.99976777804075,-1.22195709566952E-11));
#193=CARTESIAN_POINT('Origin',(-3.86393643142035E-12,8.99976777804127,-1.22193891002443E-11));
#194=CARTESIAN_POINT('Origin',(-3.86393643142035E-12,8.99976777804127,-1.22193891002443E-11));
#195=CARTESIAN_POINT('',(2.49999999999807,8.99976777804074,-1.22195709566952E-11));
#196=CARTESIAN_POINT('Origin',(-4.90094244887828E-12,5.49976777803857,-1.22193717440147E-11));
#197=CARTESIAN_POINT('',(-5.21963509012704E-12,3.99976777803741,-3.00000000001454));
#198=CARTESIAN_POINT('Origin',(-5.21941686238591E-12,3.99976777803741,-1.22193643056306E-11));
#199=CARTESIAN_POINT('',(-4.58268626311177E-12,6.99976777803973,-3.00000000001454));
#200=CARTESIAN_POINT('',(-4.90116067661941E-12,5.49976777803857,-3.00000000001454));
#201=CARTESIAN_POINT('Origin',(-4.58246803537065E-12,6.99976777803973,-1.22193791823988E-11));
#202=CARTESIAN_POINT('Origin',(-4.58246803537065E-12,6.99976777803973,-1.22193791823988E-11));
#203=CARTESIAN_POINT('',(1.59999999999666,6.99976777803939,-1.22191036835517E-11));
#204=CARTESIAN_POINT('Origin',(-4.5788591909783E-12,6.99976777803973,-1.22193791823988E-11));
#205=CARTESIAN_POINT('Origin',(-4.15764057543551E-12,8.99976777804127,-1.22193891002443E-11));
#206=CARTESIAN_POINT('',(1.59999999999708,8.99976777804093,-1.22191136013972E-11));
#207=CARTESIAN_POINT('Origin',(-4.15764057543551E-12,8.99976777804127,-1.22193891002443E-11));
#208=CARTESIAN_POINT('',(5.24999999999885,3.9997677780363,-1.22197462041775E-11));
#209=CARTESIAN_POINT('Origin',(-5.21068711429247E-12,3.99976777803741,-1.22193643056306E-11));
#210=CARTESIAN_POINT('',(5.2499999999999,8.99976777804016,-1.22184851196522E-11));
#211=CARTESIAN_POINT('Origin',(-5.21922195379429E-12,3.99976777803741,-1.22193643056306E-11));
#212=UNCERTAINTY_MEASURE_WITH_UNIT(LENGTH_MEASURE(0.01),#216,
'DISTANCE_ACCURACY_VALUE',
'Maximum model space distance between geometric entities at asserted c
onnectivities');
#213=UNCERTAINTY_MEASURE_WITH_UNIT(LENGTH_MEASURE(0.01),#216,
'DISTANCE_ACCURACY_VALUE',
'Maximum model space distance between geometric entities at asserted c
onnectivities');
#214=(
GEOMETRIC_REPRESENTATION_CONTEXT(3)
GLOBAL_UNCERTAINTY_ASSIGNED_CONTEXT((#212))
GLOBAL_UNIT_ASSIGNED_CONTEXT((#216,#218,#219))
REPRESENTATION_CONTEXT('','3D')
);
#215=(
GEOMETRIC_REPRESENTATION_CONTEXT(3)
GLOBAL_UNCERTAINTY_ASSIGNED_CONTEXT((#213))
GLOBAL_UNIT_ASSIGNED_CONTEXT((#216,#218,#219))
REPRESENTATION_CONTEXT('','3D')
);
#216=(
LENGTH_UNIT()
NAMED_UNIT(*)
SI_UNIT(.MILLI.,.METRE.)
);
#217=(
LENGTH_UNIT()
NAMED_UNIT(*)
SI_UNIT($,.METRE.)
);
#218=(
NAMED_UNIT(*)
PLANE_ANGLE_UNIT()
SI_UNIT($,.RADIAN.)
);
#219=(
NAMED_UNIT(*)
SI_UNIT($,.STERADIAN.)
SOLID_ANGLE_UNIT()
);
#220=SHAPE_DEFINITION_REPRESENTATION(#221,#222);
#221=PRODUCT_DEFINITION_SHAPE('',$,#224);
#222=SHAPE_REPRESENTATION('',(#128),#214);
#223=PRODUCT_DEFINITION_CONTEXT('part definition',#228,'design');
#224=PRODUCT_DEFINITION('Front rim spacer','Front rim spacer',#225,#223);
#225=PRODUCT_DEFINITION_FORMATION('',$,#230);
#226=PRODUCT_RELATED_PRODUCT_CATEGORY('Front rim spacer',
'Front rim spacer',(#230));
#227=APPLICATION_PROTOCOL_DEFINITION('international standard',
'automotive_design',2009,#228);
#228=APPLICATION_CONTEXT(
'Core Data for Automotive Mechanical Design Process');
#229=PRODUCT_CONTEXT('part definition',#228,'mechanical');
#230=PRODUCT('Front rim spacer','Front rim spacer',$,(#229));
#231=PRESENTATION_STYLE_ASSIGNMENT((#233));
#232=PRESENTATION_STYLE_ASSIGNMENT((#234));
#233=SURFACE_STYLE_USAGE(.BOTH.,#235);
#234=SURFACE_STYLE_USAGE(.BOTH.,#236);
#235=SURFACE_SIDE_STYLE('',(#237));
#236=SURFACE_SIDE_STYLE('',(#238));
#237=SURFACE_STYLE_FILL_AREA(#239);
#238=SURFACE_STYLE_FILL_AREA(#240);
#239=FILL_AREA_STYLE('Stahl - satiniert',(#241));
#240=FILL_AREA_STYLE('Opaque(25,25,25)',(#242));
#241=FILL_AREA_STYLE_COLOUR('Stahl - satiniert',#243);
#242=FILL_AREA_STYLE_COLOUR('Opaque(25,25,25)',#244);
#243=COLOUR_RGB('Stahl - satiniert',0.627450980392157,0.627450980392157,
0.627450980392157);
#244=COLOUR_RGB('Opaque(25,25,25)',0.0980392156862745,0.0980392156862745,
0.0980392156862745);
ENDSEC;
END-ISO-10303-21;
