ISO-10303-21;
HEADER;
/* Generated by software containing ST-Developer
 * from STEP Tools, Inc. (www.steptools.com) 
 */

FILE_DESCRIPTION(
/* description */ (''),
/* implementation_level */ '2;1');

FILE_NAME(
/* name */ 'Front window.step',
/* time_stamp */ '2026-04-11T13:50:07+02:00',
/* author */ (''),
/* organization */ (''),
/* preprocessor_version */ 'ST-DEVELOPER v20.1',
/* originating_system */ 'Autodesk Translation Framework v14.24.0.0',
/* authorisation */ '');

FILE_SCHEMA (('AUTOMOTIVE_DESIGN { 1 0 10303 214 3 1 1 }'));
ENDSEC;

DATA;
#10=MECHANICAL_DESIGN_GEOMETRIC_PRESENTATION_REPRESENTATION('',(#13),#1671);
#11=SHAPE_REPRESENTATION_RELATIONSHIP('SRR','None',#1678,#12);
#12=ADVANCED_BREP_SHAPE_REPRESENTATION('',(#14),#1670);
#13=STYLED_ITEM('',(#1688),#14);
#14=MANIFOLD_SOLID_BREP('Front window',#983);
#15=CYLINDRICAL_SURFACE('',#1013,1.6);
#16=CYLINDRICAL_SURFACE('',#1018,4.);
#17=CYLINDRICAL_SURFACE('',#1021,1.6);
#18=CYLINDRICAL_SURFACE('',#1050,1.6);
#19=CYLINDRICAL_SURFACE('',#1055,4.);
#20=CYLINDRICAL_SURFACE('',#1057,1.6);
#21=CYLINDRICAL_SURFACE('',#1063,1.9);
#22=CYLINDRICAL_SURFACE('',#1075,1.9);
#23=CYLINDRICAL_SURFACE('',#1078,4.9);
#24=CYLINDRICAL_SURFACE('',#1081,4.9);
#25=CYLINDRICAL_SURFACE('',#1083,1.9);
#26=CYLINDRICAL_SURFACE('',#1086,1.9);
#27=CYLINDRICAL_SURFACE('',#1088,2.80000000000003);
#28=CYLINDRICAL_SURFACE('',#1090,2.80000000000003);
#29=FACE_BOUND('',#133,.T.);
#30=FACE_BOUND('',#139,.T.);
#31=FACE_BOUND('',#145,.T.);
#32=FACE_BOUND('',#147,.T.);
#33=FACE_BOUND('',#148,.T.);
#34=FACE_BOUND('',#156,.T.);
#35=FACE_BOUND('',#162,.T.);
#36=FACE_BOUND('',#168,.T.);
#37=FACE_BOUND('',#172,.T.);
#38=CIRCLE('',#1001,1.6);
#39=CIRCLE('',#1002,1.6);
#40=CIRCLE('',#1003,4.);
#41=CIRCLE('',#1008,1.6);
#42=CIRCLE('',#1011,4.);
#43=CIRCLE('',#1012,1.6);
#44=CIRCLE('',#1014,1.6);
#45=CIRCLE('',#1019,4.);
#46=CIRCLE('',#1020,4.);
#47=CIRCLE('',#1022,1.6);
#48=CIRCLE('',#1028,1.9);
#49=CIRCLE('',#1029,2.80000000000003);
#50=CIRCLE('',#1030,2.80000000000003);
#51=CIRCLE('',#1031,1.9);
#52=CIRCLE('',#1032,4.);
#53=CIRCLE('',#1038,1.6);
#54=CIRCLE('',#1039,1.6);
#55=CIRCLE('',#1040,4.);
#56=CIRCLE('',#1045,1.6);
#57=CIRCLE('',#1048,4.);
#58=CIRCLE('',#1049,1.6);
#59=CIRCLE('',#1051,1.6);
#60=CIRCLE('',#1056,4.);
#61=CIRCLE('',#1058,1.6);
#62=CIRCLE('',#1064,1.9);
#63=CIRCLE('',#1065,1.9);
#64=CIRCLE('',#1068,4.9);
#65=CIRCLE('',#1069,4.9);
#66=CIRCLE('',#1070,1.9);
#67=CIRCLE('',#1071,2.80000000000003);
#68=CIRCLE('',#1072,2.80000000000003);
#69=CIRCLE('',#1073,1.9);
#70=CIRCLE('',#1074,1.9);
#71=CIRCLE('',#1076,1.9);
#72=CIRCLE('',#1079,4.9);
#73=CIRCLE('',#1082,4.9);
#74=FACE_OUTER_BOUND('',#127,.T.);
#75=FACE_OUTER_BOUND('',#128,.T.);
#76=FACE_OUTER_BOUND('',#129,.T.);
#77=FACE_OUTER_BOUND('',#130,.T.);
#78=FACE_OUTER_BOUND('',#131,.T.);
#79=FACE_OUTER_BOUND('',#132,.T.);
#80=FACE_OUTER_BOUND('',#134,.T.);
#81=FACE_OUTER_BOUND('',#135,.T.);
#82=FACE_OUTER_BOUND('',#136,.T.);
#83=FACE_OUTER_BOUND('',#137,.T.);
#84=FACE_OUTER_BOUND('',#138,.T.);
#85=FACE_OUTER_BOUND('',#140,.T.);
#86=FACE_OUTER_BOUND('',#141,.T.);
#87=FACE_OUTER_BOUND('',#142,.T.);
#88=FACE_OUTER_BOUND('',#143,.T.);
#89=FACE_OUTER_BOUND('',#144,.T.);
#90=FACE_OUTER_BOUND('',#146,.T.);
#91=FACE_OUTER_BOUND('',#149,.T.);
#92=FACE_OUTER_BOUND('',#150,.T.);
#93=FACE_OUTER_BOUND('',#151,.T.);
#94=FACE_OUTER_BOUND('',#152,.T.);
#95=FACE_OUTER_BOUND('',#153,.T.);
#96=FACE_OUTER_BOUND('',#154,.T.);
#97=FACE_OUTER_BOUND('',#155,.T.);
#98=FACE_OUTER_BOUND('',#157,.T.);
#99=FACE_OUTER_BOUND('',#158,.T.);
#100=FACE_OUTER_BOUND('',#159,.T.);
#101=FACE_OUTER_BOUND('',#160,.T.);
#102=FACE_OUTER_BOUND('',#161,.T.);
#103=FACE_OUTER_BOUND('',#163,.T.);
#104=FACE_OUTER_BOUND('',#164,.T.);
#105=FACE_OUTER_BOUND('',#165,.T.);
#106=FACE_OUTER_BOUND('',#166,.T.);
#107=FACE_OUTER_BOUND('',#167,.T.);
#108=FACE_OUTER_BOUND('',#169,.T.);
#109=FACE_OUTER_BOUND('',#170,.T.);
#110=FACE_OUTER_BOUND('',#171,.T.);
#111=FACE_OUTER_BOUND('',#173,.T.);
#112=FACE_OUTER_BOUND('',#174,.T.);
#113=FACE_OUTER_BOUND('',#175,.T.);
#114=FACE_OUTER_BOUND('',#176,.T.);
#115=FACE_OUTER_BOUND('',#177,.T.);
#116=FACE_OUTER_BOUND('',#178,.T.);
#117=FACE_OUTER_BOUND('',#179,.T.);
#118=FACE_OUTER_BOUND('',#180,.T.);
#119=FACE_OUTER_BOUND('',#181,.T.);
#120=FACE_OUTER_BOUND('',#182,.T.);
#121=FACE_OUTER_BOUND('',#183,.T.);
#122=FACE_OUTER_BOUND('',#184,.T.);
#123=FACE_OUTER_BOUND('',#185,.T.);
#124=FACE_OUTER_BOUND('',#186,.T.);
#125=FACE_OUTER_BOUND('',#187,.T.);
#126=FACE_OUTER_BOUND('',#188,.T.);
#127=EDGE_LOOP('',(#615,#616,#617,#618,#619,#620));
#128=EDGE_LOOP('',(#621,#622,#623,#624,#625));
#129=EDGE_LOOP('',(#626,#627,#628,#629,#630,#631));
#130=EDGE_LOOP('',(#632,#633,#634,#635,#636));
#131=EDGE_LOOP('',(#637,#638,#639,#640));
#132=EDGE_LOOP('',(#641,#642,#643,#644,#645));
#133=EDGE_LOOP('',(#646));
#134=EDGE_LOOP('',(#647,#648,#649,#650));
#135=EDGE_LOOP('',(#651,#652,#653,#654,#655));
#136=EDGE_LOOP('',(#656,#657,#658,#659,#660));
#137=EDGE_LOOP('',(#661,#662,#663,#664));
#138=EDGE_LOOP('',(#665,#666,#667,#668));
#139=EDGE_LOOP('',(#669,#670,#671,#672,#673,#674));
#140=EDGE_LOOP('',(#675,#676,#677,#678,#679,#680,#681,#682));
#141=EDGE_LOOP('',(#683,#684,#685,#686));
#142=EDGE_LOOP('',(#687,#688,#689,#690));
#143=EDGE_LOOP('',(#691,#692,#693,#694));
#144=EDGE_LOOP('',(#695,#696,#697,#698));
#145=EDGE_LOOP('',(#699));
#146=EDGE_LOOP('',(#700,#701,#702,#703,#704,#705,#706,#707));
#147=EDGE_LOOP('',(#708,#709,#710,#711));
#148=EDGE_LOOP('',(#712,#713,#714,#715));
#149=EDGE_LOOP('',(#716));
#150=EDGE_LOOP('',(#717,#718,#719,#720,#721,#722));
#151=EDGE_LOOP('',(#723,#724,#725,#726,#727));
#152=EDGE_LOOP('',(#728,#729,#730,#731,#732,#733));
#153=EDGE_LOOP('',(#734,#735,#736,#737,#738));
#154=EDGE_LOOP('',(#739,#740,#741,#742));
#155=EDGE_LOOP('',(#743,#744,#745,#746,#747));
#156=EDGE_LOOP('',(#748));
#157=EDGE_LOOP('',(#749,#750,#751,#752));
#158=EDGE_LOOP('',(#753,#754,#755,#756,#757));
#159=EDGE_LOOP('',(#758,#759,#760,#761,#762));
#160=EDGE_LOOP('',(#763,#764,#765,#766));
#161=EDGE_LOOP('',(#767,#768,#769,#770));
#162=EDGE_LOOP('',(#771,#772,#773,#774,#775,#776));
#163=EDGE_LOOP('',(#777,#778,#779,#780,#781,#782,#783,#784));
#164=EDGE_LOOP('',(#785,#786,#787,#788));
#165=EDGE_LOOP('',(#789,#790,#791,#792));
#166=EDGE_LOOP('',(#793,#794,#795,#796));
#167=EDGE_LOOP('',(#797,#798,#799,#800));
#168=EDGE_LOOP('',(#801));
#169=EDGE_LOOP('',(#802,#803,#804,#805));
#170=EDGE_LOOP('',(#806,#807,#808,#809));
#171=EDGE_LOOP('',(#810,#811,#812,#813,#814,#815,#816,#817));
#172=EDGE_LOOP('',(#818,#819,#820,#821,#822,#823,#824,#825));
#173=EDGE_LOOP('',(#826,#827,#828,#829));
#174=EDGE_LOOP('',(#830,#831,#832,#833));
#175=EDGE_LOOP('',(#834,#835,#836,#837));
#176=EDGE_LOOP('',(#838,#839,#840,#841));
#177=EDGE_LOOP('',(#842,#843,#844,#845));
#178=EDGE_LOOP('',(#846,#847,#848,#849));
#179=EDGE_LOOP('',(#850,#851,#852,#853));
#180=EDGE_LOOP('',(#854));
#181=EDGE_LOOP('',(#855,#856,#857,#858));
#182=EDGE_LOOP('',(#859,#860,#861,#862));
#183=EDGE_LOOP('',(#863,#864,#865,#866));
#184=EDGE_LOOP('',(#867,#868,#869,#870));
#185=EDGE_LOOP('',(#871,#872,#873,#874));
#186=EDGE_LOOP('',(#875,#876,#877,#878));
#187=EDGE_LOOP('',(#879,#880,#881,#882));
#188=EDGE_LOOP('',(#883,#884,#885,#886,#887,#888,#889,#890));
#189=LINE('',#1390,#283);
#190=LINE('',#1394,#284);
#191=LINE('',#1396,#285);
#192=LINE('',#1397,#286);
#193=LINE('',#1404,#287);
#194=LINE('',#1409,#288);
#195=LINE('',#1411,#289);
#196=LINE('',#1415,#290);
#197=LINE('',#1418,#291);
#198=LINE('',#1419,#292);
#199=LINE('',#1423,#293);
#200=LINE('',#1425,#294);
#201=LINE('',#1426,#295);
#202=LINE('',#1429,#296);
#203=LINE('',#1431,#297);
#204=LINE('',#1433,#298);
#205=LINE('',#1439,#299);
#206=LINE('',#1442,#300);
#207=LINE('',#1443,#301);
#208=LINE('',#1446,#302);
#209=LINE('',#1450,#303);
#210=LINE('',#1454,#304);
#211=LINE('',#1459,#305);
#212=LINE('',#1462,#306);
#213=LINE('',#1464,#307);
#214=LINE('',#1465,#308);
#215=LINE('',#1468,#309);
#216=LINE('',#1470,#310);
#217=LINE('',#1471,#311);
#218=LINE('',#1473,#312);
#219=LINE('',#1474,#313);
#220=LINE('',#1481,#314);
#221=LINE('',#1485,#315);
#222=LINE('',#1489,#316);
#223=LINE('',#1492,#317);
#224=LINE('',#1497,#318);
#225=LINE('',#1499,#319);
#226=LINE('',#1500,#320);
#227=LINE('',#1507,#321);
#228=LINE('',#1511,#322);
#229=LINE('',#1513,#323);
#230=LINE('',#1514,#324);
#231=LINE('',#1521,#325);
#232=LINE('',#1526,#326);
#233=LINE('',#1528,#327);
#234=LINE('',#1532,#328);
#235=LINE('',#1535,#329);
#236=LINE('',#1536,#330);
#237=LINE('',#1540,#331);
#238=LINE('',#1542,#332);
#239=LINE('',#1543,#333);
#240=LINE('',#1546,#334);
#241=LINE('',#1548,#335);
#242=LINE('',#1550,#336);
#243=LINE('',#1556,#337);
#244=LINE('',#1559,#338);
#245=LINE('',#1560,#339);
#246=LINE('',#1563,#340);
#247=LINE('',#1566,#341);
#248=LINE('',#1569,#342);
#249=LINE('',#1573,#343);
#250=LINE('',#1576,#344);
#251=LINE('',#1577,#345);
#252=LINE('',#1580,#346);
#253=LINE('',#1581,#347);
#254=LINE('',#1583,#348);
#255=LINE('',#1590,#349);
#256=LINE('',#1593,#350);
#257=LINE('',#1596,#351);
#258=LINE('',#1598,#352);
#259=LINE('',#1599,#353);
#260=LINE('',#1602,#354);
#261=LINE('',#1606,#355);
#262=LINE('',#1610,#356);
#263=LINE('',#1614,#357);
#264=LINE('',#1618,#358);
#265=LINE('',#1622,#359);
#266=LINE('',#1626,#360);
#267=LINE('',#1630,#361);
#268=LINE('',#1634,#362);
#269=LINE('',#1635,#363);
#270=LINE('',#1638,#364);
#271=LINE('',#1642,#365);
#272=LINE('',#1643,#366);
#273=LINE('',#1647,#367);
#274=LINE('',#1649,#368);
#275=LINE('',#1650,#369);
#276=LINE('',#1652,#370);
#277=LINE('',#1655,#371);
#278=LINE('',#1657,#372);
#279=LINE('',#1659,#373);
#280=LINE('',#1661,#374);
#281=LINE('',#1663,#375);
#282=LINE('',#1665,#376);
#283=VECTOR('',#1100,10.);
#284=VECTOR('',#1103,10.);
#285=VECTOR('',#1104,10.);
#286=VECTOR('',#1105,10.);
#287=VECTOR('',#1112,10.);
#288=VECTOR('',#1117,10.);
#289=VECTOR('',#1118,10.);
#290=VECTOR('',#1123,10.);
#291=VECTOR('',#1126,9.99999999999999);
#292=VECTOR('',#1127,10.);
#293=VECTOR('',#1132,10.);
#294=VECTOR('',#1133,10.);
#295=VECTOR('',#1134,10.);
#296=VECTOR('',#1137,10.);
#297=VECTOR('',#1138,9.99999999999999);
#298=VECTOR('',#1139,10.);
#299=VECTOR('',#1146,1.6);
#300=VECTOR('',#1151,10.);
#301=VECTOR('',#1152,10.);
#302=VECTOR('',#1157,10.);
#303=VECTOR('',#1160,10.);
#304=VECTOR('',#1163,10.);
#305=VECTOR('',#1170,1.6);
#306=VECTOR('',#1173,10.);
#307=VECTOR('',#1174,10.);
#308=VECTOR('',#1175,10.);
#309=VECTOR('',#1178,10.);
#310=VECTOR('',#1179,10.);
#311=VECTOR('',#1180,10.);
#312=VECTOR('',#1183,10.);
#313=VECTOR('',#1184,10.);
#314=VECTOR('',#1191,10.);
#315=VECTOR('',#1194,10.);
#316=VECTOR('',#1197,10.);
#317=VECTOR('',#1200,10.);
#318=VECTOR('',#1203,10.);
#319=VECTOR('',#1204,10.);
#320=VECTOR('',#1205,10.);
#321=VECTOR('',#1212,10.);
#322=VECTOR('',#1215,10.);
#323=VECTOR('',#1216,10.);
#324=VECTOR('',#1217,10.);
#325=VECTOR('',#1224,10.);
#326=VECTOR('',#1229,10.);
#327=VECTOR('',#1230,10.);
#328=VECTOR('',#1235,10.);
#329=VECTOR('',#1238,9.99999999999999);
#330=VECTOR('',#1239,10.);
#331=VECTOR('',#1244,10.);
#332=VECTOR('',#1245,10.);
#333=VECTOR('',#1246,10.);
#334=VECTOR('',#1249,10.);
#335=VECTOR('',#1250,9.99999999999999);
#336=VECTOR('',#1251,10.);
#337=VECTOR('',#1258,1.6);
#338=VECTOR('',#1263,10.);
#339=VECTOR('',#1264,10.);
#340=VECTOR('',#1269,10.);
#341=VECTOR('',#1272,10.);
#342=VECTOR('',#1275,10.);
#343=VECTOR('',#1280,1.6);
#344=VECTOR('',#1283,10.);
#345=VECTOR('',#1284,10.);
#346=VECTOR('',#1287,10.);
#347=VECTOR('',#1288,10.);
#348=VECTOR('',#1291,10.);
#349=VECTOR('',#1298,10.);
#350=VECTOR('',#1301,10.);
#351=VECTOR('',#1304,10.);
#352=VECTOR('',#1305,10.);
#353=VECTOR('',#1306,10.);
#354=VECTOR('',#1309,10.);
#355=VECTOR('',#1312,10.);
#356=VECTOR('',#1315,10.);
#357=VECTOR('',#1318,10.);
#358=VECTOR('',#1321,10.);
#359=VECTOR('',#1324,10.);
#360=VECTOR('',#1327,10.);
#361=VECTOR('',#1332,10.);
#362=VECTOR('',#1337,10.);
#363=VECTOR('',#1338,10.);
#364=VECTOR('',#1341,10.);
#365=VECTOR('',#1346,10.);
#366=VECTOR('',#1347,10.);
#367=VECTOR('',#1352,10.);
#368=VECTOR('',#1355,10.);
#369=VECTOR('',#1356,10.);
#370=VECTOR('',#1359,10.);
#371=VECTOR('',#1364,10.);
#372=VECTOR('',#1367,10.);
#373=VECTOR('',#1370,10.);
#374=VECTOR('',#1373,10.);
#375=VECTOR('',#1376,10.);
#376=VECTOR('',#1379,10.);
#377=ELLIPSE('',#998,2.26274169979176,1.60000000000733);
#378=ELLIPSE('',#999,5.65685424949236,4.);
#379=ELLIPSE('',#1005,5.65685424949236,4.);
#380=ELLIPSE('',#1006,2.26274169979176,1.60000000000733);
#381=ELLIPSE('',#1035,2.26274169979176,1.60000000000733);
#382=ELLIPSE('',#1036,5.65685424949236,4.);
#383=ELLIPSE('',#1042,5.65685424949236,4.);
#384=ELLIPSE('',#1043,2.26274169979176,1.60000000000733);
#385=VERTEX_POINT('',#1386);
#386=VERTEX_POINT('',#1387);
#387=VERTEX_POINT('',#1389);
#388=VERTEX_POINT('',#1391);
#389=VERTEX_POINT('',#1393);
#390=VERTEX_POINT('',#1395);
#391=VERTEX_POINT('',#1399);
#392=VERTEX_POINT('',#1401);
#393=VERTEX_POINT('',#1403);
#394=VERTEX_POINT('',#1407);
#395=VERTEX_POINT('',#1408);
#396=VERTEX_POINT('',#1410);
#397=VERTEX_POINT('',#1413);
#398=VERTEX_POINT('',#1417);
#399=VERTEX_POINT('',#1422);
#400=VERTEX_POINT('',#1424);
#401=VERTEX_POINT('',#1428);
#402=VERTEX_POINT('',#1430);
#403=VERTEX_POINT('',#1432);
#404=VERTEX_POINT('',#1435);
#405=VERTEX_POINT('',#1438);
#406=VERTEX_POINT('',#1448);
#407=VERTEX_POINT('',#1449);
#408=VERTEX_POINT('',#1451);
#409=VERTEX_POINT('',#1453);
#410=VERTEX_POINT('',#1457);
#411=VERTEX_POINT('',#1461);
#412=VERTEX_POINT('',#1463);
#413=VERTEX_POINT('',#1467);
#414=VERTEX_POINT('',#1469);
#415=VERTEX_POINT('',#1477);
#416=VERTEX_POINT('',#1478);
#417=VERTEX_POINT('',#1480);
#418=VERTEX_POINT('',#1482);
#419=VERTEX_POINT('',#1484);
#420=VERTEX_POINT('',#1486);
#421=VERTEX_POINT('',#1488);
#422=VERTEX_POINT('',#1490);
#423=VERTEX_POINT('',#1493);
#424=VERTEX_POINT('',#1494);
#425=VERTEX_POINT('',#1496);
#426=VERTEX_POINT('',#1498);
#427=VERTEX_POINT('',#1503);
#428=VERTEX_POINT('',#1504);
#429=VERTEX_POINT('',#1506);
#430=VERTEX_POINT('',#1508);
#431=VERTEX_POINT('',#1510);
#432=VERTEX_POINT('',#1512);
#433=VERTEX_POINT('',#1516);
#434=VERTEX_POINT('',#1518);
#435=VERTEX_POINT('',#1520);
#436=VERTEX_POINT('',#1524);
#437=VERTEX_POINT('',#1525);
#438=VERTEX_POINT('',#1527);
#439=VERTEX_POINT('',#1530);
#440=VERTEX_POINT('',#1534);
#441=VERTEX_POINT('',#1539);
#442=VERTEX_POINT('',#1541);
#443=VERTEX_POINT('',#1545);
#444=VERTEX_POINT('',#1547);
#445=VERTEX_POINT('',#1549);
#446=VERTEX_POINT('',#1552);
#447=VERTEX_POINT('',#1555);
#448=VERTEX_POINT('',#1565);
#449=VERTEX_POINT('',#1567);
#450=VERTEX_POINT('',#1571);
#451=VERTEX_POINT('',#1575);
#452=VERTEX_POINT('',#1579);
#453=VERTEX_POINT('',#1586);
#454=VERTEX_POINT('',#1587);
#455=VERTEX_POINT('',#1589);
#456=VERTEX_POINT('',#1591);
#457=VERTEX_POINT('',#1595);
#458=VERTEX_POINT('',#1597);
#459=VERTEX_POINT('',#1601);
#460=VERTEX_POINT('',#1603);
#461=VERTEX_POINT('',#1605);
#462=VERTEX_POINT('',#1607);
#463=VERTEX_POINT('',#1609);
#464=VERTEX_POINT('',#1612);
#465=VERTEX_POINT('',#1613);
#466=VERTEX_POINT('',#1615);
#467=VERTEX_POINT('',#1617);
#468=VERTEX_POINT('',#1619);
#469=VERTEX_POINT('',#1621);
#470=VERTEX_POINT('',#1623);
#471=VERTEX_POINT('',#1625);
#472=VERTEX_POINT('',#1629);
#473=VERTEX_POINT('',#1633);
#474=VERTEX_POINT('',#1637);
#475=VERTEX_POINT('',#1641);
#476=VERTEX_POINT('',#1645);
#477=EDGE_CURVE('',#385,#386,#377,.F.);
#478=EDGE_CURVE('',#385,#387,#189,.T.);
#479=EDGE_CURVE('',#387,#388,#378,.T.);
#480=EDGE_CURVE('',#388,#389,#190,.T.);
#481=EDGE_CURVE('',#390,#389,#191,.T.);
#482=EDGE_CURVE('',#390,#386,#192,.T.);
#483=EDGE_CURVE('',#391,#385,#38,.T.);
#484=EDGE_CURVE('',#392,#391,#39,.T.);
#485=EDGE_CURVE('',#393,#392,#193,.T.);
#486=EDGE_CURVE('',#387,#393,#40,.T.);
#487=EDGE_CURVE('',#394,#395,#194,.T.);
#488=EDGE_CURVE('',#394,#396,#195,.T.);
#489=EDGE_CURVE('',#396,#393,#379,.T.);
#490=EDGE_CURVE('',#397,#392,#380,.F.);
#491=EDGE_CURVE('',#397,#395,#196,.T.);
#492=EDGE_CURVE('',#398,#390,#197,.T.);
#493=EDGE_CURVE('',#395,#398,#198,.T.);
#494=EDGE_CURVE('',#386,#397,#41,.T.);
#495=EDGE_CURVE('',#399,#394,#199,.T.);
#496=EDGE_CURVE('',#399,#400,#200,.T.);
#497=EDGE_CURVE('',#396,#400,#201,.T.);
#498=EDGE_CURVE('',#401,#399,#202,.T.);
#499=EDGE_CURVE('',#402,#401,#203,.T.);
#500=EDGE_CURVE('',#403,#402,#204,.T.);
#501=EDGE_CURVE('',#400,#403,#42,.T.);
#502=EDGE_CURVE('',#404,#404,#43,.T.);
#503=EDGE_CURVE('',#404,#405,#205,.T.);
#504=EDGE_CURVE('',#405,#405,#44,.T.);
#505=EDGE_CURVE('',#389,#402,#206,.T.);
#506=EDGE_CURVE('',#401,#398,#207,.T.);
#507=EDGE_CURVE('',#403,#388,#208,.T.);
#508=EDGE_CURVE('',#406,#407,#209,.T.);
#509=EDGE_CURVE('',#408,#406,#45,.T.);
#510=EDGE_CURVE('',#408,#409,#210,.T.);
#511=EDGE_CURVE('',#407,#409,#46,.T.);
#512=EDGE_CURVE('',#410,#410,#47,.T.);
#513=EDGE_CURVE('',#410,#391,#211,.T.);
#514=EDGE_CURVE('',#406,#411,#212,.T.);
#515=EDGE_CURVE('',#412,#407,#213,.T.);
#516=EDGE_CURVE('',#411,#412,#214,.T.);
#517=EDGE_CURVE('',#411,#413,#215,.T.);
#518=EDGE_CURVE('',#414,#412,#216,.T.);
#519=EDGE_CURVE('',#413,#414,#217,.T.);
#520=EDGE_CURVE('',#413,#408,#218,.T.);
#521=EDGE_CURVE('',#409,#414,#219,.T.);
#522=EDGE_CURVE('',#415,#416,#48,.T.);
#523=EDGE_CURVE('',#415,#417,#220,.F.);
#524=EDGE_CURVE('',#418,#417,#49,.T.);
#525=EDGE_CURVE('',#418,#419,#221,.F.);
#526=EDGE_CURVE('',#420,#419,#50,.T.);
#527=EDGE_CURVE('',#421,#420,#222,.T.);
#528=EDGE_CURVE('',#422,#421,#51,.T.);
#529=EDGE_CURVE('',#416,#422,#223,.T.);
#530=EDGE_CURVE('',#423,#424,#52,.T.);
#531=EDGE_CURVE('',#424,#425,#224,.T.);
#532=EDGE_CURVE('',#425,#426,#225,.T.);
#533=EDGE_CURVE('',#426,#423,#226,.T.);
#534=EDGE_CURVE('',#427,#428,#381,.F.);
#535=EDGE_CURVE('',#427,#429,#227,.T.);
#536=EDGE_CURVE('',#429,#430,#382,.T.);
#537=EDGE_CURVE('',#430,#431,#228,.T.);
#538=EDGE_CURVE('',#432,#431,#229,.T.);
#539=EDGE_CURVE('',#432,#428,#230,.T.);
#540=EDGE_CURVE('',#433,#427,#53,.T.);
#541=EDGE_CURVE('',#434,#433,#54,.T.);
#542=EDGE_CURVE('',#435,#434,#231,.T.);
#543=EDGE_CURVE('',#429,#435,#55,.T.);
#544=EDGE_CURVE('',#436,#437,#232,.T.);
#545=EDGE_CURVE('',#436,#438,#233,.T.);
#546=EDGE_CURVE('',#438,#435,#383,.T.);
#547=EDGE_CURVE('',#439,#434,#384,.F.);
#548=EDGE_CURVE('',#439,#437,#234,.T.);
#549=EDGE_CURVE('',#440,#432,#235,.T.);
#550=EDGE_CURVE('',#437,#440,#236,.T.);
#551=EDGE_CURVE('',#428,#439,#56,.T.);
#552=EDGE_CURVE('',#441,#436,#237,.T.);
#553=EDGE_CURVE('',#441,#442,#238,.T.);
#554=EDGE_CURVE('',#438,#442,#239,.T.);
#555=EDGE_CURVE('',#443,#441,#240,.T.);
#556=EDGE_CURVE('',#444,#443,#241,.T.);
#557=EDGE_CURVE('',#445,#444,#242,.T.);
#558=EDGE_CURVE('',#442,#445,#57,.T.);
#559=EDGE_CURVE('',#446,#446,#58,.T.);
#560=EDGE_CURVE('',#446,#447,#243,.T.);
#561=EDGE_CURVE('',#447,#447,#59,.T.);
#562=EDGE_CURVE('',#431,#444,#244,.T.);
#563=EDGE_CURVE('',#443,#440,#245,.T.);
#564=EDGE_CURVE('',#445,#430,#246,.T.);
#565=EDGE_CURVE('',#448,#423,#247,.T.);
#566=EDGE_CURVE('',#449,#448,#60,.T.);
#567=EDGE_CURVE('',#449,#424,#248,.T.);
#568=EDGE_CURVE('',#450,#450,#61,.T.);
#569=EDGE_CURVE('',#450,#433,#249,.T.);
#570=EDGE_CURVE('',#448,#451,#250,.T.);
#571=EDGE_CURVE('',#451,#426,#251,.T.);
#572=EDGE_CURVE('',#451,#452,#252,.T.);
#573=EDGE_CURVE('',#452,#425,#253,.T.);
#574=EDGE_CURVE('',#452,#449,#254,.T.);
#575=EDGE_CURVE('',#453,#454,#62,.T.);
#576=EDGE_CURVE('',#454,#455,#255,.T.);
#577=EDGE_CURVE('',#455,#456,#63,.T.);
#578=EDGE_CURVE('',#456,#453,#256,.T.);
#579=EDGE_CURVE('',#456,#457,#257,.T.);
#580=EDGE_CURVE('',#458,#457,#258,.T.);
#581=EDGE_CURVE('',#458,#453,#259,.F.);
#582=EDGE_CURVE('',#455,#459,#260,.F.);
#583=EDGE_CURVE('',#460,#459,#64,.T.);
#584=EDGE_CURVE('',#460,#461,#261,.F.);
#585=EDGE_CURVE('',#462,#461,#65,.T.);
#586=EDGE_CURVE('',#463,#462,#262,.T.);
#587=EDGE_CURVE('',#457,#463,#66,.T.);
#588=EDGE_CURVE('',#464,#465,#263,.T.);
#589=EDGE_CURVE('',#466,#465,#67,.F.);
#590=EDGE_CURVE('',#467,#466,#264,.F.);
#591=EDGE_CURVE('',#468,#467,#68,.F.);
#592=EDGE_CURVE('',#469,#468,#265,.F.);
#593=EDGE_CURVE('',#470,#469,#69,.F.);
#594=EDGE_CURVE('',#470,#471,#266,.T.);
#595=EDGE_CURVE('',#464,#471,#70,.F.);
#596=EDGE_CURVE('',#463,#472,#267,.T.);
#597=EDGE_CURVE('',#472,#458,#71,.T.);
#598=EDGE_CURVE('',#473,#462,#268,.T.);
#599=EDGE_CURVE('',#473,#472,#269,.F.);
#600=EDGE_CURVE('',#461,#474,#270,.T.);
#601=EDGE_CURVE('',#474,#473,#72,.T.);
#602=EDGE_CURVE('',#475,#460,#271,.T.);
#603=EDGE_CURVE('',#475,#474,#272,.F.);
#604=EDGE_CURVE('',#476,#475,#73,.T.);
#605=EDGE_CURVE('',#459,#476,#273,.T.);
#606=EDGE_CURVE('',#416,#470,#274,.T.);
#607=EDGE_CURVE('',#469,#415,#275,.T.);
#608=EDGE_CURVE('',#471,#422,#276,.T.);
#609=EDGE_CURVE('',#421,#464,#277,.T.);
#610=EDGE_CURVE('',#465,#420,#278,.T.);
#611=EDGE_CURVE('',#419,#466,#279,.T.);
#612=EDGE_CURVE('',#467,#418,#280,.T.);
#613=EDGE_CURVE('',#417,#468,#281,.T.);
#614=EDGE_CURVE('',#476,#454,#282,.T.);
#615=ORIENTED_EDGE('',*,*,#477,.F.);
#616=ORIENTED_EDGE('',*,*,#478,.T.);
#617=ORIENTED_EDGE('',*,*,#479,.T.);
#618=ORIENTED_EDGE('',*,*,#480,.T.);
#619=ORIENTED_EDGE('',*,*,#481,.F.);
#620=ORIENTED_EDGE('',*,*,#482,.T.);
#621=ORIENTED_EDGE('',*,*,#478,.F.);
#622=ORIENTED_EDGE('',*,*,#483,.F.);
#623=ORIENTED_EDGE('',*,*,#484,.F.);
#624=ORIENTED_EDGE('',*,*,#485,.F.);
#625=ORIENTED_EDGE('',*,*,#486,.F.);
#626=ORIENTED_EDGE('',*,*,#487,.F.);
#627=ORIENTED_EDGE('',*,*,#488,.T.);
#628=ORIENTED_EDGE('',*,*,#489,.T.);
#629=ORIENTED_EDGE('',*,*,#485,.T.);
#630=ORIENTED_EDGE('',*,*,#490,.F.);
#631=ORIENTED_EDGE('',*,*,#491,.T.);
#632=ORIENTED_EDGE('',*,*,#482,.F.);
#633=ORIENTED_EDGE('',*,*,#492,.F.);
#634=ORIENTED_EDGE('',*,*,#493,.F.);
#635=ORIENTED_EDGE('',*,*,#491,.F.);
#636=ORIENTED_EDGE('',*,*,#494,.F.);
#637=ORIENTED_EDGE('',*,*,#488,.F.);
#638=ORIENTED_EDGE('',*,*,#495,.F.);
#639=ORIENTED_EDGE('',*,*,#496,.T.);
#640=ORIENTED_EDGE('',*,*,#497,.F.);
#641=ORIENTED_EDGE('',*,*,#496,.F.);
#642=ORIENTED_EDGE('',*,*,#498,.F.);
#643=ORIENTED_EDGE('',*,*,#499,.F.);
#644=ORIENTED_EDGE('',*,*,#500,.F.);
#645=ORIENTED_EDGE('',*,*,#501,.F.);
#646=ORIENTED_EDGE('',*,*,#502,.F.);
#647=ORIENTED_EDGE('',*,*,#502,.T.);
#648=ORIENTED_EDGE('',*,*,#503,.T.);
#649=ORIENTED_EDGE('',*,*,#504,.F.);
#650=ORIENTED_EDGE('',*,*,#503,.F.);
#651=ORIENTED_EDGE('',*,*,#481,.T.);
#652=ORIENTED_EDGE('',*,*,#505,.T.);
#653=ORIENTED_EDGE('',*,*,#499,.T.);
#654=ORIENTED_EDGE('',*,*,#506,.T.);
#655=ORIENTED_EDGE('',*,*,#492,.T.);
#656=ORIENTED_EDGE('',*,*,#487,.T.);
#657=ORIENTED_EDGE('',*,*,#493,.T.);
#658=ORIENTED_EDGE('',*,*,#506,.F.);
#659=ORIENTED_EDGE('',*,*,#498,.T.);
#660=ORIENTED_EDGE('',*,*,#495,.T.);
#661=ORIENTED_EDGE('',*,*,#480,.F.);
#662=ORIENTED_EDGE('',*,*,#507,.F.);
#663=ORIENTED_EDGE('',*,*,#500,.T.);
#664=ORIENTED_EDGE('',*,*,#505,.F.);
#665=ORIENTED_EDGE('',*,*,#508,.F.);
#666=ORIENTED_EDGE('',*,*,#509,.F.);
#667=ORIENTED_EDGE('',*,*,#510,.T.);
#668=ORIENTED_EDGE('',*,*,#511,.F.);
#669=ORIENTED_EDGE('',*,*,#507,.T.);
#670=ORIENTED_EDGE('',*,*,#479,.F.);
#671=ORIENTED_EDGE('',*,*,#486,.T.);
#672=ORIENTED_EDGE('',*,*,#489,.F.);
#673=ORIENTED_EDGE('',*,*,#497,.T.);
#674=ORIENTED_EDGE('',*,*,#501,.T.);
#675=ORIENTED_EDGE('',*,*,#512,.T.);
#676=ORIENTED_EDGE('',*,*,#513,.T.);
#677=ORIENTED_EDGE('',*,*,#483,.T.);
#678=ORIENTED_EDGE('',*,*,#477,.T.);
#679=ORIENTED_EDGE('',*,*,#494,.T.);
#680=ORIENTED_EDGE('',*,*,#490,.T.);
#681=ORIENTED_EDGE('',*,*,#484,.T.);
#682=ORIENTED_EDGE('',*,*,#513,.F.);
#683=ORIENTED_EDGE('',*,*,#514,.F.);
#684=ORIENTED_EDGE('',*,*,#508,.T.);
#685=ORIENTED_EDGE('',*,*,#515,.F.);
#686=ORIENTED_EDGE('',*,*,#516,.F.);
#687=ORIENTED_EDGE('',*,*,#517,.F.);
#688=ORIENTED_EDGE('',*,*,#516,.T.);
#689=ORIENTED_EDGE('',*,*,#518,.F.);
#690=ORIENTED_EDGE('',*,*,#519,.F.);
#691=ORIENTED_EDGE('',*,*,#520,.F.);
#692=ORIENTED_EDGE('',*,*,#519,.T.);
#693=ORIENTED_EDGE('',*,*,#521,.F.);
#694=ORIENTED_EDGE('',*,*,#510,.F.);
#695=ORIENTED_EDGE('',*,*,#509,.T.);
#696=ORIENTED_EDGE('',*,*,#514,.T.);
#697=ORIENTED_EDGE('',*,*,#517,.T.);
#698=ORIENTED_EDGE('',*,*,#520,.T.);
#699=ORIENTED_EDGE('',*,*,#512,.F.);
#700=ORIENTED_EDGE('',*,*,#522,.F.);
#701=ORIENTED_EDGE('',*,*,#523,.T.);
#702=ORIENTED_EDGE('',*,*,#524,.F.);
#703=ORIENTED_EDGE('',*,*,#525,.T.);
#704=ORIENTED_EDGE('',*,*,#526,.F.);
#705=ORIENTED_EDGE('',*,*,#527,.F.);
#706=ORIENTED_EDGE('',*,*,#528,.F.);
#707=ORIENTED_EDGE('',*,*,#529,.F.);
#708=ORIENTED_EDGE('',*,*,#530,.T.);
#709=ORIENTED_EDGE('',*,*,#531,.T.);
#710=ORIENTED_EDGE('',*,*,#532,.T.);
#711=ORIENTED_EDGE('',*,*,#533,.T.);
#712=ORIENTED_EDGE('',*,*,#511,.T.);
#713=ORIENTED_EDGE('',*,*,#521,.T.);
#714=ORIENTED_EDGE('',*,*,#518,.T.);
#715=ORIENTED_EDGE('',*,*,#515,.T.);
#716=ORIENTED_EDGE('',*,*,#504,.T.);
#717=ORIENTED_EDGE('',*,*,#534,.F.);
#718=ORIENTED_EDGE('',*,*,#535,.T.);
#719=ORIENTED_EDGE('',*,*,#536,.T.);
#720=ORIENTED_EDGE('',*,*,#537,.T.);
#721=ORIENTED_EDGE('',*,*,#538,.F.);
#722=ORIENTED_EDGE('',*,*,#539,.T.);
#723=ORIENTED_EDGE('',*,*,#535,.F.);
#724=ORIENTED_EDGE('',*,*,#540,.F.);
#725=ORIENTED_EDGE('',*,*,#541,.F.);
#726=ORIENTED_EDGE('',*,*,#542,.F.);
#727=ORIENTED_EDGE('',*,*,#543,.F.);
#728=ORIENTED_EDGE('',*,*,#544,.F.);
#729=ORIENTED_EDGE('',*,*,#545,.T.);
#730=ORIENTED_EDGE('',*,*,#546,.T.);
#731=ORIENTED_EDGE('',*,*,#542,.T.);
#732=ORIENTED_EDGE('',*,*,#547,.F.);
#733=ORIENTED_EDGE('',*,*,#548,.T.);
#734=ORIENTED_EDGE('',*,*,#539,.F.);
#735=ORIENTED_EDGE('',*,*,#549,.F.);
#736=ORIENTED_EDGE('',*,*,#550,.F.);
#737=ORIENTED_EDGE('',*,*,#548,.F.);
#738=ORIENTED_EDGE('',*,*,#551,.F.);
#739=ORIENTED_EDGE('',*,*,#545,.F.);
#740=ORIENTED_EDGE('',*,*,#552,.F.);
#741=ORIENTED_EDGE('',*,*,#553,.T.);
#742=ORIENTED_EDGE('',*,*,#554,.F.);
#743=ORIENTED_EDGE('',*,*,#553,.F.);
#744=ORIENTED_EDGE('',*,*,#555,.F.);
#745=ORIENTED_EDGE('',*,*,#556,.F.);
#746=ORIENTED_EDGE('',*,*,#557,.F.);
#747=ORIENTED_EDGE('',*,*,#558,.F.);
#748=ORIENTED_EDGE('',*,*,#559,.F.);
#749=ORIENTED_EDGE('',*,*,#559,.T.);
#750=ORIENTED_EDGE('',*,*,#560,.T.);
#751=ORIENTED_EDGE('',*,*,#561,.F.);
#752=ORIENTED_EDGE('',*,*,#560,.F.);
#753=ORIENTED_EDGE('',*,*,#538,.T.);
#754=ORIENTED_EDGE('',*,*,#562,.T.);
#755=ORIENTED_EDGE('',*,*,#556,.T.);
#756=ORIENTED_EDGE('',*,*,#563,.T.);
#757=ORIENTED_EDGE('',*,*,#549,.T.);
#758=ORIENTED_EDGE('',*,*,#544,.T.);
#759=ORIENTED_EDGE('',*,*,#550,.T.);
#760=ORIENTED_EDGE('',*,*,#563,.F.);
#761=ORIENTED_EDGE('',*,*,#555,.T.);
#762=ORIENTED_EDGE('',*,*,#552,.T.);
#763=ORIENTED_EDGE('',*,*,#537,.F.);
#764=ORIENTED_EDGE('',*,*,#564,.F.);
#765=ORIENTED_EDGE('',*,*,#557,.T.);
#766=ORIENTED_EDGE('',*,*,#562,.F.);
#767=ORIENTED_EDGE('',*,*,#565,.F.);
#768=ORIENTED_EDGE('',*,*,#566,.F.);
#769=ORIENTED_EDGE('',*,*,#567,.T.);
#770=ORIENTED_EDGE('',*,*,#530,.F.);
#771=ORIENTED_EDGE('',*,*,#564,.T.);
#772=ORIENTED_EDGE('',*,*,#536,.F.);
#773=ORIENTED_EDGE('',*,*,#543,.T.);
#774=ORIENTED_EDGE('',*,*,#546,.F.);
#775=ORIENTED_EDGE('',*,*,#554,.T.);
#776=ORIENTED_EDGE('',*,*,#558,.T.);
#777=ORIENTED_EDGE('',*,*,#568,.T.);
#778=ORIENTED_EDGE('',*,*,#569,.T.);
#779=ORIENTED_EDGE('',*,*,#540,.T.);
#780=ORIENTED_EDGE('',*,*,#534,.T.);
#781=ORIENTED_EDGE('',*,*,#551,.T.);
#782=ORIENTED_EDGE('',*,*,#547,.T.);
#783=ORIENTED_EDGE('',*,*,#541,.T.);
#784=ORIENTED_EDGE('',*,*,#569,.F.);
#785=ORIENTED_EDGE('',*,*,#570,.F.);
#786=ORIENTED_EDGE('',*,*,#565,.T.);
#787=ORIENTED_EDGE('',*,*,#533,.F.);
#788=ORIENTED_EDGE('',*,*,#571,.F.);
#789=ORIENTED_EDGE('',*,*,#572,.F.);
#790=ORIENTED_EDGE('',*,*,#571,.T.);
#791=ORIENTED_EDGE('',*,*,#532,.F.);
#792=ORIENTED_EDGE('',*,*,#573,.F.);
#793=ORIENTED_EDGE('',*,*,#574,.F.);
#794=ORIENTED_EDGE('',*,*,#573,.T.);
#795=ORIENTED_EDGE('',*,*,#531,.F.);
#796=ORIENTED_EDGE('',*,*,#567,.F.);
#797=ORIENTED_EDGE('',*,*,#566,.T.);
#798=ORIENTED_EDGE('',*,*,#570,.T.);
#799=ORIENTED_EDGE('',*,*,#572,.T.);
#800=ORIENTED_EDGE('',*,*,#574,.T.);
#801=ORIENTED_EDGE('',*,*,#568,.F.);
#802=ORIENTED_EDGE('',*,*,#575,.T.);
#803=ORIENTED_EDGE('',*,*,#576,.T.);
#804=ORIENTED_EDGE('',*,*,#577,.T.);
#805=ORIENTED_EDGE('',*,*,#578,.T.);
#806=ORIENTED_EDGE('',*,*,#578,.F.);
#807=ORIENTED_EDGE('',*,*,#579,.T.);
#808=ORIENTED_EDGE('',*,*,#580,.F.);
#809=ORIENTED_EDGE('',*,*,#581,.T.);
#810=ORIENTED_EDGE('',*,*,#577,.F.);
#811=ORIENTED_EDGE('',*,*,#582,.T.);
#812=ORIENTED_EDGE('',*,*,#583,.F.);
#813=ORIENTED_EDGE('',*,*,#584,.T.);
#814=ORIENTED_EDGE('',*,*,#585,.F.);
#815=ORIENTED_EDGE('',*,*,#586,.F.);
#816=ORIENTED_EDGE('',*,*,#587,.F.);
#817=ORIENTED_EDGE('',*,*,#579,.F.);
#818=ORIENTED_EDGE('',*,*,#588,.T.);
#819=ORIENTED_EDGE('',*,*,#589,.F.);
#820=ORIENTED_EDGE('',*,*,#590,.F.);
#821=ORIENTED_EDGE('',*,*,#591,.F.);
#822=ORIENTED_EDGE('',*,*,#592,.F.);
#823=ORIENTED_EDGE('',*,*,#593,.F.);
#824=ORIENTED_EDGE('',*,*,#594,.T.);
#825=ORIENTED_EDGE('',*,*,#595,.F.);
#826=ORIENTED_EDGE('',*,*,#587,.T.);
#827=ORIENTED_EDGE('',*,*,#596,.T.);
#828=ORIENTED_EDGE('',*,*,#597,.T.);
#829=ORIENTED_EDGE('',*,*,#580,.T.);
#830=ORIENTED_EDGE('',*,*,#596,.F.);
#831=ORIENTED_EDGE('',*,*,#586,.T.);
#832=ORIENTED_EDGE('',*,*,#598,.F.);
#833=ORIENTED_EDGE('',*,*,#599,.T.);
#834=ORIENTED_EDGE('',*,*,#585,.T.);
#835=ORIENTED_EDGE('',*,*,#600,.T.);
#836=ORIENTED_EDGE('',*,*,#601,.T.);
#837=ORIENTED_EDGE('',*,*,#598,.T.);
#838=ORIENTED_EDGE('',*,*,#600,.F.);
#839=ORIENTED_EDGE('',*,*,#584,.F.);
#840=ORIENTED_EDGE('',*,*,#602,.F.);
#841=ORIENTED_EDGE('',*,*,#603,.T.);
#842=ORIENTED_EDGE('',*,*,#604,.T.);
#843=ORIENTED_EDGE('',*,*,#602,.T.);
#844=ORIENTED_EDGE('',*,*,#583,.T.);
#845=ORIENTED_EDGE('',*,*,#605,.T.);
#846=ORIENTED_EDGE('',*,*,#522,.T.);
#847=ORIENTED_EDGE('',*,*,#606,.T.);
#848=ORIENTED_EDGE('',*,*,#593,.T.);
#849=ORIENTED_EDGE('',*,*,#607,.T.);
#850=ORIENTED_EDGE('',*,*,#606,.F.);
#851=ORIENTED_EDGE('',*,*,#529,.T.);
#852=ORIENTED_EDGE('',*,*,#608,.F.);
#853=ORIENTED_EDGE('',*,*,#594,.F.);
#854=ORIENTED_EDGE('',*,*,#561,.T.);
#855=ORIENTED_EDGE('',*,*,#528,.T.);
#856=ORIENTED_EDGE('',*,*,#609,.T.);
#857=ORIENTED_EDGE('',*,*,#595,.T.);
#858=ORIENTED_EDGE('',*,*,#608,.T.);
#859=ORIENTED_EDGE('',*,*,#609,.F.);
#860=ORIENTED_EDGE('',*,*,#527,.T.);
#861=ORIENTED_EDGE('',*,*,#610,.F.);
#862=ORIENTED_EDGE('',*,*,#588,.F.);
#863=ORIENTED_EDGE('',*,*,#526,.T.);
#864=ORIENTED_EDGE('',*,*,#611,.T.);
#865=ORIENTED_EDGE('',*,*,#589,.T.);
#866=ORIENTED_EDGE('',*,*,#610,.T.);
#867=ORIENTED_EDGE('',*,*,#611,.F.);
#868=ORIENTED_EDGE('',*,*,#525,.F.);
#869=ORIENTED_EDGE('',*,*,#612,.F.);
#870=ORIENTED_EDGE('',*,*,#590,.T.);
#871=ORIENTED_EDGE('',*,*,#524,.T.);
#872=ORIENTED_EDGE('',*,*,#613,.T.);
#873=ORIENTED_EDGE('',*,*,#591,.T.);
#874=ORIENTED_EDGE('',*,*,#612,.T.);
#875=ORIENTED_EDGE('',*,*,#576,.F.);
#876=ORIENTED_EDGE('',*,*,#614,.F.);
#877=ORIENTED_EDGE('',*,*,#605,.F.);
#878=ORIENTED_EDGE('',*,*,#582,.F.);
#879=ORIENTED_EDGE('',*,*,#607,.F.);
#880=ORIENTED_EDGE('',*,*,#592,.T.);
#881=ORIENTED_EDGE('',*,*,#613,.F.);
#882=ORIENTED_EDGE('',*,*,#523,.F.);
#883=ORIENTED_EDGE('',*,*,#575,.F.);
#884=ORIENTED_EDGE('',*,*,#581,.F.);
#885=ORIENTED_EDGE('',*,*,#597,.F.);
#886=ORIENTED_EDGE('',*,*,#599,.F.);
#887=ORIENTED_EDGE('',*,*,#601,.F.);
#888=ORIENTED_EDGE('',*,*,#603,.F.);
#889=ORIENTED_EDGE('',*,*,#604,.F.);
#890=ORIENTED_EDGE('',*,*,#614,.T.);
#891=PLANE('',#997);
#892=PLANE('',#1000);
#893=PLANE('',#1004);
#894=PLANE('',#1007);
#895=PLANE('',#1009);
#896=PLANE('',#1010);
#897=PLANE('',#1015);
#898=PLANE('',#1016);
#899=PLANE('',#1017);
#900=PLANE('',#1023);
#901=PLANE('',#1024);
#902=PLANE('',#1025);
#903=PLANE('',#1026);
#904=PLANE('',#1027);
#905=PLANE('',#1033);
#906=PLANE('',#1034);
#907=PLANE('',#1037);
#908=PLANE('',#1041);
#909=PLANE('',#1044);
#910=PLANE('',#1046);
#911=PLANE('',#1047);
#912=PLANE('',#1052);
#913=PLANE('',#1053);
#914=PLANE('',#1054);
#915=PLANE('',#1059);
#916=PLANE('',#1060);
#917=PLANE('',#1061);
#918=PLANE('',#1062);
#919=PLANE('',#1066);
#920=PLANE('',#1067);
#921=PLANE('',#1077);
#922=PLANE('',#1080);
#923=PLANE('',#1084);
#924=PLANE('',#1085);
#925=PLANE('',#1087);
#926=PLANE('',#1089);
#927=PLANE('',#1091);
#928=PLANE('',#1092);
#929=PLANE('',#1093);
#930=ADVANCED_FACE('',(#74),#891,.T.);
#931=ADVANCED_FACE('',(#75),#892,.T.);
#932=ADVANCED_FACE('',(#76),#893,.T.);
#933=ADVANCED_FACE('',(#77),#894,.T.);
#934=ADVANCED_FACE('',(#78),#895,.F.);
#935=ADVANCED_FACE('',(#79,#29),#896,.F.);
#936=ADVANCED_FACE('',(#80),#15,.F.);
#937=ADVANCED_FACE('',(#81),#897,.F.);
#938=ADVANCED_FACE('',(#82),#898,.F.);
#939=ADVANCED_FACE('',(#83),#899,.F.);
#940=ADVANCED_FACE('',(#84,#30),#16,.T.);
#941=ADVANCED_FACE('',(#85),#17,.F.);
#942=ADVANCED_FACE('',(#86),#900,.T.);
#943=ADVANCED_FACE('',(#87),#901,.T.);
#944=ADVANCED_FACE('',(#88),#902,.T.);
#945=ADVANCED_FACE('',(#89,#31),#903,.T.);
#946=ADVANCED_FACE('',(#90,#32,#33),#904,.T.);
#947=ADVANCED_FACE('',(#91),#905,.T.);
#948=ADVANCED_FACE('',(#92),#906,.T.);
#949=ADVANCED_FACE('',(#93),#907,.T.);
#950=ADVANCED_FACE('',(#94),#908,.T.);
#951=ADVANCED_FACE('',(#95),#909,.T.);
#952=ADVANCED_FACE('',(#96),#910,.F.);
#953=ADVANCED_FACE('',(#97,#34),#911,.F.);
#954=ADVANCED_FACE('',(#98),#18,.F.);
#955=ADVANCED_FACE('',(#99),#912,.F.);
#956=ADVANCED_FACE('',(#100),#913,.F.);
#957=ADVANCED_FACE('',(#101),#914,.F.);
#958=ADVANCED_FACE('',(#102,#35),#19,.T.);
#959=ADVANCED_FACE('',(#103),#20,.F.);
#960=ADVANCED_FACE('',(#104),#915,.T.);
#961=ADVANCED_FACE('',(#105),#916,.T.);
#962=ADVANCED_FACE('',(#106),#917,.T.);
#963=ADVANCED_FACE('',(#107,#36),#918,.T.);
#964=ADVANCED_FACE('',(#108),#21,.T.);
#965=ADVANCED_FACE('',(#109),#919,.T.);
#966=ADVANCED_FACE('',(#110,#37),#920,.T.);
#967=ADVANCED_FACE('',(#111),#22,.T.);
#968=ADVANCED_FACE('',(#112),#921,.F.);
#969=ADVANCED_FACE('',(#113),#23,.T.);
#970=ADVANCED_FACE('',(#114),#922,.T.);
#971=ADVANCED_FACE('',(#115),#24,.T.);
#972=ADVANCED_FACE('',(#116),#25,.T.);
#973=ADVANCED_FACE('',(#117),#923,.T.);
#974=ADVANCED_FACE('',(#118),#924,.T.);
#975=ADVANCED_FACE('',(#119),#26,.T.);
#976=ADVANCED_FACE('',(#120),#925,.T.);
#977=ADVANCED_FACE('',(#121),#27,.T.);
#978=ADVANCED_FACE('',(#122),#926,.T.);
#979=ADVANCED_FACE('',(#123),#28,.T.);
#980=ADVANCED_FACE('',(#124),#927,.T.);
#981=ADVANCED_FACE('',(#125),#928,.F.);
#982=ADVANCED_FACE('',(#126),#929,.F.);
#983=CLOSED_SHELL('',(#930,#931,#932,#933,#934,#935,#936,#937,#938,#939,
#940,#941,#942,#943,#944,#945,#946,#947,#948,#949,#950,#951,#952,#953,#954,
#955,#956,#957,#958,#959,#960,#961,#962,#963,#964,#965,#966,#967,#968,#969,
#970,#971,#972,#973,#974,#975,#976,#977,#978,#979,#980,#981,#982));
#984=DERIVED_UNIT_ELEMENT(#986,1.);
#985=DERIVED_UNIT_ELEMENT(#1673,-3.);
#986=(
MASS_UNIT()
NAMED_UNIT(*)
SI_UNIT(.KILO.,.GRAM.)
);
#987=DERIVED_UNIT((#984,#985));
#988=MEASURE_REPRESENTATION_ITEM('density measure',
POSITIVE_RATIO_MEASURE(7850.),#987);
#989=PROPERTY_DEFINITION_REPRESENTATION(#994,#991);
#990=PROPERTY_DEFINITION_REPRESENTATION(#995,#992);
#991=REPRESENTATION('material name',(#993),#1670);
#992=REPRESENTATION('density',(#988),#1670);
#993=DESCRIPTIVE_REPRESENTATION_ITEM('Stahl','Stahl');
#994=PROPERTY_DEFINITION('material property','material name',#1680);
#995=PROPERTY_DEFINITION('material property','density of part',#1680);
#996=AXIS2_PLACEMENT_3D('',#1384,#1094,#1095);
#997=AXIS2_PLACEMENT_3D('',#1385,#1096,#1097);
#998=AXIS2_PLACEMENT_3D('',#1388,#1098,#1099);
#999=AXIS2_PLACEMENT_3D('',#1392,#1101,#1102);
#1000=AXIS2_PLACEMENT_3D('',#1398,#1106,#1107);
#1001=AXIS2_PLACEMENT_3D('',#1400,#1108,#1109);
#1002=AXIS2_PLACEMENT_3D('',#1402,#1110,#1111);
#1003=AXIS2_PLACEMENT_3D('',#1405,#1113,#1114);
#1004=AXIS2_PLACEMENT_3D('',#1406,#1115,#1116);
#1005=AXIS2_PLACEMENT_3D('',#1412,#1119,#1120);
#1006=AXIS2_PLACEMENT_3D('',#1414,#1121,#1122);
#1007=AXIS2_PLACEMENT_3D('',#1416,#1124,#1125);
#1008=AXIS2_PLACEMENT_3D('',#1420,#1128,#1129);
#1009=AXIS2_PLACEMENT_3D('',#1421,#1130,#1131);
#1010=AXIS2_PLACEMENT_3D('',#1427,#1135,#1136);
#1011=AXIS2_PLACEMENT_3D('',#1434,#1140,#1141);
#1012=AXIS2_PLACEMENT_3D('',#1436,#1142,#1143);
#1013=AXIS2_PLACEMENT_3D('',#1437,#1144,#1145);
#1014=AXIS2_PLACEMENT_3D('',#1440,#1147,#1148);
#1015=AXIS2_PLACEMENT_3D('',#1441,#1149,#1150);
#1016=AXIS2_PLACEMENT_3D('',#1444,#1153,#1154);
#1017=AXIS2_PLACEMENT_3D('',#1445,#1155,#1156);
#1018=AXIS2_PLACEMENT_3D('',#1447,#1158,#1159);
#1019=AXIS2_PLACEMENT_3D('',#1452,#1161,#1162);
#1020=AXIS2_PLACEMENT_3D('',#1455,#1164,#1165);
#1021=AXIS2_PLACEMENT_3D('',#1456,#1166,#1167);
#1022=AXIS2_PLACEMENT_3D('',#1458,#1168,#1169);
#1023=AXIS2_PLACEMENT_3D('',#1460,#1171,#1172);
#1024=AXIS2_PLACEMENT_3D('',#1466,#1176,#1177);
#1025=AXIS2_PLACEMENT_3D('',#1472,#1181,#1182);
#1026=AXIS2_PLACEMENT_3D('',#1475,#1185,#1186);
#1027=AXIS2_PLACEMENT_3D('',#1476,#1187,#1188);
#1028=AXIS2_PLACEMENT_3D('',#1479,#1189,#1190);
#1029=AXIS2_PLACEMENT_3D('',#1483,#1192,#1193);
#1030=AXIS2_PLACEMENT_3D('',#1487,#1195,#1196);
#1031=AXIS2_PLACEMENT_3D('',#1491,#1198,#1199);
#1032=AXIS2_PLACEMENT_3D('',#1495,#1201,#1202);
#1033=AXIS2_PLACEMENT_3D('',#1501,#1206,#1207);
#1034=AXIS2_PLACEMENT_3D('',#1502,#1208,#1209);
#1035=AXIS2_PLACEMENT_3D('',#1505,#1210,#1211);
#1036=AXIS2_PLACEMENT_3D('',#1509,#1213,#1214);
#1037=AXIS2_PLACEMENT_3D('',#1515,#1218,#1219);
#1038=AXIS2_PLACEMENT_3D('',#1517,#1220,#1221);
#1039=AXIS2_PLACEMENT_3D('',#1519,#1222,#1223);
#1040=AXIS2_PLACEMENT_3D('',#1522,#1225,#1226);
#1041=AXIS2_PLACEMENT_3D('',#1523,#1227,#1228);
#1042=AXIS2_PLACEMENT_3D('',#1529,#1231,#1232);
#1043=AXIS2_PLACEMENT_3D('',#1531,#1233,#1234);
#1044=AXIS2_PLACEMENT_3D('',#1533,#1236,#1237);
#1045=AXIS2_PLACEMENT_3D('',#1537,#1240,#1241);
#1046=AXIS2_PLACEMENT_3D('',#1538,#1242,#1243);
#1047=AXIS2_PLACEMENT_3D('',#1544,#1247,#1248);
#1048=AXIS2_PLACEMENT_3D('',#1551,#1252,#1253);
#1049=AXIS2_PLACEMENT_3D('',#1553,#1254,#1255);
#1050=AXIS2_PLACEMENT_3D('',#1554,#1256,#1257);
#1051=AXIS2_PLACEMENT_3D('',#1557,#1259,#1260);
#1052=AXIS2_PLACEMENT_3D('',#1558,#1261,#1262);
#1053=AXIS2_PLACEMENT_3D('',#1561,#1265,#1266);
#1054=AXIS2_PLACEMENT_3D('',#1562,#1267,#1268);
#1055=AXIS2_PLACEMENT_3D('',#1564,#1270,#1271);
#1056=AXIS2_PLACEMENT_3D('',#1568,#1273,#1274);
#1057=AXIS2_PLACEMENT_3D('',#1570,#1276,#1277);
#1058=AXIS2_PLACEMENT_3D('',#1572,#1278,#1279);
#1059=AXIS2_PLACEMENT_3D('',#1574,#1281,#1282);
#1060=AXIS2_PLACEMENT_3D('',#1578,#1285,#1286);
#1061=AXIS2_PLACEMENT_3D('',#1582,#1289,#1290);
#1062=AXIS2_PLACEMENT_3D('',#1584,#1292,#1293);
#1063=AXIS2_PLACEMENT_3D('',#1585,#1294,#1295);
#1064=AXIS2_PLACEMENT_3D('',#1588,#1296,#1297);
#1065=AXIS2_PLACEMENT_3D('',#1592,#1299,#1300);
#1066=AXIS2_PLACEMENT_3D('',#1594,#1302,#1303);
#1067=AXIS2_PLACEMENT_3D('',#1600,#1307,#1308);
#1068=AXIS2_PLACEMENT_3D('',#1604,#1310,#1311);
#1069=AXIS2_PLACEMENT_3D('',#1608,#1313,#1314);
#1070=AXIS2_PLACEMENT_3D('',#1611,#1316,#1317);
#1071=AXIS2_PLACEMENT_3D('',#1616,#1319,#1320);
#1072=AXIS2_PLACEMENT_3D('',#1620,#1322,#1323);
#1073=AXIS2_PLACEMENT_3D('',#1624,#1325,#1326);
#1074=AXIS2_PLACEMENT_3D('',#1627,#1328,#1329);
#1075=AXIS2_PLACEMENT_3D('',#1628,#1330,#1331);
#1076=AXIS2_PLACEMENT_3D('',#1631,#1333,#1334);
#1077=AXIS2_PLACEMENT_3D('',#1632,#1335,#1336);
#1078=AXIS2_PLACEMENT_3D('',#1636,#1339,#1340);
#1079=AXIS2_PLACEMENT_3D('',#1639,#1342,#1343);
#1080=AXIS2_PLACEMENT_3D('',#1640,#1344,#1345);
#1081=AXIS2_PLACEMENT_3D('',#1644,#1348,#1349);
#1082=AXIS2_PLACEMENT_3D('',#1646,#1350,#1351);
#1083=AXIS2_PLACEMENT_3D('',#1648,#1353,#1354);
#1084=AXIS2_PLACEMENT_3D('',#1651,#1357,#1358);
#1085=AXIS2_PLACEMENT_3D('',#1653,#1360,#1361);
#1086=AXIS2_PLACEMENT_3D('',#1654,#1362,#1363);
#1087=AXIS2_PLACEMENT_3D('',#1656,#1365,#1366);
#1088=AXIS2_PLACEMENT_3D('',#1658,#1368,#1369);
#1089=AXIS2_PLACEMENT_3D('',#1660,#1371,#1372);
#1090=AXIS2_PLACEMENT_3D('',#1662,#1374,#1375);
#1091=AXIS2_PLACEMENT_3D('',#1664,#1377,#1378);
#1092=AXIS2_PLACEMENT_3D('',#1666,#1380,#1381);
#1093=AXIS2_PLACEMENT_3D('',#1667,#1382,#1383);
#1094=DIRECTION('axis',(0.,0.,1.));
#1095=DIRECTION('refdir',(1.,0.,0.));
#1096=DIRECTION('center_axis',(-0.392230489025343,0.707106781183304,0.588349592915239));
#1097=DIRECTION('ref_axis',(-0.442830800662628,0.415460968226915,-0.794539530712254));
#1098=DIRECTION('center_axis',(0.392230489025343,-0.707106781183304,-0.588349592915239));
#1099=DIRECTION('ref_axis',(0.392232270275467,0.707106781188171,-0.588348405413202));
#1100=DIRECTION('',(-0.832050294334031,3.0275445809856E-6,-0.554700196222687));
#1101=DIRECTION('center_axis',(-0.392230489025343,0.707106781183304,0.588349592915239));
#1102=DIRECTION('ref_axis',(0.392234051527392,0.70710678118331,-0.588347217913866));
#1103=DIRECTION('',(0.832050294334031,-3.0275445809856E-6,0.554700196222687));
#1104=DIRECTION('',(-0.677623619734418,-0.654652526400687,0.335046712646495));
#1105=DIRECTION('',(-0.832050294334031,3.0275445809856E-6,-0.554700196222687));
#1106=DIRECTION('center_axis',(-0.554700196225229,-4.6188069721001E-17,
0.832050294337844));
#1107=DIRECTION('ref_axis',(-2.4980018054066E-16,-1.,-2.22044604925032E-16));
#1108=DIRECTION('center_axis',(-0.554700196225229,-4.6188069721001E-17,
0.832050294337844));
#1109=DIRECTION('ref_axis',(0.832050294337844,-3.31014499667171E-16,0.554700196225229));
#1110=DIRECTION('center_axis',(-0.554700196225229,-4.6188069721001E-17,
0.832050294337844));
#1111=DIRECTION('ref_axis',(0.832050294337844,-3.31014499667171E-16,0.554700196225229));
#1112=DIRECTION('',(0.832050294334031,-3.0275445809856E-6,0.554700196222687));
#1113=DIRECTION('center_axis',(0.554700196225229,4.6188069721001E-17,-0.832050294337844));
#1114=DIRECTION('ref_axis',(-0.588348405414553,0.707106781186547,-0.392232270276369));
#1115=DIRECTION('center_axis',(-0.392234051527396,-0.707106781183304,0.58834721791387));
#1116=DIRECTION('ref_axis',(0.442831702103371,0.415456914232846,0.794541148102697));
#1117=DIRECTION('',(0.677620321498412,-0.654654815009271,-0.335048911470499));
#1118=DIRECTION('',(-0.832050294334031,3.0275445809856E-6,-0.554700196222687));
#1119=DIRECTION('center_axis',(-0.392234051527396,-0.707106781183304,0.58834721791387));
#1120=DIRECTION('ref_axis',(-0.392230489025339,0.70710678118331,0.588349592915235));
#1121=DIRECTION('center_axis',(0.392234051527396,0.707106781183304,-0.58834721791387));
#1122=DIRECTION('ref_axis',(-0.392232270275467,0.707106781188171,0.588348405413202));
#1123=DIRECTION('',(0.832050294334031,-3.0275445809856E-6,0.554700196222687));
#1124=DIRECTION('center_axis',(-0.554700196225229,-4.6188069721001E-17,
0.832050294337844));
#1125=DIRECTION('ref_axis',(-2.4980018054066E-16,-1.,-2.22044604925032E-16));
#1126=DIRECTION('',(-0.416027328745074,-0.866023890008179,-0.277351552496716));
#1127=DIRECTION('',(0.416022965588956,-0.86602691755276,0.277348643725971));
#1128=DIRECTION('center_axis',(-0.554700196225229,-4.6188069721001E-17,
0.832050294337844));
#1129=DIRECTION('ref_axis',(0.832050294337844,-3.31014499667171E-16,0.554700196225229));
#1130=DIRECTION('center_axis',(2.5190693597044E-6,0.999999999995417,1.67937957319177E-6));
#1131=DIRECTION('ref_axis',(0.832050294334031,-3.02754458098561E-6,0.554700196222687));
#1132=DIRECTION('',(0.554700196225228,4.61880697210011E-17,-0.832050294337845));
#1133=DIRECTION('',(-0.83205029433403,3.0275445809856E-6,-0.554700196222687));
#1134=DIRECTION('',(-0.554700196225228,-4.61880697210009E-17,0.832050294337844));
#1135=DIRECTION('center_axis',(-0.554700196225229,-4.6188069721001E-17,
0.832050294337844));
#1136=DIRECTION('ref_axis',(-2.4980018054066E-16,-1.,-2.22044604925032E-16));
#1137=DIRECTION('',(-0.416022965588957,0.866026917552759,-0.277348643725971));
#1138=DIRECTION('',(0.416027328745074,0.866023890008179,0.277351552496716));
#1139=DIRECTION('',(0.83205029433403,-3.0275445809856E-6,0.554700196222687));
#1140=DIRECTION('center_axis',(-0.554700196225229,-4.6188069721001E-17,
0.832050294337844));
#1141=DIRECTION('ref_axis',(-0.588348405414553,0.707106781186547,-0.392232270276369));
#1142=DIRECTION('center_axis',(0.554700196225229,4.6188069721001E-17,-0.832050294337844));
#1143=DIRECTION('ref_axis',(-2.4980018054066E-16,-1.,-2.22044604925031E-16));
#1144=DIRECTION('center_axis',(-0.554700196225228,-4.61880697210011E-17,
0.832050294337845));
#1145=DIRECTION('ref_axis',(-2.4980018054066E-16,-1.,-2.22044604925031E-16));
#1146=DIRECTION('',(-0.554700196225228,-4.61880697210011E-17,0.832050294337844));
#1147=DIRECTION('center_axis',(0.554700196225229,1.55802482029677E-17,-0.832050294337844));
#1148=DIRECTION('ref_axis',(-2.6677834514274E-16,-1.,-1.96577358021912E-16));
#1149=DIRECTION('center_axis',(0.720575432584911,-0.500002621928226,0.480383621723272));
#1150=DIRECTION('ref_axis',(-0.416027328745074,-0.86602389000818,-0.277351552496716));
#1151=DIRECTION('',(-0.554700196225226,-4.61880697210019E-17,0.832050294337846));
#1152=DIRECTION('',(0.554700196225228,4.61880697210011E-17,-0.832050294337845));
#1153=DIRECTION('center_axis',(0.72057795165427,0.499997378067191,0.480385301102845));
#1154=DIRECTION('ref_axis',(0.416022965588956,-0.86602691755276,0.277348643725971));
#1155=DIRECTION('center_axis',(-2.5190693597044E-6,-0.999999999995417,-1.67937957319177E-6));
#1156=DIRECTION('ref_axis',(-0.832050294334031,3.02754458098561E-6,-0.554700196222687));
#1157=DIRECTION('',(0.554700196225228,4.61880697210009E-17,-0.832050294337844));
#1158=DIRECTION('center_axis',(-0.554700196225228,-4.61880697210009E-17,
0.832050294337844));
#1159=DIRECTION('ref_axis',(-0.588348405414553,0.707106781186546,-0.392232270276368));
#1160=DIRECTION('',(-0.554700196225228,-4.61880697210009E-17,0.832050294337844));
#1161=DIRECTION('center_axis',(0.554700196225229,4.61880697210006E-17,-0.832050294337844));
#1162=DIRECTION('ref_axis',(-0.588348405414553,0.707106781186546,-0.392232270276369));
#1163=DIRECTION('',(-0.554700196225228,-4.61880697210009E-17,0.832050294337844));
#1164=DIRECTION('center_axis',(-0.554700196225229,-1.55802482029677E-17,
0.832050294337844));
#1165=DIRECTION('ref_axis',(-0.588348405414553,0.707106781186547,-0.392232270276369));
#1166=DIRECTION('center_axis',(-0.554700196225228,-4.61880697210009E-17,
0.832050294337844));
#1167=DIRECTION('ref_axis',(0.832050294337844,-3.31014499667171E-16,0.554700196225228));
#1168=DIRECTION('center_axis',(0.554700196225229,4.61880697210006E-17,-0.832050294337844));
#1169=DIRECTION('ref_axis',(0.832050294337844,-3.31014499667171E-16,0.554700196225229));
#1170=DIRECTION('',(-0.554700196225228,-4.61880697210009E-17,0.832050294337844));
#1171=DIRECTION('center_axis',(2.4980018054066E-16,1.,2.22044604925031E-16));
#1172=DIRECTION('ref_axis',(-0.832050294337844,3.31014499667171E-16,-0.554700196225229));
#1173=DIRECTION('',(0.832050294337844,-3.31014499667171E-16,0.554700196225229));
#1174=DIRECTION('',(-0.832050294337844,3.31014499667171E-16,-0.554700196225229));
#1175=DIRECTION('',(-0.554700196225228,-4.61880697210009E-17,0.832050294337844));
#1176=DIRECTION('center_axis',(0.832050294337844,-3.31014499667171E-16,
0.554700196225228));
#1177=DIRECTION('ref_axis',(2.4980018054066E-16,1.,2.22044604925031E-16));
#1178=DIRECTION('',(-2.4980018054066E-16,-1.,-2.22044604925031E-16));
#1179=DIRECTION('',(2.6677834514274E-16,1.,1.96577358021912E-16));
#1180=DIRECTION('',(-0.554700196225228,-4.61880697210009E-17,0.832050294337844));
#1181=DIRECTION('center_axis',(-2.4980018054066E-16,-1.,-2.22044604925031E-16));
#1182=DIRECTION('ref_axis',(0.832050294337844,-3.31014499667171E-16,0.554700196225229));
#1183=DIRECTION('',(-0.832050294337844,3.31014499667171E-16,-0.554700196225229));
#1184=DIRECTION('',(0.832050294337844,-3.31014499667171E-16,0.554700196225229));
#1185=DIRECTION('center_axis',(0.554700196225229,4.61880697210006E-17,-0.832050294337844));
#1186=DIRECTION('ref_axis',(-0.832050294337844,3.31014499667171E-16,-0.554700196225229));
#1187=DIRECTION('center_axis',(0.554700196225229,1.55802482029677E-17,-0.832050294337844));
#1188=DIRECTION('ref_axis',(-8.64236673542396E-18,1.,1.29635501031359E-17));
#1189=DIRECTION('center_axis',(-0.554700196225229,-1.55802482029677E-17,
0.832050294337844));
#1190=DIRECTION('ref_axis',(-0.509594777250388,0.790504137243279,-0.339729851500258));
#1191=DIRECTION('',(-0.805673559467998,0.249793581997476,-0.537115706311998));
#1192=DIRECTION('center_axis',(-0.554700196225229,-1.55802482029677E-17,
0.832050294337844));
#1193=DIRECTION('ref_axis',(0.657739200068553,0.612456699694975,0.438492800045702));
#1194=DIRECTION('',(-1.74331168885901E-16,1.,-9.74956513305153E-17));
#1195=DIRECTION('center_axis',(-0.554700196225229,-1.55802482029677E-17,
0.832050294337844));
#1196=DIRECTION('ref_axis',(0.657739200068553,-0.612456699694975,0.438492800045702));
#1197=DIRECTION('',(0.805673559467998,0.249793581997476,0.537115706311998));
#1198=DIRECTION('center_axis',(-0.554700196225229,-1.55802482029677E-17,
0.832050294337844));
#1199=DIRECTION('ref_axis',(-0.509594777250389,-0.790504137243278,-0.339729851500259));
#1200=DIRECTION('',(1.50615933482456E-16,-1.,8.16854943948852E-17));
#1201=DIRECTION('center_axis',(-0.554700196225229,-1.55802482029677E-17,
0.832050294337844));
#1202=DIRECTION('ref_axis',(-0.588348405414553,0.707106781186547,-0.392232270276369));
#1203=DIRECTION('',(0.832050294337844,-3.31014499667171E-16,0.554700196225229));
#1204=DIRECTION('',(2.6677834514274E-16,1.,1.96577358021912E-16));
#1205=DIRECTION('',(-0.832050294337844,3.31014499667171E-16,-0.554700196225229));
#1206=DIRECTION('center_axis',(0.554700196225229,1.55802482029677E-17,-0.832050294337844));
#1207=DIRECTION('ref_axis',(-8.64236673542396E-18,1.,1.29635501031359E-17));
#1208=DIRECTION('center_axis',(-0.392230489025343,0.707106781183304,0.588349592915239));
#1209=DIRECTION('ref_axis',(-0.442830800662628,0.415460968226915,-0.794539530712254));
#1210=DIRECTION('center_axis',(0.392230489025343,-0.707106781183304,-0.588349592915239));
#1211=DIRECTION('ref_axis',(0.392232270275467,0.707106781188171,-0.588348405413202));
#1212=DIRECTION('',(-0.832050294334031,3.0275445809856E-6,-0.554700196222687));
#1213=DIRECTION('center_axis',(-0.392230489025343,0.707106781183304,0.588349592915239));
#1214=DIRECTION('ref_axis',(0.392234051527392,0.70710678118331,-0.588347217913866));
#1215=DIRECTION('',(0.832050294334031,-3.0275445809856E-6,0.554700196222687));
#1216=DIRECTION('',(-0.677623619734418,-0.654652526400687,0.335046712646495));
#1217=DIRECTION('',(-0.832050294334031,3.0275445809856E-6,-0.554700196222687));
#1218=DIRECTION('center_axis',(-0.554700196225229,-4.6188069721001E-17,
0.832050294337844));
#1219=DIRECTION('ref_axis',(-2.4980018054066E-16,-1.,-2.22044604925032E-16));
#1220=DIRECTION('center_axis',(-0.554700196225229,-4.6188069721001E-17,
0.832050294337844));
#1221=DIRECTION('ref_axis',(0.832050294337844,-3.31014499667171E-16,0.554700196225229));
#1222=DIRECTION('center_axis',(-0.554700196225229,-4.6188069721001E-17,
0.832050294337844));
#1223=DIRECTION('ref_axis',(0.832050294337844,-3.31014499667171E-16,0.554700196225229));
#1224=DIRECTION('',(0.832050294334031,-3.0275445809856E-6,0.554700196222687));
#1225=DIRECTION('center_axis',(0.554700196225229,4.6188069721001E-17,-0.832050294337844));
#1226=DIRECTION('ref_axis',(-0.588348405414553,0.707106781186547,-0.392232270276369));
#1227=DIRECTION('center_axis',(-0.392234051527396,-0.707106781183304,0.58834721791387));
#1228=DIRECTION('ref_axis',(0.442831702103371,0.415456914232846,0.794541148102697));
#1229=DIRECTION('',(0.677620321498412,-0.654654815009271,-0.335048911470499));
#1230=DIRECTION('',(-0.832050294334031,3.0275445809856E-6,-0.554700196222687));
#1231=DIRECTION('center_axis',(-0.392234051527396,-0.707106781183304,0.58834721791387));
#1232=DIRECTION('ref_axis',(-0.392230489025339,0.70710678118331,0.588349592915235));
#1233=DIRECTION('center_axis',(0.392234051527396,0.707106781183304,-0.58834721791387));
#1234=DIRECTION('ref_axis',(-0.392232270275467,0.707106781188171,0.588348405413202));
#1235=DIRECTION('',(0.832050294334031,-3.0275445809856E-6,0.554700196222687));
#1236=DIRECTION('center_axis',(-0.554700196225229,-4.6188069721001E-17,
0.832050294337844));
#1237=DIRECTION('ref_axis',(-2.4980018054066E-16,-1.,-2.22044604925032E-16));
#1238=DIRECTION('',(-0.416027328745074,-0.866023890008179,-0.277351552496716));
#1239=DIRECTION('',(0.416022965588956,-0.86602691755276,0.277348643725971));
#1240=DIRECTION('center_axis',(-0.554700196225229,-4.6188069721001E-17,
0.832050294337844));
#1241=DIRECTION('ref_axis',(0.832050294337844,-3.31014499667171E-16,0.554700196225229));
#1242=DIRECTION('center_axis',(2.5190693597044E-6,0.999999999995417,1.67937957319177E-6));
#1243=DIRECTION('ref_axis',(0.832050294334031,-3.02754458098561E-6,0.554700196222687));
#1244=DIRECTION('',(0.554700196225228,4.61880697210011E-17,-0.832050294337845));
#1245=DIRECTION('',(-0.83205029433403,3.0275445809856E-6,-0.554700196222687));
#1246=DIRECTION('',(-0.554700196225228,-4.61880697210009E-17,0.832050294337844));
#1247=DIRECTION('center_axis',(-0.554700196225229,-4.6188069721001E-17,
0.832050294337844));
#1248=DIRECTION('ref_axis',(-2.4980018054066E-16,-1.,-2.22044604925032E-16));
#1249=DIRECTION('',(-0.416022965588957,0.866026917552759,-0.277348643725971));
#1250=DIRECTION('',(0.416027328745074,0.866023890008179,0.277351552496716));
#1251=DIRECTION('',(0.83205029433403,-3.0275445809856E-6,0.554700196222687));
#1252=DIRECTION('center_axis',(-0.554700196225229,-4.6188069721001E-17,
0.832050294337844));
#1253=DIRECTION('ref_axis',(-0.588348405414553,0.707106781186547,-0.392232270276369));
#1254=DIRECTION('center_axis',(0.554700196225229,4.6188069721001E-17,-0.832050294337844));
#1255=DIRECTION('ref_axis',(-2.4980018054066E-16,-1.,-2.22044604925031E-16));
#1256=DIRECTION('center_axis',(-0.554700196225228,-4.61880697210011E-17,
0.832050294337845));
#1257=DIRECTION('ref_axis',(-2.4980018054066E-16,-1.,-2.22044604925031E-16));
#1258=DIRECTION('',(-0.554700196225228,-4.61880697210011E-17,0.832050294337844));
#1259=DIRECTION('center_axis',(0.554700196225229,1.55802482029677E-17,-0.832050294337844));
#1260=DIRECTION('ref_axis',(-2.6677834514274E-16,-1.,-1.96577358021912E-16));
#1261=DIRECTION('center_axis',(0.720575432584911,-0.500002621928226,0.480383621723272));
#1262=DIRECTION('ref_axis',(-0.416027328745074,-0.86602389000818,-0.277351552496716));
#1263=DIRECTION('',(-0.554700196225226,-4.61880697210019E-17,0.832050294337846));
#1264=DIRECTION('',(0.554700196225228,4.61880697210011E-17,-0.832050294337845));
#1265=DIRECTION('center_axis',(0.72057795165427,0.499997378067191,0.480385301102845));
#1266=DIRECTION('ref_axis',(0.416022965588956,-0.86602691755276,0.277348643725971));
#1267=DIRECTION('center_axis',(-2.5190693597044E-6,-0.999999999995417,-1.67937957319177E-6));
#1268=DIRECTION('ref_axis',(-0.832050294334031,3.02754458098561E-6,-0.554700196222687));
#1269=DIRECTION('',(0.554700196225228,4.61880697210009E-17,-0.832050294337844));
#1270=DIRECTION('center_axis',(-0.554700196225228,-4.61880697210009E-17,
0.832050294337844));
#1271=DIRECTION('ref_axis',(-0.588348405414553,0.707106781186546,-0.392232270276368));
#1272=DIRECTION('',(-0.554700196225228,-4.61880697210009E-17,0.832050294337844));
#1273=DIRECTION('center_axis',(0.554700196225229,4.61880697210006E-17,-0.832050294337844));
#1274=DIRECTION('ref_axis',(-0.588348405414553,0.707106781186546,-0.392232270276369));
#1275=DIRECTION('',(-0.554700196225228,-4.61880697210009E-17,0.832050294337844));
#1276=DIRECTION('center_axis',(-0.554700196225228,-4.61880697210009E-17,
0.832050294337844));
#1277=DIRECTION('ref_axis',(0.832050294337844,-3.31014499667171E-16,0.554700196225228));
#1278=DIRECTION('center_axis',(0.554700196225229,4.61880697210006E-17,-0.832050294337844));
#1279=DIRECTION('ref_axis',(0.832050294337844,-3.31014499667171E-16,0.554700196225229));
#1280=DIRECTION('',(-0.554700196225228,-4.61880697210009E-17,0.832050294337844));
#1281=DIRECTION('center_axis',(2.4980018054066E-16,1.,2.22044604925031E-16));
#1282=DIRECTION('ref_axis',(-0.832050294337844,3.31014499667171E-16,-0.554700196225229));
#1283=DIRECTION('',(0.832050294337844,-3.31014499667171E-16,0.554700196225229));
#1284=DIRECTION('',(-0.554700196225228,-4.61880697210009E-17,0.832050294337844));
#1285=DIRECTION('center_axis',(0.832050294337844,-3.31014499667171E-16,
0.554700196225228));
#1286=DIRECTION('ref_axis',(2.4980018054066E-16,1.,2.22044604925031E-16));
#1287=DIRECTION('',(-2.4980018054066E-16,-1.,-2.22044604925031E-16));
#1288=DIRECTION('',(-0.554700196225228,-4.61880697210009E-17,0.832050294337844));
#1289=DIRECTION('center_axis',(-2.4980018054066E-16,-1.,-2.22044604925031E-16));
#1290=DIRECTION('ref_axis',(0.832050294337844,-3.31014499667171E-16,0.554700196225229));
#1291=DIRECTION('',(-0.832050294337844,3.31014499667171E-16,-0.554700196225229));
#1292=DIRECTION('center_axis',(0.554700196225229,4.61880697210006E-17,-0.832050294337844));
#1293=DIRECTION('ref_axis',(-0.832050294337844,3.31014499667171E-16,-0.554700196225229));
#1294=DIRECTION('center_axis',(-0.554700196225227,-9.19692721439725E-14,
0.832050294337845));
#1295=DIRECTION('ref_axis',(-0.50959477725043,0.790504137243277,-0.339729851500198));
#1296=DIRECTION('center_axis',(0.554700196225229,0.,-0.832050294337844));
#1297=DIRECTION('ref_axis',(-0.509594777250389,0.790504137243277,-0.339729851500259));
#1298=DIRECTION('',(0.554700196225227,9.19692721439725E-14,-0.832050294337845));
#1299=DIRECTION('center_axis',(-0.554700196225229,0.,0.832050294337844));
#1300=DIRECTION('ref_axis',(-0.509594777250389,0.790504137243277,-0.339729851500259));
#1301=DIRECTION('',(-0.554700196225227,-9.19692721439725E-14,0.832050294337845));
#1302=DIRECTION('center_axis',(-0.832050294337845,-1.44956067577868E-16,
-0.554700196225227));
#1303=DIRECTION('ref_axis',(1.20610738694221E-16,-1.,8.04071591294811E-17));
#1304=DIRECTION('',(1.20610738694221E-16,-1.,8.04071591294808E-17));
#1305=DIRECTION('',(0.554700196225227,-9.19692721439725E-14,-0.832050294337845));
#1306=DIRECTION('',(1.20610738694221E-16,-1.,8.04071591294808E-17));
#1307=DIRECTION('center_axis',(0.554700196225229,0.,-0.832050294337844));
#1308=DIRECTION('ref_axis',(-0.832050294337844,0.,-0.554700196225229));
#1309=DIRECTION('',(-0.805673559467998,0.249793581997476,-0.537115706311998));
#1310=DIRECTION('center_axis',(-0.554700196225229,0.,0.832050294337844));
#1311=DIRECTION('ref_axis',(0.657739200068551,0.612456699694978,0.4384928000457));
#1312=DIRECTION('',(0.,1.,0.));
#1313=DIRECTION('center_axis',(-0.554700196225229,0.,0.832050294337844));
#1314=DIRECTION('ref_axis',(0.657739200068553,-0.612456699694975,0.438492800045702));
#1315=DIRECTION('',(0.805673559467998,0.249793581997476,0.537115706311998));
#1316=DIRECTION('center_axis',(-0.554700196225229,0.,0.832050294337844));
#1317=DIRECTION('ref_axis',(-0.509594777250389,-0.790504137243277,-0.339729851500259));
#1318=DIRECTION('',(0.805673559467998,0.249793581997476,0.537115706311998));
#1319=DIRECTION('center_axis',(-0.554700196225229,0.,0.832050294337844));
#1320=DIRECTION('ref_axis',(0.657739200068553,-0.612456699694975,0.438492800045702));
#1321=DIRECTION('',(-1.65688802150477E-16,1.,-1.10459201433651E-16));
#1322=DIRECTION('center_axis',(-0.554700196225229,0.,0.832050294337844));
#1323=DIRECTION('ref_axis',(0.657739200068553,0.612456699694975,0.438492800045702));
#1324=DIRECTION('',(-0.805673559467998,0.249793581997476,-0.537115706311998));
#1325=DIRECTION('center_axis',(-0.554700196225229,0.,0.832050294337844));
#1326=DIRECTION('ref_axis',(-0.509594777250388,0.790504137243279,-0.339729851500258));
#1327=DIRECTION('',(1.41973566747032E-16,-1.,9.46490444980211E-17));
#1328=DIRECTION('center_axis',(-0.554700196225229,0.,0.832050294337844));
#1329=DIRECTION('ref_axis',(-0.509594777250389,-0.790504137243278,-0.339729851500259));
#1330=DIRECTION('center_axis',(0.554700196225227,-9.19692721439725E-14,
-0.832050294337845));
#1331=DIRECTION('ref_axis',(-0.50959477725043,-0.790504137243277,-0.339729851500198));
#1332=DIRECTION('',(-0.554700196225227,9.19692721439725E-14,0.832050294337845));
#1333=DIRECTION('center_axis',(0.554700196225229,0.,-0.832050294337844));
#1334=DIRECTION('ref_axis',(-0.509594777250389,-0.790504137243277,-0.339729851500259));
#1335=DIRECTION('center_axis',(-0.207840823424655,0.968299109982484,-0.138560548949876));
#1336=DIRECTION('ref_axis',(-0.805673559468011,-0.249793581997476,-0.537115706311979));
#1337=DIRECTION('',(0.554700196225227,-9.19692721439725E-14,-0.832050294337845));
#1338=DIRECTION('',(0.805673559467998,0.249793581997476,0.537115706311998));
#1339=DIRECTION('center_axis',(0.554700196225227,-9.19692721439725E-14,
-0.832050294337845));
#1340=DIRECTION('ref_axis',(0.657739200068523,-0.612456699694975,0.438492800045747));
#1341=DIRECTION('',(-0.554700196225227,9.19692721439725E-14,0.832050294337845));
#1342=DIRECTION('center_axis',(0.554700196225229,0.,-0.832050294337844));
#1343=DIRECTION('ref_axis',(0.657739200068553,-0.612456699694975,0.438492800045702));
#1344=DIRECTION('center_axis',(0.832050294337845,0.,0.554700196225227));
#1345=DIRECTION('ref_axis',(0.,1.,0.));
#1346=DIRECTION('',(0.554700196225227,9.19692721439725E-14,-0.832050294337845));
#1347=DIRECTION('',(0.,1.,0.));
#1348=DIRECTION('center_axis',(-0.554700196225227,-9.19692721439725E-14,
0.832050294337845));
#1349=DIRECTION('ref_axis',(0.657739200068521,0.612456699694978,0.438492800045746));
#1350=DIRECTION('center_axis',(0.554700196225229,0.,-0.832050294337844));
#1351=DIRECTION('ref_axis',(0.657739200068551,0.612456699694978,0.4384928000457));
#1352=DIRECTION('',(-0.554700196225227,-9.19692721439725E-14,0.832050294337845));
#1353=DIRECTION('center_axis',(-0.554700196225227,-1.43321290546942E-17,
0.832050294337845));
#1354=DIRECTION('ref_axis',(-0.509594777250389,0.790504137243278,-0.339729851500257));
#1355=DIRECTION('',(-0.554700196225227,-1.43321290546942E-17,0.832050294337845));
#1356=DIRECTION('',(0.554700196225227,1.43321290546942E-17,-0.832050294337845));
#1357=DIRECTION('center_axis',(-0.832050294337845,-1.70630991555644E-16,
-0.554700196225227));
#1358=DIRECTION('ref_axis',(1.41973566747032E-16,-1.,9.4649044498021E-17));
#1359=DIRECTION('',(0.554700196225227,-1.43321290546942E-17,-0.832050294337845));
#1360=DIRECTION('center_axis',(0.554700196225229,1.55802482029677E-17,-0.832050294337844));
#1361=DIRECTION('ref_axis',(-8.64236673542396E-18,1.,1.29635501031359E-17));
#1362=DIRECTION('center_axis',(0.554700196225227,-1.43321290546942E-17,
-0.832050294337845));
#1363=DIRECTION('ref_axis',(-0.509594777250389,-0.790504137243278,-0.339729851500258));
#1364=DIRECTION('',(-0.554700196225227,1.43321290546942E-17,0.832050294337845));
#1365=DIRECTION('center_axis',(0.207840823424705,-0.968299109982484,0.138560548949802));
#1366=DIRECTION('ref_axis',(0.805673559467998,0.249793581997476,0.537115706311998));
#1367=DIRECTION('',(0.554700196225227,-1.43321290546942E-17,-0.832050294337845));
#1368=DIRECTION('center_axis',(0.554700196225227,-1.43321290546942E-17,
-0.832050294337845));
#1369=DIRECTION('ref_axis',(0.657739200068553,-0.612456699694975,0.4384928000457));
#1370=DIRECTION('',(-0.554700196225227,1.43321290546942E-17,0.832050294337845));
#1371=DIRECTION('center_axis',(0.832050294337845,1.99133157307918E-16,0.554700196225227));
#1372=DIRECTION('ref_axis',(-1.60592235831234E-16,1.,-1.18104050912517E-16));
#1373=DIRECTION('',(0.554700196225227,1.43321290546942E-17,-0.832050294337845));
#1374=DIRECTION('center_axis',(-0.554700196225227,-1.43321290546942E-17,
0.832050294337845));
#1375=DIRECTION('ref_axis',(0.657739200068553,0.612456699694975,0.4384928000457));
#1376=DIRECTION('',(-0.554700196225227,-1.43321290546942E-17,0.832050294337845));
#1377=DIRECTION('center_axis',(0.207840823424655,0.968299109982484,0.138560548949876));
#1378=DIRECTION('ref_axis',(-0.805673559468011,0.249793581997476,-0.537115706311979));
#1379=DIRECTION('',(-0.805673559467998,0.249793581997476,-0.537115706311998));
#1380=DIRECTION('center_axis',(-0.207840823424705,-0.968299109982484,-0.138560548949802));
#1381=DIRECTION('ref_axis',(0.805673559467998,-0.249793581997476,0.537115706311998));
#1382=DIRECTION('center_axis',(0.554700196225229,0.,-0.832050294337844));
#1383=DIRECTION('ref_axis',(-0.832050294337844,0.,-0.554700196225229));
#1384=CARTESIAN_POINT('',(0.,0.,0.));
#1385=CARTESIAN_POINT('Origin',(53.5546344445326,101.400001272864,44.9568035984274));
#1386=CARTESIAN_POINT('',(52.4433888168693,102.400007285197,43.0141226939846));
#1387=CARTESIAN_POINT('',(54.7492341022112,102.399998923543,44.5513530651036));
#1388=CARTESIAN_POINT('Origin',(54.040073134445,103.200003139582,43.1170986264239));
#1389=CARTESIAN_POINT('',(50.3353531038878,102.400015005088,41.6087656128429));
#1390=CARTESIAN_POINT('',(54.1093371598272,102.400001272859,44.1247549834691));
#1391=CARTESIAN_POINT('',(50.1100944812464,100.400011787992,43.8622940480579));
#1392=CARTESIAN_POINT('Origin',(54.040073134445,103.200003139581,43.117098626424));
#1393=CARTESIAN_POINT('',(53.8319820235767,100.399998245324,46.3435524096115));
#1394=CARTESIAN_POINT('',(52.999931729238,100.400001272869,45.7888522133856));
#1395=CARTESIAN_POINT('',(55.902156376992,102.399994749408,45.3199677949123));
#1396=CARTESIAN_POINT('',(54.7537973327851,101.290564488107,45.8877666606753));
#1397=CARTESIAN_POINT('',(54.1093371598272,102.400001272859,44.1247549834691));
#1398=CARTESIAN_POINT('Origin',(53.2772888807457,103.200005016645,43.5700561307481));
#1399=CARTESIAN_POINT('',(52.2650325065242,103.200003139582,42.8952185479338));
#1400=CARTESIAN_POINT('Origin',(53.5963129774648,103.200003139582,43.7827388618942));
#1401=CARTESIAN_POINT('',(52.4433917419073,104.00000735562,43.0141248249008));
#1402=CARTESIAN_POINT('Origin',(53.5963129774648,103.200003139582,43.7827388618942));
#1403=CARTESIAN_POINT('',(50.3353571343988,104.000015005081,41.6087682998502));
#1404=CARTESIAN_POINT('',(52.2483974191729,104.000008044186,42.8841284896996));
#1405=CARTESIAN_POINT('Origin',(53.5963129774648,103.200003139581,43.7827388618942));
#1406=CARTESIAN_POINT('Origin',(51.6936997420171,105.000008044181,43.716180463417));
#1407=CARTESIAN_POINT('',(53.8319961303651,105.999998245298,46.3435618141371));
#1408=CARTESIAN_POINT('',(55.902160407503,103.9999947494,45.3199704819197));
#1409=CARTESIAN_POINT('',(53.6393293285498,106.186135298009,46.4388257845003));
#1410=CARTESIAN_POINT('',(50.1101085880348,106.000011787966,43.8623034525835));
#1411=CARTESIAN_POINT('',(51.1390020648612,106.000008044177,44.5482324371345));
#1412=CARTESIAN_POINT('Origin',(54.040073134445,103.200003139581,43.117098626424));
#1413=CARTESIAN_POINT('',(54.7492371942262,103.999998993966,44.5513549455557));
#1414=CARTESIAN_POINT('Origin',(54.040073134445,103.200003139582,43.117098626424));
#1415=CARTESIAN_POINT('',(52.2483974191729,104.000008044186,42.8841284896996));
#1416=CARTESIAN_POINT('Origin',(53.2772888807457,103.200005016645,43.5700561307481));
#1417=CARTESIAN_POINT('',(56.286465961378,103.199993351041,45.576174184503));
#1418=CARTESIAN_POINT('',(54.9413824160272,100.399998245324,44.6794518209358));
#1419=CARTESIAN_POINT('',(56.286465961378,103.199993351041,45.576174184503));
#1420=CARTESIAN_POINT('Origin',(53.5963129774648,103.200003139582,43.7827388618942));
#1421=CARTESIAN_POINT('Origin',(49.5554083918095,106.000011787966,44.6943537469214));
#1422=CARTESIAN_POINT('',(52.1678955416895,105.999998245298,48.8397126971506));
#1423=CARTESIAN_POINT('',(53.2772959341399,105.999998245298,47.1756121084749));
#1424=CARTESIAN_POINT('',(48.4460079993591,106.000011787966,46.358454335597));
#1425=CARTESIAN_POINT('',(49.634413524546,106.000007463767,47.1507246857216));
#1426=CARTESIAN_POINT('',(52.3289093729357,106.000011787966,40.5341022752321));
#1427=CARTESIAN_POINT('Origin',(50.8228119963387,103.200003139581,47.9429903335834));
#1428=CARTESIAN_POINT('',(53.5129649802518,103.199993351041,49.7364256561922));
#1429=CARTESIAN_POINT('',(52.5041629013301,105.299997021734,49.063890936911));
#1430=CARTESIAN_POINT('',(52.1678814349011,100.399998245324,48.839703292625));
#1431=CARTESIAN_POINT('',(53.1766940939141,102.499994574612,49.5122450653004));
#1432=CARTESIAN_POINT('',(48.4459938925707,100.400011787992,46.3584449310714));
#1433=CARTESIAN_POINT('',(51.4953431889228,100.400000692459,48.3913444619728));
#1434=CARTESIAN_POINT('Origin',(50.8228119963387,103.200003139581,47.9429903335834));
#1435=CARTESIAN_POINT('',(50.8228119963387,104.800003139582,47.9429903335834));
#1436=CARTESIAN_POINT('Origin',(50.8228119963387,103.200003139582,47.9429903335834));
#1437=CARTESIAN_POINT('Origin',(51.9322123887891,103.200003139582,46.2788897449077));
#1438=CARTESIAN_POINT('',(50.2681118001135,104.800003139582,48.7750406279213));
#1439=CARTESIAN_POINT('',(51.9322123887891,104.800003139582,46.2788897449077));
#1440=CARTESIAN_POINT('Origin',(50.2681118001134,103.200003139582,48.7750406279213));
#1441=CARTESIAN_POINT('Origin',(54.6223653727023,103.199993351041,48.0723250675165));
#1442=CARTESIAN_POINT('',(53.2772818273515,100.399998245324,47.1756027039493));
#1443=CARTESIAN_POINT('',(54.6223653727023,103.199993351041,48.0723250675165));
#1444=CARTESIAN_POINT('Origin',(53.2772959341399,105.999998245298,47.1756121084749));
#1445=CARTESIAN_POINT('Origin',(53.2772818273515,100.399998245324,47.1756027039493));
#1446=CARTESIAN_POINT('',(52.3288952661473,100.400011787992,40.5340928707065));
#1447=CARTESIAN_POINT('Origin',(54.7057133699153,103.200003139581,42.1186382732185));
#1448=CARTESIAN_POINT('',(54.7057133699153,107.200003139582,42.1186382732185));
#1449=CARTESIAN_POINT('',(50.2681118001135,107.200003139582,48.7750406279213));
#1450=CARTESIAN_POINT('',(54.7057133699153,107.200003139582,42.1186382732185));
#1451=CARTESIAN_POINT('',(54.7057133699153,99.2000031395815,42.1186382732185));
#1452=CARTESIAN_POINT('Origin',(54.7057133699153,103.200003139581,42.1186382732185));
#1453=CARTESIAN_POINT('',(50.2681118001135,99.2000031395815,48.7750406279213));
#1454=CARTESIAN_POINT('',(54.7057133699153,99.2000031395815,42.1186382732185));
#1455=CARTESIAN_POINT('Origin',(50.2681118001134,103.200003139581,48.7750406279213));
#1456=CARTESIAN_POINT('Origin',(54.7057133699153,103.200003139582,42.1186382732185));
#1457=CARTESIAN_POINT('',(53.3744328989747,103.200003139582,41.2311179592582));
#1458=CARTESIAN_POINT('Origin',(54.7057133699153,103.200003139582,42.1186382732185));
#1459=CARTESIAN_POINT('',(53.3744328989748,103.200003139582,41.2311179592581));
#1460=CARTESIAN_POINT('Origin',(58.0339145472667,107.200003139582,44.3374390581195));
#1461=CARTESIAN_POINT('',(58.0339145472667,107.200003139582,44.3374390581195));
#1462=CARTESIAN_POINT('',(54.8282380123454,107.200003139582,42.2003213681719));
#1463=CARTESIAN_POINT('',(53.5963129774648,107.200003139582,50.9938414128222));
#1464=CARTESIAN_POINT('',(52.4441989262622,107.200003139582,50.2257653786871));
#1465=CARTESIAN_POINT('',(58.0339145472667,107.200003139582,44.3374390581195));
#1466=CARTESIAN_POINT('Origin',(58.0339145472667,99.2000031395815,44.3374390581195));
#1467=CARTESIAN_POINT('',(58.0339145472667,99.2000031395815,44.3374390581195));
#1468=CARTESIAN_POINT('',(58.0339145472667,99.2000031395815,44.3374390581195));
#1469=CARTESIAN_POINT('',(53.5963129774648,99.2000031395815,50.9938414128222));
#1470=CARTESIAN_POINT('',(53.5963129774648,85.7000015697982,50.9938414128222));
#1471=CARTESIAN_POINT('',(58.0339145472667,99.2000031395815,44.3374390581195));
#1472=CARTESIAN_POINT('Origin',(54.7057133699153,99.2000031395815,42.1186382732185));
#1473=CARTESIAN_POINT('',(58.818586621421,99.2000031395815,44.8605537742223));
#1474=CARTESIAN_POINT('',(50.7800983375865,99.2000031395815,49.1163649862366));
#1475=CARTESIAN_POINT('Origin',(54.7057133699153,103.200003139581,42.1186382732186));
#1476=CARTESIAN_POINT('Origin',(51.2920848750595,72.200000000015,49.457689344552));
#1477=CARTESIAN_POINT('',(40.8796750435728,117.963282316144,42.5160827902275));
#1478=CARTESIAN_POINT('',(38.903881919824,116.123514007177,41.198887374395));
#1479=CARTESIAN_POINT('Origin',(40.4847774790658,116.123514007177,42.2528177472229));
#1480=CARTESIAN_POINT('',(61.9325013117383,111.435997384306,56.5513003023378));
#1481=CARTESIAN_POINT('',(50.31401267776,115.038230396886,48.805641213019));
#1482=CARTESIAN_POINT('',(63.6802878302951,108.724759876355,57.716491314709));
#1483=CARTESIAN_POINT('Origin',(61.3505470061491,108.724759876355,56.1633307652783));
#1484=CARTESIAN_POINT('',(63.6802878302951,27.6752401236449,57.716491314709));
#1485=CARTESIAN_POINT('',(63.6802878302951,49.8988817003944,57.716491314709));
#1486=CARTESIAN_POINT('',(61.9325013117383,24.9640026156939,56.5513003023378));
#1487=CARTESIAN_POINT('Origin',(61.3505470061491,27.6752401236449,56.1633307652783));
#1488=CARTESIAN_POINT('',(40.8796750435728,18.436717683856,42.5160827902275));
#1489=CARTESIAN_POINT('',(51.1190210151237,21.6113569375434,49.3423134379281));
#1490=CARTESIAN_POINT('',(38.903881919824,20.2764859928228,41.198887374395));
#1491=CARTESIAN_POINT('Origin',(40.4847774790659,20.2764859928228,42.2528177472229));
#1492=CARTESIAN_POINT('',(38.903881919824,98.2262925158879,41.198887374395));
#1493=CARTESIAN_POINT('',(50.2681118001135,37.2000031395815,48.7750406279213));
#1494=CARTESIAN_POINT('',(50.2681118001135,29.2000031395815,48.7750406279213));
#1495=CARTESIAN_POINT('Origin',(50.2681118001134,33.2000031395815,48.7750406279213));
#1496=CARTESIAN_POINT('',(53.5963129774648,29.2000031395815,50.9938414128222));
#1497=CARTESIAN_POINT('',(50.7800983375865,29.2000031395815,49.1163649862366));
#1498=CARTESIAN_POINT('',(53.5963129774648,37.2000031395815,50.9938414128222));
#1499=CARTESIAN_POINT('',(53.5963129774648,50.7000015697982,50.9938414128222));
#1500=CARTESIAN_POINT('',(52.4441989262622,37.2000031395815,50.2257653786871));
#1501=CARTESIAN_POINT('Origin',(51.2920848750595,72.200000000015,49.457689344552));
#1502=CARTESIAN_POINT('Origin',(53.5546344445326,31.4000012728641,44.9568035984274));
#1503=CARTESIAN_POINT('',(52.4433888168692,32.4000072851972,43.0141226939844));
#1504=CARTESIAN_POINT('',(54.7492341022116,32.3999989235429,44.5513530651036));
#1505=CARTESIAN_POINT('Origin',(54.040073134445,33.2000031395815,43.1170986264239));
#1506=CARTESIAN_POINT('',(50.3353531038878,32.4000150050882,41.6087656128429));
#1507=CARTESIAN_POINT('',(54.1093371598272,32.4000012728595,44.1247549834691));
#1508=CARTESIAN_POINT('',(50.1100944812464,30.4000117879915,43.8622940480579));
#1509=CARTESIAN_POINT('Origin',(54.040073134445,33.2000031395815,43.117098626424));
#1510=CARTESIAN_POINT('',(53.8319820235767,30.399998245324,46.3435524096115));
#1511=CARTESIAN_POINT('',(52.999931729238,30.4000012728686,45.7888522133856));
#1512=CARTESIAN_POINT('',(55.902156376992,32.3999947494075,45.3199677949123));
#1513=CARTESIAN_POINT('',(54.7537973327851,31.2905644881074,45.8877666606753));
#1514=CARTESIAN_POINT('',(54.1093371598272,32.4000012728595,44.1247549834691));
#1515=CARTESIAN_POINT('Origin',(53.2772888807457,33.200005016645,43.5700561307481));
#1516=CARTESIAN_POINT('',(52.2650325065242,33.2000031395815,42.8952185479338));
#1517=CARTESIAN_POINT('Origin',(53.5963129774648,33.2000031395815,43.7827388618942));
#1518=CARTESIAN_POINT('',(52.4433917419074,34.0000073556202,43.0141248249009));
#1519=CARTESIAN_POINT('Origin',(53.5963129774648,33.2000031395815,43.7827388618942));
#1520=CARTESIAN_POINT('',(50.3353571343988,34.0000150050809,41.6087682998502));
#1521=CARTESIAN_POINT('',(52.2483974191729,34.0000080441859,42.8841284896996));
#1522=CARTESIAN_POINT('Origin',(53.5963129774648,33.2000031395815,43.7827388618942));
#1523=CARTESIAN_POINT('Origin',(51.6936997420171,35.0000080441813,43.716180463417));
#1524=CARTESIAN_POINT('',(53.8319961303651,35.9999982452984,46.3435618141371));
#1525=CARTESIAN_POINT('',(55.902160407503,33.9999947494002,45.3199704819197));
#1526=CARTESIAN_POINT('',(53.6393293285498,36.1861352980094,46.4388257845003));
#1527=CARTESIAN_POINT('',(50.1101085880348,36.0000117879658,43.8623034525835));
#1528=CARTESIAN_POINT('',(51.1390020648612,36.0000080441767,44.5482324371345));
#1529=CARTESIAN_POINT('Origin',(54.040073134445,33.2000031395815,43.117098626424));
#1530=CARTESIAN_POINT('',(54.7492371942261,33.9999989939658,44.5513549455557));
#1531=CARTESIAN_POINT('Origin',(54.040073134445,33.2000031395815,43.117098626424));
#1532=CARTESIAN_POINT('',(52.2483974191729,34.0000080441859,42.8841284896996));
#1533=CARTESIAN_POINT('Origin',(53.2772888807457,33.200005016645,43.5700561307481));
#1534=CARTESIAN_POINT('',(56.286465961378,33.1999933510409,45.576174184503));
#1535=CARTESIAN_POINT('',(54.9413824160272,30.399998245324,44.6794518209358));
#1536=CARTESIAN_POINT('',(56.286465961378,33.1999933510409,45.576174184503));
#1537=CARTESIAN_POINT('Origin',(53.5963129774648,33.2000031395815,43.7827388618942));
#1538=CARTESIAN_POINT('Origin',(49.5554083918095,36.0000117879659,44.6943537469214));
#1539=CARTESIAN_POINT('',(52.1678955416895,35.9999982452984,48.8397126971506));
#1540=CARTESIAN_POINT('',(53.2772959341399,35.9999982452984,47.1756121084749));
#1541=CARTESIAN_POINT('',(48.4460079993591,36.0000117879659,46.358454335597));
#1542=CARTESIAN_POINT('',(49.634413524546,36.0000074637673,47.1507246857216));
#1543=CARTESIAN_POINT('',(52.3289093729357,36.0000117879658,40.5341022752321));
#1544=CARTESIAN_POINT('Origin',(50.8228119963387,33.2000031395815,47.9429903335834));
#1545=CARTESIAN_POINT('',(53.5129649802518,33.1999933510409,49.7364256561922));
#1546=CARTESIAN_POINT('',(52.5041629013301,35.299997021734,49.063890936911));
#1547=CARTESIAN_POINT('',(52.1678814349011,30.399998245324,48.839703292625));
#1548=CARTESIAN_POINT('',(53.1766940939141,32.4999945746117,49.5122450653004));
#1549=CARTESIAN_POINT('',(48.4459938925707,30.4000117879915,46.3584449310714));
#1550=CARTESIAN_POINT('',(51.4953431889228,30.4000006924592,48.3913444619728));
#1551=CARTESIAN_POINT('Origin',(50.8228119963387,33.2000031395815,47.9429903335834));
#1552=CARTESIAN_POINT('',(50.8228119963387,34.8000031395815,47.9429903335834));
#1553=CARTESIAN_POINT('Origin',(50.8228119963387,33.2000031395815,47.9429903335834));
#1554=CARTESIAN_POINT('Origin',(51.9322123887891,33.2000031395815,46.2788897449077));
#1555=CARTESIAN_POINT('',(50.2681118001135,34.8000031395815,48.7750406279213));
#1556=CARTESIAN_POINT('',(51.9322123887891,34.8000031395815,46.2788897449077));
#1557=CARTESIAN_POINT('Origin',(50.2681118001134,33.2000031395815,48.7750406279213));
#1558=CARTESIAN_POINT('Origin',(54.6223653727023,33.1999933510409,48.0723250675165));
#1559=CARTESIAN_POINT('',(53.2772818273515,30.399998245324,47.1756027039493));
#1560=CARTESIAN_POINT('',(54.6223653727023,33.1999933510409,48.0723250675165));
#1561=CARTESIAN_POINT('Origin',(53.2772959341399,35.9999982452984,47.1756121084749));
#1562=CARTESIAN_POINT('Origin',(53.2772818273515,30.399998245324,47.1756027039493));
#1563=CARTESIAN_POINT('',(52.3288952661473,30.4000117879915,40.5340928707065));
#1564=CARTESIAN_POINT('Origin',(54.7057133699153,33.2000031395815,42.1186382732185));
#1565=CARTESIAN_POINT('',(54.7057133699153,37.2000031395815,42.1186382732185));
#1566=CARTESIAN_POINT('',(54.7057133699153,37.2000031395815,42.1186382732185));
#1567=CARTESIAN_POINT('',(54.7057133699153,29.2000031395815,42.1186382732185));
#1568=CARTESIAN_POINT('Origin',(54.7057133699153,33.2000031395815,42.1186382732185));
#1569=CARTESIAN_POINT('',(54.7057133699153,29.2000031395815,42.1186382732185));
#1570=CARTESIAN_POINT('Origin',(54.7057133699153,33.2000031395815,42.1186382732185));
#1571=CARTESIAN_POINT('',(53.3744328989747,33.2000031395815,41.2311179592582));
#1572=CARTESIAN_POINT('Origin',(54.7057133699153,33.2000031395815,42.1186382732185));
#1573=CARTESIAN_POINT('',(53.3744328989748,33.2000031395815,41.2311179592581));
#1574=CARTESIAN_POINT('Origin',(58.0339145472667,37.2000031395815,44.3374390581195));
#1575=CARTESIAN_POINT('',(58.0339145472667,37.2000031395815,44.3374390581195));
#1576=CARTESIAN_POINT('',(54.8282380123454,37.2000031395815,42.2003213681719));
#1577=CARTESIAN_POINT('',(58.0339145472667,37.2000031395815,44.3374390581195));
#1578=CARTESIAN_POINT('Origin',(58.0339145472667,29.2000031395815,44.3374390581195));
#1579=CARTESIAN_POINT('',(58.0339145472667,29.2000031395815,44.3374390581195));
#1580=CARTESIAN_POINT('',(58.0339145472667,29.2000031395815,44.3374390581195));
#1581=CARTESIAN_POINT('',(58.0339145472667,29.2000031395815,44.3374390581195));
#1582=CARTESIAN_POINT('Origin',(54.7057133699153,29.2000031395815,42.1186382732185));
#1583=CARTESIAN_POINT('',(58.818586621421,29.2000031395815,44.8605537742223));
#1584=CARTESIAN_POINT('Origin',(54.7057133699153,33.2000031395815,42.1186382732186));
#1585=CARTESIAN_POINT('Origin',(38.7981562801146,118.834005522802,40.9969207064126));
#1586=CARTESIAN_POINT('',(36.047175909264,118.834005522802,41.6981175509976));
#1587=CARTESIAN_POINT('',(38.0229690330129,120.673773831769,43.0153129668302));
#1588=CARTESIAN_POINT('Origin',(37.6280714685049,118.834005522802,42.7520479238271));
#1589=CARTESIAN_POINT('',(38.5776692292381,120.673773831769,42.1832626724923));
#1590=CARTESIAN_POINT('',(39.1930538446214,120.673773831769,41.2601857494174));
#1591=CARTESIAN_POINT('',(36.6018761054893,118.834005522802,40.8660672566598));
#1592=CARTESIAN_POINT('Origin',(38.1827716647301,118.834005522802,41.9199976294893));
#1593=CARTESIAN_POINT('',(37.2172607208727,118.834005522802,39.9429903335847));
#1594=CARTESIAN_POINT('Origin',(37.2172607208739,126.963076547386,39.9429903335828));
#1595=CARTESIAN_POINT('',(36.6018761054893,17.5659944771978,40.8660672566598));
#1596=CARTESIAN_POINT('',(36.6018761054893,112.935724663115,40.8660672566598));
#1597=CARTESIAN_POINT('',(36.047175909264,17.5659944771979,41.6981175509976));
#1598=CARTESIAN_POINT('',(37.2172607208697,17.5659944771977,39.9429903335892));
#1599=CARTESIAN_POINT('',(36.047175909264,112.935724663115,41.6981175509976));
#1600=CARTESIAN_POINT('Origin',(50.0450769865266,98.9083727788434,49.8282011773513));
#1601=CARTESIAN_POINT('',(61.8142668447049,113.469425515269,57.6743277494702));
#1602=CARTESIAN_POINT('',(58.4855912787987,114.501458629853,55.4552107055328));
#1603=CARTESIAN_POINT('',(64.8728932521793,108.724759876355,59.7134120211198));
#1604=CARTESIAN_POINT('Origin',(60.7958468099234,108.724759876355,56.9953810596169));
#1605=CARTESIAN_POINT('',(64.8728932521793,27.6752401236448,59.7134120211198));
#1606=CARTESIAN_POINT('',(64.8728932521793,83.5903106490362,59.7134120211198));
#1607=CARTESIAN_POINT('',(61.8142668447049,22.9305744847307,57.6743277494702));
#1608=CARTESIAN_POINT('Origin',(60.7958468099203,27.6752401236448,56.9953810596216));
#1609=CARTESIAN_POINT('',(38.5776692292381,15.7262261682311,42.1832626724923));
#1610=CARTESIAN_POINT('',(64.6657153072358,23.8146465967745,59.5752933911575));
#1611=CARTESIAN_POINT('Origin',(38.182771664727,17.5659944771978,41.919997629494));
#1612=CARTESIAN_POINT('',(40.3249748473476,18.436717683856,43.3481330845653));
#1613=CARTESIAN_POINT('',(61.3778011155131,24.9640026156939,57.3833505966756));
#1614=CARTESIAN_POINT('',(52.9273237222223,22.3439898414722,51.7496990011485));
#1615=CARTESIAN_POINT('',(63.1255876340699,27.6752401236449,58.5485416090468));
#1616=CARTESIAN_POINT('Origin',(60.7958468099239,27.6752401236449,56.9953810596162));
#1617=CARTESIAN_POINT('',(63.1255876340699,108.724759876355,58.5485416090468));
#1618=CARTESIAN_POINT('',(63.1255876340699,63.2530680898087,58.5485416090468));
#1619=CARTESIAN_POINT('',(61.377801115513,111.435997384306,57.3833505966756));
#1620=CARTESIAN_POINT('Origin',(60.7958468099239,108.724759876355,56.9953810596162));
#1621=CARTESIAN_POINT('',(40.3249748473476,117.963282316144,43.3481330845653));
#1622=CARTESIAN_POINT('',(46.7471996937852,115.972115385155,47.6296163155237));
#1623=CARTESIAN_POINT('',(38.3491817235987,116.123514007177,42.0309376687328));
#1624=CARTESIAN_POINT('Origin',(39.9300772828406,116.123514007177,43.0848680415607));
#1625=CARTESIAN_POINT('',(38.3491817235988,20.2764859928228,42.0309376687328));
#1626=CARTESIAN_POINT('',(38.3491817235987,111.580478905302,42.0309376687328));
#1627=CARTESIAN_POINT('Origin',(39.9300772828406,20.2764859928228,43.0848680415607));
#1628=CARTESIAN_POINT('Origin',(38.7981562801116,17.5659944771977,40.9969207064171));
#1629=CARTESIAN_POINT('',(38.0229690330129,15.7262261682312,43.0153129668302));
#1630=CARTESIAN_POINT('',(39.1930538446184,15.726226168231,41.2601857494219));
#1631=CARTESIAN_POINT('Origin',(37.6280714685018,17.5659944771979,42.7520479238318));
#1632=CARTESIAN_POINT('Origin',(63.8766877917887,23.3792182118685,57.7159417141981));
#1633=CARTESIAN_POINT('',(61.2595666484797,22.9305744847307,58.5063780438081));
#1634=CARTESIAN_POINT('',(62.1219591523948,22.9305744847306,57.2127892879354));
#1635=CARTESIAN_POINT('',(64.1110151110106,23.8146465967746,60.4073436854953));
#1636=CARTESIAN_POINT('Origin',(61.103539117614,27.6752401236448,56.533842598081));
#1637=CARTESIAN_POINT('',(64.3181930559541,27.6752401236449,60.5454623154577));
#1638=CARTESIAN_POINT('',(65.1805855598695,27.6752401236448,59.2518735595846));
#1639=CARTESIAN_POINT('Origin',(60.241146613695,27.6752401236449,57.8274313539595));
#1640=CARTESIAN_POINT('Origin',(64.8728932521793,68.2722485192289,59.7134120211198));
#1641=CARTESIAN_POINT('',(64.3181930559541,108.724759876355,60.5454623154577));
#1642=CARTESIAN_POINT('',(65.1805855598695,108.724759876355,59.2518735595846));
#1643=CARTESIAN_POINT('',(64.3181930559541,83.5903106490362,60.5454623154577));
#1644=CARTESIAN_POINT('Origin',(61.103539117614,108.724759876355,56.533842598081));
#1645=CARTESIAN_POINT('',(61.2595666484797,113.469425515269,58.5063780438081));
#1646=CARTESIAN_POINT('Origin',(60.2411466136982,108.724759876355,57.8274313539548));
#1647=CARTESIAN_POINT('',(62.1219591523948,113.469425515269,57.2127892879354));
#1648=CARTESIAN_POINT('Origin',(40.4847774790659,116.123514007177,42.2528177472229));
#1649=CARTESIAN_POINT('',(38.9038819198239,116.123514007177,41.198887374395));
#1650=CARTESIAN_POINT('',(40.8796750435728,117.963282316144,42.5160827902275));
#1651=CARTESIAN_POINT('Origin',(38.903881919824,124.252585031761,41.198887374395));
#1652=CARTESIAN_POINT('',(38.903881919824,20.2764859928228,41.198887374395));
#1653=CARTESIAN_POINT('Origin',(51.2920848750595,72.200000000015,49.457689344552));
#1654=CARTESIAN_POINT('Origin',(40.4847774790659,20.2764859928228,42.2528177472229));
#1655=CARTESIAN_POINT('',(40.8796750435728,18.436717683856,42.5160827902275));
#1656=CARTESIAN_POINT('Origin',(40.7756859317965,18.4044765703007,42.44675671571));
#1657=CARTESIAN_POINT('',(61.9325013117383,24.9640026156939,56.5513003023378));
#1658=CARTESIAN_POINT('Origin',(61.3505470061491,27.6752401236449,56.1633307652784));
#1659=CARTESIAN_POINT('',(63.6802878302951,27.6752401236449,57.716491314709));
#1660=CARTESIAN_POINT('Origin',(63.6802878302951,27.5977634007739,57.716491314709));
#1661=CARTESIAN_POINT('',(63.6802878302951,108.724759876355,57.716491314709));
#1662=CARTESIAN_POINT('Origin',(61.3505470061491,108.724759876355,56.1633307652784));
#1663=CARTESIAN_POINT('',(61.9325013117383,111.435997384306,56.5513003023378));
#1664=CARTESIAN_POINT('Origin',(63.8766877917887,113.020781788132,57.7159417141981));
#1665=CARTESIAN_POINT('',(57.9308910825735,114.501458629853,56.2872609998706));
#1666=CARTESIAN_POINT('Origin',(40.7756859317965,117.995523429699,42.44675671571));
#1667=CARTESIAN_POINT('Origin',(49.4903767903014,98.9083727788434,50.6602514716892));
#1668=UNCERTAINTY_MEASURE_WITH_UNIT(LENGTH_MEASURE(0.01),#1672,
'DISTANCE_ACCURACY_VALUE',
'Maximum model space distance between geometric entities at asserted c
onnectivities');
#1669=UNCERTAINTY_MEASURE_WITH_UNIT(LENGTH_MEASURE(0.01),#1672,
'DISTANCE_ACCURACY_VALUE',
'Maximum model space distance between geometric entities at asserted c
onnectivities');
#1670=(
GEOMETRIC_REPRESENTATION_CONTEXT(3)
GLOBAL_UNCERTAINTY_ASSIGNED_CONTEXT((#1668))
GLOBAL_UNIT_ASSIGNED_CONTEXT((#1672,#1674,#1675))
REPRESENTATION_CONTEXT('','3D')
);
#1671=(
GEOMETRIC_REPRESENTATION_CONTEXT(3)
GLOBAL_UNCERTAINTY_ASSIGNED_CONTEXT((#1669))
GLOBAL_UNIT_ASSIGNED_CONTEXT((#1672,#1674,#1675))
REPRESENTATION_CONTEXT('','3D')
);
#1672=(
LENGTH_UNIT()
NAMED_UNIT(*)
SI_UNIT(.MILLI.,.METRE.)
);
#1673=(
LENGTH_UNIT()
NAMED_UNIT(*)
SI_UNIT($,.METRE.)
);
#1674=(
NAMED_UNIT(*)
PLANE_ANGLE_UNIT()
SI_UNIT($,.RADIAN.)
);
#1675=(
NAMED_UNIT(*)
SI_UNIT($,.STERADIAN.)
SOLID_ANGLE_UNIT()
);
#1676=SHAPE_DEFINITION_REPRESENTATION(#1677,#1678);
#1677=PRODUCT_DEFINITION_SHAPE('',$,#1680);
#1678=SHAPE_REPRESENTATION('',(#996),#1670);
#1679=PRODUCT_DEFINITION_CONTEXT('part definition',#1684,'design');
#1680=PRODUCT_DEFINITION('Front window','Front window',#1681,#1679);
#1681=PRODUCT_DEFINITION_FORMATION('',$,#1686);
#1682=PRODUCT_RELATED_PRODUCT_CATEGORY('Front window','Front window',(#1686));
#1683=APPLICATION_PROTOCOL_DEFINITION('international standard',
'automotive_design',2009,#1684);
#1684=APPLICATION_CONTEXT(
'Core Data for Automotive Mechanical Design Process');
#1685=PRODUCT_CONTEXT('part definition',#1684,'mechanical');
#1686=PRODUCT('Front window','Front window',$,(#1685));
#1687=PRESENTATION_STYLE_ASSIGNMENT((#1689));
#1688=PRESENTATION_STYLE_ASSIGNMENT((#1690));
#1689=SURFACE_STYLE_USAGE(.BOTH.,#1691);
#1690=SURFACE_STYLE_USAGE(.BOTH.,#1692);
#1691=SURFACE_SIDE_STYLE('',(#1693));
#1692=SURFACE_SIDE_STYLE('',(#1694));
#1693=SURFACE_STYLE_FILL_AREA(#1695);
#1694=SURFACE_STYLE_FILL_AREA(#1696);
#1695=FILL_AREA_STYLE('Stahl - satiniert',(#1697));
#1696=FILL_AREA_STYLE('Opaque(25,25,25)',(#1698));
#1697=FILL_AREA_STYLE_COLOUR('Stahl - satiniert',#1699);
#1698=FILL_AREA_STYLE_COLOUR('Opaque(25,25,25)',#1700);
#1699=COLOUR_RGB('Stahl - satiniert',0.627450980392157,0.627450980392157,
0.627450980392157);
#1700=COLOUR_RGB('Opaque(25,25,25)',0.0980392156862745,0.0980392156862745,
0.0980392156862745);
ENDSEC;
END-ISO-10303-21;
