ISO-10303-21;
HEADER;
/* Generated by software containing ST-Developer
 * from STEP Tools, Inc. (www.steptools.com) 
 */

FILE_DESCRIPTION(
/* description */ (''),
/* implementation_level */ '2;1');

FILE_NAME(
/* name */ 'Left front window.step',
/* time_stamp */ '2026-04-11T13:51:16+02:00',
/* author */ (''),
/* organization */ (''),
/* preprocessor_version */ 'ST-DEVELOPER v20.1',
/* originating_system */ 'Autodesk Translation Framework v14.24.0.0',
/* authorisation */ '');

FILE_SCHEMA (('AUTOMOTIVE_DESIGN { 1 0 10303 214 3 1 1 }'));
ENDSEC;

DATA;
#10=MECHANICAL_DESIGN_GEOMETRIC_PRESENTATION_REPRESENTATION('',(#13),#1671);
#11=SHAPE_REPRESENTATION_RELATIONSHIP('SRR','None',#1678,#12);
#12=ADVANCED_BREP_SHAPE_REPRESENTATION('',(#14),#1670);
#13=STYLED_ITEM('',(#1688),#14);
#14=MANIFOLD_SOLID_BREP('Left front window',#983);
#15=CYLINDRICAL_SURFACE('',#1013,1.6);
#16=CYLINDRICAL_SURFACE('',#1018,4.);
#17=CYLINDRICAL_SURFACE('',#1021,1.6);
#18=CYLINDRICAL_SURFACE('',#1049,1.6);
#19=CYLINDRICAL_SURFACE('',#1054,4.);
#20=CYLINDRICAL_SURFACE('',#1056,1.6);
#21=CYLINDRICAL_SURFACE('',#1063,1.9);
#22=CYLINDRICAL_SURFACE('',#1075,1.9);
#23=CYLINDRICAL_SURFACE('',#1078,19.9);
#24=CYLINDRICAL_SURFACE('',#1081,1.9);
#25=CYLINDRICAL_SURFACE('',#1083,0.9);
#26=CYLINDRICAL_SURFACE('',#1086,1.8);
#27=CYLINDRICAL_SURFACE('',#1088,1.9);
#28=CYLINDRICAL_SURFACE('',#1090,17.8);
#29=FACE_BOUND('',#129,.T.);
#30=FACE_BOUND('',#135,.T.);
#31=FACE_BOUND('',#141,.T.);
#32=FACE_BOUND('',#143,.T.);
#33=FACE_BOUND('',#144,.T.);
#34=FACE_BOUND('',#151,.T.);
#35=FACE_BOUND('',#157,.T.);
#36=FACE_BOUND('',#163,.T.);
#37=FACE_BOUND('',#168,.T.);
#38=CIRCLE('',#1001,4.);
#39=CIRCLE('',#1002,1.6);
#40=CIRCLE('',#1003,1.6);
#41=CIRCLE('',#1008,1.6);
#42=CIRCLE('',#1011,4.);
#43=CIRCLE('',#1012,1.6);
#44=CIRCLE('',#1014,1.6);
#45=CIRCLE('',#1019,4.);
#46=CIRCLE('',#1020,4.);
#47=CIRCLE('',#1022,1.6);
#48=CIRCLE('',#1032,4.);
#49=CIRCLE('',#1037,4.);
#50=CIRCLE('',#1038,1.6);
#51=CIRCLE('',#1039,1.6);
#52=CIRCLE('',#1044,1.6);
#53=CIRCLE('',#1047,4.);
#54=CIRCLE('',#1048,1.6);
#55=CIRCLE('',#1050,1.6);
#56=CIRCLE('',#1055,4.);
#57=CIRCLE('',#1057,1.6);
#58=CIRCLE('',#1064,1.9);
#59=CIRCLE('',#1065,1.9);
#60=CIRCLE('',#1068,1.9);
#61=CIRCLE('',#1069,19.9);
#62=CIRCLE('',#1070,1.9);
#63=CIRCLE('',#1071,1.8);
#64=CIRCLE('',#1072,1.9);
#65=CIRCLE('',#1073,17.8);
#66=CIRCLE('',#1074,0.9);
#67=CIRCLE('',#1076,1.9);
#68=CIRCLE('',#1079,19.9);
#69=CIRCLE('',#1082,1.9);
#70=FACE_OUTER_BOUND('',#123,.T.);
#71=FACE_OUTER_BOUND('',#124,.T.);
#72=FACE_OUTER_BOUND('',#125,.T.);
#73=FACE_OUTER_BOUND('',#126,.T.);
#74=FACE_OUTER_BOUND('',#127,.T.);
#75=FACE_OUTER_BOUND('',#128,.T.);
#76=FACE_OUTER_BOUND('',#130,.T.);
#77=FACE_OUTER_BOUND('',#131,.T.);
#78=FACE_OUTER_BOUND('',#132,.T.);
#79=FACE_OUTER_BOUND('',#133,.T.);
#80=FACE_OUTER_BOUND('',#134,.T.);
#81=FACE_OUTER_BOUND('',#136,.T.);
#82=FACE_OUTER_BOUND('',#137,.T.);
#83=FACE_OUTER_BOUND('',#138,.T.);
#84=FACE_OUTER_BOUND('',#139,.T.);
#85=FACE_OUTER_BOUND('',#140,.T.);
#86=FACE_OUTER_BOUND('',#142,.T.);
#87=FACE_OUTER_BOUND('',#145,.T.);
#88=FACE_OUTER_BOUND('',#146,.T.);
#89=FACE_OUTER_BOUND('',#147,.T.);
#90=FACE_OUTER_BOUND('',#148,.T.);
#91=FACE_OUTER_BOUND('',#149,.T.);
#92=FACE_OUTER_BOUND('',#150,.T.);
#93=FACE_OUTER_BOUND('',#152,.T.);
#94=FACE_OUTER_BOUND('',#153,.T.);
#95=FACE_OUTER_BOUND('',#154,.T.);
#96=FACE_OUTER_BOUND('',#155,.T.);
#97=FACE_OUTER_BOUND('',#156,.T.);
#98=FACE_OUTER_BOUND('',#158,.T.);
#99=FACE_OUTER_BOUND('',#159,.T.);
#100=FACE_OUTER_BOUND('',#160,.T.);
#101=FACE_OUTER_BOUND('',#161,.T.);
#102=FACE_OUTER_BOUND('',#162,.T.);
#103=FACE_OUTER_BOUND('',#164,.T.);
#104=FACE_OUTER_BOUND('',#165,.T.);
#105=FACE_OUTER_BOUND('',#166,.T.);
#106=FACE_OUTER_BOUND('',#167,.T.);
#107=FACE_OUTER_BOUND('',#169,.T.);
#108=FACE_OUTER_BOUND('',#170,.T.);
#109=FACE_OUTER_BOUND('',#171,.T.);
#110=FACE_OUTER_BOUND('',#172,.T.);
#111=FACE_OUTER_BOUND('',#173,.T.);
#112=FACE_OUTER_BOUND('',#174,.T.);
#113=FACE_OUTER_BOUND('',#175,.T.);
#114=FACE_OUTER_BOUND('',#176,.T.);
#115=FACE_OUTER_BOUND('',#177,.T.);
#116=FACE_OUTER_BOUND('',#178,.T.);
#117=FACE_OUTER_BOUND('',#179,.T.);
#118=FACE_OUTER_BOUND('',#180,.T.);
#119=FACE_OUTER_BOUND('',#181,.T.);
#120=FACE_OUTER_BOUND('',#182,.T.);
#121=FACE_OUTER_BOUND('',#183,.T.);
#122=FACE_OUTER_BOUND('',#184,.T.);
#123=EDGE_LOOP('',(#615,#616,#617,#618,#619,#620));
#124=EDGE_LOOP('',(#621,#622,#623,#624,#625));
#125=EDGE_LOOP('',(#626,#627,#628,#629,#630,#631));
#126=EDGE_LOOP('',(#632,#633,#634,#635,#636));
#127=EDGE_LOOP('',(#637,#638,#639,#640));
#128=EDGE_LOOP('',(#641,#642,#643,#644,#645));
#129=EDGE_LOOP('',(#646));
#130=EDGE_LOOP('',(#647,#648,#649,#650));
#131=EDGE_LOOP('',(#651,#652,#653,#654,#655));
#132=EDGE_LOOP('',(#656,#657,#658,#659,#660));
#133=EDGE_LOOP('',(#661,#662,#663,#664));
#134=EDGE_LOOP('',(#665,#666,#667,#668));
#135=EDGE_LOOP('',(#669,#670,#671,#672,#673,#674));
#136=EDGE_LOOP('',(#675,#676,#677,#678,#679,#680,#681,#682));
#137=EDGE_LOOP('',(#683,#684,#685,#686));
#138=EDGE_LOOP('',(#687,#688,#689,#690));
#139=EDGE_LOOP('',(#691,#692,#693,#694));
#140=EDGE_LOOP('',(#695,#696,#697,#698));
#141=EDGE_LOOP('',(#699));
#142=EDGE_LOOP('',(#700,#701,#702,#703,#704,#705,#706,#707));
#143=EDGE_LOOP('',(#708,#709,#710,#711));
#144=EDGE_LOOP('',(#712,#713,#714,#715));
#145=EDGE_LOOP('',(#716,#717,#718,#719,#720,#721));
#146=EDGE_LOOP('',(#722,#723,#724,#725,#726));
#147=EDGE_LOOP('',(#727,#728,#729,#730,#731,#732));
#148=EDGE_LOOP('',(#733,#734,#735,#736,#737));
#149=EDGE_LOOP('',(#738,#739,#740,#741));
#150=EDGE_LOOP('',(#742,#743,#744,#745,#746));
#151=EDGE_LOOP('',(#747));
#152=EDGE_LOOP('',(#748,#749,#750,#751));
#153=EDGE_LOOP('',(#752,#753,#754,#755,#756));
#154=EDGE_LOOP('',(#757,#758,#759,#760,#761));
#155=EDGE_LOOP('',(#762,#763,#764,#765));
#156=EDGE_LOOP('',(#766,#767,#768,#769));
#157=EDGE_LOOP('',(#770,#771,#772,#773,#774,#775));
#158=EDGE_LOOP('',(#776,#777,#778,#779,#780,#781,#782,#783));
#159=EDGE_LOOP('',(#784,#785,#786,#787));
#160=EDGE_LOOP('',(#788,#789,#790,#791));
#161=EDGE_LOOP('',(#792,#793,#794,#795));
#162=EDGE_LOOP('',(#796,#797,#798,#799));
#163=EDGE_LOOP('',(#800));
#164=EDGE_LOOP('',(#801));
#165=EDGE_LOOP('',(#802,#803,#804,#805));
#166=EDGE_LOOP('',(#806,#807,#808,#809));
#167=EDGE_LOOP('',(#810,#811,#812,#813,#814,#815,#816,#817));
#168=EDGE_LOOP('',(#818,#819,#820,#821,#822,#823,#824,#825));
#169=EDGE_LOOP('',(#826,#827,#828,#829));
#170=EDGE_LOOP('',(#830,#831,#832,#833));
#171=EDGE_LOOP('',(#834,#835,#836,#837));
#172=EDGE_LOOP('',(#838,#839,#840,#841));
#173=EDGE_LOOP('',(#842,#843,#844,#845));
#174=EDGE_LOOP('',(#846,#847,#848,#849));
#175=EDGE_LOOP('',(#850,#851,#852,#853));
#176=EDGE_LOOP('',(#854));
#177=EDGE_LOOP('',(#855,#856,#857,#858));
#178=EDGE_LOOP('',(#859,#860,#861,#862));
#179=EDGE_LOOP('',(#863,#864,#865,#866));
#180=EDGE_LOOP('',(#867,#868,#869,#870));
#181=EDGE_LOOP('',(#871,#872,#873,#874));
#182=EDGE_LOOP('',(#875,#876,#877,#878));
#183=EDGE_LOOP('',(#879,#880,#881,#882));
#184=EDGE_LOOP('',(#883,#884,#885,#886,#887,#888,#889,#890));
#185=LINE('',#1390,#279);
#186=LINE('',#1392,#280);
#187=LINE('',#1394,#281);
#188=LINE('',#1397,#282);
#189=LINE('',#1402,#283);
#190=LINE('',#1409,#284);
#191=LINE('',#1411,#285);
#192=LINE('',#1415,#286);
#193=LINE('',#1419,#287);
#194=LINE('',#1420,#288);
#195=LINE('',#1423,#289);
#196=LINE('',#1425,#290);
#197=LINE('',#1426,#291);
#198=LINE('',#1431,#292);
#199=LINE('',#1433,#293);
#200=LINE('',#1434,#294);
#201=LINE('',#1440,#295);
#202=LINE('',#1442,#296);
#203=LINE('',#1443,#297);
#204=LINE('',#1446,#298);
#205=LINE('',#1450,#299);
#206=LINE('',#1454,#300);
#207=LINE('',#1458,#301);
#208=LINE('',#1462,#302);
#209=LINE('',#1464,#303);
#210=LINE('',#1465,#304);
#211=LINE('',#1468,#305);
#212=LINE('',#1470,#306);
#213=LINE('',#1471,#307);
#214=LINE('',#1473,#308);
#215=LINE('',#1474,#309);
#216=LINE('',#1481,#310);
#217=LINE('',#1485,#311);
#218=LINE('',#1489,#312);
#219=LINE('',#1492,#313);
#220=LINE('',#1497,#314);
#221=LINE('',#1499,#315);
#222=LINE('',#1500,#316);
#223=LINE('',#1506,#317);
#224=LINE('',#1508,#318);
#225=LINE('',#1510,#319);
#226=LINE('',#1513,#320);
#227=LINE('',#1518,#321);
#228=LINE('',#1525,#322);
#229=LINE('',#1527,#323);
#230=LINE('',#1531,#324);
#231=LINE('',#1535,#325);
#232=LINE('',#1536,#326);
#233=LINE('',#1539,#327);
#234=LINE('',#1541,#328);
#235=LINE('',#1542,#329);
#236=LINE('',#1547,#330);
#237=LINE('',#1549,#331);
#238=LINE('',#1550,#332);
#239=LINE('',#1556,#333);
#240=LINE('',#1558,#334);
#241=LINE('',#1559,#335);
#242=LINE('',#1562,#336);
#243=LINE('',#1565,#337);
#244=LINE('',#1567,#338);
#245=LINE('',#1571,#339);
#246=LINE('',#1575,#340);
#247=LINE('',#1576,#341);
#248=LINE('',#1579,#342);
#249=LINE('',#1580,#343);
#250=LINE('',#1582,#344);
#251=LINE('',#1590,#345);
#252=LINE('',#1593,#346);
#253=LINE('',#1596,#347);
#254=LINE('',#1598,#348);
#255=LINE('',#1599,#349);
#256=LINE('',#1602,#350);
#257=LINE('',#1606,#351);
#258=LINE('',#1610,#352);
#259=LINE('',#1614,#353);
#260=LINE('',#1618,#354);
#261=LINE('',#1622,#355);
#262=LINE('',#1626,#356);
#263=LINE('',#1630,#357);
#264=LINE('',#1634,#358);
#265=LINE('',#1635,#359);
#266=LINE('',#1638,#360);
#267=LINE('',#1642,#361);
#268=LINE('',#1643,#362);
#269=LINE('',#1647,#363);
#270=LINE('',#1649,#364);
#271=LINE('',#1650,#365);
#272=LINE('',#1652,#366);
#273=LINE('',#1655,#367);
#274=LINE('',#1657,#368);
#275=LINE('',#1659,#369);
#276=LINE('',#1661,#370);
#277=LINE('',#1663,#371);
#278=LINE('',#1665,#372);
#279=VECTOR('',#1100,10.);
#280=VECTOR('',#1101,10.);
#281=VECTOR('',#1102,10.);
#282=VECTOR('',#1105,10.);
#283=VECTOR('',#1110,10.);
#284=VECTOR('',#1117,10.);
#285=VECTOR('',#1118,10.);
#286=VECTOR('',#1123,10.);
#287=VECTOR('',#1128,10.);
#288=VECTOR('',#1129,10.);
#289=VECTOR('',#1132,10.);
#290=VECTOR('',#1133,10.);
#291=VECTOR('',#1134,10.);
#292=VECTOR('',#1139,10.);
#293=VECTOR('',#1140,10.);
#294=VECTOR('',#1141,10.);
#295=VECTOR('',#1148,1.6);
#296=VECTOR('',#1151,10.);
#297=VECTOR('',#1152,10.);
#298=VECTOR('',#1157,10.);
#299=VECTOR('',#1160,10.);
#300=VECTOR('',#1163,10.);
#301=VECTOR('',#1168,1.6);
#302=VECTOR('',#1173,10.);
#303=VECTOR('',#1174,10.);
#304=VECTOR('',#1175,10.);
#305=VECTOR('',#1178,10.);
#306=VECTOR('',#1179,10.);
#307=VECTOR('',#1180,10.);
#308=VECTOR('',#1183,10.);
#309=VECTOR('',#1184,10.);
#310=VECTOR('',#1191,10.);
#311=VECTOR('',#1194,10.);
#312=VECTOR('',#1197,10.);
#313=VECTOR('',#1200,10.);
#314=VECTOR('',#1203,10.);
#315=VECTOR('',#1204,10.);
#316=VECTOR('',#1205,10.);
#317=VECTOR('',#1210,10.);
#318=VECTOR('',#1211,10.);
#319=VECTOR('',#1212,10.);
#320=VECTOR('',#1215,10.);
#321=VECTOR('',#1220,10.);
#322=VECTOR('',#1227,10.);
#323=VECTOR('',#1228,10.);
#324=VECTOR('',#1233,10.);
#325=VECTOR('',#1238,10.);
#326=VECTOR('',#1239,10.);
#327=VECTOR('',#1242,10.);
#328=VECTOR('',#1243,10.);
#329=VECTOR('',#1244,10.);
#330=VECTOR('',#1249,10.);
#331=VECTOR('',#1250,10.);
#332=VECTOR('',#1251,10.);
#333=VECTOR('',#1258,1.6);
#334=VECTOR('',#1261,10.);
#335=VECTOR('',#1262,10.);
#336=VECTOR('',#1267,10.);
#337=VECTOR('',#1270,10.);
#338=VECTOR('',#1271,10.);
#339=VECTOR('',#1276,1.6);
#340=VECTOR('',#1281,10.);
#341=VECTOR('',#1282,10.);
#342=VECTOR('',#1285,10.);
#343=VECTOR('',#1286,10.);
#344=VECTOR('',#1289,10.);
#345=VECTOR('',#1298,10.);
#346=VECTOR('',#1301,10.);
#347=VECTOR('',#1304,10.);
#348=VECTOR('',#1305,10.);
#349=VECTOR('',#1306,10.);
#350=VECTOR('',#1309,10.);
#351=VECTOR('',#1312,10.);
#352=VECTOR('',#1315,10.);
#353=VECTOR('',#1318,10.);
#354=VECTOR('',#1321,10.);
#355=VECTOR('',#1324,10.);
#356=VECTOR('',#1327,10.);
#357=VECTOR('',#1332,10.);
#358=VECTOR('',#1337,10.);
#359=VECTOR('',#1338,10.);
#360=VECTOR('',#1341,10.);
#361=VECTOR('',#1346,10.);
#362=VECTOR('',#1347,10.);
#363=VECTOR('',#1352,10.);
#364=VECTOR('',#1355,10.);
#365=VECTOR('',#1356,10.);
#366=VECTOR('',#1359,10.);
#367=VECTOR('',#1364,10.);
#368=VECTOR('',#1367,10.);
#369=VECTOR('',#1370,10.);
#370=VECTOR('',#1373,10.);
#371=VECTOR('',#1376,10.);
#372=VECTOR('',#1379,10.);
#373=ELLIPSE('',#998,2.26274169979176,1.60000000000733);
#374=ELLIPSE('',#999,5.65685424949236,4.);
#375=ELLIPSE('',#1005,2.26274169979176,1.60000000000733);
#376=ELLIPSE('',#1006,5.65685424949236,4.);
#377=ELLIPSE('',#1028,0.904072418988385,0.9);
#378=ELLIPSE('',#1029,17.8805433977703,17.8);
#379=ELLIPSE('',#1030,1.90859732897548,1.9);
#380=ELLIPSE('',#1031,1.80814483797677,1.8);
#381=ELLIPSE('',#1034,2.26274169979176,1.60000000000733);
#382=ELLIPSE('',#1035,5.65685424949236,4.);
#383=ELLIPSE('',#1041,2.26274169979176,1.60000000000733);
#384=ELLIPSE('',#1042,5.65685424949236,4.);
#385=VERTEX_POINT('',#1386);
#386=VERTEX_POINT('',#1387);
#387=VERTEX_POINT('',#1389);
#388=VERTEX_POINT('',#1391);
#389=VERTEX_POINT('',#1393);
#390=VERTEX_POINT('',#1395);
#391=VERTEX_POINT('',#1399);
#392=VERTEX_POINT('',#1401);
#393=VERTEX_POINT('',#1403);
#394=VERTEX_POINT('',#1407);
#395=VERTEX_POINT('',#1408);
#396=VERTEX_POINT('',#1410);
#397=VERTEX_POINT('',#1413);
#398=VERTEX_POINT('',#1418);
#399=VERTEX_POINT('',#1422);
#400=VERTEX_POINT('',#1424);
#401=VERTEX_POINT('',#1428);
#402=VERTEX_POINT('',#1430);
#403=VERTEX_POINT('',#1432);
#404=VERTEX_POINT('',#1435);
#405=VERTEX_POINT('',#1438);
#406=VERTEX_POINT('',#1448);
#407=VERTEX_POINT('',#1449);
#408=VERTEX_POINT('',#1451);
#409=VERTEX_POINT('',#1453);
#410=VERTEX_POINT('',#1457);
#411=VERTEX_POINT('',#1461);
#412=VERTEX_POINT('',#1463);
#413=VERTEX_POINT('',#1467);
#414=VERTEX_POINT('',#1469);
#415=VERTEX_POINT('',#1477);
#416=VERTEX_POINT('',#1478);
#417=VERTEX_POINT('',#1480);
#418=VERTEX_POINT('',#1482);
#419=VERTEX_POINT('',#1484);
#420=VERTEX_POINT('',#1486);
#421=VERTEX_POINT('',#1488);
#422=VERTEX_POINT('',#1490);
#423=VERTEX_POINT('',#1493);
#424=VERTEX_POINT('',#1494);
#425=VERTEX_POINT('',#1496);
#426=VERTEX_POINT('',#1498);
#427=VERTEX_POINT('',#1502);
#428=VERTEX_POINT('',#1503);
#429=VERTEX_POINT('',#1505);
#430=VERTEX_POINT('',#1507);
#431=VERTEX_POINT('',#1509);
#432=VERTEX_POINT('',#1511);
#433=VERTEX_POINT('',#1515);
#434=VERTEX_POINT('',#1517);
#435=VERTEX_POINT('',#1519);
#436=VERTEX_POINT('',#1523);
#437=VERTEX_POINT('',#1524);
#438=VERTEX_POINT('',#1526);
#439=VERTEX_POINT('',#1529);
#440=VERTEX_POINT('',#1534);
#441=VERTEX_POINT('',#1538);
#442=VERTEX_POINT('',#1540);
#443=VERTEX_POINT('',#1544);
#444=VERTEX_POINT('',#1546);
#445=VERTEX_POINT('',#1548);
#446=VERTEX_POINT('',#1551);
#447=VERTEX_POINT('',#1554);
#448=VERTEX_POINT('',#1564);
#449=VERTEX_POINT('',#1566);
#450=VERTEX_POINT('',#1570);
#451=VERTEX_POINT('',#1574);
#452=VERTEX_POINT('',#1578);
#453=VERTEX_POINT('',#1586);
#454=VERTEX_POINT('',#1587);
#455=VERTEX_POINT('',#1589);
#456=VERTEX_POINT('',#1591);
#457=VERTEX_POINT('',#1595);
#458=VERTEX_POINT('',#1597);
#459=VERTEX_POINT('',#1601);
#460=VERTEX_POINT('',#1603);
#461=VERTEX_POINT('',#1605);
#462=VERTEX_POINT('',#1607);
#463=VERTEX_POINT('',#1609);
#464=VERTEX_POINT('',#1612);
#465=VERTEX_POINT('',#1613);
#466=VERTEX_POINT('',#1615);
#467=VERTEX_POINT('',#1617);
#468=VERTEX_POINT('',#1619);
#469=VERTEX_POINT('',#1621);
#470=VERTEX_POINT('',#1623);
#471=VERTEX_POINT('',#1625);
#472=VERTEX_POINT('',#1629);
#473=VERTEX_POINT('',#1633);
#474=VERTEX_POINT('',#1637);
#475=VERTEX_POINT('',#1641);
#476=VERTEX_POINT('',#1645);
#477=EDGE_CURVE('',#385,#386,#373,.F.);
#478=EDGE_CURVE('',#387,#386,#185,.T.);
#479=EDGE_CURVE('',#387,#388,#186,.T.);
#480=EDGE_CURVE('',#389,#388,#187,.T.);
#481=EDGE_CURVE('',#390,#389,#374,.T.);
#482=EDGE_CURVE('',#385,#390,#188,.T.);
#483=EDGE_CURVE('',#390,#391,#38,.T.);
#484=EDGE_CURVE('',#391,#392,#189,.T.);
#485=EDGE_CURVE('',#392,#393,#39,.T.);
#486=EDGE_CURVE('',#393,#385,#40,.T.);
#487=EDGE_CURVE('',#394,#395,#190,.T.);
#488=EDGE_CURVE('',#396,#395,#191,.T.);
#489=EDGE_CURVE('',#396,#392,#375,.F.);
#490=EDGE_CURVE('',#397,#391,#376,.T.);
#491=EDGE_CURVE('',#394,#397,#192,.T.);
#492=EDGE_CURVE('',#386,#396,#41,.T.);
#493=EDGE_CURVE('',#395,#398,#193,.T.);
#494=EDGE_CURVE('',#398,#387,#194,.T.);
#495=EDGE_CURVE('',#397,#399,#195,.T.);
#496=EDGE_CURVE('',#400,#399,#196,.T.);
#497=EDGE_CURVE('',#400,#394,#197,.T.);
#498=EDGE_CURVE('',#399,#401,#42,.T.);
#499=EDGE_CURVE('',#401,#402,#198,.T.);
#500=EDGE_CURVE('',#402,#403,#199,.T.);
#501=EDGE_CURVE('',#403,#400,#200,.T.);
#502=EDGE_CURVE('',#404,#404,#43,.T.);
#503=EDGE_CURVE('',#405,#405,#44,.T.);
#504=EDGE_CURVE('',#405,#404,#201,.T.);
#505=EDGE_CURVE('',#403,#398,#202,.T.);
#506=EDGE_CURVE('',#388,#402,#203,.T.);
#507=EDGE_CURVE('',#401,#389,#204,.T.);
#508=EDGE_CURVE('',#406,#407,#205,.T.);
#509=EDGE_CURVE('',#407,#408,#45,.T.);
#510=EDGE_CURVE('',#409,#408,#206,.T.);
#511=EDGE_CURVE('',#409,#406,#46,.T.);
#512=EDGE_CURVE('',#393,#410,#207,.T.);
#513=EDGE_CURVE('',#410,#410,#47,.T.);
#514=EDGE_CURVE('',#406,#411,#208,.T.);
#515=EDGE_CURVE('',#411,#412,#209,.T.);
#516=EDGE_CURVE('',#412,#407,#210,.T.);
#517=EDGE_CURVE('',#411,#413,#211,.T.);
#518=EDGE_CURVE('',#413,#414,#212,.T.);
#519=EDGE_CURVE('',#414,#412,#213,.T.);
#520=EDGE_CURVE('',#413,#409,#214,.T.);
#521=EDGE_CURVE('',#408,#414,#215,.T.);
#522=EDGE_CURVE('',#415,#416,#377,.T.);
#523=EDGE_CURVE('',#415,#417,#216,.T.);
#524=EDGE_CURVE('',#418,#417,#378,.T.);
#525=EDGE_CURVE('',#419,#418,#217,.F.);
#526=EDGE_CURVE('',#420,#419,#379,.T.);
#527=EDGE_CURVE('',#420,#421,#218,.T.);
#528=EDGE_CURVE('',#422,#421,#380,.T.);
#529=EDGE_CURVE('',#422,#416,#219,.T.);
#530=EDGE_CURVE('',#423,#424,#48,.T.);
#531=EDGE_CURVE('',#425,#423,#220,.T.);
#532=EDGE_CURVE('',#426,#425,#221,.T.);
#533=EDGE_CURVE('',#424,#426,#222,.T.);
#534=EDGE_CURVE('',#427,#428,#381,.F.);
#535=EDGE_CURVE('',#429,#428,#223,.T.);
#536=EDGE_CURVE('',#429,#430,#224,.T.);
#537=EDGE_CURVE('',#431,#430,#225,.T.);
#538=EDGE_CURVE('',#432,#431,#382,.T.);
#539=EDGE_CURVE('',#427,#432,#226,.T.);
#540=EDGE_CURVE('',#432,#433,#49,.T.);
#541=EDGE_CURVE('',#433,#434,#227,.T.);
#542=EDGE_CURVE('',#434,#435,#50,.T.);
#543=EDGE_CURVE('',#435,#427,#51,.T.);
#544=EDGE_CURVE('',#436,#437,#228,.T.);
#545=EDGE_CURVE('',#438,#437,#229,.T.);
#546=EDGE_CURVE('',#438,#434,#383,.F.);
#547=EDGE_CURVE('',#439,#433,#384,.T.);
#548=EDGE_CURVE('',#436,#439,#230,.T.);
#549=EDGE_CURVE('',#428,#438,#52,.T.);
#550=EDGE_CURVE('',#437,#440,#231,.T.);
#551=EDGE_CURVE('',#440,#429,#232,.T.);
#552=EDGE_CURVE('',#439,#441,#233,.T.);
#553=EDGE_CURVE('',#442,#441,#234,.T.);
#554=EDGE_CURVE('',#442,#436,#235,.T.);
#555=EDGE_CURVE('',#441,#443,#53,.T.);
#556=EDGE_CURVE('',#443,#444,#236,.T.);
#557=EDGE_CURVE('',#444,#445,#237,.T.);
#558=EDGE_CURVE('',#445,#442,#238,.T.);
#559=EDGE_CURVE('',#446,#446,#54,.T.);
#560=EDGE_CURVE('',#447,#447,#55,.T.);
#561=EDGE_CURVE('',#447,#446,#239,.T.);
#562=EDGE_CURVE('',#445,#440,#240,.T.);
#563=EDGE_CURVE('',#430,#444,#241,.T.);
#564=EDGE_CURVE('',#443,#431,#242,.T.);
#565=EDGE_CURVE('',#448,#423,#243,.T.);
#566=EDGE_CURVE('',#449,#424,#244,.T.);
#567=EDGE_CURVE('',#449,#448,#56,.T.);
#568=EDGE_CURVE('',#435,#450,#245,.T.);
#569=EDGE_CURVE('',#450,#450,#57,.T.);
#570=EDGE_CURVE('',#448,#451,#246,.T.);
#571=EDGE_CURVE('',#451,#425,#247,.T.);
#572=EDGE_CURVE('',#451,#452,#248,.T.);
#573=EDGE_CURVE('',#452,#426,#249,.T.);
#574=EDGE_CURVE('',#452,#449,#250,.T.);
#575=EDGE_CURVE('',#453,#454,#58,.T.);
#576=EDGE_CURVE('',#454,#455,#251,.T.);
#577=EDGE_CURVE('',#455,#456,#59,.T.);
#578=EDGE_CURVE('',#456,#453,#252,.T.);
#579=EDGE_CURVE('',#454,#457,#253,.T.);
#580=EDGE_CURVE('',#458,#457,#254,.T.);
#581=EDGE_CURVE('',#458,#455,#255,.F.);
#582=EDGE_CURVE('',#459,#453,#256,.T.);
#583=EDGE_CURVE('',#460,#459,#60,.T.);
#584=EDGE_CURVE('',#461,#460,#257,.T.);
#585=EDGE_CURVE('',#462,#461,#61,.T.);
#586=EDGE_CURVE('',#463,#462,#258,.T.);
#587=EDGE_CURVE('',#457,#463,#62,.T.);
#588=EDGE_CURVE('',#464,#465,#259,.F.);
#589=EDGE_CURVE('',#466,#464,#63,.F.);
#590=EDGE_CURVE('',#467,#466,#260,.F.);
#591=EDGE_CURVE('',#468,#467,#64,.F.);
#592=EDGE_CURVE('',#469,#468,#261,.F.);
#593=EDGE_CURVE('',#470,#469,#65,.F.);
#594=EDGE_CURVE('',#471,#470,#262,.F.);
#595=EDGE_CURVE('',#465,#471,#66,.F.);
#596=EDGE_CURVE('',#463,#472,#263,.T.);
#597=EDGE_CURVE('',#472,#458,#67,.T.);
#598=EDGE_CURVE('',#473,#462,#264,.T.);
#599=EDGE_CURVE('',#473,#472,#265,.F.);
#600=EDGE_CURVE('',#461,#474,#266,.T.);
#601=EDGE_CURVE('',#474,#473,#68,.T.);
#602=EDGE_CURVE('',#475,#460,#267,.T.);
#603=EDGE_CURVE('',#475,#474,#268,.F.);
#604=EDGE_CURVE('',#476,#475,#69,.T.);
#605=EDGE_CURVE('',#459,#476,#269,.T.);
#606=EDGE_CURVE('',#416,#465,#270,.T.);
#607=EDGE_CURVE('',#471,#415,#271,.T.);
#608=EDGE_CURVE('',#464,#422,#272,.T.);
#609=EDGE_CURVE('',#421,#466,#273,.T.);
#610=EDGE_CURVE('',#467,#420,#274,.T.);
#611=EDGE_CURVE('',#419,#468,#275,.T.);
#612=EDGE_CURVE('',#469,#418,#276,.T.);
#613=EDGE_CURVE('',#417,#470,#277,.T.);
#614=EDGE_CURVE('',#456,#476,#278,.F.);
#615=ORIENTED_EDGE('',*,*,#477,.T.);
#616=ORIENTED_EDGE('',*,*,#478,.F.);
#617=ORIENTED_EDGE('',*,*,#479,.T.);
#618=ORIENTED_EDGE('',*,*,#480,.F.);
#619=ORIENTED_EDGE('',*,*,#481,.F.);
#620=ORIENTED_EDGE('',*,*,#482,.F.);
#621=ORIENTED_EDGE('',*,*,#482,.T.);
#622=ORIENTED_EDGE('',*,*,#483,.T.);
#623=ORIENTED_EDGE('',*,*,#484,.T.);
#624=ORIENTED_EDGE('',*,*,#485,.T.);
#625=ORIENTED_EDGE('',*,*,#486,.T.);
#626=ORIENTED_EDGE('',*,*,#487,.T.);
#627=ORIENTED_EDGE('',*,*,#488,.F.);
#628=ORIENTED_EDGE('',*,*,#489,.T.);
#629=ORIENTED_EDGE('',*,*,#484,.F.);
#630=ORIENTED_EDGE('',*,*,#490,.F.);
#631=ORIENTED_EDGE('',*,*,#491,.F.);
#632=ORIENTED_EDGE('',*,*,#478,.T.);
#633=ORIENTED_EDGE('',*,*,#492,.T.);
#634=ORIENTED_EDGE('',*,*,#488,.T.);
#635=ORIENTED_EDGE('',*,*,#493,.T.);
#636=ORIENTED_EDGE('',*,*,#494,.T.);
#637=ORIENTED_EDGE('',*,*,#491,.T.);
#638=ORIENTED_EDGE('',*,*,#495,.T.);
#639=ORIENTED_EDGE('',*,*,#496,.F.);
#640=ORIENTED_EDGE('',*,*,#497,.T.);
#641=ORIENTED_EDGE('',*,*,#496,.T.);
#642=ORIENTED_EDGE('',*,*,#498,.T.);
#643=ORIENTED_EDGE('',*,*,#499,.T.);
#644=ORIENTED_EDGE('',*,*,#500,.T.);
#645=ORIENTED_EDGE('',*,*,#501,.T.);
#646=ORIENTED_EDGE('',*,*,#502,.T.);
#647=ORIENTED_EDGE('',*,*,#503,.T.);
#648=ORIENTED_EDGE('',*,*,#504,.T.);
#649=ORIENTED_EDGE('',*,*,#502,.F.);
#650=ORIENTED_EDGE('',*,*,#504,.F.);
#651=ORIENTED_EDGE('',*,*,#479,.F.);
#652=ORIENTED_EDGE('',*,*,#494,.F.);
#653=ORIENTED_EDGE('',*,*,#505,.F.);
#654=ORIENTED_EDGE('',*,*,#500,.F.);
#655=ORIENTED_EDGE('',*,*,#506,.F.);
#656=ORIENTED_EDGE('',*,*,#487,.F.);
#657=ORIENTED_EDGE('',*,*,#497,.F.);
#658=ORIENTED_EDGE('',*,*,#501,.F.);
#659=ORIENTED_EDGE('',*,*,#505,.T.);
#660=ORIENTED_EDGE('',*,*,#493,.F.);
#661=ORIENTED_EDGE('',*,*,#480,.T.);
#662=ORIENTED_EDGE('',*,*,#506,.T.);
#663=ORIENTED_EDGE('',*,*,#499,.F.);
#664=ORIENTED_EDGE('',*,*,#507,.T.);
#665=ORIENTED_EDGE('',*,*,#508,.T.);
#666=ORIENTED_EDGE('',*,*,#509,.T.);
#667=ORIENTED_EDGE('',*,*,#510,.F.);
#668=ORIENTED_EDGE('',*,*,#511,.T.);
#669=ORIENTED_EDGE('',*,*,#507,.F.);
#670=ORIENTED_EDGE('',*,*,#498,.F.);
#671=ORIENTED_EDGE('',*,*,#495,.F.);
#672=ORIENTED_EDGE('',*,*,#490,.T.);
#673=ORIENTED_EDGE('',*,*,#483,.F.);
#674=ORIENTED_EDGE('',*,*,#481,.T.);
#675=ORIENTED_EDGE('',*,*,#485,.F.);
#676=ORIENTED_EDGE('',*,*,#489,.F.);
#677=ORIENTED_EDGE('',*,*,#492,.F.);
#678=ORIENTED_EDGE('',*,*,#477,.F.);
#679=ORIENTED_EDGE('',*,*,#486,.F.);
#680=ORIENTED_EDGE('',*,*,#512,.T.);
#681=ORIENTED_EDGE('',*,*,#513,.F.);
#682=ORIENTED_EDGE('',*,*,#512,.F.);
#683=ORIENTED_EDGE('',*,*,#514,.T.);
#684=ORIENTED_EDGE('',*,*,#515,.T.);
#685=ORIENTED_EDGE('',*,*,#516,.T.);
#686=ORIENTED_EDGE('',*,*,#508,.F.);
#687=ORIENTED_EDGE('',*,*,#517,.T.);
#688=ORIENTED_EDGE('',*,*,#518,.T.);
#689=ORIENTED_EDGE('',*,*,#519,.T.);
#690=ORIENTED_EDGE('',*,*,#515,.F.);
#691=ORIENTED_EDGE('',*,*,#520,.T.);
#692=ORIENTED_EDGE('',*,*,#510,.T.);
#693=ORIENTED_EDGE('',*,*,#521,.T.);
#694=ORIENTED_EDGE('',*,*,#518,.F.);
#695=ORIENTED_EDGE('',*,*,#511,.F.);
#696=ORIENTED_EDGE('',*,*,#520,.F.);
#697=ORIENTED_EDGE('',*,*,#517,.F.);
#698=ORIENTED_EDGE('',*,*,#514,.F.);
#699=ORIENTED_EDGE('',*,*,#513,.T.);
#700=ORIENTED_EDGE('',*,*,#522,.F.);
#701=ORIENTED_EDGE('',*,*,#523,.T.);
#702=ORIENTED_EDGE('',*,*,#524,.F.);
#703=ORIENTED_EDGE('',*,*,#525,.F.);
#704=ORIENTED_EDGE('',*,*,#526,.F.);
#705=ORIENTED_EDGE('',*,*,#527,.T.);
#706=ORIENTED_EDGE('',*,*,#528,.F.);
#707=ORIENTED_EDGE('',*,*,#529,.T.);
#708=ORIENTED_EDGE('',*,*,#530,.F.);
#709=ORIENTED_EDGE('',*,*,#531,.F.);
#710=ORIENTED_EDGE('',*,*,#532,.F.);
#711=ORIENTED_EDGE('',*,*,#533,.F.);
#712=ORIENTED_EDGE('',*,*,#509,.F.);
#713=ORIENTED_EDGE('',*,*,#516,.F.);
#714=ORIENTED_EDGE('',*,*,#519,.F.);
#715=ORIENTED_EDGE('',*,*,#521,.F.);
#716=ORIENTED_EDGE('',*,*,#534,.T.);
#717=ORIENTED_EDGE('',*,*,#535,.F.);
#718=ORIENTED_EDGE('',*,*,#536,.T.);
#719=ORIENTED_EDGE('',*,*,#537,.F.);
#720=ORIENTED_EDGE('',*,*,#538,.F.);
#721=ORIENTED_EDGE('',*,*,#539,.F.);
#722=ORIENTED_EDGE('',*,*,#539,.T.);
#723=ORIENTED_EDGE('',*,*,#540,.T.);
#724=ORIENTED_EDGE('',*,*,#541,.T.);
#725=ORIENTED_EDGE('',*,*,#542,.T.);
#726=ORIENTED_EDGE('',*,*,#543,.T.);
#727=ORIENTED_EDGE('',*,*,#544,.T.);
#728=ORIENTED_EDGE('',*,*,#545,.F.);
#729=ORIENTED_EDGE('',*,*,#546,.T.);
#730=ORIENTED_EDGE('',*,*,#541,.F.);
#731=ORIENTED_EDGE('',*,*,#547,.F.);
#732=ORIENTED_EDGE('',*,*,#548,.F.);
#733=ORIENTED_EDGE('',*,*,#535,.T.);
#734=ORIENTED_EDGE('',*,*,#549,.T.);
#735=ORIENTED_EDGE('',*,*,#545,.T.);
#736=ORIENTED_EDGE('',*,*,#550,.T.);
#737=ORIENTED_EDGE('',*,*,#551,.T.);
#738=ORIENTED_EDGE('',*,*,#548,.T.);
#739=ORIENTED_EDGE('',*,*,#552,.T.);
#740=ORIENTED_EDGE('',*,*,#553,.F.);
#741=ORIENTED_EDGE('',*,*,#554,.T.);
#742=ORIENTED_EDGE('',*,*,#553,.T.);
#743=ORIENTED_EDGE('',*,*,#555,.T.);
#744=ORIENTED_EDGE('',*,*,#556,.T.);
#745=ORIENTED_EDGE('',*,*,#557,.T.);
#746=ORIENTED_EDGE('',*,*,#558,.T.);
#747=ORIENTED_EDGE('',*,*,#559,.T.);
#748=ORIENTED_EDGE('',*,*,#560,.T.);
#749=ORIENTED_EDGE('',*,*,#561,.T.);
#750=ORIENTED_EDGE('',*,*,#559,.F.);
#751=ORIENTED_EDGE('',*,*,#561,.F.);
#752=ORIENTED_EDGE('',*,*,#536,.F.);
#753=ORIENTED_EDGE('',*,*,#551,.F.);
#754=ORIENTED_EDGE('',*,*,#562,.F.);
#755=ORIENTED_EDGE('',*,*,#557,.F.);
#756=ORIENTED_EDGE('',*,*,#563,.F.);
#757=ORIENTED_EDGE('',*,*,#544,.F.);
#758=ORIENTED_EDGE('',*,*,#554,.F.);
#759=ORIENTED_EDGE('',*,*,#558,.F.);
#760=ORIENTED_EDGE('',*,*,#562,.T.);
#761=ORIENTED_EDGE('',*,*,#550,.F.);
#762=ORIENTED_EDGE('',*,*,#537,.T.);
#763=ORIENTED_EDGE('',*,*,#563,.T.);
#764=ORIENTED_EDGE('',*,*,#556,.F.);
#765=ORIENTED_EDGE('',*,*,#564,.T.);
#766=ORIENTED_EDGE('',*,*,#565,.T.);
#767=ORIENTED_EDGE('',*,*,#530,.T.);
#768=ORIENTED_EDGE('',*,*,#566,.F.);
#769=ORIENTED_EDGE('',*,*,#567,.T.);
#770=ORIENTED_EDGE('',*,*,#564,.F.);
#771=ORIENTED_EDGE('',*,*,#555,.F.);
#772=ORIENTED_EDGE('',*,*,#552,.F.);
#773=ORIENTED_EDGE('',*,*,#547,.T.);
#774=ORIENTED_EDGE('',*,*,#540,.F.);
#775=ORIENTED_EDGE('',*,*,#538,.T.);
#776=ORIENTED_EDGE('',*,*,#542,.F.);
#777=ORIENTED_EDGE('',*,*,#546,.F.);
#778=ORIENTED_EDGE('',*,*,#549,.F.);
#779=ORIENTED_EDGE('',*,*,#534,.F.);
#780=ORIENTED_EDGE('',*,*,#543,.F.);
#781=ORIENTED_EDGE('',*,*,#568,.T.);
#782=ORIENTED_EDGE('',*,*,#569,.F.);
#783=ORIENTED_EDGE('',*,*,#568,.F.);
#784=ORIENTED_EDGE('',*,*,#570,.T.);
#785=ORIENTED_EDGE('',*,*,#571,.T.);
#786=ORIENTED_EDGE('',*,*,#531,.T.);
#787=ORIENTED_EDGE('',*,*,#565,.F.);
#788=ORIENTED_EDGE('',*,*,#572,.T.);
#789=ORIENTED_EDGE('',*,*,#573,.T.);
#790=ORIENTED_EDGE('',*,*,#532,.T.);
#791=ORIENTED_EDGE('',*,*,#571,.F.);
#792=ORIENTED_EDGE('',*,*,#574,.T.);
#793=ORIENTED_EDGE('',*,*,#566,.T.);
#794=ORIENTED_EDGE('',*,*,#533,.T.);
#795=ORIENTED_EDGE('',*,*,#573,.F.);
#796=ORIENTED_EDGE('',*,*,#567,.F.);
#797=ORIENTED_EDGE('',*,*,#574,.F.);
#798=ORIENTED_EDGE('',*,*,#572,.F.);
#799=ORIENTED_EDGE('',*,*,#570,.F.);
#800=ORIENTED_EDGE('',*,*,#569,.T.);
#801=ORIENTED_EDGE('',*,*,#503,.F.);
#802=ORIENTED_EDGE('',*,*,#575,.T.);
#803=ORIENTED_EDGE('',*,*,#576,.T.);
#804=ORIENTED_EDGE('',*,*,#577,.T.);
#805=ORIENTED_EDGE('',*,*,#578,.T.);
#806=ORIENTED_EDGE('',*,*,#576,.F.);
#807=ORIENTED_EDGE('',*,*,#579,.T.);
#808=ORIENTED_EDGE('',*,*,#580,.F.);
#809=ORIENTED_EDGE('',*,*,#581,.T.);
#810=ORIENTED_EDGE('',*,*,#575,.F.);
#811=ORIENTED_EDGE('',*,*,#582,.F.);
#812=ORIENTED_EDGE('',*,*,#583,.F.);
#813=ORIENTED_EDGE('',*,*,#584,.F.);
#814=ORIENTED_EDGE('',*,*,#585,.F.);
#815=ORIENTED_EDGE('',*,*,#586,.F.);
#816=ORIENTED_EDGE('',*,*,#587,.F.);
#817=ORIENTED_EDGE('',*,*,#579,.F.);
#818=ORIENTED_EDGE('',*,*,#588,.F.);
#819=ORIENTED_EDGE('',*,*,#589,.F.);
#820=ORIENTED_EDGE('',*,*,#590,.F.);
#821=ORIENTED_EDGE('',*,*,#591,.F.);
#822=ORIENTED_EDGE('',*,*,#592,.F.);
#823=ORIENTED_EDGE('',*,*,#593,.F.);
#824=ORIENTED_EDGE('',*,*,#594,.F.);
#825=ORIENTED_EDGE('',*,*,#595,.F.);
#826=ORIENTED_EDGE('',*,*,#587,.T.);
#827=ORIENTED_EDGE('',*,*,#596,.T.);
#828=ORIENTED_EDGE('',*,*,#597,.T.);
#829=ORIENTED_EDGE('',*,*,#580,.T.);
#830=ORIENTED_EDGE('',*,*,#596,.F.);
#831=ORIENTED_EDGE('',*,*,#586,.T.);
#832=ORIENTED_EDGE('',*,*,#598,.F.);
#833=ORIENTED_EDGE('',*,*,#599,.T.);
#834=ORIENTED_EDGE('',*,*,#585,.T.);
#835=ORIENTED_EDGE('',*,*,#600,.T.);
#836=ORIENTED_EDGE('',*,*,#601,.T.);
#837=ORIENTED_EDGE('',*,*,#598,.T.);
#838=ORIENTED_EDGE('',*,*,#600,.F.);
#839=ORIENTED_EDGE('',*,*,#584,.T.);
#840=ORIENTED_EDGE('',*,*,#602,.F.);
#841=ORIENTED_EDGE('',*,*,#603,.T.);
#842=ORIENTED_EDGE('',*,*,#604,.T.);
#843=ORIENTED_EDGE('',*,*,#602,.T.);
#844=ORIENTED_EDGE('',*,*,#583,.T.);
#845=ORIENTED_EDGE('',*,*,#605,.T.);
#846=ORIENTED_EDGE('',*,*,#522,.T.);
#847=ORIENTED_EDGE('',*,*,#606,.T.);
#848=ORIENTED_EDGE('',*,*,#595,.T.);
#849=ORIENTED_EDGE('',*,*,#607,.T.);
#850=ORIENTED_EDGE('',*,*,#606,.F.);
#851=ORIENTED_EDGE('',*,*,#529,.F.);
#852=ORIENTED_EDGE('',*,*,#608,.F.);
#853=ORIENTED_EDGE('',*,*,#588,.T.);
#854=ORIENTED_EDGE('',*,*,#560,.F.);
#855=ORIENTED_EDGE('',*,*,#528,.T.);
#856=ORIENTED_EDGE('',*,*,#609,.T.);
#857=ORIENTED_EDGE('',*,*,#589,.T.);
#858=ORIENTED_EDGE('',*,*,#608,.T.);
#859=ORIENTED_EDGE('',*,*,#609,.F.);
#860=ORIENTED_EDGE('',*,*,#527,.F.);
#861=ORIENTED_EDGE('',*,*,#610,.F.);
#862=ORIENTED_EDGE('',*,*,#590,.T.);
#863=ORIENTED_EDGE('',*,*,#526,.T.);
#864=ORIENTED_EDGE('',*,*,#611,.T.);
#865=ORIENTED_EDGE('',*,*,#591,.T.);
#866=ORIENTED_EDGE('',*,*,#610,.T.);
#867=ORIENTED_EDGE('',*,*,#611,.F.);
#868=ORIENTED_EDGE('',*,*,#525,.T.);
#869=ORIENTED_EDGE('',*,*,#612,.F.);
#870=ORIENTED_EDGE('',*,*,#592,.T.);
#871=ORIENTED_EDGE('',*,*,#524,.T.);
#872=ORIENTED_EDGE('',*,*,#613,.T.);
#873=ORIENTED_EDGE('',*,*,#593,.T.);
#874=ORIENTED_EDGE('',*,*,#612,.T.);
#875=ORIENTED_EDGE('',*,*,#578,.F.);
#876=ORIENTED_EDGE('',*,*,#614,.T.);
#877=ORIENTED_EDGE('',*,*,#605,.F.);
#878=ORIENTED_EDGE('',*,*,#582,.T.);
#879=ORIENTED_EDGE('',*,*,#607,.F.);
#880=ORIENTED_EDGE('',*,*,#594,.T.);
#881=ORIENTED_EDGE('',*,*,#613,.F.);
#882=ORIENTED_EDGE('',*,*,#523,.F.);
#883=ORIENTED_EDGE('',*,*,#577,.F.);
#884=ORIENTED_EDGE('',*,*,#581,.F.);
#885=ORIENTED_EDGE('',*,*,#597,.F.);
#886=ORIENTED_EDGE('',*,*,#599,.F.);
#887=ORIENTED_EDGE('',*,*,#601,.F.);
#888=ORIENTED_EDGE('',*,*,#603,.F.);
#889=ORIENTED_EDGE('',*,*,#604,.F.);
#890=ORIENTED_EDGE('',*,*,#614,.F.);
#891=PLANE('',#997);
#892=PLANE('',#1000);
#893=PLANE('',#1004);
#894=PLANE('',#1007);
#895=PLANE('',#1009);
#896=PLANE('',#1010);
#897=PLANE('',#1015);
#898=PLANE('',#1016);
#899=PLANE('',#1017);
#900=PLANE('',#1023);
#901=PLANE('',#1024);
#902=PLANE('',#1025);
#903=PLANE('',#1026);
#904=PLANE('',#1027);
#905=PLANE('',#1033);
#906=PLANE('',#1036);
#907=PLANE('',#1040);
#908=PLANE('',#1043);
#909=PLANE('',#1045);
#910=PLANE('',#1046);
#911=PLANE('',#1051);
#912=PLANE('',#1052);
#913=PLANE('',#1053);
#914=PLANE('',#1058);
#915=PLANE('',#1059);
#916=PLANE('',#1060);
#917=PLANE('',#1061);
#918=PLANE('',#1062);
#919=PLANE('',#1066);
#920=PLANE('',#1067);
#921=PLANE('',#1077);
#922=PLANE('',#1080);
#923=PLANE('',#1084);
#924=PLANE('',#1085);
#925=PLANE('',#1087);
#926=PLANE('',#1089);
#927=PLANE('',#1091);
#928=PLANE('',#1092);
#929=PLANE('',#1093);
#930=ADVANCED_FACE('',(#70),#891,.F.);
#931=ADVANCED_FACE('',(#71),#892,.F.);
#932=ADVANCED_FACE('',(#72),#893,.F.);
#933=ADVANCED_FACE('',(#73),#894,.F.);
#934=ADVANCED_FACE('',(#74),#895,.T.);
#935=ADVANCED_FACE('',(#75,#29),#896,.T.);
#936=ADVANCED_FACE('',(#76),#15,.F.);
#937=ADVANCED_FACE('',(#77),#897,.T.);
#938=ADVANCED_FACE('',(#78),#898,.T.);
#939=ADVANCED_FACE('',(#79),#899,.T.);
#940=ADVANCED_FACE('',(#80,#30),#16,.T.);
#941=ADVANCED_FACE('',(#81),#17,.F.);
#942=ADVANCED_FACE('',(#82),#900,.F.);
#943=ADVANCED_FACE('',(#83),#901,.F.);
#944=ADVANCED_FACE('',(#84),#902,.F.);
#945=ADVANCED_FACE('',(#85,#31),#903,.F.);
#946=ADVANCED_FACE('',(#86,#32,#33),#904,.T.);
#947=ADVANCED_FACE('',(#87),#905,.F.);
#948=ADVANCED_FACE('',(#88),#906,.F.);
#949=ADVANCED_FACE('',(#89),#907,.F.);
#950=ADVANCED_FACE('',(#90),#908,.F.);
#951=ADVANCED_FACE('',(#91),#909,.T.);
#952=ADVANCED_FACE('',(#92,#34),#910,.T.);
#953=ADVANCED_FACE('',(#93),#18,.F.);
#954=ADVANCED_FACE('',(#94),#911,.T.);
#955=ADVANCED_FACE('',(#95),#912,.T.);
#956=ADVANCED_FACE('',(#96),#913,.T.);
#957=ADVANCED_FACE('',(#97,#35),#19,.T.);
#958=ADVANCED_FACE('',(#98),#20,.F.);
#959=ADVANCED_FACE('',(#99),#914,.F.);
#960=ADVANCED_FACE('',(#100),#915,.F.);
#961=ADVANCED_FACE('',(#101),#916,.F.);
#962=ADVANCED_FACE('',(#102,#36),#917,.F.);
#963=ADVANCED_FACE('',(#103),#918,.T.);
#964=ADVANCED_FACE('',(#104),#21,.T.);
#965=ADVANCED_FACE('',(#105),#919,.F.);
#966=ADVANCED_FACE('',(#106,#37),#920,.F.);
#967=ADVANCED_FACE('',(#107),#22,.T.);
#968=ADVANCED_FACE('',(#108),#921,.F.);
#969=ADVANCED_FACE('',(#109),#23,.T.);
#970=ADVANCED_FACE('',(#110),#922,.F.);
#971=ADVANCED_FACE('',(#111),#24,.T.);
#972=ADVANCED_FACE('',(#112),#25,.T.);
#973=ADVANCED_FACE('',(#113),#923,.F.);
#974=ADVANCED_FACE('',(#114),#924,.T.);
#975=ADVANCED_FACE('',(#115),#26,.T.);
#976=ADVANCED_FACE('',(#116),#925,.F.);
#977=ADVANCED_FACE('',(#117),#27,.T.);
#978=ADVANCED_FACE('',(#118),#926,.F.);
#979=ADVANCED_FACE('',(#119),#28,.T.);
#980=ADVANCED_FACE('',(#120),#927,.F.);
#981=ADVANCED_FACE('',(#121),#928,.F.);
#982=ADVANCED_FACE('',(#122),#929,.T.);
#983=CLOSED_SHELL('',(#930,#931,#932,#933,#934,#935,#936,#937,#938,#939,
#940,#941,#942,#943,#944,#945,#946,#947,#948,#949,#950,#951,#952,#953,#954,
#955,#956,#957,#958,#959,#960,#961,#962,#963,#964,#965,#966,#967,#968,#969,
#970,#971,#972,#973,#974,#975,#976,#977,#978,#979,#980,#981,#982));
#984=DERIVED_UNIT_ELEMENT(#986,1.);
#985=DERIVED_UNIT_ELEMENT(#1673,-3.);
#986=(
MASS_UNIT()
NAMED_UNIT(*)
SI_UNIT(.KILO.,.GRAM.)
);
#987=DERIVED_UNIT((#984,#985));
#988=MEASURE_REPRESENTATION_ITEM('density measure',
POSITIVE_RATIO_MEASURE(7850.),#987);
#989=PROPERTY_DEFINITION_REPRESENTATION(#994,#991);
#990=PROPERTY_DEFINITION_REPRESENTATION(#995,#992);
#991=REPRESENTATION('material name',(#993),#1670);
#992=REPRESENTATION('density',(#988),#1670);
#993=DESCRIPTIVE_REPRESENTATION_ITEM('Stahl','Stahl');
#994=PROPERTY_DEFINITION('material property','material name',#1680);
#995=PROPERTY_DEFINITION('material property','density of part',#1680);
#996=AXIS2_PLACEMENT_3D('',#1384,#1094,#1095);
#997=AXIS2_PLACEMENT_3D('',#1385,#1096,#1097);
#998=AXIS2_PLACEMENT_3D('',#1388,#1098,#1099);
#999=AXIS2_PLACEMENT_3D('',#1396,#1103,#1104);
#1000=AXIS2_PLACEMENT_3D('',#1398,#1106,#1107);
#1001=AXIS2_PLACEMENT_3D('',#1400,#1108,#1109);
#1002=AXIS2_PLACEMENT_3D('',#1404,#1111,#1112);
#1003=AXIS2_PLACEMENT_3D('',#1405,#1113,#1114);
#1004=AXIS2_PLACEMENT_3D('',#1406,#1115,#1116);
#1005=AXIS2_PLACEMENT_3D('',#1412,#1119,#1120);
#1006=AXIS2_PLACEMENT_3D('',#1414,#1121,#1122);
#1007=AXIS2_PLACEMENT_3D('',#1416,#1124,#1125);
#1008=AXIS2_PLACEMENT_3D('',#1417,#1126,#1127);
#1009=AXIS2_PLACEMENT_3D('',#1421,#1130,#1131);
#1010=AXIS2_PLACEMENT_3D('',#1427,#1135,#1136);
#1011=AXIS2_PLACEMENT_3D('',#1429,#1137,#1138);
#1012=AXIS2_PLACEMENT_3D('',#1436,#1142,#1143);
#1013=AXIS2_PLACEMENT_3D('',#1437,#1144,#1145);
#1014=AXIS2_PLACEMENT_3D('',#1439,#1146,#1147);
#1015=AXIS2_PLACEMENT_3D('',#1441,#1149,#1150);
#1016=AXIS2_PLACEMENT_3D('',#1444,#1153,#1154);
#1017=AXIS2_PLACEMENT_3D('',#1445,#1155,#1156);
#1018=AXIS2_PLACEMENT_3D('',#1447,#1158,#1159);
#1019=AXIS2_PLACEMENT_3D('',#1452,#1161,#1162);
#1020=AXIS2_PLACEMENT_3D('',#1455,#1164,#1165);
#1021=AXIS2_PLACEMENT_3D('',#1456,#1166,#1167);
#1022=AXIS2_PLACEMENT_3D('',#1459,#1169,#1170);
#1023=AXIS2_PLACEMENT_3D('',#1460,#1171,#1172);
#1024=AXIS2_PLACEMENT_3D('',#1466,#1176,#1177);
#1025=AXIS2_PLACEMENT_3D('',#1472,#1181,#1182);
#1026=AXIS2_PLACEMENT_3D('',#1475,#1185,#1186);
#1027=AXIS2_PLACEMENT_3D('',#1476,#1187,#1188);
#1028=AXIS2_PLACEMENT_3D('',#1479,#1189,#1190);
#1029=AXIS2_PLACEMENT_3D('',#1483,#1192,#1193);
#1030=AXIS2_PLACEMENT_3D('',#1487,#1195,#1196);
#1031=AXIS2_PLACEMENT_3D('',#1491,#1198,#1199);
#1032=AXIS2_PLACEMENT_3D('',#1495,#1201,#1202);
#1033=AXIS2_PLACEMENT_3D('',#1501,#1206,#1207);
#1034=AXIS2_PLACEMENT_3D('',#1504,#1208,#1209);
#1035=AXIS2_PLACEMENT_3D('',#1512,#1213,#1214);
#1036=AXIS2_PLACEMENT_3D('',#1514,#1216,#1217);
#1037=AXIS2_PLACEMENT_3D('',#1516,#1218,#1219);
#1038=AXIS2_PLACEMENT_3D('',#1520,#1221,#1222);
#1039=AXIS2_PLACEMENT_3D('',#1521,#1223,#1224);
#1040=AXIS2_PLACEMENT_3D('',#1522,#1225,#1226);
#1041=AXIS2_PLACEMENT_3D('',#1528,#1229,#1230);
#1042=AXIS2_PLACEMENT_3D('',#1530,#1231,#1232);
#1043=AXIS2_PLACEMENT_3D('',#1532,#1234,#1235);
#1044=AXIS2_PLACEMENT_3D('',#1533,#1236,#1237);
#1045=AXIS2_PLACEMENT_3D('',#1537,#1240,#1241);
#1046=AXIS2_PLACEMENT_3D('',#1543,#1245,#1246);
#1047=AXIS2_PLACEMENT_3D('',#1545,#1247,#1248);
#1048=AXIS2_PLACEMENT_3D('',#1552,#1252,#1253);
#1049=AXIS2_PLACEMENT_3D('',#1553,#1254,#1255);
#1050=AXIS2_PLACEMENT_3D('',#1555,#1256,#1257);
#1051=AXIS2_PLACEMENT_3D('',#1557,#1259,#1260);
#1052=AXIS2_PLACEMENT_3D('',#1560,#1263,#1264);
#1053=AXIS2_PLACEMENT_3D('',#1561,#1265,#1266);
#1054=AXIS2_PLACEMENT_3D('',#1563,#1268,#1269);
#1055=AXIS2_PLACEMENT_3D('',#1568,#1272,#1273);
#1056=AXIS2_PLACEMENT_3D('',#1569,#1274,#1275);
#1057=AXIS2_PLACEMENT_3D('',#1572,#1277,#1278);
#1058=AXIS2_PLACEMENT_3D('',#1573,#1279,#1280);
#1059=AXIS2_PLACEMENT_3D('',#1577,#1283,#1284);
#1060=AXIS2_PLACEMENT_3D('',#1581,#1287,#1288);
#1061=AXIS2_PLACEMENT_3D('',#1583,#1290,#1291);
#1062=AXIS2_PLACEMENT_3D('',#1584,#1292,#1293);
#1063=AXIS2_PLACEMENT_3D('',#1585,#1294,#1295);
#1064=AXIS2_PLACEMENT_3D('',#1588,#1296,#1297);
#1065=AXIS2_PLACEMENT_3D('',#1592,#1299,#1300);
#1066=AXIS2_PLACEMENT_3D('',#1594,#1302,#1303);
#1067=AXIS2_PLACEMENT_3D('',#1600,#1307,#1308);
#1068=AXIS2_PLACEMENT_3D('',#1604,#1310,#1311);
#1069=AXIS2_PLACEMENT_3D('',#1608,#1313,#1314);
#1070=AXIS2_PLACEMENT_3D('',#1611,#1316,#1317);
#1071=AXIS2_PLACEMENT_3D('',#1616,#1319,#1320);
#1072=AXIS2_PLACEMENT_3D('',#1620,#1322,#1323);
#1073=AXIS2_PLACEMENT_3D('',#1624,#1325,#1326);
#1074=AXIS2_PLACEMENT_3D('',#1627,#1328,#1329);
#1075=AXIS2_PLACEMENT_3D('',#1628,#1330,#1331);
#1076=AXIS2_PLACEMENT_3D('',#1631,#1333,#1334);
#1077=AXIS2_PLACEMENT_3D('',#1632,#1335,#1336);
#1078=AXIS2_PLACEMENT_3D('',#1636,#1339,#1340);
#1079=AXIS2_PLACEMENT_3D('',#1639,#1342,#1343);
#1080=AXIS2_PLACEMENT_3D('',#1640,#1344,#1345);
#1081=AXIS2_PLACEMENT_3D('',#1644,#1348,#1349);
#1082=AXIS2_PLACEMENT_3D('',#1646,#1350,#1351);
#1083=AXIS2_PLACEMENT_3D('',#1648,#1353,#1354);
#1084=AXIS2_PLACEMENT_3D('',#1651,#1357,#1358);
#1085=AXIS2_PLACEMENT_3D('',#1653,#1360,#1361);
#1086=AXIS2_PLACEMENT_3D('',#1654,#1362,#1363);
#1087=AXIS2_PLACEMENT_3D('',#1656,#1365,#1366);
#1088=AXIS2_PLACEMENT_3D('',#1658,#1368,#1369);
#1089=AXIS2_PLACEMENT_3D('',#1660,#1371,#1372);
#1090=AXIS2_PLACEMENT_3D('',#1662,#1374,#1375);
#1091=AXIS2_PLACEMENT_3D('',#1664,#1377,#1378);
#1092=AXIS2_PLACEMENT_3D('',#1666,#1380,#1381);
#1093=AXIS2_PLACEMENT_3D('',#1667,#1382,#1383);
#1094=DIRECTION('axis',(0.,0.,1.));
#1095=DIRECTION('refdir',(1.,0.,0.));
#1096=DIRECTION('center_axis',(-0.707106781183304,0.629040266266412,-0.322968022287144));
#1097=DIRECTION('ref_axis',(0.415460968226915,-1.66533453693774E-16,-0.909611006903475));
#1098=DIRECTION('center_axis',(0.707106781183304,-0.629040266266412,0.322968022287144));
#1099=DIRECTION('ref_axis',(0.707106781188171,0.629041244059285,-0.322966117835992));
#1100=DIRECTION('',(3.02754458065459E-6,-0.456743064029602,-0.88959865863865));
#1101=DIRECTION('',(-0.654652526400687,-0.755012584095555,-0.0372299279417845));
#1102=DIRECTION('',(-3.02754458065459E-6,0.456743064029602,0.88959865863865));
#1103=DIRECTION('center_axis',(-0.707106781183304,0.629040266266412,-0.322968022287144));
#1104=DIRECTION('ref_axis',(0.70710678118331,0.629042221855046,-0.322964213386323));
#1105=DIRECTION('',(3.02754458065459E-6,-0.456743064029602,-0.88959865863865));
#1106=DIRECTION('center_axis',(4.06756404254584E-31,0.889598658642727,-0.456743064031695));
#1107=DIRECTION('ref_axis',(-1.,3.61849951619217E-31,-1.85783166393754E-31));
#1108=DIRECTION('center_axis',(-4.06756404254584E-31,-0.889598658642727,
0.456743064031695));
#1109=DIRECTION('ref_axis',(0.707106781186546,-0.322966117836734,-0.62904124406073));
#1110=DIRECTION('',(-3.02754458065459E-6,0.456743064029602,0.88959865863865));
#1111=DIRECTION('center_axis',(4.06756404254584E-31,0.889598658642727,-0.456743064031695));
#1112=DIRECTION('ref_axis',(-3.72219904586279E-46,0.456743064031695,0.889598658642727));
#1113=DIRECTION('center_axis',(4.06756404254584E-31,0.889598658642727,-0.456743064031695));
#1114=DIRECTION('ref_axis',(-3.72219904586279E-46,0.456743064031695,0.889598658642727));
#1115=DIRECTION('center_axis',(0.707106781183304,0.629042221855051,-0.322964213386325));
#1116=DIRECTION('ref_axis',(0.415456914232847,1.11022302462516E-16,0.909612858537148));
#1117=DIRECTION('',(-0.654654815009271,0.755010773572285,0.0372264015848493));
#1118=DIRECTION('',(-3.02754458065459E-6,0.456743064029602,0.88959865863865));
#1119=DIRECTION('center_axis',(-0.707106781183304,-0.629042221855051,0.322964213386325));
#1120=DIRECTION('ref_axis',(0.707106781188171,-0.629041244059285,0.322966117835992));
#1121=DIRECTION('center_axis',(0.707106781183304,0.629042221855051,-0.322964213386325));
#1122=DIRECTION('ref_axis',(0.70710678118331,-0.629040266266406,0.322968022287142));
#1123=DIRECTION('',(3.02754458065459E-6,-0.456743064029602,-0.88959865863865));
#1124=DIRECTION('center_axis',(4.06756404254584E-31,0.889598658642727,-0.456743064031695));
#1125=DIRECTION('ref_axis',(-1.,3.61849951619217E-31,-1.85783166393754E-31));
#1126=DIRECTION('center_axis',(4.06756404254584E-31,0.889598658642727,-0.456743064031695));
#1127=DIRECTION('ref_axis',(-3.72219904586279E-46,0.456743064031695,0.889598658642727));
#1128=DIRECTION('',(-0.86602691755276,0.228370334466223,0.444796996853454));
#1129=DIRECTION('',(-0.866023890008179,-0.228372729563379,-0.444801661785197));
#1130=DIRECTION('center_axis',(-0.999999999995417,-1.38280998826073E-6,
-2.69329959793138E-6));
#1131=DIRECTION('ref_axis',(-3.02754458065459E-6,0.456743064029602,0.88959865863865));
#1132=DIRECTION('',(0.,-0.889598658642727,0.456743064031695));
#1133=DIRECTION('',(3.02754458065459E-6,-0.456743064029601,-0.88959865863865));
#1134=DIRECTION('',(0.,0.889598658642726,-0.456743064031696));
#1135=DIRECTION('center_axis',(4.06756404254584E-31,0.889598658642727,-0.456743064031695));
#1136=DIRECTION('ref_axis',(-1.,3.61849951619217E-31,-1.85783166393754E-31));
#1137=DIRECTION('center_axis',(4.06756404254584E-31,0.889598658642727,-0.456743064031695));
#1138=DIRECTION('ref_axis',(0.707106781186546,-0.322966117836734,-0.62904124406073));
#1139=DIRECTION('',(-3.02754458065459E-6,0.456743064029601,0.88959865863865));
#1140=DIRECTION('',(0.866023890008179,0.228372729563379,0.444801661785197));
#1141=DIRECTION('',(0.86602691755276,-0.228370334466223,-0.444796996853454));
#1142=DIRECTION('center_axis',(-4.06756404254584E-31,-0.889598658642727,
0.456743064031695));
#1143=DIRECTION('ref_axis',(-1.,3.61849951619217E-31,-1.85783166393753E-31));
#1144=DIRECTION('center_axis',(0.,0.889598658642726,-0.456743064031696));
#1145=DIRECTION('ref_axis',(-1.,0.,0.));
#1146=DIRECTION('center_axis',(0.,-0.889598658642727,0.456743064031694));
#1147=DIRECTION('ref_axis',(-1.,0.,0.));
#1148=DIRECTION('',(0.,0.889598658642726,-0.456743064031696));
#1149=DIRECTION('center_axis',(0.500002621928226,-0.395550405046984,-0.770413690903833));
#1150=DIRECTION('ref_axis',(-0.86602389000818,-0.228372729563379,-0.444801661785197));
#1151=DIRECTION('',(0.,0.889598658642726,-0.456743064031696));
#1152=DIRECTION('',(0.,-0.889598658642725,0.456743064031698));
#1153=DIRECTION('center_axis',(-0.499997378067191,-0.395551787856972,-0.77041638420343));
#1154=DIRECTION('ref_axis',(-0.86602691755276,0.228370334466223,0.444796996853454));
#1155=DIRECTION('center_axis',(0.999999999995417,1.38280998826073E-6,2.69329959793138E-6));
#1156=DIRECTION('ref_axis',(3.02754458065459E-6,-0.456743064029602,-0.88959865863865));
#1157=DIRECTION('',(0.,0.889598658642727,-0.456743064031695));
#1158=DIRECTION('center_axis',(0.,0.889598658642727,-0.456743064031696));
#1159=DIRECTION('ref_axis',(0.707106781186546,-0.322966117836734,-0.62904124406073));
#1160=DIRECTION('',(0.,-0.889598658642726,0.456743064031696));
#1161=DIRECTION('center_axis',(0.,0.889598658642727,-0.456743064031694));
#1162=DIRECTION('ref_axis',(0.707106781186546,-0.322966117836733,-0.629041244060731));
#1163=DIRECTION('',(0.,-0.889598658642726,0.456743064031696));
#1164=DIRECTION('center_axis',(0.,-0.889598658642727,0.456743064031695));
#1165=DIRECTION('ref_axis',(0.707106781186546,-0.322966117836733,-0.62904124406073));
#1166=DIRECTION('center_axis',(0.,0.889598658642727,-0.456743064031696));
#1167=DIRECTION('ref_axis',(0.,0.456743064031696,0.889598658642726));
#1168=DIRECTION('',(0.,0.889598658642726,-0.456743064031696));
#1169=DIRECTION('center_axis',(0.,-0.889598658642727,0.456743064031695));
#1170=DIRECTION('ref_axis',(0.,0.456743064031695,0.889598658642727));
#1171=DIRECTION('center_axis',(-1.,4.09586448692021E-63,7.97751699037021E-63));
#1172=DIRECTION('ref_axis',(-8.96754610954745E-63,-0.456743064031695,-0.889598658642727));
#1173=DIRECTION('',(8.96754610954745E-63,0.456743064031695,0.889598658642727));
#1174=DIRECTION('',(0.,-0.889598658642727,0.456743064031696));
#1175=DIRECTION('',(-8.96754610954745E-63,-0.456743064031694,-0.889598658642727));
#1176=DIRECTION('center_axis',(0.,-0.456743064031696,-0.889598658642727));
#1177=DIRECTION('ref_axis',(1.,0.,0.));
#1178=DIRECTION('',(-1.,0.,0.));
#1179=DIRECTION('',(0.,-0.889598658642727,0.456743064031696));
#1180=DIRECTION('',(1.,0.,0.));
#1181=DIRECTION('center_axis',(1.,-4.09586448692021E-63,-7.97751699037021E-63));
#1182=DIRECTION('ref_axis',(8.96754610954745E-63,0.456743064031695,0.889598658642727));
#1183=DIRECTION('',(-8.96754610954745E-63,-0.456743064031695,-0.889598658642727));
#1184=DIRECTION('',(8.96754610954745E-63,0.456743064031694,0.889598658642727));
#1185=DIRECTION('center_axis',(0.,-0.889598658642727,0.456743064031695));
#1186=DIRECTION('ref_axis',(0.,-0.456743064031695,-0.889598658642727));
#1187=DIRECTION('center_axis',(0.,0.889598658642727,-0.456743064031694));
#1188=DIRECTION('ref_axis',(0.,-0.456743064031694,-0.889598658642727));
#1189=DIRECTION('center_axis',(0.,-0.889598658642727,0.456743064031694));
#1190=DIRECTION('ref_axis',(-4.41321282559546E-15,-0.456743064031694,-0.889598658642727));
#1191=DIRECTION('',(0.805146896790867,0.270883092534244,0.527599113690614));
#1192=DIRECTION('center_axis',(0.,-0.889598658642727,0.456743064031694));
#1193=DIRECTION('ref_axis',(4.96728986329846E-16,0.456743064031694,0.889598658642727));
#1194=DIRECTION('',(1.,-1.23792714598532E-16,-2.41111122486481E-16));
#1195=DIRECTION('center_axis',(0.,-0.889598658642727,0.456743064031694));
#1196=DIRECTION('ref_axis',(-1.33062911190036E-14,0.456743064031694,0.889598658642727));
#1197=DIRECTION('',(0.,-0.456743064031694,-0.889598658642727));
#1198=DIRECTION('center_axis',(0.,-0.889598658642727,0.456743064031694));
#1199=DIRECTION('ref_axis',(-6.21687371953448E-15,-0.456743064031694,-0.889598658642727));
#1200=DIRECTION('',(-0.999983036659071,0.00266036246876957,0.0051815891035767));
#1201=DIRECTION('center_axis',(0.,0.889598658642727,-0.456743064031694));
#1202=DIRECTION('ref_axis',(0.707106781186546,-0.322966117836733,-0.629041244060731));
#1203=DIRECTION('',(-8.96754610954745E-63,-0.456743064031694,-0.889598658642727));
#1204=DIRECTION('',(1.,0.,0.));
#1205=DIRECTION('',(8.96754610954745E-63,0.456743064031694,0.889598658642727));
#1206=DIRECTION('center_axis',(-0.707106781183304,0.629040266266412,-0.322968022287144));
#1207=DIRECTION('ref_axis',(0.415460968226915,-1.66533453693774E-16,-0.909611006903475));
#1208=DIRECTION('center_axis',(0.707106781183304,-0.629040266266412,0.322968022287144));
#1209=DIRECTION('ref_axis',(0.707106781188171,0.629041244059285,-0.322966117835992));
#1210=DIRECTION('',(3.02754458065459E-6,-0.456743064029602,-0.88959865863865));
#1211=DIRECTION('',(-0.654652526400687,-0.755012584095555,-0.0372299279417845));
#1212=DIRECTION('',(-3.02754458065459E-6,0.456743064029602,0.88959865863865));
#1213=DIRECTION('center_axis',(-0.707106781183304,0.629040266266412,-0.322968022287144));
#1214=DIRECTION('ref_axis',(0.70710678118331,0.629042221855046,-0.322964213386323));
#1215=DIRECTION('',(3.02754458065459E-6,-0.456743064029602,-0.88959865863865));
#1216=DIRECTION('center_axis',(4.06756404254584E-31,0.889598658642727,-0.456743064031695));
#1217=DIRECTION('ref_axis',(-1.,3.61849951619217E-31,-1.85783166393754E-31));
#1218=DIRECTION('center_axis',(-4.06756404254584E-31,-0.889598658642727,
0.456743064031695));
#1219=DIRECTION('ref_axis',(0.707106781186546,-0.322966117836734,-0.62904124406073));
#1220=DIRECTION('',(-3.02754458065459E-6,0.456743064029602,0.88959865863865));
#1221=DIRECTION('center_axis',(4.06756404254584E-31,0.889598658642727,-0.456743064031695));
#1222=DIRECTION('ref_axis',(-3.72219904586279E-46,0.456743064031695,0.889598658642727));
#1223=DIRECTION('center_axis',(4.06756404254584E-31,0.889598658642727,-0.456743064031695));
#1224=DIRECTION('ref_axis',(-3.72219904586279E-46,0.456743064031695,0.889598658642727));
#1225=DIRECTION('center_axis',(0.707106781183304,0.629042221855051,-0.322964213386325));
#1226=DIRECTION('ref_axis',(0.415456914232847,1.11022302462516E-16,0.909612858537148));
#1227=DIRECTION('',(-0.654654815009271,0.755010773572285,0.0372264015848493));
#1228=DIRECTION('',(-3.02754458065459E-6,0.456743064029602,0.88959865863865));
#1229=DIRECTION('center_axis',(-0.707106781183304,-0.629042221855051,0.322964213386325));
#1230=DIRECTION('ref_axis',(0.707106781188171,-0.629041244059285,0.322966117835992));
#1231=DIRECTION('center_axis',(0.707106781183304,0.629042221855051,-0.322964213386325));
#1232=DIRECTION('ref_axis',(0.70710678118331,-0.629040266266406,0.322968022287142));
#1233=DIRECTION('',(3.02754458065459E-6,-0.456743064029602,-0.88959865863865));
#1234=DIRECTION('center_axis',(4.06756404254584E-31,0.889598658642727,-0.456743064031695));
#1235=DIRECTION('ref_axis',(-1.,3.61849951619217E-31,-1.85783166393754E-31));
#1236=DIRECTION('center_axis',(4.06756404254584E-31,0.889598658642727,-0.456743064031695));
#1237=DIRECTION('ref_axis',(-3.72219904586279E-46,0.456743064031695,0.889598658642727));
#1238=DIRECTION('',(-0.86602691755276,0.228370334466223,0.444796996853454));
#1239=DIRECTION('',(-0.866023890008179,-0.228372729563379,-0.444801661785197));
#1240=DIRECTION('center_axis',(-0.999999999995417,-1.38280998826073E-6,
-2.69329959793138E-6));
#1241=DIRECTION('ref_axis',(-3.02754458065459E-6,0.456743064029602,0.88959865863865));
#1242=DIRECTION('',(0.,-0.889598658642727,0.456743064031695));
#1243=DIRECTION('',(3.02754458065459E-6,-0.456743064029601,-0.88959865863865));
#1244=DIRECTION('',(0.,0.889598658642726,-0.456743064031696));
#1245=DIRECTION('center_axis',(4.06756404254584E-31,0.889598658642727,-0.456743064031695));
#1246=DIRECTION('ref_axis',(-1.,3.61849951619217E-31,-1.85783166393754E-31));
#1247=DIRECTION('center_axis',(4.06756404254584E-31,0.889598658642727,-0.456743064031695));
#1248=DIRECTION('ref_axis',(0.707106781186546,-0.322966117836734,-0.62904124406073));
#1249=DIRECTION('',(-3.02754458065459E-6,0.456743064029601,0.88959865863865));
#1250=DIRECTION('',(0.866023890008179,0.228372729563379,0.444801661785197));
#1251=DIRECTION('',(0.86602691755276,-0.228370334466223,-0.444796996853454));
#1252=DIRECTION('center_axis',(-4.06756404254584E-31,-0.889598658642727,
0.456743064031695));
#1253=DIRECTION('ref_axis',(-1.,3.61849951619217E-31,-1.85783166393753E-31));
#1254=DIRECTION('center_axis',(0.,0.889598658642726,-0.456743064031696));
#1255=DIRECTION('ref_axis',(-1.,0.,0.));
#1256=DIRECTION('center_axis',(0.,-0.889598658642727,0.456743064031694));
#1257=DIRECTION('ref_axis',(-1.,0.,0.));
#1258=DIRECTION('',(0.,0.889598658642726,-0.456743064031696));
#1259=DIRECTION('center_axis',(0.500002621928226,-0.395550405046984,-0.770413690903833));
#1260=DIRECTION('ref_axis',(-0.86602389000818,-0.228372729563379,-0.444801661785197));
#1261=DIRECTION('',(0.,0.889598658642726,-0.456743064031696));
#1262=DIRECTION('',(0.,-0.889598658642725,0.456743064031698));
#1263=DIRECTION('center_axis',(-0.499997378067191,-0.395551787856972,-0.77041638420343));
#1264=DIRECTION('ref_axis',(-0.86602691755276,0.228370334466223,0.444796996853454));
#1265=DIRECTION('center_axis',(0.999999999995417,1.38280998826073E-6,2.69329959793138E-6));
#1266=DIRECTION('ref_axis',(3.02754458065459E-6,-0.456743064029602,-0.88959865863865));
#1267=DIRECTION('',(0.,0.889598658642727,-0.456743064031695));
#1268=DIRECTION('center_axis',(0.,0.889598658642727,-0.456743064031696));
#1269=DIRECTION('ref_axis',(0.707106781186546,-0.322966117836734,-0.62904124406073));
#1270=DIRECTION('',(0.,-0.889598658642726,0.456743064031696));
#1271=DIRECTION('',(0.,-0.889598658642726,0.456743064031696));
#1272=DIRECTION('center_axis',(0.,-0.889598658642727,0.456743064031695));
#1273=DIRECTION('ref_axis',(0.707106781186546,-0.322966117836733,-0.62904124406073));
#1274=DIRECTION('center_axis',(0.,0.889598658642727,-0.456743064031696));
#1275=DIRECTION('ref_axis',(0.,0.456743064031696,0.889598658642726));
#1276=DIRECTION('',(0.,0.889598658642726,-0.456743064031696));
#1277=DIRECTION('center_axis',(0.,-0.889598658642727,0.456743064031695));
#1278=DIRECTION('ref_axis',(0.,0.456743064031695,0.889598658642727));
#1279=DIRECTION('center_axis',(-1.,4.09586448692021E-63,7.97751699037021E-63));
#1280=DIRECTION('ref_axis',(-8.96754610954745E-63,-0.456743064031695,-0.889598658642727));
#1281=DIRECTION('',(8.96754610954745E-63,0.456743064031695,0.889598658642727));
#1282=DIRECTION('',(0.,-0.889598658642727,0.456743064031696));
#1283=DIRECTION('center_axis',(0.,-0.456743064031696,-0.889598658642727));
#1284=DIRECTION('ref_axis',(1.,0.,0.));
#1285=DIRECTION('',(-1.,0.,0.));
#1286=DIRECTION('',(0.,-0.889598658642727,0.456743064031696));
#1287=DIRECTION('center_axis',(1.,-4.09586448692021E-63,-7.97751699037021E-63));
#1288=DIRECTION('ref_axis',(8.96754610954745E-63,0.456743064031695,0.889598658642727));
#1289=DIRECTION('',(-8.96754610954745E-63,-0.456743064031695,-0.889598658642727));
#1290=DIRECTION('center_axis',(0.,-0.889598658642727,0.456743064031695));
#1291=DIRECTION('ref_axis',(0.,-0.456743064031695,-0.889598658642727));
#1292=DIRECTION('center_axis',(0.,0.889598658642727,-0.456743064031694));
#1293=DIRECTION('ref_axis',(0.,-0.456743064031694,-0.889598658642727));
#1294=DIRECTION('center_axis',(0.,0.928894832569464,-0.370343610753239));
#1295=DIRECTION('ref_axis',(0.705053756649262,-0.262630601896723,-0.6587293580691));
#1296=DIRECTION('center_axis',(0.,-0.928894832569463,0.370343610753243));
#1297=DIRECTION('ref_axis',(0.705053756649262,-0.262630601896725,-0.658729358069099));
#1298=DIRECTION('',(0.,-0.928894832569464,0.370343610753239));
#1299=DIRECTION('center_axis',(0.,0.928894832569463,-0.370343610753243));
#1300=DIRECTION('ref_axis',(0.705053756649262,-0.262630601896725,-0.658729358069099));
#1301=DIRECTION('',(0.,0.928894832569464,-0.370343610753239));
#1302=DIRECTION('center_axis',(-1.,0.,0.));
#1303=DIRECTION('ref_axis',(0.,-0.370343610753252,-0.928894832569459));
#1304=DIRECTION('',(0.,0.370343610753243,0.928894832569463));
#1305=DIRECTION('',(0.,0.928894832569464,-0.370343610753239));
#1306=DIRECTION('',(0.,0.370343610753243,0.928894832569463));
#1307=DIRECTION('center_axis',(0.,-0.928894832569463,0.370343610753243));
#1308=DIRECTION('ref_axis',(0.,-0.370343610753243,-0.928894832569463));
#1309=DIRECTION('',(0.999983189134695,-0.00214740056648154,-0.00538610423332104));
#1310=DIRECTION('center_axis',(0.,-0.928894832569463,0.370343610753243));
#1311=DIRECTION('ref_axis',(-0.951272306826029,-0.114196218502177,-0.286426643218973));
#1312=DIRECTION('',(-0.806422737069985,-0.218998794612397,-0.549292178257501));
#1313=DIRECTION('center_axis',(0.,-0.928894832569463,0.370343610753243));
#1314=DIRECTION('ref_axis',(-0.311108713257934,0.351965061214518,0.88279780483373));
#1315=DIRECTION('',(-1.,9.99234157157766E-17,2.50627638268935E-16));
#1316=DIRECTION('center_axis',(0.,-0.928894832569463,0.370343610753243));
#1317=DIRECTION('ref_axis',(0.707106781186546,0.26187247853273,0.656827835119011));
#1318=DIRECTION('',(0.999983189134695,-0.00214740056648154,-0.00538610423332104));
#1319=DIRECTION('center_axis',(0.,-0.928894832569463,0.370343610753243));
#1320=DIRECTION('ref_axis',(0.705053756649258,-0.262630601896727,-0.658729358069103));
#1321=DIRECTION('',(0.,0.370343610753243,0.928894832569463));
#1322=DIRECTION('center_axis',(0.,-0.928894832569463,0.370343610753243));
#1323=DIRECTION('ref_axis',(0.707106781186546,0.26187247853273,0.656827835119011));
#1324=DIRECTION('',(-1.,9.99234157157766E-17,2.50627638268935E-16));
#1325=DIRECTION('center_axis',(0.,-0.928894832569463,0.370343610753243));
#1326=DIRECTION('ref_axis',(-0.311108713257933,0.351965061214518,0.882797804833731));
#1327=DIRECTION('',(-0.806422737069985,-0.218998794612397,-0.549292178257501));
#1328=DIRECTION('center_axis',(0.,-0.928894832569463,0.370343610753243));
#1329=DIRECTION('ref_axis',(-0.951272306826025,-0.114196218502181,-0.286426643218984));
#1330=DIRECTION('center_axis',(0.,0.928894832569464,-0.370343610753239));
#1331=DIRECTION('ref_axis',(0.707106781186546,0.261872478532727,0.656827835119012));
#1332=DIRECTION('',(0.,-0.928894832569464,0.370343610753239));
#1333=DIRECTION('center_axis',(0.,0.928894832569463,-0.370343610753243));
#1334=DIRECTION('ref_axis',(0.707106781186546,0.26187247853273,0.656827835119011));
#1335=DIRECTION('center_axis',(-2.69812716662081E-16,-0.370343610753239,
-0.928894832569464));
#1336=DIRECTION('ref_axis',(1.,4.6266296634475E-15,-2.13506995873288E-15));
#1337=DIRECTION('',(0.,0.928894832569464,-0.370343610753239));
#1338=DIRECTION('',(-1.,9.99234157157766E-17,2.50627638268935E-16));
#1339=DIRECTION('center_axis',(0.,0.928894832569464,-0.370343610753239));
#1340=DIRECTION('ref_axis',(-0.311108713257934,0.351965061214514,0.882797804833732));
#1341=DIRECTION('',(-3.28259347649229E-17,-0.928894832569464,0.370343610753239));
#1342=DIRECTION('center_axis',(0.,0.928894832569463,-0.370343610753243));
#1343=DIRECTION('ref_axis',(-0.311108713257934,0.351965061214518,0.88279780483373));
#1344=DIRECTION('center_axis',(0.59133947030158,-0.298653508240008,-0.749081913330833));
#1345=DIRECTION('ref_axis',(0.806422737069985,0.218998794612404,0.549292178257499));
#1346=DIRECTION('',(0.,0.928894832569464,-0.370343610753239));
#1347=DIRECTION('',(-0.806422737069985,-0.218998794612397,-0.549292178257501));
#1348=DIRECTION('center_axis',(0.,-0.928894832569464,0.370343610753239));
#1349=DIRECTION('ref_axis',(-0.951272306826029,-0.114196218502176,-0.286426643218974));
#1350=DIRECTION('center_axis',(0.,0.928894832569463,-0.370343610753243));
#1351=DIRECTION('ref_axis',(-0.951272306826029,-0.114196218502177,-0.286426643218973));
#1352=DIRECTION('',(-3.21875885363851E-19,-0.928894832569464,0.370343610753239));
#1353=DIRECTION('center_axis',(0.,-0.928894832569464,0.370343610753239));
#1354=DIRECTION('ref_axis',(-0.951272306826025,-0.11419621850218,-0.286426643218984));
#1355=DIRECTION('',(0.,-0.928894832569464,0.370343610753239));
#1356=DIRECTION('',(0.,0.928894832569464,-0.370343610753239));
#1357=DIRECTION('center_axis',(0.00579840046953676,0.370337384956682,0.928879217043551));
#1358=DIRECTION('ref_axis',(0.999983189134695,-0.00214740056648154,-0.00538610423332105));
#1359=DIRECTION('',(0.,0.928894832569464,-0.370343610753239));
#1360=DIRECTION('center_axis',(0.,0.889598658642727,-0.456743064031694));
#1361=DIRECTION('ref_axis',(0.,-0.456743064031694,-0.889598658642727));
#1362=DIRECTION('center_axis',(0.,0.928894832569464,-0.370343610753239));
#1363=DIRECTION('ref_axis',(0.705053756649258,-0.262630601896724,-0.658729358069104));
#1364=DIRECTION('',(0.,-0.928894832569464,0.370343610753239));
#1365=DIRECTION('center_axis',(-1.,0.,0.));
#1366=DIRECTION('ref_axis',(0.,0.370343610753243,0.928894832569463));
#1367=DIRECTION('',(0.,0.928894832569464,-0.370343610753239));
#1368=DIRECTION('center_axis',(0.,0.928894832569464,-0.370343610753239));
#1369=DIRECTION('ref_axis',(0.707106781186546,0.261872478532727,0.656827835119012));
#1370=DIRECTION('',(0.,-0.928894832569464,0.370343610753239));
#1371=DIRECTION('center_axis',(-2.69812716662081E-16,-0.370343610753239,
-0.928894832569464));
#1372=DIRECTION('ref_axis',(-1.,9.99234157157769E-17,2.50627638268936E-16));
#1373=DIRECTION('',(0.,0.928894832569464,-0.370343610753239));
#1374=DIRECTION('center_axis',(0.,-0.928894832569464,0.370343610753239));
#1375=DIRECTION('ref_axis',(-0.311108713257933,0.351965061214514,0.882797804833732));
#1376=DIRECTION('',(-3.28259347649229E-17,-0.928894832569464,0.370343610753239));
#1377=DIRECTION('center_axis',(0.00579840046953676,0.370337384956682,0.928879217043551));
#1378=DIRECTION('ref_axis',(-0.999983189134695,0.00214740056647861,0.00538610423332221));
#1379=DIRECTION('',(0.999983189134695,-0.00214740056648154,-0.00538610423332104));
#1380=DIRECTION('center_axis',(0.59133947030158,-0.298653508240008,-0.749081913330833));
#1381=DIRECTION('ref_axis',(-0.806422737069985,-0.218998794612397,-0.549292178257501));
#1382=DIRECTION('center_axis',(0.,-0.928894832569463,0.370343610753243));
#1383=DIRECTION('ref_axis',(0.,-0.370343610753243,-0.928894832569463));
#1384=CARTESIAN_POINT('',(0.,0.,0.));
#1385=CARTESIAN_POINT('Origin',(102.500006222099,20.9357130910698,44.82318387793));
#1386=CARTESIAN_POINT('',(103.500012234432,20.9108127336738,42.5852705834322));
#1387=CARTESIAN_POINT('',(103.500003872777,22.1765760832014,45.050598723218));
#1388=CARTESIAN_POINT('Origin',(104.300008088816,22.2553741830065,43.4525417991558));
#1389=CARTESIAN_POINT('',(103.499999698642,22.8094576584906,46.2832622159131));
#1390=CARTESIAN_POINT('',(103.500006222094,21.8253131325225,44.3664435071979));
#1391=CARTESIAN_POINT('',(101.500003194558,20.5028561136493,46.1695229073058));
#1392=CARTESIAN_POINT('',(102.390569437342,21.5299486446579,46.220169190195));
#1393=CARTESIAN_POINT('',(101.500016737226,18.4597749061386,42.1902127768874));
#1394=CARTESIAN_POINT('',(101.500006222103,20.0461130496171,45.2799242486621));
#1395=CARTESIAN_POINT('',(103.500019954323,19.7536342291597,40.331433632495));
#1396=CARTESIAN_POINT('Origin',(104.300008088816,22.2553741830065,43.4525417991559));
#1397=CARTESIAN_POINT('',(103.500006222094,21.8253131325225,44.3664435071979));
#1398=CARTESIAN_POINT('Origin',(104.300009965879,21.3685711747393,43.4768470031959));
#1399=CARTESIAN_POINT('',(105.100019954315,19.7536364416557,40.3314379417744));
#1400=CARTESIAN_POINT('Origin',(104.300008088816,21.5436952560923,43.8179362503812));
#1401=CARTESIAN_POINT('',(105.100012304854,20.9108142512708,42.5852738687864));
#1402=CARTESIAN_POINT('',(105.10001299342,20.8037747412631,42.3767927512681));
#1403=CARTESIAN_POINT('',(104.300008088816,20.8129063536416,42.3945783965528));
#1404=CARTESIAN_POINT('Origin',(104.300008088816,21.5436952560923,43.8179362503812));
#1405=CARTESIAN_POINT('Origin',(104.300008088816,21.5436952560923,43.8179362503812));
#1406=CARTESIAN_POINT('Origin',(106.100012993416,19.9141774654304,42.8335385085994));
#1407=CARTESIAN_POINT('',(107.100003194533,20.5028638573852,46.1695379897836));
#1408=CARTESIAN_POINT('',(105.099999698635,22.8094598709866,46.2832665251925));
#1409=CARTESIAN_POINT('',(107.286140247244,20.2881927407359,46.1589534610897));
#1410=CARTESIAN_POINT('',(105.1000039432,22.1765778685863,45.0506018710832));
#1411=CARTESIAN_POINT('',(105.10001299342,20.8037747412631,42.3767927512681));
#1412=CARTESIAN_POINT('Origin',(104.300008088816,22.2553741830064,43.4525417991559));
#1413=CARTESIAN_POINT('',(107.1000167372,18.4597826498745,42.1902278593652));
#1414=CARTESIAN_POINT('Origin',(104.300008088816,22.2553741830065,43.4525417991559));
#1415=CARTESIAN_POINT('',(107.100012993411,19.0245801895976,43.2902842659307));
#1416=CARTESIAN_POINT('Origin',(104.300009965879,21.3685711747393,43.4768470031959));
#1417=CARTESIAN_POINT('Origin',(104.300008088816,21.5436952560923,43.8179362503812));
#1418=CARTESIAN_POINT('',(104.299998300275,23.020419349513,46.6941523905814));
#1419=CARTESIAN_POINT('',(104.299998300275,23.020419349513,46.6941523905814));
#1420=CARTESIAN_POINT('',(101.500003194558,22.2820534309347,45.2560367792424));
#1421=CARTESIAN_POINT('Origin',(107.1000167372,17.5701839912318,42.6469709233969));
#1422=CARTESIAN_POINT('',(107.1000167372,15.7909866739464,43.5604570514603));
#1423=CARTESIAN_POINT('',(107.1000167372,22.0181772844454,40.3632556032384));
#1424=CARTESIAN_POINT('',(107.100003194533,17.834067881457,47.5397671818787));
#1425=CARTESIAN_POINT('',(107.100012413002,16.4433462543465,44.8310580816194));
#1426=CARTESIAN_POINT('',(107.100003194533,19.6132651987425,46.6262810538153));
#1427=CARTESIAN_POINT('Origin',(104.300008088816,17.0957019628787,46.1016515705397));
#1428=CARTESIAN_POINT('',(101.500016737226,15.7909789302104,43.5604419689825));
#1429=CARTESIAN_POINT('Origin',(104.300008088816,17.0957019628787,46.1016515705397));
#1430=CARTESIAN_POINT('',(101.500003194558,17.8340601377211,47.5397520994009));
#1431=CARTESIAN_POINT('',(101.500005641694,17.4648791143659,46.8206980643508));
#1432=CARTESIAN_POINT('',(104.299998300275,18.5724260562994,48.9778677107399));
#1433=CARTESIAN_POINT('',(103.599999523846,18.3878345766548,48.6183388079051));
#1434=CARTESIAN_POINT('',(106.400001970968,18.0186574251676,47.899292314094));
#1435=CARTESIAN_POINT('',(105.900008088816,17.0957019628787,46.1016515705397));
#1436=CARTESIAN_POINT('Origin',(104.300008088816,17.0957019628787,46.1016515705397));
#1437=CARTESIAN_POINT('Origin',(104.300008088816,18.8748992801641,45.1881654424763));
#1438=CARTESIAN_POINT('',(105.900008088816,16.206103304236,46.5583946345714));
#1439=CARTESIAN_POINT('Origin',(104.300008088816,16.2061033042358,46.5583946345714));
#1440=CARTESIAN_POINT('',(105.900008088816,18.8748992801641,45.1881654424763));
#1441=CARTESIAN_POINT('Origin',(104.299998300275,20.3516233735848,48.0643815826765));
#1442=CARTESIAN_POINT('',(104.299998300275,20.3516233735848,48.0643815826765));
#1443=CARTESIAN_POINT('',(101.500003194558,19.6132574550065,46.6262659713375));
#1444=CARTESIAN_POINT('Origin',(107.100003194533,19.6132651987425,46.6262810538153));
#1445=CARTESIAN_POINT('Origin',(101.500003194558,19.6132574550065,46.6262659713375));
#1446=CARTESIAN_POINT('',(101.500016737226,22.0181695407095,40.3632405207607));
#1447=CARTESIAN_POINT('Origin',(104.300008088816,23.3228925733778,42.9044501223178));
#1448=CARTESIAN_POINT('',(108.300008088816,23.3228925733778,42.9044501223178));
#1449=CARTESIAN_POINT('',(108.300008088816,16.206103304236,46.5583946345714));
#1450=CARTESIAN_POINT('',(108.300008088816,23.3228925733778,42.9044501223178));
#1451=CARTESIAN_POINT('',(100.300008088816,16.206103304236,46.5583946345714));
#1452=CARTESIAN_POINT('Origin',(104.300008088816,16.2061033042358,46.5583946345714));
#1453=CARTESIAN_POINT('',(100.300008088816,23.3228925733778,42.9044501223178));
#1454=CARTESIAN_POINT('',(100.300008088816,23.3228925733778,42.9044501223178));
#1455=CARTESIAN_POINT('Origin',(104.300008088816,23.3228925733778,42.9044501223178));
#1456=CARTESIAN_POINT('Origin',(104.300008088816,23.3228925733778,42.9044501223178));
#1457=CARTESIAN_POINT('',(104.300008088816,22.592103670927,41.4810922684894));
#1458=CARTESIAN_POINT('',(104.300008088816,22.5921036709271,41.4810922684894));
#1459=CARTESIAN_POINT('Origin',(104.300008088816,23.3228925733778,42.9044501223178));
#1460=CARTESIAN_POINT('Origin',(108.300008088816,25.1498648295045,46.4628447568887));
#1461=CARTESIAN_POINT('',(108.300008088816,25.1498648295045,46.4628447568887));
#1462=CARTESIAN_POINT('',(108.300008088816,23.390150864113,43.035449123578));
#1463=CARTESIAN_POINT('',(108.300008088816,18.0330755603628,50.1167892691423));
#1464=CARTESIAN_POINT('',(108.300008088816,25.1498648295045,46.4628447568887));
#1465=CARTESIAN_POINT('',(108.300008088816,19.5965428162263,53.1619551034541));
#1466=CARTESIAN_POINT('Origin',(100.300008088816,25.1498648295045,46.4628447568887));
#1467=CARTESIAN_POINT('',(100.300008088816,25.1498648295045,46.4628447568887));
#1468=CARTESIAN_POINT('',(100.300008088816,25.1498648295045,46.4628447568887));
#1469=CARTESIAN_POINT('',(100.300008088816,18.0330755603628,50.1167892691423));
#1470=CARTESIAN_POINT('',(100.300008088816,25.1498648295045,46.4628447568887));
#1471=CARTESIAN_POINT('',(105.93783862591,18.0330755603626,50.1167892691424));
#1472=CARTESIAN_POINT('Origin',(100.300008088816,23.3228925733778,42.9044501223178));
#1473=CARTESIAN_POINT('',(100.300008088816,25.5806002427942,47.3017883032011));
#1474=CARTESIAN_POINT('',(100.300008088816,18.6830566881629,51.3827577861687));
#1475=CARTESIAN_POINT('Origin',(104.300008088816,23.3228925733778,42.9044501223178));
#1476=CARTESIAN_POINT('Origin',(111.575669163005,21.16001007209,56.2071209377659));
#1477=CARTESIAN_POINT('',(48.1223911065018,12.6040133551098,39.5426025199252));
#1478=CARTESIAN_POINT('',(48.6493780693506,11.8580963114864,38.089779579148));
#1479=CARTESIAN_POINT('Origin',(48.6545966297732,12.2710181765511,38.8940276700623));
#1480=CARTESIAN_POINT('',(68.5817261363936,19.4873385795885,52.9492579656507));
#1481=CARTESIAN_POINT('',(83.3448608715179,24.454237922416,62.6232899126059));
#1482=CARTESIAN_POINT('',(79.1075687077618,21.0682481150333,56.0283961352664));
#1483=CARTESIAN_POINT('Origin',(79.1075687077618,12.901433936984,40.1218887128069));
#1484=CARTESIAN_POINT('',(109.475669163005,21.0682481150333,56.0283961352664));
#1485=CARTESIAN_POINT('',(111.625669163005,21.0682481150333,56.0283961352664));
#1486=CARTESIAN_POINT('',(111.375669163005,20.1965095229943,54.3305105115207));
#1487=CARTESIAN_POINT('Origin',(109.475669163005,20.1965095229943,54.3305105115207));
#1488=CARTESIAN_POINT('',(111.375669163005,12.5218790408576,39.3826294813806));
#1489=CARTESIAN_POINT('',(111.375669163005,16.3346162445993,46.8086993427731));
#1490=CARTESIAN_POINT('',(109.565232042159,11.6960353107281,37.7741332995519));
#1491=CARTESIAN_POINT('Origin',(109.575669163005,12.5218790408576,39.3826294813806));
#1492=CARTESIAN_POINT('',(78.2374077442224,11.7793800925245,37.9364639662433));
#1493=CARTESIAN_POINT('',(78.300008088816,16.206103304236,46.5583946345714));
#1494=CARTESIAN_POINT('',(70.300008088816,16.206103304236,46.5583946345714));
#1495=CARTESIAN_POINT('Origin',(74.300008088816,16.2061033042358,46.5583946345714));
#1496=CARTESIAN_POINT('',(78.300008088816,18.0330755603628,50.1167892691423));
#1497=CARTESIAN_POINT('',(78.300008088816,19.5965428162263,53.1619551034541));
#1498=CARTESIAN_POINT('',(70.300008088816,18.0330755603628,50.1167892691423));
#1499=CARTESIAN_POINT('',(90.9378386259103,18.0330755603626,50.1167892691424));
#1500=CARTESIAN_POINT('',(70.300008088816,18.6830566881629,51.3827577861687));
#1501=CARTESIAN_POINT('Origin',(72.5000062220985,20.9357130910698,44.82318387793));
#1502=CARTESIAN_POINT('',(73.5000122344316,20.9108127336738,42.5852705834323));
#1503=CARTESIAN_POINT('',(73.5000038727773,22.1765760832014,45.050598723218));
#1504=CARTESIAN_POINT('Origin',(74.300008088816,22.2553741830065,43.4525417991558));
#1505=CARTESIAN_POINT('',(73.499999698642,22.8094576584906,46.2832622159131));
#1506=CARTESIAN_POINT('',(73.5000062220939,21.8253131325225,44.3664435071979));
#1507=CARTESIAN_POINT('',(71.5000031945585,20.5028561136493,46.1695229073058));
#1508=CARTESIAN_POINT('',(72.3905694373418,21.5299486446579,46.220169190195));
#1509=CARTESIAN_POINT('',(71.500016737226,18.4597749061386,42.1902127768874));
#1510=CARTESIAN_POINT('',(71.5000062221031,20.0461130496171,45.2799242486621));
#1511=CARTESIAN_POINT('',(73.5000199543227,19.7536342291597,40.331433632495));
#1512=CARTESIAN_POINT('Origin',(74.300008088816,22.2553741830065,43.4525417991559));
#1513=CARTESIAN_POINT('',(73.5000062220939,21.8253131325225,44.3664435071979));
#1514=CARTESIAN_POINT('Origin',(74.3000099658794,21.3685711747393,43.4768470031959));
#1515=CARTESIAN_POINT('',(75.1000199543153,19.7536364416557,40.3314379417744));
#1516=CARTESIAN_POINT('Origin',(74.300008088816,21.5436952560923,43.8179362503812));
#1517=CARTESIAN_POINT('',(75.1000123048546,20.9108142512708,42.5852738687865));
#1518=CARTESIAN_POINT('',(75.1000129934203,20.8037747412631,42.3767927512681));
#1519=CARTESIAN_POINT('',(74.300008088816,20.8129063536416,42.3945783965528));
#1520=CARTESIAN_POINT('Origin',(74.300008088816,21.5436952560923,43.8179362503812));
#1521=CARTESIAN_POINT('Origin',(74.300008088816,21.5436952560923,43.8179362503812));
#1522=CARTESIAN_POINT('Origin',(76.1000129934157,19.9141774654304,42.8335385085994));
#1523=CARTESIAN_POINT('',(77.1000031945328,20.5028638573852,46.1695379897836));
#1524=CARTESIAN_POINT('',(75.0999996986346,22.8094598709866,46.2832665251925));
#1525=CARTESIAN_POINT('',(77.2861402472439,20.2881927407359,46.1589534610897));
#1526=CARTESIAN_POINT('',(75.1000039432003,22.1765778685862,45.0506018710831));
#1527=CARTESIAN_POINT('',(75.1000129934203,20.8037747412631,42.3767927512681));
#1528=CARTESIAN_POINT('Origin',(74.300008088816,22.2553741830064,43.4525417991559));
#1529=CARTESIAN_POINT('',(77.1000167372003,18.4597826498745,42.1902278593652));
#1530=CARTESIAN_POINT('Origin',(74.300008088816,22.2553741830065,43.4525417991559));
#1531=CARTESIAN_POINT('',(77.1000129934112,19.0245801895976,43.2902842659307));
#1532=CARTESIAN_POINT('Origin',(74.3000099658794,21.3685711747393,43.4768470031959));
#1533=CARTESIAN_POINT('Origin',(74.300008088816,21.5436952560923,43.8179362503812));
#1534=CARTESIAN_POINT('',(74.2999983002754,23.020419349513,46.6941523905814));
#1535=CARTESIAN_POINT('',(74.2999983002754,23.020419349513,46.6941523905814));
#1536=CARTESIAN_POINT('',(71.5000031945585,22.2820534309347,45.2560367792424));
#1537=CARTESIAN_POINT('Origin',(77.1000167372003,17.5701839912318,42.6469709233969));
#1538=CARTESIAN_POINT('',(77.1000167372003,15.7909866739464,43.5604570514603));
#1539=CARTESIAN_POINT('',(77.1000167372003,22.0181772844454,40.3632556032384));
#1540=CARTESIAN_POINT('',(77.1000031945328,17.834067881457,47.5397671818787));
#1541=CARTESIAN_POINT('',(77.1000124130017,16.4433462543465,44.8310580816194));
#1542=CARTESIAN_POINT('',(77.1000031945328,19.6132651987425,46.6262810538153));
#1543=CARTESIAN_POINT('Origin',(74.300008088816,17.0957019628787,46.1016515705397));
#1544=CARTESIAN_POINT('',(71.500016737226,15.7909789302104,43.5604419689825));
#1545=CARTESIAN_POINT('Origin',(74.300008088816,17.0957019628787,46.1016515705397));
#1546=CARTESIAN_POINT('',(71.5000031945585,17.8340601377211,47.5397520994009));
#1547=CARTESIAN_POINT('',(71.5000056416936,17.4648791143659,46.8206980643508));
#1548=CARTESIAN_POINT('',(74.2999983002754,18.5724260562994,48.9778677107399));
#1549=CARTESIAN_POINT('',(73.5999995238462,18.3878345766548,48.6183388079051));
#1550=CARTESIAN_POINT('',(76.4000019709685,18.0186574251676,47.899292314094));
#1551=CARTESIAN_POINT('',(75.900008088816,17.0957019628787,46.1016515705397));
#1552=CARTESIAN_POINT('Origin',(74.300008088816,17.0957019628787,46.1016515705397));
#1553=CARTESIAN_POINT('Origin',(74.300008088816,18.8748992801641,45.1881654424763));
#1554=CARTESIAN_POINT('',(75.900008088816,16.206103304236,46.5583946345714));
#1555=CARTESIAN_POINT('Origin',(74.300008088816,16.2061033042358,46.5583946345714));
#1556=CARTESIAN_POINT('',(75.900008088816,18.8748992801641,45.1881654424763));
#1557=CARTESIAN_POINT('Origin',(74.2999983002754,20.3516233735848,48.0643815826765));
#1558=CARTESIAN_POINT('',(74.2999983002754,20.3516233735848,48.0643815826765));
#1559=CARTESIAN_POINT('',(71.5000031945585,19.6132574550065,46.6262659713375));
#1560=CARTESIAN_POINT('Origin',(77.1000031945328,19.6132651987425,46.6262810538153));
#1561=CARTESIAN_POINT('Origin',(71.5000031945585,19.6132574550065,46.6262659713375));
#1562=CARTESIAN_POINT('',(71.500016737226,22.0181695407095,40.3632405207607));
#1563=CARTESIAN_POINT('Origin',(74.300008088816,23.3228925733778,42.9044501223178));
#1564=CARTESIAN_POINT('',(78.300008088816,23.3228925733778,42.9044501223178));
#1565=CARTESIAN_POINT('',(78.300008088816,23.3228925733778,42.9044501223178));
#1566=CARTESIAN_POINT('',(70.300008088816,23.3228925733778,42.9044501223178));
#1567=CARTESIAN_POINT('',(70.300008088816,23.3228925733778,42.9044501223178));
#1568=CARTESIAN_POINT('Origin',(74.300008088816,23.3228925733778,42.9044501223178));
#1569=CARTESIAN_POINT('Origin',(74.300008088816,23.3228925733778,42.9044501223178));
#1570=CARTESIAN_POINT('',(74.300008088816,22.592103670927,41.4810922684894));
#1571=CARTESIAN_POINT('',(74.300008088816,22.5921036709271,41.4810922684894));
#1572=CARTESIAN_POINT('Origin',(74.300008088816,23.3228925733778,42.9044501223178));
#1573=CARTESIAN_POINT('Origin',(78.300008088816,25.1498648295045,46.4628447568887));
#1574=CARTESIAN_POINT('',(78.300008088816,25.1498648295045,46.4628447568887));
#1575=CARTESIAN_POINT('',(78.300008088816,23.390150864113,43.035449123578));
#1576=CARTESIAN_POINT('',(78.300008088816,25.1498648295045,46.4628447568887));
#1577=CARTESIAN_POINT('Origin',(70.300008088816,25.1498648295045,46.4628447568887));
#1578=CARTESIAN_POINT('',(70.300008088816,25.1498648295045,46.4628447568887));
#1579=CARTESIAN_POINT('',(70.300008088816,25.1498648295045,46.4628447568887));
#1580=CARTESIAN_POINT('',(70.300008088816,25.1498648295045,46.4628447568887));
#1581=CARTESIAN_POINT('Origin',(70.300008088816,23.3228925733778,42.9044501223178));
#1582=CARTESIAN_POINT('',(70.300008088816,25.5806002427942,47.3017883032011));
#1583=CARTESIAN_POINT('Origin',(74.300008088816,23.3228925733778,42.9044501223178));
#1584=CARTESIAN_POINT('Origin',(111.575669163005,21.16001007209,56.2071209377659));
#1585=CARTESIAN_POINT('Origin',(111.575669163005,10.655775648851,37.9610141341372));
#1586=CARTESIAN_POINT('',(111.564652202112,9.95213461743312,36.1961436217545));
#1587=CARTESIAN_POINT('',(113.475669163005,10.6557756488508,37.9610141341373));
#1588=CARTESIAN_POINT('Origin',(111.575669163005,10.6557756488509,37.9610141341372));
#1589=CARTESIAN_POINT('',(113.475669163005,9.72688081628139,38.3313577448905));
#1590=CARTESIAN_POINT('',(113.475669163005,10.655775648851,37.9610141341372));
#1591=CARTESIAN_POINT('',(111.564652202112,9.02323978486368,36.5664872325077));
#1592=CARTESIAN_POINT('Origin',(111.575669163005,9.72688081628142,38.3313577448905));
#1593=CARTESIAN_POINT('',(111.564652202112,9.95213461743326,36.1961436217545));
#1594=CARTESIAN_POINT('Origin',(113.475669163005,18.4103599354571,57.4110412532825));
#1595=CARTESIAN_POINT('',(113.475669163005,18.3733255743816,57.3181517700256));
#1596=CARTESIAN_POINT('',(113.475669163005,16.4613246006884,52.5224761521336));
#1597=CARTESIAN_POINT('',(113.475669163005,17.4444307418122,57.6884953807789));
#1598=CARTESIAN_POINT('',(113.475669163005,18.3733255743818,57.3181517700256));
#1599=CARTESIAN_POINT('',(113.475669163005,15.532429768119,52.8928197628869));
#1600=CARTESIAN_POINT('Origin',(76.3157656944565,14.5122892659199,47.6339110509847));
#1601=CARTESIAN_POINT('',(45.3096397175526,10.0944130605984,36.5530060241421));
#1602=CARTESIAN_POINT('',(93.9553932846144,9.98994938570686,36.2909905202141));
#1603=CARTESIAN_POINT('',(44.1971116848717,11.3654957576722,39.7411321718534));
#1604=CARTESIAN_POINT('Origin',(45.3206566784447,10.7980540920162,38.3178765365248));
#1605=CARTESIAN_POINT('',(67.3399132487603,17.6503453947995,55.5047748590589));
#1606=CARTESIAN_POINT('',(56.5447694960142,14.7187273229819,48.1516984216392));
#1607=CARTESIAN_POINT('',(79.1075687077617,19.0769784348128,59.0830519519076));
#1608=CARTESIAN_POINT('Origin',(79.1075687077617,11.7071405808233,40.5980447837753));
#1609=CARTESIAN_POINT('',(111.575669163005,19.0769784348128,59.0830519519076));
#1610=CARTESIAN_POINT('',(77.695299507707,19.0769784348128,59.0830519519076));
#1611=CARTESIAN_POINT('Origin',(111.575669163005,18.3733255743816,57.3181517700257));
#1612=CARTESIAN_POINT('',(109.565232042159,10.7341629025712,38.1576248297345));
#1613=CARTESIAN_POINT('',(48.6493780693506,10.8649758409788,38.4857294844169));
#1614=CARTESIAN_POINT('',(60.6385209582601,10.8392299159363,38.421153625573));
#1615=CARTESIAN_POINT('',(111.375669163005,11.4007701954933,39.8296074204129));
#1616=CARTESIAN_POINT('Origin',(109.575669163005,11.4007701954933,39.8296074204129));
#1617=CARTESIAN_POINT('',(111.375669163005,17.5956039917998,55.3674726216298));
#1618=CARTESIAN_POINT('',(111.375669163005,12.5654075937193,42.7507477604041));
#1619=CARTESIAN_POINT('',(109.475669163005,18.299256852231,57.1323728035117));
#1620=CARTESIAN_POINT('Origin',(109.475669163005,17.5956039917998,55.3674726216298));
#1621=CARTESIAN_POINT('',(79.1075687077618,18.299256852231,57.1323728035117));
#1622=CARTESIAN_POINT('',(93.9957174287306,18.299256852231,57.1323728035117));
#1623=CARTESIAN_POINT('',(68.5817261363936,17.0231730274955,53.9317028410641));
#1624=CARTESIAN_POINT('Origin',(79.1075687077618,11.7071405808233,40.5980447837753));
#1625=CARTESIAN_POINT('',(48.1223911065018,11.4670676448558,39.9958945017539));
#1626=CARTESIAN_POINT('',(69.49315819725,17.2706890182075,54.5525217726589));
#1627=CARTESIAN_POINT('Origin',(48.6545966297732,11.1982794874399,39.3217207797561));
#1628=CARTESIAN_POINT('Origin',(111.575669163005,18.3733255743818,57.3181517700256));
#1629=CARTESIAN_POINT('',(111.575669163005,18.1480836022433,59.4533955626608));
#1630=CARTESIAN_POINT('',(111.575669163005,19.0769784348129,59.0830519519075));
#1631=CARTESIAN_POINT('Origin',(111.575669163005,17.4444307418121,57.6884953807789));
#1632=CARTESIAN_POINT('Origin',(79.0748333209574,19.0769784348129,59.0830519519076));
#1633=CARTESIAN_POINT('',(79.1075687077617,18.1480836022434,59.4533955626608));
#1634=CARTESIAN_POINT('',(79.1075687077617,19.0769784348127,59.0830519519076));
#1635=CARTESIAN_POINT('',(77.695299507707,18.1480836022434,59.4533955626608));
#1636=CARTESIAN_POINT('Origin',(79.1075687077617,11.7071405808232,40.5980447837753));
#1637=CARTESIAN_POINT('',(67.3399132487603,16.72145056223,55.8751184698121));
#1638=CARTESIAN_POINT('',(67.3399132487603,17.6503453947994,55.5047748590589));
#1639=CARTESIAN_POINT('Origin',(79.1075687077617,10.7782457482538,40.9683883945285));
#1640=CARTESIAN_POINT('Origin',(43.9531601817811,11.2992462799913,39.5749654129539));
#1641=CARTESIAN_POINT('',(44.1971116848717,10.4366009251027,40.1114757826067));
#1642=CARTESIAN_POINT('',(44.1971116848717,11.3654957576721,39.7411321718535));
#1643=CARTESIAN_POINT('',(56.5447694960142,13.7898324904125,48.5220420323924));
#1644=CARTESIAN_POINT('Origin',(45.3206566784447,10.798054092016,38.3178765365249));
#1645=CARTESIAN_POINT('',(45.3096397175526,9.16551822802901,36.9233496348953));
#1646=CARTESIAN_POINT('Origin',(45.3206566784447,9.86915925944675,38.6882201472781));
#1647=CARTESIAN_POINT('',(45.3096397175526,10.0944130605983,36.5530060241422));
#1648=CARTESIAN_POINT('Origin',(48.6545966297732,11.1982794874398,39.3217207797561));
#1649=CARTESIAN_POINT('',(48.6493780693506,10.8649758409788,38.4857294844169));
#1650=CARTESIAN_POINT('',(48.1223911065018,11.4670676448559,39.9958945017539));
#1651=CARTESIAN_POINT('Origin',(45.0193107484648,10.8727711806464,38.5052817340715));
#1652=CARTESIAN_POINT('',(109.565232042159,10.7341629025712,38.1576248297345));
#1653=CARTESIAN_POINT('Origin',(111.575669163005,21.16001007209,56.2071209377659));
#1654=CARTESIAN_POINT('Origin',(109.575669163005,11.4007701954932,39.8296074204129));
#1655=CARTESIAN_POINT('',(111.375669163005,11.4007701954932,39.8296074204129));
#1656=CARTESIAN_POINT('Origin',(111.375669163005,10.6185259215187,37.8675844698235));
#1657=CARTESIAN_POINT('',(111.375669163005,17.5956039917998,55.3674726216298));
#1658=CARTESIAN_POINT('Origin',(109.475669163005,17.5956039917998,55.3674726216298));
#1659=CARTESIAN_POINT('',(109.475669163005,18.2992568522309,57.1323728035118));
#1660=CARTESIAN_POINT('Origin',(111.675669163005,18.299256852231,57.1323728035117));
#1661=CARTESIAN_POINT('',(79.1075687077618,18.299256852231,57.1323728035118));
#1662=CARTESIAN_POINT('Origin',(79.1075687077618,11.7071405808233,40.5980447837753));
#1663=CARTESIAN_POINT('',(68.5817261363937,17.0231730274955,53.9317028410641));
#1664=CARTESIAN_POINT('Origin',(111.665232042159,9.95191862859665,36.1956018791451));
#1665=CARTESIAN_POINT('',(93.9553932846144,9.06105455313742,36.6613341309673));
#1666=CARTESIAN_POINT('Origin',(68.6081246966194,17.0303420377468,53.949684132988));
#1667=CARTESIAN_POINT('Origin',(76.3157656944565,13.5833944333504,48.0042546617379));
#1668=UNCERTAINTY_MEASURE_WITH_UNIT(LENGTH_MEASURE(0.01),#1672,
'DISTANCE_ACCURACY_VALUE',
'Maximum model space distance between geometric entities at asserted c
onnectivities');
#1669=UNCERTAINTY_MEASURE_WITH_UNIT(LENGTH_MEASURE(0.01),#1672,
'DISTANCE_ACCURACY_VALUE',
'Maximum model space distance between geometric entities at asserted c
onnectivities');
#1670=(
GEOMETRIC_REPRESENTATION_CONTEXT(3)
GLOBAL_UNCERTAINTY_ASSIGNED_CONTEXT((#1668))
GLOBAL_UNIT_ASSIGNED_CONTEXT((#1672,#1674,#1675))
REPRESENTATION_CONTEXT('','3D')
);
#1671=(
GEOMETRIC_REPRESENTATION_CONTEXT(3)
GLOBAL_UNCERTAINTY_ASSIGNED_CONTEXT((#1669))
GLOBAL_UNIT_ASSIGNED_CONTEXT((#1672,#1674,#1675))
REPRESENTATION_CONTEXT('','3D')
);
#1672=(
LENGTH_UNIT()
NAMED_UNIT(*)
SI_UNIT(.MILLI.,.METRE.)
);
#1673=(
LENGTH_UNIT()
NAMED_UNIT(*)
SI_UNIT($,.METRE.)
);
#1674=(
NAMED_UNIT(*)
PLANE_ANGLE_UNIT()
SI_UNIT($,.RADIAN.)
);
#1675=(
NAMED_UNIT(*)
SI_UNIT($,.STERADIAN.)
SOLID_ANGLE_UNIT()
);
#1676=SHAPE_DEFINITION_REPRESENTATION(#1677,#1678);
#1677=PRODUCT_DEFINITION_SHAPE('',$,#1680);
#1678=SHAPE_REPRESENTATION('',(#996),#1670);
#1679=PRODUCT_DEFINITION_CONTEXT('part definition',#1684,'design');
#1680=PRODUCT_DEFINITION('Left front window','Left front window',#1681,
#1679);
#1681=PRODUCT_DEFINITION_FORMATION('',$,#1686);
#1682=PRODUCT_RELATED_PRODUCT_CATEGORY('Left front window',
'Left front window',(#1686));
#1683=APPLICATION_PROTOCOL_DEFINITION('international standard',
'automotive_design',2009,#1684);
#1684=APPLICATION_CONTEXT(
'Core Data for Automotive Mechanical Design Process');
#1685=PRODUCT_CONTEXT('part definition',#1684,'mechanical');
#1686=PRODUCT('Left front window','Left front window',$,(#1685));
#1687=PRESENTATION_STYLE_ASSIGNMENT((#1689));
#1688=PRESENTATION_STYLE_ASSIGNMENT((#1690));
#1689=SURFACE_STYLE_USAGE(.BOTH.,#1691);
#1690=SURFACE_STYLE_USAGE(.BOTH.,#1692);
#1691=SURFACE_SIDE_STYLE('',(#1693));
#1692=SURFACE_SIDE_STYLE('',(#1694));
#1693=SURFACE_STYLE_FILL_AREA(#1695);
#1694=SURFACE_STYLE_FILL_AREA(#1696);
#1695=FILL_AREA_STYLE('Stahl - satiniert',(#1697));
#1696=FILL_AREA_STYLE('Opaque(25,25,25)',(#1698));
#1697=FILL_AREA_STYLE_COLOUR('Stahl - satiniert',#1699);
#1698=FILL_AREA_STYLE_COLOUR('Opaque(25,25,25)',#1700);
#1699=COLOUR_RGB('Stahl - satiniert',0.627450980392157,0.627450980392157,
0.627450980392157);
#1700=COLOUR_RGB('Opaque(25,25,25)',0.0980392156862745,0.0980392156862745,
0.0980392156862745);
ENDSEC;
END-ISO-10303-21;
