ISO-10303-21;
HEADER;
/* Generated by software containing ST-Developer
 * from STEP Tools, Inc. (www.steptools.com) 
 */

FILE_DESCRIPTION(
/* description */ (''),
/* implementation_level */ '2;1');

FILE_NAME(
/* name */ 'Left rear window.step',
/* time_stamp */ '2026-04-11T13:51:21+02:00',
/* author */ (''),
/* organization */ (''),
/* preprocessor_version */ 'ST-DEVELOPER v20.1',
/* originating_system */ 'Autodesk Translation Framework v14.24.0.0',
/* authorisation */ '');

FILE_SCHEMA (('AUTOMOTIVE_DESIGN { 1 0 10303 214 3 1 1 }'));
ENDSEC;

DATA;
#10=MECHANICAL_DESIGN_GEOMETRIC_PRESENTATION_REPRESENTATION('',(#13),#1171);
#11=SHAPE_REPRESENTATION_RELATIONSHIP('SRR','None',#1178,#12);
#12=ADVANCED_BREP_SHAPE_REPRESENTATION('',(#14),#1170);
#13=STYLED_ITEM('',(#1188),#14);
#14=MANIFOLD_SOLID_BREP('Left rear window',#687);
#15=FACE_BOUND('',#100,.T.);
#16=FACE_BOUND('',#108,.T.);
#17=FACE_BOUND('',#117,.T.);
#18=FACE_BOUND('',#119,.T.);
#19=FACE_BOUND('',#138,.T.);
#20=CIRCLE('',#704,4.);
#21=CIRCLE('',#705,4.);
#22=CIRCLE('',#707,4.);
#23=CIRCLE('',#711,1.6);
#24=CIRCLE('',#715,1.6);
#25=CIRCLE('',#716,1.6);
#26=CIRCLE('',#720,1.6);
#27=CIRCLE('',#728,1.6);
#28=CIRCLE('',#738,1.9);
#29=CIRCLE('',#739,1.9);
#30=CIRCLE('',#742,1.9);
#31=CIRCLE('',#743,1.9);
#32=CIRCLE('',#744,9.8);
#33=CIRCLE('',#746,9.8);
#34=CIRCLE('',#749,1.9);
#35=CIRCLE('',#752,1.9);
#36=CIRCLE('',#754,1.);
#37=CIRCLE('',#758,0.9);
#38=CIRCLE('',#761,0.9);
#39=CIRCLE('',#764,0.9);
#40=ELLIPSE('',#703,4.00022826401582,4.);
#41=ELLIPSE('',#706,5.65685424949236,4.);
#42=ELLIPSE('',#708,5.65685424949236,4.);
#43=ELLIPSE('',#710,1.60009130560633,1.6);
#44=ELLIPSE('',#713,2.26274169979176,1.60000000000733);
#45=ELLIPSE('',#718,2.26274169979176,1.60000000000733);
#46=ELLIPSE('',#733,1.00356114317464,1.);
#47=ELLIPSE('',#734,0.903205028857171,0.9);
#48=ELLIPSE('',#735,0.903205028857172,0.9);
#49=ELLIPSE('',#736,0.903205028857172,0.9);
#50=CYLINDRICAL_SURFACE('',#702,4.);
#51=CYLINDRICAL_SURFACE('',#709,1.6);
#52=CYLINDRICAL_SURFACE('',#727,1.6);
#53=CYLINDRICAL_SURFACE('',#737,1.9);
#54=CYLINDRICAL_SURFACE('',#745,9.8);
#55=CYLINDRICAL_SURFACE('',#748,1.9);
#56=CYLINDRICAL_SURFACE('',#751,1.9);
#57=CYLINDRICAL_SURFACE('',#753,1.);
#58=CYLINDRICAL_SURFACE('',#757,0.9);
#59=CYLINDRICAL_SURFACE('',#760,0.9);
#60=CYLINDRICAL_SURFACE('',#763,0.9);
#61=FACE_OUTER_BOUND('',#98,.T.);
#62=FACE_OUTER_BOUND('',#99,.T.);
#63=FACE_OUTER_BOUND('',#101,.T.);
#64=FACE_OUTER_BOUND('',#102,.T.);
#65=FACE_OUTER_BOUND('',#103,.T.);
#66=FACE_OUTER_BOUND('',#104,.T.);
#67=FACE_OUTER_BOUND('',#105,.T.);
#68=FACE_OUTER_BOUND('',#106,.T.);
#69=FACE_OUTER_BOUND('',#107,.T.);
#70=FACE_OUTER_BOUND('',#109,.T.);
#71=FACE_OUTER_BOUND('',#110,.T.);
#72=FACE_OUTER_BOUND('',#111,.T.);
#73=FACE_OUTER_BOUND('',#112,.T.);
#74=FACE_OUTER_BOUND('',#113,.T.);
#75=FACE_OUTER_BOUND('',#114,.T.);
#76=FACE_OUTER_BOUND('',#115,.T.);
#77=FACE_OUTER_BOUND('',#116,.T.);
#78=FACE_OUTER_BOUND('',#118,.T.);
#79=FACE_OUTER_BOUND('',#120,.T.);
#80=FACE_OUTER_BOUND('',#121,.T.);
#81=FACE_OUTER_BOUND('',#122,.T.);
#82=FACE_OUTER_BOUND('',#123,.T.);
#83=FACE_OUTER_BOUND('',#124,.T.);
#84=FACE_OUTER_BOUND('',#125,.T.);
#85=FACE_OUTER_BOUND('',#126,.T.);
#86=FACE_OUTER_BOUND('',#127,.T.);
#87=FACE_OUTER_BOUND('',#128,.T.);
#88=FACE_OUTER_BOUND('',#129,.T.);
#89=FACE_OUTER_BOUND('',#130,.T.);
#90=FACE_OUTER_BOUND('',#131,.T.);
#91=FACE_OUTER_BOUND('',#132,.T.);
#92=FACE_OUTER_BOUND('',#133,.T.);
#93=FACE_OUTER_BOUND('',#134,.T.);
#94=FACE_OUTER_BOUND('',#135,.T.);
#95=FACE_OUTER_BOUND('',#136,.T.);
#96=FACE_OUTER_BOUND('',#137,.T.);
#97=FACE_OUTER_BOUND('',#139,.T.);
#98=EDGE_LOOP('',(#432,#433,#434,#435,#436));
#99=EDGE_LOOP('',(#437,#438,#439,#440));
#100=EDGE_LOOP('',(#441,#442,#443,#444,#445,#446));
#101=EDGE_LOOP('',(#447,#448,#449,#450));
#102=EDGE_LOOP('',(#451,#452,#453,#454,#455,#456));
#103=EDGE_LOOP('',(#457,#458,#459,#460,#461));
#104=EDGE_LOOP('',(#462,#463,#464,#465,#466,#467));
#105=EDGE_LOOP('',(#468,#469,#470,#471,#472));
#106=EDGE_LOOP('',(#473,#474,#475,#476));
#107=EDGE_LOOP('',(#477,#478,#479,#480,#481));
#108=EDGE_LOOP('',(#482));
#109=EDGE_LOOP('',(#483,#484,#485,#486));
#110=EDGE_LOOP('',(#487,#488,#489,#490,#491));
#111=EDGE_LOOP('',(#492,#493,#494,#495,#496));
#112=EDGE_LOOP('',(#497,#498,#499,#500));
#113=EDGE_LOOP('',(#501,#502,#503,#504,#505,#506,#507,#508));
#114=EDGE_LOOP('',(#509,#510,#511,#512,#513));
#115=EDGE_LOOP('',(#514,#515,#516,#517));
#116=EDGE_LOOP('',(#518,#519,#520,#521));
#117=EDGE_LOOP('',(#522));
#118=EDGE_LOOP('',(#523,#524,#525,#526,#527,#528,#529,#530));
#119=EDGE_LOOP('',(#531,#532,#533,#534));
#120=EDGE_LOOP('',(#535,#536,#537,#538));
#121=EDGE_LOOP('',(#539,#540,#541,#542));
#122=EDGE_LOOP('',(#543,#544,#545,#546,#547,#548,#549,#550));
#123=EDGE_LOOP('',(#551,#552,#553,#554));
#124=EDGE_LOOP('',(#555,#556,#557,#558));
#125=EDGE_LOOP('',(#559,#560,#561,#562));
#126=EDGE_LOOP('',(#563,#564,#565,#566));
#127=EDGE_LOOP('',(#567,#568,#569,#570));
#128=EDGE_LOOP('',(#571,#572,#573,#574));
#129=EDGE_LOOP('',(#575,#576,#577,#578));
#130=EDGE_LOOP('',(#579));
#131=EDGE_LOOP('',(#580,#581,#582,#583));
#132=EDGE_LOOP('',(#584,#585,#586,#587));
#133=EDGE_LOOP('',(#588,#589,#590,#591));
#134=EDGE_LOOP('',(#592,#593,#594,#595));
#135=EDGE_LOOP('',(#596,#597,#598,#599));
#136=EDGE_LOOP('',(#600,#601,#602,#603));
#137=EDGE_LOOP('',(#604,#605,#606,#607,#608,#609,#610,#611));
#138=EDGE_LOOP('',(#612,#613,#614,#615,#616,#617,#618,#619));
#139=EDGE_LOOP('',(#620,#621,#622,#623));
#140=LINE('',#974,#206);
#141=LINE('',#976,#207);
#142=LINE('',#978,#208);
#143=LINE('',#980,#209);
#144=LINE('',#981,#210);
#145=LINE('',#987,#211);
#146=LINE('',#990,#212);
#147=LINE('',#994,#213);
#148=LINE('',#1004,#214);
#149=LINE('',#1011,#215);
#150=LINE('',#1013,#216);
#151=LINE('',#1014,#217);
#152=LINE('',#1015,#218);
#153=LINE('',#1018,#219);
#154=LINE('',#1025,#220);
#155=LINE('',#1027,#221);
#156=LINE('',#1029,#222);
#157=LINE('',#1033,#223);
#158=LINE('',#1034,#224);
#159=LINE('',#1037,#225);
#160=LINE('',#1038,#226);
#161=LINE('',#1041,#227);
#162=LINE('',#1043,#228);
#163=LINE('',#1044,#229);
#164=LINE('',#1047,#230);
#165=LINE('',#1049,#231);
#166=LINE('',#1050,#232);
#167=LINE('',#1052,#233);
#168=LINE('',#1053,#234);
#169=LINE('',#1058,#235);
#170=LINE('',#1061,#236);
#171=LINE('',#1063,#237);
#172=LINE('',#1064,#238);
#173=LINE('',#1066,#239);
#174=LINE('',#1073,#240);
#175=LINE('',#1077,#241);
#176=LINE('',#1081,#242);
#177=LINE('',#1084,#243);
#178=LINE('',#1090,#244);
#179=LINE('',#1093,#245);
#180=LINE('',#1096,#246);
#181=LINE('',#1098,#247);
#182=LINE('',#1099,#248);
#183=LINE('',#1102,#249);
#184=LINE('',#1106,#250);
#185=LINE('',#1110,#251);
#186=LINE('',#1114,#252);
#187=LINE('',#1118,#253);
#188=LINE('',#1119,#254);
#189=LINE('',#1122,#255);
#190=LINE('',#1126,#256);
#191=LINE('',#1127,#257);
#192=LINE('',#1131,#258);
#193=LINE('',#1134,#259);
#194=LINE('',#1137,#260);
#195=LINE('',#1140,#261);
#196=LINE('',#1141,#262);
#197=LINE('',#1145,#263);
#198=LINE('',#1149,#264);
#199=LINE('',#1150,#265);
#200=LINE('',#1153,#266);
#201=LINE('',#1157,#267);
#202=LINE('',#1158,#268);
#203=LINE('',#1161,#269);
#204=LINE('',#1164,#270);
#205=LINE('',#1166,#271);
#206=VECTOR('',#772,10.);
#207=VECTOR('',#773,10.);
#208=VECTOR('',#774,10.);
#209=VECTOR('',#775,10.);
#210=VECTOR('',#776,10.);
#211=VECTOR('',#783,10.);
#212=VECTOR('',#784,10.);
#213=VECTOR('',#787,10.);
#214=VECTOR('',#798,1.6);
#215=VECTOR('',#805,10.);
#216=VECTOR('',#806,10.);
#217=VECTOR('',#807,10.);
#218=VECTOR('',#808,10.);
#219=VECTOR('',#811,10.);
#220=VECTOR('',#818,10.);
#221=VECTOR('',#819,10.);
#222=VECTOR('',#822,10.);
#223=VECTOR('',#827,10.);
#224=VECTOR('',#828,10.);
#225=VECTOR('',#831,10.);
#226=VECTOR('',#832,10.);
#227=VECTOR('',#835,10.);
#228=VECTOR('',#836,10.);
#229=VECTOR('',#837,10.);
#230=VECTOR('',#840,10.);
#231=VECTOR('',#841,10.);
#232=VECTOR('',#842,10.);
#233=VECTOR('',#845,10.);
#234=VECTOR('',#846,10.);
#235=VECTOR('',#853,1.6);
#236=VECTOR('',#858,10.);
#237=VECTOR('',#859,10.);
#238=VECTOR('',#860,10.);
#239=VECTOR('',#863,10.);
#240=VECTOR('',#870,10.);
#241=VECTOR('',#873,10.);
#242=VECTOR('',#876,10.);
#243=VECTOR('',#879,10.);
#244=VECTOR('',#884,10.);
#245=VECTOR('',#887,10.);
#246=VECTOR('',#890,10.);
#247=VECTOR('',#891,10.);
#248=VECTOR('',#892,10.);
#249=VECTOR('',#895,10.);
#250=VECTOR('',#898,10.);
#251=VECTOR('',#901,10.);
#252=VECTOR('',#906,10.);
#253=VECTOR('',#911,10.);
#254=VECTOR('',#912,10.);
#255=VECTOR('',#915,10.);
#256=VECTOR('',#920,10.);
#257=VECTOR('',#921,10.);
#258=VECTOR('',#926,10.);
#259=VECTOR('',#929,10.);
#260=VECTOR('',#932,10.);
#261=VECTOR('',#935,10.);
#262=VECTOR('',#936,10.);
#263=VECTOR('',#941,10.);
#264=VECTOR('',#946,10.);
#265=VECTOR('',#947,10.);
#266=VECTOR('',#950,10.);
#267=VECTOR('',#955,10.);
#268=VECTOR('',#956,10.);
#269=VECTOR('',#959,10.);
#270=VECTOR('',#964,10.);
#271=VECTOR('',#967,10.);
#272=VERTEX_POINT('',#972);
#273=VERTEX_POINT('',#973);
#274=VERTEX_POINT('',#975);
#275=VERTEX_POINT('',#977);
#276=VERTEX_POINT('',#979);
#277=VERTEX_POINT('',#983);
#278=VERTEX_POINT('',#985);
#279=VERTEX_POINT('',#988);
#280=VERTEX_POINT('',#989);
#281=VERTEX_POINT('',#991);
#282=VERTEX_POINT('',#993);
#283=VERTEX_POINT('',#995);
#284=VERTEX_POINT('',#997);
#285=VERTEX_POINT('',#1001);
#286=VERTEX_POINT('',#1003);
#287=VERTEX_POINT('',#1007);
#288=VERTEX_POINT('',#1008);
#289=VERTEX_POINT('',#1010);
#290=VERTEX_POINT('',#1012);
#291=VERTEX_POINT('',#1017);
#292=VERTEX_POINT('',#1019);
#293=VERTEX_POINT('',#1023);
#294=VERTEX_POINT('',#1024);
#295=VERTEX_POINT('',#1026);
#296=VERTEX_POINT('',#1032);
#297=VERTEX_POINT('',#1036);
#298=VERTEX_POINT('',#1040);
#299=VERTEX_POINT('',#1042);
#300=VERTEX_POINT('',#1046);
#301=VERTEX_POINT('',#1048);
#302=VERTEX_POINT('',#1057);
#303=VERTEX_POINT('',#1062);
#304=VERTEX_POINT('',#1069);
#305=VERTEX_POINT('',#1070);
#306=VERTEX_POINT('',#1072);
#307=VERTEX_POINT('',#1074);
#308=VERTEX_POINT('',#1076);
#309=VERTEX_POINT('',#1078);
#310=VERTEX_POINT('',#1080);
#311=VERTEX_POINT('',#1082);
#312=VERTEX_POINT('',#1086);
#313=VERTEX_POINT('',#1087);
#314=VERTEX_POINT('',#1089);
#315=VERTEX_POINT('',#1091);
#316=VERTEX_POINT('',#1095);
#317=VERTEX_POINT('',#1097);
#318=VERTEX_POINT('',#1101);
#319=VERTEX_POINT('',#1103);
#320=VERTEX_POINT('',#1105);
#321=VERTEX_POINT('',#1107);
#322=VERTEX_POINT('',#1109);
#323=VERTEX_POINT('',#1113);
#324=VERTEX_POINT('',#1117);
#325=VERTEX_POINT('',#1121);
#326=VERTEX_POINT('',#1125);
#327=VERTEX_POINT('',#1129);
#328=VERTEX_POINT('',#1133);
#329=VERTEX_POINT('',#1135);
#330=VERTEX_POINT('',#1139);
#331=VERTEX_POINT('',#1144);
#332=VERTEX_POINT('',#1148);
#333=VERTEX_POINT('',#1152);
#334=VERTEX_POINT('',#1156);
#335=VERTEX_POINT('',#1160);
#336=EDGE_CURVE('',#272,#273,#140,.T.);
#337=EDGE_CURVE('',#273,#274,#141,.T.);
#338=EDGE_CURVE('',#275,#274,#142,.T.);
#339=EDGE_CURVE('',#275,#276,#143,.T.);
#340=EDGE_CURVE('',#276,#272,#144,.T.);
#341=EDGE_CURVE('',#277,#272,#40,.T.);
#342=EDGE_CURVE('',#276,#278,#20,.T.);
#343=EDGE_CURVE('',#278,#277,#145,.T.);
#344=EDGE_CURVE('',#279,#280,#146,.T.);
#345=EDGE_CURVE('',#281,#279,#21,.T.);
#346=EDGE_CURVE('',#282,#281,#147,.T.);
#347=EDGE_CURVE('',#282,#283,#41,.T.);
#348=EDGE_CURVE('',#284,#283,#22,.T.);
#349=EDGE_CURVE('',#284,#280,#42,.T.);
#350=EDGE_CURVE('',#285,#285,#43,.T.);
#351=EDGE_CURVE('',#285,#286,#148,.T.);
#352=EDGE_CURVE('',#286,#286,#23,.T.);
#353=EDGE_CURVE('',#287,#288,#44,.F.);
#354=EDGE_CURVE('',#289,#288,#149,.T.);
#355=EDGE_CURVE('',#289,#290,#150,.T.);
#356=EDGE_CURVE('',#280,#290,#151,.T.);
#357=EDGE_CURVE('',#287,#284,#152,.T.);
#358=EDGE_CURVE('',#283,#291,#153,.T.);
#359=EDGE_CURVE('',#291,#292,#24,.T.);
#360=EDGE_CURVE('',#292,#287,#25,.T.);
#361=EDGE_CURVE('',#293,#294,#154,.T.);
#362=EDGE_CURVE('',#295,#294,#155,.T.);
#363=EDGE_CURVE('',#295,#291,#45,.F.);
#364=EDGE_CURVE('',#293,#282,#156,.T.);
#365=EDGE_CURVE('',#288,#295,#26,.T.);
#366=EDGE_CURVE('',#294,#296,#157,.T.);
#367=EDGE_CURVE('',#296,#289,#158,.T.);
#368=EDGE_CURVE('',#297,#281,#159,.T.);
#369=EDGE_CURVE('',#297,#293,#160,.T.);
#370=EDGE_CURVE('',#279,#298,#161,.T.);
#371=EDGE_CURVE('',#298,#299,#162,.T.);
#372=EDGE_CURVE('',#299,#297,#163,.T.);
#373=EDGE_CURVE('',#273,#300,#164,.T.);
#374=EDGE_CURVE('',#301,#300,#165,.T.);
#375=EDGE_CURVE('',#274,#301,#166,.T.);
#376=EDGE_CURVE('',#299,#296,#167,.T.);
#377=EDGE_CURVE('',#290,#298,#168,.T.);
#378=EDGE_CURVE('',#292,#302,#169,.T.);
#379=EDGE_CURVE('',#302,#302,#27,.T.);
#380=EDGE_CURVE('',#300,#277,#170,.T.);
#381=EDGE_CURVE('',#278,#303,#171,.T.);
#382=EDGE_CURVE('',#303,#301,#172,.T.);
#383=EDGE_CURVE('',#303,#275,#173,.T.);
#384=EDGE_CURVE('',#304,#305,#46,.T.);
#385=EDGE_CURVE('',#306,#304,#174,.T.);
#386=EDGE_CURVE('',#307,#306,#47,.T.);
#387=EDGE_CURVE('',#308,#307,#175,.T.);
#388=EDGE_CURVE('',#309,#308,#48,.T.);
#389=EDGE_CURVE('',#310,#309,#176,.T.);
#390=EDGE_CURVE('',#311,#310,#49,.T.);
#391=EDGE_CURVE('',#305,#311,#177,.F.);
#392=EDGE_CURVE('',#312,#313,#28,.T.);
#393=EDGE_CURVE('',#313,#314,#178,.T.);
#394=EDGE_CURVE('',#314,#315,#29,.T.);
#395=EDGE_CURVE('',#315,#312,#179,.T.);
#396=EDGE_CURVE('',#315,#316,#180,.F.);
#397=EDGE_CURVE('',#317,#316,#181,.T.);
#398=EDGE_CURVE('',#312,#317,#182,.F.);
#399=EDGE_CURVE('',#318,#314,#183,.F.);
#400=EDGE_CURVE('',#319,#318,#30,.T.);
#401=EDGE_CURVE('',#319,#320,#184,.F.);
#402=EDGE_CURVE('',#321,#320,#31,.T.);
#403=EDGE_CURVE('',#322,#321,#185,.F.);
#404=EDGE_CURVE('',#316,#322,#32,.T.);
#405=EDGE_CURVE('',#322,#323,#186,.T.);
#406=EDGE_CURVE('',#323,#317,#33,.T.);
#407=EDGE_CURVE('',#324,#321,#187,.T.);
#408=EDGE_CURVE('',#324,#323,#188,.T.);
#409=EDGE_CURVE('',#320,#325,#189,.T.);
#410=EDGE_CURVE('',#325,#324,#34,.T.);
#411=EDGE_CURVE('',#326,#319,#190,.T.);
#412=EDGE_CURVE('',#325,#326,#191,.T.);
#413=EDGE_CURVE('',#327,#326,#35,.T.);
#414=EDGE_CURVE('',#318,#327,#192,.T.);
#415=EDGE_CURVE('',#305,#328,#193,.T.);
#416=EDGE_CURVE('',#328,#329,#36,.F.);
#417=EDGE_CURVE('',#329,#304,#194,.T.);
#418=EDGE_CURVE('',#330,#311,#195,.T.);
#419=EDGE_CURVE('',#328,#330,#196,.F.);
#420=EDGE_CURVE('',#310,#331,#197,.T.);
#421=EDGE_CURVE('',#331,#330,#37,.F.);
#422=EDGE_CURVE('',#332,#309,#198,.T.);
#423=EDGE_CURVE('',#331,#332,#199,.T.);
#424=EDGE_CURVE('',#308,#333,#200,.T.);
#425=EDGE_CURVE('',#333,#332,#38,.F.);
#426=EDGE_CURVE('',#334,#307,#201,.T.);
#427=EDGE_CURVE('',#334,#333,#202,.F.);
#428=EDGE_CURVE('',#306,#335,#203,.T.);
#429=EDGE_CURVE('',#335,#334,#39,.F.);
#430=EDGE_CURVE('',#327,#313,#204,.F.);
#431=EDGE_CURVE('',#329,#335,#205,.F.);
#432=ORIENTED_EDGE('',*,*,#336,.T.);
#433=ORIENTED_EDGE('',*,*,#337,.T.);
#434=ORIENTED_EDGE('',*,*,#338,.F.);
#435=ORIENTED_EDGE('',*,*,#339,.T.);
#436=ORIENTED_EDGE('',*,*,#340,.T.);
#437=ORIENTED_EDGE('',*,*,#341,.T.);
#438=ORIENTED_EDGE('',*,*,#340,.F.);
#439=ORIENTED_EDGE('',*,*,#342,.T.);
#440=ORIENTED_EDGE('',*,*,#343,.T.);
#441=ORIENTED_EDGE('',*,*,#344,.F.);
#442=ORIENTED_EDGE('',*,*,#345,.F.);
#443=ORIENTED_EDGE('',*,*,#346,.F.);
#444=ORIENTED_EDGE('',*,*,#347,.T.);
#445=ORIENTED_EDGE('',*,*,#348,.F.);
#446=ORIENTED_EDGE('',*,*,#349,.T.);
#447=ORIENTED_EDGE('',*,*,#350,.T.);
#448=ORIENTED_EDGE('',*,*,#351,.T.);
#449=ORIENTED_EDGE('',*,*,#352,.F.);
#450=ORIENTED_EDGE('',*,*,#351,.F.);
#451=ORIENTED_EDGE('',*,*,#353,.T.);
#452=ORIENTED_EDGE('',*,*,#354,.F.);
#453=ORIENTED_EDGE('',*,*,#355,.T.);
#454=ORIENTED_EDGE('',*,*,#356,.F.);
#455=ORIENTED_EDGE('',*,*,#349,.F.);
#456=ORIENTED_EDGE('',*,*,#357,.F.);
#457=ORIENTED_EDGE('',*,*,#357,.T.);
#458=ORIENTED_EDGE('',*,*,#348,.T.);
#459=ORIENTED_EDGE('',*,*,#358,.T.);
#460=ORIENTED_EDGE('',*,*,#359,.T.);
#461=ORIENTED_EDGE('',*,*,#360,.T.);
#462=ORIENTED_EDGE('',*,*,#361,.T.);
#463=ORIENTED_EDGE('',*,*,#362,.F.);
#464=ORIENTED_EDGE('',*,*,#363,.T.);
#465=ORIENTED_EDGE('',*,*,#358,.F.);
#466=ORIENTED_EDGE('',*,*,#347,.F.);
#467=ORIENTED_EDGE('',*,*,#364,.F.);
#468=ORIENTED_EDGE('',*,*,#354,.T.);
#469=ORIENTED_EDGE('',*,*,#365,.T.);
#470=ORIENTED_EDGE('',*,*,#362,.T.);
#471=ORIENTED_EDGE('',*,*,#366,.T.);
#472=ORIENTED_EDGE('',*,*,#367,.T.);
#473=ORIENTED_EDGE('',*,*,#364,.T.);
#474=ORIENTED_EDGE('',*,*,#346,.T.);
#475=ORIENTED_EDGE('',*,*,#368,.F.);
#476=ORIENTED_EDGE('',*,*,#369,.T.);
#477=ORIENTED_EDGE('',*,*,#368,.T.);
#478=ORIENTED_EDGE('',*,*,#345,.T.);
#479=ORIENTED_EDGE('',*,*,#370,.T.);
#480=ORIENTED_EDGE('',*,*,#371,.T.);
#481=ORIENTED_EDGE('',*,*,#372,.T.);
#482=ORIENTED_EDGE('',*,*,#352,.T.);
#483=ORIENTED_EDGE('',*,*,#373,.T.);
#484=ORIENTED_EDGE('',*,*,#374,.F.);
#485=ORIENTED_EDGE('',*,*,#375,.F.);
#486=ORIENTED_EDGE('',*,*,#337,.F.);
#487=ORIENTED_EDGE('',*,*,#355,.F.);
#488=ORIENTED_EDGE('',*,*,#367,.F.);
#489=ORIENTED_EDGE('',*,*,#376,.F.);
#490=ORIENTED_EDGE('',*,*,#371,.F.);
#491=ORIENTED_EDGE('',*,*,#377,.F.);
#492=ORIENTED_EDGE('',*,*,#361,.F.);
#493=ORIENTED_EDGE('',*,*,#369,.F.);
#494=ORIENTED_EDGE('',*,*,#372,.F.);
#495=ORIENTED_EDGE('',*,*,#376,.T.);
#496=ORIENTED_EDGE('',*,*,#366,.F.);
#497=ORIENTED_EDGE('',*,*,#356,.T.);
#498=ORIENTED_EDGE('',*,*,#377,.T.);
#499=ORIENTED_EDGE('',*,*,#370,.F.);
#500=ORIENTED_EDGE('',*,*,#344,.T.);
#501=ORIENTED_EDGE('',*,*,#359,.F.);
#502=ORIENTED_EDGE('',*,*,#363,.F.);
#503=ORIENTED_EDGE('',*,*,#365,.F.);
#504=ORIENTED_EDGE('',*,*,#353,.F.);
#505=ORIENTED_EDGE('',*,*,#360,.F.);
#506=ORIENTED_EDGE('',*,*,#378,.T.);
#507=ORIENTED_EDGE('',*,*,#379,.F.);
#508=ORIENTED_EDGE('',*,*,#378,.F.);
#509=ORIENTED_EDGE('',*,*,#380,.T.);
#510=ORIENTED_EDGE('',*,*,#343,.F.);
#511=ORIENTED_EDGE('',*,*,#381,.T.);
#512=ORIENTED_EDGE('',*,*,#382,.T.);
#513=ORIENTED_EDGE('',*,*,#374,.T.);
#514=ORIENTED_EDGE('',*,*,#383,.T.);
#515=ORIENTED_EDGE('',*,*,#338,.T.);
#516=ORIENTED_EDGE('',*,*,#375,.T.);
#517=ORIENTED_EDGE('',*,*,#382,.F.);
#518=ORIENTED_EDGE('',*,*,#342,.F.);
#519=ORIENTED_EDGE('',*,*,#339,.F.);
#520=ORIENTED_EDGE('',*,*,#383,.F.);
#521=ORIENTED_EDGE('',*,*,#381,.F.);
#522=ORIENTED_EDGE('',*,*,#379,.T.);
#523=ORIENTED_EDGE('',*,*,#384,.F.);
#524=ORIENTED_EDGE('',*,*,#385,.F.);
#525=ORIENTED_EDGE('',*,*,#386,.F.);
#526=ORIENTED_EDGE('',*,*,#387,.F.);
#527=ORIENTED_EDGE('',*,*,#388,.F.);
#528=ORIENTED_EDGE('',*,*,#389,.F.);
#529=ORIENTED_EDGE('',*,*,#390,.F.);
#530=ORIENTED_EDGE('',*,*,#391,.F.);
#531=ORIENTED_EDGE('',*,*,#341,.F.);
#532=ORIENTED_EDGE('',*,*,#380,.F.);
#533=ORIENTED_EDGE('',*,*,#373,.F.);
#534=ORIENTED_EDGE('',*,*,#336,.F.);
#535=ORIENTED_EDGE('',*,*,#392,.T.);
#536=ORIENTED_EDGE('',*,*,#393,.T.);
#537=ORIENTED_EDGE('',*,*,#394,.T.);
#538=ORIENTED_EDGE('',*,*,#395,.T.);
#539=ORIENTED_EDGE('',*,*,#395,.F.);
#540=ORIENTED_EDGE('',*,*,#396,.T.);
#541=ORIENTED_EDGE('',*,*,#397,.F.);
#542=ORIENTED_EDGE('',*,*,#398,.F.);
#543=ORIENTED_EDGE('',*,*,#394,.F.);
#544=ORIENTED_EDGE('',*,*,#399,.F.);
#545=ORIENTED_EDGE('',*,*,#400,.F.);
#546=ORIENTED_EDGE('',*,*,#401,.T.);
#547=ORIENTED_EDGE('',*,*,#402,.F.);
#548=ORIENTED_EDGE('',*,*,#403,.F.);
#549=ORIENTED_EDGE('',*,*,#404,.F.);
#550=ORIENTED_EDGE('',*,*,#396,.F.);
#551=ORIENTED_EDGE('',*,*,#404,.T.);
#552=ORIENTED_EDGE('',*,*,#405,.T.);
#553=ORIENTED_EDGE('',*,*,#406,.T.);
#554=ORIENTED_EDGE('',*,*,#397,.T.);
#555=ORIENTED_EDGE('',*,*,#405,.F.);
#556=ORIENTED_EDGE('',*,*,#403,.T.);
#557=ORIENTED_EDGE('',*,*,#407,.F.);
#558=ORIENTED_EDGE('',*,*,#408,.T.);
#559=ORIENTED_EDGE('',*,*,#402,.T.);
#560=ORIENTED_EDGE('',*,*,#409,.T.);
#561=ORIENTED_EDGE('',*,*,#410,.T.);
#562=ORIENTED_EDGE('',*,*,#407,.T.);
#563=ORIENTED_EDGE('',*,*,#409,.F.);
#564=ORIENTED_EDGE('',*,*,#401,.F.);
#565=ORIENTED_EDGE('',*,*,#411,.F.);
#566=ORIENTED_EDGE('',*,*,#412,.F.);
#567=ORIENTED_EDGE('',*,*,#413,.T.);
#568=ORIENTED_EDGE('',*,*,#411,.T.);
#569=ORIENTED_EDGE('',*,*,#400,.T.);
#570=ORIENTED_EDGE('',*,*,#414,.T.);
#571=ORIENTED_EDGE('',*,*,#384,.T.);
#572=ORIENTED_EDGE('',*,*,#415,.T.);
#573=ORIENTED_EDGE('',*,*,#416,.T.);
#574=ORIENTED_EDGE('',*,*,#417,.T.);
#575=ORIENTED_EDGE('',*,*,#415,.F.);
#576=ORIENTED_EDGE('',*,*,#391,.T.);
#577=ORIENTED_EDGE('',*,*,#418,.F.);
#578=ORIENTED_EDGE('',*,*,#419,.F.);
#579=ORIENTED_EDGE('',*,*,#350,.F.);
#580=ORIENTED_EDGE('',*,*,#390,.T.);
#581=ORIENTED_EDGE('',*,*,#420,.T.);
#582=ORIENTED_EDGE('',*,*,#421,.T.);
#583=ORIENTED_EDGE('',*,*,#418,.T.);
#584=ORIENTED_EDGE('',*,*,#420,.F.);
#585=ORIENTED_EDGE('',*,*,#389,.T.);
#586=ORIENTED_EDGE('',*,*,#422,.F.);
#587=ORIENTED_EDGE('',*,*,#423,.F.);
#588=ORIENTED_EDGE('',*,*,#388,.T.);
#589=ORIENTED_EDGE('',*,*,#424,.T.);
#590=ORIENTED_EDGE('',*,*,#425,.T.);
#591=ORIENTED_EDGE('',*,*,#422,.T.);
#592=ORIENTED_EDGE('',*,*,#424,.F.);
#593=ORIENTED_EDGE('',*,*,#387,.T.);
#594=ORIENTED_EDGE('',*,*,#426,.F.);
#595=ORIENTED_EDGE('',*,*,#427,.T.);
#596=ORIENTED_EDGE('',*,*,#386,.T.);
#597=ORIENTED_EDGE('',*,*,#428,.T.);
#598=ORIENTED_EDGE('',*,*,#429,.T.);
#599=ORIENTED_EDGE('',*,*,#426,.T.);
#600=ORIENTED_EDGE('',*,*,#393,.F.);
#601=ORIENTED_EDGE('',*,*,#430,.F.);
#602=ORIENTED_EDGE('',*,*,#414,.F.);
#603=ORIENTED_EDGE('',*,*,#399,.T.);
#604=ORIENTED_EDGE('',*,*,#392,.F.);
#605=ORIENTED_EDGE('',*,*,#398,.T.);
#606=ORIENTED_EDGE('',*,*,#406,.F.);
#607=ORIENTED_EDGE('',*,*,#408,.F.);
#608=ORIENTED_EDGE('',*,*,#410,.F.);
#609=ORIENTED_EDGE('',*,*,#412,.T.);
#610=ORIENTED_EDGE('',*,*,#413,.F.);
#611=ORIENTED_EDGE('',*,*,#430,.T.);
#612=ORIENTED_EDGE('',*,*,#419,.T.);
#613=ORIENTED_EDGE('',*,*,#421,.F.);
#614=ORIENTED_EDGE('',*,*,#423,.T.);
#615=ORIENTED_EDGE('',*,*,#425,.F.);
#616=ORIENTED_EDGE('',*,*,#427,.F.);
#617=ORIENTED_EDGE('',*,*,#429,.F.);
#618=ORIENTED_EDGE('',*,*,#431,.F.);
#619=ORIENTED_EDGE('',*,*,#416,.F.);
#620=ORIENTED_EDGE('',*,*,#417,.F.);
#621=ORIENTED_EDGE('',*,*,#431,.T.);
#622=ORIENTED_EDGE('',*,*,#428,.F.);
#623=ORIENTED_EDGE('',*,*,#385,.T.);
#624=PLANE('',#701);
#625=PLANE('',#712);
#626=PLANE('',#714);
#627=PLANE('',#717);
#628=PLANE('',#719);
#629=PLANE('',#721);
#630=PLANE('',#722);
#631=PLANE('',#723);
#632=PLANE('',#724);
#633=PLANE('',#725);
#634=PLANE('',#726);
#635=PLANE('',#729);
#636=PLANE('',#730);
#637=PLANE('',#731);
#638=PLANE('',#732);
#639=PLANE('',#740);
#640=PLANE('',#741);
#641=PLANE('',#747);
#642=PLANE('',#750);
#643=PLANE('',#755);
#644=PLANE('',#756);
#645=PLANE('',#759);
#646=PLANE('',#762);
#647=PLANE('',#765);
#648=PLANE('',#766);
#649=PLANE('',#767);
#650=ADVANCED_FACE('',(#61),#624,.F.);
#651=ADVANCED_FACE('',(#62,#15),#50,.T.);
#652=ADVANCED_FACE('',(#63),#51,.F.);
#653=ADVANCED_FACE('',(#64),#625,.F.);
#654=ADVANCED_FACE('',(#65),#626,.F.);
#655=ADVANCED_FACE('',(#66),#627,.F.);
#656=ADVANCED_FACE('',(#67),#628,.F.);
#657=ADVANCED_FACE('',(#68),#629,.T.);
#658=ADVANCED_FACE('',(#69,#16),#630,.T.);
#659=ADVANCED_FACE('',(#70),#631,.F.);
#660=ADVANCED_FACE('',(#71),#632,.T.);
#661=ADVANCED_FACE('',(#72),#633,.T.);
#662=ADVANCED_FACE('',(#73),#634,.T.);
#663=ADVANCED_FACE('',(#74),#52,.F.);
#664=ADVANCED_FACE('',(#75),#635,.F.);
#665=ADVANCED_FACE('',(#76),#636,.F.);
#666=ADVANCED_FACE('',(#77,#17),#637,.F.);
#667=ADVANCED_FACE('',(#78,#18),#638,.F.);
#668=ADVANCED_FACE('',(#79),#53,.T.);
#669=ADVANCED_FACE('',(#80),#639,.T.);
#670=ADVANCED_FACE('',(#81),#640,.T.);
#671=ADVANCED_FACE('',(#82),#54,.T.);
#672=ADVANCED_FACE('',(#83),#641,.F.);
#673=ADVANCED_FACE('',(#84),#55,.T.);
#674=ADVANCED_FACE('',(#85),#642,.F.);
#675=ADVANCED_FACE('',(#86),#56,.T.);
#676=ADVANCED_FACE('',(#87),#57,.T.);
#677=ADVANCED_FACE('',(#88),#643,.F.);
#678=ADVANCED_FACE('',(#89),#644,.F.);
#679=ADVANCED_FACE('',(#90),#58,.T.);
#680=ADVANCED_FACE('',(#91),#645,.T.);
#681=ADVANCED_FACE('',(#92),#59,.T.);
#682=ADVANCED_FACE('',(#93),#646,.F.);
#683=ADVANCED_FACE('',(#94),#60,.T.);
#684=ADVANCED_FACE('',(#95),#647,.T.);
#685=ADVANCED_FACE('',(#96,#19),#648,.F.);
#686=ADVANCED_FACE('',(#97),#649,.F.);
#687=CLOSED_SHELL('',(#650,#651,#652,#653,#654,#655,#656,#657,#658,#659,
#660,#661,#662,#663,#664,#665,#666,#667,#668,#669,#670,#671,#672,#673,#674,
#675,#676,#677,#678,#679,#680,#681,#682,#683,#684,#685,#686));
#688=DERIVED_UNIT_ELEMENT(#690,1.);
#689=DERIVED_UNIT_ELEMENT(#1173,-3.);
#690=(
MASS_UNIT()
NAMED_UNIT(*)
SI_UNIT(.KILO.,.GRAM.)
);
#691=DERIVED_UNIT((#688,#689));
#692=MEASURE_REPRESENTATION_ITEM('density measure',
POSITIVE_RATIO_MEASURE(7850.),#691);
#693=PROPERTY_DEFINITION_REPRESENTATION(#698,#695);
#694=PROPERTY_DEFINITION_REPRESENTATION(#699,#696);
#695=REPRESENTATION('material name',(#697),#1170);
#696=REPRESENTATION('density',(#692),#1170);
#697=DESCRIPTIVE_REPRESENTATION_ITEM('Stahl','Stahl');
#698=PROPERTY_DEFINITION('material property','material name',#1180);
#699=PROPERTY_DEFINITION('material property','density of part',#1180);
#700=AXIS2_PLACEMENT_3D('',#970,#768,#769);
#701=AXIS2_PLACEMENT_3D('',#971,#770,#771);
#702=AXIS2_PLACEMENT_3D('',#982,#777,#778);
#703=AXIS2_PLACEMENT_3D('',#984,#779,#780);
#704=AXIS2_PLACEMENT_3D('',#986,#781,#782);
#705=AXIS2_PLACEMENT_3D('',#992,#785,#786);
#706=AXIS2_PLACEMENT_3D('',#996,#788,#789);
#707=AXIS2_PLACEMENT_3D('',#998,#790,#791);
#708=AXIS2_PLACEMENT_3D('',#999,#792,#793);
#709=AXIS2_PLACEMENT_3D('',#1000,#794,#795);
#710=AXIS2_PLACEMENT_3D('',#1002,#796,#797);
#711=AXIS2_PLACEMENT_3D('',#1005,#799,#800);
#712=AXIS2_PLACEMENT_3D('',#1006,#801,#802);
#713=AXIS2_PLACEMENT_3D('',#1009,#803,#804);
#714=AXIS2_PLACEMENT_3D('',#1016,#809,#810);
#715=AXIS2_PLACEMENT_3D('',#1020,#812,#813);
#716=AXIS2_PLACEMENT_3D('',#1021,#814,#815);
#717=AXIS2_PLACEMENT_3D('',#1022,#816,#817);
#718=AXIS2_PLACEMENT_3D('',#1028,#820,#821);
#719=AXIS2_PLACEMENT_3D('',#1030,#823,#824);
#720=AXIS2_PLACEMENT_3D('',#1031,#825,#826);
#721=AXIS2_PLACEMENT_3D('',#1035,#829,#830);
#722=AXIS2_PLACEMENT_3D('',#1039,#833,#834);
#723=AXIS2_PLACEMENT_3D('',#1045,#838,#839);
#724=AXIS2_PLACEMENT_3D('',#1051,#843,#844);
#725=AXIS2_PLACEMENT_3D('',#1054,#847,#848);
#726=AXIS2_PLACEMENT_3D('',#1055,#849,#850);
#727=AXIS2_PLACEMENT_3D('',#1056,#851,#852);
#728=AXIS2_PLACEMENT_3D('',#1059,#854,#855);
#729=AXIS2_PLACEMENT_3D('',#1060,#856,#857);
#730=AXIS2_PLACEMENT_3D('',#1065,#861,#862);
#731=AXIS2_PLACEMENT_3D('',#1067,#864,#865);
#732=AXIS2_PLACEMENT_3D('',#1068,#866,#867);
#733=AXIS2_PLACEMENT_3D('',#1071,#868,#869);
#734=AXIS2_PLACEMENT_3D('',#1075,#871,#872);
#735=AXIS2_PLACEMENT_3D('',#1079,#874,#875);
#736=AXIS2_PLACEMENT_3D('',#1083,#877,#878);
#737=AXIS2_PLACEMENT_3D('',#1085,#880,#881);
#738=AXIS2_PLACEMENT_3D('',#1088,#882,#883);
#739=AXIS2_PLACEMENT_3D('',#1092,#885,#886);
#740=AXIS2_PLACEMENT_3D('',#1094,#888,#889);
#741=AXIS2_PLACEMENT_3D('',#1100,#893,#894);
#742=AXIS2_PLACEMENT_3D('',#1104,#896,#897);
#743=AXIS2_PLACEMENT_3D('',#1108,#899,#900);
#744=AXIS2_PLACEMENT_3D('',#1111,#902,#903);
#745=AXIS2_PLACEMENT_3D('',#1112,#904,#905);
#746=AXIS2_PLACEMENT_3D('',#1115,#907,#908);
#747=AXIS2_PLACEMENT_3D('',#1116,#909,#910);
#748=AXIS2_PLACEMENT_3D('',#1120,#913,#914);
#749=AXIS2_PLACEMENT_3D('',#1123,#916,#917);
#750=AXIS2_PLACEMENT_3D('',#1124,#918,#919);
#751=AXIS2_PLACEMENT_3D('',#1128,#922,#923);
#752=AXIS2_PLACEMENT_3D('',#1130,#924,#925);
#753=AXIS2_PLACEMENT_3D('',#1132,#927,#928);
#754=AXIS2_PLACEMENT_3D('',#1136,#930,#931);
#755=AXIS2_PLACEMENT_3D('',#1138,#933,#934);
#756=AXIS2_PLACEMENT_3D('',#1142,#937,#938);
#757=AXIS2_PLACEMENT_3D('',#1143,#939,#940);
#758=AXIS2_PLACEMENT_3D('',#1146,#942,#943);
#759=AXIS2_PLACEMENT_3D('',#1147,#944,#945);
#760=AXIS2_PLACEMENT_3D('',#1151,#948,#949);
#761=AXIS2_PLACEMENT_3D('',#1154,#951,#952);
#762=AXIS2_PLACEMENT_3D('',#1155,#953,#954);
#763=AXIS2_PLACEMENT_3D('',#1159,#957,#958);
#764=AXIS2_PLACEMENT_3D('',#1162,#960,#961);
#765=AXIS2_PLACEMENT_3D('',#1163,#962,#963);
#766=AXIS2_PLACEMENT_3D('',#1165,#965,#966);
#767=AXIS2_PLACEMENT_3D('',#1167,#968,#969);
#768=DIRECTION('axis',(0.,0.,1.));
#769=DIRECTION('refdir',(1.,0.,0.));
#770=DIRECTION('center_axis',(1.,-4.09586448692021E-63,-7.97751699037021E-63));
#771=DIRECTION('ref_axis',(8.96754610954745E-63,0.456743064031695,0.889598658642727));
#772=DIRECTION('',(8.96703439672711E-63,0.447213595499958,0.894427190999916));
#773=DIRECTION('',(2.22044604925031E-15,0.456743064031695,0.889598658642727));
#774=DIRECTION('',(0.,-0.889598658642727,0.456743064031696));
#775=DIRECTION('',(-8.96754610954745E-63,-0.456743064031695,-0.889598658642727));
#776=DIRECTION('',(0.,-0.889598658642727,0.456743064031696));
#777=DIRECTION('center_axis',(0.,0.889598658642727,-0.456743064031696));
#778=DIRECTION('ref_axis',(0.707106781186546,-0.322966117836734,-0.62904124406073));
#779=DIRECTION('center_axis',(0.,0.894427190999916,-0.447213595499958));
#780=DIRECTION('ref_axis',(-7.61708305121784E-13,-0.447213595499958,-0.894427190999916));
#781=DIRECTION('center_axis',(0.,-0.889598658642727,0.456743064031695));
#782=DIRECTION('ref_axis',(0.707106781186546,-0.322966117836733,-0.62904124406073));
#783=DIRECTION('',(0.,-0.889598658642727,0.456743064031696));
#784=DIRECTION('',(0.,0.889598658642727,-0.456743064031695));
#785=DIRECTION('center_axis',(4.06756404254584E-31,0.889598658642727,-0.456743064031695));
#786=DIRECTION('ref_axis',(0.707106781186546,-0.322966117836734,-0.62904124406073));
#787=DIRECTION('',(0.,-0.889598658642727,0.456743064031695));
#788=DIRECTION('center_axis',(0.707106781183304,0.629042221855051,-0.322964213386325));
#789=DIRECTION('ref_axis',(0.70710678118331,-0.629040266266406,0.322968022287142));
#790=DIRECTION('center_axis',(-4.06756404254584E-31,-0.889598658642727,
0.456743064031695));
#791=DIRECTION('ref_axis',(0.707106781186546,-0.322966117836734,-0.62904124406073));
#792=DIRECTION('center_axis',(-0.707106781183304,0.629040266266412,-0.322968022287144));
#793=DIRECTION('ref_axis',(0.70710678118331,0.629042221855046,-0.322964213386323));
#794=DIRECTION('center_axis',(0.,0.889598658642726,-0.456743064031696));
#795=DIRECTION('ref_axis',(-1.,0.,0.));
#796=DIRECTION('center_axis',(0.,-0.894427190999916,0.447213595499958));
#797=DIRECTION('ref_axis',(0.,0.447213595499958,0.894427190999916));
#798=DIRECTION('',(0.,0.889598658642726,-0.456743064031696));
#799=DIRECTION('center_axis',(-4.06756404254584E-31,-0.889598658642727,
0.456743064031695));
#800=DIRECTION('ref_axis',(-1.,3.61849951619217E-31,-1.85783166393753E-31));
#801=DIRECTION('center_axis',(-0.707106781183304,0.629040266266412,-0.322968022287144));
#802=DIRECTION('ref_axis',(0.415460968226915,-1.66533453693774E-16,-0.909611006903475));
#803=DIRECTION('center_axis',(0.707106781183304,-0.629040266266412,0.322968022287144));
#804=DIRECTION('ref_axis',(0.707106781188171,0.629041244059285,-0.322966117835992));
#805=DIRECTION('',(3.02754458065459E-6,-0.456743064029602,-0.88959865863865));
#806=DIRECTION('',(-0.654652526400687,-0.755012584095555,-0.0372299279417845));
#807=DIRECTION('',(-3.02754458065459E-6,0.456743064029602,0.88959865863865));
#808=DIRECTION('',(3.02754458065459E-6,-0.456743064029602,-0.88959865863865));
#809=DIRECTION('center_axis',(4.06756404254584E-31,0.889598658642727,-0.456743064031695));
#810=DIRECTION('ref_axis',(-1.,3.61849951619217E-31,-1.85783166393754E-31));
#811=DIRECTION('',(-3.02754458065459E-6,0.456743064029602,0.88959865863865));
#812=DIRECTION('center_axis',(4.06756404254584E-31,0.889598658642727,-0.456743064031695));
#813=DIRECTION('ref_axis',(-3.72219904586279E-46,0.456743064031695,0.889598658642727));
#814=DIRECTION('center_axis',(4.06756404254584E-31,0.889598658642727,-0.456743064031695));
#815=DIRECTION('ref_axis',(-3.72219904586279E-46,0.456743064031695,0.889598658642727));
#816=DIRECTION('center_axis',(0.707106781183304,0.629042221855051,-0.322964213386325));
#817=DIRECTION('ref_axis',(0.415456914232847,1.11022302462516E-16,0.909612858537148));
#818=DIRECTION('',(-0.654654815009271,0.755010773572285,0.0372264015848493));
#819=DIRECTION('',(-3.02754458065459E-6,0.456743064029602,0.88959865863865));
#820=DIRECTION('center_axis',(-0.707106781183304,-0.629042221855051,0.322964213386325));
#821=DIRECTION('ref_axis',(0.707106781188171,-0.629041244059285,0.322966117835992));
#822=DIRECTION('',(3.02754458065459E-6,-0.456743064029602,-0.88959865863865));
#823=DIRECTION('center_axis',(4.06756404254584E-31,0.889598658642727,-0.456743064031695));
#824=DIRECTION('ref_axis',(-1.,3.61849951619217E-31,-1.85783166393754E-31));
#825=DIRECTION('center_axis',(4.06756404254584E-31,0.889598658642727,-0.456743064031695));
#826=DIRECTION('ref_axis',(-3.72219904586279E-46,0.456743064031695,0.889598658642727));
#827=DIRECTION('',(-0.86602691755276,0.228370334466223,0.444796996853454));
#828=DIRECTION('',(-0.866023890008179,-0.228372729563379,-0.444801661785197));
#829=DIRECTION('center_axis',(-0.999999999995417,-1.38280998826073E-6,-2.69329959793138E-6));
#830=DIRECTION('ref_axis',(-3.02754458065459E-6,0.456743064029602,0.88959865863865));
#831=DIRECTION('',(3.02754458065459E-6,-0.456743064029601,-0.88959865863865));
#832=DIRECTION('',(0.,0.889598658642726,-0.456743064031696));
#833=DIRECTION('center_axis',(4.06756404254584E-31,0.889598658642727,-0.456743064031695));
#834=DIRECTION('ref_axis',(-1.,3.61849951619217E-31,-1.85783166393754E-31));
#835=DIRECTION('',(-3.02754458065459E-6,0.456743064029601,0.88959865863865));
#836=DIRECTION('',(0.866023890008179,0.228372729563379,0.444801661785197));
#837=DIRECTION('',(0.86602691755276,-0.228370334466223,-0.444796996853454));
#838=DIRECTION('center_axis',(4.06756404254584E-31,0.889598658642727,-0.456743064031695));
#839=DIRECTION('ref_axis',(-1.,3.61849951619217E-31,-1.85783166393754E-31));
#840=DIRECTION('',(1.,1.70280240695041E-29,3.40560481390083E-29));
#841=DIRECTION('',(0.,-0.456743064031695,-0.889598658642727));
#842=DIRECTION('',(1.,1.88499973600258E-16,2.15220311748588E-16));
#843=DIRECTION('center_axis',(0.500002621928226,-0.395550405046984,-0.770413690903833));
#844=DIRECTION('ref_axis',(-0.86602389000818,-0.228372729563379,-0.444801661785197));
#845=DIRECTION('',(0.,0.889598658642726,-0.456743064031696));
#846=DIRECTION('',(0.,-0.889598658642725,0.456743064031698));
#847=DIRECTION('center_axis',(-0.499997378067191,-0.395551787856972,-0.77041638420343));
#848=DIRECTION('ref_axis',(-0.86602691755276,0.228370334466223,0.444796996853454));
#849=DIRECTION('center_axis',(0.999999999995417,1.38280998826073E-6,2.69329959793138E-6));
#850=DIRECTION('ref_axis',(3.02754458065459E-6,-0.456743064029602,-0.88959865863865));
#851=DIRECTION('center_axis',(0.,0.889598658642727,-0.456743064031696));
#852=DIRECTION('ref_axis',(0.,0.456743064031696,0.889598658642726));
#853=DIRECTION('',(0.,0.889598658642726,-0.456743064031696));
#854=DIRECTION('center_axis',(0.,-0.889598658642727,0.456743064031695));
#855=DIRECTION('ref_axis',(0.,0.456743064031695,0.889598658642727));
#856=DIRECTION('center_axis',(-1.,4.09586448692021E-63,7.97751699037021E-63));
#857=DIRECTION('ref_axis',(-8.96754610954745E-63,-0.456743064031695,-0.889598658642727));
#858=DIRECTION('',(-8.96703439672711E-63,-0.447213595499958,-0.894427190999916));
#859=DIRECTION('',(8.96754610954745E-63,0.456743064031695,0.889598658642727));
#860=DIRECTION('',(0.,-0.889598658642727,0.456743064031696));
#861=DIRECTION('center_axis',(0.,-0.456743064031696,-0.889598658642727));
#862=DIRECTION('ref_axis',(1.,0.,0.));
#863=DIRECTION('',(-1.,0.,0.));
#864=DIRECTION('center_axis',(0.,-0.889598658642727,0.456743064031695));
#865=DIRECTION('ref_axis',(0.,-0.456743064031695,-0.889598658642727));
#866=DIRECTION('center_axis',(0.,-0.894427190999916,0.447213595499958));
#867=DIRECTION('ref_axis',(0.,-0.447213595499958,-0.894427190999916));
#868=DIRECTION('center_axis',(0.,-0.894427190999916,0.447213595499958));
#869=DIRECTION('ref_axis',(5.73884509121613E-15,0.447213595499958,0.894427190999916));
#870=DIRECTION('',(-0.7622090794442,0.289495187943712,0.578990375887424));
#871=DIRECTION('center_axis',(0.,-0.894427190999916,0.447213595499958));
#872=DIRECTION('ref_axis',(6.41490716354146E-15,-0.447213595499958,-0.894427190999916));
#873=DIRECTION('',(0.999985492569547,-0.00240892716537031,-0.00481785433074063));
#874=DIRECTION('center_axis',(0.,-0.894427190999916,0.447213595499958));
#875=DIRECTION('ref_axis',(-5.45459171989752E-15,-0.447213595499958,-0.894427190999916));
#876=DIRECTION('',(0.,-0.447213595499958,-0.894427190999916));
#877=DIRECTION('center_axis',(0.,-0.894427190999916,0.447213595499958));
#878=DIRECTION('ref_axis',(6.76062072325327E-15,0.447213595499958,0.894427190999916));
#879=DIRECTION('',(1.,0.,0.));
#880=DIRECTION('center_axis',(0.,0.928894832569464,-0.370343610753239));
#881=DIRECTION('ref_axis',(-0.707106781186543,0.261872478532728,0.656827835119015));
#882=DIRECTION('center_axis',(0.,-0.928894832569463,0.370343610753243));
#883=DIRECTION('ref_axis',(-0.707106781186543,0.261872478532731,0.656827835119014));
#884=DIRECTION('',(0.,-0.928894832569464,0.370343610753239));
#885=DIRECTION('center_axis',(0.,0.928894832569463,-0.370343610753243));
#886=DIRECTION('ref_axis',(-0.707106781186543,0.261872478532731,0.656827835119014));
#887=DIRECTION('',(0.,0.928894832569464,-0.370343610753239));
#888=DIRECTION('center_axis',(0.,0.370343610753239,0.928894832569464));
#889=DIRECTION('ref_axis',(1.,0.,0.));
#890=DIRECTION('',(-1.,0.,0.));
#891=DIRECTION('',(-1.71862896129649E-16,-0.928894832569464,0.370343610753239));
#892=DIRECTION('',(-1.,0.,0.));
#893=DIRECTION('center_axis',(0.,-0.928894832569463,0.370343610753243));
#894=DIRECTION('ref_axis',(0.,-0.370343610753243,-0.928894832569463));
#895=DIRECTION('',(0.,-0.370343610753243,-0.928894832569463));
#896=DIRECTION('center_axis',(0.,0.928894832569463,-0.370343610753243));
#897=DIRECTION('ref_axis',(-0.707106781186543,-0.261872478532731,-0.656827835119014));
#898=DIRECTION('',(-1.,2.68184199472973E-32,6.72658876335268E-32));
#899=DIRECTION('center_axis',(0.,0.928894832569463,-0.370343610753243));
#900=DIRECTION('ref_axis',(0.938973632641646,-0.127394174120059,-0.319529719437831));
#901=DIRECTION('',(-0.763342965592528,0.239239540901775,0.60005996279498));
#902=DIRECTION('center_axis',(0.,0.928894832569463,-0.370343610753243));
#903=DIRECTION('ref_axis',(0.343989123670701,0.347742885514599,0.872207755279809));
#904=DIRECTION('center_axis',(-1.71862896129649E-16,-0.928894832569464,
0.370343610753239));
#905=DIRECTION('ref_axis',(0.343989123670701,0.347742885514596,0.872207755279811));
#906=DIRECTION('',(1.71862896129649E-16,0.928894832569464,-0.370343610753239));
#907=DIRECTION('center_axis',(0.,-0.928894832569463,0.370343610753243));
#908=DIRECTION('ref_axis',(0.343989123670701,0.347742885514599,0.872207755279809));
#909=DIRECTION('center_axis',(-0.645993434084592,-0.282699190120622,-0.70906533621715));
#910=DIRECTION('ref_axis',(0.763342965592528,-0.239239540901781,-0.600059962794977));
#911=DIRECTION('',(-7.81976177389904E-15,-0.928894832569462,0.370343610753245));
#912=DIRECTION('',(-0.763342965592528,0.239239540901775,0.60005996279498));
#913=DIRECTION('center_axis',(-7.81976177389904E-15,-0.928894832569462,
0.370343610753245));
#914=DIRECTION('ref_axis',(0.938973632641646,-0.127394174120067,-0.319529719437828));
#915=DIRECTION('',(7.81976177389904E-15,0.928894832569462,-0.370343610753245));
#916=DIRECTION('center_axis',(0.,-0.928894832569463,0.370343610753243));
#917=DIRECTION('ref_axis',(0.938973632641646,-0.127394174120059,-0.319529719437831));
#918=DIRECTION('center_axis',(7.24149659089601E-32,0.370343610753245,0.928894832569462));
#919=DIRECTION('ref_axis',(1.,-2.67135208504768E-17,1.06504863853442E-17));
#920=DIRECTION('',(0.,-0.928894832569462,0.370343610753245));
#921=DIRECTION('',(-1.,2.68184199472973E-32,6.72658876335268E-32));
#922=DIRECTION('center_axis',(0.,0.928894832569462,-0.370343610753245));
#923=DIRECTION('ref_axis',(-0.707106781186543,-0.261872478532733,-0.656827835119014));
#924=DIRECTION('center_axis',(0.,-0.928894832569463,0.370343610753243));
#925=DIRECTION('ref_axis',(-0.707106781186543,-0.261872478532731,-0.656827835119014));
#926=DIRECTION('',(0.,0.928894832569462,-0.370343610753245));
#927=DIRECTION('center_axis',(0.,-0.928894832569463,0.370343610753242));
#928=DIRECTION('ref_axis',(0.343989123670707,0.347742885514597,0.872207755279808));
#929=DIRECTION('',(0.,-0.928894832569463,0.370343610753242));
#930=DIRECTION('center_axis',(0.,-0.928894832569463,0.370343610753243));
#931=DIRECTION('ref_axis',(0.343989123670707,0.347742885514598,0.872207755279807));
#932=DIRECTION('',(0.,0.928894832569463,-0.370343610753242));
#933=DIRECTION('center_axis',(0.,-0.370343610753242,-0.928894832569463));
#934=DIRECTION('ref_axis',(0.,0.928894832569463,-0.370343610753242));
#935=DIRECTION('',(0.,0.928894832569463,-0.370343610753242));
#936=DIRECTION('',(1.,0.,0.));
#937=DIRECTION('center_axis',(0.,-0.894427190999916,0.447213595499958));
#938=DIRECTION('ref_axis',(0.,-0.447213595499958,-0.894427190999916));
#939=DIRECTION('center_axis',(0.,0.928894832569463,-0.370343610753242));
#940=DIRECTION('ref_axis',(-0.707106781186532,0.261872478532734,0.656827835119024));
#941=DIRECTION('',(0.,-0.928894832569463,0.370343610753242));
#942=DIRECTION('center_axis',(0.,-0.928894832569463,0.370343610753243));
#943=DIRECTION('ref_axis',(-0.707106781186532,0.261872478532735,0.656827835119024));
#944=DIRECTION('center_axis',(-1.,0.,0.));
#945=DIRECTION('ref_axis',(0.,0.,1.));
#946=DIRECTION('',(0.,0.928894832569463,-0.370343610753242));
#947=DIRECTION('',(0.,-0.370343610753243,-0.928894832569463));
#948=DIRECTION('center_axis',(0.,0.928894832569463,-0.370343610753242));
#949=DIRECTION('ref_axis',(-0.709001908082061,-0.261168744300537,-0.655062730840702));
#950=DIRECTION('',(0.,-0.928894832569463,0.370343610753242));
#951=DIRECTION('center_axis',(0.,-0.928894832569463,0.370343610753243));
#952=DIRECTION('ref_axis',(-0.709001908082061,-0.261168744300538,-0.655062730840702));
#953=DIRECTION('center_axis',(0.00536741132800329,0.370338276080954,0.928881452159006));
#954=DIRECTION('ref_axis',(0.999985595344071,-0.0019877864916106,-0.00498576064685705));
#955=DIRECTION('',(0.,0.928894832569463,-0.370343610753242));
#956=DIRECTION('',(0.999985595344071,-0.0019877864916106,-0.00498576064685705));
#957=DIRECTION('center_axis',(0.,-0.928894832569463,0.370343610753242));
#958=DIRECTION('ref_axis',(0.938047082353497,-0.128326958264156,-0.321869326079329));
#959=DIRECTION('',(0.,-0.928894832569463,0.370343610753242));
#960=DIRECTION('center_axis',(0.,-0.928894832569463,0.370343610753243));
#961=DIRECTION('ref_axis',(0.938047082353497,-0.128326958264156,-0.321869326079329));
#962=DIRECTION('center_axis',(-1.,0.,0.));
#963=DIRECTION('ref_axis',(0.,0.,1.));
#964=DIRECTION('',(0.,-0.370343610753243,-0.928894832569463));
#965=DIRECTION('center_axis',(0.,-0.928894832569463,0.370343610753243));
#966=DIRECTION('ref_axis',(0.,-0.370343610753243,-0.928894832569463));
#967=DIRECTION('',(-0.763342965592528,0.239239540901775,0.60005996279498));
#968=DIRECTION('center_axis',(-0.645993434084592,-0.282699190120625,-0.709065336217149));
#969=DIRECTION('ref_axis',(-0.763342965592528,0.239239540901775,0.60005996279498));
#970=CARTESIAN_POINT('',(0.,0.,0.));
#971=CARTESIAN_POINT('Origin',(130.300008088816,23.3228925733778,42.9044501223178));
#972=CARTESIAN_POINT('',(130.300008088816,16.2420939945453,46.5399160790915));
#973=CARTESIAN_POINT('',(130.300008088816,17.9357527559291,49.927233601859));
#974=CARTESIAN_POINT('',(130.300008088816,16.0248637773215,46.1054556446438));
#975=CARTESIAN_POINT('',(130.300008088816,18.0330755603628,50.1167892691423));
#976=CARTESIAN_POINT('',(130.300008088816,16.206103304236,46.5583946345714));
#977=CARTESIAN_POINT('',(130.300008088816,25.1498648295045,46.4628447568887));
#978=CARTESIAN_POINT('',(130.300008088816,25.1498648295045,46.4628447568887));
#979=CARTESIAN_POINT('',(130.300008088816,23.3228925733778,42.9044501223178));
#980=CARTESIAN_POINT('',(130.300008088816,25.5806002427942,47.3017883032011));
#981=CARTESIAN_POINT('',(130.300008088816,23.3228925733778,42.9044501223178));
#982=CARTESIAN_POINT('Origin',(134.300008088816,23.3228925733778,42.9044501223178));
#983=CARTESIAN_POINT('',(138.300008088816,16.2420939945453,46.5399160790915));
#984=CARTESIAN_POINT('Origin',(134.300008088816,16.2420939945453,46.5399160790915));
#985=CARTESIAN_POINT('',(138.300008088816,23.3228925733778,42.9044501223178));
#986=CARTESIAN_POINT('Origin',(134.300008088816,23.3228925733778,42.9044501223178));
#987=CARTESIAN_POINT('',(138.300008088816,23.3228925733778,42.9044501223178));
#988=CARTESIAN_POINT('',(131.500016737226,15.7909789302104,43.5604419689825));
#989=CARTESIAN_POINT('',(131.500016737226,18.4597749061386,42.1902127768874));
#990=CARTESIAN_POINT('',(131.500016737226,22.0181695407095,40.3632405207607));
#991=CARTESIAN_POINT('',(137.1000167372,15.7909866739464,43.5604570514603));
#992=CARTESIAN_POINT('Origin',(134.300008088816,17.0957019628787,46.1016515705397));
#993=CARTESIAN_POINT('',(137.1000167372,18.4597826498745,42.1902278593652));
#994=CARTESIAN_POINT('',(137.1000167372,22.0181772844454,40.3632556032384));
#995=CARTESIAN_POINT('',(135.100019954315,19.7536364416557,40.3314379417744));
#996=CARTESIAN_POINT('Origin',(134.300008088816,22.2553741830065,43.4525417991559));
#997=CARTESIAN_POINT('',(133.500019954323,19.7536342291597,40.331433632495));
#998=CARTESIAN_POINT('Origin',(134.300008088816,21.5436952560923,43.8179362503812));
#999=CARTESIAN_POINT('Origin',(134.300008088816,22.2553741830065,43.4525417991559));
#1000=CARTESIAN_POINT('Origin',(134.300008088816,18.8748992801641,45.1881654424763));
#1001=CARTESIAN_POINT('',(135.900008088816,16.2420939945453,46.5399160790915));
#1002=CARTESIAN_POINT('Origin',(134.300008088816,16.2420939945453,46.5399160790915));
#1003=CARTESIAN_POINT('',(135.900008088816,17.0957019628787,46.1016515705397));
#1004=CARTESIAN_POINT('',(135.900008088816,18.8748992801641,45.1881654424763));
#1005=CARTESIAN_POINT('Origin',(134.300008088816,17.0957019628787,46.1016515705397));
#1006=CARTESIAN_POINT('Origin',(132.500006222099,20.9357130910698,44.82318387793));
#1007=CARTESIAN_POINT('',(133.500012234432,20.9108127336738,42.5852705834322));
#1008=CARTESIAN_POINT('',(133.500003872777,22.1765760832014,45.050598723218));
#1009=CARTESIAN_POINT('Origin',(134.300008088816,22.2553741830065,43.4525417991558));
#1010=CARTESIAN_POINT('',(133.499999698642,22.8094576584906,46.2832622159131));
#1011=CARTESIAN_POINT('',(133.500006222094,21.8253131325225,44.3664435071979));
#1012=CARTESIAN_POINT('',(131.500003194558,20.5028561136493,46.1695229073058));
#1013=CARTESIAN_POINT('',(132.390569437342,21.5299486446579,46.220169190195));
#1014=CARTESIAN_POINT('',(131.500006222103,20.0461130496171,45.2799242486621));
#1015=CARTESIAN_POINT('',(133.500006222094,21.8253131325225,44.3664435071979));
#1016=CARTESIAN_POINT('Origin',(134.300009965879,21.3685711747393,43.4768470031959));
#1017=CARTESIAN_POINT('',(135.100012304854,20.9108142512708,42.5852738687864));
#1018=CARTESIAN_POINT('',(135.10001299342,20.8037747412631,42.3767927512681));
#1019=CARTESIAN_POINT('',(134.300008088816,20.8129063536416,42.3945783965528));
#1020=CARTESIAN_POINT('Origin',(134.300008088816,21.5436952560923,43.8179362503812));
#1021=CARTESIAN_POINT('Origin',(134.300008088816,21.5436952560923,43.8179362503812));
#1022=CARTESIAN_POINT('Origin',(136.100012993416,19.9141774654304,42.8335385085994));
#1023=CARTESIAN_POINT('',(137.100003194533,20.5028638573852,46.1695379897836));
#1024=CARTESIAN_POINT('',(135.099999698635,22.8094598709866,46.2832665251925));
#1025=CARTESIAN_POINT('',(137.286140247244,20.2881927407359,46.1589534610897));
#1026=CARTESIAN_POINT('',(135.1000039432,22.1765778685863,45.0506018710832));
#1027=CARTESIAN_POINT('',(135.10001299342,20.8037747412631,42.3767927512681));
#1028=CARTESIAN_POINT('Origin',(134.300008088816,22.2553741830064,43.4525417991559));
#1029=CARTESIAN_POINT('',(137.100012993411,19.0245801895976,43.2902842659307));
#1030=CARTESIAN_POINT('Origin',(134.300009965879,21.3685711747393,43.4768470031959));
#1031=CARTESIAN_POINT('Origin',(134.300008088816,21.5436952560923,43.8179362503812));
#1032=CARTESIAN_POINT('',(134.299998300275,23.020419349513,46.6941523905814));
#1033=CARTESIAN_POINT('',(134.299998300275,23.020419349513,46.6941523905814));
#1034=CARTESIAN_POINT('',(131.500003194558,22.2820534309347,45.2560367792424));
#1035=CARTESIAN_POINT('Origin',(137.1000167372,17.5701839912318,42.6469709233969));
#1036=CARTESIAN_POINT('',(137.100003194533,17.834067881457,47.5397671818787));
#1037=CARTESIAN_POINT('',(137.100012413002,16.4433462543465,44.8310580816194));
#1038=CARTESIAN_POINT('',(137.100003194533,19.6132651987425,46.6262810538153));
#1039=CARTESIAN_POINT('Origin',(134.300008088816,17.0957019628787,46.1016515705397));
#1040=CARTESIAN_POINT('',(131.500003194558,17.8340601377211,47.5397520994009));
#1041=CARTESIAN_POINT('',(131.500005641694,17.4648791143659,46.8206980643508));
#1042=CARTESIAN_POINT('',(134.299998300275,18.5724260562994,48.9778677107399));
#1043=CARTESIAN_POINT('',(133.599999523846,18.3878345766548,48.6183388079051));
#1044=CARTESIAN_POINT('',(136.400001970968,18.0186574251676,47.899292314094));
#1045=CARTESIAN_POINT('Origin',(134.300008088816,16.206103304236,46.5583946345714));
#1046=CARTESIAN_POINT('',(138.300008088816,17.9357527559292,49.9272336018593));
#1047=CARTESIAN_POINT('',(143.206966521342,17.9357527559293,49.9272336018595));
#1048=CARTESIAN_POINT('',(138.300008088816,18.0330755603628,50.1167892691423));
#1049=CARTESIAN_POINT('',(138.300008088816,18.0330755603628,50.1167892691423));
#1050=CARTESIAN_POINT('',(130.300008088816,18.0330755603628,50.1167892691423));
#1051=CARTESIAN_POINT('Origin',(134.299998300275,20.3516233735848,48.0643815826765));
#1052=CARTESIAN_POINT('',(134.299998300275,20.3516233735848,48.0643815826765));
#1053=CARTESIAN_POINT('',(131.500003194558,19.6132574550065,46.6262659713375));
#1054=CARTESIAN_POINT('Origin',(137.100003194533,19.6132651987425,46.6262810538153));
#1055=CARTESIAN_POINT('Origin',(131.500003194558,19.6132574550065,46.6262659713375));
#1056=CARTESIAN_POINT('Origin',(134.300008088816,23.3228925733778,42.9044501223178));
#1057=CARTESIAN_POINT('',(134.300008088816,22.592103670927,41.4810922684894));
#1058=CARTESIAN_POINT('',(134.300008088816,22.5921036709271,41.4810922684894));
#1059=CARTESIAN_POINT('Origin',(134.300008088816,23.3228925733778,42.9044501223178));
#1060=CARTESIAN_POINT('Origin',(138.300008088816,25.1498648295045,46.4628447568887));
#1061=CARTESIAN_POINT('',(138.300008088816,16.9192399298483,47.8942079496975));
#1062=CARTESIAN_POINT('',(138.300008088816,25.1498648295045,46.4628447568887));
#1063=CARTESIAN_POINT('',(138.300008088816,23.390150864113,43.035449123578));
#1064=CARTESIAN_POINT('',(138.300008088816,25.1498648295045,46.4628447568887));
#1065=CARTESIAN_POINT('Origin',(130.300008088816,25.1498648295045,46.4628447568887));
#1066=CARTESIAN_POINT('',(130.300008088816,25.1498648295045,46.4628447568887));
#1067=CARTESIAN_POINT('Origin',(134.300008088816,23.3228925733778,42.9044501223178));
#1068=CARTESIAN_POINT('Origin',(152.113924953867,15.8456602270406,45.747048544082));
#1069=CARTESIAN_POINT('',(140.425995611509,20.771799783192,55.5993276563849));
#1070=CARTESIAN_POINT('',(139.780002177425,20.8780129244651,55.8117539389309));
#1071=CARTESIAN_POINT('Origin',(139.780002177425,20.4292067373219,54.9141415646446));
#1072=CARTESIAN_POINT('',(162.25886469331,12.4794418086648,39.0146117073304));
#1073=CARTESIAN_POINT('',(158.73900462773,13.8163224345995,41.6883729591998));
#1074=CARTESIAN_POINT('',(161.672639932438,11.7671883173616,37.5901047247241));
#1075=CARTESIAN_POINT('Origin',(161.677470602633,12.1711080673816,38.3979442247641));
#1076=CARTESIAN_POINT('',(122.870838492809,11.8606603869544,37.7770488639096));
#1077=CARTESIAN_POINT('',(146.621446615569,11.8034460718207,37.6626202336423));
#1078=CARTESIAN_POINT('',(121.975669163005,12.2645801369744,38.5848883639497));
#1079=CARTESIAN_POINT('Origin',(122.875669163005,12.2645801369744,38.5848883639497));
#1080=CARTESIAN_POINT('',(121.975669163005,20.4740873560362,55.0039028020732));
#1081=CARTESIAN_POINT('',(121.975669163005,18.201027211401,50.4577825128029));
#1082=CARTESIAN_POINT('',(122.875669163005,20.8780129244651,55.8117539389309));
#1083=CARTESIAN_POINT('Origin',(122.875669163005,20.4740873560362,55.0039028020732));
#1084=CARTESIAN_POINT('',(146.744797058436,20.8780129244651,55.8117539389309));
#1085=CARTESIAN_POINT('Origin',(121.775669163005,17.908965362563,57.5035423014059));
#1086=CARTESIAN_POINT('',(121.775669163005,19.0770656392789,59.0832706779113));
#1087=CARTESIAN_POINT('',(119.875669163005,18.3734127788477,57.3183704960293));
#1088=CARTESIAN_POINT('Origin',(121.775669163005,18.3734127788477,57.3183704960293));
#1089=CARTESIAN_POINT('',(119.875669163005,17.4445179462783,57.6887141067825));
#1090=CARTESIAN_POINT('',(119.875669163005,17.908965362563,57.5035423014059));
#1091=CARTESIAN_POINT('',(121.775669163005,18.1481708067095,59.4536142886645));
#1092=CARTESIAN_POINT('Origin',(121.775669163005,17.4445179462782,57.6887141067826));
#1093=CARTESIAN_POINT('',(121.775669163005,18.6126182229941,59.2684424832879));
#1094=CARTESIAN_POINT('Origin',(139.275669163005,18.1481708067094,59.4536142886645));
#1095=CARTESIAN_POINT('',(137.004161765332,18.1481708067095,59.4536142886645));
#1096=CARTESIAN_POINT('',(147.048800659686,18.1481708067095,59.4536142886645));
#1097=CARTESIAN_POINT('',(137.004161765332,19.0770656392789,59.0832706779113));
#1098=CARTESIAN_POINT('',(137.004161765332,18.6126182229942,59.2684424832879));
#1099=CARTESIAN_POINT('',(147.048800659686,19.0770656392789,59.0832706779113));
#1100=CARTESIAN_POINT('Origin',(154.821932156368,13.5522925551161,47.9262450157331));
#1101=CARTESIAN_POINT('',(119.875669163005,9.71840330001344,38.3100944617511));
#1102=CARTESIAN_POINT('',(119.875669163005,11.6168256790885,43.0717122857237));
#1103=CARTESIAN_POINT('',(121.775669163005,9.01475043958227,36.5451942798691));
#1104=CARTESIAN_POINT('Origin',(121.775669163005,9.71840330001342,38.3100944617511));
#1105=CARTESIAN_POINT('',(164.550052234546,9.01475043958227,36.5451942798691));
#1106=CARTESIAN_POINT('',(138.243701618925,9.01475043958227,36.5451942798691));
#1107=CARTESIAN_POINT('',(165.777439759307,10.2555317612426,39.6573186005637));
#1108=CARTESIAN_POINT('Origin',(164.550052234546,9.71840330001335,38.3100944617512));
#1109=CARTESIAN_POINT('',(143.334897419361,17.2892554845098,57.2992852244118));
#1110=CARTESIAN_POINT('',(148.67127507115,15.6167798123175,53.1043863132688));
#1111=CARTESIAN_POINT('Origin',(137.004161765332,14.5188034213277,50.3504449294838));
#1112=CARTESIAN_POINT('Origin',(137.004161765332,14.9832508376124,50.1652731241072));
#1113=CARTESIAN_POINT('',(143.334897419361,18.2181503170792,56.9289416136586));
#1114=CARTESIAN_POINT('',(143.334897419361,17.7537029007945,57.1141134190352));
#1115=CARTESIAN_POINT('Origin',(137.004161765332,15.4476982538971,49.9801013187305));
#1116=CARTESIAN_POINT('Origin',(142.338457344357,18.5304448908493,57.7122380102792));
#1117=CARTESIAN_POINT('',(165.777439759307,11.1844265938121,39.2869749898105));
#1118=CARTESIAN_POINT('',(165.777439759307,10.7199791775271,39.4721467951872));
#1119=CARTESIAN_POINT('',(148.67127507115,16.5456746448869,52.7340427025156));
#1120=CARTESIAN_POINT('Origin',(164.550052234546,10.1828507162979,38.1249226563746));
#1121=CARTESIAN_POINT('',(164.550052234546,9.9436452721517,36.1748506691159));
#1122=CARTESIAN_POINT('',(164.550052234546,9.47919785586672,36.3600224744926));
#1123=CARTESIAN_POINT('Origin',(164.550052234546,10.6472981325828,37.9397508509979));
#1124=CARTESIAN_POINT('Origin',(121.665471081481,9.01475043958227,36.5451942798692));
#1125=CARTESIAN_POINT('',(121.775669163005,9.9436452721517,36.1748506691159));
#1126=CARTESIAN_POINT('',(121.775669163005,9.479197855867,36.3600224744925));
#1127=CARTESIAN_POINT('',(138.243701618925,9.9436452721517,36.1748506691159));
#1128=CARTESIAN_POINT('Origin',(121.775669163005,10.1828507162982,38.1249226563745));
#1129=CARTESIAN_POINT('',(119.875669163005,10.6472981325829,37.9397508509979));
#1130=CARTESIAN_POINT('Origin',(121.775669163005,10.6472981325829,37.9397508509979));
#1131=CARTESIAN_POINT('',(119.875669163005,10.1828507162982,38.1249226563745));
#1132=CARTESIAN_POINT('Origin',(139.780002177425,17.8282945102999,55.9511063443314));
#1133=CARTESIAN_POINT('',(139.780002177425,18.1986381210531,56.8800011769008));
#1134=CARTESIAN_POINT('',(139.780002177425,18.1986381210531,56.8800011769008));
#1135=CARTESIAN_POINT('',(140.425995611509,18.1109937004205,56.6601716805485));
#1136=CARTESIAN_POINT('Origin',(139.780002177425,17.8282945102999,55.9511063443314));
#1137=CARTESIAN_POINT('',(140.425995611509,18.1109937004205,56.6601716805485));
#1138=CARTESIAN_POINT('Origin',(141.375669163005,18.1986381210531,56.8800011769008));
#1139=CARTESIAN_POINT('',(122.875669163005,18.1986381210531,56.8800011769008));
#1140=CARTESIAN_POINT('',(122.875669163005,18.1986381210532,56.8800011769008));
#1141=CARTESIAN_POINT('',(148.098800659686,18.1986381210531,56.8800011769008));
#1142=CARTESIAN_POINT('Origin',(152.113924953867,15.8456602270406,45.747048544082));
#1143=CARTESIAN_POINT('Origin',(122.875669163005,17.8653288713752,56.0439958275883));
#1144=CARTESIAN_POINT('',(121.975669163005,17.8653288713752,56.0439958275883));
#1145=CARTESIAN_POINT('',(121.975669163005,17.8653288713752,56.0439958275883));
#1146=CARTESIAN_POINT('Origin',(122.875669163005,17.8653288713752,56.0439958275883));
#1147=CARTESIAN_POINT('Origin',(121.975669163005,18.0215863486322,56.4359204050883));
#1148=CARTESIAN_POINT('',(121.975669163005,11.0910493870279,39.0527665348971));
#1149=CARTESIAN_POINT('',(121.975669163005,11.0910493870279,39.0527665348971));
#1150=CARTESIAN_POINT('',(121.975669163005,16.2513868681589,51.9959109050341));
#1151=CARTESIAN_POINT('Origin',(122.875669163005,11.0910493870279,39.0527665348971));
#1152=CARTESIAN_POINT('',(122.870838492809,10.7577449385551,38.216773227954));
#1153=CARTESIAN_POINT('',(122.870838492809,10.7577449385551,38.216773227954));
#1154=CARTESIAN_POINT('Origin',(122.875669163005,11.0910493870279,39.0527665348971));
#1155=CARTESIAN_POINT('Origin',(141.177279386403,10.7213551184545,38.1255003806088));
#1156=CARTESIAN_POINT('',(161.672639932438,10.6806141307605,38.0233139465948));
#1157=CARTESIAN_POINT('',(161.672639932438,10.6806141307605,38.0233139465948));
#1158=CARTESIAN_POINT('',(147.972163885685,10.7078481442714,38.0916222248691));
#1159=CARTESIAN_POINT('Origin',(161.677470602633,11.0139185792333,38.8593072535379));
#1160=CARTESIAN_POINT('',(162.25886469331,11.2683478503419,39.4974660561333));
#1161=CARTESIAN_POINT('',(162.25886469331,11.2683478503419,39.4974660561333));
#1162=CARTESIAN_POINT('Origin',(161.677470602633,11.0139185792333,38.8593072535379));
#1163=CARTESIAN_POINT('Origin',(119.875669163005,10.6102536356302,37.8468359449611));
#1164=CARTESIAN_POINT('',(119.875669163005,12.5457205116579,42.7013686749705));
#1165=CARTESIAN_POINT('Origin',(154.821932156368,14.4811873876856,47.5559014049799));
#1166=CARTESIAN_POINT('',(159.213850431968,12.2226866557794,41.8911360403094));
#1167=CARTESIAN_POINT('Origin',(164.78019427757,10.4781372118876,37.5154618919229));
#1168=UNCERTAINTY_MEASURE_WITH_UNIT(LENGTH_MEASURE(0.01),#1172,
'DISTANCE_ACCURACY_VALUE',
'Maximum model space distance between geometric entities at asserted c
onnectivities');
#1169=UNCERTAINTY_MEASURE_WITH_UNIT(LENGTH_MEASURE(0.01),#1172,
'DISTANCE_ACCURACY_VALUE',
'Maximum model space distance between geometric entities at asserted c
onnectivities');
#1170=(
GEOMETRIC_REPRESENTATION_CONTEXT(3)
GLOBAL_UNCERTAINTY_ASSIGNED_CONTEXT((#1168))
GLOBAL_UNIT_ASSIGNED_CONTEXT((#1172,#1174,#1175))
REPRESENTATION_CONTEXT('','3D')
);
#1171=(
GEOMETRIC_REPRESENTATION_CONTEXT(3)
GLOBAL_UNCERTAINTY_ASSIGNED_CONTEXT((#1169))
GLOBAL_UNIT_ASSIGNED_CONTEXT((#1172,#1174,#1175))
REPRESENTATION_CONTEXT('','3D')
);
#1172=(
LENGTH_UNIT()
NAMED_UNIT(*)
SI_UNIT(.MILLI.,.METRE.)
);
#1173=(
LENGTH_UNIT()
NAMED_UNIT(*)
SI_UNIT($,.METRE.)
);
#1174=(
NAMED_UNIT(*)
PLANE_ANGLE_UNIT()
SI_UNIT($,.RADIAN.)
);
#1175=(
NAMED_UNIT(*)
SI_UNIT($,.STERADIAN.)
SOLID_ANGLE_UNIT()
);
#1176=SHAPE_DEFINITION_REPRESENTATION(#1177,#1178);
#1177=PRODUCT_DEFINITION_SHAPE('',$,#1180);
#1178=SHAPE_REPRESENTATION('',(#700),#1170);
#1179=PRODUCT_DEFINITION_CONTEXT('part definition',#1184,'design');
#1180=PRODUCT_DEFINITION('Left rear window','Left rear window',#1181,#1179);
#1181=PRODUCT_DEFINITION_FORMATION('',$,#1186);
#1182=PRODUCT_RELATED_PRODUCT_CATEGORY('Left rear window',
'Left rear window',(#1186));
#1183=APPLICATION_PROTOCOL_DEFINITION('international standard',
'automotive_design',2009,#1184);
#1184=APPLICATION_CONTEXT(
'Core Data for Automotive Mechanical Design Process');
#1185=PRODUCT_CONTEXT('part definition',#1184,'mechanical');
#1186=PRODUCT('Left rear window','Left rear window',$,(#1185));
#1187=PRESENTATION_STYLE_ASSIGNMENT((#1189));
#1188=PRESENTATION_STYLE_ASSIGNMENT((#1190));
#1189=SURFACE_STYLE_USAGE(.BOTH.,#1191);
#1190=SURFACE_STYLE_USAGE(.BOTH.,#1192);
#1191=SURFACE_SIDE_STYLE('',(#1193));
#1192=SURFACE_SIDE_STYLE('',(#1194));
#1193=SURFACE_STYLE_FILL_AREA(#1195);
#1194=SURFACE_STYLE_FILL_AREA(#1196);
#1195=FILL_AREA_STYLE('Stahl - satiniert',(#1197));
#1196=FILL_AREA_STYLE('Opaque(25,25,25)',(#1198));
#1197=FILL_AREA_STYLE_COLOUR('Stahl - satiniert',#1199);
#1198=FILL_AREA_STYLE_COLOUR('Opaque(25,25,25)',#1200);
#1199=COLOUR_RGB('Stahl - satiniert',0.627450980392157,0.627450980392157,
0.627450980392157);
#1200=COLOUR_RGB('Opaque(25,25,25)',0.0980392156862745,0.0980392156862745,
0.0980392156862745);
ENDSEC;
END-ISO-10303-21;
