ISO-10303-21;
HEADER;
/* Generated by software containing ST-Developer
 * from STEP Tools, Inc. (www.steptools.com) 
 */

FILE_DESCRIPTION(
/* description */ (''),
/* implementation_level */ '2;1');

FILE_NAME(
/* name */ 'Left rear LED insert.step',
/* time_stamp */ '2026-04-11T13:50:59+02:00',
/* author */ (''),
/* organization */ (''),
/* preprocessor_version */ 'ST-DEVELOPER v20.1',
/* originating_system */ 'Autodesk Translation Framework v14.24.0.0',
/* authorisation */ '');

FILE_SCHEMA (('AUTOMOTIVE_DESIGN { 1 0 10303 214 3 1 1 }'));
ENDSEC;

DATA;
#10=MECHANICAL_DESIGN_GEOMETRIC_PRESENTATION_REPRESENTATION('',(#13),#522);
#11=SHAPE_REPRESENTATION_RELATIONSHIP('SRR','None',#529,#12);
#12=ADVANCED_BREP_SHAPE_REPRESENTATION('',(#14),#521);
#13=STYLED_ITEM('',(#539),#14);
#14=MANIFOLD_SOLID_BREP('Left rear LED insert',#294);
#15=CONICAL_SURFACE('',#331,3.05,0.785398163397439);
#16=CONICAL_SURFACE('',#336,3.05,0.785398163397439);
#17=CYLINDRICAL_SURFACE('',#322,7.5);
#18=CYLINDRICAL_SURFACE('',#327,5.);
#19=CYLINDRICAL_SURFACE('',#329,7.5);
#20=CYLINDRICAL_SURFACE('',#339,2.55);
#21=CYLINDRICAL_SURFACE('',#340,2.55);
#22=CYLINDRICAL_SURFACE('',#341,5.);
#23=FACE_BOUND('',#65,.T.);
#24=FACE_BOUND('',#66,.T.);
#25=FACE_BOUND('',#74,.T.);
#26=FACE_BOUND('',#75,.T.);
#27=CIRCLE('',#313,5.);
#28=CIRCLE('',#314,5.);
#29=CIRCLE('',#315,2.55);
#30=CIRCLE('',#316,2.55);
#31=CIRCLE('',#318,5.);
#32=CIRCLE('',#319,5.);
#33=CIRCLE('',#320,7.5);
#34=CIRCLE('',#321,7.5);
#35=CIRCLE('',#323,7.5);
#36=CIRCLE('',#328,5.);
#37=CIRCLE('',#330,7.5);
#38=CIRCLE('',#332,2.55);
#39=CIRCLE('',#333,3.55);
#40=CIRCLE('',#335,3.55);
#41=CIRCLE('',#337,2.55);
#42=ELLIPSE('',#310,10.6066017177982,7.5);
#43=ELLIPSE('',#311,7.07106781186548,5.);
#44=ELLIPSE('',#324,10.6066017177982,7.5);
#45=ELLIPSE('',#326,7.07106781186548,5.);
#46=FACE_OUTER_BOUND('',#62,.T.);
#47=FACE_OUTER_BOUND('',#63,.T.);
#48=FACE_OUTER_BOUND('',#64,.T.);
#49=FACE_OUTER_BOUND('',#67,.T.);
#50=FACE_OUTER_BOUND('',#68,.T.);
#51=FACE_OUTER_BOUND('',#69,.T.);
#52=FACE_OUTER_BOUND('',#70,.T.);
#53=FACE_OUTER_BOUND('',#71,.T.);
#54=FACE_OUTER_BOUND('',#72,.T.);
#55=FACE_OUTER_BOUND('',#73,.T.);
#56=FACE_OUTER_BOUND('',#76,.T.);
#57=FACE_OUTER_BOUND('',#77,.T.);
#58=FACE_OUTER_BOUND('',#78,.T.);
#59=FACE_OUTER_BOUND('',#79,.T.);
#60=FACE_OUTER_BOUND('',#80,.T.);
#61=FACE_OUTER_BOUND('',#81,.T.);
#62=EDGE_LOOP('',(#190,#191,#192,#193,#194));
#63=EDGE_LOOP('',(#195,#196,#197,#198));
#64=EDGE_LOOP('',(#199,#200,#201,#202));
#65=EDGE_LOOP('',(#203));
#66=EDGE_LOOP('',(#204));
#67=EDGE_LOOP('',(#205,#206,#207,#208,#209,#210,#211,#212));
#68=EDGE_LOOP('',(#213,#214,#215,#216));
#69=EDGE_LOOP('',(#217,#218,#219,#220,#221));
#70=EDGE_LOOP('',(#222,#223,#224,#225,#226,#227));
#71=EDGE_LOOP('',(#228,#229,#230,#231));
#72=EDGE_LOOP('',(#232,#233,#234,#235));
#73=EDGE_LOOP('',(#236,#237,#238,#239,#240,#241,#242));
#74=EDGE_LOOP('',(#243));
#75=EDGE_LOOP('',(#244));
#76=EDGE_LOOP('',(#245,#246,#247,#248));
#77=EDGE_LOOP('',(#249,#250,#251,#252));
#78=EDGE_LOOP('',(#253,#254,#255,#256));
#79=EDGE_LOOP('',(#257,#258,#259,#260));
#80=EDGE_LOOP('',(#261,#262,#263,#264,#265));
#81=EDGE_LOOP('',(#266,#267,#268,#269));
#82=LINE('',#440,#103);
#83=LINE('',#442,#104);
#84=LINE('',#444,#105);
#85=LINE('',#446,#106);
#86=LINE('',#447,#107);
#87=LINE('',#451,#108);
#88=LINE('',#455,#109);
#89=LINE('',#462,#110);
#90=LINE('',#472,#111);
#91=LINE('',#477,#112);
#92=LINE('',#480,#113);
#93=LINE('',#483,#114);
#94=LINE('',#489,#115);
#95=LINE('',#492,#116);
#96=LINE('',#496,#117);
#97=LINE('',#501,#118);
#98=LINE('',#504,#119);
#99=LINE('',#510,#120);
#100=LINE('',#513,#121);
#101=LINE('',#515,#122);
#102=LINE('',#517,#123);
#103=VECTOR('',#347,10.);
#104=VECTOR('',#348,10.);
#105=VECTOR('',#349,10.);
#106=VECTOR('',#350,10.);
#107=VECTOR('',#351,10.);
#108=VECTOR('',#354,10.);
#109=VECTOR('',#357,10.);
#110=VECTOR('',#366,10.);
#111=VECTOR('',#375,10.);
#112=VECTOR('',#380,10.);
#113=VECTOR('',#383,10.);
#114=VECTOR('',#386,10.);
#115=VECTOR('',#395,10.);
#116=VECTOR('',#400,10.);
#117=VECTOR('',#405,10.);
#118=VECTOR('',#410,3.05);
#119=VECTOR('',#415,10.);
#120=VECTOR('',#422,3.05);
#121=VECTOR('',#427,2.55);
#122=VECTOR('',#430,2.55);
#123=VECTOR('',#433,10.);
#124=VERTEX_POINT('',#438);
#125=VERTEX_POINT('',#439);
#126=VERTEX_POINT('',#441);
#127=VERTEX_POINT('',#443);
#128=VERTEX_POINT('',#445);
#129=VERTEX_POINT('',#449);
#130=VERTEX_POINT('',#450);
#131=VERTEX_POINT('',#452);
#132=VERTEX_POINT('',#454);
#133=VERTEX_POINT('',#458);
#134=VERTEX_POINT('',#460);
#135=VERTEX_POINT('',#463);
#136=VERTEX_POINT('',#465);
#137=VERTEX_POINT('',#468);
#138=VERTEX_POINT('',#469);
#139=VERTEX_POINT('',#471);
#140=VERTEX_POINT('',#474);
#141=VERTEX_POINT('',#476);
#142=VERTEX_POINT('',#478);
#143=VERTEX_POINT('',#482);
#144=VERTEX_POINT('',#484);
#145=VERTEX_POINT('',#494);
#146=VERTEX_POINT('',#498);
#147=VERTEX_POINT('',#500);
#148=VERTEX_POINT('',#505);
#149=VERTEX_POINT('',#508);
#150=EDGE_CURVE('',#124,#125,#82,.T.);
#151=EDGE_CURVE('',#125,#126,#83,.T.);
#152=EDGE_CURVE('',#126,#127,#84,.T.);
#153=EDGE_CURVE('',#128,#127,#85,.T.);
#154=EDGE_CURVE('',#124,#128,#86,.T.);
#155=EDGE_CURVE('',#129,#130,#87,.T.);
#156=EDGE_CURVE('',#130,#131,#42,.T.);
#157=EDGE_CURVE('',#132,#131,#88,.T.);
#158=EDGE_CURVE('',#132,#129,#43,.T.);
#159=EDGE_CURVE('',#127,#133,#27,.T.);
#160=EDGE_CURVE('',#134,#126,#28,.T.);
#161=EDGE_CURVE('',#133,#134,#89,.T.);
#162=EDGE_CURVE('',#135,#135,#29,.T.);
#163=EDGE_CURVE('',#136,#136,#30,.T.);
#164=EDGE_CURVE('',#137,#138,#31,.T.);
#165=EDGE_CURVE('',#138,#139,#90,.T.);
#166=EDGE_CURVE('',#139,#132,#32,.T.);
#167=EDGE_CURVE('',#131,#140,#33,.T.);
#168=EDGE_CURVE('',#140,#141,#91,.T.);
#169=EDGE_CURVE('',#141,#142,#34,.T.);
#170=EDGE_CURVE('',#142,#137,#92,.T.);
#171=EDGE_CURVE('',#143,#141,#93,.T.);
#172=EDGE_CURVE('',#143,#144,#35,.T.);
#173=EDGE_CURVE('',#142,#144,#44,.T.);
#174=EDGE_CURVE('',#128,#137,#45,.T.);
#175=EDGE_CURVE('',#144,#124,#94,.T.);
#176=EDGE_CURVE('',#129,#125,#36,.T.);
#177=EDGE_CURVE('',#139,#134,#95,.T.);
#178=EDGE_CURVE('',#130,#145,#37,.T.);
#179=EDGE_CURVE('',#145,#140,#96,.T.);
#180=EDGE_CURVE('',#146,#146,#38,.T.);
#181=EDGE_CURVE('',#146,#147,#97,.T.);
#182=EDGE_CURVE('',#147,#147,#39,.T.);
#183=EDGE_CURVE('',#145,#143,#98,.T.);
#184=EDGE_CURVE('',#148,#148,#40,.T.);
#185=EDGE_CURVE('',#149,#149,#41,.T.);
#186=EDGE_CURVE('',#149,#148,#99,.T.);
#187=EDGE_CURVE('',#146,#136,#100,.T.);
#188=EDGE_CURVE('',#149,#135,#101,.T.);
#189=EDGE_CURVE('',#138,#133,#102,.T.);
#190=ORIENTED_EDGE('',*,*,#150,.T.);
#191=ORIENTED_EDGE('',*,*,#151,.T.);
#192=ORIENTED_EDGE('',*,*,#152,.T.);
#193=ORIENTED_EDGE('',*,*,#153,.F.);
#194=ORIENTED_EDGE('',*,*,#154,.F.);
#195=ORIENTED_EDGE('',*,*,#155,.T.);
#196=ORIENTED_EDGE('',*,*,#156,.T.);
#197=ORIENTED_EDGE('',*,*,#157,.F.);
#198=ORIENTED_EDGE('',*,*,#158,.T.);
#199=ORIENTED_EDGE('',*,*,#159,.F.);
#200=ORIENTED_EDGE('',*,*,#152,.F.);
#201=ORIENTED_EDGE('',*,*,#160,.F.);
#202=ORIENTED_EDGE('',*,*,#161,.F.);
#203=ORIENTED_EDGE('',*,*,#162,.F.);
#204=ORIENTED_EDGE('',*,*,#163,.F.);
#205=ORIENTED_EDGE('',*,*,#164,.T.);
#206=ORIENTED_EDGE('',*,*,#165,.T.);
#207=ORIENTED_EDGE('',*,*,#166,.T.);
#208=ORIENTED_EDGE('',*,*,#157,.T.);
#209=ORIENTED_EDGE('',*,*,#167,.T.);
#210=ORIENTED_EDGE('',*,*,#168,.T.);
#211=ORIENTED_EDGE('',*,*,#169,.T.);
#212=ORIENTED_EDGE('',*,*,#170,.T.);
#213=ORIENTED_EDGE('',*,*,#169,.F.);
#214=ORIENTED_EDGE('',*,*,#171,.F.);
#215=ORIENTED_EDGE('',*,*,#172,.T.);
#216=ORIENTED_EDGE('',*,*,#173,.F.);
#217=ORIENTED_EDGE('',*,*,#154,.T.);
#218=ORIENTED_EDGE('',*,*,#174,.T.);
#219=ORIENTED_EDGE('',*,*,#170,.F.);
#220=ORIENTED_EDGE('',*,*,#173,.T.);
#221=ORIENTED_EDGE('',*,*,#175,.T.);
#222=ORIENTED_EDGE('',*,*,#176,.F.);
#223=ORIENTED_EDGE('',*,*,#158,.F.);
#224=ORIENTED_EDGE('',*,*,#166,.F.);
#225=ORIENTED_EDGE('',*,*,#177,.T.);
#226=ORIENTED_EDGE('',*,*,#160,.T.);
#227=ORIENTED_EDGE('',*,*,#151,.F.);
#228=ORIENTED_EDGE('',*,*,#167,.F.);
#229=ORIENTED_EDGE('',*,*,#156,.F.);
#230=ORIENTED_EDGE('',*,*,#178,.T.);
#231=ORIENTED_EDGE('',*,*,#179,.T.);
#232=ORIENTED_EDGE('',*,*,#180,.F.);
#233=ORIENTED_EDGE('',*,*,#181,.T.);
#234=ORIENTED_EDGE('',*,*,#182,.F.);
#235=ORIENTED_EDGE('',*,*,#181,.F.);
#236=ORIENTED_EDGE('',*,*,#150,.F.);
#237=ORIENTED_EDGE('',*,*,#175,.F.);
#238=ORIENTED_EDGE('',*,*,#172,.F.);
#239=ORIENTED_EDGE('',*,*,#183,.F.);
#240=ORIENTED_EDGE('',*,*,#178,.F.);
#241=ORIENTED_EDGE('',*,*,#155,.F.);
#242=ORIENTED_EDGE('',*,*,#176,.T.);
#243=ORIENTED_EDGE('',*,*,#182,.T.);
#244=ORIENTED_EDGE('',*,*,#184,.T.);
#245=ORIENTED_EDGE('',*,*,#185,.F.);
#246=ORIENTED_EDGE('',*,*,#186,.T.);
#247=ORIENTED_EDGE('',*,*,#184,.F.);
#248=ORIENTED_EDGE('',*,*,#186,.F.);
#249=ORIENTED_EDGE('',*,*,#168,.F.);
#250=ORIENTED_EDGE('',*,*,#179,.F.);
#251=ORIENTED_EDGE('',*,*,#183,.T.);
#252=ORIENTED_EDGE('',*,*,#171,.T.);
#253=ORIENTED_EDGE('',*,*,#180,.T.);
#254=ORIENTED_EDGE('',*,*,#187,.T.);
#255=ORIENTED_EDGE('',*,*,#163,.T.);
#256=ORIENTED_EDGE('',*,*,#187,.F.);
#257=ORIENTED_EDGE('',*,*,#185,.T.);
#258=ORIENTED_EDGE('',*,*,#188,.T.);
#259=ORIENTED_EDGE('',*,*,#162,.T.);
#260=ORIENTED_EDGE('',*,*,#188,.F.);
#261=ORIENTED_EDGE('',*,*,#164,.F.);
#262=ORIENTED_EDGE('',*,*,#174,.F.);
#263=ORIENTED_EDGE('',*,*,#153,.T.);
#264=ORIENTED_EDGE('',*,*,#159,.T.);
#265=ORIENTED_EDGE('',*,*,#189,.F.);
#266=ORIENTED_EDGE('',*,*,#189,.T.);
#267=ORIENTED_EDGE('',*,*,#161,.T.);
#268=ORIENTED_EDGE('',*,*,#177,.F.);
#269=ORIENTED_EDGE('',*,*,#165,.F.);
#270=PLANE('',#308);
#271=PLANE('',#309);
#272=PLANE('',#312);
#273=PLANE('',#317);
#274=PLANE('',#325);
#275=PLANE('',#334);
#276=PLANE('',#338);
#277=PLANE('',#342);
#278=ADVANCED_FACE('',(#46),#270,.F.);
#279=ADVANCED_FACE('',(#47),#271,.T.);
#280=ADVANCED_FACE('',(#48,#23,#24),#272,.F.);
#281=ADVANCED_FACE('',(#49),#273,.T.);
#282=ADVANCED_FACE('',(#50),#17,.T.);
#283=ADVANCED_FACE('',(#51),#274,.T.);
#284=ADVANCED_FACE('',(#52),#18,.T.);
#285=ADVANCED_FACE('',(#53),#19,.T.);
#286=ADVANCED_FACE('',(#54),#15,.F.);
#287=ADVANCED_FACE('',(#55,#25,#26),#275,.F.);
#288=ADVANCED_FACE('',(#56),#16,.F.);
#289=ADVANCED_FACE('',(#57),#276,.F.);
#290=ADVANCED_FACE('',(#58),#20,.F.);
#291=ADVANCED_FACE('',(#59),#21,.F.);
#292=ADVANCED_FACE('',(#60),#22,.T.);
#293=ADVANCED_FACE('',(#61),#277,.F.);
#294=CLOSED_SHELL('',(#278,#279,#280,#281,#282,#283,#284,#285,#286,#287,
#288,#289,#290,#291,#292,#293));
#295=DERIVED_UNIT_ELEMENT(#297,1.);
#296=DERIVED_UNIT_ELEMENT(#524,-3.);
#297=(
MASS_UNIT()
NAMED_UNIT(*)
SI_UNIT(.KILO.,.GRAM.)
);
#298=DERIVED_UNIT((#295,#296));
#299=MEASURE_REPRESENTATION_ITEM('density measure',
POSITIVE_RATIO_MEASURE(7850.),#298);
#300=PROPERTY_DEFINITION_REPRESENTATION(#305,#302);
#301=PROPERTY_DEFINITION_REPRESENTATION(#306,#303);
#302=REPRESENTATION('material name',(#304),#521);
#303=REPRESENTATION('density',(#299),#521);
#304=DESCRIPTIVE_REPRESENTATION_ITEM('Stahl','Stahl');
#305=PROPERTY_DEFINITION('material property','material name',#531);
#306=PROPERTY_DEFINITION('material property','density of part',#531);
#307=AXIS2_PLACEMENT_3D('',#436,#343,#344);
#308=AXIS2_PLACEMENT_3D('',#437,#345,#346);
#309=AXIS2_PLACEMENT_3D('',#448,#352,#353);
#310=AXIS2_PLACEMENT_3D('',#453,#355,#356);
#311=AXIS2_PLACEMENT_3D('',#456,#358,#359);
#312=AXIS2_PLACEMENT_3D('',#457,#360,#361);
#313=AXIS2_PLACEMENT_3D('',#459,#362,#363);
#314=AXIS2_PLACEMENT_3D('',#461,#364,#365);
#315=AXIS2_PLACEMENT_3D('',#464,#367,#368);
#316=AXIS2_PLACEMENT_3D('',#466,#369,#370);
#317=AXIS2_PLACEMENT_3D('',#467,#371,#372);
#318=AXIS2_PLACEMENT_3D('',#470,#373,#374);
#319=AXIS2_PLACEMENT_3D('',#473,#376,#377);
#320=AXIS2_PLACEMENT_3D('',#475,#378,#379);
#321=AXIS2_PLACEMENT_3D('',#479,#381,#382);
#322=AXIS2_PLACEMENT_3D('',#481,#384,#385);
#323=AXIS2_PLACEMENT_3D('',#485,#387,#388);
#324=AXIS2_PLACEMENT_3D('',#486,#389,#390);
#325=AXIS2_PLACEMENT_3D('',#487,#391,#392);
#326=AXIS2_PLACEMENT_3D('',#488,#393,#394);
#327=AXIS2_PLACEMENT_3D('',#490,#396,#397);
#328=AXIS2_PLACEMENT_3D('',#491,#398,#399);
#329=AXIS2_PLACEMENT_3D('',#493,#401,#402);
#330=AXIS2_PLACEMENT_3D('',#495,#403,#404);
#331=AXIS2_PLACEMENT_3D('',#497,#406,#407);
#332=AXIS2_PLACEMENT_3D('',#499,#408,#409);
#333=AXIS2_PLACEMENT_3D('',#502,#411,#412);
#334=AXIS2_PLACEMENT_3D('',#503,#413,#414);
#335=AXIS2_PLACEMENT_3D('',#506,#416,#417);
#336=AXIS2_PLACEMENT_3D('',#507,#418,#419);
#337=AXIS2_PLACEMENT_3D('',#509,#420,#421);
#338=AXIS2_PLACEMENT_3D('',#511,#423,#424);
#339=AXIS2_PLACEMENT_3D('',#512,#425,#426);
#340=AXIS2_PLACEMENT_3D('',#514,#428,#429);
#341=AXIS2_PLACEMENT_3D('',#516,#431,#432);
#342=AXIS2_PLACEMENT_3D('',#518,#434,#435);
#343=DIRECTION('axis',(0.,0.,1.));
#344=DIRECTION('refdir',(1.,0.,0.));
#345=DIRECTION('center_axis',(0.,-0.0871557427476582,-0.996194698091746));
#346=DIRECTION('ref_axis',(0.,0.996194698091746,-0.0871557427476582));
#347=DIRECTION('',(0.,-0.996194698091746,0.0871557427476582));
#348=DIRECTION('',(1.,0.,0.));
#349=DIRECTION('',(0.,0.996194698091746,-0.0871557427476582));
#350=DIRECTION('',(1.,0.,0.));
#351=DIRECTION('',(0.0868265938642478,0.992432509138967,-0.0868265938642477));
#352=DIRECTION('center_axis',(0.707106781186547,0.,0.707106781186548));
#353=DIRECTION('ref_axis',(-0.707106781186548,0.,0.707106781186547));
#354=DIRECTION('',(0.,-1.,0.));
#355=DIRECTION('center_axis',(0.707106781186547,0.,0.707106781186548));
#356=DIRECTION('ref_axis',(-0.707106781186548,-1.30841038223648E-17,0.707106781186547));
#357=DIRECTION('',(0.,-1.,0.));
#358=DIRECTION('center_axis',(-0.707106781186547,0.,-0.707106781186548));
#359=DIRECTION('ref_axis',(0.707106781186548,-9.81307786677358E-18,-0.707106781186547));
#360=DIRECTION('center_axis',(-1.,0.,0.));
#361=DIRECTION('ref_axis',(0.,0.,-1.));
#362=DIRECTION('center_axis',(-1.,0.,0.));
#363=DIRECTION('ref_axis',(0.,0.0871557427476581,0.996194698091746));
#364=DIRECTION('center_axis',(-1.,0.,0.));
#365=DIRECTION('ref_axis',(0.,-0.0871557427476581,-0.996194698091746));
#366=DIRECTION('',(0.,-0.996194698091746,0.0871557427476582));
#367=DIRECTION('center_axis',(1.,0.,0.));
#368=DIRECTION('ref_axis',(0.,-1.,0.));
#369=DIRECTION('center_axis',(1.,0.,0.));
#370=DIRECTION('ref_axis',(0.,-1.,0.));
#371=DIRECTION('center_axis',(1.,0.,0.));
#372=DIRECTION('ref_axis',(0.,1.,0.));
#373=DIRECTION('center_axis',(-1.,0.,0.));
#374=DIRECTION('ref_axis',(0.,0.0871557427476581,0.996194698091746));
#375=DIRECTION('',(0.,-0.996194698091746,0.0871557427476582));
#376=DIRECTION('center_axis',(-1.,0.,0.));
#377=DIRECTION('ref_axis',(0.,-0.0871557427476581,-0.996194698091746));
#378=DIRECTION('center_axis',(1.,0.,0.));
#379=DIRECTION('ref_axis',(0.,0.0871557427476569,0.996194698091746));
#380=DIRECTION('',(0.,0.996194698091746,-0.0871557427476573));
#381=DIRECTION('center_axis',(1.,0.,0.));
#382=DIRECTION('ref_axis',(0.,-0.0871557427476569,-0.996194698091746));
#383=DIRECTION('',(0.,-1.,0.));
#384=DIRECTION('center_axis',(-1.,0.,0.));
#385=DIRECTION('ref_axis',(0.,-0.0871557427476569,-0.996194698091746));
#386=DIRECTION('',(1.,0.,0.));
#387=DIRECTION('center_axis',(1.,0.,0.));
#388=DIRECTION('ref_axis',(0.,-0.0871557427476569,-0.996194698091746));
#389=DIRECTION('center_axis',(0.707106781186547,0.,0.707106781186548));
#390=DIRECTION('ref_axis',(0.707106781186548,1.30841038223648E-17,-0.707106781186547));
#391=DIRECTION('center_axis',(0.707106781186547,0.,0.707106781186548));
#392=DIRECTION('ref_axis',(-0.707106781186548,0.,0.707106781186547));
#393=DIRECTION('center_axis',(-0.707106781186547,0.,-0.707106781186548));
#394=DIRECTION('ref_axis',(-0.707106781186548,9.81307786677358E-18,0.707106781186547));
#395=DIRECTION('',(0.,-1.,0.));
#396=DIRECTION('center_axis',(-1.,0.,0.));
#397=DIRECTION('ref_axis',(0.,-0.0871557427476581,-0.996194698091746));
#398=DIRECTION('center_axis',(-1.,0.,0.));
#399=DIRECTION('ref_axis',(0.,-0.0871557427476581,-0.996194698091746));
#400=DIRECTION('',(1.,0.,0.));
#401=DIRECTION('center_axis',(-1.,0.,0.));
#402=DIRECTION('ref_axis',(0.,0.0871557427476569,0.996194698091746));
#403=DIRECTION('center_axis',(1.,0.,0.));
#404=DIRECTION('ref_axis',(0.,0.0871557427476569,0.996194698091746));
#405=DIRECTION('',(1.,0.,0.));
#406=DIRECTION('center_axis',(-1.,0.,0.));
#407=DIRECTION('ref_axis',(0.,-1.,0.));
#408=DIRECTION('center_axis',(-1.,0.,0.));
#409=DIRECTION('ref_axis',(0.,-1.,0.));
#410=DIRECTION('',(-0.707106781186554,0.707106781186541,-8.65956056235485E-17));
#411=DIRECTION('center_axis',(1.,0.,0.));
#412=DIRECTION('ref_axis',(0.,-1.,0.));
#413=DIRECTION('center_axis',(1.,0.,0.));
#414=DIRECTION('ref_axis',(0.,0.996194698091746,-0.0871557427476582));
#415=DIRECTION('',(0.,0.996194698091746,-0.0871557427476573));
#416=DIRECTION('center_axis',(1.,0.,0.));
#417=DIRECTION('ref_axis',(0.,-1.,0.));
#418=DIRECTION('center_axis',(-1.,0.,0.));
#419=DIRECTION('ref_axis',(0.,-1.,0.));
#420=DIRECTION('center_axis',(-1.,0.,0.));
#421=DIRECTION('ref_axis',(0.,-1.,0.));
#422=DIRECTION('',(-0.707106781186554,0.707106781186541,-8.65956056235485E-17));
#423=DIRECTION('center_axis',(0.,0.0871557427476573,0.996194698091746));
#424=DIRECTION('ref_axis',(0.,-0.996194698091746,0.0871557427476573));
#425=DIRECTION('center_axis',(1.,0.,0.));
#426=DIRECTION('ref_axis',(0.,-1.,0.));
#427=DIRECTION('',(1.,0.,0.));
#428=DIRECTION('center_axis',(1.,0.,0.));
#429=DIRECTION('ref_axis',(0.,-1.,0.));
#430=DIRECTION('',(1.,0.,0.));
#431=DIRECTION('center_axis',(-1.,0.,0.));
#432=DIRECTION('ref_axis',(0.,0.0871557427476581,0.996194698091746));
#433=DIRECTION('',(1.,0.,0.));
#434=DIRECTION('center_axis',(0.,0.0871557427476582,0.996194698091746));
#435=DIRECTION('ref_axis',(0.,-0.996194698091746,0.0871557427476582));
#436=CARTESIAN_POINT('',(0.,0.,0.));
#437=CARTESIAN_POINT('Origin',(212.,22.0143212046743,30.303950901336));
#438=CARTESIAN_POINT('',(213.1,24.1493819803509,30.1171572875254));
#439=CARTESIAN_POINT('',(213.1,22.0143212046743,30.303950901336));
#440=CARTESIAN_POINT('',(213.1,25.7925156615386,29.9734017177639));
#441=CARTESIAN_POINT('',(220.6,22.0143212046743,30.303950901336));
#442=CARTESIAN_POINT('',(220.,22.0143212046743,30.303950901336));
#443=CARTESIAN_POINT('',(220.6,31.9762681855917,29.4323934738594));
#444=CARTESIAN_POINT('',(220.6,24.5505169282679,30.0820625270386));
#445=CARTESIAN_POINT('',(213.784763813666,31.9762681855917,29.4323934738594));
#446=CARTESIAN_POINT('',(220.,31.9762681855917,29.4323934738594));
#447=CARTESIAN_POINT('',(213.133876859647,24.5365962579656,30.0832804278788));
#448=CARTESIAN_POINT('Origin',(216.664979295193,26.5595159813947,26.5521779923322));
#449=CARTESIAN_POINT('',(213.1,20.1587399305982,30.1171572875255));
#450=CARTESIAN_POINT('',(213.1,15.8108879147376,30.1171572875255));
#451=CARTESIAN_POINT('',(213.1,27.8928664222341,30.1171572875255));
#452=CARTESIAN_POINT('',(217.3,14.1021161872674,25.9171572875254));
#453=CARTESIAN_POINT('Origin',(217.894179876648,21.578542490936,25.3229774108773));
#454=CARTESIAN_POINT('',(217.3,16.6139729955833,25.9171572875254));
#455=CARTESIAN_POINT('',(217.3,26.5595159813947,25.9171572875254));
#456=CARTESIAN_POINT('Origin',(217.894179876648,21.578542490936,25.3229774108773));
#457=CARTESIAN_POINT('Origin',(220.6,26.5595159813947,23.8342886354631));
#458=CARTESIAN_POINT('',(220.6,31.1047107581151,19.470446492942));
#459=CARTESIAN_POINT('Origin',(220.6,31.5404894718534,24.4514199834007));
#460=CARTESIAN_POINT('',(220.6,21.1427637771977,20.3420039204185));
#461=CARTESIAN_POINT('Origin',(220.6,21.578542490936,25.3229774108773));
#462=CARTESIAN_POINT('',(220.6,28.65993299125,19.6843368323829));
#463=CARTESIAN_POINT('',(220.6,24.128542490936,25.3229774108773));
#464=CARTESIAN_POINT('Origin',(220.6,21.578542490936,25.3229774108773));
#465=CARTESIAN_POINT('',(220.6,34.0904894718534,24.4514199834007));
#466=CARTESIAN_POINT('Origin',(220.6,31.5404894718534,24.4514199834007));
#467=CARTESIAN_POINT('Origin',(217.3,26.5595159813947,24.887198697139));
#468=CARTESIAN_POINT('',(217.3,36.3208256687434,25.9171572875254));
#469=CARTESIAN_POINT('',(217.3,31.1047107581151,19.4704464929419));
#470=CARTESIAN_POINT('Origin',(217.3,31.5404894718534,24.4514199834007));
#471=CARTESIAN_POINT('',(217.3,21.1427637771977,20.3420039204185));
#472=CARTESIAN_POINT('',(217.3,28.6142240128858,19.6883358498111));
#473=CARTESIAN_POINT('Origin',(217.3,21.578542490936,25.3229774108773));
#474=CARTESIAN_POINT('',(217.3,20.9248744203285,17.8515171751892));
#475=CARTESIAN_POINT('Origin',(217.3,21.578542490936,25.3229774108773));
#476=CARTESIAN_POINT('',(217.3,30.886821401246,16.9799597477126));
#477=CARTESIAN_POINT('',(217.3,28.3963346560166,17.1978491045817));
#478=CARTESIAN_POINT('',(217.3,38.8958694182122,25.9171572875254));
#479=CARTESIAN_POINT('Origin',(217.3,31.5404894718534,24.4514199834007));
#480=CARTESIAN_POINT('',(217.3,26.5595159813947,25.9171572875254));
#481=CARTESIAN_POINT('Origin',(212.5,31.5404894718534,24.4514199834007));
#482=CARTESIAN_POINT('',(213.1,30.886821401246,16.9799597477126));
#483=CARTESIAN_POINT('',(212.5,30.886821401246,16.9799597477126));
#484=CARTESIAN_POINT('',(213.1,36.4546954912068,30.1171572875255));
#485=CARTESIAN_POINT('Origin',(213.1,31.5404894718534,24.4514199834007));
#486=CARTESIAN_POINT('Origin',(218.765737304125,31.5404894718534,24.4514199834007));
#487=CARTESIAN_POINT('Origin',(216.664979295193,26.5595159813947,26.5521779923322));
#488=CARTESIAN_POINT('Origin',(218.765737304125,31.5404894718534,24.4514199834007));
#489=CARTESIAN_POINT('',(213.1,27.8928664222341,30.1171572875255));
#490=CARTESIAN_POINT('Origin',(212.,21.578542490936,25.3229774108773));
#491=CARTESIAN_POINT('Origin',(213.1,21.578542490936,25.3229774108773));
#492=CARTESIAN_POINT('',(212.,21.1427637771977,20.3420039204185));
#493=CARTESIAN_POINT('Origin',(212.5,21.578542490936,25.3229774108773));
#494=CARTESIAN_POINT('',(213.1,20.9248744203285,17.8515171751892));
#495=CARTESIAN_POINT('Origin',(213.1,21.578542490936,25.3229774108773));
#496=CARTESIAN_POINT('',(212.5,20.9248744203285,17.8515171751892));
#497=CARTESIAN_POINT('Origin',(213.6,31.5404894718534,24.4514199834007));
#498=CARTESIAN_POINT('',(214.1,34.0904894718534,24.4514199834007));
#499=CARTESIAN_POINT('Origin',(214.1,31.5404894718534,24.4514199834007));
#500=CARTESIAN_POINT('',(213.1,35.0904894718534,24.4514199834007));
#501=CARTESIAN_POINT('',(213.6,34.5904894718534,24.4514199834007));
#502=CARTESIAN_POINT('Origin',(213.1,31.5404894718534,24.4514199834007));
#503=CARTESIAN_POINT('Origin',(213.1,29.2262168630735,25.7052766078271));
#504=CARTESIAN_POINT('',(213.1,20.9248744203285,17.8515171751892));
#505=CARTESIAN_POINT('',(213.1,25.128542490936,25.3229774108773));
#506=CARTESIAN_POINT('Origin',(213.1,21.578542490936,25.3229774108773));
#507=CARTESIAN_POINT('Origin',(213.6,21.578542490936,25.3229774108773));
#508=CARTESIAN_POINT('',(214.1,24.128542490936,25.3229774108773));
#509=CARTESIAN_POINT('Origin',(214.1,21.578542490936,25.3229774108773));
#510=CARTESIAN_POINT('',(213.6,24.628542490936,25.3229774108773));
#511=CARTESIAN_POINT('Origin',(212.5,30.886821401246,16.9799597477126));
#512=CARTESIAN_POINT('Origin',(216.,31.5404894718534,24.4514199834007));
#513=CARTESIAN_POINT('',(216.,34.0904894718534,24.4514199834007));
#514=CARTESIAN_POINT('Origin',(216.,21.578542490936,25.3229774108773));
#515=CARTESIAN_POINT('',(216.,24.128542490936,25.3229774108773));
#516=CARTESIAN_POINT('Origin',(212.,31.5404894718534,24.4514199834007));
#517=CARTESIAN_POINT('',(220.,31.1047107581151,19.470446492942));
#518=CARTESIAN_POINT('Origin',(212.,31.1047107581151,19.470446492942));
#519=UNCERTAINTY_MEASURE_WITH_UNIT(LENGTH_MEASURE(0.01),#523,
'DISTANCE_ACCURACY_VALUE',
'Maximum model space distance between geometric entities at asserted c
onnectivities');
#520=UNCERTAINTY_MEASURE_WITH_UNIT(LENGTH_MEASURE(0.01),#523,
'DISTANCE_ACCURACY_VALUE',
'Maximum model space distance between geometric entities at asserted c
onnectivities');
#521=(
GEOMETRIC_REPRESENTATION_CONTEXT(3)
GLOBAL_UNCERTAINTY_ASSIGNED_CONTEXT((#519))
GLOBAL_UNIT_ASSIGNED_CONTEXT((#523,#525,#526))
REPRESENTATION_CONTEXT('','3D')
);
#522=(
GEOMETRIC_REPRESENTATION_CONTEXT(3)
GLOBAL_UNCERTAINTY_ASSIGNED_CONTEXT((#520))
GLOBAL_UNIT_ASSIGNED_CONTEXT((#523,#525,#526))
REPRESENTATION_CONTEXT('','3D')
);
#523=(
LENGTH_UNIT()
NAMED_UNIT(*)
SI_UNIT(.MILLI.,.METRE.)
);
#524=(
LENGTH_UNIT()
NAMED_UNIT(*)
SI_UNIT($,.METRE.)
);
#525=(
NAMED_UNIT(*)
PLANE_ANGLE_UNIT()
SI_UNIT($,.RADIAN.)
);
#526=(
NAMED_UNIT(*)
SI_UNIT($,.STERADIAN.)
SOLID_ANGLE_UNIT()
);
#527=SHAPE_DEFINITION_REPRESENTATION(#528,#529);
#528=PRODUCT_DEFINITION_SHAPE('',$,#531);
#529=SHAPE_REPRESENTATION('',(#307),#521);
#530=PRODUCT_DEFINITION_CONTEXT('part definition',#535,'design');
#531=PRODUCT_DEFINITION('Left rear LED insert','Left rear LED insert',#532,
#530);
#532=PRODUCT_DEFINITION_FORMATION('',$,#537);
#533=PRODUCT_RELATED_PRODUCT_CATEGORY('Left rear LED insert',
'Left rear LED insert',(#537));
#534=APPLICATION_PROTOCOL_DEFINITION('international standard',
'automotive_design',2009,#535);
#535=APPLICATION_CONTEXT(
'Core Data for Automotive Mechanical Design Process');
#536=PRODUCT_CONTEXT('part definition',#535,'mechanical');
#537=PRODUCT('Left rear LED insert','Left rear LED insert',$,(#536));
#538=PRESENTATION_STYLE_ASSIGNMENT((#540));
#539=PRESENTATION_STYLE_ASSIGNMENT((#541));
#540=SURFACE_STYLE_USAGE(.BOTH.,#542);
#541=SURFACE_STYLE_USAGE(.BOTH.,#543);
#542=SURFACE_SIDE_STYLE('',(#544));
#543=SURFACE_SIDE_STYLE('',(#545));
#544=SURFACE_STYLE_FILL_AREA(#546);
#545=SURFACE_STYLE_FILL_AREA(#547);
#546=FILL_AREA_STYLE('Stahl - satiniert',(#548));
#547=FILL_AREA_STYLE('Opaque(160,160,160)',(#549));
#548=FILL_AREA_STYLE_COLOUR('Stahl - satiniert',#550);
#549=FILL_AREA_STYLE_COLOUR('Opaque(160,160,160)',#551);
#550=COLOUR_RGB('Stahl - satiniert',0.627450980392157,0.627450980392157,
0.627450980392157);
#551=COLOUR_RGB('Opaque(160,160,160)',0.392156862745098,0.392156862745098,
0.392156862745098);
ENDSEC;
END-ISO-10303-21;
