ISO-10303-21;
HEADER;
/* Generated by software containing ST-Developer
 * from STEP Tools, Inc. (www.steptools.com) 
 */

FILE_DESCRIPTION(
/* description */ (''),
/* implementation_level */ '2;1');

FILE_NAME(
/* name */ 'Rear bumper.step',
/* time_stamp */ '2026-01-02T21:48:31+01:00',
/* author */ (''),
/* organization */ (''),
/* preprocessor_version */ 'ST-DEVELOPER v20.1',
/* originating_system */ 'Autodesk Translation Framework v14.21.0.0',
/* authorisation */ '');

FILE_SCHEMA (('AUTOMOTIVE_DESIGN { 1 0 10303 214 3 1 1 }'));
ENDSEC;

DATA;
#10=MECHANICAL_DESIGN_GEOMETRIC_PRESENTATION_REPRESENTATION('',(#13),#910);
#11=SHAPE_REPRESENTATION_RELATIONSHIP('SRR','None',#917,#12);
#12=ADVANCED_BREP_SHAPE_REPRESENTATION('',(#14),#909);
#13=STYLED_ITEM('',(#926),#14);
#14=MANIFOLD_SOLID_BREP('Rear bumper',#554);
#15=ELLIPSE('',#581,14.7091808065575,3.00000000000001);
#16=ELLIPSE('',#582,14.7091808065575,3.00000000000001);
#17=ELLIPSE('',#589,14.7091808065575,3.);
#18=ELLIPSE('',#590,14.7091808065575,3.);
#19=CYLINDRICAL_SURFACE('',#580,3.00000000000001);
#20=CYLINDRICAL_SURFACE('',#588,3.);
#21=CYLINDRICAL_SURFACE('',#593,1.6);
#22=CYLINDRICAL_SURFACE('',#595,1.6);
#23=FACE_BOUND('',#62,.T.);
#24=FACE_BOUND('',#66,.T.);
#25=FACE_BOUND('',#71,.T.);
#26=FACE_BOUND('',#76,.T.);
#27=FACE_BOUND('',#81,.T.);
#28=FACE_BOUND('',#91,.T.);
#29=FACE_BOUND('',#92,.T.);
#30=FACE_OUTER_BOUND('',#58,.T.);
#31=FACE_OUTER_BOUND('',#59,.T.);
#32=FACE_OUTER_BOUND('',#60,.T.);
#33=FACE_OUTER_BOUND('',#61,.T.);
#34=FACE_OUTER_BOUND('',#63,.T.);
#35=FACE_OUTER_BOUND('',#64,.T.);
#36=FACE_OUTER_BOUND('',#65,.T.);
#37=FACE_OUTER_BOUND('',#67,.T.);
#38=FACE_OUTER_BOUND('',#68,.T.);
#39=FACE_OUTER_BOUND('',#69,.T.);
#40=FACE_OUTER_BOUND('',#70,.T.);
#41=FACE_OUTER_BOUND('',#72,.T.);
#42=FACE_OUTER_BOUND('',#73,.T.);
#43=FACE_OUTER_BOUND('',#74,.T.);
#44=FACE_OUTER_BOUND('',#75,.T.);
#45=FACE_OUTER_BOUND('',#77,.T.);
#46=FACE_OUTER_BOUND('',#78,.T.);
#47=FACE_OUTER_BOUND('',#79,.T.);
#48=FACE_OUTER_BOUND('',#80,.T.);
#49=FACE_OUTER_BOUND('',#82,.T.);
#50=FACE_OUTER_BOUND('',#83,.T.);
#51=FACE_OUTER_BOUND('',#84,.T.);
#52=FACE_OUTER_BOUND('',#85,.T.);
#53=FACE_OUTER_BOUND('',#86,.T.);
#54=FACE_OUTER_BOUND('',#87,.T.);
#55=FACE_OUTER_BOUND('',#88,.T.);
#56=FACE_OUTER_BOUND('',#89,.T.);
#57=FACE_OUTER_BOUND('',#90,.T.);
#58=EDGE_LOOP('',(#352,#353,#354,#355,#356,#357,#358,#359));
#59=EDGE_LOOP('',(#360,#361,#362,#363));
#60=EDGE_LOOP('',(#364,#365,#366,#367,#368));
#61=EDGE_LOOP('',(#369,#370,#371,#372));
#62=EDGE_LOOP('',(#373,#374,#375,#376));
#63=EDGE_LOOP('',(#377,#378,#379,#380,#381));
#64=EDGE_LOOP('',(#382,#383,#384));
#65=EDGE_LOOP('',(#385,#386,#387,#388));
#66=EDGE_LOOP('',(#389));
#67=EDGE_LOOP('',(#390,#391,#392));
#68=EDGE_LOOP('',(#393,#394,#395,#396,#397,#398,#399,#400));
#69=EDGE_LOOP('',(#401,#402,#403));
#70=EDGE_LOOP('',(#404,#405,#406,#407));
#71=EDGE_LOOP('',(#408));
#72=EDGE_LOOP('',(#409,#410,#411));
#73=EDGE_LOOP('',(#412,#413,#414,#415,#416,#417,#418,#419));
#74=EDGE_LOOP('',(#420,#421,#422,#423));
#75=EDGE_LOOP('',(#424,#425,#426,#427,#428,#429,#430,#431,#432,#433,#434,
#435,#436,#437,#438,#439));
#76=EDGE_LOOP('',(#440,#441,#442,#443));
#77=EDGE_LOOP('',(#444,#445,#446,#447));
#78=EDGE_LOOP('',(#448,#449,#450,#451));
#79=EDGE_LOOP('',(#452,#453,#454,#455));
#80=EDGE_LOOP('',(#456,#457,#458,#459));
#81=EDGE_LOOP('',(#460,#461,#462,#463));
#82=EDGE_LOOP('',(#464,#465,#466,#467));
#83=EDGE_LOOP('',(#468,#469,#470,#471));
#84=EDGE_LOOP('',(#472,#473,#474,#475));
#85=EDGE_LOOP('',(#476,#477,#478,#479));
#86=EDGE_LOOP('',(#480,#481,#482,#483));
#87=EDGE_LOOP('',(#484,#485,#486,#487));
#88=EDGE_LOOP('',(#488,#489,#490,#491));
#89=EDGE_LOOP('',(#492,#493,#494,#495));
#90=EDGE_LOOP('',(#496,#497,#498,#499));
#91=EDGE_LOOP('',(#500));
#92=EDGE_LOOP('',(#501));
#93=CIRCLE('',#569,3.);
#94=CIRCLE('',#570,3.00000000000001);
#95=CIRCLE('',#577,3.00000000000001);
#96=CIRCLE('',#578,1.6);
#97=CIRCLE('',#585,3.);
#98=CIRCLE('',#586,1.6);
#99=CIRCLE('',#594,1.6);
#100=CIRCLE('',#596,1.6);
#101=LINE('',#757,#164);
#102=LINE('',#759,#165);
#103=LINE('',#761,#166);
#104=LINE('',#765,#167);
#105=LINE('',#769,#168);
#106=LINE('',#770,#169);
#107=LINE('',#773,#170);
#108=LINE('',#775,#171);
#109=LINE('',#776,#172);
#110=LINE('',#779,#173);
#111=LINE('',#781,#174);
#112=LINE('',#782,#175);
#113=LINE('',#785,#176);
#114=LINE('',#786,#177);
#115=LINE('',#789,#178);
#116=LINE('',#791,#179);
#117=LINE('',#793,#180);
#118=LINE('',#794,#181);
#119=LINE('',#797,#182);
#120=LINE('',#799,#183);
#121=LINE('',#800,#184);
#122=LINE('',#804,#185);
#123=LINE('',#806,#186);
#124=LINE('',#807,#187);
#125=LINE('',#810,#188);
#126=LINE('',#812,#189);
#127=LINE('',#818,#190);
#128=LINE('',#819,#191);
#129=LINE('',#822,#192);
#130=LINE('',#826,#193);
#131=LINE('',#830,#194);
#132=LINE('',#832,#195);
#133=LINE('',#833,#196);
#134=LINE('',#836,#197);
#135=LINE('',#838,#198);
#136=LINE('',#844,#199);
#137=LINE('',#845,#200);
#138=LINE('',#850,#201);
#139=LINE('',#852,#202);
#140=LINE('',#854,#203);
#141=LINE('',#855,#204);
#142=LINE('',#858,#205);
#143=LINE('',#860,#206);
#144=LINE('',#862,#207);
#145=LINE('',#863,#208);
#146=LINE('',#867,#209);
#147=LINE('',#871,#210);
#148=LINE('',#876,#211);
#149=LINE('',#878,#212);
#150=LINE('',#880,#213);
#151=LINE('',#881,#214);
#152=LINE('',#884,#215);
#153=LINE('',#886,#216);
#154=LINE('',#888,#217);
#155=LINE('',#889,#218);
#156=LINE('',#891,#219);
#157=LINE('',#892,#220);
#158=LINE('',#894,#221);
#159=LINE('',#896,#222);
#160=LINE('',#897,#223);
#161=LINE('',#899,#224);
#162=LINE('',#901,#225);
#163=LINE('',#904,#226);
#164=VECTOR('',#612,10.);
#165=VECTOR('',#613,10.);
#166=VECTOR('',#614,10.);
#167=VECTOR('',#617,10.);
#168=VECTOR('',#620,10.);
#169=VECTOR('',#621,10.);
#170=VECTOR('',#624,10.);
#171=VECTOR('',#625,10.);
#172=VECTOR('',#626,10.);
#173=VECTOR('',#629,10.);
#174=VECTOR('',#630,10.);
#175=VECTOR('',#631,10.);
#176=VECTOR('',#634,10.);
#177=VECTOR('',#635,10.);
#178=VECTOR('',#636,10.);
#179=VECTOR('',#637,10.);
#180=VECTOR('',#638,10.);
#181=VECTOR('',#639,10.);
#182=VECTOR('',#642,10.);
#183=VECTOR('',#643,10.);
#184=VECTOR('',#644,10.);
#185=VECTOR('',#647,10.);
#186=VECTOR('',#648,10.);
#187=VECTOR('',#649,10.);
#188=VECTOR('',#652,10.);
#189=VECTOR('',#653,10.);
#190=VECTOR('',#660,10.);
#191=VECTOR('',#661,10.);
#192=VECTOR('',#664,10.);
#193=VECTOR('',#669,10.);
#194=VECTOR('',#672,10.);
#195=VECTOR('',#673,10.);
#196=VECTOR('',#674,10.);
#197=VECTOR('',#677,10.);
#198=VECTOR('',#678,10.);
#199=VECTOR('',#685,10.);
#200=VECTOR('',#686,10.);
#201=VECTOR('',#693,10.);
#202=VECTOR('',#696,10.);
#203=VECTOR('',#699,10.);
#204=VECTOR('',#700,10.);
#205=VECTOR('',#701,10.);
#206=VECTOR('',#702,10.);
#207=VECTOR('',#703,10.);
#208=VECTOR('',#704,10.);
#209=VECTOR('',#709,1.6);
#210=VECTOR('',#714,1.6);
#211=VECTOR('',#719,10.);
#212=VECTOR('',#720,10.);
#213=VECTOR('',#721,10.);
#214=VECTOR('',#722,10.);
#215=VECTOR('',#723,10.);
#216=VECTOR('',#724,10.);
#217=VECTOR('',#725,10.);
#218=VECTOR('',#726,10.);
#219=VECTOR('',#729,10.);
#220=VECTOR('',#730,10.);
#221=VECTOR('',#733,10.);
#222=VECTOR('',#736,10.);
#223=VECTOR('',#737,10.);
#224=VECTOR('',#740,10.);
#225=VECTOR('',#743,10.);
#226=VECTOR('',#748,10.);
#227=VERTEX_POINT('',#755);
#228=VERTEX_POINT('',#756);
#229=VERTEX_POINT('',#758);
#230=VERTEX_POINT('',#760);
#231=VERTEX_POINT('',#762);
#232=VERTEX_POINT('',#764);
#233=VERTEX_POINT('',#766);
#234=VERTEX_POINT('',#768);
#235=VERTEX_POINT('',#772);
#236=VERTEX_POINT('',#774);
#237=VERTEX_POINT('',#778);
#238=VERTEX_POINT('',#780);
#239=VERTEX_POINT('',#784);
#240=VERTEX_POINT('',#787);
#241=VERTEX_POINT('',#788);
#242=VERTEX_POINT('',#790);
#243=VERTEX_POINT('',#792);
#244=VERTEX_POINT('',#796);
#245=VERTEX_POINT('',#798);
#246=VERTEX_POINT('',#802);
#247=VERTEX_POINT('',#803);
#248=VERTEX_POINT('',#805);
#249=VERTEX_POINT('',#809);
#250=VERTEX_POINT('',#811);
#251=VERTEX_POINT('',#814);
#252=VERTEX_POINT('',#817);
#253=VERTEX_POINT('',#821);
#254=VERTEX_POINT('',#824);
#255=VERTEX_POINT('',#828);
#256=VERTEX_POINT('',#829);
#257=VERTEX_POINT('',#831);
#258=VERTEX_POINT('',#835);
#259=VERTEX_POINT('',#837);
#260=VERTEX_POINT('',#840);
#261=VERTEX_POINT('',#843);
#262=VERTEX_POINT('',#848);
#263=VERTEX_POINT('',#856);
#264=VERTEX_POINT('',#857);
#265=VERTEX_POINT('',#859);
#266=VERTEX_POINT('',#861);
#267=VERTEX_POINT('',#865);
#268=VERTEX_POINT('',#869);
#269=VERTEX_POINT('',#874);
#270=VERTEX_POINT('',#875);
#271=VERTEX_POINT('',#877);
#272=VERTEX_POINT('',#879);
#273=VERTEX_POINT('',#882);
#274=VERTEX_POINT('',#883);
#275=VERTEX_POINT('',#885);
#276=VERTEX_POINT('',#887);
#277=EDGE_CURVE('',#227,#228,#101,.T.);
#278=EDGE_CURVE('',#229,#227,#102,.T.);
#279=EDGE_CURVE('',#230,#229,#103,.T.);
#280=EDGE_CURVE('',#231,#230,#93,.T.);
#281=EDGE_CURVE('',#232,#231,#104,.T.);
#282=EDGE_CURVE('',#233,#232,#94,.T.);
#283=EDGE_CURVE('',#234,#233,#105,.T.);
#284=EDGE_CURVE('',#228,#234,#106,.T.);
#285=EDGE_CURVE('',#235,#229,#107,.T.);
#286=EDGE_CURVE('',#236,#235,#108,.T.);
#287=EDGE_CURVE('',#236,#230,#109,.T.);
#288=EDGE_CURVE('',#237,#227,#110,.F.);
#289=EDGE_CURVE('',#238,#237,#111,.T.);
#290=EDGE_CURVE('',#235,#238,#112,.F.);
#291=EDGE_CURVE('',#239,#228,#113,.T.);
#292=EDGE_CURVE('',#239,#237,#114,.T.);
#293=EDGE_CURVE('',#240,#241,#115,.T.);
#294=EDGE_CURVE('',#241,#242,#116,.T.);
#295=EDGE_CURVE('',#242,#243,#117,.T.);
#296=EDGE_CURVE('',#243,#240,#118,.T.);
#297=EDGE_CURVE('',#244,#234,#119,.F.);
#298=EDGE_CURVE('',#245,#244,#120,.F.);
#299=EDGE_CURVE('',#245,#239,#121,.T.);
#300=EDGE_CURVE('',#246,#247,#122,.T.);
#301=EDGE_CURVE('',#246,#248,#123,.T.);
#302=EDGE_CURVE('',#247,#248,#124,.T.);
#303=EDGE_CURVE('',#249,#246,#125,.F.);
#304=EDGE_CURVE('',#250,#249,#126,.T.);
#305=EDGE_CURVE('',#248,#250,#95,.T.);
#306=EDGE_CURVE('',#251,#251,#96,.T.);
#307=EDGE_CURVE('',#252,#249,#127,.T.);
#308=EDGE_CURVE('',#252,#250,#128,.T.);
#309=EDGE_CURVE('',#253,#232,#129,.T.);
#310=EDGE_CURVE('',#247,#253,#15,.T.);
#311=EDGE_CURVE('',#254,#252,#16,.T.);
#312=EDGE_CURVE('',#233,#254,#130,.T.);
#313=EDGE_CURVE('',#255,#256,#131,.T.);
#314=EDGE_CURVE('',#255,#257,#132,.T.);
#315=EDGE_CURVE('',#256,#257,#133,.T.);
#316=EDGE_CURVE('',#258,#255,#134,.F.);
#317=EDGE_CURVE('',#259,#258,#135,.T.);
#318=EDGE_CURVE('',#257,#259,#97,.T.);
#319=EDGE_CURVE('',#260,#260,#98,.T.);
#320=EDGE_CURVE('',#261,#258,#136,.T.);
#321=EDGE_CURVE('',#261,#259,#137,.T.);
#322=EDGE_CURVE('',#256,#236,#17,.T.);
#323=EDGE_CURVE('',#262,#261,#18,.T.);
#324=EDGE_CURVE('',#231,#262,#138,.T.);
#325=EDGE_CURVE('',#253,#262,#139,.T.);
#326=EDGE_CURVE('',#245,#238,#140,.T.);
#327=EDGE_CURVE('',#244,#254,#141,.T.);
#328=EDGE_CURVE('',#263,#264,#142,.T.);
#329=EDGE_CURVE('',#264,#265,#143,.T.);
#330=EDGE_CURVE('',#265,#266,#144,.T.);
#331=EDGE_CURVE('',#266,#263,#145,.T.);
#332=EDGE_CURVE('',#267,#267,#99,.T.);
#333=EDGE_CURVE('',#267,#260,#146,.T.);
#334=EDGE_CURVE('',#268,#268,#100,.T.);
#335=EDGE_CURVE('',#268,#251,#147,.T.);
#336=EDGE_CURVE('',#269,#270,#148,.T.);
#337=EDGE_CURVE('',#271,#269,#149,.T.);
#338=EDGE_CURVE('',#272,#271,#150,.T.);
#339=EDGE_CURVE('',#270,#272,#151,.T.);
#340=EDGE_CURVE('',#273,#274,#152,.T.);
#341=EDGE_CURVE('',#275,#273,#153,.T.);
#342=EDGE_CURVE('',#276,#275,#154,.T.);
#343=EDGE_CURVE('',#274,#276,#155,.T.);
#344=EDGE_CURVE('',#276,#242,#156,.T.);
#345=EDGE_CURVE('',#274,#241,#157,.T.);
#346=EDGE_CURVE('',#275,#243,#158,.T.);
#347=EDGE_CURVE('',#264,#269,#159,.T.);
#348=EDGE_CURVE('',#265,#270,#160,.T.);
#349=EDGE_CURVE('',#263,#271,#161,.T.);
#350=EDGE_CURVE('',#266,#272,#162,.T.);
#351=EDGE_CURVE('',#273,#240,#163,.T.);
#352=ORIENTED_EDGE('',*,*,#277,.F.);
#353=ORIENTED_EDGE('',*,*,#278,.F.);
#354=ORIENTED_EDGE('',*,*,#279,.F.);
#355=ORIENTED_EDGE('',*,*,#280,.F.);
#356=ORIENTED_EDGE('',*,*,#281,.F.);
#357=ORIENTED_EDGE('',*,*,#282,.F.);
#358=ORIENTED_EDGE('',*,*,#283,.F.);
#359=ORIENTED_EDGE('',*,*,#284,.F.);
#360=ORIENTED_EDGE('',*,*,#279,.T.);
#361=ORIENTED_EDGE('',*,*,#285,.F.);
#362=ORIENTED_EDGE('',*,*,#286,.F.);
#363=ORIENTED_EDGE('',*,*,#287,.T.);
#364=ORIENTED_EDGE('',*,*,#278,.T.);
#365=ORIENTED_EDGE('',*,*,#288,.F.);
#366=ORIENTED_EDGE('',*,*,#289,.F.);
#367=ORIENTED_EDGE('',*,*,#290,.F.);
#368=ORIENTED_EDGE('',*,*,#285,.T.);
#369=ORIENTED_EDGE('',*,*,#277,.T.);
#370=ORIENTED_EDGE('',*,*,#291,.F.);
#371=ORIENTED_EDGE('',*,*,#292,.T.);
#372=ORIENTED_EDGE('',*,*,#288,.T.);
#373=ORIENTED_EDGE('',*,*,#293,.T.);
#374=ORIENTED_EDGE('',*,*,#294,.T.);
#375=ORIENTED_EDGE('',*,*,#295,.T.);
#376=ORIENTED_EDGE('',*,*,#296,.T.);
#377=ORIENTED_EDGE('',*,*,#284,.T.);
#378=ORIENTED_EDGE('',*,*,#297,.F.);
#379=ORIENTED_EDGE('',*,*,#298,.F.);
#380=ORIENTED_EDGE('',*,*,#299,.T.);
#381=ORIENTED_EDGE('',*,*,#291,.T.);
#382=ORIENTED_EDGE('',*,*,#300,.F.);
#383=ORIENTED_EDGE('',*,*,#301,.T.);
#384=ORIENTED_EDGE('',*,*,#302,.F.);
#385=ORIENTED_EDGE('',*,*,#303,.F.);
#386=ORIENTED_EDGE('',*,*,#304,.F.);
#387=ORIENTED_EDGE('',*,*,#305,.F.);
#388=ORIENTED_EDGE('',*,*,#301,.F.);
#389=ORIENTED_EDGE('',*,*,#306,.F.);
#390=ORIENTED_EDGE('',*,*,#307,.F.);
#391=ORIENTED_EDGE('',*,*,#308,.T.);
#392=ORIENTED_EDGE('',*,*,#304,.T.);
#393=ORIENTED_EDGE('',*,*,#282,.T.);
#394=ORIENTED_EDGE('',*,*,#309,.F.);
#395=ORIENTED_EDGE('',*,*,#310,.F.);
#396=ORIENTED_EDGE('',*,*,#302,.T.);
#397=ORIENTED_EDGE('',*,*,#305,.T.);
#398=ORIENTED_EDGE('',*,*,#308,.F.);
#399=ORIENTED_EDGE('',*,*,#311,.F.);
#400=ORIENTED_EDGE('',*,*,#312,.F.);
#401=ORIENTED_EDGE('',*,*,#313,.F.);
#402=ORIENTED_EDGE('',*,*,#314,.T.);
#403=ORIENTED_EDGE('',*,*,#315,.F.);
#404=ORIENTED_EDGE('',*,*,#316,.F.);
#405=ORIENTED_EDGE('',*,*,#317,.F.);
#406=ORIENTED_EDGE('',*,*,#318,.F.);
#407=ORIENTED_EDGE('',*,*,#314,.F.);
#408=ORIENTED_EDGE('',*,*,#319,.F.);
#409=ORIENTED_EDGE('',*,*,#320,.F.);
#410=ORIENTED_EDGE('',*,*,#321,.T.);
#411=ORIENTED_EDGE('',*,*,#317,.T.);
#412=ORIENTED_EDGE('',*,*,#280,.T.);
#413=ORIENTED_EDGE('',*,*,#287,.F.);
#414=ORIENTED_EDGE('',*,*,#322,.F.);
#415=ORIENTED_EDGE('',*,*,#315,.T.);
#416=ORIENTED_EDGE('',*,*,#318,.T.);
#417=ORIENTED_EDGE('',*,*,#321,.F.);
#418=ORIENTED_EDGE('',*,*,#323,.F.);
#419=ORIENTED_EDGE('',*,*,#324,.F.);
#420=ORIENTED_EDGE('',*,*,#281,.T.);
#421=ORIENTED_EDGE('',*,*,#324,.T.);
#422=ORIENTED_EDGE('',*,*,#325,.F.);
#423=ORIENTED_EDGE('',*,*,#309,.T.);
#424=ORIENTED_EDGE('',*,*,#311,.T.);
#425=ORIENTED_EDGE('',*,*,#307,.T.);
#426=ORIENTED_EDGE('',*,*,#303,.T.);
#427=ORIENTED_EDGE('',*,*,#300,.T.);
#428=ORIENTED_EDGE('',*,*,#310,.T.);
#429=ORIENTED_EDGE('',*,*,#325,.T.);
#430=ORIENTED_EDGE('',*,*,#323,.T.);
#431=ORIENTED_EDGE('',*,*,#320,.T.);
#432=ORIENTED_EDGE('',*,*,#316,.T.);
#433=ORIENTED_EDGE('',*,*,#313,.T.);
#434=ORIENTED_EDGE('',*,*,#322,.T.);
#435=ORIENTED_EDGE('',*,*,#286,.T.);
#436=ORIENTED_EDGE('',*,*,#290,.T.);
#437=ORIENTED_EDGE('',*,*,#326,.F.);
#438=ORIENTED_EDGE('',*,*,#298,.T.);
#439=ORIENTED_EDGE('',*,*,#327,.T.);
#440=ORIENTED_EDGE('',*,*,#328,.T.);
#441=ORIENTED_EDGE('',*,*,#329,.T.);
#442=ORIENTED_EDGE('',*,*,#330,.T.);
#443=ORIENTED_EDGE('',*,*,#331,.T.);
#444=ORIENTED_EDGE('',*,*,#332,.F.);
#445=ORIENTED_EDGE('',*,*,#333,.T.);
#446=ORIENTED_EDGE('',*,*,#319,.T.);
#447=ORIENTED_EDGE('',*,*,#333,.F.);
#448=ORIENTED_EDGE('',*,*,#334,.F.);
#449=ORIENTED_EDGE('',*,*,#335,.T.);
#450=ORIENTED_EDGE('',*,*,#306,.T.);
#451=ORIENTED_EDGE('',*,*,#335,.F.);
#452=ORIENTED_EDGE('',*,*,#283,.T.);
#453=ORIENTED_EDGE('',*,*,#312,.T.);
#454=ORIENTED_EDGE('',*,*,#327,.F.);
#455=ORIENTED_EDGE('',*,*,#297,.T.);
#456=ORIENTED_EDGE('',*,*,#336,.F.);
#457=ORIENTED_EDGE('',*,*,#337,.F.);
#458=ORIENTED_EDGE('',*,*,#338,.F.);
#459=ORIENTED_EDGE('',*,*,#339,.F.);
#460=ORIENTED_EDGE('',*,*,#340,.F.);
#461=ORIENTED_EDGE('',*,*,#341,.F.);
#462=ORIENTED_EDGE('',*,*,#342,.F.);
#463=ORIENTED_EDGE('',*,*,#343,.F.);
#464=ORIENTED_EDGE('',*,*,#343,.T.);
#465=ORIENTED_EDGE('',*,*,#344,.T.);
#466=ORIENTED_EDGE('',*,*,#294,.F.);
#467=ORIENTED_EDGE('',*,*,#345,.F.);
#468=ORIENTED_EDGE('',*,*,#342,.T.);
#469=ORIENTED_EDGE('',*,*,#346,.T.);
#470=ORIENTED_EDGE('',*,*,#295,.F.);
#471=ORIENTED_EDGE('',*,*,#344,.F.);
#472=ORIENTED_EDGE('',*,*,#329,.F.);
#473=ORIENTED_EDGE('',*,*,#347,.T.);
#474=ORIENTED_EDGE('',*,*,#336,.T.);
#475=ORIENTED_EDGE('',*,*,#348,.F.);
#476=ORIENTED_EDGE('',*,*,#328,.F.);
#477=ORIENTED_EDGE('',*,*,#349,.T.);
#478=ORIENTED_EDGE('',*,*,#337,.T.);
#479=ORIENTED_EDGE('',*,*,#347,.F.);
#480=ORIENTED_EDGE('',*,*,#331,.F.);
#481=ORIENTED_EDGE('',*,*,#350,.T.);
#482=ORIENTED_EDGE('',*,*,#338,.T.);
#483=ORIENTED_EDGE('',*,*,#349,.F.);
#484=ORIENTED_EDGE('',*,*,#330,.F.);
#485=ORIENTED_EDGE('',*,*,#348,.T.);
#486=ORIENTED_EDGE('',*,*,#339,.T.);
#487=ORIENTED_EDGE('',*,*,#350,.F.);
#488=ORIENTED_EDGE('',*,*,#341,.T.);
#489=ORIENTED_EDGE('',*,*,#351,.T.);
#490=ORIENTED_EDGE('',*,*,#296,.F.);
#491=ORIENTED_EDGE('',*,*,#346,.F.);
#492=ORIENTED_EDGE('',*,*,#340,.T.);
#493=ORIENTED_EDGE('',*,*,#345,.T.);
#494=ORIENTED_EDGE('',*,*,#293,.F.);
#495=ORIENTED_EDGE('',*,*,#351,.F.);
#496=ORIENTED_EDGE('',*,*,#326,.T.);
#497=ORIENTED_EDGE('',*,*,#289,.T.);
#498=ORIENTED_EDGE('',*,*,#292,.F.);
#499=ORIENTED_EDGE('',*,*,#299,.F.);
#500=ORIENTED_EDGE('',*,*,#332,.T.);
#501=ORIENTED_EDGE('',*,*,#334,.T.);
#502=PLANE('',#568);
#503=PLANE('',#571);
#504=PLANE('',#572);
#505=PLANE('',#573);
#506=PLANE('',#574);
#507=PLANE('',#575);
#508=PLANE('',#576);
#509=PLANE('',#579);
#510=PLANE('',#583);
#511=PLANE('',#584);
#512=PLANE('',#587);
#513=PLANE('',#591);
#514=PLANE('',#592);
#515=PLANE('',#597);
#516=PLANE('',#598);
#517=PLANE('',#599);
#518=PLANE('',#600);
#519=PLANE('',#601);
#520=PLANE('',#602);
#521=PLANE('',#603);
#522=PLANE('',#604);
#523=PLANE('',#605);
#524=PLANE('',#606);
#525=PLANE('',#607);
#526=ADVANCED_FACE('',(#30),#502,.T.);
#527=ADVANCED_FACE('',(#31),#503,.T.);
#528=ADVANCED_FACE('',(#32),#504,.T.);
#529=ADVANCED_FACE('',(#33,#23),#505,.T.);
#530=ADVANCED_FACE('',(#34),#506,.T.);
#531=ADVANCED_FACE('',(#35),#507,.F.);
#532=ADVANCED_FACE('',(#36,#24),#508,.T.);
#533=ADVANCED_FACE('',(#37),#509,.F.);
#534=ADVANCED_FACE('',(#38),#19,.F.);
#535=ADVANCED_FACE('',(#39),#510,.F.);
#536=ADVANCED_FACE('',(#40,#25),#511,.T.);
#537=ADVANCED_FACE('',(#41),#512,.F.);
#538=ADVANCED_FACE('',(#42),#20,.F.);
#539=ADVANCED_FACE('',(#43),#513,.T.);
#540=ADVANCED_FACE('',(#44,#26),#514,.T.);
#541=ADVANCED_FACE('',(#45),#21,.F.);
#542=ADVANCED_FACE('',(#46),#22,.F.);
#543=ADVANCED_FACE('',(#47),#515,.T.);
#544=ADVANCED_FACE('',(#48,#27),#516,.F.);
#545=ADVANCED_FACE('',(#49),#517,.T.);
#546=ADVANCED_FACE('',(#50),#518,.T.);
#547=ADVANCED_FACE('',(#51),#519,.F.);
#548=ADVANCED_FACE('',(#52),#520,.F.);
#549=ADVANCED_FACE('',(#53),#521,.F.);
#550=ADVANCED_FACE('',(#54),#522,.F.);
#551=ADVANCED_FACE('',(#55),#523,.T.);
#552=ADVANCED_FACE('',(#56),#524,.T.);
#553=ADVANCED_FACE('',(#57,#28,#29),#525,.T.);
#554=CLOSED_SHELL('',(#526,#527,#528,#529,#530,#531,#532,#533,#534,#535,
#536,#537,#538,#539,#540,#541,#542,#543,#544,#545,#546,#547,#548,#549,#550,
#551,#552,#553));
#555=DERIVED_UNIT_ELEMENT(#557,1.);
#556=DERIVED_UNIT_ELEMENT(#912,-3.);
#557=(
MASS_UNIT()
NAMED_UNIT(*)
SI_UNIT(.KILO.,.GRAM.)
);
#558=DERIVED_UNIT((#555,#556));
#559=MEASURE_REPRESENTATION_ITEM('density measure',
POSITIVE_RATIO_MEASURE(7850.),#558);
#560=PROPERTY_DEFINITION_REPRESENTATION(#565,#562);
#561=PROPERTY_DEFINITION_REPRESENTATION(#566,#563);
#562=REPRESENTATION('material name',(#564),#909);
#563=REPRESENTATION('density',(#559),#909);
#564=DESCRIPTIVE_REPRESENTATION_ITEM('Stahl','Stahl');
#565=PROPERTY_DEFINITION('material property','material name',#919);
#566=PROPERTY_DEFINITION('material property','density of part',#919);
#567=AXIS2_PLACEMENT_3D('',#753,#608,#609);
#568=AXIS2_PLACEMENT_3D('',#754,#610,#611);
#569=AXIS2_PLACEMENT_3D('',#763,#615,#616);
#570=AXIS2_PLACEMENT_3D('',#767,#618,#619);
#571=AXIS2_PLACEMENT_3D('',#771,#622,#623);
#572=AXIS2_PLACEMENT_3D('',#777,#627,#628);
#573=AXIS2_PLACEMENT_3D('',#783,#632,#633);
#574=AXIS2_PLACEMENT_3D('',#795,#640,#641);
#575=AXIS2_PLACEMENT_3D('',#801,#645,#646);
#576=AXIS2_PLACEMENT_3D('',#808,#650,#651);
#577=AXIS2_PLACEMENT_3D('',#813,#654,#655);
#578=AXIS2_PLACEMENT_3D('',#815,#656,#657);
#579=AXIS2_PLACEMENT_3D('',#816,#658,#659);
#580=AXIS2_PLACEMENT_3D('',#820,#662,#663);
#581=AXIS2_PLACEMENT_3D('',#823,#665,#666);
#582=AXIS2_PLACEMENT_3D('',#825,#667,#668);
#583=AXIS2_PLACEMENT_3D('',#827,#670,#671);
#584=AXIS2_PLACEMENT_3D('',#834,#675,#676);
#585=AXIS2_PLACEMENT_3D('',#839,#679,#680);
#586=AXIS2_PLACEMENT_3D('',#841,#681,#682);
#587=AXIS2_PLACEMENT_3D('',#842,#683,#684);
#588=AXIS2_PLACEMENT_3D('',#846,#687,#688);
#589=AXIS2_PLACEMENT_3D('',#847,#689,#690);
#590=AXIS2_PLACEMENT_3D('',#849,#691,#692);
#591=AXIS2_PLACEMENT_3D('',#851,#694,#695);
#592=AXIS2_PLACEMENT_3D('',#853,#697,#698);
#593=AXIS2_PLACEMENT_3D('',#864,#705,#706);
#594=AXIS2_PLACEMENT_3D('',#866,#707,#708);
#595=AXIS2_PLACEMENT_3D('',#868,#710,#711);
#596=AXIS2_PLACEMENT_3D('',#870,#712,#713);
#597=AXIS2_PLACEMENT_3D('',#872,#715,#716);
#598=AXIS2_PLACEMENT_3D('',#873,#717,#718);
#599=AXIS2_PLACEMENT_3D('',#890,#727,#728);
#600=AXIS2_PLACEMENT_3D('',#893,#731,#732);
#601=AXIS2_PLACEMENT_3D('',#895,#734,#735);
#602=AXIS2_PLACEMENT_3D('',#898,#738,#739);
#603=AXIS2_PLACEMENT_3D('',#900,#741,#742);
#604=AXIS2_PLACEMENT_3D('',#902,#744,#745);
#605=AXIS2_PLACEMENT_3D('',#903,#746,#747);
#606=AXIS2_PLACEMENT_3D('',#905,#749,#750);
#607=AXIS2_PLACEMENT_3D('',#906,#751,#752);
#608=DIRECTION('axis',(0.,0.,1.));
#609=DIRECTION('refdir',(1.,0.,0.));
#610=DIRECTION('center_axis',(1.,0.,0.));
#611=DIRECTION('ref_axis',(0.,0.,-1.));
#612=DIRECTION('',(0.,1.,0.));
#613=DIRECTION('',(0.,0.,1.));
#614=DIRECTION('',(0.,-1.,-9.96710366665006E-32));
#615=DIRECTION('center_axis',(1.,0.,0.));
#616=DIRECTION('ref_axis',(0.,1.,0.));
#617=DIRECTION('',(0.,-1.,-9.96710366665006E-32));
#618=DIRECTION('center_axis',(1.,0.,0.));
#619=DIRECTION('ref_axis',(0.,1.,0.));
#620=DIRECTION('',(0.,-1.,-9.96710366665006E-32));
#621=DIRECTION('',(0.,0.,-1.));
#622=DIRECTION('center_axis',(0.,9.96710366665006E-32,-1.));
#623=DIRECTION('ref_axis',(0.,1.,9.96710366665006E-32));
#624=DIRECTION('',(1.,0.,0.));
#625=DIRECTION('',(0.,-1.,-9.96710366665006E-32));
#626=DIRECTION('',(1.,0.,0.));
#627=DIRECTION('center_axis',(0.,-1.,0.));
#628=DIRECTION('ref_axis',(1.,0.,0.));
#629=DIRECTION('',(-1.,0.,0.));
#630=DIRECTION('',(0.,0.,1.));
#631=DIRECTION('',(0.978980419737605,0.,0.203954254112001));
#632=DIRECTION('center_axis',(0.,0.,1.));
#633=DIRECTION('ref_axis',(1.,0.,0.));
#634=DIRECTION('',(1.,0.,0.));
#635=DIRECTION('',(0.,-1.,0.));
#636=DIRECTION('',(0.,-1.,0.));
#637=DIRECTION('',(-1.,0.,0.));
#638=DIRECTION('',(0.,1.,0.));
#639=DIRECTION('',(1.,0.,0.));
#640=DIRECTION('center_axis',(0.,1.,0.));
#641=DIRECTION('ref_axis',(-1.,0.,0.));
#642=DIRECTION('',(-1.,0.,0.));
#643=DIRECTION('',(-0.978980419737605,0.,-0.203954254112001));
#644=DIRECTION('',(0.,0.,1.));
#645=DIRECTION('center_axis',(0.,-1.,0.));
#646=DIRECTION('ref_axis',(0.,0.,1.));
#647=DIRECTION('',(0.978980419737605,0.,0.203954254112001));
#648=DIRECTION('',(0.,0.,1.));
#649=DIRECTION('',(-1.,0.,0.));
#650=DIRECTION('center_axis',(1.,0.,0.));
#651=DIRECTION('ref_axis',(0.,1.,0.));
#652=DIRECTION('',(0.,1.,9.96710366665006E-32));
#653=DIRECTION('',(0.,0.,-1.));
#654=DIRECTION('center_axis',(-1.,0.,0.));
#655=DIRECTION('ref_axis',(0.,1.,0.));
#656=DIRECTION('center_axis',(1.,0.,0.));
#657=DIRECTION('ref_axis',(0.,1.,0.));
#658=DIRECTION('center_axis',(0.,1.,0.));
#659=DIRECTION('ref_axis',(0.,0.,-1.));
#660=DIRECTION('',(-0.978980419737605,0.,-0.203954254112001));
#661=DIRECTION('',(-1.,0.,0.));
#662=DIRECTION('center_axis',(-1.,0.,0.));
#663=DIRECTION('ref_axis',(0.,1.,0.));
#664=DIRECTION('',(1.,0.,0.));
#665=DIRECTION('center_axis',(-0.203954254112001,-9.7575993311453E-32,0.978980419737605));
#666=DIRECTION('ref_axis',(-0.978980419737605,2.73691106313441E-48,-0.203954254112001));
#667=DIRECTION('center_axis',(-0.203954254112001,-9.7575993311453E-32,0.978980419737605));
#668=DIRECTION('ref_axis',(-0.978980419737605,2.73691106313441E-48,-0.203954254112001));
#669=DIRECTION('',(-1.,0.,0.));
#670=DIRECTION('center_axis',(0.,-1.,0.));
#671=DIRECTION('ref_axis',(0.,0.,1.));
#672=DIRECTION('',(0.978980419737605,0.,0.203954254112001));
#673=DIRECTION('',(0.,0.,1.));
#674=DIRECTION('',(-1.,0.,0.));
#675=DIRECTION('center_axis',(1.,0.,0.));
#676=DIRECTION('ref_axis',(0.,1.,0.));
#677=DIRECTION('',(0.,1.,9.96710366665006E-32));
#678=DIRECTION('',(0.,0.,-1.));
#679=DIRECTION('center_axis',(-1.,0.,0.));
#680=DIRECTION('ref_axis',(0.,1.,0.));
#681=DIRECTION('center_axis',(1.,0.,0.));
#682=DIRECTION('ref_axis',(0.,1.,0.));
#683=DIRECTION('center_axis',(0.,1.,0.));
#684=DIRECTION('ref_axis',(0.,0.,-1.));
#685=DIRECTION('',(-0.978980419737605,0.,-0.203954254112001));
#686=DIRECTION('',(-1.,0.,0.));
#687=DIRECTION('center_axis',(-1.,0.,0.));
#688=DIRECTION('ref_axis',(0.,1.,0.));
#689=DIRECTION('center_axis',(-0.203954254112001,-9.7575993311453E-32,0.978980419737605));
#690=DIRECTION('ref_axis',(-0.978980419737605,2.73691106313441E-48,-0.203954254112001));
#691=DIRECTION('center_axis',(-0.203954254112001,-9.7575993311453E-32,0.978980419737605));
#692=DIRECTION('ref_axis',(-0.978980419737605,2.73691106313441E-48,-0.203954254112001));
#693=DIRECTION('',(-1.,0.,0.));
#694=DIRECTION('center_axis',(0.,9.96710366665006E-32,-1.));
#695=DIRECTION('ref_axis',(0.,1.,9.96710366665006E-32));
#696=DIRECTION('',(0.,-1.,-9.96710366665006E-32));
#697=DIRECTION('center_axis',(0.203954254112001,9.7575993311453E-32,-0.978980419737605));
#698=DIRECTION('ref_axis',(-0.978980419737605,2.73691106313441E-48,-0.203954254112001));
#699=DIRECTION('',(0.,-1.,0.));
#700=DIRECTION('',(0.,-1.,-9.96710366665006E-32));
#701=DIRECTION('',(0.,1.,9.96710366665006E-32));
#702=DIRECTION('',(-0.978980419737605,0.,-0.203954254112001));
#703=DIRECTION('',(0.,-1.,-9.96710366665006E-32));
#704=DIRECTION('',(0.978980419737605,0.,0.203954254112001));
#705=DIRECTION('center_axis',(1.,0.,0.));
#706=DIRECTION('ref_axis',(0.,1.,0.));
#707=DIRECTION('center_axis',(1.,0.,0.));
#708=DIRECTION('ref_axis',(0.,1.,0.));
#709=DIRECTION('',(1.,0.,0.));
#710=DIRECTION('center_axis',(1.,0.,0.));
#711=DIRECTION('ref_axis',(0.,1.,0.));
#712=DIRECTION('center_axis',(1.,0.,0.));
#713=DIRECTION('ref_axis',(0.,1.,0.));
#714=DIRECTION('',(1.,0.,0.));
#715=DIRECTION('center_axis',(0.,9.96710366665006E-32,-1.));
#716=DIRECTION('ref_axis',(0.,1.,9.96710366665006E-32));
#717=DIRECTION('center_axis',(0.,0.,1.));
#718=DIRECTION('ref_axis',(1.,0.,0.));
#719=DIRECTION('',(-1.,0.,-7.91805566108456E-30));
#720=DIRECTION('',(0.,1.,5.75858593533423E-30));
#721=DIRECTION('',(1.,0.,0.));
#722=DIRECTION('',(0.,-1.,0.));
#723=DIRECTION('',(0.,-1.,0.));
#724=DIRECTION('',(1.,0.,0.));
#725=DIRECTION('',(0.,1.,0.));
#726=DIRECTION('',(-1.,0.,0.));
#727=DIRECTION('center_axis',(0.,1.,0.));
#728=DIRECTION('ref_axis',(-1.,0.,0.));
#729=DIRECTION('',(0.,0.,1.));
#730=DIRECTION('',(0.,0.,1.));
#731=DIRECTION('center_axis',(1.,0.,0.));
#732=DIRECTION('ref_axis',(0.,1.,0.));
#733=DIRECTION('',(0.,0.,1.));
#734=DIRECTION('center_axis',(0.,1.,0.));
#735=DIRECTION('ref_axis',(-1.,0.,-7.91805566108456E-30));
#736=DIRECTION('',(0.,0.,1.));
#737=DIRECTION('',(0.,0.,1.));
#738=DIRECTION('center_axis',(1.,0.,0.));
#739=DIRECTION('ref_axis',(0.,1.,5.75858593533423E-30));
#740=DIRECTION('',(0.,0.,1.));
#741=DIRECTION('center_axis',(0.,-1.,0.));
#742=DIRECTION('ref_axis',(1.,0.,0.));
#743=DIRECTION('',(0.,0.,1.));
#744=DIRECTION('center_axis',(-1.,0.,0.));
#745=DIRECTION('ref_axis',(0.,-1.,0.));
#746=DIRECTION('center_axis',(0.,-1.,0.));
#747=DIRECTION('ref_axis',(1.,0.,0.));
#748=DIRECTION('',(0.,0.,1.));
#749=DIRECTION('center_axis',(-1.,0.,0.));
#750=DIRECTION('ref_axis',(0.,-1.,0.));
#751=DIRECTION('center_axis',(-1.,0.,0.));
#752=DIRECTION('ref_axis',(0.,-1.,0.));
#753=CARTESIAN_POINT('',(0.,0.,0.));
#754=CARTESIAN_POINT('Origin',(220.1,34.1000000000001,-14.9999999999995));
#755=CARTESIAN_POINT('',(220.1,38.0995158289252,5.30686605770825E-13));
#756=CARTESIAN_POINT('',(220.1,94.1008114616432,5.30686605770825E-13));
#757=CARTESIAN_POINT('',(220.1,50.1000000000001,5.3179682879545E-13));
#758=CARTESIAN_POINT('',(220.1,38.0995158289252,-9.99999999999947));
#759=CARTESIAN_POINT('',(220.1,38.0995158289252,-14.9688827452296));
#760=CARTESIAN_POINT('',(220.1,40.249849957726,-9.99999999999947));
#761=CARTESIAN_POINT('',(220.1,34.1000000000001,-9.99999999999947));
#762=CARTESIAN_POINT('',(220.1,45.9491817001244,-9.99999999999947));
#763=CARTESIAN_POINT('Origin',(220.1,43.0995158289252,-10.937765654373));
#764=CARTESIAN_POINT('',(220.1,86.3021734543851,-9.99999999999947));
#765=CARTESIAN_POINT('',(220.1,34.1000000000001,-9.99999999999947));
#766=CARTESIAN_POINT('',(220.1,91.8994494689012,-9.99999999999947));
#767=CARTESIAN_POINT('Origin',(220.1,89.1008114616431,-11.0805671216216));
#768=CARTESIAN_POINT('',(220.1,94.1008114616432,-9.99999999999947));
#769=CARTESIAN_POINT('',(220.1,34.1000000000001,-9.99999999999947));
#770=CARTESIAN_POINT('',(220.1,94.1008114616432,-15.0402834788539));
#771=CARTESIAN_POINT('Origin',(217.5,34.1000000000001,-9.99999999999947));
#772=CARTESIAN_POINT('',(217.5,38.0995158289252,-9.99999999999947));
#773=CARTESIAN_POINT('',(205.5,38.0995158289252,-9.99999999999947));
#774=CARTESIAN_POINT('',(217.5,40.249849957726,-9.99999999999947));
#775=CARTESIAN_POINT('',(217.5,50.1000000000001,-9.99999999999947));
#776=CARTESIAN_POINT('',(222.1,40.249849957726,-9.99999999999947));
#777=CARTESIAN_POINT('Origin',(193.5,38.0995158289252,-14.9377654904597));
#778=CARTESIAN_POINT('',(193.5,38.0995158289252,5.3179682879545E-13));
#779=CARTESIAN_POINT('',(199.5,38.0995158289252,5.3179682879545E-13));
#780=CARTESIAN_POINT('',(193.5,38.0995158289252,-14.9999999999995));
#781=CARTESIAN_POINT('',(193.5,38.0995158289252,-14.9377654904597));
#782=CARTESIAN_POINT('',(199.506213095794,38.0995158289252,-13.7487056050423));
#783=CARTESIAN_POINT('Origin',(205.5,66.1000000000001,5.3179682879545E-13));
#784=CARTESIAN_POINT('',(193.5,94.1008114616432,5.3179682879545E-13));
#785=CARTESIAN_POINT('',(211.5,94.1008114616432,5.3179682879545E-13));
#786=CARTESIAN_POINT('',(193.5,98.1000000000001,5.3179682879545E-13));
#787=CARTESIAN_POINT('',(212.1,75.6000000000001,5.3179682879545E-13));
#788=CARTESIAN_POINT('',(212.1,56.6000000000001,5.3179682879545E-13));
#789=CARTESIAN_POINT('',(212.1,75.6000000000001,5.3179682879545E-13));
#790=CARTESIAN_POINT('',(198.9,56.6000000000001,5.3179682879545E-13));
#791=CARTESIAN_POINT('',(212.1,56.6000000000001,5.3179682879545E-13));
#792=CARTESIAN_POINT('',(198.9,75.6000000000001,5.3179682879545E-13));
#793=CARTESIAN_POINT('',(198.9,56.6000000000001,5.3179682879545E-13));
#794=CARTESIAN_POINT('',(198.9,75.6000000000001,5.3179682879545E-13));
#795=CARTESIAN_POINT('Origin',(217.5,94.1008114616432,-15.0805669577083));
#796=CARTESIAN_POINT('',(217.5,94.1008114616432,-9.99999999999947));
#797=CARTESIAN_POINT('',(217.5,94.1008114616432,-9.99999999999947));
#798=CARTESIAN_POINT('',(193.5,94.1008114616432,-14.9999999999995));
#799=CARTESIAN_POINT('',(210.992788656468,94.1008114616432,-11.3556690299019));
#800=CARTESIAN_POINT('',(193.5,94.1008114616432,-15.0805669577083));
#801=CARTESIAN_POINT('Origin',(222.1,86.1008114616431,-15.0805671216216));
#802=CARTESIAN_POINT('',(195.5,86.1008114616431,-14.5833333333328));
#803=CARTESIAN_POINT('',(212.313277816214,86.1008114616431,-11.0805671216216));
#804=CARTESIAN_POINT('',(213.197114763232,86.1008114616431,-10.8964344243261));
#805=CARTESIAN_POINT('',(195.5,86.1008114616431,-11.0805671216216));
#806=CARTESIAN_POINT('',(195.5,86.1008114616431,-11.0805671216216));
#807=CARTESIAN_POINT('',(222.1,86.1008114616431,-11.0805671216216));
#808=CARTESIAN_POINT('Origin',(195.5,89.1008114616431,-13.0805671216216));
#809=CARTESIAN_POINT('',(195.5,92.1008114616431,-14.5833333333328));
#810=CARTESIAN_POINT('',(195.5,69.6004057308216,-14.5833333333328));
#811=CARTESIAN_POINT('',(195.5,92.1008114616431,-11.0805671216216));
#812=CARTESIAN_POINT('',(195.5,92.1008114616431,-15.0805671216216));
#813=CARTESIAN_POINT('Origin',(195.5,89.1008114616431,-11.0805671216216));
#814=CARTESIAN_POINT('',(195.5,87.5008114616432,-11.0805671216216));
#815=CARTESIAN_POINT('Origin',(195.5,89.1008114616432,-11.0805671216216));
#816=CARTESIAN_POINT('Origin',(222.1,92.1008114616431,-11.0805671216216));
#817=CARTESIAN_POINT('',(212.313277816214,92.1008114616431,-11.0805671216216));
#818=CARTESIAN_POINT('',(213.596449205828,92.1008114616431,-10.8132397487853));
#819=CARTESIAN_POINT('',(222.1,92.1008114616431,-11.0805671216216));
#820=CARTESIAN_POINT('Origin',(222.1,89.1008114616431,-11.0805671216216));
#821=CARTESIAN_POINT('',(217.5,86.3021734543851,-9.99999999999947));
#822=CARTESIAN_POINT('',(222.1,86.3021734543851,-9.99999999999947));
#823=CARTESIAN_POINT('Origin',(212.313277816214,89.1008114616431,-11.0805671216216));
#824=CARTESIAN_POINT('',(217.5,91.8994494689012,-9.99999999999947));
#825=CARTESIAN_POINT('Origin',(212.313277816214,89.1008114616431,-11.0805671216216));
#826=CARTESIAN_POINT('',(222.1,91.8994494689012,-9.99999999999947));
#827=CARTESIAN_POINT('Origin',(222.1,40.0995158289252,-14.937765654373));
#828=CARTESIAN_POINT('',(195.5,40.0995158289252,-14.5833333333328));
#829=CARTESIAN_POINT('',(212.998724859007,40.0995158289252,-10.937765654373));
#830=CARTESIAN_POINT('',(213.211371149314,40.0995158289252,-10.8934643438924));
#831=CARTESIAN_POINT('',(195.5,40.0995158289252,-10.937765654373));
#832=CARTESIAN_POINT('',(195.5,40.0995158289252,-10.937765654373));
#833=CARTESIAN_POINT('',(222.1,40.0995158289252,-10.937765654373));
#834=CARTESIAN_POINT('Origin',(195.5,43.0995158289252,-12.937765654373));
#835=CARTESIAN_POINT('',(195.5,46.0995158289252,-14.5833333333328));
#836=CARTESIAN_POINT('',(195.5,46.5997579144626,-14.5833333333328));
#837=CARTESIAN_POINT('',(195.5,46.0995158289252,-10.937765654373));
#838=CARTESIAN_POINT('',(195.5,46.0995158289252,-14.937765654373));
#839=CARTESIAN_POINT('Origin',(195.5,43.0995158289252,-10.937765654373));
#840=CARTESIAN_POINT('',(195.5,41.4995158289252,-10.937765654373));
#841=CARTESIAN_POINT('Origin',(195.5,43.0995158289252,-10.937765654373));
#842=CARTESIAN_POINT('Origin',(222.1,46.0995158289252,-10.937765654373));
#843=CARTESIAN_POINT('',(212.998724859007,46.0995158289252,-10.937765654373));
#844=CARTESIAN_POINT('',(213.610705591909,46.0995158289252,-10.8102696683517));
#845=CARTESIAN_POINT('',(222.1,46.0995158289252,-10.937765654373));
#846=CARTESIAN_POINT('Origin',(222.1,43.0995158289252,-10.937765654373));
#847=CARTESIAN_POINT('Origin',(212.998724859007,43.0995158289252,-10.937765654373));
#848=CARTESIAN_POINT('',(217.5,45.9491817001244,-9.99999999999947));
#849=CARTESIAN_POINT('Origin',(212.998724859007,43.0995158289252,-10.937765654373));
#850=CARTESIAN_POINT('',(222.1,45.9491817001244,-9.99999999999947));
#851=CARTESIAN_POINT('Origin',(217.5,34.1000000000001,-9.99999999999947));
#852=CARTESIAN_POINT('',(217.5,50.1000000000001,-9.99999999999947));
#853=CARTESIAN_POINT('Origin',(205.5,50.1000000000001,-12.4999999999995));
#854=CARTESIAN_POINT('',(193.5,98.1000000000001,-14.9999999999995));
#855=CARTESIAN_POINT('',(217.5,50.1000000000001,-9.99999999999947));
#856=CARTESIAN_POINT('',(213.5,55.1000000000001,-10.8333333333328));
#857=CARTESIAN_POINT('',(213.5,77.1000000000001,-10.8333333333328));
#858=CARTESIAN_POINT('',(213.5,52.6000000000001,-10.8333333333328));
#859=CARTESIAN_POINT('',(197.5,77.1000000000001,-14.1666666666661));
#860=CARTESIAN_POINT('',(209.084026622296,77.1000000000001,-11.7533277870211));
#861=CARTESIAN_POINT('',(197.5,55.1000000000001,-14.1666666666661));
#862=CARTESIAN_POINT('',(197.5,63.6000000000001,-14.1666666666661));
#863=CARTESIAN_POINT('',(201.416805324459,55.1000000000001,-13.3506655574038));
#864=CARTESIAN_POINT('Origin',(193.5,43.0995158289252,-10.937765654373));
#865=CARTESIAN_POINT('',(193.5,41.4995158289252,-10.937765654373));
#866=CARTESIAN_POINT('Origin',(193.5,43.0995158289252,-10.937765654373));
#867=CARTESIAN_POINT('',(193.5,41.4995158289252,-10.937765654373));
#868=CARTESIAN_POINT('Origin',(193.5,89.1008114616432,-11.0805671216216));
#869=CARTESIAN_POINT('',(193.5,87.5008114616432,-11.0805671216216));
#870=CARTESIAN_POINT('Origin',(193.5,89.1008114616432,-11.0805671216216));
#871=CARTESIAN_POINT('',(193.5,87.5008114616432,-11.0805671216216));
#872=CARTESIAN_POINT('Origin',(217.5,34.1000000000001,-9.99999999999947));
#873=CARTESIAN_POINT('Origin',(205.5,66.1000000000001,-2.99999999999947));
#874=CARTESIAN_POINT('',(213.5,77.1000000000001,-2.99999999999947));
#875=CARTESIAN_POINT('',(197.5,77.1000000000001,-2.99999999999947));
#876=CARTESIAN_POINT('',(213.5,77.1000000000001,-2.99999999999947));
#877=CARTESIAN_POINT('',(213.5,55.1000000000001,-2.99999999999947));
#878=CARTESIAN_POINT('',(213.5,55.1000000000001,-2.99999999999947));
#879=CARTESIAN_POINT('',(197.5,55.1000000000001,-2.99999999999947));
#880=CARTESIAN_POINT('',(197.5,55.1000000000001,-2.99999999999947));
#881=CARTESIAN_POINT('',(197.5,77.1000000000001,-2.99999999999947));
#882=CARTESIAN_POINT('',(212.1,75.6000000000001,-2.99999999999947));
#883=CARTESIAN_POINT('',(212.1,56.6000000000001,-2.99999999999947));
#884=CARTESIAN_POINT('',(212.1,70.8500000000001,-2.99999999999947));
#885=CARTESIAN_POINT('',(198.9,75.6000000000001,-2.99999999999947));
#886=CARTESIAN_POINT('',(202.2,75.6000000000001,-2.99999999999947));
#887=CARTESIAN_POINT('',(198.9,56.6000000000001,-2.99999999999947));
#888=CARTESIAN_POINT('',(198.9,61.3500000000001,-2.99999999999947));
#889=CARTESIAN_POINT('',(208.8,56.6000000000001,-2.99999999999947));
#890=CARTESIAN_POINT('Origin',(212.1,56.6000000000001,-14.9999999999995));
#891=CARTESIAN_POINT('',(198.9,56.6000000000001,-14.9999999999995));
#892=CARTESIAN_POINT('',(212.1,56.6000000000001,-14.9999999999995));
#893=CARTESIAN_POINT('Origin',(198.9,56.6000000000001,-14.9999999999995));
#894=CARTESIAN_POINT('',(198.9,75.6000000000001,-14.9999999999995));
#895=CARTESIAN_POINT('Origin',(213.5,77.1000000000001,-14.9999999999995));
#896=CARTESIAN_POINT('',(213.5,77.1000000000001,-14.9999999999995));
#897=CARTESIAN_POINT('',(197.5,77.1000000000001,-14.9999999999995));
#898=CARTESIAN_POINT('Origin',(213.5,55.1000000000001,-14.9999999999995));
#899=CARTESIAN_POINT('',(213.5,55.1000000000001,-14.9999999999995));
#900=CARTESIAN_POINT('Origin',(197.5,55.1000000000001,-14.9999999999995));
#901=CARTESIAN_POINT('',(197.5,55.1000000000001,-14.9999999999995));
#902=CARTESIAN_POINT('Origin',(197.5,77.1000000000001,-14.9999999999995));
#903=CARTESIAN_POINT('Origin',(198.9,75.6000000000001,-14.9999999999995));
#904=CARTESIAN_POINT('',(212.1,75.6000000000001,-14.9999999999995));
#905=CARTESIAN_POINT('Origin',(212.1,75.6000000000001,-14.9999999999995));
#906=CARTESIAN_POINT('Origin',(193.5,98.1000000000001,-14.9999999999995));
#907=UNCERTAINTY_MEASURE_WITH_UNIT(LENGTH_MEASURE(0.01),#911,
'DISTANCE_ACCURACY_VALUE',
'Maximum model space distance between geometric entities at asserted c
onnectivities');
#908=UNCERTAINTY_MEASURE_WITH_UNIT(LENGTH_MEASURE(0.01),#911,
'DISTANCE_ACCURACY_VALUE',
'Maximum model space distance between geometric entities at asserted c
onnectivities');
#909=(
GEOMETRIC_REPRESENTATION_CONTEXT(3)
GLOBAL_UNCERTAINTY_ASSIGNED_CONTEXT((#907))
GLOBAL_UNIT_ASSIGNED_CONTEXT((#911,#913,#914))
REPRESENTATION_CONTEXT('','3D')
);
#910=(
GEOMETRIC_REPRESENTATION_CONTEXT(3)
GLOBAL_UNCERTAINTY_ASSIGNED_CONTEXT((#908))
GLOBAL_UNIT_ASSIGNED_CONTEXT((#911,#913,#914))
REPRESENTATION_CONTEXT('','3D')
);
#911=(
LENGTH_UNIT()
NAMED_UNIT(*)
SI_UNIT(.MILLI.,.METRE.)
);
#912=(
LENGTH_UNIT()
NAMED_UNIT(*)
SI_UNIT($,.METRE.)
);
#913=(
NAMED_UNIT(*)
PLANE_ANGLE_UNIT()
SI_UNIT($,.RADIAN.)
);
#914=(
NAMED_UNIT(*)
SI_UNIT($,.STERADIAN.)
SOLID_ANGLE_UNIT()
);
#915=SHAPE_DEFINITION_REPRESENTATION(#916,#917);
#916=PRODUCT_DEFINITION_SHAPE('',$,#919);
#917=SHAPE_REPRESENTATION('',(#567),#909);
#918=PRODUCT_DEFINITION_CONTEXT('part definition',#923,'design');
#919=PRODUCT_DEFINITION('Rear bumper','Rear bumper',#920,#918);
#920=PRODUCT_DEFINITION_FORMATION('',$,#925);
#921=PRODUCT_RELATED_PRODUCT_CATEGORY('Rear bumper','Rear bumper',(#925));
#922=APPLICATION_PROTOCOL_DEFINITION('international standard',
'automotive_design',2009,#923);
#923=APPLICATION_CONTEXT(
'Core Data for Automotive Mechanical Design Process');
#924=PRODUCT_CONTEXT('part definition',#923,'mechanical');
#925=PRODUCT('Rear bumper','Rear bumper',$,(#924));
#926=PRESENTATION_STYLE_ASSIGNMENT((#927));
#927=SURFACE_STYLE_USAGE(.BOTH.,#928);
#928=SURFACE_SIDE_STYLE('',(#929));
#929=SURFACE_STYLE_FILL_AREA(#930);
#930=FILL_AREA_STYLE('Stahl - satiniert',(#931));
#931=FILL_AREA_STYLE_COLOUR('Stahl - satiniert',#932);
#932=COLOUR_RGB('Stahl - satiniert',0.627450980392157,0.627450980392157,
0.627450980392157);
ENDSEC;
END-ISO-10303-21;
