ISO-10303-21;
HEADER;
/* Generated by software containing ST-Developer
 * from STEP Tools, Inc. (www.steptools.com) 
 */

FILE_DESCRIPTION(
/* description */ (''),
/* implementation_level */ '2;1');

FILE_NAME(
/* name */ 'Rear window.step',
/* time_stamp */ '2026-04-11T13:50:25+02:00',
/* author */ (''),
/* organization */ (''),
/* preprocessor_version */ 'ST-DEVELOPER v20.1',
/* originating_system */ 'Autodesk Translation Framework v14.24.0.0',
/* authorisation */ '');

FILE_SCHEMA (('AUTOMOTIVE_DESIGN { 1 0 10303 214 3 1 1 }'));
ENDSEC;

DATA;
#10=MECHANICAL_DESIGN_GEOMETRIC_PRESENTATION_REPRESENTATION('',(#13),#1671);
#11=SHAPE_REPRESENTATION_RELATIONSHIP('SRR','None',#1678,#12);
#12=ADVANCED_BREP_SHAPE_REPRESENTATION('',(#14),#1670);
#13=STYLED_ITEM('',(#1688),#14);
#14=MANIFOLD_SOLID_BREP('Rear window',#983);
#15=CYLINDRICAL_SURFACE('',#1013,1.6);
#16=CYLINDRICAL_SURFACE('',#1018,4.);
#17=CYLINDRICAL_SURFACE('',#1021,1.6);
#18=CYLINDRICAL_SURFACE('',#1050,1.6);
#19=CYLINDRICAL_SURFACE('',#1055,4.);
#20=CYLINDRICAL_SURFACE('',#1057,1.6);
#21=CYLINDRICAL_SURFACE('',#1064,0.9);
#22=CYLINDRICAL_SURFACE('',#1066,2.8);
#23=CYLINDRICAL_SURFACE('',#1068,4.9);
#24=CYLINDRICAL_SURFACE('',#1072,1.9);
#25=CYLINDRICAL_SURFACE('',#1077,0.9);
#26=CYLINDRICAL_SURFACE('',#1081,2.8);
#27=CYLINDRICAL_SURFACE('',#1083,4.9);
#28=CYLINDRICAL_SURFACE('',#1089,1.9);
#29=FACE_BOUND('',#133,.T.);
#30=FACE_BOUND('',#139,.T.);
#31=FACE_BOUND('',#145,.T.);
#32=FACE_BOUND('',#147,.T.);
#33=FACE_BOUND('',#148,.T.);
#34=FACE_BOUND('',#156,.T.);
#35=FACE_BOUND('',#162,.T.);
#36=FACE_BOUND('',#168,.T.);
#37=FACE_BOUND('',#183,.T.);
#38=CIRCLE('',#1001,1.6);
#39=CIRCLE('',#1002,1.6);
#40=CIRCLE('',#1003,4.);
#41=CIRCLE('',#1008,1.6);
#42=CIRCLE('',#1011,4.);
#43=CIRCLE('',#1012,1.6);
#44=CIRCLE('',#1014,1.6);
#45=CIRCLE('',#1019,4.);
#46=CIRCLE('',#1020,4.);
#47=CIRCLE('',#1022,1.6);
#48=CIRCLE('',#1028,0.9);
#49=CIRCLE('',#1029,2.8);
#50=CIRCLE('',#1030,2.8);
#51=CIRCLE('',#1031,0.9);
#52=CIRCLE('',#1032,4.);
#53=CIRCLE('',#1038,1.6);
#54=CIRCLE('',#1039,1.6);
#55=CIRCLE('',#1040,4.);
#56=CIRCLE('',#1045,1.6);
#57=CIRCLE('',#1048,4.);
#58=CIRCLE('',#1049,1.6);
#59=CIRCLE('',#1051,1.6);
#60=CIRCLE('',#1056,4.);
#61=CIRCLE('',#1058,1.6);
#62=CIRCLE('',#1065,0.9);
#63=CIRCLE('',#1067,2.8);
#64=CIRCLE('',#1069,4.9);
#65=CIRCLE('',#1070,4.9);
#66=CIRCLE('',#1073,1.9);
#67=CIRCLE('',#1074,1.9);
#68=CIRCLE('',#1078,0.9);
#69=CIRCLE('',#1082,2.8);
#70=CIRCLE('',#1084,4.9);
#71=CIRCLE('',#1085,4.9);
#72=CIRCLE('',#1087,1.9);
#73=CIRCLE('',#1090,1.9);
#74=FACE_OUTER_BOUND('',#127,.T.);
#75=FACE_OUTER_BOUND('',#128,.T.);
#76=FACE_OUTER_BOUND('',#129,.T.);
#77=FACE_OUTER_BOUND('',#130,.T.);
#78=FACE_OUTER_BOUND('',#131,.T.);
#79=FACE_OUTER_BOUND('',#132,.T.);
#80=FACE_OUTER_BOUND('',#134,.T.);
#81=FACE_OUTER_BOUND('',#135,.T.);
#82=FACE_OUTER_BOUND('',#136,.T.);
#83=FACE_OUTER_BOUND('',#137,.T.);
#84=FACE_OUTER_BOUND('',#138,.T.);
#85=FACE_OUTER_BOUND('',#140,.T.);
#86=FACE_OUTER_BOUND('',#141,.T.);
#87=FACE_OUTER_BOUND('',#142,.T.);
#88=FACE_OUTER_BOUND('',#143,.T.);
#89=FACE_OUTER_BOUND('',#144,.T.);
#90=FACE_OUTER_BOUND('',#146,.T.);
#91=FACE_OUTER_BOUND('',#149,.T.);
#92=FACE_OUTER_BOUND('',#150,.T.);
#93=FACE_OUTER_BOUND('',#151,.T.);
#94=FACE_OUTER_BOUND('',#152,.T.);
#95=FACE_OUTER_BOUND('',#153,.T.);
#96=FACE_OUTER_BOUND('',#154,.T.);
#97=FACE_OUTER_BOUND('',#155,.T.);
#98=FACE_OUTER_BOUND('',#157,.T.);
#99=FACE_OUTER_BOUND('',#158,.T.);
#100=FACE_OUTER_BOUND('',#159,.T.);
#101=FACE_OUTER_BOUND('',#160,.T.);
#102=FACE_OUTER_BOUND('',#161,.T.);
#103=FACE_OUTER_BOUND('',#163,.T.);
#104=FACE_OUTER_BOUND('',#164,.T.);
#105=FACE_OUTER_BOUND('',#165,.T.);
#106=FACE_OUTER_BOUND('',#166,.T.);
#107=FACE_OUTER_BOUND('',#167,.T.);
#108=FACE_OUTER_BOUND('',#169,.T.);
#109=FACE_OUTER_BOUND('',#170,.T.);
#110=FACE_OUTER_BOUND('',#171,.T.);
#111=FACE_OUTER_BOUND('',#172,.T.);
#112=FACE_OUTER_BOUND('',#173,.T.);
#113=FACE_OUTER_BOUND('',#174,.T.);
#114=FACE_OUTER_BOUND('',#175,.T.);
#115=FACE_OUTER_BOUND('',#176,.T.);
#116=FACE_OUTER_BOUND('',#177,.T.);
#117=FACE_OUTER_BOUND('',#178,.T.);
#118=FACE_OUTER_BOUND('',#179,.T.);
#119=FACE_OUTER_BOUND('',#180,.T.);
#120=FACE_OUTER_BOUND('',#181,.T.);
#121=FACE_OUTER_BOUND('',#182,.T.);
#122=FACE_OUTER_BOUND('',#184,.T.);
#123=FACE_OUTER_BOUND('',#185,.T.);
#124=FACE_OUTER_BOUND('',#186,.T.);
#125=FACE_OUTER_BOUND('',#187,.T.);
#126=FACE_OUTER_BOUND('',#188,.T.);
#127=EDGE_LOOP('',(#615,#616,#617,#618,#619,#620));
#128=EDGE_LOOP('',(#621,#622,#623,#624,#625));
#129=EDGE_LOOP('',(#626,#627,#628,#629,#630,#631));
#130=EDGE_LOOP('',(#632,#633,#634,#635,#636));
#131=EDGE_LOOP('',(#637,#638,#639,#640));
#132=EDGE_LOOP('',(#641,#642,#643,#644,#645));
#133=EDGE_LOOP('',(#646));
#134=EDGE_LOOP('',(#647,#648,#649,#650));
#135=EDGE_LOOP('',(#651,#652,#653,#654,#655));
#136=EDGE_LOOP('',(#656,#657,#658,#659,#660));
#137=EDGE_LOOP('',(#661,#662,#663,#664));
#138=EDGE_LOOP('',(#665,#666,#667,#668));
#139=EDGE_LOOP('',(#669,#670,#671,#672,#673,#674));
#140=EDGE_LOOP('',(#675,#676,#677,#678,#679,#680,#681,#682));
#141=EDGE_LOOP('',(#683,#684,#685,#686));
#142=EDGE_LOOP('',(#687,#688,#689,#690));
#143=EDGE_LOOP('',(#691,#692,#693,#694));
#144=EDGE_LOOP('',(#695,#696,#697,#698));
#145=EDGE_LOOP('',(#699));
#146=EDGE_LOOP('',(#700,#701,#702,#703,#704,#705,#706,#707));
#147=EDGE_LOOP('',(#708,#709,#710,#711));
#148=EDGE_LOOP('',(#712,#713,#714,#715));
#149=EDGE_LOOP('',(#716));
#150=EDGE_LOOP('',(#717,#718,#719,#720,#721,#722));
#151=EDGE_LOOP('',(#723,#724,#725,#726,#727));
#152=EDGE_LOOP('',(#728,#729,#730,#731,#732,#733));
#153=EDGE_LOOP('',(#734,#735,#736,#737,#738));
#154=EDGE_LOOP('',(#739,#740,#741,#742));
#155=EDGE_LOOP('',(#743,#744,#745,#746,#747));
#156=EDGE_LOOP('',(#748));
#157=EDGE_LOOP('',(#749,#750,#751,#752));
#158=EDGE_LOOP('',(#753,#754,#755,#756,#757));
#159=EDGE_LOOP('',(#758,#759,#760,#761,#762));
#160=EDGE_LOOP('',(#763,#764,#765,#766));
#161=EDGE_LOOP('',(#767,#768,#769,#770));
#162=EDGE_LOOP('',(#771,#772,#773,#774,#775,#776));
#163=EDGE_LOOP('',(#777,#778,#779,#780,#781,#782,#783,#784));
#164=EDGE_LOOP('',(#785,#786,#787,#788));
#165=EDGE_LOOP('',(#789,#790,#791,#792));
#166=EDGE_LOOP('',(#793,#794,#795,#796));
#167=EDGE_LOOP('',(#797,#798,#799,#800));
#168=EDGE_LOOP('',(#801));
#169=EDGE_LOOP('',(#802,#803,#804,#805));
#170=EDGE_LOOP('',(#806,#807,#808,#809));
#171=EDGE_LOOP('',(#810,#811,#812,#813));
#172=EDGE_LOOP('',(#814,#815,#816,#817));
#173=EDGE_LOOP('',(#818,#819,#820,#821));
#174=EDGE_LOOP('',(#822,#823,#824,#825));
#175=EDGE_LOOP('',(#826,#827,#828,#829));
#176=EDGE_LOOP('',(#830,#831,#832,#833));
#177=EDGE_LOOP('',(#834,#835,#836,#837));
#178=EDGE_LOOP('',(#838));
#179=EDGE_LOOP('',(#839,#840,#841,#842));
#180=EDGE_LOOP('',(#843,#844,#845,#846));
#181=EDGE_LOOP('',(#847,#848,#849,#850));
#182=EDGE_LOOP('',(#851,#852,#853,#854,#855,#856,#857,#858));
#183=EDGE_LOOP('',(#859,#860,#861,#862,#863,#864,#865,#866));
#184=EDGE_LOOP('',(#867,#868,#869,#870));
#185=EDGE_LOOP('',(#871,#872,#873,#874));
#186=EDGE_LOOP('',(#875,#876,#877,#878));
#187=EDGE_LOOP('',(#879,#880,#881,#882,#883,#884,#885,#886));
#188=EDGE_LOOP('',(#887,#888,#889,#890));
#189=LINE('',#1390,#283);
#190=LINE('',#1394,#284);
#191=LINE('',#1396,#285);
#192=LINE('',#1397,#286);
#193=LINE('',#1404,#287);
#194=LINE('',#1409,#288);
#195=LINE('',#1411,#289);
#196=LINE('',#1415,#290);
#197=LINE('',#1418,#291);
#198=LINE('',#1419,#292);
#199=LINE('',#1423,#293);
#200=LINE('',#1425,#294);
#201=LINE('',#1426,#295);
#202=LINE('',#1429,#296);
#203=LINE('',#1431,#297);
#204=LINE('',#1433,#298);
#205=LINE('',#1439,#299);
#206=LINE('',#1442,#300);
#207=LINE('',#1443,#301);
#208=LINE('',#1446,#302);
#209=LINE('',#1450,#303);
#210=LINE('',#1454,#304);
#211=LINE('',#1459,#305);
#212=LINE('',#1462,#306);
#213=LINE('',#1464,#307);
#214=LINE('',#1465,#308);
#215=LINE('',#1468,#309);
#216=LINE('',#1470,#310);
#217=LINE('',#1471,#311);
#218=LINE('',#1473,#312);
#219=LINE('',#1474,#313);
#220=LINE('',#1479,#314);
#221=LINE('',#1483,#315);
#222=LINE('',#1487,#316);
#223=LINE('',#1491,#317);
#224=LINE('',#1497,#318);
#225=LINE('',#1499,#319);
#226=LINE('',#1500,#320);
#227=LINE('',#1507,#321);
#228=LINE('',#1511,#322);
#229=LINE('',#1513,#323);
#230=LINE('',#1514,#324);
#231=LINE('',#1521,#325);
#232=LINE('',#1526,#326);
#233=LINE('',#1528,#327);
#234=LINE('',#1532,#328);
#235=LINE('',#1535,#329);
#236=LINE('',#1536,#330);
#237=LINE('',#1540,#331);
#238=LINE('',#1542,#332);
#239=LINE('',#1543,#333);
#240=LINE('',#1546,#334);
#241=LINE('',#1548,#335);
#242=LINE('',#1550,#336);
#243=LINE('',#1556,#337);
#244=LINE('',#1559,#338);
#245=LINE('',#1560,#339);
#246=LINE('',#1563,#340);
#247=LINE('',#1566,#341);
#248=LINE('',#1569,#342);
#249=LINE('',#1573,#343);
#250=LINE('',#1576,#344);
#251=LINE('',#1577,#345);
#252=LINE('',#1580,#346);
#253=LINE('',#1581,#347);
#254=LINE('',#1583,#348);
#255=LINE('',#1587,#349);
#256=LINE('',#1589,#350);
#257=LINE('',#1590,#351);
#258=LINE('',#1594,#352);
#259=LINE('',#1597,#353);
#260=LINE('',#1604,#354);
#261=LINE('',#1607,#355);
#262=LINE('',#1611,#356);
#263=LINE('',#1612,#357);
#264=LINE('',#1613,#358);
#265=LINE('',#1619,#359);
#266=LINE('',#1622,#360);
#267=LINE('',#1624,#361);
#268=LINE('',#1625,#362);
#269=LINE('',#1628,#363);
#270=LINE('',#1629,#364);
#271=LINE('',#1635,#365);
#272=LINE('',#1636,#366);
#273=LINE('',#1644,#367);
#274=LINE('',#1647,#368);
#275=LINE('',#1649,#369);
#276=LINE('',#1651,#370);
#277=LINE('',#1654,#371);
#278=LINE('',#1657,#372);
#279=LINE('',#1658,#373);
#280=LINE('',#1661,#374);
#281=LINE('',#1664,#375);
#282=LINE('',#1666,#376);
#283=VECTOR('',#1100,10.);
#284=VECTOR('',#1103,10.);
#285=VECTOR('',#1104,10.);
#286=VECTOR('',#1105,10.);
#287=VECTOR('',#1112,10.);
#288=VECTOR('',#1117,10.);
#289=VECTOR('',#1118,10.);
#290=VECTOR('',#1123,10.);
#291=VECTOR('',#1126,10.);
#292=VECTOR('',#1127,10.);
#293=VECTOR('',#1132,9.99999999999999);
#294=VECTOR('',#1133,10.);
#295=VECTOR('',#1134,10.);
#296=VECTOR('',#1137,10.);
#297=VECTOR('',#1138,10.);
#298=VECTOR('',#1139,10.);
#299=VECTOR('',#1146,1.6);
#300=VECTOR('',#1151,10.);
#301=VECTOR('',#1152,9.99999999999999);
#302=VECTOR('',#1157,10.);
#303=VECTOR('',#1160,10.);
#304=VECTOR('',#1163,10.);
#305=VECTOR('',#1170,1.6);
#306=VECTOR('',#1173,10.);
#307=VECTOR('',#1174,10.);
#308=VECTOR('',#1175,10.);
#309=VECTOR('',#1178,10.);
#310=VECTOR('',#1179,10.);
#311=VECTOR('',#1180,10.);
#312=VECTOR('',#1183,10.);
#313=VECTOR('',#1184,10.);
#314=VECTOR('',#1189,10.);
#315=VECTOR('',#1192,10.);
#316=VECTOR('',#1195,10.);
#317=VECTOR('',#1198,10.);
#318=VECTOR('',#1203,10.);
#319=VECTOR('',#1204,10.);
#320=VECTOR('',#1205,10.);
#321=VECTOR('',#1212,10.);
#322=VECTOR('',#1215,10.);
#323=VECTOR('',#1216,10.);
#324=VECTOR('',#1217,10.);
#325=VECTOR('',#1224,10.);
#326=VECTOR('',#1229,10.);
#327=VECTOR('',#1230,10.);
#328=VECTOR('',#1235,10.);
#329=VECTOR('',#1238,10.);
#330=VECTOR('',#1239,10.);
#331=VECTOR('',#1244,9.99999999999999);
#332=VECTOR('',#1245,10.);
#333=VECTOR('',#1246,10.);
#334=VECTOR('',#1249,10.);
#335=VECTOR('',#1250,10.);
#336=VECTOR('',#1251,10.);
#337=VECTOR('',#1258,1.6);
#338=VECTOR('',#1263,10.);
#339=VECTOR('',#1264,9.99999999999999);
#340=VECTOR('',#1269,10.);
#341=VECTOR('',#1272,10.);
#342=VECTOR('',#1275,10.);
#343=VECTOR('',#1280,1.6);
#344=VECTOR('',#1283,10.);
#345=VECTOR('',#1284,10.);
#346=VECTOR('',#1287,10.);
#347=VECTOR('',#1288,10.);
#348=VECTOR('',#1291,10.);
#349=VECTOR('',#1296,10.);
#350=VECTOR('',#1297,10.);
#351=VECTOR('',#1298,10.);
#352=VECTOR('',#1303,10.);
#353=VECTOR('',#1306,10.);
#354=VECTOR('',#1313,10.);
#355=VECTOR('',#1316,10.);
#356=VECTOR('',#1319,10.);
#357=VECTOR('',#1320,10.);
#358=VECTOR('',#1321,10.);
#359=VECTOR('',#1328,10.);
#360=VECTOR('',#1331,10.);
#361=VECTOR('',#1332,10.);
#362=VECTOR('',#1333,10.);
#363=VECTOR('',#1336,10.);
#364=VECTOR('',#1337,10.);
#365=VECTOR('',#1346,10.);
#366=VECTOR('',#1347,10.);
#367=VECTOR('',#1356,10.);
#368=VECTOR('',#1359,10.);
#369=VECTOR('',#1362,10.);
#370=VECTOR('',#1363,10.);
#371=VECTOR('',#1366,10.);
#372=VECTOR('',#1369,10.);
#373=VECTOR('',#1370,10.);
#374=VECTOR('',#1373,10.);
#375=VECTOR('',#1378,10.);
#376=VECTOR('',#1381,10.);
#377=ELLIPSE('',#998,2.26274169979176,1.60000000000733);
#378=ELLIPSE('',#999,5.65685424949236,4.);
#379=ELLIPSE('',#1005,5.65685424949236,4.);
#380=ELLIPSE('',#1006,2.26274169979176,1.60000000000733);
#381=ELLIPSE('',#1035,2.26274169979176,1.60000000000733);
#382=ELLIPSE('',#1036,5.65685424949236,4.);
#383=ELLIPSE('',#1042,5.65685424949236,4.);
#384=ELLIPSE('',#1043,2.26274169979176,1.60000000000733);
#385=VERTEX_POINT('',#1386);
#386=VERTEX_POINT('',#1387);
#387=VERTEX_POINT('',#1389);
#388=VERTEX_POINT('',#1391);
#389=VERTEX_POINT('',#1393);
#390=VERTEX_POINT('',#1395);
#391=VERTEX_POINT('',#1399);
#392=VERTEX_POINT('',#1401);
#393=VERTEX_POINT('',#1403);
#394=VERTEX_POINT('',#1407);
#395=VERTEX_POINT('',#1408);
#396=VERTEX_POINT('',#1410);
#397=VERTEX_POINT('',#1413);
#398=VERTEX_POINT('',#1417);
#399=VERTEX_POINT('',#1422);
#400=VERTEX_POINT('',#1424);
#401=VERTEX_POINT('',#1428);
#402=VERTEX_POINT('',#1430);
#403=VERTEX_POINT('',#1432);
#404=VERTEX_POINT('',#1435);
#405=VERTEX_POINT('',#1438);
#406=VERTEX_POINT('',#1448);
#407=VERTEX_POINT('',#1449);
#408=VERTEX_POINT('',#1451);
#409=VERTEX_POINT('',#1453);
#410=VERTEX_POINT('',#1457);
#411=VERTEX_POINT('',#1461);
#412=VERTEX_POINT('',#1463);
#413=VERTEX_POINT('',#1467);
#414=VERTEX_POINT('',#1469);
#415=VERTEX_POINT('',#1477);
#416=VERTEX_POINT('',#1478);
#417=VERTEX_POINT('',#1480);
#418=VERTEX_POINT('',#1482);
#419=VERTEX_POINT('',#1484);
#420=VERTEX_POINT('',#1486);
#421=VERTEX_POINT('',#1488);
#422=VERTEX_POINT('',#1490);
#423=VERTEX_POINT('',#1493);
#424=VERTEX_POINT('',#1494);
#425=VERTEX_POINT('',#1496);
#426=VERTEX_POINT('',#1498);
#427=VERTEX_POINT('',#1503);
#428=VERTEX_POINT('',#1504);
#429=VERTEX_POINT('',#1506);
#430=VERTEX_POINT('',#1508);
#431=VERTEX_POINT('',#1510);
#432=VERTEX_POINT('',#1512);
#433=VERTEX_POINT('',#1516);
#434=VERTEX_POINT('',#1518);
#435=VERTEX_POINT('',#1520);
#436=VERTEX_POINT('',#1524);
#437=VERTEX_POINT('',#1525);
#438=VERTEX_POINT('',#1527);
#439=VERTEX_POINT('',#1530);
#440=VERTEX_POINT('',#1534);
#441=VERTEX_POINT('',#1539);
#442=VERTEX_POINT('',#1541);
#443=VERTEX_POINT('',#1545);
#444=VERTEX_POINT('',#1547);
#445=VERTEX_POINT('',#1549);
#446=VERTEX_POINT('',#1552);
#447=VERTEX_POINT('',#1555);
#448=VERTEX_POINT('',#1565);
#449=VERTEX_POINT('',#1567);
#450=VERTEX_POINT('',#1571);
#451=VERTEX_POINT('',#1575);
#452=VERTEX_POINT('',#1579);
#453=VERTEX_POINT('',#1586);
#454=VERTEX_POINT('',#1588);
#455=VERTEX_POINT('',#1592);
#456=VERTEX_POINT('',#1596);
#457=VERTEX_POINT('',#1600);
#458=VERTEX_POINT('',#1601);
#459=VERTEX_POINT('',#1603);
#460=VERTEX_POINT('',#1605);
#461=VERTEX_POINT('',#1609);
#462=VERTEX_POINT('',#1610);
#463=VERTEX_POINT('',#1615);
#464=VERTEX_POINT('',#1617);
#465=VERTEX_POINT('',#1621);
#466=VERTEX_POINT('',#1623);
#467=VERTEX_POINT('',#1627);
#468=VERTEX_POINT('',#1634);
#469=VERTEX_POINT('',#1640);
#470=VERTEX_POINT('',#1641);
#471=VERTEX_POINT('',#1643);
#472=VERTEX_POINT('',#1645);
#473=VERTEX_POINT('',#1650);
#474=VERTEX_POINT('',#1652);
#475=VERTEX_POINT('',#1656);
#476=VERTEX_POINT('',#1660);
#477=EDGE_CURVE('',#385,#386,#377,.F.);
#478=EDGE_CURVE('',#385,#387,#189,.T.);
#479=EDGE_CURVE('',#387,#388,#378,.T.);
#480=EDGE_CURVE('',#388,#389,#190,.T.);
#481=EDGE_CURVE('',#390,#389,#191,.T.);
#482=EDGE_CURVE('',#390,#386,#192,.T.);
#483=EDGE_CURVE('',#391,#385,#38,.T.);
#484=EDGE_CURVE('',#392,#391,#39,.T.);
#485=EDGE_CURVE('',#393,#392,#193,.T.);
#486=EDGE_CURVE('',#387,#393,#40,.T.);
#487=EDGE_CURVE('',#394,#395,#194,.T.);
#488=EDGE_CURVE('',#394,#396,#195,.T.);
#489=EDGE_CURVE('',#396,#393,#379,.T.);
#490=EDGE_CURVE('',#397,#392,#380,.F.);
#491=EDGE_CURVE('',#397,#395,#196,.T.);
#492=EDGE_CURVE('',#398,#390,#197,.T.);
#493=EDGE_CURVE('',#395,#398,#198,.T.);
#494=EDGE_CURVE('',#386,#397,#41,.T.);
#495=EDGE_CURVE('',#399,#394,#199,.T.);
#496=EDGE_CURVE('',#399,#400,#200,.T.);
#497=EDGE_CURVE('',#396,#400,#201,.T.);
#498=EDGE_CURVE('',#401,#399,#202,.T.);
#499=EDGE_CURVE('',#402,#401,#203,.T.);
#500=EDGE_CURVE('',#403,#402,#204,.T.);
#501=EDGE_CURVE('',#400,#403,#42,.T.);
#502=EDGE_CURVE('',#404,#404,#43,.T.);
#503=EDGE_CURVE('',#404,#405,#205,.T.);
#504=EDGE_CURVE('',#405,#405,#44,.T.);
#505=EDGE_CURVE('',#389,#402,#206,.T.);
#506=EDGE_CURVE('',#401,#398,#207,.T.);
#507=EDGE_CURVE('',#403,#388,#208,.T.);
#508=EDGE_CURVE('',#406,#407,#209,.T.);
#509=EDGE_CURVE('',#408,#406,#45,.T.);
#510=EDGE_CURVE('',#408,#409,#210,.T.);
#511=EDGE_CURVE('',#407,#409,#46,.T.);
#512=EDGE_CURVE('',#410,#410,#47,.T.);
#513=EDGE_CURVE('',#410,#391,#211,.T.);
#514=EDGE_CURVE('',#406,#411,#212,.T.);
#515=EDGE_CURVE('',#412,#407,#213,.T.);
#516=EDGE_CURVE('',#411,#412,#214,.T.);
#517=EDGE_CURVE('',#411,#413,#215,.T.);
#518=EDGE_CURVE('',#414,#412,#216,.T.);
#519=EDGE_CURVE('',#413,#414,#217,.T.);
#520=EDGE_CURVE('',#413,#408,#218,.T.);
#521=EDGE_CURVE('',#409,#414,#219,.T.);
#522=EDGE_CURVE('',#415,#416,#220,.F.);
#523=EDGE_CURVE('',#415,#417,#48,.T.);
#524=EDGE_CURVE('',#417,#418,#221,.T.);
#525=EDGE_CURVE('',#418,#419,#49,.T.);
#526=EDGE_CURVE('',#420,#419,#222,.T.);
#527=EDGE_CURVE('',#421,#420,#50,.T.);
#528=EDGE_CURVE('',#422,#421,#223,.T.);
#529=EDGE_CURVE('',#416,#422,#51,.T.);
#530=EDGE_CURVE('',#423,#424,#52,.T.);
#531=EDGE_CURVE('',#424,#425,#224,.T.);
#532=EDGE_CURVE('',#425,#426,#225,.T.);
#533=EDGE_CURVE('',#426,#423,#226,.T.);
#534=EDGE_CURVE('',#427,#428,#381,.F.);
#535=EDGE_CURVE('',#427,#429,#227,.T.);
#536=EDGE_CURVE('',#429,#430,#382,.T.);
#537=EDGE_CURVE('',#430,#431,#228,.T.);
#538=EDGE_CURVE('',#432,#431,#229,.T.);
#539=EDGE_CURVE('',#432,#428,#230,.T.);
#540=EDGE_CURVE('',#433,#427,#53,.T.);
#541=EDGE_CURVE('',#434,#433,#54,.T.);
#542=EDGE_CURVE('',#435,#434,#231,.T.);
#543=EDGE_CURVE('',#429,#435,#55,.T.);
#544=EDGE_CURVE('',#436,#437,#232,.T.);
#545=EDGE_CURVE('',#436,#438,#233,.T.);
#546=EDGE_CURVE('',#438,#435,#383,.T.);
#547=EDGE_CURVE('',#439,#434,#384,.F.);
#548=EDGE_CURVE('',#439,#437,#234,.T.);
#549=EDGE_CURVE('',#440,#432,#235,.T.);
#550=EDGE_CURVE('',#437,#440,#236,.T.);
#551=EDGE_CURVE('',#428,#439,#56,.T.);
#552=EDGE_CURVE('',#441,#436,#237,.T.);
#553=EDGE_CURVE('',#441,#442,#238,.T.);
#554=EDGE_CURVE('',#438,#442,#239,.T.);
#555=EDGE_CURVE('',#443,#441,#240,.T.);
#556=EDGE_CURVE('',#444,#443,#241,.T.);
#557=EDGE_CURVE('',#445,#444,#242,.T.);
#558=EDGE_CURVE('',#442,#445,#57,.T.);
#559=EDGE_CURVE('',#446,#446,#58,.T.);
#560=EDGE_CURVE('',#446,#447,#243,.T.);
#561=EDGE_CURVE('',#447,#447,#59,.T.);
#562=EDGE_CURVE('',#431,#444,#244,.T.);
#563=EDGE_CURVE('',#443,#440,#245,.T.);
#564=EDGE_CURVE('',#445,#430,#246,.T.);
#565=EDGE_CURVE('',#448,#423,#247,.T.);
#566=EDGE_CURVE('',#449,#448,#60,.T.);
#567=EDGE_CURVE('',#449,#424,#248,.T.);
#568=EDGE_CURVE('',#450,#450,#61,.T.);
#569=EDGE_CURVE('',#450,#433,#249,.T.);
#570=EDGE_CURVE('',#448,#451,#250,.T.);
#571=EDGE_CURVE('',#451,#426,#251,.T.);
#572=EDGE_CURVE('',#451,#452,#252,.T.);
#573=EDGE_CURVE('',#452,#425,#253,.T.);
#574=EDGE_CURVE('',#452,#449,#254,.T.);
#575=EDGE_CURVE('',#453,#421,#255,.T.);
#576=EDGE_CURVE('',#453,#454,#256,.F.);
#577=EDGE_CURVE('',#422,#454,#257,.T.);
#578=EDGE_CURVE('',#454,#455,#62,.F.);
#579=EDGE_CURVE('',#455,#416,#258,.T.);
#580=EDGE_CURVE('',#420,#456,#259,.T.);
#581=EDGE_CURVE('',#456,#453,#63,.F.);
#582=EDGE_CURVE('',#457,#458,#64,.T.);
#583=EDGE_CURVE('',#458,#459,#260,.T.);
#584=EDGE_CURVE('',#459,#460,#65,.T.);
#585=EDGE_CURVE('',#460,#457,#261,.T.);
#586=EDGE_CURVE('',#461,#462,#262,.T.);
#587=EDGE_CURVE('',#457,#461,#263,.F.);
#588=EDGE_CURVE('',#462,#460,#264,.T.);
#589=EDGE_CURVE('',#463,#461,#66,.T.);
#590=EDGE_CURVE('',#462,#464,#67,.T.);
#591=EDGE_CURVE('',#464,#463,#265,.T.);
#592=EDGE_CURVE('',#465,#418,#266,.T.);
#593=EDGE_CURVE('',#417,#466,#267,.T.);
#594=EDGE_CURVE('',#465,#466,#268,.F.);
#595=EDGE_CURVE('',#455,#467,#269,.F.);
#596=EDGE_CURVE('',#467,#415,#270,.T.);
#597=EDGE_CURVE('',#466,#467,#68,.F.);
#598=EDGE_CURVE('',#419,#468,#271,.T.);
#599=EDGE_CURVE('',#468,#456,#272,.T.);
#600=EDGE_CURVE('',#468,#465,#69,.F.);
#601=EDGE_CURVE('',#469,#470,#70,.T.);
#602=EDGE_CURVE('',#471,#469,#273,.T.);
#603=EDGE_CURVE('',#472,#471,#71,.T.);
#604=EDGE_CURVE('',#470,#472,#274,.T.);
#605=EDGE_CURVE('',#458,#470,#275,.T.);
#606=EDGE_CURVE('',#473,#463,#276,.F.);
#607=EDGE_CURVE('',#473,#474,#72,.T.);
#608=EDGE_CURVE('',#469,#474,#277,.F.);
#609=EDGE_CURVE('',#474,#475,#278,.T.);
#610=EDGE_CURVE('',#475,#471,#279,.T.);
#611=EDGE_CURVE('',#476,#473,#280,.T.);
#612=EDGE_CURVE('',#475,#476,#73,.T.);
#613=EDGE_CURVE('',#476,#464,#281,.F.);
#614=EDGE_CURVE('',#459,#472,#282,.F.);
#615=ORIENTED_EDGE('',*,*,#477,.F.);
#616=ORIENTED_EDGE('',*,*,#478,.T.);
#617=ORIENTED_EDGE('',*,*,#479,.T.);
#618=ORIENTED_EDGE('',*,*,#480,.T.);
#619=ORIENTED_EDGE('',*,*,#481,.F.);
#620=ORIENTED_EDGE('',*,*,#482,.T.);
#621=ORIENTED_EDGE('',*,*,#478,.F.);
#622=ORIENTED_EDGE('',*,*,#483,.F.);
#623=ORIENTED_EDGE('',*,*,#484,.F.);
#624=ORIENTED_EDGE('',*,*,#485,.F.);
#625=ORIENTED_EDGE('',*,*,#486,.F.);
#626=ORIENTED_EDGE('',*,*,#487,.F.);
#627=ORIENTED_EDGE('',*,*,#488,.T.);
#628=ORIENTED_EDGE('',*,*,#489,.T.);
#629=ORIENTED_EDGE('',*,*,#485,.T.);
#630=ORIENTED_EDGE('',*,*,#490,.F.);
#631=ORIENTED_EDGE('',*,*,#491,.T.);
#632=ORIENTED_EDGE('',*,*,#482,.F.);
#633=ORIENTED_EDGE('',*,*,#492,.F.);
#634=ORIENTED_EDGE('',*,*,#493,.F.);
#635=ORIENTED_EDGE('',*,*,#491,.F.);
#636=ORIENTED_EDGE('',*,*,#494,.F.);
#637=ORIENTED_EDGE('',*,*,#488,.F.);
#638=ORIENTED_EDGE('',*,*,#495,.F.);
#639=ORIENTED_EDGE('',*,*,#496,.T.);
#640=ORIENTED_EDGE('',*,*,#497,.F.);
#641=ORIENTED_EDGE('',*,*,#496,.F.);
#642=ORIENTED_EDGE('',*,*,#498,.F.);
#643=ORIENTED_EDGE('',*,*,#499,.F.);
#644=ORIENTED_EDGE('',*,*,#500,.F.);
#645=ORIENTED_EDGE('',*,*,#501,.F.);
#646=ORIENTED_EDGE('',*,*,#502,.F.);
#647=ORIENTED_EDGE('',*,*,#502,.T.);
#648=ORIENTED_EDGE('',*,*,#503,.T.);
#649=ORIENTED_EDGE('',*,*,#504,.F.);
#650=ORIENTED_EDGE('',*,*,#503,.F.);
#651=ORIENTED_EDGE('',*,*,#481,.T.);
#652=ORIENTED_EDGE('',*,*,#505,.T.);
#653=ORIENTED_EDGE('',*,*,#499,.T.);
#654=ORIENTED_EDGE('',*,*,#506,.T.);
#655=ORIENTED_EDGE('',*,*,#492,.T.);
#656=ORIENTED_EDGE('',*,*,#487,.T.);
#657=ORIENTED_EDGE('',*,*,#493,.T.);
#658=ORIENTED_EDGE('',*,*,#506,.F.);
#659=ORIENTED_EDGE('',*,*,#498,.T.);
#660=ORIENTED_EDGE('',*,*,#495,.T.);
#661=ORIENTED_EDGE('',*,*,#480,.F.);
#662=ORIENTED_EDGE('',*,*,#507,.F.);
#663=ORIENTED_EDGE('',*,*,#500,.T.);
#664=ORIENTED_EDGE('',*,*,#505,.F.);
#665=ORIENTED_EDGE('',*,*,#508,.F.);
#666=ORIENTED_EDGE('',*,*,#509,.F.);
#667=ORIENTED_EDGE('',*,*,#510,.T.);
#668=ORIENTED_EDGE('',*,*,#511,.F.);
#669=ORIENTED_EDGE('',*,*,#507,.T.);
#670=ORIENTED_EDGE('',*,*,#479,.F.);
#671=ORIENTED_EDGE('',*,*,#486,.T.);
#672=ORIENTED_EDGE('',*,*,#489,.F.);
#673=ORIENTED_EDGE('',*,*,#497,.T.);
#674=ORIENTED_EDGE('',*,*,#501,.T.);
#675=ORIENTED_EDGE('',*,*,#512,.T.);
#676=ORIENTED_EDGE('',*,*,#513,.T.);
#677=ORIENTED_EDGE('',*,*,#483,.T.);
#678=ORIENTED_EDGE('',*,*,#477,.T.);
#679=ORIENTED_EDGE('',*,*,#494,.T.);
#680=ORIENTED_EDGE('',*,*,#490,.T.);
#681=ORIENTED_EDGE('',*,*,#484,.T.);
#682=ORIENTED_EDGE('',*,*,#513,.F.);
#683=ORIENTED_EDGE('',*,*,#514,.F.);
#684=ORIENTED_EDGE('',*,*,#508,.T.);
#685=ORIENTED_EDGE('',*,*,#515,.F.);
#686=ORIENTED_EDGE('',*,*,#516,.F.);
#687=ORIENTED_EDGE('',*,*,#517,.F.);
#688=ORIENTED_EDGE('',*,*,#516,.T.);
#689=ORIENTED_EDGE('',*,*,#518,.F.);
#690=ORIENTED_EDGE('',*,*,#519,.F.);
#691=ORIENTED_EDGE('',*,*,#520,.F.);
#692=ORIENTED_EDGE('',*,*,#519,.T.);
#693=ORIENTED_EDGE('',*,*,#521,.F.);
#694=ORIENTED_EDGE('',*,*,#510,.F.);
#695=ORIENTED_EDGE('',*,*,#509,.T.);
#696=ORIENTED_EDGE('',*,*,#514,.T.);
#697=ORIENTED_EDGE('',*,*,#517,.T.);
#698=ORIENTED_EDGE('',*,*,#520,.T.);
#699=ORIENTED_EDGE('',*,*,#512,.F.);
#700=ORIENTED_EDGE('',*,*,#522,.F.);
#701=ORIENTED_EDGE('',*,*,#523,.T.);
#702=ORIENTED_EDGE('',*,*,#524,.T.);
#703=ORIENTED_EDGE('',*,*,#525,.T.);
#704=ORIENTED_EDGE('',*,*,#526,.F.);
#705=ORIENTED_EDGE('',*,*,#527,.F.);
#706=ORIENTED_EDGE('',*,*,#528,.F.);
#707=ORIENTED_EDGE('',*,*,#529,.F.);
#708=ORIENTED_EDGE('',*,*,#530,.T.);
#709=ORIENTED_EDGE('',*,*,#531,.T.);
#710=ORIENTED_EDGE('',*,*,#532,.T.);
#711=ORIENTED_EDGE('',*,*,#533,.T.);
#712=ORIENTED_EDGE('',*,*,#511,.T.);
#713=ORIENTED_EDGE('',*,*,#521,.T.);
#714=ORIENTED_EDGE('',*,*,#518,.T.);
#715=ORIENTED_EDGE('',*,*,#515,.T.);
#716=ORIENTED_EDGE('',*,*,#504,.T.);
#717=ORIENTED_EDGE('',*,*,#534,.F.);
#718=ORIENTED_EDGE('',*,*,#535,.T.);
#719=ORIENTED_EDGE('',*,*,#536,.T.);
#720=ORIENTED_EDGE('',*,*,#537,.T.);
#721=ORIENTED_EDGE('',*,*,#538,.F.);
#722=ORIENTED_EDGE('',*,*,#539,.T.);
#723=ORIENTED_EDGE('',*,*,#535,.F.);
#724=ORIENTED_EDGE('',*,*,#540,.F.);
#725=ORIENTED_EDGE('',*,*,#541,.F.);
#726=ORIENTED_EDGE('',*,*,#542,.F.);
#727=ORIENTED_EDGE('',*,*,#543,.F.);
#728=ORIENTED_EDGE('',*,*,#544,.F.);
#729=ORIENTED_EDGE('',*,*,#545,.T.);
#730=ORIENTED_EDGE('',*,*,#546,.T.);
#731=ORIENTED_EDGE('',*,*,#542,.T.);
#732=ORIENTED_EDGE('',*,*,#547,.F.);
#733=ORIENTED_EDGE('',*,*,#548,.T.);
#734=ORIENTED_EDGE('',*,*,#539,.F.);
#735=ORIENTED_EDGE('',*,*,#549,.F.);
#736=ORIENTED_EDGE('',*,*,#550,.F.);
#737=ORIENTED_EDGE('',*,*,#548,.F.);
#738=ORIENTED_EDGE('',*,*,#551,.F.);
#739=ORIENTED_EDGE('',*,*,#545,.F.);
#740=ORIENTED_EDGE('',*,*,#552,.F.);
#741=ORIENTED_EDGE('',*,*,#553,.T.);
#742=ORIENTED_EDGE('',*,*,#554,.F.);
#743=ORIENTED_EDGE('',*,*,#553,.F.);
#744=ORIENTED_EDGE('',*,*,#555,.F.);
#745=ORIENTED_EDGE('',*,*,#556,.F.);
#746=ORIENTED_EDGE('',*,*,#557,.F.);
#747=ORIENTED_EDGE('',*,*,#558,.F.);
#748=ORIENTED_EDGE('',*,*,#559,.F.);
#749=ORIENTED_EDGE('',*,*,#559,.T.);
#750=ORIENTED_EDGE('',*,*,#560,.T.);
#751=ORIENTED_EDGE('',*,*,#561,.F.);
#752=ORIENTED_EDGE('',*,*,#560,.F.);
#753=ORIENTED_EDGE('',*,*,#538,.T.);
#754=ORIENTED_EDGE('',*,*,#562,.T.);
#755=ORIENTED_EDGE('',*,*,#556,.T.);
#756=ORIENTED_EDGE('',*,*,#563,.T.);
#757=ORIENTED_EDGE('',*,*,#549,.T.);
#758=ORIENTED_EDGE('',*,*,#544,.T.);
#759=ORIENTED_EDGE('',*,*,#550,.T.);
#760=ORIENTED_EDGE('',*,*,#563,.F.);
#761=ORIENTED_EDGE('',*,*,#555,.T.);
#762=ORIENTED_EDGE('',*,*,#552,.T.);
#763=ORIENTED_EDGE('',*,*,#537,.F.);
#764=ORIENTED_EDGE('',*,*,#564,.F.);
#765=ORIENTED_EDGE('',*,*,#557,.T.);
#766=ORIENTED_EDGE('',*,*,#562,.F.);
#767=ORIENTED_EDGE('',*,*,#565,.F.);
#768=ORIENTED_EDGE('',*,*,#566,.F.);
#769=ORIENTED_EDGE('',*,*,#567,.T.);
#770=ORIENTED_EDGE('',*,*,#530,.F.);
#771=ORIENTED_EDGE('',*,*,#564,.T.);
#772=ORIENTED_EDGE('',*,*,#536,.F.);
#773=ORIENTED_EDGE('',*,*,#543,.T.);
#774=ORIENTED_EDGE('',*,*,#546,.F.);
#775=ORIENTED_EDGE('',*,*,#554,.T.);
#776=ORIENTED_EDGE('',*,*,#558,.T.);
#777=ORIENTED_EDGE('',*,*,#568,.T.);
#778=ORIENTED_EDGE('',*,*,#569,.T.);
#779=ORIENTED_EDGE('',*,*,#540,.T.);
#780=ORIENTED_EDGE('',*,*,#534,.T.);
#781=ORIENTED_EDGE('',*,*,#551,.T.);
#782=ORIENTED_EDGE('',*,*,#547,.T.);
#783=ORIENTED_EDGE('',*,*,#541,.T.);
#784=ORIENTED_EDGE('',*,*,#569,.F.);
#785=ORIENTED_EDGE('',*,*,#570,.F.);
#786=ORIENTED_EDGE('',*,*,#565,.T.);
#787=ORIENTED_EDGE('',*,*,#533,.F.);
#788=ORIENTED_EDGE('',*,*,#571,.F.);
#789=ORIENTED_EDGE('',*,*,#572,.F.);
#790=ORIENTED_EDGE('',*,*,#571,.T.);
#791=ORIENTED_EDGE('',*,*,#532,.F.);
#792=ORIENTED_EDGE('',*,*,#573,.F.);
#793=ORIENTED_EDGE('',*,*,#574,.F.);
#794=ORIENTED_EDGE('',*,*,#573,.T.);
#795=ORIENTED_EDGE('',*,*,#531,.F.);
#796=ORIENTED_EDGE('',*,*,#567,.F.);
#797=ORIENTED_EDGE('',*,*,#566,.T.);
#798=ORIENTED_EDGE('',*,*,#570,.T.);
#799=ORIENTED_EDGE('',*,*,#572,.T.);
#800=ORIENTED_EDGE('',*,*,#574,.T.);
#801=ORIENTED_EDGE('',*,*,#568,.F.);
#802=ORIENTED_EDGE('',*,*,#575,.F.);
#803=ORIENTED_EDGE('',*,*,#576,.T.);
#804=ORIENTED_EDGE('',*,*,#577,.F.);
#805=ORIENTED_EDGE('',*,*,#528,.T.);
#806=ORIENTED_EDGE('',*,*,#529,.T.);
#807=ORIENTED_EDGE('',*,*,#577,.T.);
#808=ORIENTED_EDGE('',*,*,#578,.T.);
#809=ORIENTED_EDGE('',*,*,#579,.T.);
#810=ORIENTED_EDGE('',*,*,#527,.T.);
#811=ORIENTED_EDGE('',*,*,#580,.T.);
#812=ORIENTED_EDGE('',*,*,#581,.T.);
#813=ORIENTED_EDGE('',*,*,#575,.T.);
#814=ORIENTED_EDGE('',*,*,#582,.T.);
#815=ORIENTED_EDGE('',*,*,#583,.T.);
#816=ORIENTED_EDGE('',*,*,#584,.T.);
#817=ORIENTED_EDGE('',*,*,#585,.T.);
#818=ORIENTED_EDGE('',*,*,#586,.F.);
#819=ORIENTED_EDGE('',*,*,#587,.F.);
#820=ORIENTED_EDGE('',*,*,#585,.F.);
#821=ORIENTED_EDGE('',*,*,#588,.F.);
#822=ORIENTED_EDGE('',*,*,#589,.T.);
#823=ORIENTED_EDGE('',*,*,#586,.T.);
#824=ORIENTED_EDGE('',*,*,#590,.T.);
#825=ORIENTED_EDGE('',*,*,#591,.T.);
#826=ORIENTED_EDGE('',*,*,#592,.T.);
#827=ORIENTED_EDGE('',*,*,#524,.F.);
#828=ORIENTED_EDGE('',*,*,#593,.T.);
#829=ORIENTED_EDGE('',*,*,#594,.F.);
#830=ORIENTED_EDGE('',*,*,#595,.T.);
#831=ORIENTED_EDGE('',*,*,#596,.T.);
#832=ORIENTED_EDGE('',*,*,#522,.T.);
#833=ORIENTED_EDGE('',*,*,#579,.F.);
#834=ORIENTED_EDGE('',*,*,#523,.F.);
#835=ORIENTED_EDGE('',*,*,#596,.F.);
#836=ORIENTED_EDGE('',*,*,#597,.F.);
#837=ORIENTED_EDGE('',*,*,#593,.F.);
#838=ORIENTED_EDGE('',*,*,#561,.T.);
#839=ORIENTED_EDGE('',*,*,#526,.T.);
#840=ORIENTED_EDGE('',*,*,#598,.T.);
#841=ORIENTED_EDGE('',*,*,#599,.T.);
#842=ORIENTED_EDGE('',*,*,#580,.F.);
#843=ORIENTED_EDGE('',*,*,#525,.F.);
#844=ORIENTED_EDGE('',*,*,#592,.F.);
#845=ORIENTED_EDGE('',*,*,#600,.F.);
#846=ORIENTED_EDGE('',*,*,#598,.F.);
#847=ORIENTED_EDGE('',*,*,#601,.F.);
#848=ORIENTED_EDGE('',*,*,#602,.F.);
#849=ORIENTED_EDGE('',*,*,#603,.F.);
#850=ORIENTED_EDGE('',*,*,#604,.F.);
#851=ORIENTED_EDGE('',*,*,#605,.F.);
#852=ORIENTED_EDGE('',*,*,#582,.F.);
#853=ORIENTED_EDGE('',*,*,#587,.T.);
#854=ORIENTED_EDGE('',*,*,#589,.F.);
#855=ORIENTED_EDGE('',*,*,#606,.F.);
#856=ORIENTED_EDGE('',*,*,#607,.T.);
#857=ORIENTED_EDGE('',*,*,#608,.F.);
#858=ORIENTED_EDGE('',*,*,#601,.T.);
#859=ORIENTED_EDGE('',*,*,#599,.F.);
#860=ORIENTED_EDGE('',*,*,#600,.T.);
#861=ORIENTED_EDGE('',*,*,#594,.T.);
#862=ORIENTED_EDGE('',*,*,#597,.T.);
#863=ORIENTED_EDGE('',*,*,#595,.F.);
#864=ORIENTED_EDGE('',*,*,#578,.F.);
#865=ORIENTED_EDGE('',*,*,#576,.F.);
#866=ORIENTED_EDGE('',*,*,#581,.F.);
#867=ORIENTED_EDGE('',*,*,#609,.T.);
#868=ORIENTED_EDGE('',*,*,#610,.T.);
#869=ORIENTED_EDGE('',*,*,#602,.T.);
#870=ORIENTED_EDGE('',*,*,#608,.T.);
#871=ORIENTED_EDGE('',*,*,#607,.F.);
#872=ORIENTED_EDGE('',*,*,#611,.F.);
#873=ORIENTED_EDGE('',*,*,#612,.F.);
#874=ORIENTED_EDGE('',*,*,#609,.F.);
#875=ORIENTED_EDGE('',*,*,#613,.F.);
#876=ORIENTED_EDGE('',*,*,#611,.T.);
#877=ORIENTED_EDGE('',*,*,#606,.T.);
#878=ORIENTED_EDGE('',*,*,#591,.F.);
#879=ORIENTED_EDGE('',*,*,#614,.T.);
#880=ORIENTED_EDGE('',*,*,#603,.T.);
#881=ORIENTED_EDGE('',*,*,#610,.F.);
#882=ORIENTED_EDGE('',*,*,#612,.T.);
#883=ORIENTED_EDGE('',*,*,#613,.T.);
#884=ORIENTED_EDGE('',*,*,#590,.F.);
#885=ORIENTED_EDGE('',*,*,#588,.T.);
#886=ORIENTED_EDGE('',*,*,#584,.F.);
#887=ORIENTED_EDGE('',*,*,#605,.T.);
#888=ORIENTED_EDGE('',*,*,#604,.T.);
#889=ORIENTED_EDGE('',*,*,#614,.F.);
#890=ORIENTED_EDGE('',*,*,#583,.F.);
#891=PLANE('',#997);
#892=PLANE('',#1000);
#893=PLANE('',#1004);
#894=PLANE('',#1007);
#895=PLANE('',#1009);
#896=PLANE('',#1010);
#897=PLANE('',#1015);
#898=PLANE('',#1016);
#899=PLANE('',#1017);
#900=PLANE('',#1023);
#901=PLANE('',#1024);
#902=PLANE('',#1025);
#903=PLANE('',#1026);
#904=PLANE('',#1027);
#905=PLANE('',#1033);
#906=PLANE('',#1034);
#907=PLANE('',#1037);
#908=PLANE('',#1041);
#909=PLANE('',#1044);
#910=PLANE('',#1046);
#911=PLANE('',#1047);
#912=PLANE('',#1052);
#913=PLANE('',#1053);
#914=PLANE('',#1054);
#915=PLANE('',#1059);
#916=PLANE('',#1060);
#917=PLANE('',#1061);
#918=PLANE('',#1062);
#919=PLANE('',#1063);
#920=PLANE('',#1071);
#921=PLANE('',#1075);
#922=PLANE('',#1076);
#923=PLANE('',#1079);
#924=PLANE('',#1080);
#925=PLANE('',#1086);
#926=PLANE('',#1088);
#927=PLANE('',#1091);
#928=PLANE('',#1092);
#929=PLANE('',#1093);
#930=ADVANCED_FACE('',(#74),#891,.T.);
#931=ADVANCED_FACE('',(#75),#892,.T.);
#932=ADVANCED_FACE('',(#76),#893,.T.);
#933=ADVANCED_FACE('',(#77),#894,.T.);
#934=ADVANCED_FACE('',(#78),#895,.F.);
#935=ADVANCED_FACE('',(#79,#29),#896,.F.);
#936=ADVANCED_FACE('',(#80),#15,.F.);
#937=ADVANCED_FACE('',(#81),#897,.F.);
#938=ADVANCED_FACE('',(#82),#898,.F.);
#939=ADVANCED_FACE('',(#83),#899,.F.);
#940=ADVANCED_FACE('',(#84,#30),#16,.T.);
#941=ADVANCED_FACE('',(#85),#17,.F.);
#942=ADVANCED_FACE('',(#86),#900,.T.);
#943=ADVANCED_FACE('',(#87),#901,.T.);
#944=ADVANCED_FACE('',(#88),#902,.T.);
#945=ADVANCED_FACE('',(#89,#31),#903,.T.);
#946=ADVANCED_FACE('',(#90,#32,#33),#904,.F.);
#947=ADVANCED_FACE('',(#91),#905,.F.);
#948=ADVANCED_FACE('',(#92),#906,.T.);
#949=ADVANCED_FACE('',(#93),#907,.T.);
#950=ADVANCED_FACE('',(#94),#908,.T.);
#951=ADVANCED_FACE('',(#95),#909,.T.);
#952=ADVANCED_FACE('',(#96),#910,.F.);
#953=ADVANCED_FACE('',(#97,#34),#911,.F.);
#954=ADVANCED_FACE('',(#98),#18,.F.);
#955=ADVANCED_FACE('',(#99),#912,.F.);
#956=ADVANCED_FACE('',(#100),#913,.F.);
#957=ADVANCED_FACE('',(#101),#914,.F.);
#958=ADVANCED_FACE('',(#102,#35),#19,.T.);
#959=ADVANCED_FACE('',(#103),#20,.F.);
#960=ADVANCED_FACE('',(#104),#915,.T.);
#961=ADVANCED_FACE('',(#105),#916,.T.);
#962=ADVANCED_FACE('',(#106),#917,.T.);
#963=ADVANCED_FACE('',(#107,#36),#918,.T.);
#964=ADVANCED_FACE('',(#108),#919,.F.);
#965=ADVANCED_FACE('',(#109),#21,.T.);
#966=ADVANCED_FACE('',(#110),#22,.T.);
#967=ADVANCED_FACE('',(#111),#23,.T.);
#968=ADVANCED_FACE('',(#112),#920,.T.);
#969=ADVANCED_FACE('',(#113),#24,.T.);
#970=ADVANCED_FACE('',(#114),#921,.T.);
#971=ADVANCED_FACE('',(#115),#922,.F.);
#972=ADVANCED_FACE('',(#116),#25,.T.);
#973=ADVANCED_FACE('',(#117),#923,.F.);
#974=ADVANCED_FACE('',(#118),#924,.F.);
#975=ADVANCED_FACE('',(#119),#26,.T.);
#976=ADVANCED_FACE('',(#120),#27,.T.);
#977=ADVANCED_FACE('',(#121,#37),#925,.F.);
#978=ADVANCED_FACE('',(#122),#926,.F.);
#979=ADVANCED_FACE('',(#123),#28,.T.);
#980=ADVANCED_FACE('',(#124),#927,.F.);
#981=ADVANCED_FACE('',(#125),#928,.T.);
#982=ADVANCED_FACE('',(#126),#929,.F.);
#983=CLOSED_SHELL('',(#930,#931,#932,#933,#934,#935,#936,#937,#938,#939,
#940,#941,#942,#943,#944,#945,#946,#947,#948,#949,#950,#951,#952,#953,#954,
#955,#956,#957,#958,#959,#960,#961,#962,#963,#964,#965,#966,#967,#968,#969,
#970,#971,#972,#973,#974,#975,#976,#977,#978,#979,#980,#981,#982));
#984=DERIVED_UNIT_ELEMENT(#986,1.);
#985=DERIVED_UNIT_ELEMENT(#1673,-3.);
#986=(
MASS_UNIT()
NAMED_UNIT(*)
SI_UNIT(.KILO.,.GRAM.)
);
#987=DERIVED_UNIT((#984,#985));
#988=MEASURE_REPRESENTATION_ITEM('density measure',
POSITIVE_RATIO_MEASURE(7850.),#987);
#989=PROPERTY_DEFINITION_REPRESENTATION(#994,#991);
#990=PROPERTY_DEFINITION_REPRESENTATION(#995,#992);
#991=REPRESENTATION('material name',(#993),#1670);
#992=REPRESENTATION('density',(#988),#1670);
#993=DESCRIPTIVE_REPRESENTATION_ITEM('Stahl','Stahl');
#994=PROPERTY_DEFINITION('material property','material name',#1680);
#995=PROPERTY_DEFINITION('material property','density of part',#1680);
#996=AXIS2_PLACEMENT_3D('',#1384,#1094,#1095);
#997=AXIS2_PLACEMENT_3D('',#1385,#1096,#1097);
#998=AXIS2_PLACEMENT_3D('',#1388,#1098,#1099);
#999=AXIS2_PLACEMENT_3D('',#1392,#1101,#1102);
#1000=AXIS2_PLACEMENT_3D('',#1398,#1106,#1107);
#1001=AXIS2_PLACEMENT_3D('',#1400,#1108,#1109);
#1002=AXIS2_PLACEMENT_3D('',#1402,#1110,#1111);
#1003=AXIS2_PLACEMENT_3D('',#1405,#1113,#1114);
#1004=AXIS2_PLACEMENT_3D('',#1406,#1115,#1116);
#1005=AXIS2_PLACEMENT_3D('',#1412,#1119,#1120);
#1006=AXIS2_PLACEMENT_3D('',#1414,#1121,#1122);
#1007=AXIS2_PLACEMENT_3D('',#1416,#1124,#1125);
#1008=AXIS2_PLACEMENT_3D('',#1420,#1128,#1129);
#1009=AXIS2_PLACEMENT_3D('',#1421,#1130,#1131);
#1010=AXIS2_PLACEMENT_3D('',#1427,#1135,#1136);
#1011=AXIS2_PLACEMENT_3D('',#1434,#1140,#1141);
#1012=AXIS2_PLACEMENT_3D('',#1436,#1142,#1143);
#1013=AXIS2_PLACEMENT_3D('',#1437,#1144,#1145);
#1014=AXIS2_PLACEMENT_3D('',#1440,#1147,#1148);
#1015=AXIS2_PLACEMENT_3D('',#1441,#1149,#1150);
#1016=AXIS2_PLACEMENT_3D('',#1444,#1153,#1154);
#1017=AXIS2_PLACEMENT_3D('',#1445,#1155,#1156);
#1018=AXIS2_PLACEMENT_3D('',#1447,#1158,#1159);
#1019=AXIS2_PLACEMENT_3D('',#1452,#1161,#1162);
#1020=AXIS2_PLACEMENT_3D('',#1455,#1164,#1165);
#1021=AXIS2_PLACEMENT_3D('',#1456,#1166,#1167);
#1022=AXIS2_PLACEMENT_3D('',#1458,#1168,#1169);
#1023=AXIS2_PLACEMENT_3D('',#1460,#1171,#1172);
#1024=AXIS2_PLACEMENT_3D('',#1466,#1176,#1177);
#1025=AXIS2_PLACEMENT_3D('',#1472,#1181,#1182);
#1026=AXIS2_PLACEMENT_3D('',#1475,#1185,#1186);
#1027=AXIS2_PLACEMENT_3D('',#1476,#1187,#1188);
#1028=AXIS2_PLACEMENT_3D('',#1481,#1190,#1191);
#1029=AXIS2_PLACEMENT_3D('',#1485,#1193,#1194);
#1030=AXIS2_PLACEMENT_3D('',#1489,#1196,#1197);
#1031=AXIS2_PLACEMENT_3D('',#1492,#1199,#1200);
#1032=AXIS2_PLACEMENT_3D('',#1495,#1201,#1202);
#1033=AXIS2_PLACEMENT_3D('',#1501,#1206,#1207);
#1034=AXIS2_PLACEMENT_3D('',#1502,#1208,#1209);
#1035=AXIS2_PLACEMENT_3D('',#1505,#1210,#1211);
#1036=AXIS2_PLACEMENT_3D('',#1509,#1213,#1214);
#1037=AXIS2_PLACEMENT_3D('',#1515,#1218,#1219);
#1038=AXIS2_PLACEMENT_3D('',#1517,#1220,#1221);
#1039=AXIS2_PLACEMENT_3D('',#1519,#1222,#1223);
#1040=AXIS2_PLACEMENT_3D('',#1522,#1225,#1226);
#1041=AXIS2_PLACEMENT_3D('',#1523,#1227,#1228);
#1042=AXIS2_PLACEMENT_3D('',#1529,#1231,#1232);
#1043=AXIS2_PLACEMENT_3D('',#1531,#1233,#1234);
#1044=AXIS2_PLACEMENT_3D('',#1533,#1236,#1237);
#1045=AXIS2_PLACEMENT_3D('',#1537,#1240,#1241);
#1046=AXIS2_PLACEMENT_3D('',#1538,#1242,#1243);
#1047=AXIS2_PLACEMENT_3D('',#1544,#1247,#1248);
#1048=AXIS2_PLACEMENT_3D('',#1551,#1252,#1253);
#1049=AXIS2_PLACEMENT_3D('',#1553,#1254,#1255);
#1050=AXIS2_PLACEMENT_3D('',#1554,#1256,#1257);
#1051=AXIS2_PLACEMENT_3D('',#1557,#1259,#1260);
#1052=AXIS2_PLACEMENT_3D('',#1558,#1261,#1262);
#1053=AXIS2_PLACEMENT_3D('',#1561,#1265,#1266);
#1054=AXIS2_PLACEMENT_3D('',#1562,#1267,#1268);
#1055=AXIS2_PLACEMENT_3D('',#1564,#1270,#1271);
#1056=AXIS2_PLACEMENT_3D('',#1568,#1273,#1274);
#1057=AXIS2_PLACEMENT_3D('',#1570,#1276,#1277);
#1058=AXIS2_PLACEMENT_3D('',#1572,#1278,#1279);
#1059=AXIS2_PLACEMENT_3D('',#1574,#1281,#1282);
#1060=AXIS2_PLACEMENT_3D('',#1578,#1285,#1286);
#1061=AXIS2_PLACEMENT_3D('',#1582,#1289,#1290);
#1062=AXIS2_PLACEMENT_3D('',#1584,#1292,#1293);
#1063=AXIS2_PLACEMENT_3D('',#1585,#1294,#1295);
#1064=AXIS2_PLACEMENT_3D('',#1591,#1299,#1300);
#1065=AXIS2_PLACEMENT_3D('',#1593,#1301,#1302);
#1066=AXIS2_PLACEMENT_3D('',#1595,#1304,#1305);
#1067=AXIS2_PLACEMENT_3D('',#1598,#1307,#1308);
#1068=AXIS2_PLACEMENT_3D('',#1599,#1309,#1310);
#1069=AXIS2_PLACEMENT_3D('',#1602,#1311,#1312);
#1070=AXIS2_PLACEMENT_3D('',#1606,#1314,#1315);
#1071=AXIS2_PLACEMENT_3D('',#1608,#1317,#1318);
#1072=AXIS2_PLACEMENT_3D('',#1614,#1322,#1323);
#1073=AXIS2_PLACEMENT_3D('',#1616,#1324,#1325);
#1074=AXIS2_PLACEMENT_3D('',#1618,#1326,#1327);
#1075=AXIS2_PLACEMENT_3D('',#1620,#1329,#1330);
#1076=AXIS2_PLACEMENT_3D('',#1626,#1334,#1335);
#1077=AXIS2_PLACEMENT_3D('',#1630,#1338,#1339);
#1078=AXIS2_PLACEMENT_3D('',#1631,#1340,#1341);
#1079=AXIS2_PLACEMENT_3D('',#1632,#1342,#1343);
#1080=AXIS2_PLACEMENT_3D('',#1633,#1344,#1345);
#1081=AXIS2_PLACEMENT_3D('',#1637,#1348,#1349);
#1082=AXIS2_PLACEMENT_3D('',#1638,#1350,#1351);
#1083=AXIS2_PLACEMENT_3D('',#1639,#1352,#1353);
#1084=AXIS2_PLACEMENT_3D('',#1642,#1354,#1355);
#1085=AXIS2_PLACEMENT_3D('',#1646,#1357,#1358);
#1086=AXIS2_PLACEMENT_3D('',#1648,#1360,#1361);
#1087=AXIS2_PLACEMENT_3D('',#1653,#1364,#1365);
#1088=AXIS2_PLACEMENT_3D('',#1655,#1367,#1368);
#1089=AXIS2_PLACEMENT_3D('',#1659,#1371,#1372);
#1090=AXIS2_PLACEMENT_3D('',#1662,#1374,#1375);
#1091=AXIS2_PLACEMENT_3D('',#1663,#1376,#1377);
#1092=AXIS2_PLACEMENT_3D('',#1665,#1379,#1380);
#1093=AXIS2_PLACEMENT_3D('',#1667,#1382,#1383);
#1094=DIRECTION('axis',(0.,0.,1.));
#1095=DIRECTION('refdir',(1.,0.,0.));
#1096=DIRECTION('center_axis',(0.419129324749441,-0.707106781183304,0.569500315311295));
#1097=DIRECTION('ref_axis',(0.405455942487847,-0.415460968226915,-0.814246684108229));
#1098=DIRECTION('center_axis',(-0.419129324749441,0.707106781183304,-0.569500315311295));
#1099=DIRECTION('ref_axis',(-0.419131048932229,-0.707106781188171,-0.56949904637205));
#1100=DIRECTION('',(0.805393275136054,-3.02754458095481E-6,-0.592740813810264));
#1101=DIRECTION('center_axis',(0.419129324749441,-0.707106781183304,0.569500315311295));
#1102=DIRECTION('ref_axis',(-0.419132773116941,-0.70710678118331,-0.569497777435419));
#1103=DIRECTION('',(-0.805393275136054,3.02754458095481E-6,0.592740813810264));
#1104=DIRECTION('',(0.692451590627048,0.654652526400687,0.303217519802649));
#1105=DIRECTION('',(0.805393275136054,-3.02754458095481E-6,-0.592740813810264));
#1106=DIRECTION('center_axis',(0.592740813812981,4.19082355898663E-31,0.805393275139745));
#1107=DIRECTION('ref_axis',(2.41797144842367E-16,1.,-1.77954101226698E-16));
#1108=DIRECTION('center_axis',(0.592740813812981,4.19082355898663E-31,0.805393275139745));
#1109=DIRECTION('ref_axis',(-0.805393275139745,3.00222453186504E-16,0.592740813812981));
#1110=DIRECTION('center_axis',(0.592740813812981,4.19082355898663E-31,0.805393275139745));
#1111=DIRECTION('ref_axis',(-0.805393275139745,3.00222453186504E-16,0.592740813812981));
#1112=DIRECTION('',(-0.805393275136054,3.02754458095481E-6,0.592740813810264));
#1113=DIRECTION('center_axis',(-0.592740813812981,-4.19082355898663E-31,
-0.805393275139745));
#1114=DIRECTION('ref_axis',(0.569499046373358,-0.707106781186546,-0.419131048933193));
#1115=DIRECTION('center_axis',(0.419132773116945,0.707106781183304,0.569497777435423));
#1116=DIRECTION('ref_axis',(-0.405456767847116,-0.415456914232846,0.814248341615192));
#1117=DIRECTION('',(-0.692448398059102,0.654654815009271,-0.303219869419141));
#1118=DIRECTION('',(0.805393275136054,-3.02754458095481E-6,-0.592740813810264));
#1119=DIRECTION('center_axis',(0.419132773116945,0.707106781183304,0.569497777435423));
#1120=DIRECTION('ref_axis',(0.419129324749437,-0.70710678118331,0.569500315311291));
#1121=DIRECTION('center_axis',(-0.419132773116945,-0.707106781183304,-0.569497777435423));
#1122=DIRECTION('ref_axis',(0.419131048932229,-0.707106781188171,0.56949904637205));
#1123=DIRECTION('',(-0.805393275136054,3.02754458095481E-6,0.592740813810264));
#1124=DIRECTION('center_axis',(0.592740813812981,4.19082355898663E-31,0.805393275139745));
#1125=DIRECTION('ref_axis',(2.41797144842367E-16,1.,-1.77954101226698E-16));
#1126=DIRECTION('',(0.402698749253234,0.866023890008179,-0.296371961030361));
#1127=DIRECTION('',(-0.40269452588282,0.86602691755276,0.296368852779903));
#1128=DIRECTION('center_axis',(0.592740813812981,4.19082355898663E-31,0.805393275139745));
#1129=DIRECTION('ref_axis',(-0.805393275139745,3.00222453186504E-16,0.592740813812981));
#1130=DIRECTION('center_axis',(-2.43836404568679E-6,-0.999999999995417,
1.79454923877023E-6));
#1131=DIRECTION('ref_axis',(-0.805393275136054,3.02754458095481E-6,0.592740813810264));
#1132=DIRECTION('',(-0.592740813812979,-4.31408307542741E-31,-0.805393275139746));
#1133=DIRECTION('',(0.805393275136054,-3.02754458095481E-6,-0.592740813810264));
#1134=DIRECTION('',(0.59274081381298,2.40356057059527E-31,0.805393275139746));
#1135=DIRECTION('center_axis',(0.59274081381298,4.25245331720701E-31,0.805393275139745));
#1136=DIRECTION('ref_axis',(2.41797144842367E-16,1.,-1.77954101226698E-16));
#1137=DIRECTION('',(0.402694525882821,-0.86602691755276,-0.296368852779903));
#1138=DIRECTION('',(-0.402698749253234,-0.866023890008179,0.296371961030361));
#1139=DIRECTION('',(-0.805393275136054,3.02754458095481E-6,0.592740813810264));
#1140=DIRECTION('center_axis',(0.59274081381298,4.25245331720701E-31,0.805393275139745));
#1141=DIRECTION('ref_axis',(0.569499046373358,-0.707106781186546,-0.419131048933192));
#1142=DIRECTION('center_axis',(-0.59274081381298,-4.25245331720701E-31,
-0.805393275139745));
#1143=DIRECTION('ref_axis',(2.41797144842367E-16,1.,-1.77954101226698E-16));
#1144=DIRECTION('center_axis',(0.592740813812979,4.31408307542741E-31,0.805393275139746));
#1145=DIRECTION('ref_axis',(2.41797144842367E-16,1.,-1.77954101226698E-16));
#1146=DIRECTION('',(0.592740813812979,4.31408307542741E-31,0.805393275139746));
#1147=DIRECTION('center_axis',(-0.592740813812981,0.,-0.805393275139745));
#1148=DIRECTION('ref_axis',(2.41797144842367E-16,1.,-1.77954101226698E-16));
#1149=DIRECTION('center_axis',(-0.697489817122951,0.500002621928226,0.51332770534493));
#1150=DIRECTION('ref_axis',(0.402698749253234,0.86602389000818,-0.296371961030361));
#1151=DIRECTION('',(0.592740813812977,1.18945433365356E-30,0.805393275139748));
#1152=DIRECTION('',(-0.592740813812979,-4.31408307542741E-31,-0.805393275139746));
#1153=DIRECTION('center_axis',(-0.697492255486996,-0.499997378067191,0.513329499894169));
#1154=DIRECTION('ref_axis',(-0.40269452588282,0.86602691755276,0.296368852779903));
#1155=DIRECTION('center_axis',(2.43836404568679E-6,0.999999999995417,-1.79454923877023E-6));
#1156=DIRECTION('ref_axis',(0.805393275136054,-3.02754458095481E-6,-0.592740813810264));
#1157=DIRECTION('',(-0.59274081381298,-2.40356057059527E-31,-0.805393275139746));
#1158=DIRECTION('center_axis',(0.59274081381298,2.46519032881566E-31,0.805393275139746));
#1159=DIRECTION('ref_axis',(0.569499046373358,-0.707106781186546,-0.419131048933192));
#1160=DIRECTION('',(0.59274081381298,2.46519032881566E-31,0.805393275139746));
#1161=DIRECTION('center_axis',(-0.592740813812981,-2.46519032881566E-32,
-0.805393275139745));
#1162=DIRECTION('ref_axis',(0.569499046373358,-0.707106781186546,-0.419131048933193));
#1163=DIRECTION('',(0.59274081381298,2.46519032881566E-31,0.805393275139746));
#1164=DIRECTION('center_axis',(0.592740813812981,0.,0.805393275139745));
#1165=DIRECTION('ref_axis',(0.569499046373358,-0.707106781186546,-0.419131048933193));
#1166=DIRECTION('center_axis',(0.59274081381298,2.46519032881566E-31,0.805393275139746));
#1167=DIRECTION('ref_axis',(-0.805393275139746,3.00222453186504E-16,0.59274081381298));
#1168=DIRECTION('center_axis',(-0.592740813812981,-2.46519032881566E-32,
-0.805393275139745));
#1169=DIRECTION('ref_axis',(-0.805393275139745,3.00222453186504E-16,0.592740813812981));
#1170=DIRECTION('',(0.59274081381298,2.46519032881566E-31,0.805393275139746));
#1171=DIRECTION('center_axis',(-2.41797144842367E-16,-1.,1.77954101226698E-16));
#1172=DIRECTION('ref_axis',(0.805393275139745,-3.00222453186504E-16,-0.592740813812981));
#1173=DIRECTION('',(-0.805393275139745,3.00222453186504E-16,0.592740813812981));
#1174=DIRECTION('',(0.805393275139745,-3.00222453186504E-16,-0.592740813812981));
#1175=DIRECTION('',(0.59274081381298,2.46519032881566E-31,0.805393275139746));
#1176=DIRECTION('center_axis',(-0.805393275139746,3.00222453186504E-16,
0.59274081381298));
#1177=DIRECTION('ref_axis',(-2.41797144842367E-16,-1.,1.77954101226698E-16));
#1178=DIRECTION('',(2.41797144842367E-16,1.,-1.77954101226698E-16));
#1179=DIRECTION('',(-2.41797144842367E-16,-1.,1.77954101226698E-16));
#1180=DIRECTION('',(0.59274081381298,2.46519032881566E-31,0.805393275139746));
#1181=DIRECTION('center_axis',(2.41797144842367E-16,1.,-1.77954101226698E-16));
#1182=DIRECTION('ref_axis',(-0.805393275139745,3.00222453186504E-16,0.592740813812981));
#1183=DIRECTION('',(0.805393275139745,-3.00222453186504E-16,-0.592740813812981));
#1184=DIRECTION('',(-0.805393275139745,3.00222453186504E-16,0.592740813812981));
#1185=DIRECTION('center_axis',(-0.592740813812981,-2.46519032881566E-32,
-0.805393275139745));
#1186=DIRECTION('ref_axis',(0.805393275139745,-3.00222453186504E-16,-0.592740813812981));
#1187=DIRECTION('center_axis',(0.592740813812981,0.,0.805393275139745));
#1188=DIRECTION('ref_axis',(-0.805393275139745,0.,0.592740813812981));
#1189=DIRECTION('',(2.38082431418768E-16,-1.,-1.75220204227863E-16));
#1190=DIRECTION('center_axis',(-0.592740813812981,0.,-0.805393275139745));
#1191=DIRECTION('ref_axis',(0.486873790796437,-0.796592367799791,-0.358321798665152));
#1192=DIRECTION('',(-0.775679891660375,0.26911880087381,0.570872820065898));
#1193=DIRECTION('center_axis',(-0.592740813812981,0.,-0.805393275139745));
#1194=DIRECTION('ref_axis',(-0.641570136053614,-0.604516831496933,0.472172808366869));
#1195=DIRECTION('',(-1.40537575722807E-16,-1.,1.03430658755856E-16));
#1196=DIRECTION('center_axis',(0.592740813812981,0.,0.805393275139745));
#1197=DIRECTION('ref_axis',(-0.641570136053614,0.604516831496933,0.472172808366869));
#1198=DIRECTION('',(-0.775679891660375,-0.26911880087381,0.570872820065898));
#1199=DIRECTION('center_axis',(0.592740813812981,0.,0.805393275139745));
#1200=DIRECTION('ref_axis',(0.486873790796437,0.796592367799791,-0.358321798665152));
#1201=DIRECTION('center_axis',(0.592740813812981,0.,0.805393275139745));
#1202=DIRECTION('ref_axis',(0.569499046373358,-0.707106781186546,-0.419131048933193));
#1203=DIRECTION('',(-0.805393275139745,3.00222453186504E-16,0.592740813812981));
#1204=DIRECTION('',(-2.41797144842367E-16,-1.,1.77954101226698E-16));
#1205=DIRECTION('',(0.805393275139745,-3.00222453186504E-16,-0.592740813812981));
#1206=DIRECTION('center_axis',(0.592740813812981,0.,0.805393275139745));
#1207=DIRECTION('ref_axis',(-0.805393275139745,0.,0.592740813812981));
#1208=DIRECTION('center_axis',(0.419129324749441,-0.707106781183304,0.569500315311295));
#1209=DIRECTION('ref_axis',(0.405455942487847,-0.415460968226915,-0.814246684108229));
#1210=DIRECTION('center_axis',(-0.419129324749441,0.707106781183304,-0.569500315311295));
#1211=DIRECTION('ref_axis',(-0.419131048932229,-0.707106781188171,-0.56949904637205));
#1212=DIRECTION('',(0.805393275136054,-3.02754458095481E-6,-0.592740813810264));
#1213=DIRECTION('center_axis',(0.419129324749441,-0.707106781183304,0.569500315311295));
#1214=DIRECTION('ref_axis',(-0.419132773116941,-0.70710678118331,-0.569497777435419));
#1215=DIRECTION('',(-0.805393275136054,3.02754458095481E-6,0.592740813810264));
#1216=DIRECTION('',(0.692451590627048,0.654652526400687,0.303217519802649));
#1217=DIRECTION('',(0.805393275136054,-3.02754458095481E-6,-0.592740813810264));
#1218=DIRECTION('center_axis',(0.592740813812981,4.19082355898663E-31,0.805393275139745));
#1219=DIRECTION('ref_axis',(2.41797144842367E-16,1.,-1.77954101226698E-16));
#1220=DIRECTION('center_axis',(0.592740813812981,4.19082355898663E-31,0.805393275139745));
#1221=DIRECTION('ref_axis',(-0.805393275139745,3.00222453186504E-16,0.592740813812981));
#1222=DIRECTION('center_axis',(0.592740813812981,4.19082355898663E-31,0.805393275139745));
#1223=DIRECTION('ref_axis',(-0.805393275139745,3.00222453186504E-16,0.592740813812981));
#1224=DIRECTION('',(-0.805393275136054,3.02754458095481E-6,0.592740813810264));
#1225=DIRECTION('center_axis',(-0.592740813812981,-4.19082355898663E-31,
-0.805393275139745));
#1226=DIRECTION('ref_axis',(0.569499046373358,-0.707106781186546,-0.419131048933193));
#1227=DIRECTION('center_axis',(0.419132773116945,0.707106781183304,0.569497777435423));
#1228=DIRECTION('ref_axis',(-0.405456767847116,-0.415456914232846,0.814248341615192));
#1229=DIRECTION('',(-0.692448398059102,0.654654815009271,-0.303219869419141));
#1230=DIRECTION('',(0.805393275136054,-3.02754458095481E-6,-0.592740813810264));
#1231=DIRECTION('center_axis',(0.419132773116945,0.707106781183304,0.569497777435423));
#1232=DIRECTION('ref_axis',(0.419129324749437,-0.70710678118331,0.569500315311291));
#1233=DIRECTION('center_axis',(-0.419132773116945,-0.707106781183304,-0.569497777435423));
#1234=DIRECTION('ref_axis',(0.419131048932229,-0.707106781188171,0.56949904637205));
#1235=DIRECTION('',(-0.805393275136054,3.02754458095481E-6,0.592740813810264));
#1236=DIRECTION('center_axis',(0.592740813812981,4.19082355898663E-31,0.805393275139745));
#1237=DIRECTION('ref_axis',(2.41797144842367E-16,1.,-1.77954101226698E-16));
#1238=DIRECTION('',(0.402698749253234,0.866023890008179,-0.296371961030361));
#1239=DIRECTION('',(-0.40269452588282,0.86602691755276,0.296368852779903));
#1240=DIRECTION('center_axis',(0.592740813812981,4.19082355898663E-31,0.805393275139745));
#1241=DIRECTION('ref_axis',(-0.805393275139745,3.00222453186504E-16,0.592740813812981));
#1242=DIRECTION('center_axis',(-2.43836404568679E-6,-0.999999999995417,
1.79454923877023E-6));
#1243=DIRECTION('ref_axis',(-0.805393275136054,3.02754458095481E-6,0.592740813810264));
#1244=DIRECTION('',(-0.592740813812979,-4.31408307542741E-31,-0.805393275139746));
#1245=DIRECTION('',(0.805393275136054,-3.02754458095481E-6,-0.592740813810264));
#1246=DIRECTION('',(0.59274081381298,2.40356057059527E-31,0.805393275139746));
#1247=DIRECTION('center_axis',(0.59274081381298,4.25245331720701E-31,0.805393275139745));
#1248=DIRECTION('ref_axis',(2.41797144842367E-16,1.,-1.77954101226698E-16));
#1249=DIRECTION('',(0.402694525882821,-0.86602691755276,-0.296368852779903));
#1250=DIRECTION('',(-0.402698749253234,-0.866023890008179,0.296371961030361));
#1251=DIRECTION('',(-0.805393275136054,3.02754458095481E-6,0.592740813810264));
#1252=DIRECTION('center_axis',(0.59274081381298,4.25245331720701E-31,0.805393275139745));
#1253=DIRECTION('ref_axis',(0.569499046373358,-0.707106781186546,-0.419131048933192));
#1254=DIRECTION('center_axis',(-0.59274081381298,-4.25245331720701E-31,
-0.805393275139745));
#1255=DIRECTION('ref_axis',(2.41797144842367E-16,1.,-1.77954101226698E-16));
#1256=DIRECTION('center_axis',(0.592740813812979,4.31408307542741E-31,0.805393275139746));
#1257=DIRECTION('ref_axis',(2.41797144842367E-16,1.,-1.77954101226698E-16));
#1258=DIRECTION('',(0.592740813812979,4.31408307542741E-31,0.805393275139746));
#1259=DIRECTION('center_axis',(-0.592740813812981,0.,-0.805393275139745));
#1260=DIRECTION('ref_axis',(2.41797144842367E-16,1.,-1.77954101226698E-16));
#1261=DIRECTION('center_axis',(-0.697489817122951,0.500002621928226,0.51332770534493));
#1262=DIRECTION('ref_axis',(0.402698749253234,0.86602389000818,-0.296371961030361));
#1263=DIRECTION('',(0.592740813812977,1.18945433365356E-30,0.805393275139748));
#1264=DIRECTION('',(-0.592740813812979,-4.31408307542741E-31,-0.805393275139746));
#1265=DIRECTION('center_axis',(-0.697492255486996,-0.499997378067191,0.513329499894169));
#1266=DIRECTION('ref_axis',(-0.40269452588282,0.86602691755276,0.296368852779903));
#1267=DIRECTION('center_axis',(2.43836404568679E-6,0.999999999995417,-1.79454923877023E-6));
#1268=DIRECTION('ref_axis',(0.805393275136054,-3.02754458095481E-6,-0.592740813810264));
#1269=DIRECTION('',(-0.59274081381298,-2.40356057059527E-31,-0.805393275139746));
#1270=DIRECTION('center_axis',(0.59274081381298,2.46519032881566E-31,0.805393275139746));
#1271=DIRECTION('ref_axis',(0.569499046373358,-0.707106781186546,-0.419131048933192));
#1272=DIRECTION('',(0.59274081381298,2.46519032881566E-31,0.805393275139746));
#1273=DIRECTION('center_axis',(-0.592740813812981,-2.46519032881566E-32,
-0.805393275139745));
#1274=DIRECTION('ref_axis',(0.569499046373358,-0.707106781186546,-0.419131048933193));
#1275=DIRECTION('',(0.59274081381298,2.46519032881566E-31,0.805393275139746));
#1276=DIRECTION('center_axis',(0.59274081381298,2.46519032881566E-31,0.805393275139746));
#1277=DIRECTION('ref_axis',(-0.805393275139746,3.00222453186504E-16,0.59274081381298));
#1278=DIRECTION('center_axis',(-0.592740813812981,-2.46519032881566E-32,
-0.805393275139745));
#1279=DIRECTION('ref_axis',(-0.805393275139745,3.00222453186504E-16,0.592740813812981));
#1280=DIRECTION('',(0.59274081381298,2.46519032881566E-31,0.805393275139746));
#1281=DIRECTION('center_axis',(-2.41797144842367E-16,-1.,1.77954101226698E-16));
#1282=DIRECTION('ref_axis',(0.805393275139745,-3.00222453186504E-16,-0.592740813812981));
#1283=DIRECTION('',(-0.805393275139745,3.00222453186504E-16,0.592740813812981));
#1284=DIRECTION('',(0.59274081381298,2.46519032881566E-31,0.805393275139746));
#1285=DIRECTION('center_axis',(-0.805393275139746,3.00222453186504E-16,
0.59274081381298));
#1286=DIRECTION('ref_axis',(-2.41797144842367E-16,-1.,1.77954101226698E-16));
#1287=DIRECTION('',(2.41797144842367E-16,1.,-1.77954101226698E-16));
#1288=DIRECTION('',(0.59274081381298,2.46519032881566E-31,0.805393275139746));
#1289=DIRECTION('center_axis',(2.41797144842367E-16,1.,-1.77954101226698E-16));
#1290=DIRECTION('ref_axis',(-0.805393275139745,3.00222453186504E-16,0.592740813812981));
#1291=DIRECTION('',(0.805393275139745,-3.00222453186504E-16,-0.592740813812981));
#1292=DIRECTION('center_axis',(-0.592740813812981,-2.46519032881566E-32,
-0.805393275139745));
#1293=DIRECTION('ref_axis',(0.805393275139745,-3.00222453186504E-16,-0.592740813812981));
#1294=DIRECTION('center_axis',(0.216746472437439,-0.963106988353964,-0.159517697042316));
#1295=DIRECTION('ref_axis',(-0.775679891660375,-0.26911880087381,0.570872820065898));
#1296=DIRECTION('',(-0.592740813812981,0.,-0.805393275139745));
#1297=DIRECTION('',(-0.775679891660375,-0.26911880087381,0.570872820065898));
#1298=DIRECTION('',(0.592740813812981,2.67315888411991E-17,0.805393275139745));
#1299=DIRECTION('center_axis',(0.592740813812981,0.,0.805393275139745));
#1300=DIRECTION('ref_axis',(0.486873790796437,0.796592367799791,-0.358321798665152));
#1301=DIRECTION('center_axis',(0.592740813812981,0.,0.805393275139745));
#1302=DIRECTION('ref_axis',(0.486873790796437,0.796592367799791,-0.358321798665152));
#1303=DIRECTION('',(-0.592740813812981,-3.28193201109101E-32,-0.805393275139745));
#1304=DIRECTION('center_axis',(-0.592740813812981,0.,-0.805393275139745));
#1305=DIRECTION('ref_axis',(-0.641570136053614,0.604516831496933,0.472172808366869));
#1306=DIRECTION('',(0.592740813812981,0.,0.805393275139745));
#1307=DIRECTION('center_axis',(0.592740813812981,0.,0.805393275139745));
#1308=DIRECTION('ref_axis',(-0.641570136053614,0.604516831496933,0.472172808366869));
#1309=DIRECTION('center_axis',(-0.592740813812985,-9.82720652988449E-14,
-0.805393275139742));
#1310=DIRECTION('ref_axis',(-0.641570136053645,0.604516831496935,0.472172808366824));
#1311=DIRECTION('center_axis',(0.592740813812981,0.,0.805393275139745));
#1312=DIRECTION('ref_axis',(-0.641570136053613,0.604516831496935,0.472172808366868));
#1313=DIRECTION('',(0.592740813812985,9.82720652988449E-14,0.805393275139742));
#1314=DIRECTION('center_axis',(-0.592740813812981,0.,-0.805393275139745));
#1315=DIRECTION('ref_axis',(-0.641570136053613,0.604516831496935,0.472172808366868));
#1316=DIRECTION('',(-0.592740813812985,-9.82720652988449E-14,-0.805393275139742));
#1317=DIRECTION('center_axis',(-0.216746472437494,0.963106988353964,0.159517697042241));
#1318=DIRECTION('ref_axis',(-0.775679891660363,-0.26911880087381,0.570872820065914));
#1319=DIRECTION('',(0.592740813812985,9.82987968876861E-14,0.805393275139742));
#1320=DIRECTION('',(-0.775679891660375,-0.26911880087381,0.570872820065898));
#1321=DIRECTION('',(-0.775679891660375,-0.26911880087381,0.570872820065898));
#1322=DIRECTION('center_axis',(-0.592740813812985,-9.82720652988449E-14,
-0.805393275139742));
#1323=DIRECTION('ref_axis',(0.486873790796356,0.796592367799822,-0.358321798665194));
#1324=DIRECTION('center_axis',(0.592740813812981,0.,0.805393275139745));
#1325=DIRECTION('ref_axis',(0.486873790796404,0.796592367799822,-0.358321798665128));
#1326=DIRECTION('center_axis',(-0.592740813812981,0.,-0.805393275139745));
#1327=DIRECTION('ref_axis',(0.486873790796404,0.796592367799822,-0.358321798665128));
#1328=DIRECTION('',(-0.592740813812985,-9.82720652988449E-14,-0.805393275139742));
#1329=DIRECTION('center_axis',(-0.216746472437439,-0.963106988353964,0.159517697042316));
#1330=DIRECTION('ref_axis',(-0.775679891660375,0.26911880087381,0.570872820065898));
#1331=DIRECTION('',(-0.592740813812981,0.,-0.805393275139745));
#1332=DIRECTION('',(0.592740813812981,-2.67315888411991E-17,0.805393275139745));
#1333=DIRECTION('',(-0.775679891660375,0.26911880087381,0.570872820065898));
#1334=DIRECTION('center_axis',(-0.805393275139745,-2.95610155644096E-16,
0.592740813812981));
#1335=DIRECTION('ref_axis',(-2.38082431418768E-16,1.,1.75220204227863E-16));
#1336=DIRECTION('',(2.38082431418768E-16,1.,-1.75220204227863E-16));
#1337=DIRECTION('',(-0.592740813812981,3.28193201109101E-32,-0.805393275139745));
#1338=DIRECTION('center_axis',(-0.592740813812981,0.,-0.805393275139745));
#1339=DIRECTION('ref_axis',(0.486873790796437,-0.796592367799791,-0.358321798665152));
#1340=DIRECTION('center_axis',(-0.592740813812981,0.,-0.805393275139745));
#1341=DIRECTION('ref_axis',(0.486873790796437,-0.796592367799791,-0.358321798665152));
#1342=DIRECTION('center_axis',(0.592740813812981,0.,0.805393275139745));
#1343=DIRECTION('ref_axis',(-0.805393275139745,0.,0.592740813812981));
#1344=DIRECTION('center_axis',(0.805393275139745,1.7449559123575E-16,-0.592740813812981));
#1345=DIRECTION('ref_axis',(1.40537575722807E-16,-1.,-1.03430658755856E-16));
#1346=DIRECTION('',(0.592740813812981,0.,0.805393275139745));
#1347=DIRECTION('',(-1.40537575722807E-16,1.,1.03430658755856E-16));
#1348=DIRECTION('center_axis',(0.592740813812981,0.,0.805393275139745));
#1349=DIRECTION('ref_axis',(-0.641570136053614,-0.604516831496933,0.472172808366869));
#1350=DIRECTION('center_axis',(-0.592740813812981,0.,-0.805393275139745));
#1351=DIRECTION('ref_axis',(-0.641570136053614,-0.604516831496933,0.472172808366869));
#1352=DIRECTION('center_axis',(0.592740813812985,-9.82720652988449E-14,
0.805393275139742));
#1353=DIRECTION('ref_axis',(-0.641570136053645,-0.604516831496935,0.472172808366824));
#1354=DIRECTION('center_axis',(-0.592740813812981,0.,-0.805393275139745));
#1355=DIRECTION('ref_axis',(-0.641570136053613,-0.604516831496935,0.472172808366868));
#1356=DIRECTION('',(-0.592740813812985,9.82720652988449E-14,-0.805393275139742));
#1357=DIRECTION('center_axis',(0.592740813812981,0.,0.805393275139745));
#1358=DIRECTION('ref_axis',(-0.641570136053613,-0.604516831496935,0.472172808366868));
#1359=DIRECTION('',(0.592740813812985,-9.82720652988449E-14,0.805393275139742));
#1360=DIRECTION('center_axis',(0.592740813812981,0.,0.805393275139745));
#1361=DIRECTION('ref_axis',(-0.805393275139745,0.,0.592740813812981));
#1362=DIRECTION('',(-1.40537575722807E-16,-1.,1.03430658755856E-16));
#1363=DIRECTION('',(2.38082431418768E-16,-1.,-1.75220204227863E-16));
#1364=DIRECTION('center_axis',(-0.592740813812981,0.,-0.805393275139745));
#1365=DIRECTION('ref_axis',(0.486873790796404,-0.796592367799822,-0.358321798665128));
#1366=DIRECTION('',(-0.775679891660375,0.26911880087381,0.570872820065898));
#1367=DIRECTION('center_axis',(0.216746472437494,0.963106988353964,-0.159517697042241));
#1368=DIRECTION('ref_axis',(-0.775679891660363,0.26911880087381,0.570872820065914));
#1369=DIRECTION('',(0.592740813812985,-9.82987968876861E-14,0.805393275139742));
#1370=DIRECTION('',(-0.775679891660375,0.26911880087381,0.570872820065898));
#1371=DIRECTION('center_axis',(0.592740813812985,-9.82720652988449E-14,
0.805393275139742));
#1372=DIRECTION('ref_axis',(0.486873790796356,-0.796592367799822,-0.358321798665194));
#1373=DIRECTION('',(-0.592740813812985,9.82720652988449E-14,-0.805393275139742));
#1374=DIRECTION('center_axis',(0.592740813812981,0.,0.805393275139745));
#1375=DIRECTION('ref_axis',(0.486873790796404,-0.796592367799822,-0.358321798665128));
#1376=DIRECTION('center_axis',(-0.805393275139742,-2.95610155644096E-16,
0.592740813812985));
#1377=DIRECTION('ref_axis',(2.38082431418769E-16,-1.,-1.75220204227862E-16));
#1378=DIRECTION('',(2.38082431418768E-16,-1.,-1.75220204227863E-16));
#1379=DIRECTION('center_axis',(0.592740813812981,0.,0.805393275139745));
#1380=DIRECTION('ref_axis',(-0.805393275139745,0.,0.592740813812981));
#1381=DIRECTION('',(-1.40537575722807E-16,1.,1.03430658755856E-16));
#1382=DIRECTION('center_axis',(0.805393275139742,1.7449559123575E-16,-0.592740813812985));
#1383=DIRECTION('ref_axis',(-1.40537575722807E-16,1.,1.03430658755855E-16));
#1384=CARTESIAN_POINT('',(0.,0.,0.));
#1385=CARTESIAN_POINT('Origin',(156.54877088467,35.000005006299,44.9389031691511));
#1386=CARTESIAN_POINT('',(157.56860273634,33.999998993966,42.9467136862433));
#1387=CARTESIAN_POINT('',(155.336631553858,34.0000073556202,44.5893653031103));
#1388=CARTESIAN_POINT('Origin',(155.97842302338,33.2000031395815,43.1237259263453));
#1389=CARTESIAN_POINT('',(159.609101731286,33.9999912740748,41.4449790411262));
#1390=CARTESIAN_POINT('',(155.956027632493,34.0000050063036,44.1335116885606));
#1391=CARTESIAN_POINT('',(159.938767501962,35.9999944911715,43.6856156325978));
#1392=CARTESIAN_POINT('Origin',(155.97842302338,33.2000031395815,43.1237259263453));
#1393=CARTESIAN_POINT('',(156.336120861707,36.000008033839,46.3370354635552));
#1394=CARTESIAN_POINT('',(157.141514136847,36.0000050062944,45.7442946497416));
#1395=CARTESIAN_POINT('',(154.220646308946,34.0000115297555,45.4106906392003));
#1396=CARTESIAN_POINT('',(155.394134103075,35.1094417910557,45.9245490276724));
#1397=CARTESIAN_POINT('',(155.956027632493,34.0000050063036,44.1335116885606));
#1398=CARTESIAN_POINT('Origin',(156.761418956941,33.2000012625181,43.5407723103877));
#1399=CARTESIAN_POINT('',(157.741244914655,33.2000031395815,42.8196552443563));
#1400=CARTESIAN_POINT('Origin',(156.452615674431,33.2000031395815,43.7680405464571));
#1401=CARTESIAN_POINT('',(157.568599913414,32.3999989235428,42.9467159506948));
#1402=CARTESIAN_POINT('Origin',(156.452615674431,33.2000031395815,43.7680405464571));
#1403=CARTESIAN_POINT('',(159.609097829903,32.3999912740822,41.444981912405));
#1404=CARTESIAN_POINT('',(157.757347051238,32.3999982349772,42.8078046443607));
#1405=CARTESIAN_POINT('Origin',(156.452615674431,33.2000031395815,43.7680405464571));
#1406=CARTESIAN_POINT('Origin',(158.350085426687,31.3999982349818,43.6131997140497));
#1407=CARTESIAN_POINT('',(156.336107206868,30.4000080338647,46.337045513031));
#1408=CARTESIAN_POINT('',(154.220642407564,32.4000115297629,45.4106935104791));
#1409=CARTESIAN_POINT('',(156.532990054155,30.2138709811536,46.4232595780972));
#1410=CARTESIAN_POINT('',(159.938753847123,30.3999944911972,43.6856256820736));
#1411=CARTESIAN_POINT('',(158.942823802136,30.3999982349864,44.4185947837386));
#1412=CARTESIAN_POINT('Origin',(155.97842302338,33.2000031395815,43.1237259263453));
#1413=CARTESIAN_POINT('',(155.336628552504,32.4000072851971,44.5893673251216));
#1414=CARTESIAN_POINT('Origin',(155.97842302338,33.2000031395815,43.1237259263453));
#1415=CARTESIAN_POINT('',(157.757347051238,32.3999982349772,42.8078046443607));
#1416=CARTESIAN_POINT('Origin',(156.761418956941,33.2000012625181,43.5407723103877));
#1417=CARTESIAN_POINT('',(153.848649138892,33.2000129281221,45.6844673295701));
#1418=CARTESIAN_POINT('',(155.150639234081,36.000008033839,44.7262489132757));
#1419=CARTESIAN_POINT('',(153.848649138892,33.2000129281221,45.6844673295701));
#1420=CARTESIAN_POINT('Origin',(156.452615674431,33.2000031395815,43.7680405464571));
#1421=CARTESIAN_POINT('Origin',(160.531494660936,30.3999944911972,44.4910189572133));
#1422=CARTESIAN_POINT('',(158.114329648307,30.4000080338647,48.7532253384502));
#1423=CARTESIAN_POINT('',(156.928848020681,30.4000080338647,47.1424387881707));
#1424=CARTESIAN_POINT('',(161.716976288562,30.3999944911972,46.1018055074928));
#1425=CARTESIAN_POINT('',(160.566644602319,30.3999988153958,46.9484087271932));
#1426=CARTESIAN_POINT('',(157.567790591871,30.3999944911972,40.4640525815146));
#1427=CARTESIAN_POINT('Origin',(159.416319743496,33.2000031395815,47.7950069221558));
#1428=CARTESIAN_POINT('',(156.812353207957,33.2000129281221,49.7114337052688));
#1429=CARTESIAN_POINT('',(157.78883553822,31.1000092574291,48.9927774301549));
#1430=CARTESIAN_POINT('',(158.114343303146,36.000008033839,48.7532152889745));
#1431=CARTESIAN_POINT('',(157.137850731754,33.9000117045514,49.4718791011952));
#1432=CARTESIAN_POINT('',(161.7169899434,35.9999944911715,46.1017954580171));
#1433=CARTESIAN_POINT('',(158.76533493703,36.0000055867039,48.2741085931962));
#1434=CARTESIAN_POINT('Origin',(159.416319743496,33.2000031395815,47.7950069221558));
#1435=CARTESIAN_POINT('',(159.416319743496,31.6000031395815,47.7950069221558));
#1436=CARTESIAN_POINT('Origin',(159.416319743496,33.2000031395815,47.7950069221558));
#1437=CARTESIAN_POINT('Origin',(158.23083811587,33.2000031395815,46.1842203718763));
#1438=CARTESIAN_POINT('',(160.009060557309,31.6000031395815,48.6004001972956));
#1439=CARTESIAN_POINT('',(158.23083811587,31.6000031395815,46.1842203718763));
#1440=CARTESIAN_POINT('Origin',(160.009060557309,33.2000031395815,48.6004001972956));
#1441=CARTESIAN_POINT('Origin',(155.626871580331,33.2000129281221,48.1006471549893));
#1442=CARTESIAN_POINT('',(156.92886167552,36.000008033839,47.142428738695));
#1443=CARTESIAN_POINT('',(155.626871580331,33.2000129281221,48.1006471549893));
#1444=CARTESIAN_POINT('Origin',(156.928848020681,30.4000080338647,47.1424387881707));
#1445=CARTESIAN_POINT('Origin',(156.92886167552,36.000008033839,47.142428738695));
#1446=CARTESIAN_POINT('',(157.56780424671,35.9999944911715,40.4640425320389));
#1447=CARTESIAN_POINT('Origin',(155.267134046805,33.2000031395815,42.1572539961776));
#1448=CARTESIAN_POINT('',(155.267134046805,29.2000031395815,42.1572539961776));
#1449=CARTESIAN_POINT('',(160.009060557309,29.2000031395815,48.6004001972956));
#1450=CARTESIAN_POINT('',(155.267134046805,29.2000031395815,42.1572539961776));
#1451=CARTESIAN_POINT('',(155.267134046805,37.2000031395816,42.1572539961776));
#1452=CARTESIAN_POINT('Origin',(155.267134046805,33.2000031395815,42.1572539961776));
#1453=CARTESIAN_POINT('',(160.009060557309,37.2000031395816,48.6004001972956));
#1454=CARTESIAN_POINT('',(155.267134046805,37.2000031395816,42.1572539961776));
#1455=CARTESIAN_POINT('Origin',(160.009060557309,33.2000031395815,48.6004001972956));
#1456=CARTESIAN_POINT('Origin',(155.267134046805,33.2000031395815,42.1572539961776));
#1457=CARTESIAN_POINT('',(156.555763287028,33.2000031395815,41.2088686940769));
#1458=CARTESIAN_POINT('Origin',(155.267134046805,33.2000031395815,42.1572539961776));
#1459=CARTESIAN_POINT('',(156.555763287029,33.2000031395815,41.2088686940768));
#1460=CARTESIAN_POINT('Origin',(152.045560946246,29.2000031395815,44.5282172514296));
#1461=CARTESIAN_POINT('',(152.045560946246,29.2000031395815,44.5282172514296));
#1462=CARTESIAN_POINT('',(155.14853481822,29.2000031395815,42.2445388114831));
#1463=CARTESIAN_POINT('',(156.78748745675,29.2000031395815,50.9713634525475));
#1464=CARTESIAN_POINT('',(158.183739438977,29.2000031395815,49.9437716389834));
#1465=CARTESIAN_POINT('',(152.045560946246,29.2000031395815,44.5282172514296));
#1466=CARTESIAN_POINT('Origin',(152.045560946246,37.2000031395816,44.5282172514296));
#1467=CARTESIAN_POINT('',(152.045560946246,37.2000031395816,44.5282172514296));
#1468=CARTESIAN_POINT('',(152.045560946246,37.2000031395816,44.5282172514296));
#1469=CARTESIAN_POINT('',(156.78748745675,37.2000031395816,50.9713634525475));
#1470=CARTESIAN_POINT('',(156.78748745675,37.0638375003698,50.9713634525475));
#1471=CARTESIAN_POINT('',(152.045560946246,37.2000031395816,44.5282172514296));
#1472=CARTESIAN_POINT('Origin',(155.267134046805,37.2000031395816,42.1572539961776));
#1473=CARTESIAN_POINT('',(151.286027999723,37.2000031395816,45.0872064939977));
#1474=CARTESIAN_POINT('',(159.794525989256,37.2000031395816,48.7582900113574));
#1475=CARTESIAN_POINT('Origin',(155.267134046805,33.2000031395815,42.1572539961776));
#1476=CARTESIAN_POINT('Origin',(159.579991421204,36.9276718611581,48.9161798254192));
#1477=CARTESIAN_POINT('',(170.973802810658,19.0988215830428,40.5307397629293));
#1478=CARTESIAN_POINT('',(170.973802810658,117.301178416957,40.5307397629293));
#1479=CARTESIAN_POINT('',(170.973802810658,23.2226063366235,40.5307397629293));
#1480=CARTESIAN_POINT('',(170.053877037839,18.2320252935242,41.207772422699));
#1481=CARTESIAN_POINT('Origin',(170.248948863032,19.0988215830428,41.0642064953609));
#1482=CARTESIAN_POINT('',(149.834391079316,25.2470889479332,56.0885951609514));
#1483=CARTESIAN_POINT('',(163.858144783087,20.3816079407742,45.7676110657663));
#1484=CARTESIAN_POINT('',(148.186180031749,27.9437885153242,57.3016198879092));
#1485=CARTESIAN_POINT('Origin',(150.44128120214,27.9437885153242,55.6419456092329));
#1486=CARTESIAN_POINT('',(148.186180031749,108.456211484676,57.3016198879092));
#1487=CARTESIAN_POINT('',(148.186180031749,63.6701144014372,57.3016198879093));
#1488=CARTESIAN_POINT('',(149.834391079316,111.152911052067,56.0885951609514));
#1489=CARTESIAN_POINT('Origin',(150.44128120214,108.456211484676,55.6419456092329));
#1490=CARTESIAN_POINT('',(170.053877037839,118.167974706476,41.207772422699));
#1491=CARTESIAN_POINT('',(163.858144783087,116.018392059226,45.7676110657663));
#1492=CARTESIAN_POINT('Origin',(170.248948863032,117.301178416957,41.0642064953609));
#1493=CARTESIAN_POINT('',(160.009060557309,99.2000031395816,48.6004001972956));
#1494=CARTESIAN_POINT('',(160.009060557309,107.200003139582,48.6004001972956));
#1495=CARTESIAN_POINT('Origin',(160.009060557309,103.200003139582,48.6004001972956));
#1496=CARTESIAN_POINT('',(156.78748745675,107.200003139582,50.9713634525475));
#1497=CARTESIAN_POINT('',(159.794525989256,107.200003139582,48.7582900113574));
#1498=CARTESIAN_POINT('',(156.78748745675,99.2000031395816,50.9713634525475));
#1499=CARTESIAN_POINT('',(156.78748745675,72.0638375003698,50.9713634525475));
#1500=CARTESIAN_POINT('',(158.183739438977,99.2000031395816,49.9437716389834));
#1501=CARTESIAN_POINT('Origin',(159.579991421204,36.9276718611581,48.9161798254192));
#1502=CARTESIAN_POINT('Origin',(156.54877088467,105.000005006299,44.9389031691511));
#1503=CARTESIAN_POINT('',(157.56860273634,103.999998993966,42.9467136862433));
#1504=CARTESIAN_POINT('',(155.336631553858,104.000007355621,44.5893653031103));
#1505=CARTESIAN_POINT('Origin',(155.97842302338,103.200003139582,43.1237259263453));
#1506=CARTESIAN_POINT('',(159.609101731286,103.999991274075,41.4449790411262));
#1507=CARTESIAN_POINT('',(155.956027632493,104.000005006304,44.1335116885606));
#1508=CARTESIAN_POINT('',(159.938767501962,105.999994491172,43.6856156325978));
#1509=CARTESIAN_POINT('Origin',(155.97842302338,103.200003139582,43.1237259263453));
#1510=CARTESIAN_POINT('',(156.336120861707,106.000008033839,46.3370354635552));
#1511=CARTESIAN_POINT('',(157.141514136847,106.000005006294,45.7442946497416));
#1512=CARTESIAN_POINT('',(154.220646308946,104.000011529756,45.4106906392003));
#1513=CARTESIAN_POINT('',(155.394134103075,105.109441791056,45.9245490276724));
#1514=CARTESIAN_POINT('',(155.956027632493,104.000005006304,44.1335116885606));
#1515=CARTESIAN_POINT('Origin',(156.761418956941,103.200001262518,43.5407723103877));
#1516=CARTESIAN_POINT('',(157.741244914655,103.200003139582,42.8196552443563));
#1517=CARTESIAN_POINT('Origin',(156.452615674431,103.200003139582,43.7680405464571));
#1518=CARTESIAN_POINT('',(157.568599913414,102.399998923543,42.9467159506951));
#1519=CARTESIAN_POINT('Origin',(156.452615674431,103.200003139582,43.7680405464571));
#1520=CARTESIAN_POINT('',(159.609097829903,102.399991274082,41.444981912405));
#1521=CARTESIAN_POINT('',(157.757347051238,102.399998234977,42.8078046443607));
#1522=CARTESIAN_POINT('Origin',(156.452615674431,103.200003139582,43.7680405464571));
#1523=CARTESIAN_POINT('Origin',(158.350085426687,101.399998234982,43.6131997140497));
#1524=CARTESIAN_POINT('',(156.336107206868,100.400008033865,46.337045513031));
#1525=CARTESIAN_POINT('',(154.220642407564,102.400011529763,45.4106935104791));
#1526=CARTESIAN_POINT('',(156.532990054155,100.213870981154,46.4232595780972));
#1527=CARTESIAN_POINT('',(159.938753847123,100.399994491197,43.6856256820736));
#1528=CARTESIAN_POINT('',(158.942823802136,100.399998234986,44.4185947837386));
#1529=CARTESIAN_POINT('Origin',(155.97842302338,103.200003139582,43.1237259263453));
#1530=CARTESIAN_POINT('',(155.336628552504,102.400007285197,44.5893673251216));
#1531=CARTESIAN_POINT('Origin',(155.97842302338,103.200003139582,43.1237259263453));
#1532=CARTESIAN_POINT('',(157.757347051238,102.399998234977,42.8078046443607));
#1533=CARTESIAN_POINT('Origin',(156.761418956941,103.200001262518,43.5407723103877));
#1534=CARTESIAN_POINT('',(153.848649138892,103.200012928122,45.6844673295701));
#1535=CARTESIAN_POINT('',(155.150639234081,106.000008033839,44.7262489132757));
#1536=CARTESIAN_POINT('',(153.848649138892,103.200012928122,45.6844673295701));
#1537=CARTESIAN_POINT('Origin',(156.452615674431,103.200003139582,43.7680405464571));
#1538=CARTESIAN_POINT('Origin',(160.531494660936,100.399994491197,44.4910189572133));
#1539=CARTESIAN_POINT('',(158.114329648307,100.400008033865,48.7532253384502));
#1540=CARTESIAN_POINT('',(156.928848020681,100.400008033865,47.1424387881707));
#1541=CARTESIAN_POINT('',(161.716976288562,100.399994491197,46.1018055074928));
#1542=CARTESIAN_POINT('',(160.566644602319,100.399998815396,46.9484087271932));
#1543=CARTESIAN_POINT('',(157.567790591871,100.399994491197,40.4640525815146));
#1544=CARTESIAN_POINT('Origin',(159.416319743496,103.200003139582,47.7950069221558));
#1545=CARTESIAN_POINT('',(156.812353207957,103.200012928122,49.7114337052688));
#1546=CARTESIAN_POINT('',(157.78883553822,101.100009257429,48.9927774301549));
#1547=CARTESIAN_POINT('',(158.114343303146,106.000008033839,48.7532152889745));
#1548=CARTESIAN_POINT('',(157.137850731754,103.900011704551,49.4718791011952));
#1549=CARTESIAN_POINT('',(161.7169899434,105.999994491172,46.1017954580171));
#1550=CARTESIAN_POINT('',(158.76533493703,106.000005586704,48.2741085931962));
#1551=CARTESIAN_POINT('Origin',(159.416319743496,103.200003139582,47.7950069221558));
#1552=CARTESIAN_POINT('',(159.416319743496,101.600003139582,47.7950069221558));
#1553=CARTESIAN_POINT('Origin',(159.416319743496,103.200003139582,47.7950069221558));
#1554=CARTESIAN_POINT('Origin',(158.23083811587,103.200003139582,46.1842203718763));
#1555=CARTESIAN_POINT('',(160.009060557309,101.600003139582,48.6004001972956));
#1556=CARTESIAN_POINT('',(158.23083811587,101.600003139582,46.1842203718763));
#1557=CARTESIAN_POINT('Origin',(160.009060557309,103.200003139582,48.6004001972956));
#1558=CARTESIAN_POINT('Origin',(155.626871580331,103.200012928122,48.1006471549893));
#1559=CARTESIAN_POINT('',(156.92886167552,106.000008033839,47.142428738695));
#1560=CARTESIAN_POINT('',(155.626871580331,103.200012928122,48.1006471549893));
#1561=CARTESIAN_POINT('Origin',(156.928848020681,100.400008033865,47.1424387881707));
#1562=CARTESIAN_POINT('Origin',(156.92886167552,106.000008033839,47.142428738695));
#1563=CARTESIAN_POINT('',(157.56780424671,105.999994491172,40.4640425320389));
#1564=CARTESIAN_POINT('Origin',(155.267134046805,103.200003139582,42.1572539961776));
#1565=CARTESIAN_POINT('',(155.267134046805,99.2000031395816,42.1572539961776));
#1566=CARTESIAN_POINT('',(155.267134046805,99.2000031395816,42.1572539961776));
#1567=CARTESIAN_POINT('',(155.267134046805,107.200003139582,42.1572539961776));
#1568=CARTESIAN_POINT('Origin',(155.267134046805,103.200003139582,42.1572539961776));
#1569=CARTESIAN_POINT('',(155.267134046805,107.200003139582,42.1572539961776));
#1570=CARTESIAN_POINT('Origin',(155.267134046805,103.200003139582,42.1572539961776));
#1571=CARTESIAN_POINT('',(156.555763287028,103.200003139582,41.2088686940769));
#1572=CARTESIAN_POINT('Origin',(155.267134046805,103.200003139582,42.1572539961776));
#1573=CARTESIAN_POINT('',(156.555763287029,103.200003139582,41.2088686940768));
#1574=CARTESIAN_POINT('Origin',(152.045560946246,99.2000031395816,44.5282172514296));
#1575=CARTESIAN_POINT('',(152.045560946246,99.2000031395816,44.5282172514296));
#1576=CARTESIAN_POINT('',(155.14853481822,99.2000031395816,42.2445388114831));
#1577=CARTESIAN_POINT('',(152.045560946246,99.2000031395816,44.5282172514296));
#1578=CARTESIAN_POINT('Origin',(152.045560946246,107.200003139582,44.5282172514296));
#1579=CARTESIAN_POINT('',(152.045560946246,107.200003139582,44.5282172514296));
#1580=CARTESIAN_POINT('',(152.045560946246,107.200003139582,44.5282172514296));
#1581=CARTESIAN_POINT('',(152.045560946246,107.200003139582,44.5282172514296));
#1582=CARTESIAN_POINT('Origin',(155.267134046805,107.200003139582,42.1572539961776));
#1583=CARTESIAN_POINT('',(151.286027999723,107.200003139582,45.0872064939977));
#1584=CARTESIAN_POINT('Origin',(155.267134046805,103.200003139582,42.1572539961776));
#1585=CARTESIAN_POINT('Origin',(171.873185548738,118.593527091396,41.1104554848167));
#1586=CARTESIAN_POINT('',(150.427131893129,111.152911052067,56.8939884360911));
#1587=CARTESIAN_POINT('',(150.427131893129,111.152911052067,56.8939884360911));
#1588=CARTESIAN_POINT('',(170.646617851652,118.167974706476,42.0131656978388));
#1589=CARTESIAN_POINT('',(164.4508855969,116.018392059226,46.5730043409061));
#1590=CARTESIAN_POINT('',(170.646617851652,118.167974706476,42.0131656978388));
#1591=CARTESIAN_POINT('Origin',(170.841689676845,117.301178416957,41.8695997705007));
#1592=CARTESIAN_POINT('',(171.566543624471,117.301178416957,41.336133038069));
#1593=CARTESIAN_POINT('Origin',(170.841689676845,117.301178416957,41.8695997705007));
#1594=CARTESIAN_POINT('',(171.566543624471,117.301178416957,41.336133038069));
#1595=CARTESIAN_POINT('Origin',(151.034022015953,108.456211484676,56.4473388843727));
#1596=CARTESIAN_POINT('',(148.778920845562,108.456211484676,58.107013163049));
#1597=CARTESIAN_POINT('',(148.778920845562,108.456211484676,58.107013163049));
#1598=CARTESIAN_POINT('Origin',(151.034022015953,108.456211484676,56.4473388843726));
#1599=CARTESIAN_POINT('Origin',(151.034022015952,108.456211484676,56.4473388843712));
#1600=CARTESIAN_POINT('',(149.97196430101,113.17543572761,57.22897559988));
#1601=CARTESIAN_POINT('',(147.087594967769,108.456211484676,59.3517688720562));
#1602=CARTESIAN_POINT('Origin',(151.034022015953,108.456211484676,56.447338884372));
#1603=CARTESIAN_POINT('',(147.680335781582,108.456211484676,60.157162147196));
#1604=CARTESIAN_POINT('',(147.087594967768,108.456211484676,59.3517688720548));
#1605=CARTESIAN_POINT('',(150.564705114823,113.17543572761,58.0343688750197));
#1606=CARTESIAN_POINT('Origin',(151.626762829766,108.456211484676,57.2527321595117));
#1607=CARTESIAN_POINT('',(149.971964301009,113.17543572761,57.2289755998782));
#1608=CARTESIAN_POINT('Origin',(171.418017956616,120.616051766939,41.4454426486011));
#1609=CARTESIAN_POINT('',(171.315803981868,120.580589068198,41.5206684996868));
#1610=CARTESIAN_POINT('',(171.908544795681,120.580589068198,42.3260617748266));
#1611=CARTESIAN_POINT('',(171.315803981865,120.580589068198,41.5206684996826));
#1612=CARTESIAN_POINT('',(163.995718004782,118.040916734769,46.9079915046949));
#1613=CARTESIAN_POINT('',(164.588458818594,118.040916734769,47.7133847798347));
#1614=CARTESIAN_POINT('Origin',(171.727622279496,118.750685790325,41.2175848753023));
#1615=CARTESIAN_POINT('',(173.257869502264,118.750685790325,40.0913773290617));
#1616=CARTESIAN_POINT('Origin',(171.727622279498,118.750685790325,41.2175848753048));
#1617=CARTESIAN_POINT('',(173.850610316078,118.750685790325,40.8967706042015));
#1618=CARTESIAN_POINT('Origin',(172.320363093311,118.750685790325,42.0229781504446));
#1619=CARTESIAN_POINT('',(173.257869502261,118.750685790325,40.0913773290576));
#1620=CARTESIAN_POINT('Origin',(171.873185548738,17.8064729086042,41.1104554848167));
#1621=CARTESIAN_POINT('',(150.427131893129,25.2470889479331,56.8939884360911));
#1622=CARTESIAN_POINT('',(150.427131893129,25.2470889479331,56.8939884360911));
#1623=CARTESIAN_POINT('',(170.646617851652,18.2320252935242,42.0131656978388));
#1624=CARTESIAN_POINT('',(170.646617851652,18.2320252935242,42.0131656978388));
#1625=CARTESIAN_POINT('',(164.4508855969,20.3816079407742,46.5730043409061));
#1626=CARTESIAN_POINT('Origin',(171.566543624471,9.51754081208897,41.336133038069));
#1627=CARTESIAN_POINT('',(171.566543624471,19.0988215830428,41.336133038069));
#1628=CARTESIAN_POINT('',(171.566543624471,113.177393663377,41.336133038069));
#1629=CARTESIAN_POINT('',(171.566543624471,19.0988215830428,41.336133038069));
#1630=CARTESIAN_POINT('Origin',(170.841689676845,19.0988215830428,41.8695997705007));
#1631=CARTESIAN_POINT('Origin',(170.841689676845,19.0988215830428,41.8695997705007));
#1632=CARTESIAN_POINT('Origin',(159.579991421204,36.9276718611581,48.9161798254192));
#1633=CARTESIAN_POINT('Origin',(148.778920845562,108.532099335968,58.107013163049));
#1634=CARTESIAN_POINT('',(148.778920845562,27.9437885153242,58.107013163049));
#1635=CARTESIAN_POINT('',(148.778920845562,27.9437885153242,58.107013163049));
#1636=CARTESIAN_POINT('',(148.778920845562,72.7298855985629,58.107013163049));
#1637=CARTESIAN_POINT('Origin',(151.034022015953,27.9437885153242,56.4473388843727));
#1638=CARTESIAN_POINT('Origin',(151.034022015953,27.9437885153242,56.4473388843726));
#1639=CARTESIAN_POINT('Origin',(151.034022015952,27.9437885153243,56.4473388843712));
#1640=CARTESIAN_POINT('',(149.97196430101,23.2245642723898,57.22897559988));
#1641=CARTESIAN_POINT('',(147.087594967769,27.9437885153243,59.3517688720562));
#1642=CARTESIAN_POINT('Origin',(151.034022015953,27.9437885153243,56.447338884372));
#1643=CARTESIAN_POINT('',(150.564705114823,23.2245642723897,58.0343688750197));
#1644=CARTESIAN_POINT('',(149.971964301009,23.2245642723898,57.2289755998782));
#1645=CARTESIAN_POINT('',(147.680335781582,27.9437885153241,60.157162147196));
#1646=CARTESIAN_POINT('Origin',(151.626762829766,27.9437885153241,57.2527321595117));
#1647=CARTESIAN_POINT('',(147.087594967768,27.9437885153243,59.3517688720548));
#1648=CARTESIAN_POINT('Origin',(160.172732235017,36.9276718611581,49.721573100559));
#1649=CARTESIAN_POINT('',(147.087594967769,108.002213737411,59.3517688720562));
#1650=CARTESIAN_POINT('',(173.257869502264,17.6493142096749,40.0913773290617));
#1651=CARTESIAN_POINT('',(173.257869502264,51.9504713614814,40.0913773290617));
#1652=CARTESIAN_POINT('',(171.315803981868,15.8194109318024,41.5206684996868));
#1653=CARTESIAN_POINT('Origin',(171.727622279498,17.6493142096749,41.2175848753048));
#1654=CARTESIAN_POINT('',(163.995718004782,18.3590832652309,46.9079915046949));
#1655=CARTESIAN_POINT('Origin',(171.418017956616,15.7839482330609,41.4454426486011));
#1656=CARTESIAN_POINT('',(171.908544795681,15.8194109318023,42.3260617748266));
#1657=CARTESIAN_POINT('',(171.315803981865,15.8194109318024,41.5206684996826));
#1658=CARTESIAN_POINT('',(164.588458818594,18.3590832652308,47.7133847798347));
#1659=CARTESIAN_POINT('Origin',(171.727622279496,17.6493142096749,41.2175848753023));
#1660=CARTESIAN_POINT('',(173.850610316078,17.6493142096748,40.8967706042015));
#1661=CARTESIAN_POINT('',(173.257869502261,17.6493142096749,40.0913773290576));
#1662=CARTESIAN_POINT('Origin',(172.320363093311,17.6493142096748,42.0229781504446));
#1663=CARTESIAN_POINT('Origin',(173.257869502264,66.9732708618048,40.0913773290618));
#1664=CARTESIAN_POINT('',(173.850610316078,51.9504713614814,40.8967706042015));
#1665=CARTESIAN_POINT('Origin',(160.76547304883,36.9276718611581,50.5269663756987));
#1666=CARTESIAN_POINT('',(147.680335781582,28.3977862625886,60.157162147196));
#1667=CARTESIAN_POINT('Origin',(147.087594967769,19.8679006640192,59.3517688720561));
#1668=UNCERTAINTY_MEASURE_WITH_UNIT(LENGTH_MEASURE(0.01),#1672,
'DISTANCE_ACCURACY_VALUE',
'Maximum model space distance between geometric entities at asserted c
onnectivities');
#1669=UNCERTAINTY_MEASURE_WITH_UNIT(LENGTH_MEASURE(0.01),#1672,
'DISTANCE_ACCURACY_VALUE',
'Maximum model space distance between geometric entities at asserted c
onnectivities');
#1670=(
GEOMETRIC_REPRESENTATION_CONTEXT(3)
GLOBAL_UNCERTAINTY_ASSIGNED_CONTEXT((#1668))
GLOBAL_UNIT_ASSIGNED_CONTEXT((#1672,#1674,#1675))
REPRESENTATION_CONTEXT('','3D')
);
#1671=(
GEOMETRIC_REPRESENTATION_CONTEXT(3)
GLOBAL_UNCERTAINTY_ASSIGNED_CONTEXT((#1669))
GLOBAL_UNIT_ASSIGNED_CONTEXT((#1672,#1674,#1675))
REPRESENTATION_CONTEXT('','3D')
);
#1672=(
LENGTH_UNIT()
NAMED_UNIT(*)
SI_UNIT(.MILLI.,.METRE.)
);
#1673=(
LENGTH_UNIT()
NAMED_UNIT(*)
SI_UNIT($,.METRE.)
);
#1674=(
NAMED_UNIT(*)
PLANE_ANGLE_UNIT()
SI_UNIT($,.RADIAN.)
);
#1675=(
NAMED_UNIT(*)
SI_UNIT($,.STERADIAN.)
SOLID_ANGLE_UNIT()
);
#1676=SHAPE_DEFINITION_REPRESENTATION(#1677,#1678);
#1677=PRODUCT_DEFINITION_SHAPE('',$,#1680);
#1678=SHAPE_REPRESENTATION('',(#996),#1670);
#1679=PRODUCT_DEFINITION_CONTEXT('part definition',#1684,'design');
#1680=PRODUCT_DEFINITION('Rear window','Rear window',#1681,#1679);
#1681=PRODUCT_DEFINITION_FORMATION('',$,#1686);
#1682=PRODUCT_RELATED_PRODUCT_CATEGORY('Rear window','Rear window',(#1686));
#1683=APPLICATION_PROTOCOL_DEFINITION('international standard',
'automotive_design',2009,#1684);
#1684=APPLICATION_CONTEXT(
'Core Data for Automotive Mechanical Design Process');
#1685=PRODUCT_CONTEXT('part definition',#1684,'mechanical');
#1686=PRODUCT('Rear window','Rear window',$,(#1685));
#1687=PRESENTATION_STYLE_ASSIGNMENT((#1689));
#1688=PRESENTATION_STYLE_ASSIGNMENT((#1690));
#1689=SURFACE_STYLE_USAGE(.BOTH.,#1691);
#1690=SURFACE_STYLE_USAGE(.BOTH.,#1692);
#1691=SURFACE_SIDE_STYLE('',(#1693));
#1692=SURFACE_SIDE_STYLE('',(#1694));
#1693=SURFACE_STYLE_FILL_AREA(#1695);
#1694=SURFACE_STYLE_FILL_AREA(#1696);
#1695=FILL_AREA_STYLE('Stahl - satiniert',(#1697));
#1696=FILL_AREA_STYLE('Opaque(25,25,25)',(#1698));
#1697=FILL_AREA_STYLE_COLOUR('Stahl - satiniert',#1699);
#1698=FILL_AREA_STYLE_COLOUR('Opaque(25,25,25)',#1700);
#1699=COLOUR_RGB('Stahl - satiniert',0.627450980392157,0.627450980392157,
0.627450980392157);
#1700=COLOUR_RGB('Opaque(25,25,25)',0.0980392156862745,0.0980392156862745,
0.0980392156862745);
ENDSEC;
END-ISO-10303-21;
