ISO-10303-21;
HEADER;
/* Generated by software containing ST-Developer
 * from STEP Tools, Inc. (www.steptools.com) 
 */

FILE_DESCRIPTION(
/* description */ (''),
/* implementation_level */ '2;1');

FILE_NAME(
/* name */ 'Rear wing holder.step',
/* time_stamp */ '2026-04-11T13:50:02+02:00',
/* author */ (''),
/* organization */ (''),
/* preprocessor_version */ 'ST-DEVELOPER v20.1',
/* originating_system */ 'Autodesk Translation Framework v14.24.0.0',
/* authorisation */ '');

FILE_SCHEMA (('AUTOMOTIVE_DESIGN { 1 0 10303 214 3 1 1 }'));
ENDSEC;

DATA;
#10=MECHANICAL_DESIGN_GEOMETRIC_PRESENTATION_REPRESENTATION('',(#13),#1245);
#11=SHAPE_REPRESENTATION_RELATIONSHIP('SRR','None',#1252,#12);
#12=ADVANCED_BREP_SHAPE_REPRESENTATION('',(#14),#1244);
#13=STYLED_ITEM('',(#1262),#14);
#14=MANIFOLD_SOLID_BREP('Rear wing holder',#745);
#15=CONICAL_SURFACE('',#797,1.5,0.872664625997165);
#16=CONICAL_SURFACE('',#811,1.5,0.872664625997165);
#17=FACE_BOUND('',#104,.T.);
#18=FACE_BOUND('',#107,.T.);
#19=FACE_BOUND('',#109,.T.);
#20=FACE_BOUND('',#110,.T.);
#21=FACE_BOUND('',#118,.T.);
#22=FACE_BOUND('',#119,.T.);
#23=FACE_BOUND('',#133,.T.);
#24=FACE_BOUND('',#143,.T.);
#25=CIRCLE('',#761,3.99999999999999);
#26=CIRCLE('',#762,3.99999999999999);
#27=CIRCLE('',#764,3.99999999999999);
#28=CIRCLE('',#765,1.75);
#29=CIRCLE('',#767,3.99999999999999);
#30=CIRCLE('',#768,3.99999999999999);
#31=CIRCLE('',#770,3.99999999999999);
#32=CIRCLE('',#771,1.75);
#33=CIRCLE('',#773,1.75);
#34=CIRCLE('',#774,1.75);
#35=CIRCLE('',#778,3.99999999999999);
#36=CIRCLE('',#783,4.);
#37=CIRCLE('',#784,4.);
#38=CIRCLE('',#785,3.);
#39=CIRCLE('',#786,3.);
#40=CIRCLE('',#789,3.99999999999999);
#41=CIRCLE('',#798,1.6);
#42=CIRCLE('',#799,1.6);
#43=CIRCLE('',#800,3.);
#44=CIRCLE('',#803,4.);
#45=CIRCLE('',#805,1.6);
#46=CIRCLE('',#812,1.6);
#47=CIRCLE('',#813,3.);
#48=CIRCLE('',#814,1.6);
#49=CIRCLE('',#817,4.);
#50=CIRCLE('',#819,1.6);
#51=CYLINDRICAL_SURFACE('',#760,3.99999999999999);
#52=CYLINDRICAL_SURFACE('',#766,3.99999999999999);
#53=CYLINDRICAL_SURFACE('',#792,3.99999999999999);
#54=CYLINDRICAL_SURFACE('',#793,1.75);
#55=CYLINDRICAL_SURFACE('',#794,3.99999999999999);
#56=CYLINDRICAL_SURFACE('',#801,3.);
#57=CYLINDRICAL_SURFACE('',#802,4.);
#58=CYLINDRICAL_SURFACE('',#806,1.6);
#59=CYLINDRICAL_SURFACE('',#815,3.);
#60=CYLINDRICAL_SURFACE('',#816,4.);
#61=CYLINDRICAL_SURFACE('',#820,1.6);
#62=CYLINDRICAL_SURFACE('',#822,1.75);
#63=FACE_OUTER_BOUND('',#101,.T.);
#64=FACE_OUTER_BOUND('',#102,.T.);
#65=FACE_OUTER_BOUND('',#103,.T.);
#66=FACE_OUTER_BOUND('',#105,.T.);
#67=FACE_OUTER_BOUND('',#106,.T.);
#68=FACE_OUTER_BOUND('',#108,.T.);
#69=FACE_OUTER_BOUND('',#111,.T.);
#70=FACE_OUTER_BOUND('',#112,.T.);
#71=FACE_OUTER_BOUND('',#113,.T.);
#72=FACE_OUTER_BOUND('',#114,.T.);
#73=FACE_OUTER_BOUND('',#115,.T.);
#74=FACE_OUTER_BOUND('',#116,.T.);
#75=FACE_OUTER_BOUND('',#117,.T.);
#76=FACE_OUTER_BOUND('',#120,.T.);
#77=FACE_OUTER_BOUND('',#121,.T.);
#78=FACE_OUTER_BOUND('',#122,.T.);
#79=FACE_OUTER_BOUND('',#123,.T.);
#80=FACE_OUTER_BOUND('',#124,.T.);
#81=FACE_OUTER_BOUND('',#125,.T.);
#82=FACE_OUTER_BOUND('',#126,.T.);
#83=FACE_OUTER_BOUND('',#127,.T.);
#84=FACE_OUTER_BOUND('',#128,.T.);
#85=FACE_OUTER_BOUND('',#129,.T.);
#86=FACE_OUTER_BOUND('',#130,.T.);
#87=FACE_OUTER_BOUND('',#131,.T.);
#88=FACE_OUTER_BOUND('',#132,.T.);
#89=FACE_OUTER_BOUND('',#134,.T.);
#90=FACE_OUTER_BOUND('',#135,.T.);
#91=FACE_OUTER_BOUND('',#136,.T.);
#92=FACE_OUTER_BOUND('',#137,.T.);
#93=FACE_OUTER_BOUND('',#138,.T.);
#94=FACE_OUTER_BOUND('',#139,.T.);
#95=FACE_OUTER_BOUND('',#140,.T.);
#96=FACE_OUTER_BOUND('',#141,.T.);
#97=FACE_OUTER_BOUND('',#142,.T.);
#98=FACE_OUTER_BOUND('',#144,.T.);
#99=FACE_OUTER_BOUND('',#145,.T.);
#100=FACE_OUTER_BOUND('',#146,.T.);
#101=EDGE_LOOP('',(#475,#476,#477,#478,#479,#480,#481,#482,#483,#484,#485,
#486,#487,#488,#489,#490));
#102=EDGE_LOOP('',(#491,#492,#493,#494));
#103=EDGE_LOOP('',(#495,#496,#497,#498,#499,#500));
#104=EDGE_LOOP('',(#501));
#105=EDGE_LOOP('',(#502,#503,#504,#505));
#106=EDGE_LOOP('',(#506,#507,#508,#509,#510,#511));
#107=EDGE_LOOP('',(#512));
#108=EDGE_LOOP('',(#513,#514,#515,#516));
#109=EDGE_LOOP('',(#517));
#110=EDGE_LOOP('',(#518));
#111=EDGE_LOOP('',(#519,#520,#521,#522,#523,#524));
#112=EDGE_LOOP('',(#525,#526,#527,#528));
#113=EDGE_LOOP('',(#529,#530,#531,#532,#533));
#114=EDGE_LOOP('',(#534,#535,#536,#537));
#115=EDGE_LOOP('',(#538,#539,#540,#541));
#116=EDGE_LOOP('',(#542,#543,#544,#545));
#117=EDGE_LOOP('',(#546,#547,#548,#549,#550,#551,#552,#553,#554,#555,#556,
#557,#558,#559,#560,#561,#562,#563,#564,#565));
#118=EDGE_LOOP('',(#566));
#119=EDGE_LOOP('',(#567));
#120=EDGE_LOOP('',(#568,#569,#570,#571,#572));
#121=EDGE_LOOP('',(#573,#574,#575,#576,#577,#578));
#122=EDGE_LOOP('',(#579,#580,#581,#582));
#123=EDGE_LOOP('',(#583,#584,#585,#586));
#124=EDGE_LOOP('',(#587,#588,#589,#590));
#125=EDGE_LOOP('',(#591,#592,#593,#594));
#126=EDGE_LOOP('',(#595,#596,#597,#598));
#127=EDGE_LOOP('',(#599,#600,#601,#602));
#128=EDGE_LOOP('',(#603,#604,#605,#606));
#129=EDGE_LOOP('',(#607,#608,#609,#610,#611));
#130=EDGE_LOOP('',(#612,#613,#614,#615));
#131=EDGE_LOOP('',(#616,#617,#618,#619,#620));
#132=EDGE_LOOP('',(#621,#622,#623,#624,#625));
#133=EDGE_LOOP('',(#626));
#134=EDGE_LOOP('',(#627,#628,#629,#630,#631));
#135=EDGE_LOOP('',(#632,#633,#634,#635));
#136=EDGE_LOOP('',(#636,#637,#638,#639));
#137=EDGE_LOOP('',(#640,#641,#642,#643,#644,#645));
#138=EDGE_LOOP('',(#646,#647,#648,#649));
#139=EDGE_LOOP('',(#650,#651,#652,#653,#654));
#140=EDGE_LOOP('',(#655,#656,#657,#658));
#141=EDGE_LOOP('',(#659,#660,#661,#662,#663));
#142=EDGE_LOOP('',(#664,#665,#666,#667,#668));
#143=EDGE_LOOP('',(#669));
#144=EDGE_LOOP('',(#670,#671,#672,#673,#674));
#145=EDGE_LOOP('',(#675,#676,#677,#678));
#146=EDGE_LOOP('',(#679,#680,#681,#682));
#147=LINE('',#1035,#225);
#148=LINE('',#1037,#226);
#149=LINE('',#1039,#227);
#150=LINE('',#1041,#228);
#151=LINE('',#1043,#229);
#152=LINE('',#1045,#230);
#153=LINE('',#1047,#231);
#154=LINE('',#1049,#232);
#155=LINE('',#1051,#233);
#156=LINE('',#1053,#234);
#157=LINE('',#1055,#235);
#158=LINE('',#1057,#236);
#159=LINE('',#1059,#237);
#160=LINE('',#1061,#238);
#161=LINE('',#1063,#239);
#162=LINE('',#1064,#240);
#163=LINE('',#1069,#241);
#164=LINE('',#1073,#242);
#165=LINE('',#1075,#243);
#166=LINE('',#1077,#244);
#167=LINE('',#1085,#245);
#168=LINE('',#1089,#246);
#169=LINE('',#1091,#247);
#170=LINE('',#1093,#248);
#171=LINE('',#1099,#249);
#172=LINE('',#1101,#250);
#173=LINE('',#1102,#251);
#174=LINE('',#1109,#252);
#175=LINE('',#1111,#253);
#176=LINE('',#1113,#254);
#177=LINE('',#1114,#255);
#178=LINE('',#1117,#256);
#179=LINE('',#1119,#257);
#180=LINE('',#1120,#258);
#181=LINE('',#1125,#259);
#182=LINE('',#1126,#260);
#183=LINE('',#1129,#261);
#184=LINE('',#1130,#262);
#185=LINE('',#1132,#263);
#186=LINE('',#1133,#264);
#187=LINE('',#1136,#265);
#188=LINE('',#1138,#266);
#189=LINE('',#1139,#267);
#190=LINE('',#1141,#268);
#191=LINE('',#1143,#269);
#192=LINE('',#1145,#270);
#193=LINE('',#1147,#271);
#194=LINE('',#1151,#272);
#195=LINE('',#1153,#273);
#196=LINE('',#1154,#274);
#197=LINE('',#1156,#275);
#198=LINE('',#1158,#276);
#199=LINE('',#1165,#277);
#200=LINE('',#1166,#278);
#201=LINE('',#1170,#279);
#202=LINE('',#1174,#280);
#203=LINE('',#1178,#281);
#204=LINE('',#1179,#282);
#205=LINE('',#1182,#283);
#206=LINE('',#1184,#284);
#207=LINE('',#1185,#285);
#208=LINE('',#1192,#286);
#209=LINE('',#1195,#287);
#210=LINE('',#1199,#288);
#211=LINE('',#1203,#289);
#212=LINE('',#1207,#290);
#213=LINE('',#1209,#291);
#214=LINE('',#1210,#292);
#215=LINE('',#1213,#293);
#216=LINE('',#1214,#294);
#217=LINE('',#1217,#295);
#218=LINE('',#1219,#296);
#219=LINE('',#1220,#297);
#220=LINE('',#1226,#298);
#221=LINE('',#1230,#299);
#222=LINE('',#1234,#300);
#223=LINE('',#1238,#301);
#224=LINE('',#1241,#302);
#225=VECTOR('',#827,10.);
#226=VECTOR('',#828,10.);
#227=VECTOR('',#829,10.);
#228=VECTOR('',#830,10.);
#229=VECTOR('',#831,10.);
#230=VECTOR('',#832,10.);
#231=VECTOR('',#833,10.);
#232=VECTOR('',#834,10.);
#233=VECTOR('',#835,10.);
#234=VECTOR('',#836,10.);
#235=VECTOR('',#837,10.);
#236=VECTOR('',#838,10.);
#237=VECTOR('',#839,10.);
#238=VECTOR('',#840,10.);
#239=VECTOR('',#841,10.);
#240=VECTOR('',#842,10.);
#241=VECTOR('',#847,10.);
#242=VECTOR('',#852,10.);
#243=VECTOR('',#853,10.);
#244=VECTOR('',#854,10.);
#245=VECTOR('',#863,10.);
#246=VECTOR('',#868,10.);
#247=VECTOR('',#869,10.);
#248=VECTOR('',#870,10.);
#249=VECTOR('',#877,10.);
#250=VECTOR('',#878,10.);
#251=VECTOR('',#879,10.);
#252=VECTOR('',#886,10.);
#253=VECTOR('',#887,10.);
#254=VECTOR('',#888,10.);
#255=VECTOR('',#889,10.);
#256=VECTOR('',#892,10.);
#257=VECTOR('',#893,10.);
#258=VECTOR('',#894,10.);
#259=VECTOR('',#899,10.);
#260=VECTOR('',#900,10.);
#261=VECTOR('',#903,10.);
#262=VECTOR('',#904,10.);
#263=VECTOR('',#907,10.);
#264=VECTOR('',#908,10.);
#265=VECTOR('',#911,10.);
#266=VECTOR('',#912,10.);
#267=VECTOR('',#913,10.);
#268=VECTOR('',#916,10.);
#269=VECTOR('',#917,10.);
#270=VECTOR('',#918,10.);
#271=VECTOR('',#919,10.);
#272=VECTOR('',#922,10.);
#273=VECTOR('',#923,10.);
#274=VECTOR('',#924,10.);
#275=VECTOR('',#925,10.);
#276=VECTOR('',#926,10.);
#277=VECTOR('',#935,10.);
#278=VECTOR('',#936,10.);
#279=VECTOR('',#943,10.);
#280=VECTOR('',#950,1.75);
#281=VECTOR('',#955,10.);
#282=VECTOR('',#956,10.);
#283=VECTOR('',#959,10.);
#284=VECTOR('',#960,10.);
#285=VECTOR('',#961,10.);
#286=VECTOR('',#968,1.5);
#287=VECTOR('',#973,3.);
#288=VECTOR('',#980,10.);
#289=VECTOR('',#985,1.6);
#290=VECTOR('',#990,10.);
#291=VECTOR('',#991,10.);
#292=VECTOR('',#992,10.);
#293=VECTOR('',#995,10.);
#294=VECTOR('',#996,10.);
#295=VECTOR('',#999,4.);
#296=VECTOR('',#1000,10.);
#297=VECTOR('',#1001,10.);
#298=VECTOR('',#1006,1.5);
#299=VECTOR('',#1013,3.);
#300=VECTOR('',#1020,10.);
#301=VECTOR('',#1025,1.6);
#302=VECTOR('',#1030,1.75);
#303=VERTEX_POINT('',#1033);
#304=VERTEX_POINT('',#1034);
#305=VERTEX_POINT('',#1036);
#306=VERTEX_POINT('',#1038);
#307=VERTEX_POINT('',#1040);
#308=VERTEX_POINT('',#1042);
#309=VERTEX_POINT('',#1044);
#310=VERTEX_POINT('',#1046);
#311=VERTEX_POINT('',#1048);
#312=VERTEX_POINT('',#1050);
#313=VERTEX_POINT('',#1052);
#314=VERTEX_POINT('',#1054);
#315=VERTEX_POINT('',#1056);
#316=VERTEX_POINT('',#1058);
#317=VERTEX_POINT('',#1060);
#318=VERTEX_POINT('',#1062);
#319=VERTEX_POINT('',#1066);
#320=VERTEX_POINT('',#1068);
#321=VERTEX_POINT('',#1072);
#322=VERTEX_POINT('',#1074);
#323=VERTEX_POINT('',#1076);
#324=VERTEX_POINT('',#1079);
#325=VERTEX_POINT('',#1082);
#326=VERTEX_POINT('',#1084);
#327=VERTEX_POINT('',#1088);
#328=VERTEX_POINT('',#1090);
#329=VERTEX_POINT('',#1092);
#330=VERTEX_POINT('',#1095);
#331=VERTEX_POINT('',#1098);
#332=VERTEX_POINT('',#1100);
#333=VERTEX_POINT('',#1103);
#334=VERTEX_POINT('',#1105);
#335=VERTEX_POINT('',#1108);
#336=VERTEX_POINT('',#1110);
#337=VERTEX_POINT('',#1112);
#338=VERTEX_POINT('',#1116);
#339=VERTEX_POINT('',#1118);
#340=VERTEX_POINT('',#1122);
#341=VERTEX_POINT('',#1124);
#342=VERTEX_POINT('',#1128);
#343=VERTEX_POINT('',#1135);
#344=VERTEX_POINT('',#1137);
#345=VERTEX_POINT('',#1142);
#346=VERTEX_POINT('',#1144);
#347=VERTEX_POINT('',#1146);
#348=VERTEX_POINT('',#1148);
#349=VERTEX_POINT('',#1150);
#350=VERTEX_POINT('',#1152);
#351=VERTEX_POINT('',#1155);
#352=VERTEX_POINT('',#1157);
#353=VERTEX_POINT('',#1160);
#354=VERTEX_POINT('',#1162);
#355=VERTEX_POINT('',#1177);
#356=VERTEX_POINT('',#1181);
#357=VERTEX_POINT('',#1183);
#358=VERTEX_POINT('',#1187);
#359=VERTEX_POINT('',#1188);
#360=VERTEX_POINT('',#1191);
#361=VERTEX_POINT('',#1200);
#362=VERTEX_POINT('',#1206);
#363=VERTEX_POINT('',#1208);
#364=VERTEX_POINT('',#1212);
#365=VERTEX_POINT('',#1216);
#366=VERTEX_POINT('',#1218);
#367=VERTEX_POINT('',#1222);
#368=VERTEX_POINT('',#1223);
#369=VERTEX_POINT('',#1225);
#370=VERTEX_POINT('',#1235);
#371=EDGE_CURVE('',#303,#304,#147,.T.);
#372=EDGE_CURVE('',#305,#303,#148,.T.);
#373=EDGE_CURVE('',#306,#305,#149,.T.);
#374=EDGE_CURVE('',#307,#306,#150,.T.);
#375=EDGE_CURVE('',#308,#307,#151,.T.);
#376=EDGE_CURVE('',#309,#308,#152,.T.);
#377=EDGE_CURVE('',#310,#309,#153,.T.);
#378=EDGE_CURVE('',#311,#310,#154,.T.);
#379=EDGE_CURVE('',#312,#311,#155,.T.);
#380=EDGE_CURVE('',#313,#312,#156,.T.);
#381=EDGE_CURVE('',#314,#313,#157,.T.);
#382=EDGE_CURVE('',#314,#315,#158,.T.);
#383=EDGE_CURVE('',#316,#315,#159,.T.);
#384=EDGE_CURVE('',#317,#316,#160,.T.);
#385=EDGE_CURVE('',#318,#317,#161,.T.);
#386=EDGE_CURVE('',#318,#304,#162,.T.);
#387=EDGE_CURVE('',#317,#319,#25,.T.);
#388=EDGE_CURVE('',#320,#319,#163,.T.);
#389=EDGE_CURVE('',#318,#320,#26,.T.);
#390=EDGE_CURVE('',#320,#321,#164,.T.);
#391=EDGE_CURVE('',#321,#322,#165,.T.);
#392=EDGE_CURVE('',#323,#322,#166,.T.);
#393=EDGE_CURVE('',#323,#304,#27,.T.);
#394=EDGE_CURVE('',#324,#324,#28,.F.);
#395=EDGE_CURVE('',#313,#325,#29,.T.);
#396=EDGE_CURVE('',#326,#325,#167,.T.);
#397=EDGE_CURVE('',#326,#314,#30,.T.);
#398=EDGE_CURVE('',#326,#327,#168,.T.);
#399=EDGE_CURVE('',#327,#328,#169,.T.);
#400=EDGE_CURVE('',#329,#328,#170,.T.);
#401=EDGE_CURVE('',#315,#329,#31,.T.);
#402=EDGE_CURVE('',#330,#330,#32,.T.);
#403=EDGE_CURVE('',#308,#331,#171,.T.);
#404=EDGE_CURVE('',#331,#332,#172,.T.);
#405=EDGE_CURVE('',#332,#309,#173,.T.);
#406=EDGE_CURVE('',#333,#333,#33,.T.);
#407=EDGE_CURVE('',#334,#334,#34,.T.);
#408=EDGE_CURVE('',#307,#335,#174,.T.);
#409=EDGE_CURVE('',#335,#336,#175,.T.);
#410=EDGE_CURVE('',#336,#337,#176,.T.);
#411=EDGE_CURVE('',#337,#331,#177,.F.);
#412=EDGE_CURVE('',#305,#338,#178,.T.);
#413=EDGE_CURVE('',#338,#339,#179,.T.);
#414=EDGE_CURVE('',#339,#306,#180,.T.);
#415=EDGE_CURVE('',#340,#303,#35,.T.);
#416=EDGE_CURVE('',#340,#341,#181,.T.);
#417=EDGE_CURVE('',#341,#338,#182,.T.);
#418=EDGE_CURVE('',#342,#321,#183,.T.);
#419=EDGE_CURVE('',#342,#319,#184,.T.);
#420=EDGE_CURVE('',#322,#341,#185,.T.);
#421=EDGE_CURVE('',#323,#340,#186,.T.);
#422=EDGE_CURVE('',#328,#343,#187,.T.);
#423=EDGE_CURVE('',#344,#343,#188,.T.);
#424=EDGE_CURVE('',#329,#344,#189,.T.);
#425=EDGE_CURVE('',#343,#342,#190,.T.);
#426=EDGE_CURVE('',#345,#327,#191,.T.);
#427=EDGE_CURVE('',#346,#345,#192,.T.);
#428=EDGE_CURVE('',#347,#346,#193,.T.);
#429=EDGE_CURVE('',#348,#347,#36,.F.);
#430=EDGE_CURVE('',#349,#348,#194,.F.);
#431=EDGE_CURVE('',#349,#350,#195,.T.);
#432=EDGE_CURVE('',#350,#332,#196,.T.);
#433=EDGE_CURVE('',#351,#337,#197,.F.);
#434=EDGE_CURVE('',#351,#352,#198,.T.);
#435=EDGE_CURVE('',#352,#339,#37,.T.);
#436=EDGE_CURVE('',#353,#353,#38,.T.);
#437=EDGE_CURVE('',#354,#354,#39,.F.);
#438=EDGE_CURVE('',#312,#346,#199,.T.);
#439=EDGE_CURVE('',#345,#325,#200,.T.);
#440=EDGE_CURVE('',#344,#316,#40,.T.);
#441=EDGE_CURVE('',#347,#311,#201,.T.);
#442=EDGE_CURVE('',#330,#333,#202,.T.);
#443=EDGE_CURVE('',#306,#355,#203,.T.);
#444=EDGE_CURVE('',#355,#335,#204,.T.);
#445=EDGE_CURVE('',#352,#356,#205,.T.);
#446=EDGE_CURVE('',#357,#351,#206,.T.);
#447=EDGE_CURVE('',#357,#356,#207,.T.);
#448=EDGE_CURVE('',#358,#359,#41,.T.);
#449=EDGE_CURVE('',#359,#358,#42,.T.);
#450=EDGE_CURVE('',#359,#360,#208,.T.);
#451=EDGE_CURVE('',#360,#360,#43,.T.);
#452=EDGE_CURVE('',#354,#360,#209,.T.);
#453=EDGE_CURVE('',#355,#356,#44,.T.);
#454=EDGE_CURVE('',#357,#336,#210,.T.);
#455=EDGE_CURVE('',#361,#361,#45,.T.);
#456=EDGE_CURVE('',#361,#358,#211,.T.);
#457=EDGE_CURVE('',#362,#310,#212,.T.);
#458=EDGE_CURVE('',#363,#362,#213,.T.);
#459=EDGE_CURVE('',#311,#363,#214,.T.);
#460=EDGE_CURVE('',#364,#350,#215,.T.);
#461=EDGE_CURVE('',#362,#364,#216,.T.);
#462=EDGE_CURVE('',#365,#348,#217,.T.);
#463=EDGE_CURVE('',#366,#365,#218,.T.);
#464=EDGE_CURVE('',#366,#349,#219,.T.);
#465=EDGE_CURVE('',#367,#368,#46,.T.);
#466=EDGE_CURVE('',#368,#369,#220,.T.);
#467=EDGE_CURVE('',#369,#369,#47,.T.);
#468=EDGE_CURVE('',#368,#367,#48,.T.);
#469=EDGE_CURVE('',#369,#353,#221,.T.);
#470=EDGE_CURVE('',#363,#365,#49,.T.);
#471=EDGE_CURVE('',#366,#364,#222,.T.);
#472=EDGE_CURVE('',#370,#370,#50,.T.);
#473=EDGE_CURVE('',#367,#370,#223,.T.);
#474=EDGE_CURVE('',#324,#334,#224,.T.);
#475=ORIENTED_EDGE('',*,*,#371,.F.);
#476=ORIENTED_EDGE('',*,*,#372,.F.);
#477=ORIENTED_EDGE('',*,*,#373,.F.);
#478=ORIENTED_EDGE('',*,*,#374,.F.);
#479=ORIENTED_EDGE('',*,*,#375,.F.);
#480=ORIENTED_EDGE('',*,*,#376,.F.);
#481=ORIENTED_EDGE('',*,*,#377,.F.);
#482=ORIENTED_EDGE('',*,*,#378,.F.);
#483=ORIENTED_EDGE('',*,*,#379,.F.);
#484=ORIENTED_EDGE('',*,*,#380,.F.);
#485=ORIENTED_EDGE('',*,*,#381,.F.);
#486=ORIENTED_EDGE('',*,*,#382,.T.);
#487=ORIENTED_EDGE('',*,*,#383,.F.);
#488=ORIENTED_EDGE('',*,*,#384,.F.);
#489=ORIENTED_EDGE('',*,*,#385,.F.);
#490=ORIENTED_EDGE('',*,*,#386,.T.);
#491=ORIENTED_EDGE('',*,*,#385,.T.);
#492=ORIENTED_EDGE('',*,*,#387,.T.);
#493=ORIENTED_EDGE('',*,*,#388,.F.);
#494=ORIENTED_EDGE('',*,*,#389,.F.);
#495=ORIENTED_EDGE('',*,*,#386,.F.);
#496=ORIENTED_EDGE('',*,*,#389,.T.);
#497=ORIENTED_EDGE('',*,*,#390,.T.);
#498=ORIENTED_EDGE('',*,*,#391,.T.);
#499=ORIENTED_EDGE('',*,*,#392,.F.);
#500=ORIENTED_EDGE('',*,*,#393,.T.);
#501=ORIENTED_EDGE('',*,*,#394,.T.);
#502=ORIENTED_EDGE('',*,*,#381,.T.);
#503=ORIENTED_EDGE('',*,*,#395,.T.);
#504=ORIENTED_EDGE('',*,*,#396,.F.);
#505=ORIENTED_EDGE('',*,*,#397,.T.);
#506=ORIENTED_EDGE('',*,*,#382,.F.);
#507=ORIENTED_EDGE('',*,*,#397,.F.);
#508=ORIENTED_EDGE('',*,*,#398,.T.);
#509=ORIENTED_EDGE('',*,*,#399,.T.);
#510=ORIENTED_EDGE('',*,*,#400,.F.);
#511=ORIENTED_EDGE('',*,*,#401,.F.);
#512=ORIENTED_EDGE('',*,*,#402,.F.);
#513=ORIENTED_EDGE('',*,*,#376,.T.);
#514=ORIENTED_EDGE('',*,*,#403,.T.);
#515=ORIENTED_EDGE('',*,*,#404,.T.);
#516=ORIENTED_EDGE('',*,*,#405,.T.);
#517=ORIENTED_EDGE('',*,*,#406,.T.);
#518=ORIENTED_EDGE('',*,*,#407,.T.);
#519=ORIENTED_EDGE('',*,*,#375,.T.);
#520=ORIENTED_EDGE('',*,*,#408,.T.);
#521=ORIENTED_EDGE('',*,*,#409,.T.);
#522=ORIENTED_EDGE('',*,*,#410,.T.);
#523=ORIENTED_EDGE('',*,*,#411,.T.);
#524=ORIENTED_EDGE('',*,*,#403,.F.);
#525=ORIENTED_EDGE('',*,*,#373,.T.);
#526=ORIENTED_EDGE('',*,*,#412,.T.);
#527=ORIENTED_EDGE('',*,*,#413,.T.);
#528=ORIENTED_EDGE('',*,*,#414,.T.);
#529=ORIENTED_EDGE('',*,*,#372,.T.);
#530=ORIENTED_EDGE('',*,*,#415,.F.);
#531=ORIENTED_EDGE('',*,*,#416,.T.);
#532=ORIENTED_EDGE('',*,*,#417,.T.);
#533=ORIENTED_EDGE('',*,*,#412,.F.);
#534=ORIENTED_EDGE('',*,*,#418,.T.);
#535=ORIENTED_EDGE('',*,*,#390,.F.);
#536=ORIENTED_EDGE('',*,*,#388,.T.);
#537=ORIENTED_EDGE('',*,*,#419,.F.);
#538=ORIENTED_EDGE('',*,*,#420,.T.);
#539=ORIENTED_EDGE('',*,*,#416,.F.);
#540=ORIENTED_EDGE('',*,*,#421,.F.);
#541=ORIENTED_EDGE('',*,*,#392,.T.);
#542=ORIENTED_EDGE('',*,*,#422,.T.);
#543=ORIENTED_EDGE('',*,*,#423,.F.);
#544=ORIENTED_EDGE('',*,*,#424,.F.);
#545=ORIENTED_EDGE('',*,*,#400,.T.);
#546=ORIENTED_EDGE('',*,*,#417,.F.);
#547=ORIENTED_EDGE('',*,*,#420,.F.);
#548=ORIENTED_EDGE('',*,*,#391,.F.);
#549=ORIENTED_EDGE('',*,*,#418,.F.);
#550=ORIENTED_EDGE('',*,*,#425,.F.);
#551=ORIENTED_EDGE('',*,*,#422,.F.);
#552=ORIENTED_EDGE('',*,*,#399,.F.);
#553=ORIENTED_EDGE('',*,*,#426,.F.);
#554=ORIENTED_EDGE('',*,*,#427,.F.);
#555=ORIENTED_EDGE('',*,*,#428,.F.);
#556=ORIENTED_EDGE('',*,*,#429,.F.);
#557=ORIENTED_EDGE('',*,*,#430,.F.);
#558=ORIENTED_EDGE('',*,*,#431,.T.);
#559=ORIENTED_EDGE('',*,*,#432,.T.);
#560=ORIENTED_EDGE('',*,*,#404,.F.);
#561=ORIENTED_EDGE('',*,*,#411,.F.);
#562=ORIENTED_EDGE('',*,*,#433,.F.);
#563=ORIENTED_EDGE('',*,*,#434,.T.);
#564=ORIENTED_EDGE('',*,*,#435,.T.);
#565=ORIENTED_EDGE('',*,*,#413,.F.);
#566=ORIENTED_EDGE('',*,*,#436,.F.);
#567=ORIENTED_EDGE('',*,*,#437,.T.);
#568=ORIENTED_EDGE('',*,*,#380,.T.);
#569=ORIENTED_EDGE('',*,*,#438,.T.);
#570=ORIENTED_EDGE('',*,*,#427,.T.);
#571=ORIENTED_EDGE('',*,*,#439,.T.);
#572=ORIENTED_EDGE('',*,*,#395,.F.);
#573=ORIENTED_EDGE('',*,*,#384,.T.);
#574=ORIENTED_EDGE('',*,*,#440,.F.);
#575=ORIENTED_EDGE('',*,*,#423,.T.);
#576=ORIENTED_EDGE('',*,*,#425,.T.);
#577=ORIENTED_EDGE('',*,*,#419,.T.);
#578=ORIENTED_EDGE('',*,*,#387,.F.);
#579=ORIENTED_EDGE('',*,*,#379,.T.);
#580=ORIENTED_EDGE('',*,*,#441,.F.);
#581=ORIENTED_EDGE('',*,*,#428,.T.);
#582=ORIENTED_EDGE('',*,*,#438,.F.);
#583=ORIENTED_EDGE('',*,*,#426,.T.);
#584=ORIENTED_EDGE('',*,*,#398,.F.);
#585=ORIENTED_EDGE('',*,*,#396,.T.);
#586=ORIENTED_EDGE('',*,*,#439,.F.);
#587=ORIENTED_EDGE('',*,*,#383,.T.);
#588=ORIENTED_EDGE('',*,*,#401,.T.);
#589=ORIENTED_EDGE('',*,*,#424,.T.);
#590=ORIENTED_EDGE('',*,*,#440,.T.);
#591=ORIENTED_EDGE('',*,*,#402,.T.);
#592=ORIENTED_EDGE('',*,*,#442,.T.);
#593=ORIENTED_EDGE('',*,*,#406,.F.);
#594=ORIENTED_EDGE('',*,*,#442,.F.);
#595=ORIENTED_EDGE('',*,*,#371,.T.);
#596=ORIENTED_EDGE('',*,*,#393,.F.);
#597=ORIENTED_EDGE('',*,*,#421,.T.);
#598=ORIENTED_EDGE('',*,*,#415,.T.);
#599=ORIENTED_EDGE('',*,*,#443,.T.);
#600=ORIENTED_EDGE('',*,*,#444,.T.);
#601=ORIENTED_EDGE('',*,*,#408,.F.);
#602=ORIENTED_EDGE('',*,*,#374,.T.);
#603=ORIENTED_EDGE('',*,*,#445,.F.);
#604=ORIENTED_EDGE('',*,*,#434,.F.);
#605=ORIENTED_EDGE('',*,*,#446,.F.);
#606=ORIENTED_EDGE('',*,*,#447,.T.);
#607=ORIENTED_EDGE('',*,*,#448,.F.);
#608=ORIENTED_EDGE('',*,*,#449,.F.);
#609=ORIENTED_EDGE('',*,*,#450,.T.);
#610=ORIENTED_EDGE('',*,*,#451,.F.);
#611=ORIENTED_EDGE('',*,*,#450,.F.);
#612=ORIENTED_EDGE('',*,*,#437,.F.);
#613=ORIENTED_EDGE('',*,*,#452,.T.);
#614=ORIENTED_EDGE('',*,*,#451,.T.);
#615=ORIENTED_EDGE('',*,*,#452,.F.);
#616=ORIENTED_EDGE('',*,*,#445,.T.);
#617=ORIENTED_EDGE('',*,*,#453,.F.);
#618=ORIENTED_EDGE('',*,*,#443,.F.);
#619=ORIENTED_EDGE('',*,*,#414,.F.);
#620=ORIENTED_EDGE('',*,*,#435,.F.);
#621=ORIENTED_EDGE('',*,*,#444,.F.);
#622=ORIENTED_EDGE('',*,*,#453,.T.);
#623=ORIENTED_EDGE('',*,*,#447,.F.);
#624=ORIENTED_EDGE('',*,*,#454,.T.);
#625=ORIENTED_EDGE('',*,*,#409,.F.);
#626=ORIENTED_EDGE('',*,*,#455,.F.);
#627=ORIENTED_EDGE('',*,*,#455,.T.);
#628=ORIENTED_EDGE('',*,*,#456,.T.);
#629=ORIENTED_EDGE('',*,*,#448,.T.);
#630=ORIENTED_EDGE('',*,*,#449,.T.);
#631=ORIENTED_EDGE('',*,*,#456,.F.);
#632=ORIENTED_EDGE('',*,*,#454,.F.);
#633=ORIENTED_EDGE('',*,*,#446,.T.);
#634=ORIENTED_EDGE('',*,*,#433,.T.);
#635=ORIENTED_EDGE('',*,*,#410,.F.);
#636=ORIENTED_EDGE('',*,*,#457,.F.);
#637=ORIENTED_EDGE('',*,*,#458,.F.);
#638=ORIENTED_EDGE('',*,*,#459,.F.);
#639=ORIENTED_EDGE('',*,*,#378,.T.);
#640=ORIENTED_EDGE('',*,*,#377,.T.);
#641=ORIENTED_EDGE('',*,*,#405,.F.);
#642=ORIENTED_EDGE('',*,*,#432,.F.);
#643=ORIENTED_EDGE('',*,*,#460,.F.);
#644=ORIENTED_EDGE('',*,*,#461,.F.);
#645=ORIENTED_EDGE('',*,*,#457,.T.);
#646=ORIENTED_EDGE('',*,*,#462,.F.);
#647=ORIENTED_EDGE('',*,*,#463,.F.);
#648=ORIENTED_EDGE('',*,*,#464,.T.);
#649=ORIENTED_EDGE('',*,*,#430,.T.);
#650=ORIENTED_EDGE('',*,*,#465,.T.);
#651=ORIENTED_EDGE('',*,*,#466,.T.);
#652=ORIENTED_EDGE('',*,*,#467,.T.);
#653=ORIENTED_EDGE('',*,*,#466,.F.);
#654=ORIENTED_EDGE('',*,*,#468,.T.);
#655=ORIENTED_EDGE('',*,*,#467,.F.);
#656=ORIENTED_EDGE('',*,*,#469,.T.);
#657=ORIENTED_EDGE('',*,*,#436,.T.);
#658=ORIENTED_EDGE('',*,*,#469,.F.);
#659=ORIENTED_EDGE('',*,*,#441,.T.);
#660=ORIENTED_EDGE('',*,*,#459,.T.);
#661=ORIENTED_EDGE('',*,*,#470,.T.);
#662=ORIENTED_EDGE('',*,*,#462,.T.);
#663=ORIENTED_EDGE('',*,*,#429,.T.);
#664=ORIENTED_EDGE('',*,*,#458,.T.);
#665=ORIENTED_EDGE('',*,*,#461,.T.);
#666=ORIENTED_EDGE('',*,*,#471,.F.);
#667=ORIENTED_EDGE('',*,*,#463,.T.);
#668=ORIENTED_EDGE('',*,*,#470,.F.);
#669=ORIENTED_EDGE('',*,*,#472,.T.);
#670=ORIENTED_EDGE('',*,*,#465,.F.);
#671=ORIENTED_EDGE('',*,*,#473,.T.);
#672=ORIENTED_EDGE('',*,*,#472,.F.);
#673=ORIENTED_EDGE('',*,*,#473,.F.);
#674=ORIENTED_EDGE('',*,*,#468,.F.);
#675=ORIENTED_EDGE('',*,*,#471,.T.);
#676=ORIENTED_EDGE('',*,*,#460,.T.);
#677=ORIENTED_EDGE('',*,*,#431,.F.);
#678=ORIENTED_EDGE('',*,*,#464,.F.);
#679=ORIENTED_EDGE('',*,*,#394,.F.);
#680=ORIENTED_EDGE('',*,*,#474,.T.);
#681=ORIENTED_EDGE('',*,*,#407,.F.);
#682=ORIENTED_EDGE('',*,*,#474,.F.);
#683=PLANE('',#759);
#684=PLANE('',#763);
#685=PLANE('',#769);
#686=PLANE('',#772);
#687=PLANE('',#775);
#688=PLANE('',#776);
#689=PLANE('',#777);
#690=PLANE('',#779);
#691=PLANE('',#780);
#692=PLANE('',#781);
#693=PLANE('',#782);
#694=PLANE('',#787);
#695=PLANE('',#788);
#696=PLANE('',#790);
#697=PLANE('',#791);
#698=PLANE('',#795);
#699=PLANE('',#796);
#700=PLANE('',#804);
#701=PLANE('',#807);
#702=PLANE('',#808);
#703=PLANE('',#809);
#704=PLANE('',#810);
#705=PLANE('',#818);
#706=PLANE('',#821);
#707=ADVANCED_FACE('',(#63),#683,.F.);
#708=ADVANCED_FACE('',(#64),#51,.T.);
#709=ADVANCED_FACE('',(#65,#17),#684,.T.);
#710=ADVANCED_FACE('',(#66),#52,.T.);
#711=ADVANCED_FACE('',(#67,#18),#685,.F.);
#712=ADVANCED_FACE('',(#68,#19,#20),#686,.T.);
#713=ADVANCED_FACE('',(#69),#687,.F.);
#714=ADVANCED_FACE('',(#70),#688,.T.);
#715=ADVANCED_FACE('',(#71),#689,.F.);
#716=ADVANCED_FACE('',(#72),#690,.T.);
#717=ADVANCED_FACE('',(#73),#691,.T.);
#718=ADVANCED_FACE('',(#74),#692,.T.);
#719=ADVANCED_FACE('',(#75,#21,#22),#693,.F.);
#720=ADVANCED_FACE('',(#76),#694,.F.);
#721=ADVANCED_FACE('',(#77),#695,.F.);
#722=ADVANCED_FACE('',(#78),#696,.T.);
#723=ADVANCED_FACE('',(#79),#697,.T.);
#724=ADVANCED_FACE('',(#80),#53,.T.);
#725=ADVANCED_FACE('',(#81),#54,.F.);
#726=ADVANCED_FACE('',(#82),#55,.T.);
#727=ADVANCED_FACE('',(#83),#698,.F.);
#728=ADVANCED_FACE('',(#84),#699,.F.);
#729=ADVANCED_FACE('',(#85),#15,.F.);
#730=ADVANCED_FACE('',(#86),#56,.F.);
#731=ADVANCED_FACE('',(#87),#57,.T.);
#732=ADVANCED_FACE('',(#88,#23),#700,.T.);
#733=ADVANCED_FACE('',(#89),#58,.F.);
#734=ADVANCED_FACE('',(#90),#701,.F.);
#735=ADVANCED_FACE('',(#91),#702,.T.);
#736=ADVANCED_FACE('',(#92),#703,.T.);
#737=ADVANCED_FACE('',(#93),#704,.T.);
#738=ADVANCED_FACE('',(#94),#16,.F.);
#739=ADVANCED_FACE('',(#95),#59,.F.);
#740=ADVANCED_FACE('',(#96),#60,.T.);
#741=ADVANCED_FACE('',(#97,#24),#705,.F.);
#742=ADVANCED_FACE('',(#98),#61,.F.);
#743=ADVANCED_FACE('',(#99),#706,.T.);
#744=ADVANCED_FACE('',(#100),#62,.F.);
#745=CLOSED_SHELL('',(#707,#708,#709,#710,#711,#712,#713,#714,#715,#716,
#717,#718,#719,#720,#721,#722,#723,#724,#725,#726,#727,#728,#729,#730,#731,
#732,#733,#734,#735,#736,#737,#738,#739,#740,#741,#742,#743,#744));
#746=DERIVED_UNIT_ELEMENT(#748,1.);
#747=DERIVED_UNIT_ELEMENT(#1247,-3.);
#748=(
MASS_UNIT()
NAMED_UNIT(*)
SI_UNIT(.KILO.,.GRAM.)
);
#749=DERIVED_UNIT((#746,#747));
#750=MEASURE_REPRESENTATION_ITEM('density measure',
POSITIVE_RATIO_MEASURE(7850.),#749);
#751=PROPERTY_DEFINITION_REPRESENTATION(#756,#753);
#752=PROPERTY_DEFINITION_REPRESENTATION(#757,#754);
#753=REPRESENTATION('material name',(#755),#1244);
#754=REPRESENTATION('density',(#750),#1244);
#755=DESCRIPTIVE_REPRESENTATION_ITEM('Stahl','Stahl');
#756=PROPERTY_DEFINITION('material property','material name',#1254);
#757=PROPERTY_DEFINITION('material property','density of part',#1254);
#758=AXIS2_PLACEMENT_3D('',#1031,#823,#824);
#759=AXIS2_PLACEMENT_3D('',#1032,#825,#826);
#760=AXIS2_PLACEMENT_3D('',#1065,#843,#844);
#761=AXIS2_PLACEMENT_3D('',#1067,#845,#846);
#762=AXIS2_PLACEMENT_3D('',#1070,#848,#849);
#763=AXIS2_PLACEMENT_3D('',#1071,#850,#851);
#764=AXIS2_PLACEMENT_3D('',#1078,#855,#856);
#765=AXIS2_PLACEMENT_3D('',#1080,#857,#858);
#766=AXIS2_PLACEMENT_3D('',#1081,#859,#860);
#767=AXIS2_PLACEMENT_3D('',#1083,#861,#862);
#768=AXIS2_PLACEMENT_3D('',#1086,#864,#865);
#769=AXIS2_PLACEMENT_3D('',#1087,#866,#867);
#770=AXIS2_PLACEMENT_3D('',#1094,#871,#872);
#771=AXIS2_PLACEMENT_3D('',#1096,#873,#874);
#772=AXIS2_PLACEMENT_3D('',#1097,#875,#876);
#773=AXIS2_PLACEMENT_3D('',#1104,#880,#881);
#774=AXIS2_PLACEMENT_3D('',#1106,#882,#883);
#775=AXIS2_PLACEMENT_3D('',#1107,#884,#885);
#776=AXIS2_PLACEMENT_3D('',#1115,#890,#891);
#777=AXIS2_PLACEMENT_3D('',#1121,#895,#896);
#778=AXIS2_PLACEMENT_3D('',#1123,#897,#898);
#779=AXIS2_PLACEMENT_3D('',#1127,#901,#902);
#780=AXIS2_PLACEMENT_3D('',#1131,#905,#906);
#781=AXIS2_PLACEMENT_3D('',#1134,#909,#910);
#782=AXIS2_PLACEMENT_3D('',#1140,#914,#915);
#783=AXIS2_PLACEMENT_3D('',#1149,#920,#921);
#784=AXIS2_PLACEMENT_3D('',#1159,#927,#928);
#785=AXIS2_PLACEMENT_3D('',#1161,#929,#930);
#786=AXIS2_PLACEMENT_3D('',#1163,#931,#932);
#787=AXIS2_PLACEMENT_3D('',#1164,#933,#934);
#788=AXIS2_PLACEMENT_3D('',#1167,#937,#938);
#789=AXIS2_PLACEMENT_3D('',#1168,#939,#940);
#790=AXIS2_PLACEMENT_3D('',#1169,#941,#942);
#791=AXIS2_PLACEMENT_3D('',#1171,#944,#945);
#792=AXIS2_PLACEMENT_3D('',#1172,#946,#947);
#793=AXIS2_PLACEMENT_3D('',#1173,#948,#949);
#794=AXIS2_PLACEMENT_3D('',#1175,#951,#952);
#795=AXIS2_PLACEMENT_3D('',#1176,#953,#954);
#796=AXIS2_PLACEMENT_3D('',#1180,#957,#958);
#797=AXIS2_PLACEMENT_3D('',#1186,#962,#963);
#798=AXIS2_PLACEMENT_3D('',#1189,#964,#965);
#799=AXIS2_PLACEMENT_3D('',#1190,#966,#967);
#800=AXIS2_PLACEMENT_3D('',#1193,#969,#970);
#801=AXIS2_PLACEMENT_3D('',#1194,#971,#972);
#802=AXIS2_PLACEMENT_3D('',#1196,#974,#975);
#803=AXIS2_PLACEMENT_3D('',#1197,#976,#977);
#804=AXIS2_PLACEMENT_3D('',#1198,#978,#979);
#805=AXIS2_PLACEMENT_3D('',#1201,#981,#982);
#806=AXIS2_PLACEMENT_3D('',#1202,#983,#984);
#807=AXIS2_PLACEMENT_3D('',#1204,#986,#987);
#808=AXIS2_PLACEMENT_3D('',#1205,#988,#989);
#809=AXIS2_PLACEMENT_3D('',#1211,#993,#994);
#810=AXIS2_PLACEMENT_3D('',#1215,#997,#998);
#811=AXIS2_PLACEMENT_3D('',#1221,#1002,#1003);
#812=AXIS2_PLACEMENT_3D('',#1224,#1004,#1005);
#813=AXIS2_PLACEMENT_3D('',#1227,#1007,#1008);
#814=AXIS2_PLACEMENT_3D('',#1228,#1009,#1010);
#815=AXIS2_PLACEMENT_3D('',#1229,#1011,#1012);
#816=AXIS2_PLACEMENT_3D('',#1231,#1014,#1015);
#817=AXIS2_PLACEMENT_3D('',#1232,#1016,#1017);
#818=AXIS2_PLACEMENT_3D('',#1233,#1018,#1019);
#819=AXIS2_PLACEMENT_3D('',#1236,#1021,#1022);
#820=AXIS2_PLACEMENT_3D('',#1237,#1023,#1024);
#821=AXIS2_PLACEMENT_3D('',#1239,#1026,#1027);
#822=AXIS2_PLACEMENT_3D('',#1240,#1028,#1029);
#823=DIRECTION('axis',(0.,0.,1.));
#824=DIRECTION('refdir',(1.,0.,0.));
#825=DIRECTION('center_axis',(-1.,0.,0.));
#826=DIRECTION('ref_axis',(0.,0.,1.));
#827=DIRECTION('',(0.,-3.50324616081204E-45,-1.));
#828=DIRECTION('',(0.,-1.,3.50324616081204E-45));
#829=DIRECTION('',(0.,-3.50324616081204E-45,-1.));
#830=DIRECTION('',(0.,1.,0.));
#831=DIRECTION('',(0.,0.,1.));
#832=DIRECTION('',(0.,1.,-3.50324616081204E-45));
#833=DIRECTION('',(0.,0.,-1.));
#834=DIRECTION('',(0.,1.,0.));
#835=DIRECTION('',(0.,3.50324616081204E-45,1.));
#836=DIRECTION('',(0.,-1.,3.50324616081204E-45));
#837=DIRECTION('',(0.,3.50324616081204E-45,1.));
#838=DIRECTION('',(0.,1.,-3.50324616081204E-45));
#839=DIRECTION('',(0.,-3.50324616081204E-45,-1.));
#840=DIRECTION('',(0.,-1.,3.50324616081204E-45));
#841=DIRECTION('',(0.,3.50324616081204E-45,1.));
#842=DIRECTION('',(0.,1.,-3.50324616081204E-45));
#843=DIRECTION('center_axis',(0.,3.50324616081204E-45,1.));
#844=DIRECTION('ref_axis',(1.,0.,0.));
#845=DIRECTION('center_axis',(0.,-3.50324616081204E-45,-1.));
#846=DIRECTION('ref_axis',(1.,0.,0.));
#847=DIRECTION('',(0.,3.50324616081204E-45,1.));
#848=DIRECTION('center_axis',(0.,-3.50324616081204E-45,-1.));
#849=DIRECTION('ref_axis',(1.,0.,0.));
#850=DIRECTION('center_axis',(0.,-3.50324616081204E-45,-1.));
#851=DIRECTION('ref_axis',(1.,0.,0.));
#852=DIRECTION('',(-1.,0.,0.));
#853=DIRECTION('',(0.,1.,-3.50324616081204E-45));
#854=DIRECTION('',(-1.,0.,0.));
#855=DIRECTION('center_axis',(0.,-3.50324616081204E-45,-1.));
#856=DIRECTION('ref_axis',(1.,0.,0.));
#857=DIRECTION('center_axis',(0.,-3.50324616081204E-45,-1.));
#858=DIRECTION('ref_axis',(1.,0.,0.));
#859=DIRECTION('center_axis',(0.,3.50324616081204E-45,1.));
#860=DIRECTION('ref_axis',(1.,0.,0.));
#861=DIRECTION('center_axis',(0.,-3.50324616081204E-45,-1.));
#862=DIRECTION('ref_axis',(1.,0.,0.));
#863=DIRECTION('',(0.,3.50324616081204E-45,1.));
#864=DIRECTION('center_axis',(0.,3.50324616081204E-45,1.));
#865=DIRECTION('ref_axis',(1.,0.,0.));
#866=DIRECTION('center_axis',(0.,3.50324616081204E-45,1.));
#867=DIRECTION('ref_axis',(1.,0.,0.));
#868=DIRECTION('',(-1.,0.,0.));
#869=DIRECTION('',(0.,1.,-3.50324616081204E-45));
#870=DIRECTION('',(-1.,0.,0.));
#871=DIRECTION('center_axis',(0.,3.50324616081204E-45,1.));
#872=DIRECTION('ref_axis',(1.,0.,0.));
#873=DIRECTION('center_axis',(0.,-3.50324616081204E-45,-1.));
#874=DIRECTION('ref_axis',(1.,0.,0.));
#875=DIRECTION('center_axis',(0.,3.50324616081204E-45,1.));
#876=DIRECTION('ref_axis',(1.,0.,0.));
#877=DIRECTION('',(-1.,0.,0.));
#878=DIRECTION('',(0.,-1.,3.50324616081204E-45));
#879=DIRECTION('',(1.,0.,0.));
#880=DIRECTION('center_axis',(0.,-3.50324616081204E-45,-1.));
#881=DIRECTION('ref_axis',(1.,0.,0.));
#882=DIRECTION('center_axis',(0.,-3.50324616081204E-45,-1.));
#883=DIRECTION('ref_axis',(1.,0.,0.));
#884=DIRECTION('center_axis',(0.,1.,0.));
#885=DIRECTION('ref_axis',(0.,0.,-1.));
#886=DIRECTION('',(1.,0.,0.));
#887=DIRECTION('',(0.,-1.11022302462516E-15,1.));
#888=DIRECTION('',(-1.,0.,0.));
#889=DIRECTION('',(0.,0.,1.));
#890=DIRECTION('center_axis',(0.,1.,-3.50324616081204E-45));
#891=DIRECTION('ref_axis',(1.,0.,0.));
#892=DIRECTION('',(-1.,0.,0.));
#893=DIRECTION('',(0.,3.50324616081204E-45,1.));
#894=DIRECTION('',(1.,0.,0.));
#895=DIRECTION('center_axis',(0.,3.50324616081204E-45,1.));
#896=DIRECTION('ref_axis',(-1.,0.,0.));
#897=DIRECTION('center_axis',(0.,-3.50324616081204E-45,-1.));
#898=DIRECTION('ref_axis',(1.,0.,0.));
#899=DIRECTION('',(-1.,0.,0.));
#900=DIRECTION('',(0.,1.,-3.50324616081204E-45));
#901=DIRECTION('center_axis',(0.,-1.,0.));
#902=DIRECTION('ref_axis',(-1.,0.,0.));
#903=DIRECTION('',(0.,0.,-1.));
#904=DIRECTION('',(1.,0.,0.));
#905=DIRECTION('center_axis',(0.,1.,0.));
#906=DIRECTION('ref_axis',(1.,0.,-8.38483592391382E-15));
#907=DIRECTION('',(0.,0.,1.));
#908=DIRECTION('',(0.,3.50324616081204E-45,1.));
#909=DIRECTION('center_axis',(0.,1.,0.));
#910=DIRECTION('ref_axis',(1.,0.,-1.10301489962051E-14));
#911=DIRECTION('',(0.,0.,1.));
#912=DIRECTION('',(-1.,0.,0.));
#913=DIRECTION('',(0.,3.50324616081204E-45,1.));
#914=DIRECTION('center_axis',(1.,0.,0.));
#915=DIRECTION('ref_axis',(0.,0.,1.));
#916=DIRECTION('',(0.,1.,-3.50324616081204E-45));
#917=DIRECTION('',(0.,0.,-1.));
#918=DIRECTION('',(0.,1.,-3.50324616081204E-45));
#919=DIRECTION('',(0.,-3.50324616081204E-45,-1.));
#920=DIRECTION('center_axis',(-1.,0.,0.));
#921=DIRECTION('ref_axis',(0.,-0.707106781186548,-0.707106781186548));
#922=DIRECTION('',(0.,0.,1.));
#923=DIRECTION('',(0.,1.,0.));
#924=DIRECTION('',(0.,0.,-1.));
#925=DIRECTION('',(0.,1.,0.));
#926=DIRECTION('',(0.,0.,-1.));
#927=DIRECTION('center_axis',(-1.,0.,0.));
#928=DIRECTION('ref_axis',(0.,0.707106781186548,-0.707106781186548));
#929=DIRECTION('center_axis',(-1.,0.,0.));
#930=DIRECTION('ref_axis',(0.,1.,0.));
#931=DIRECTION('center_axis',(-1.,0.,0.));
#932=DIRECTION('ref_axis',(0.,-1.,0.));
#933=DIRECTION('center_axis',(0.,3.50324616081204E-45,1.));
#934=DIRECTION('ref_axis',(-1.,0.,0.));
#935=DIRECTION('',(-1.,0.,0.));
#936=DIRECTION('',(1.,0.,0.));
#937=DIRECTION('center_axis',(0.,3.50324616081204E-45,1.));
#938=DIRECTION('ref_axis',(-1.,0.,0.));
#939=DIRECTION('center_axis',(0.,-3.50324616081204E-45,-1.));
#940=DIRECTION('ref_axis',(1.,0.,0.));
#941=DIRECTION('center_axis',(0.,-1.,3.50324616081204E-45));
#942=DIRECTION('ref_axis',(-1.,0.,0.));
#943=DIRECTION('',(1.,0.,0.));
#944=DIRECTION('center_axis',(0.,-1.,0.));
#945=DIRECTION('ref_axis',(-1.,0.,0.));
#946=DIRECTION('center_axis',(0.,3.50324616081204E-45,1.));
#947=DIRECTION('ref_axis',(1.,0.,0.));
#948=DIRECTION('center_axis',(0.,3.50324616081204E-45,1.));
#949=DIRECTION('ref_axis',(1.,0.,0.));
#950=DIRECTION('',(0.,3.50324616081204E-45,1.));
#951=DIRECTION('center_axis',(0.,3.50324616081204E-45,1.));
#952=DIRECTION('ref_axis',(1.,0.,0.));
#953=DIRECTION('center_axis',(0.,0.,1.));
#954=DIRECTION('ref_axis',(0.,1.,0.));
#955=DIRECTION('',(1.,0.,0.));
#956=DIRECTION('',(0.,-1.,0.));
#957=DIRECTION('center_axis',(0.,-1.,0.));
#958=DIRECTION('ref_axis',(0.,0.,1.));
#959=DIRECTION('',(1.,0.,0.));
#960=DIRECTION('',(-1.,0.,0.));
#961=DIRECTION('',(0.,0.,-1.));
#962=DIRECTION('center_axis',(-1.,0.,0.));
#963=DIRECTION('ref_axis',(0.,-1.,0.));
#964=DIRECTION('center_axis',(-1.,0.,0.));
#965=DIRECTION('ref_axis',(0.,1.,0.));
#966=DIRECTION('center_axis',(-1.,0.,0.));
#967=DIRECTION('ref_axis',(0.,1.,0.));
#968=DIRECTION('',(-0.642787609686539,0.766044443118978,-9.38133875270273E-17));
#969=DIRECTION('center_axis',(1.,0.,0.));
#970=DIRECTION('ref_axis',(0.,-1.,0.));
#971=DIRECTION('center_axis',(1.,0.,0.));
#972=DIRECTION('ref_axis',(0.,-1.,0.));
#973=DIRECTION('',(1.,0.,0.));
#974=DIRECTION('center_axis',(1.,0.,0.));
#975=DIRECTION('ref_axis',(0.,0.707106781186548,-0.707106781186548));
#976=DIRECTION('center_axis',(1.,0.,0.));
#977=DIRECTION('ref_axis',(0.,0.707106781186548,-0.707106781186548));
#978=DIRECTION('center_axis',(1.,0.,0.));
#979=DIRECTION('ref_axis',(0.,-1.,0.));
#980=DIRECTION('',(0.,-1.,0.));
#981=DIRECTION('center_axis',(1.,0.,0.));
#982=DIRECTION('ref_axis',(0.,1.,0.));
#983=DIRECTION('center_axis',(-1.,0.,0.));
#984=DIRECTION('ref_axis',(0.,1.,0.));
#985=DIRECTION('',(-1.,0.,0.));
#986=DIRECTION('center_axis',(0.,0.,-1.));
#987=DIRECTION('ref_axis',(0.,-1.,0.));
#988=DIRECTION('center_axis',(0.,0.,-1.));
#989=DIRECTION('ref_axis',(0.,-1.,0.));
#990=DIRECTION('',(-1.,0.,0.));
#991=DIRECTION('',(0.,1.,0.));
#992=DIRECTION('',(1.,0.,0.));
#993=DIRECTION('center_axis',(0.,1.,0.));
#994=DIRECTION('ref_axis',(0.,0.,-1.));
#995=DIRECTION('',(-1.,0.,0.));
#996=DIRECTION('',(0.,1.11022302462516E-15,1.));
#997=DIRECTION('center_axis',(0.,-1.,0.));
#998=DIRECTION('ref_axis',(0.,0.,1.));
#999=DIRECTION('',(-1.,0.,0.));
#1000=DIRECTION('',(0.,0.,-1.));
#1001=DIRECTION('',(-1.,0.,0.));
#1002=DIRECTION('center_axis',(-1.,0.,0.));
#1003=DIRECTION('ref_axis',(0.,1.,0.));
#1004=DIRECTION('center_axis',(1.,0.,0.));
#1005=DIRECTION('ref_axis',(0.,-1.,0.));
#1006=DIRECTION('',(-0.642787609686539,-0.766044443118978,9.38133875270273E-17));
#1007=DIRECTION('center_axis',(-1.,0.,0.));
#1008=DIRECTION('ref_axis',(0.,1.,0.));
#1009=DIRECTION('center_axis',(1.,0.,0.));
#1010=DIRECTION('ref_axis',(0.,-1.,0.));
#1011=DIRECTION('center_axis',(-1.,0.,0.));
#1012=DIRECTION('ref_axis',(0.,1.,0.));
#1013=DIRECTION('',(-1.,0.,0.));
#1014=DIRECTION('center_axis',(-1.,0.,0.));
#1015=DIRECTION('ref_axis',(0.,-0.707106781186548,-0.707106781186548));
#1016=DIRECTION('center_axis',(-1.,0.,0.));
#1017=DIRECTION('ref_axis',(0.,-0.707106781186548,-0.707106781186548));
#1018=DIRECTION('center_axis',(-1.,0.,0.));
#1019=DIRECTION('ref_axis',(0.,1.,0.));
#1020=DIRECTION('',(0.,1.,0.));
#1021=DIRECTION('center_axis',(-1.,0.,0.));
#1022=DIRECTION('ref_axis',(0.,-1.,0.));
#1023=DIRECTION('center_axis',(1.,0.,0.));
#1024=DIRECTION('ref_axis',(0.,-1.,0.));
#1025=DIRECTION('',(1.,0.,0.));
#1026=DIRECTION('center_axis',(0.,0.,1.));
#1027=DIRECTION('ref_axis',(0.,1.,0.));
#1028=DIRECTION('center_axis',(0.,3.50324616081204E-45,1.));
#1029=DIRECTION('ref_axis',(1.,0.,0.));
#1030=DIRECTION('',(0.,3.50324616081204E-45,1.));
#1031=CARTESIAN_POINT('',(0.,0.,0.));
#1032=CARTESIAN_POINT('Origin',(195.433,78.2000000000001,27.));
#1033=CARTESIAN_POINT('',(195.433,78.9290480093932,25.));
#1034=CARTESIAN_POINT('',(195.433,78.9290480093932,15.));
#1035=CARTESIAN_POINT('',(195.433,78.9290480093932,15.));
#1036=CARTESIAN_POINT('',(195.433,93.2000000000001,25.));
#1037=CARTESIAN_POINT('',(195.433,80.9500000000002,25.));
#1038=CARTESIAN_POINT('',(195.433,93.2000000000001,28.9999999999999));
#1039=CARTESIAN_POINT('',(195.433,93.2000000000001,27.));
#1040=CARTESIAN_POINT('',(195.433,89.2000000000001,28.9999999999999));
#1041=CARTESIAN_POINT('',(195.433,89.2000000000001,29.));
#1042=CARTESIAN_POINT('',(195.433,89.2000000000001,26.9999999999999));
#1043=CARTESIAN_POINT('',(195.433,89.2,32.));
#1044=CARTESIAN_POINT('',(195.433,47.2000000000001,26.9999999999999));
#1045=CARTESIAN_POINT('',(195.433,68.2000000000001,27.));
#1046=CARTESIAN_POINT('',(195.433,47.2000000000001,28.9999999999999));
#1047=CARTESIAN_POINT('',(195.433,47.2000000000001,32.));
#1048=CARTESIAN_POINT('',(195.433,43.2000000000001,28.9999999999999));
#1049=CARTESIAN_POINT('',(195.433,45.2000000000001,29.));
#1050=CARTESIAN_POINT('',(195.433,43.2000000000001,25.));
#1051=CARTESIAN_POINT('',(195.433,43.2000000000001,27.));
#1052=CARTESIAN_POINT('',(195.433,57.4709519906071,25.));
#1053=CARTESIAN_POINT('',(195.433,65.4500000000001,25.));
#1054=CARTESIAN_POINT('',(195.433,57.4709519906071,15.));
#1055=CARTESIAN_POINT('',(195.433,57.4709519906071,15.));
#1056=CARTESIAN_POINT('',(195.433,58.9290480093931,15.));
#1057=CARTESIAN_POINT('',(195.433,68.2000000000001,15.));
#1058=CARTESIAN_POINT('',(195.433,58.9290480093931,25.));
#1059=CARTESIAN_POINT('',(195.433,58.9290480093931,15.));
#1060=CARTESIAN_POINT('',(195.433,77.4709519906073,25.));
#1061=CARTESIAN_POINT('',(195.433,74.2000000000001,25.));
#1062=CARTESIAN_POINT('',(195.433,77.4709519906073,15.));
#1063=CARTESIAN_POINT('',(195.433,77.4709519906073,15.));
#1064=CARTESIAN_POINT('',(195.433,78.2000000000002,15.));
#1065=CARTESIAN_POINT('Origin',(191.5,78.2000000000002,15.));
#1066=CARTESIAN_POINT('',(191.5,74.2000000000002,25.));
#1067=CARTESIAN_POINT('Origin',(191.5,78.2000000000002,25.));
#1068=CARTESIAN_POINT('',(191.5,74.2000000000002,15.));
#1069=CARTESIAN_POINT('',(191.5,74.2000000000002,15.));
#1070=CARTESIAN_POINT('Origin',(191.5,78.2000000000002,15.));
#1071=CARTESIAN_POINT('Origin',(191.5,78.2000000000002,15.));
#1072=CARTESIAN_POINT('',(187.433333333333,74.2000000000002,15.));
#1073=CARTESIAN_POINT('',(187.5,74.2000000000002,15.));
#1074=CARTESIAN_POINT('',(187.433333333333,82.2000000000003,15.));
#1075=CARTESIAN_POINT('',(187.433333333333,80.2000000000003,15.));
#1076=CARTESIAN_POINT('',(191.5,82.2000000000002,15.));
#1077=CARTESIAN_POINT('',(187.5,82.2000000000003,15.));
#1078=CARTESIAN_POINT('Origin',(191.5,78.2000000000002,15.));
#1079=CARTESIAN_POINT('',(189.75,78.2000000000002,15.));
#1080=CARTESIAN_POINT('Origin',(191.5,78.2000000000002,15.));
#1081=CARTESIAN_POINT('Origin',(191.5,58.2000000000001,15.));
#1082=CARTESIAN_POINT('',(191.5,54.2000000000001,25.));
#1083=CARTESIAN_POINT('Origin',(191.5,58.2000000000001,25.));
#1084=CARTESIAN_POINT('',(191.5,54.2000000000002,15.));
#1085=CARTESIAN_POINT('',(191.5,54.2000000000001,15.));
#1086=CARTESIAN_POINT('Origin',(191.5,58.2000000000001,15.));
#1087=CARTESIAN_POINT('Origin',(191.5,58.2000000000001,15.));
#1088=CARTESIAN_POINT('',(187.433333333333,54.2000000000001,15.));
#1089=CARTESIAN_POINT('',(187.5,54.2000000000001,15.));
#1090=CARTESIAN_POINT('',(187.433333333333,62.2000000000001,15.));
#1091=CARTESIAN_POINT('',(187.433333333333,60.2000000000001,15.));
#1092=CARTESIAN_POINT('',(191.5,62.2000000000001,15.));
#1093=CARTESIAN_POINT('',(187.5,62.2000000000001,15.));
#1094=CARTESIAN_POINT('Origin',(191.5,58.2000000000001,15.));
#1095=CARTESIAN_POINT('',(189.75,58.2000000000001,15.));
#1096=CARTESIAN_POINT('Origin',(191.5,58.2000000000001,15.));
#1097=CARTESIAN_POINT('Origin',(191.5,58.2000000000001,27.));
#1098=CARTESIAN_POINT('',(187.433333333333,89.2,27.));
#1099=CARTESIAN_POINT('',(187.5,89.2000000000001,26.9999999999999));
#1100=CARTESIAN_POINT('',(187.433333333333,47.2000000000001,27.));
#1101=CARTESIAN_POINT('',(187.433333333333,52.7000000000001,27.));
#1102=CARTESIAN_POINT('',(193.5,47.2000000000001,27.));
#1103=CARTESIAN_POINT('',(189.75,58.2000000000001,27.));
#1104=CARTESIAN_POINT('Origin',(191.5,58.2000000000001,27.));
#1105=CARTESIAN_POINT('',(189.75,78.2000000000002,27.));
#1106=CARTESIAN_POINT('Origin',(191.5,78.2000000000002,27.));
#1107=CARTESIAN_POINT('Origin',(205.833333333333,89.2,37.));
#1108=CARTESIAN_POINT('',(205.833333333333,89.2,29.));
#1109=CARTESIAN_POINT('',(200.333333333333,89.2,29.));
#1110=CARTESIAN_POINT('',(205.833333333333,89.2,37.));
#1111=CARTESIAN_POINT('',(205.833333333333,89.2,25.));
#1112=CARTESIAN_POINT('',(187.433333333333,89.2,37.));
#1113=CARTESIAN_POINT('',(205.833333333333,89.2,37.));
#1114=CARTESIAN_POINT('',(187.433333333333,89.2,37.));
#1115=CARTESIAN_POINT('Origin',(187.5,93.2000000000001,27.));
#1116=CARTESIAN_POINT('',(187.433333333333,93.2,25.));
#1117=CARTESIAN_POINT('',(187.5,93.2000000000001,25.));
#1118=CARTESIAN_POINT('',(187.433333333333,93.2,29.));
#1119=CARTESIAN_POINT('',(187.433333333333,93.2000000000001,28.));
#1120=CARTESIAN_POINT('',(205.833333333333,93.2,29.));
#1121=CARTESIAN_POINT('Origin',(191.5,83.7000000000002,25.));
#1122=CARTESIAN_POINT('',(191.5,82.2000000000003,25.));
#1123=CARTESIAN_POINT('Origin',(191.5,78.2000000000002,25.));
#1124=CARTESIAN_POINT('',(187.433333333333,82.2000000000003,25.));
#1125=CARTESIAN_POINT('',(187.5,82.2000000000003,25.));
#1126=CARTESIAN_POINT('',(187.433333333333,88.4500000000001,25.));
#1127=CARTESIAN_POINT('Origin',(191.5,74.2000000000002,29.));
#1128=CARTESIAN_POINT('',(187.433333333333,74.2000000000002,25.));
#1129=CARTESIAN_POINT('',(187.433333333333,74.2000000000002,27.));
#1130=CARTESIAN_POINT('',(191.5,74.2000000000002,25.));
#1131=CARTESIAN_POINT('Origin',(187.5,82.2000000000003,29.));
#1132=CARTESIAN_POINT('',(187.433333333333,82.2000000000003,27.));
#1133=CARTESIAN_POINT('',(191.5,82.2000000000002,15.));
#1134=CARTESIAN_POINT('Origin',(187.5,62.2000000000001,29.));
#1135=CARTESIAN_POINT('',(187.433333333333,62.2000000000001,25.));
#1136=CARTESIAN_POINT('',(187.433333333333,62.2000000000001,27.));
#1137=CARTESIAN_POINT('',(191.5,62.2000000000001,25.));
#1138=CARTESIAN_POINT('',(187.5,62.2000000000001,25.));
#1139=CARTESIAN_POINT('',(191.5,62.2000000000001,15.));
#1140=CARTESIAN_POINT('Origin',(187.433333333333,97.2,37.));
#1141=CARTESIAN_POINT('',(187.433333333333,58.7000000000001,25.));
#1142=CARTESIAN_POINT('',(187.433333333333,54.2000000000001,25.));
#1143=CARTESIAN_POINT('',(187.433333333333,54.2000000000001,27.));
#1144=CARTESIAN_POINT('',(187.433333333333,43.2,25.));
#1145=CARTESIAN_POINT('',(187.433333333333,49.9500000000001,25.));
#1146=CARTESIAN_POINT('',(187.433333333333,43.2,29.));
#1147=CARTESIAN_POINT('',(187.433333333333,43.2000000000001,28.));
#1148=CARTESIAN_POINT('',(187.433333333333,39.2,33.));
#1149=CARTESIAN_POINT('Origin',(187.433333333333,43.2,33.));
#1150=CARTESIAN_POINT('',(187.433333333333,39.2000000000001,37.));
#1151=CARTESIAN_POINT('',(187.433333333333,39.2000000000001,33.));
#1152=CARTESIAN_POINT('',(187.433333333333,47.2000000000001,37.));
#1153=CARTESIAN_POINT('',(187.433333333333,39.2000000000001,37.));
#1154=CARTESIAN_POINT('',(187.433333333333,47.2000000000001,37.));
#1155=CARTESIAN_POINT('',(187.433333333333,97.2,37.));
#1156=CARTESIAN_POINT('',(187.433333333333,97.2,37.));
#1157=CARTESIAN_POINT('',(187.433333333333,97.2,33.));
#1158=CARTESIAN_POINT('',(187.433333333333,97.2,33.));
#1159=CARTESIAN_POINT('Origin',(187.433333333333,93.2,33.));
#1160=CARTESIAN_POINT('',(187.433333333333,40.2,33.));
#1161=CARTESIAN_POINT('Origin',(187.433333333333,43.2,33.));
#1162=CARTESIAN_POINT('',(187.433333333333,96.2,33.));
#1163=CARTESIAN_POINT('Origin',(187.433333333333,93.2,33.));
#1164=CARTESIAN_POINT('Origin',(191.5,52.7000000000001,25.));
#1165=CARTESIAN_POINT('',(187.5,43.2000000000001,25.));
#1166=CARTESIAN_POINT('',(191.5,54.2000000000001,25.));
#1167=CARTESIAN_POINT('Origin',(191.5,70.2000000000001,25.));
#1168=CARTESIAN_POINT('Origin',(191.5,58.2000000000001,25.));
#1169=CARTESIAN_POINT('Origin',(195.5,43.2000000000001,27.));
#1170=CARTESIAN_POINT('',(205.833333333333,43.2,29.));
#1171=CARTESIAN_POINT('Origin',(191.5,54.2000000000001,29.));
#1172=CARTESIAN_POINT('Origin',(191.5,58.2000000000001,15.));
#1173=CARTESIAN_POINT('Origin',(191.5,58.2000000000001,15.));
#1174=CARTESIAN_POINT('',(189.75,58.2000000000001,15.));
#1175=CARTESIAN_POINT('Origin',(191.5,78.2000000000002,15.));
#1176=CARTESIAN_POINT('Origin',(205.833333333333,89.2,29.));
#1177=CARTESIAN_POINT('',(205.833333333333,93.2,29.));
#1178=CARTESIAN_POINT('',(205.833333333333,93.2,29.));
#1179=CARTESIAN_POINT('',(205.833333333333,97.2,29.));
#1180=CARTESIAN_POINT('Origin',(205.833333333333,97.2,29.));
#1181=CARTESIAN_POINT('',(205.833333333333,97.2000000000001,33.));
#1182=CARTESIAN_POINT('',(194.833333333333,97.2,33.));
#1183=CARTESIAN_POINT('',(205.833333333333,97.2,37.));
#1184=CARTESIAN_POINT('',(205.833333333333,97.2,37.));
#1185=CARTESIAN_POINT('',(205.833333333333,97.2,37.));
#1186=CARTESIAN_POINT('Origin',(195.591982780099,93.2,33.));
#1187=CARTESIAN_POINT('',(195.508072816982,91.6,33.));
#1188=CARTESIAN_POINT('',(195.508072816982,94.7999999999996,33.));
#1189=CARTESIAN_POINT('Origin',(195.508072816982,93.2,33.));
#1190=CARTESIAN_POINT('Origin',(195.508072816982,93.2,33.));
#1191=CARTESIAN_POINT('',(194.333333333333,96.2,33.));
#1192=CARTESIAN_POINT('',(195.591982780099,94.7,33.));
#1193=CARTESIAN_POINT('Origin',(194.333333333333,93.2,33.));
#1194=CARTESIAN_POINT('Origin',(193.083333333333,93.2,33.));
#1195=CARTESIAN_POINT('',(193.083333333333,96.2,33.));
#1196=CARTESIAN_POINT('Origin',(205.833333333333,93.2,33.));
#1197=CARTESIAN_POINT('Origin',(205.833333333333,93.2,33.));
#1198=CARTESIAN_POINT('Origin',(205.833333333333,97.2,37.));
#1199=CARTESIAN_POINT('',(205.833333333333,97.2,37.));
#1200=CARTESIAN_POINT('',(205.833333333333,91.6,33.));
#1201=CARTESIAN_POINT('Origin',(205.833333333333,93.2,33.));
#1202=CARTESIAN_POINT('Origin',(204.333333333333,93.2,33.));
#1203=CARTESIAN_POINT('',(204.333333333333,91.6,33.));
#1204=CARTESIAN_POINT('Origin',(205.833333333333,97.2,37.));
#1205=CARTESIAN_POINT('Origin',(205.833333333333,47.2000000000001,29.));
#1206=CARTESIAN_POINT('',(205.833333333333,47.2,29.));
#1207=CARTESIAN_POINT('',(200.666666666667,47.2000000000001,29.));
#1208=CARTESIAN_POINT('',(205.833333333333,43.2,29.));
#1209=CARTESIAN_POINT('',(205.833333333333,39.2000000000001,29.));
#1210=CARTESIAN_POINT('',(205.833333333333,43.2,29.));
#1211=CARTESIAN_POINT('Origin',(205.833333333333,47.2000000000001,37.));
#1212=CARTESIAN_POINT('',(205.833333333333,47.2000000000001,37.));
#1213=CARTESIAN_POINT('',(205.833333333333,47.2000000000001,37.));
#1214=CARTESIAN_POINT('',(205.833333333333,47.2,25.));
#1215=CARTESIAN_POINT('Origin',(205.833333333333,39.2000000000001,29.));
#1216=CARTESIAN_POINT('',(205.833333333333,39.2,33.));
#1217=CARTESIAN_POINT('',(205.833333333333,39.2,33.));
#1218=CARTESIAN_POINT('',(205.833333333333,39.2000000000001,37.));
#1219=CARTESIAN_POINT('',(205.833333333333,39.2000000000001,37.));
#1220=CARTESIAN_POINT('',(205.833333333333,39.2000000000001,37.));
#1221=CARTESIAN_POINT('Origin',(195.591982780099,43.2,33.));
#1222=CARTESIAN_POINT('',(195.508072816982,44.8,33.));
#1223=CARTESIAN_POINT('',(195.508072816982,41.6000000000004,33.));
#1224=CARTESIAN_POINT('Origin',(195.508072816982,43.2,33.));
#1225=CARTESIAN_POINT('',(194.333333333333,40.2,33.));
#1226=CARTESIAN_POINT('',(195.591982780099,41.7,33.));
#1227=CARTESIAN_POINT('Origin',(194.333333333333,43.2,33.));
#1228=CARTESIAN_POINT('Origin',(195.508072816982,43.2,33.));
#1229=CARTESIAN_POINT('Origin',(193.083333333333,43.2,33.));
#1230=CARTESIAN_POINT('',(193.083333333333,40.2,33.));
#1231=CARTESIAN_POINT('Origin',(205.833333333333,43.2,33.));
#1232=CARTESIAN_POINT('Origin',(205.833333333333,43.2,33.));
#1233=CARTESIAN_POINT('Origin',(205.833333333333,39.2000000000001,37.));
#1234=CARTESIAN_POINT('',(205.833333333333,39.2000000000001,37.));
#1235=CARTESIAN_POINT('',(205.833333333333,44.8,33.));
#1236=CARTESIAN_POINT('Origin',(205.833333333333,43.2,33.));
#1237=CARTESIAN_POINT('Origin',(204.333333333333,43.2,33.));
#1238=CARTESIAN_POINT('',(204.333333333333,44.8,33.));
#1239=CARTESIAN_POINT('Origin',(205.833333333333,39.2000000000001,37.));
#1240=CARTESIAN_POINT('Origin',(191.5,78.2000000000002,15.));
#1241=CARTESIAN_POINT('',(189.75,78.2000000000002,15.));
#1242=UNCERTAINTY_MEASURE_WITH_UNIT(LENGTH_MEASURE(0.01),#1246,
'DISTANCE_ACCURACY_VALUE',
'Maximum model space distance between geometric entities at asserted c
onnectivities');
#1243=UNCERTAINTY_MEASURE_WITH_UNIT(LENGTH_MEASURE(0.01),#1246,
'DISTANCE_ACCURACY_VALUE',
'Maximum model space distance between geometric entities at asserted c
onnectivities');
#1244=(
GEOMETRIC_REPRESENTATION_CONTEXT(3)
GLOBAL_UNCERTAINTY_ASSIGNED_CONTEXT((#1242))
GLOBAL_UNIT_ASSIGNED_CONTEXT((#1246,#1248,#1249))
REPRESENTATION_CONTEXT('','3D')
);
#1245=(
GEOMETRIC_REPRESENTATION_CONTEXT(3)
GLOBAL_UNCERTAINTY_ASSIGNED_CONTEXT((#1243))
GLOBAL_UNIT_ASSIGNED_CONTEXT((#1246,#1248,#1249))
REPRESENTATION_CONTEXT('','3D')
);
#1246=(
LENGTH_UNIT()
NAMED_UNIT(*)
SI_UNIT(.MILLI.,.METRE.)
);
#1247=(
LENGTH_UNIT()
NAMED_UNIT(*)
SI_UNIT($,.METRE.)
);
#1248=(
NAMED_UNIT(*)
PLANE_ANGLE_UNIT()
SI_UNIT($,.RADIAN.)
);
#1249=(
NAMED_UNIT(*)
SI_UNIT($,.STERADIAN.)
SOLID_ANGLE_UNIT()
);
#1250=SHAPE_DEFINITION_REPRESENTATION(#1251,#1252);
#1251=PRODUCT_DEFINITION_SHAPE('',$,#1254);
#1252=SHAPE_REPRESENTATION('',(#758),#1244);
#1253=PRODUCT_DEFINITION_CONTEXT('part definition',#1258,'design');
#1254=PRODUCT_DEFINITION('Rear wing holder','Rear wing holder',#1255,#1253);
#1255=PRODUCT_DEFINITION_FORMATION('',$,#1260);
#1256=PRODUCT_RELATED_PRODUCT_CATEGORY('Rear wing holder',
'Rear wing holder',(#1260));
#1257=APPLICATION_PROTOCOL_DEFINITION('international standard',
'automotive_design',2009,#1258);
#1258=APPLICATION_CONTEXT(
'Core Data for Automotive Mechanical Design Process');
#1259=PRODUCT_CONTEXT('part definition',#1258,'mechanical');
#1260=PRODUCT('Rear wing holder','Rear wing holder',$,(#1259));
#1261=PRESENTATION_STYLE_ASSIGNMENT((#1263));
#1262=PRESENTATION_STYLE_ASSIGNMENT((#1264));
#1263=SURFACE_STYLE_USAGE(.BOTH.,#1265);
#1264=SURFACE_STYLE_USAGE(.BOTH.,#1266);
#1265=SURFACE_SIDE_STYLE('',(#1267));
#1266=SURFACE_SIDE_STYLE('',(#1268));
#1267=SURFACE_STYLE_FILL_AREA(#1269);
#1268=SURFACE_STYLE_FILL_AREA(#1270);
#1269=FILL_AREA_STYLE('Stahl - satiniert',(#1271));
#1270=FILL_AREA_STYLE('Opaque(160,160,160)',(#1272));
#1271=FILL_AREA_STYLE_COLOUR('Stahl - satiniert',#1273);
#1272=FILL_AREA_STYLE_COLOUR('Opaque(160,160,160)',#1274);
#1273=COLOUR_RGB('Stahl - satiniert',0.627450980392157,0.627450980392157,
0.627450980392157);
#1274=COLOUR_RGB('Opaque(160,160,160)',0.392156862745098,0.392156862745098,
0.392156862745098);
ENDSEC;
END-ISO-10303-21;
