ISO-10303-21;
HEADER;
/* Generated by software containing ST-Developer
 * from STEP Tools, Inc. (www.steptools.com) 
 */

FILE_DESCRIPTION(
/* description */ (''),
/* implementation_level */ '2;1');

FILE_NAME(
/* name */ 'Right rear axle TPU.step',
/* time_stamp */ '2026-04-11T13:49:00+02:00',
/* author */ (''),
/* organization */ (''),
/* preprocessor_version */ 'ST-DEVELOPER v20.1',
/* originating_system */ 'Autodesk Translation Framework v14.24.0.0',
/* authorisation */ '');

FILE_SCHEMA (('AUTOMOTIVE_DESIGN { 1 0 10303 214 3 1 1 }'));
ENDSEC;

DATA;
#10=MECHANICAL_DESIGN_GEOMETRIC_PRESENTATION_REPRESENTATION('',(#13),#858);
#11=SHAPE_REPRESENTATION_RELATIONSHIP('SRR','None',#865,#12);
#12=ADVANCED_BREP_SHAPE_REPRESENTATION('',(#14),#857);
#13=STYLED_ITEM('',(#875),#14);
#14=MANIFOLD_SOLID_BREP('Right rear axle',#514);
#15=CYLINDRICAL_SURFACE('',#536,1.6);
#16=CYLINDRICAL_SURFACE('',#541,4.1);
#17=CYLINDRICAL_SURFACE('',#545,4.);
#18=CYLINDRICAL_SURFACE('',#549,4.);
#19=CYLINDRICAL_SURFACE('',#566,5.25);
#20=CYLINDRICAL_SURFACE('',#567,4.1);
#21=CYLINDRICAL_SURFACE('',#569,5.25);
#22=FACE_BOUND('',#76,.T.);
#23=FACE_BOUND('',#79,.T.);
#24=FACE_BOUND('',#87,.T.);
#25=FACE_BOUND('',#89,.T.);
#26=FACE_BOUND('',#92,.T.);
#27=CIRCLE('',#535,1.6);
#28=CIRCLE('',#537,1.6);
#29=CIRCLE('',#539,4.1);
#30=CIRCLE('',#540,4.1);
#31=CIRCLE('',#542,4.1);
#32=CIRCLE('',#546,4.);
#33=CIRCLE('',#547,4.);
#34=CIRCLE('',#550,4.);
#35=CIRCLE('',#551,4.);
#36=CIRCLE('',#554,5.25);
#37=CIRCLE('',#555,5.25);
#38=CIRCLE('',#556,4.1);
#39=CIRCLE('',#559,5.25);
#40=CIRCLE('',#560,5.25);
#41=FACE_OUTER_BOUND('',#69,.T.);
#42=FACE_OUTER_BOUND('',#70,.T.);
#43=FACE_OUTER_BOUND('',#71,.T.);
#44=FACE_OUTER_BOUND('',#72,.T.);
#45=FACE_OUTER_BOUND('',#73,.T.);
#46=FACE_OUTER_BOUND('',#74,.T.);
#47=FACE_OUTER_BOUND('',#75,.T.);
#48=FACE_OUTER_BOUND('',#77,.T.);
#49=FACE_OUTER_BOUND('',#78,.T.);
#50=FACE_OUTER_BOUND('',#80,.T.);
#51=FACE_OUTER_BOUND('',#81,.T.);
#52=FACE_OUTER_BOUND('',#82,.T.);
#53=FACE_OUTER_BOUND('',#83,.T.);
#54=FACE_OUTER_BOUND('',#84,.T.);
#55=FACE_OUTER_BOUND('',#85,.T.);
#56=FACE_OUTER_BOUND('',#86,.T.);
#57=FACE_OUTER_BOUND('',#88,.T.);
#58=FACE_OUTER_BOUND('',#90,.T.);
#59=FACE_OUTER_BOUND('',#91,.T.);
#60=FACE_OUTER_BOUND('',#93,.T.);
#61=FACE_OUTER_BOUND('',#94,.T.);
#62=FACE_OUTER_BOUND('',#95,.T.);
#63=FACE_OUTER_BOUND('',#96,.T.);
#64=FACE_OUTER_BOUND('',#97,.T.);
#65=FACE_OUTER_BOUND('',#98,.T.);
#66=FACE_OUTER_BOUND('',#99,.T.);
#67=FACE_OUTER_BOUND('',#100,.T.);
#68=FACE_OUTER_BOUND('',#101,.T.);
#69=EDGE_LOOP('',(#327,#328,#329,#330));
#70=EDGE_LOOP('',(#331,#332,#333,#334));
#71=EDGE_LOOP('',(#335,#336,#337,#338));
#72=EDGE_LOOP('',(#339,#340,#341,#342));
#73=EDGE_LOOP('',(#343,#344,#345,#346));
#74=EDGE_LOOP('',(#347,#348,#349,#350));
#75=EDGE_LOOP('',(#351,#352,#353,#354,#355,#356));
#76=EDGE_LOOP('',(#357));
#77=EDGE_LOOP('',(#358,#359,#360,#361));
#78=EDGE_LOOP('',(#362,#363,#364,#365));
#79=EDGE_LOOP('',(#366,#367,#368,#369,#370,#371));
#80=EDGE_LOOP('',(#372,#373,#374,#375));
#81=EDGE_LOOP('',(#376,#377,#378,#379));
#82=EDGE_LOOP('',(#380,#381,#382,#383));
#83=EDGE_LOOP('',(#384,#385,#386,#387));
#84=EDGE_LOOP('',(#388,#389,#390,#391));
#85=EDGE_LOOP('',(#392,#393,#394,#395));
#86=EDGE_LOOP('',(#396,#397,#398,#399));
#87=EDGE_LOOP('',(#400));
#88=EDGE_LOOP('',(#401,#402,#403,#404,#405,#406,#407,#408));
#89=EDGE_LOOP('',(#409,#410,#411,#412));
#90=EDGE_LOOP('',(#413,#414,#415,#416));
#91=EDGE_LOOP('',(#417,#418,#419,#420,#421,#422,#423,#424));
#92=EDGE_LOOP('',(#425,#426,#427,#428));
#93=EDGE_LOOP('',(#429,#430,#431,#432));
#94=EDGE_LOOP('',(#433,#434,#435,#436));
#95=EDGE_LOOP('',(#437,#438,#439,#440));
#96=EDGE_LOOP('',(#441,#442,#443,#444));
#97=EDGE_LOOP('',(#445,#446,#447,#448));
#98=EDGE_LOOP('',(#449,#450,#451,#452));
#99=EDGE_LOOP('',(#453,#454,#455,#456));
#100=EDGE_LOOP('',(#457,#458,#459,#460));
#101=EDGE_LOOP('',(#461,#462,#463,#464));
#102=LINE('',#715,#157);
#103=LINE('',#717,#158);
#104=LINE('',#719,#159);
#105=LINE('',#720,#160);
#106=LINE('',#723,#161);
#107=LINE('',#725,#162);
#108=LINE('',#726,#163);
#109=LINE('',#729,#164);
#110=LINE('',#731,#165);
#111=LINE('',#732,#166);
#112=LINE('',#735,#167);
#113=LINE('',#737,#168);
#114=LINE('',#738,#169);
#115=LINE('',#741,#170);
#116=LINE('',#743,#171);
#117=LINE('',#744,#172);
#118=LINE('',#746,#173);
#119=LINE('',#747,#174);
#120=LINE('',#754,#175);
#121=LINE('',#760,#176);
#122=LINE('',#763,#177);
#123=LINE('',#766,#178);
#124=LINE('',#769,#179);
#125=LINE('',#772,#180);
#126=LINE('',#773,#181);
#127=LINE('',#777,#182);
#128=LINE('',#779,#183);
#129=LINE('',#781,#184);
#130=LINE('',#782,#185);
#131=LINE('',#788,#186);
#132=LINE('',#791,#187);
#133=LINE('',#793,#188);
#134=LINE('',#794,#189);
#135=LINE('',#802,#190);
#136=LINE('',#804,#191);
#137=LINE('',#806,#192);
#138=LINE('',#810,#193);
#139=LINE('',#812,#194);
#140=LINE('',#814,#195);
#141=LINE('',#818,#196);
#142=LINE('',#821,#197);
#143=LINE('',#823,#198);
#144=LINE('',#824,#199);
#145=LINE('',#827,#200);
#146=LINE('',#831,#201);
#147=LINE('',#833,#202);
#148=LINE('',#835,#203);
#149=LINE('',#838,#204);
#150=LINE('',#840,#205);
#151=LINE('',#841,#206);
#152=LINE('',#843,#207);
#153=LINE('',#845,#208);
#154=LINE('',#847,#209);
#155=LINE('',#849,#210);
#156=LINE('',#852,#211);
#157=VECTOR('',#574,10.);
#158=VECTOR('',#575,10.);
#159=VECTOR('',#576,10.);
#160=VECTOR('',#577,10.);
#161=VECTOR('',#580,10.);
#162=VECTOR('',#581,10.);
#163=VECTOR('',#582,10.);
#164=VECTOR('',#585,10.);
#165=VECTOR('',#586,10.);
#166=VECTOR('',#587,10.);
#167=VECTOR('',#590,10.);
#168=VECTOR('',#591,10.);
#169=VECTOR('',#592,10.);
#170=VECTOR('',#595,10.);
#171=VECTOR('',#596,10.);
#172=VECTOR('',#597,10.);
#173=VECTOR('',#600,10.);
#174=VECTOR('',#601,10.);
#175=VECTOR('',#610,1.6);
#176=VECTOR('',#615,10.);
#177=VECTOR('',#618,10.);
#178=VECTOR('',#621,10.);
#179=VECTOR('',#624,10.);
#180=VECTOR('',#627,10.);
#181=VECTOR('',#628,10.);
#182=VECTOR('',#631,10.);
#183=VECTOR('',#632,10.);
#184=VECTOR('',#633,10.);
#185=VECTOR('',#634,10.);
#186=VECTOR('',#641,10.);
#187=VECTOR('',#644,10.);
#188=VECTOR('',#645,10.);
#189=VECTOR('',#646,10.);
#190=VECTOR('',#657,10.);
#191=VECTOR('',#658,10.);
#192=VECTOR('',#659,10.);
#193=VECTOR('',#662,10.);
#194=VECTOR('',#663,10.);
#195=VECTOR('',#664,10.);
#196=VECTOR('',#669,10.);
#197=VECTOR('',#672,10.);
#198=VECTOR('',#673,10.);
#199=VECTOR('',#674,10.);
#200=VECTOR('',#677,10.);
#201=VECTOR('',#680,10.);
#202=VECTOR('',#681,10.);
#203=VECTOR('',#682,10.);
#204=VECTOR('',#685,10.);
#205=VECTOR('',#688,10.);
#206=VECTOR('',#689,10.);
#207=VECTOR('',#692,10.);
#208=VECTOR('',#695,10.);
#209=VECTOR('',#698,10.);
#210=VECTOR('',#701,10.);
#211=VECTOR('',#706,10.);
#212=VERTEX_POINT('',#713);
#213=VERTEX_POINT('',#714);
#214=VERTEX_POINT('',#716);
#215=VERTEX_POINT('',#718);
#216=VERTEX_POINT('',#722);
#217=VERTEX_POINT('',#724);
#218=VERTEX_POINT('',#728);
#219=VERTEX_POINT('',#730);
#220=VERTEX_POINT('',#734);
#221=VERTEX_POINT('',#736);
#222=VERTEX_POINT('',#740);
#223=VERTEX_POINT('',#742);
#224=VERTEX_POINT('',#749);
#225=VERTEX_POINT('',#752);
#226=VERTEX_POINT('',#756);
#227=VERTEX_POINT('',#757);
#228=VERTEX_POINT('',#759);
#229=VERTEX_POINT('',#761);
#230=VERTEX_POINT('',#765);
#231=VERTEX_POINT('',#767);
#232=VERTEX_POINT('',#771);
#233=VERTEX_POINT('',#775);
#234=VERTEX_POINT('',#776);
#235=VERTEX_POINT('',#778);
#236=VERTEX_POINT('',#780);
#237=VERTEX_POINT('',#784);
#238=VERTEX_POINT('',#786);
#239=VERTEX_POINT('',#790);
#240=VERTEX_POINT('',#792);
#241=VERTEX_POINT('',#800);
#242=VERTEX_POINT('',#801);
#243=VERTEX_POINT('',#803);
#244=VERTEX_POINT('',#805);
#245=VERTEX_POINT('',#807);
#246=VERTEX_POINT('',#809);
#247=VERTEX_POINT('',#811);
#248=VERTEX_POINT('',#813);
#249=VERTEX_POINT('',#816);
#250=VERTEX_POINT('',#820);
#251=VERTEX_POINT('',#822);
#252=VERTEX_POINT('',#826);
#253=VERTEX_POINT('',#828);
#254=VERTEX_POINT('',#830);
#255=VERTEX_POINT('',#832);
#256=VERTEX_POINT('',#834);
#257=VERTEX_POINT('',#836);
#258=EDGE_CURVE('',#212,#213,#102,.T.);
#259=EDGE_CURVE('',#212,#214,#103,.T.);
#260=EDGE_CURVE('',#214,#215,#104,.T.);
#261=EDGE_CURVE('',#213,#215,#105,.T.);
#262=EDGE_CURVE('',#216,#212,#106,.T.);
#263=EDGE_CURVE('',#216,#217,#107,.T.);
#264=EDGE_CURVE('',#217,#214,#108,.T.);
#265=EDGE_CURVE('',#218,#216,#109,.T.);
#266=EDGE_CURVE('',#218,#219,#110,.T.);
#267=EDGE_CURVE('',#219,#217,#111,.T.);
#268=EDGE_CURVE('',#220,#218,#112,.T.);
#269=EDGE_CURVE('',#220,#221,#113,.T.);
#270=EDGE_CURVE('',#221,#219,#114,.T.);
#271=EDGE_CURVE('',#222,#220,#115,.T.);
#272=EDGE_CURVE('',#222,#223,#116,.T.);
#273=EDGE_CURVE('',#223,#221,#117,.T.);
#274=EDGE_CURVE('',#213,#222,#118,.T.);
#275=EDGE_CURVE('',#215,#223,#119,.T.);
#276=EDGE_CURVE('',#224,#224,#27,.T.);
#277=EDGE_CURVE('',#225,#225,#28,.T.);
#278=EDGE_CURVE('',#225,#224,#120,.T.);
#279=EDGE_CURVE('',#226,#227,#29,.T.);
#280=EDGE_CURVE('',#228,#226,#121,.T.);
#281=EDGE_CURVE('',#229,#228,#30,.T.);
#282=EDGE_CURVE('',#227,#229,#122,.T.);
#283=EDGE_CURVE('',#230,#227,#123,.T.);
#284=EDGE_CURVE('',#231,#230,#31,.F.);
#285=EDGE_CURVE('',#231,#226,#124,.T.);
#286=EDGE_CURVE('',#232,#229,#125,.T.);
#287=EDGE_CURVE('',#230,#232,#126,.F.);
#288=EDGE_CURVE('',#233,#234,#127,.T.);
#289=EDGE_CURVE('',#233,#235,#128,.T.);
#290=EDGE_CURVE('',#236,#235,#129,.T.);
#291=EDGE_CURVE('',#234,#236,#130,.T.);
#292=EDGE_CURVE('',#237,#234,#32,.T.);
#293=EDGE_CURVE('',#238,#236,#33,.T.);
#294=EDGE_CURVE('',#237,#238,#131,.T.);
#295=EDGE_CURVE('',#237,#239,#132,.T.);
#296=EDGE_CURVE('',#240,#238,#133,.T.);
#297=EDGE_CURVE('',#239,#240,#134,.T.);
#298=EDGE_CURVE('',#233,#239,#34,.T.);
#299=EDGE_CURVE('',#235,#240,#35,.T.);
#300=EDGE_CURVE('',#241,#242,#135,.T.);
#301=EDGE_CURVE('',#241,#243,#136,.T.);
#302=EDGE_CURVE('',#244,#243,#137,.T.);
#303=EDGE_CURVE('',#244,#245,#36,.F.);
#304=EDGE_CURVE('',#246,#245,#138,.T.);
#305=EDGE_CURVE('',#246,#247,#139,.T.);
#306=EDGE_CURVE('',#248,#247,#140,.T.);
#307=EDGE_CURVE('',#248,#242,#37,.F.);
#308=EDGE_CURVE('',#232,#249,#38,.F.);
#309=EDGE_CURVE('',#249,#231,#141,.F.);
#310=EDGE_CURVE('',#250,#241,#142,.T.);
#311=EDGE_CURVE('',#251,#250,#143,.T.);
#312=EDGE_CURVE('',#243,#251,#144,.T.);
#313=EDGE_CURVE('',#252,#250,#145,.T.);
#314=EDGE_CURVE('',#253,#252,#39,.T.);
#315=EDGE_CURVE('',#254,#253,#146,.T.);
#316=EDGE_CURVE('',#254,#255,#147,.T.);
#317=EDGE_CURVE('',#256,#255,#148,.T.);
#318=EDGE_CURVE('',#257,#256,#40,.T.);
#319=EDGE_CURVE('',#251,#257,#149,.T.);
#320=EDGE_CURVE('',#255,#246,#150,.T.);
#321=EDGE_CURVE('',#247,#254,#151,.T.);
#322=EDGE_CURVE('',#242,#252,#152,.T.);
#323=EDGE_CURVE('',#257,#244,#153,.T.);
#324=EDGE_CURVE('',#245,#256,#154,.T.);
#325=EDGE_CURVE('',#253,#248,#155,.T.);
#326=EDGE_CURVE('',#228,#249,#156,.T.);
#327=ORIENTED_EDGE('',*,*,#258,.F.);
#328=ORIENTED_EDGE('',*,*,#259,.T.);
#329=ORIENTED_EDGE('',*,*,#260,.T.);
#330=ORIENTED_EDGE('',*,*,#261,.F.);
#331=ORIENTED_EDGE('',*,*,#262,.F.);
#332=ORIENTED_EDGE('',*,*,#263,.T.);
#333=ORIENTED_EDGE('',*,*,#264,.T.);
#334=ORIENTED_EDGE('',*,*,#259,.F.);
#335=ORIENTED_EDGE('',*,*,#265,.F.);
#336=ORIENTED_EDGE('',*,*,#266,.T.);
#337=ORIENTED_EDGE('',*,*,#267,.T.);
#338=ORIENTED_EDGE('',*,*,#263,.F.);
#339=ORIENTED_EDGE('',*,*,#268,.F.);
#340=ORIENTED_EDGE('',*,*,#269,.T.);
#341=ORIENTED_EDGE('',*,*,#270,.T.);
#342=ORIENTED_EDGE('',*,*,#266,.F.);
#343=ORIENTED_EDGE('',*,*,#271,.F.);
#344=ORIENTED_EDGE('',*,*,#272,.T.);
#345=ORIENTED_EDGE('',*,*,#273,.T.);
#346=ORIENTED_EDGE('',*,*,#269,.F.);
#347=ORIENTED_EDGE('',*,*,#274,.F.);
#348=ORIENTED_EDGE('',*,*,#261,.T.);
#349=ORIENTED_EDGE('',*,*,#275,.T.);
#350=ORIENTED_EDGE('',*,*,#272,.F.);
#351=ORIENTED_EDGE('',*,*,#275,.F.);
#352=ORIENTED_EDGE('',*,*,#260,.F.);
#353=ORIENTED_EDGE('',*,*,#264,.F.);
#354=ORIENTED_EDGE('',*,*,#267,.F.);
#355=ORIENTED_EDGE('',*,*,#270,.F.);
#356=ORIENTED_EDGE('',*,*,#273,.F.);
#357=ORIENTED_EDGE('',*,*,#276,.F.);
#358=ORIENTED_EDGE('',*,*,#277,.F.);
#359=ORIENTED_EDGE('',*,*,#278,.T.);
#360=ORIENTED_EDGE('',*,*,#276,.T.);
#361=ORIENTED_EDGE('',*,*,#278,.F.);
#362=ORIENTED_EDGE('',*,*,#279,.F.);
#363=ORIENTED_EDGE('',*,*,#280,.F.);
#364=ORIENTED_EDGE('',*,*,#281,.F.);
#365=ORIENTED_EDGE('',*,*,#282,.F.);
#366=ORIENTED_EDGE('',*,*,#258,.T.);
#367=ORIENTED_EDGE('',*,*,#274,.T.);
#368=ORIENTED_EDGE('',*,*,#271,.T.);
#369=ORIENTED_EDGE('',*,*,#268,.T.);
#370=ORIENTED_EDGE('',*,*,#265,.T.);
#371=ORIENTED_EDGE('',*,*,#262,.T.);
#372=ORIENTED_EDGE('',*,*,#279,.T.);
#373=ORIENTED_EDGE('',*,*,#283,.F.);
#374=ORIENTED_EDGE('',*,*,#284,.F.);
#375=ORIENTED_EDGE('',*,*,#285,.T.);
#376=ORIENTED_EDGE('',*,*,#282,.T.);
#377=ORIENTED_EDGE('',*,*,#286,.F.);
#378=ORIENTED_EDGE('',*,*,#287,.F.);
#379=ORIENTED_EDGE('',*,*,#283,.T.);
#380=ORIENTED_EDGE('',*,*,#288,.F.);
#381=ORIENTED_EDGE('',*,*,#289,.T.);
#382=ORIENTED_EDGE('',*,*,#290,.F.);
#383=ORIENTED_EDGE('',*,*,#291,.F.);
#384=ORIENTED_EDGE('',*,*,#292,.T.);
#385=ORIENTED_EDGE('',*,*,#291,.T.);
#386=ORIENTED_EDGE('',*,*,#293,.F.);
#387=ORIENTED_EDGE('',*,*,#294,.F.);
#388=ORIENTED_EDGE('',*,*,#295,.F.);
#389=ORIENTED_EDGE('',*,*,#294,.T.);
#390=ORIENTED_EDGE('',*,*,#296,.F.);
#391=ORIENTED_EDGE('',*,*,#297,.F.);
#392=ORIENTED_EDGE('',*,*,#298,.T.);
#393=ORIENTED_EDGE('',*,*,#297,.T.);
#394=ORIENTED_EDGE('',*,*,#299,.F.);
#395=ORIENTED_EDGE('',*,*,#289,.F.);
#396=ORIENTED_EDGE('',*,*,#299,.T.);
#397=ORIENTED_EDGE('',*,*,#296,.T.);
#398=ORIENTED_EDGE('',*,*,#293,.T.);
#399=ORIENTED_EDGE('',*,*,#290,.T.);
#400=ORIENTED_EDGE('',*,*,#277,.T.);
#401=ORIENTED_EDGE('',*,*,#300,.F.);
#402=ORIENTED_EDGE('',*,*,#301,.T.);
#403=ORIENTED_EDGE('',*,*,#302,.F.);
#404=ORIENTED_EDGE('',*,*,#303,.T.);
#405=ORIENTED_EDGE('',*,*,#304,.F.);
#406=ORIENTED_EDGE('',*,*,#305,.T.);
#407=ORIENTED_EDGE('',*,*,#306,.F.);
#408=ORIENTED_EDGE('',*,*,#307,.T.);
#409=ORIENTED_EDGE('',*,*,#308,.T.);
#410=ORIENTED_EDGE('',*,*,#309,.T.);
#411=ORIENTED_EDGE('',*,*,#284,.T.);
#412=ORIENTED_EDGE('',*,*,#287,.T.);
#413=ORIENTED_EDGE('',*,*,#310,.F.);
#414=ORIENTED_EDGE('',*,*,#311,.F.);
#415=ORIENTED_EDGE('',*,*,#312,.F.);
#416=ORIENTED_EDGE('',*,*,#301,.F.);
#417=ORIENTED_EDGE('',*,*,#313,.F.);
#418=ORIENTED_EDGE('',*,*,#314,.F.);
#419=ORIENTED_EDGE('',*,*,#315,.F.);
#420=ORIENTED_EDGE('',*,*,#316,.T.);
#421=ORIENTED_EDGE('',*,*,#317,.F.);
#422=ORIENTED_EDGE('',*,*,#318,.F.);
#423=ORIENTED_EDGE('',*,*,#319,.F.);
#424=ORIENTED_EDGE('',*,*,#311,.T.);
#425=ORIENTED_EDGE('',*,*,#298,.F.);
#426=ORIENTED_EDGE('',*,*,#288,.T.);
#427=ORIENTED_EDGE('',*,*,#292,.F.);
#428=ORIENTED_EDGE('',*,*,#295,.T.);
#429=ORIENTED_EDGE('',*,*,#320,.F.);
#430=ORIENTED_EDGE('',*,*,#316,.F.);
#431=ORIENTED_EDGE('',*,*,#321,.F.);
#432=ORIENTED_EDGE('',*,*,#305,.F.);
#433=ORIENTED_EDGE('',*,*,#300,.T.);
#434=ORIENTED_EDGE('',*,*,#322,.T.);
#435=ORIENTED_EDGE('',*,*,#313,.T.);
#436=ORIENTED_EDGE('',*,*,#310,.T.);
#437=ORIENTED_EDGE('',*,*,#319,.T.);
#438=ORIENTED_EDGE('',*,*,#323,.T.);
#439=ORIENTED_EDGE('',*,*,#302,.T.);
#440=ORIENTED_EDGE('',*,*,#312,.T.);
#441=ORIENTED_EDGE('',*,*,#304,.T.);
#442=ORIENTED_EDGE('',*,*,#324,.T.);
#443=ORIENTED_EDGE('',*,*,#317,.T.);
#444=ORIENTED_EDGE('',*,*,#320,.T.);
#445=ORIENTED_EDGE('',*,*,#315,.T.);
#446=ORIENTED_EDGE('',*,*,#325,.T.);
#447=ORIENTED_EDGE('',*,*,#306,.T.);
#448=ORIENTED_EDGE('',*,*,#321,.T.);
#449=ORIENTED_EDGE('',*,*,#322,.F.);
#450=ORIENTED_EDGE('',*,*,#307,.F.);
#451=ORIENTED_EDGE('',*,*,#325,.F.);
#452=ORIENTED_EDGE('',*,*,#314,.T.);
#453=ORIENTED_EDGE('',*,*,#281,.T.);
#454=ORIENTED_EDGE('',*,*,#326,.T.);
#455=ORIENTED_EDGE('',*,*,#308,.F.);
#456=ORIENTED_EDGE('',*,*,#286,.T.);
#457=ORIENTED_EDGE('',*,*,#280,.T.);
#458=ORIENTED_EDGE('',*,*,#285,.F.);
#459=ORIENTED_EDGE('',*,*,#309,.F.);
#460=ORIENTED_EDGE('',*,*,#326,.F.);
#461=ORIENTED_EDGE('',*,*,#323,.F.);
#462=ORIENTED_EDGE('',*,*,#318,.T.);
#463=ORIENTED_EDGE('',*,*,#324,.F.);
#464=ORIENTED_EDGE('',*,*,#303,.F.);
#465=PLANE('',#528);
#466=PLANE('',#529);
#467=PLANE('',#530);
#468=PLANE('',#531);
#469=PLANE('',#532);
#470=PLANE('',#533);
#471=PLANE('',#534);
#472=PLANE('',#538);
#473=PLANE('',#543);
#474=PLANE('',#544);
#475=PLANE('',#548);
#476=PLANE('',#552);
#477=PLANE('',#553);
#478=PLANE('',#557);
#479=PLANE('',#558);
#480=PLANE('',#561);
#481=PLANE('',#562);
#482=PLANE('',#563);
#483=PLANE('',#564);
#484=PLANE('',#565);
#485=PLANE('',#568);
#486=ADVANCED_FACE('',(#41),#465,.F.);
#487=ADVANCED_FACE('',(#42),#466,.F.);
#488=ADVANCED_FACE('',(#43),#467,.F.);
#489=ADVANCED_FACE('',(#44),#468,.F.);
#490=ADVANCED_FACE('',(#45),#469,.F.);
#491=ADVANCED_FACE('',(#46),#470,.F.);
#492=ADVANCED_FACE('',(#47,#22),#471,.T.);
#493=ADVANCED_FACE('',(#48),#15,.F.);
#494=ADVANCED_FACE('',(#49,#23),#472,.F.);
#495=ADVANCED_FACE('',(#50),#16,.F.);
#496=ADVANCED_FACE('',(#51),#473,.T.);
#497=ADVANCED_FACE('',(#52),#474,.T.);
#498=ADVANCED_FACE('',(#53),#17,.T.);
#499=ADVANCED_FACE('',(#54),#475,.T.);
#500=ADVANCED_FACE('',(#55),#18,.T.);
#501=ADVANCED_FACE('',(#56,#24),#476,.T.);
#502=ADVANCED_FACE('',(#57,#25),#477,.F.);
#503=ADVANCED_FACE('',(#58),#478,.F.);
#504=ADVANCED_FACE('',(#59,#26),#479,.T.);
#505=ADVANCED_FACE('',(#60),#480,.F.);
#506=ADVANCED_FACE('',(#61),#481,.T.);
#507=ADVANCED_FACE('',(#62),#482,.T.);
#508=ADVANCED_FACE('',(#63),#483,.T.);
#509=ADVANCED_FACE('',(#64),#484,.T.);
#510=ADVANCED_FACE('',(#65),#19,.T.);
#511=ADVANCED_FACE('',(#66),#20,.F.);
#512=ADVANCED_FACE('',(#67),#485,.T.);
#513=ADVANCED_FACE('',(#68),#21,.T.);
#514=CLOSED_SHELL('',(#486,#487,#488,#489,#490,#491,#492,#493,#494,#495,
#496,#497,#498,#499,#500,#501,#502,#503,#504,#505,#506,#507,#508,#509,#510,
#511,#512,#513));
#515=DERIVED_UNIT_ELEMENT(#517,1.);
#516=DERIVED_UNIT_ELEMENT(#860,-3.);
#517=(
MASS_UNIT()
NAMED_UNIT(*)
SI_UNIT(.KILO.,.GRAM.)
);
#518=DERIVED_UNIT((#515,#516));
#519=MEASURE_REPRESENTATION_ITEM('density measure',
POSITIVE_RATIO_MEASURE(7850.),#518);
#520=PROPERTY_DEFINITION_REPRESENTATION(#525,#522);
#521=PROPERTY_DEFINITION_REPRESENTATION(#526,#523);
#522=REPRESENTATION('material name',(#524),#857);
#523=REPRESENTATION('density',(#519),#857);
#524=DESCRIPTIVE_REPRESENTATION_ITEM('Stahl','Stahl');
#525=PROPERTY_DEFINITION('material property','material name',#867);
#526=PROPERTY_DEFINITION('material property','density of part',#867);
#527=AXIS2_PLACEMENT_3D('',#711,#570,#571);
#528=AXIS2_PLACEMENT_3D('',#712,#572,#573);
#529=AXIS2_PLACEMENT_3D('',#721,#578,#579);
#530=AXIS2_PLACEMENT_3D('',#727,#583,#584);
#531=AXIS2_PLACEMENT_3D('',#733,#588,#589);
#532=AXIS2_PLACEMENT_3D('',#739,#593,#594);
#533=AXIS2_PLACEMENT_3D('',#745,#598,#599);
#534=AXIS2_PLACEMENT_3D('',#748,#602,#603);
#535=AXIS2_PLACEMENT_3D('',#750,#604,#605);
#536=AXIS2_PLACEMENT_3D('',#751,#606,#607);
#537=AXIS2_PLACEMENT_3D('',#753,#608,#609);
#538=AXIS2_PLACEMENT_3D('',#755,#611,#612);
#539=AXIS2_PLACEMENT_3D('',#758,#613,#614);
#540=AXIS2_PLACEMENT_3D('',#762,#616,#617);
#541=AXIS2_PLACEMENT_3D('',#764,#619,#620);
#542=AXIS2_PLACEMENT_3D('',#768,#622,#623);
#543=AXIS2_PLACEMENT_3D('',#770,#625,#626);
#544=AXIS2_PLACEMENT_3D('',#774,#629,#630);
#545=AXIS2_PLACEMENT_3D('',#783,#635,#636);
#546=AXIS2_PLACEMENT_3D('',#785,#637,#638);
#547=AXIS2_PLACEMENT_3D('',#787,#639,#640);
#548=AXIS2_PLACEMENT_3D('',#789,#642,#643);
#549=AXIS2_PLACEMENT_3D('',#795,#647,#648);
#550=AXIS2_PLACEMENT_3D('',#796,#649,#650);
#551=AXIS2_PLACEMENT_3D('',#797,#651,#652);
#552=AXIS2_PLACEMENT_3D('',#798,#653,#654);
#553=AXIS2_PLACEMENT_3D('',#799,#655,#656);
#554=AXIS2_PLACEMENT_3D('',#808,#660,#661);
#555=AXIS2_PLACEMENT_3D('',#815,#665,#666);
#556=AXIS2_PLACEMENT_3D('',#817,#667,#668);
#557=AXIS2_PLACEMENT_3D('',#819,#670,#671);
#558=AXIS2_PLACEMENT_3D('',#825,#675,#676);
#559=AXIS2_PLACEMENT_3D('',#829,#678,#679);
#560=AXIS2_PLACEMENT_3D('',#837,#683,#684);
#561=AXIS2_PLACEMENT_3D('',#839,#686,#687);
#562=AXIS2_PLACEMENT_3D('',#842,#690,#691);
#563=AXIS2_PLACEMENT_3D('',#844,#693,#694);
#564=AXIS2_PLACEMENT_3D('',#846,#696,#697);
#565=AXIS2_PLACEMENT_3D('',#848,#699,#700);
#566=AXIS2_PLACEMENT_3D('',#850,#702,#703);
#567=AXIS2_PLACEMENT_3D('',#851,#704,#705);
#568=AXIS2_PLACEMENT_3D('',#853,#707,#708);
#569=AXIS2_PLACEMENT_3D('',#854,#709,#710);
#570=DIRECTION('axis',(0.,0.,1.));
#571=DIRECTION('refdir',(1.,0.,0.));
#572=DIRECTION('center_axis',(0.500000000000001,0.866025403784438,0.));
#573=DIRECTION('ref_axis',(0.866025403784438,-0.500000000000001,0.));
#574=DIRECTION('',(0.866025403784438,-0.500000000000001,0.));
#575=DIRECTION('',(0.,0.,-1.));
#576=DIRECTION('',(0.866025403784438,-0.500000000000001,0.));
#577=DIRECTION('',(0.,0.,-1.));
#578=DIRECTION('center_axis',(-0.5,0.866025403784439,0.));
#579=DIRECTION('ref_axis',(0.866025403784439,0.5,0.));
#580=DIRECTION('',(0.866025403784439,0.499999999999999,0.));
#581=DIRECTION('',(0.,0.,-1.));
#582=DIRECTION('',(0.866025403784439,0.499999999999999,0.));
#583=DIRECTION('center_axis',(-1.,1.37354477598826E-15,0.));
#584=DIRECTION('ref_axis',(1.37354477598826E-15,1.,0.));
#585=DIRECTION('',(1.37354477598826E-15,1.,0.));
#586=DIRECTION('',(0.,0.,-1.));
#587=DIRECTION('',(1.37354477598826E-15,1.,0.));
#588=DIRECTION('center_axis',(-0.500000000000001,-0.866025403784438,0.));
#589=DIRECTION('ref_axis',(-0.866025403784438,0.500000000000001,0.));
#590=DIRECTION('',(-0.866025403784438,0.500000000000001,0.));
#591=DIRECTION('',(0.,0.,-1.));
#592=DIRECTION('',(-0.866025403784438,0.500000000000001,0.));
#593=DIRECTION('center_axis',(0.499999999999999,-0.866025403784439,0.));
#594=DIRECTION('ref_axis',(-0.866025403784439,-0.499999999999999,0.));
#595=DIRECTION('',(-0.866025403784439,-0.499999999999999,0.));
#596=DIRECTION('',(0.,0.,-1.));
#597=DIRECTION('',(-0.866025403784439,-0.499999999999999,0.));
#598=DIRECTION('center_axis',(1.,-6.86772387994129E-16,0.));
#599=DIRECTION('ref_axis',(-6.86772387994129E-16,-1.,0.));
#600=DIRECTION('',(-6.86772387994129E-16,-1.,0.));
#601=DIRECTION('',(-6.86772387994129E-16,-1.,0.));
#602=DIRECTION('center_axis',(0.,0.,1.));
#603=DIRECTION('ref_axis',(-1.,0.,0.));
#604=DIRECTION('center_axis',(0.,0.,1.));
#605=DIRECTION('ref_axis',(-1.,0.,0.));
#606=DIRECTION('center_axis',(0.,0.,1.));
#607=DIRECTION('ref_axis',(-1.,0.,0.));
#608=DIRECTION('center_axis',(0.,0.,1.));
#609=DIRECTION('ref_axis',(-1.,0.,0.));
#610=DIRECTION('',(0.,0.,1.));
#611=DIRECTION('center_axis',(0.,0.,-1.));
#612=DIRECTION('ref_axis',(1.,0.,0.));
#613=DIRECTION('center_axis',(0.,0.,-1.));
#614=DIRECTION('ref_axis',(1.,0.,0.));
#615=DIRECTION('',(0.,1.,0.));
#616=DIRECTION('center_axis',(0.,0.,-1.));
#617=DIRECTION('ref_axis',(1.,0.,0.));
#618=DIRECTION('',(0.,-1.,0.));
#619=DIRECTION('center_axis',(0.,0.,1.));
#620=DIRECTION('ref_axis',(1.,0.,0.));
#621=DIRECTION('',(0.,0.,-1.));
#622=DIRECTION('center_axis',(0.,0.,1.));
#623=DIRECTION('ref_axis',(1.,0.,0.));
#624=DIRECTION('',(0.,0.,-1.));
#625=DIRECTION('center_axis',(-1.,0.,0.));
#626=DIRECTION('ref_axis',(0.,-1.,0.));
#627=DIRECTION('',(0.,0.,-1.));
#628=DIRECTION('',(0.,1.,0.));
#629=DIRECTION('center_axis',(0.,-1.,0.));
#630=DIRECTION('ref_axis',(-1.,0.,0.));
#631=DIRECTION('',(1.,0.,0.));
#632=DIRECTION('',(0.,0.,-1.));
#633=DIRECTION('',(-1.,0.,0.));
#634=DIRECTION('',(0.,0.,-1.));
#635=DIRECTION('center_axis',(0.,0.,-1.));
#636=DIRECTION('ref_axis',(1.,0.,0.));
#637=DIRECTION('center_axis',(0.,0.,-1.));
#638=DIRECTION('ref_axis',(1.,0.,0.));
#639=DIRECTION('center_axis',(0.,0.,-1.));
#640=DIRECTION('ref_axis',(1.,0.,0.));
#641=DIRECTION('',(0.,0.,-1.));
#642=DIRECTION('center_axis',(0.,1.,0.));
#643=DIRECTION('ref_axis',(1.,0.,0.));
#644=DIRECTION('',(-1.,0.,0.));
#645=DIRECTION('',(1.,0.,0.));
#646=DIRECTION('',(0.,0.,-1.));
#647=DIRECTION('center_axis',(0.,0.,-1.));
#648=DIRECTION('ref_axis',(-1.,-1.22464679914735E-16,0.));
#649=DIRECTION('center_axis',(0.,0.,-1.));
#650=DIRECTION('ref_axis',(1.,0.,0.));
#651=DIRECTION('center_axis',(0.,0.,-1.));
#652=DIRECTION('ref_axis',(1.,0.,0.));
#653=DIRECTION('center_axis',(0.,0.,-1.));
#654=DIRECTION('ref_axis',(1.,0.,0.));
#655=DIRECTION('center_axis',(0.,0.,-1.));
#656=DIRECTION('ref_axis',(1.,0.,0.));
#657=DIRECTION('',(-0.5507964933621,0.834639576643724,0.));
#658=DIRECTION('',(1.,0.,0.));
#659=DIRECTION('',(-0.5507964933621,-0.834639576643724,0.));
#660=DIRECTION('center_axis',(0.,0.,-1.));
#661=DIRECTION('ref_axis',(1.,0.,0.));
#662=DIRECTION('',(0.5507964933621,-0.834639576643724,0.));
#663=DIRECTION('',(-1.,0.,0.));
#664=DIRECTION('',(0.5507964933621,0.834639576643724,0.));
#665=DIRECTION('center_axis',(0.,0.,-1.));
#666=DIRECTION('ref_axis',(1.,0.,0.));
#667=DIRECTION('center_axis',(0.,0.,1.));
#668=DIRECTION('ref_axis',(1.,0.,0.));
#669=DIRECTION('',(0.,-1.,0.));
#670=DIRECTION('center_axis',(0.,1.,0.));
#671=DIRECTION('ref_axis',(-1.,0.,0.));
#672=DIRECTION('',(0.,0.,1.));
#673=DIRECTION('',(-1.,0.,0.));
#674=DIRECTION('',(0.,0.,-1.));
#675=DIRECTION('center_axis',(0.,0.,-1.));
#676=DIRECTION('ref_axis',(1.,0.,0.));
#677=DIRECTION('',(0.5507964933621,-0.834639576643724,0.));
#678=DIRECTION('center_axis',(0.,0.,1.));
#679=DIRECTION('ref_axis',(1.,0.,0.));
#680=DIRECTION('',(-0.5507964933621,-0.834639576643724,0.));
#681=DIRECTION('',(1.,0.,0.));
#682=DIRECTION('',(-0.5507964933621,0.834639576643724,0.));
#683=DIRECTION('center_axis',(0.,0.,1.));
#684=DIRECTION('ref_axis',(1.,0.,0.));
#685=DIRECTION('',(0.5507964933621,0.834639576643724,0.));
#686=DIRECTION('center_axis',(0.,-1.,0.));
#687=DIRECTION('ref_axis',(1.,0.,0.));
#688=DIRECTION('',(0.,0.,1.));
#689=DIRECTION('',(0.,0.,-1.));
#690=DIRECTION('center_axis',(-0.834639576643724,-0.5507964933621,0.));
#691=DIRECTION('ref_axis',(0.,0.,1.));
#692=DIRECTION('',(0.,0.,-1.));
#693=DIRECTION('center_axis',(0.834639576643724,-0.5507964933621,0.));
#694=DIRECTION('ref_axis',(0.,0.,-1.));
#695=DIRECTION('',(0.,0.,1.));
#696=DIRECTION('center_axis',(0.834639576643724,0.5507964933621,0.));
#697=DIRECTION('ref_axis',(0.,0.,-1.));
#698=DIRECTION('',(0.,0.,-1.));
#699=DIRECTION('center_axis',(-0.834639576643724,0.5507964933621,0.));
#700=DIRECTION('ref_axis',(0.,0.,1.));
#701=DIRECTION('',(0.,0.,1.));
#702=DIRECTION('center_axis',(0.,0.,1.));
#703=DIRECTION('ref_axis',(-1.,-1.22464679914735E-16,0.));
#704=DIRECTION('center_axis',(0.,0.,1.));
#705=DIRECTION('ref_axis',(1.,0.,0.));
#706=DIRECTION('',(0.,0.,1.));
#707=DIRECTION('center_axis',(1.,0.,0.));
#708=DIRECTION('ref_axis',(0.,1.,0.));
#709=DIRECTION('center_axis',(0.,0.,1.));
#710=DIRECTION('ref_axis',(1.,0.,0.));
#711=CARTESIAN_POINT('',(0.,0.,0.));
#712=CARTESIAN_POINT('Origin',(14.0000000000002,3.2331615074619,-24.5));
#713=CARTESIAN_POINT('',(14.0000000000002,3.2331615074619,-21.5));
#714=CARTESIAN_POINT('',(16.8000000000002,1.61658075373095,-21.5));
#715=CARTESIAN_POINT('',(14.7000000000002,2.82901631902916,-21.5));
#716=CARTESIAN_POINT('',(14.0000000000002,3.2331615074619,-25.5));
#717=CARTESIAN_POINT('',(14.0000000000002,3.2331615074619,-24.5));
#718=CARTESIAN_POINT('',(16.8000000000002,1.61658075373095,-25.5));
#719=CARTESIAN_POINT('',(16.8000000000002,1.61658075373095,-25.5));
#720=CARTESIAN_POINT('',(16.8000000000002,1.61658075373095,-24.5));
#721=CARTESIAN_POINT('Origin',(11.2000000000002,1.61658075373095,-24.5));
#722=CARTESIAN_POINT('',(11.2000000000002,1.61658075373095,-21.5));
#723=CARTESIAN_POINT('',(11.9000000000002,2.02072594216369,-21.5));
#724=CARTESIAN_POINT('',(11.2000000000002,1.61658075373095,-25.5));
#725=CARTESIAN_POINT('',(11.2000000000002,1.61658075373095,-24.5));
#726=CARTESIAN_POINT('',(14.0000000000002,3.2331615074619,-25.5));
#727=CARTESIAN_POINT('Origin',(11.2000000000002,-1.61658075373095,-24.5));
#728=CARTESIAN_POINT('',(11.2000000000002,-1.61658075373095,-21.5));
#729=CARTESIAN_POINT('',(11.2000000000002,-0.808290376865476,-21.5));
#730=CARTESIAN_POINT('',(11.2000000000002,-1.61658075373095,-25.5));
#731=CARTESIAN_POINT('',(11.2000000000002,-1.61658075373095,-24.5));
#732=CARTESIAN_POINT('',(11.2000000000002,1.61658075373095,-25.5));
#733=CARTESIAN_POINT('Origin',(14.0000000000002,-3.23316150746191,-24.5));
#734=CARTESIAN_POINT('',(14.0000000000002,-3.23316150746191,-21.5));
#735=CARTESIAN_POINT('',(13.3000000000002,-2.82901631902917,-21.5));
#736=CARTESIAN_POINT('',(14.0000000000002,-3.23316150746191,-25.5));
#737=CARTESIAN_POINT('',(14.0000000000002,-3.23316150746191,-24.5));
#738=CARTESIAN_POINT('',(11.2000000000002,-1.61658075373095,-25.5));
#739=CARTESIAN_POINT('Origin',(16.8000000000002,-1.61658075373096,-24.5));
#740=CARTESIAN_POINT('',(16.8000000000002,-1.61658075373096,-21.5));
#741=CARTESIAN_POINT('',(16.1000000000002,-2.0207259421637,-21.5));
#742=CARTESIAN_POINT('',(16.8000000000002,-1.61658075373096,-25.5));
#743=CARTESIAN_POINT('',(16.8000000000002,-1.61658075373096,-24.5));
#744=CARTESIAN_POINT('',(14.0000000000002,-3.23316150746191,-25.5));
#745=CARTESIAN_POINT('Origin',(16.8000000000002,1.61658075373095,-24.5));
#746=CARTESIAN_POINT('',(16.8000000000002,0.808290376865471,-21.5));
#747=CARTESIAN_POINT('',(16.8000000000002,-1.61658075373096,-25.5));
#748=CARTESIAN_POINT('Origin',(14.0000000000002,-3.88578058618805E-15,-25.5));
#749=CARTESIAN_POINT('',(15.6000000000002,-3.3862278264823E-15,-25.5));
#750=CARTESIAN_POINT('Origin',(14.0000000000002,-3.58217131434588E-15,-25.5));
#751=CARTESIAN_POINT('Origin',(14.0000000000002,-3.58217131434588E-15,-35.));
#752=CARTESIAN_POINT('',(15.6000000000002,-3.3862278264823E-15,-48.5));
#753=CARTESIAN_POINT('Origin',(14.0000000000002,-3.58217131434588E-15,-48.5));
#754=CARTESIAN_POINT('',(15.6000000000002,-3.3862278264823E-15,-35.));
#755=CARTESIAN_POINT('Origin',(14.0000000000002,-3.88578058618805E-15,-21.5));
#756=CARTESIAN_POINT('',(10.9000000000002,2.68328157299974,-21.5));
#757=CARTESIAN_POINT('',(17.1000000000002,2.68328157299974,-21.5));
#758=CARTESIAN_POINT('Origin',(14.0000000000002,-3.7470027081099E-15,-21.5));
#759=CARTESIAN_POINT('',(10.9000000000002,-2.68328157299975,-21.5));
#760=CARTESIAN_POINT('',(10.9000000000002,-1.34164078649988,-21.5));
#761=CARTESIAN_POINT('',(17.1000000000002,-2.68328157299975,-21.5));
#762=CARTESIAN_POINT('Origin',(14.0000000000002,-3.7470027081099E-15,-21.5));
#763=CARTESIAN_POINT('',(17.1000000000002,1.34164078649987,-21.5));
#764=CARTESIAN_POINT('Origin',(14.0000000000002,-3.7470027081099E-15,-18.));
#765=CARTESIAN_POINT('',(17.1000000000002,2.68328157299974,-11.5));
#766=CARTESIAN_POINT('',(17.1000000000002,2.68328157299974,-18.));
#767=CARTESIAN_POINT('',(10.9000000000002,2.68328157299974,-11.5));
#768=CARTESIAN_POINT('Origin',(14.0000000000002,-3.7470027081099E-15,-11.5));
#769=CARTESIAN_POINT('',(10.9000000000002,2.68328157299974,-18.));
#770=CARTESIAN_POINT('Origin',(17.1000000000002,2.68328157299974,-18.));
#771=CARTESIAN_POINT('',(17.1000000000002,-2.68328157299975,-11.5));
#772=CARTESIAN_POINT('',(17.1000000000002,-2.68328157299975,-18.));
#773=CARTESIAN_POINT('',(17.1000000000002,1.34164078649987,-11.5));
#774=CARTESIAN_POINT('Origin',(16.6457513110648,-3.,-29.5));
#775=CARTESIAN_POINT('',(11.3542486889356,-3.,-29.5));
#776=CARTESIAN_POINT('',(16.6457513110648,-3.,-29.5));
#777=CARTESIAN_POINT('',(10.0000000000002,-3.,-29.5));
#778=CARTESIAN_POINT('',(11.3542486889356,-3.,-48.5));
#779=CARTESIAN_POINT('',(11.3542486889356,-3.,-29.5));
#780=CARTESIAN_POINT('',(16.6457513110648,-3.,-48.5));
#781=CARTESIAN_POINT('',(15.3228756555325,-3.,-48.5));
#782=CARTESIAN_POINT('',(16.6457513110648,-3.,-29.5));
#783=CARTESIAN_POINT('Origin',(14.0000000000002,-3.60822483003176E-15,-29.5));
#784=CARTESIAN_POINT('',(16.6457513110647,3.,-29.5));
#785=CARTESIAN_POINT('Origin',(14.0000000000002,-3.60822483003176E-15,-29.5));
#786=CARTESIAN_POINT('',(16.6457513110647,3.,-48.5));
#787=CARTESIAN_POINT('Origin',(14.0000000000002,-3.60822483003176E-15,-48.5));
#788=CARTESIAN_POINT('',(16.6457513110647,3.,-29.5));
#789=CARTESIAN_POINT('Origin',(11.3542486889356,3.,-29.5));
#790=CARTESIAN_POINT('',(11.3542486889356,3.,-29.5));
#791=CARTESIAN_POINT('',(18.0000000000002,3.,-29.5));
#792=CARTESIAN_POINT('',(11.3542486889356,3.,-48.5));
#793=CARTESIAN_POINT('',(12.6771243444679,3.,-48.5));
#794=CARTESIAN_POINT('',(11.3542486889356,3.,-29.5));
#795=CARTESIAN_POINT('Origin',(14.0000000000002,-3.60822483003176E-15,-29.5));
#796=CARTESIAN_POINT('Origin',(14.0000000000002,-3.60822483003176E-15,-29.5));
#797=CARTESIAN_POINT('Origin',(14.0000000000002,-3.60822483003176E-15,-48.5));
#798=CARTESIAN_POINT('Origin',(14.0000000000002,-3.33066907387547E-15,-48.5));
#799=CARTESIAN_POINT('Origin',(14.0000000000002,-4.16333634234434E-15,-11.5));
#800=CARTESIAN_POINT('',(12.0038790443869,-5.,-11.5));
#801=CARTESIAN_POINT('',(11.8712793654299,-4.7990674573249,-11.5));
#802=CARTESIAN_POINT('',(11.1232563545674,-3.66556421859667,-11.5));
#803=CARTESIAN_POINT('',(15.9961209556134,-5.,-11.5));
#804=CARTESIAN_POINT('',(12.0000000000002,-5.,-11.5));
#805=CARTESIAN_POINT('',(16.1287206345704,-4.7990674573249,-11.5));
#806=CARTESIAN_POINT('',(16.876743645433,-3.66556421859667,-11.5));
#807=CARTESIAN_POINT('',(16.1287206345704,4.79906745732489,-11.5));
#808=CARTESIAN_POINT('Origin',(14.0000000000002,-3.7470027081099E-15,-11.5));
#809=CARTESIAN_POINT('',(15.9961209556134,5.,-11.5));
#810=CARTESIAN_POINT('',(16.876743645433,3.66556421859666,-11.5));
#811=CARTESIAN_POINT('',(12.0038790443869,5.,-11.5));
#812=CARTESIAN_POINT('',(16.0000000000002,5.,-11.5));
#813=CARTESIAN_POINT('',(11.8712793654299,4.79906745732489,-11.5));
#814=CARTESIAN_POINT('',(11.1232563545674,3.66556421859666,-11.5));
#815=CARTESIAN_POINT('Origin',(14.0000000000002,-3.7470027081099E-15,-11.5));
#816=CARTESIAN_POINT('',(10.9000000000002,-2.68328157299975,-11.5));
#817=CARTESIAN_POINT('Origin',(14.0000000000002,-3.7470027081099E-15,-11.5));
#818=CARTESIAN_POINT('',(10.9000000000002,-1.34164078649988,-11.5));
#819=CARTESIAN_POINT('Origin',(15.6007810593584,-5.,-29.5));
#820=CARTESIAN_POINT('',(12.0038790443869,-5.,-29.5));
#821=CARTESIAN_POINT('',(12.0038790443869,-5.,-23.75));
#822=CARTESIAN_POINT('',(15.9961209556134,-5.,-29.5));
#823=CARTESIAN_POINT('',(14.8003905296793,-5.,-29.5));
#824=CARTESIAN_POINT('',(15.9961209556134,-5.,-23.75));
#825=CARTESIAN_POINT('Origin',(14.0000000000002,-2.22044604925031E-15,-29.5));
#826=CARTESIAN_POINT('',(11.8712793654299,-4.7990674573249,-29.5));
#827=CARTESIAN_POINT('',(11.1232563545674,-3.66556421859667,-29.5));
#828=CARTESIAN_POINT('',(11.8712793654299,4.79906745732489,-29.5));
#829=CARTESIAN_POINT('Origin',(14.0000000000002,-3.7470027081099E-15,-29.5));
#830=CARTESIAN_POINT('',(12.0038790443869,5.,-29.5));
#831=CARTESIAN_POINT('',(11.1232563545674,3.66556421859666,-29.5));
#832=CARTESIAN_POINT('',(15.9961209556134,5.,-29.5));
#833=CARTESIAN_POINT('',(13.1996094703211,5.,-29.5));
#834=CARTESIAN_POINT('',(16.1287206345704,4.79906745732489,-29.5));
#835=CARTESIAN_POINT('',(16.876743645433,3.66556421859666,-29.5));
#836=CARTESIAN_POINT('',(16.1287206345704,-4.7990674573249,-29.5));
#837=CARTESIAN_POINT('Origin',(14.0000000000002,-3.7470027081099E-15,-29.5));
#838=CARTESIAN_POINT('',(16.876743645433,-3.66556421859667,-29.5));
#839=CARTESIAN_POINT('Origin',(12.3992189406419,5.,-29.5));
#840=CARTESIAN_POINT('',(15.9961209556134,5.,-23.75));
#841=CARTESIAN_POINT('',(12.0038790443869,5.,-23.75));
#842=CARTESIAN_POINT('Origin',(11.935639682715,-4.8965947085309,-18.));
#843=CARTESIAN_POINT('',(11.8712793654299,-4.7990674573249,-18.));
#844=CARTESIAN_POINT('Origin',(16.0643603172853,-4.8965947085309,-18.));
#845=CARTESIAN_POINT('',(16.1287206345704,-4.7990674573249,-18.));
#846=CARTESIAN_POINT('Origin',(16.0643603172853,4.8965947085309,-18.));
#847=CARTESIAN_POINT('',(16.1287206345704,4.79906745732489,-18.));
#848=CARTESIAN_POINT('Origin',(11.935639682715,4.8965947085309,-18.));
#849=CARTESIAN_POINT('',(11.8712793654299,4.79906745732489,-18.));
#850=CARTESIAN_POINT('Origin',(14.0000000000002,-3.7470027081099E-15,-18.));
#851=CARTESIAN_POINT('Origin',(14.0000000000002,-3.7470027081099E-15,-18.));
#852=CARTESIAN_POINT('',(10.9000000000002,-2.68328157299975,-18.));
#853=CARTESIAN_POINT('Origin',(10.9000000000002,-2.68328157299975,-18.));
#854=CARTESIAN_POINT('Origin',(14.0000000000002,-3.7470027081099E-15,-18.));
#855=UNCERTAINTY_MEASURE_WITH_UNIT(LENGTH_MEASURE(0.01),#859,
'DISTANCE_ACCURACY_VALUE',
'Maximum model space distance between geometric entities at asserted c
onnectivities');
#856=UNCERTAINTY_MEASURE_WITH_UNIT(LENGTH_MEASURE(0.01),#859,
'DISTANCE_ACCURACY_VALUE',
'Maximum model space distance between geometric entities at asserted c
onnectivities');
#857=(
GEOMETRIC_REPRESENTATION_CONTEXT(3)
GLOBAL_UNCERTAINTY_ASSIGNED_CONTEXT((#855))
GLOBAL_UNIT_ASSIGNED_CONTEXT((#859,#861,#862))
REPRESENTATION_CONTEXT('','3D')
);
#858=(
GEOMETRIC_REPRESENTATION_CONTEXT(3)
GLOBAL_UNCERTAINTY_ASSIGNED_CONTEXT((#856))
GLOBAL_UNIT_ASSIGNED_CONTEXT((#859,#861,#862))
REPRESENTATION_CONTEXT('','3D')
);
#859=(
LENGTH_UNIT()
NAMED_UNIT(*)
SI_UNIT(.MILLI.,.METRE.)
);
#860=(
LENGTH_UNIT()
NAMED_UNIT(*)
SI_UNIT($,.METRE.)
);
#861=(
NAMED_UNIT(*)
PLANE_ANGLE_UNIT()
SI_UNIT($,.RADIAN.)
);
#862=(
NAMED_UNIT(*)
SI_UNIT($,.STERADIAN.)
SOLID_ANGLE_UNIT()
);
#863=SHAPE_DEFINITION_REPRESENTATION(#864,#865);
#864=PRODUCT_DEFINITION_SHAPE('',$,#867);
#865=SHAPE_REPRESENTATION('',(#527),#857);
#866=PRODUCT_DEFINITION_CONTEXT('part definition',#871,'design');
#867=PRODUCT_DEFINITION('Right rear axle TPU','Right rear axle TPU',#868,
#866);
#868=PRODUCT_DEFINITION_FORMATION('',$,#873);
#869=PRODUCT_RELATED_PRODUCT_CATEGORY('Right rear axle TPU',
'Right rear axle TPU',(#873));
#870=APPLICATION_PROTOCOL_DEFINITION('international standard',
'automotive_design',2009,#871);
#871=APPLICATION_CONTEXT(
'Core Data for Automotive Mechanical Design Process');
#872=PRODUCT_CONTEXT('part definition',#871,'mechanical');
#873=PRODUCT('Right rear axle TPU','Right rear axle TPU',$,(#872));
#874=PRESENTATION_STYLE_ASSIGNMENT((#876));
#875=PRESENTATION_STYLE_ASSIGNMENT((#877));
#876=SURFACE_STYLE_USAGE(.BOTH.,#878);
#877=SURFACE_STYLE_USAGE(.BOTH.,#879);
#878=SURFACE_SIDE_STYLE('',(#880));
#879=SURFACE_SIDE_STYLE('',(#881));
#880=SURFACE_STYLE_FILL_AREA(#882);
#881=SURFACE_STYLE_FILL_AREA(#883);
#882=FILL_AREA_STYLE('Stahl - satiniert',(#884));
#883=FILL_AREA_STYLE('Opaque(160,160,160)',(#885));
#884=FILL_AREA_STYLE_COLOUR('Stahl - satiniert',#886);
#885=FILL_AREA_STYLE_COLOUR('Opaque(160,160,160)',#887);
#886=COLOUR_RGB('Stahl - satiniert',0.627450980392157,0.627450980392157,
0.627450980392157);
#887=COLOUR_RGB('Opaque(160,160,160)',0.392156862745098,0.392156862745098,
0.392156862745098);
ENDSEC;
END-ISO-10303-21;
