ISO-10303-21;
HEADER;
/* Generated by software containing ST-Developer
 * from STEP Tools, Inc. (www.steptools.com) 
 */

FILE_DESCRIPTION(
/* description */ (''),
/* implementation_level */ '2;1');

FILE_NAME(
/* name */ 'Servo horn attachment large TPU.step',
/* time_stamp */ '2026-04-11T13:46:17+02:00',
/* author */ (''),
/* organization */ (''),
/* preprocessor_version */ 'ST-DEVELOPER v20.1',
/* originating_system */ 'Autodesk Translation Framework v14.24.0.0',
/* authorisation */ '');

FILE_SCHEMA (('AUTOMOTIVE_DESIGN { 1 0 10303 214 3 1 1 }'));
ENDSEC;

DATA;
#10=MECHANICAL_DESIGN_GEOMETRIC_PRESENTATION_REPRESENTATION('',(#13),#959);
#11=SHAPE_REPRESENTATION_RELATIONSHIP('SRR','None',#966,#12);
#12=ADVANCED_BREP_SHAPE_REPRESENTATION('',(#14),#958);
#13=STYLED_ITEM('',(#975),#14);
#14=MANIFOLD_SOLID_BREP('Servo horn attachment large',#567);
#15=FACE_BOUND('',#85,.T.);
#16=FACE_BOUND('',#92,.T.);
#17=FACE_BOUND('',#97,.T.);
#18=FACE_BOUND('',#98,.T.);
#19=FACE_BOUND('',#104,.T.);
#20=FACE_BOUND('',#105,.T.);
#21=PLANE('',#584);
#22=PLANE('',#588);
#23=PLANE('',#589);
#24=PLANE('',#590);
#25=PLANE('',#591);
#26=PLANE('',#592);
#27=PLANE('',#596);
#28=PLANE('',#600);
#29=PLANE('',#607);
#30=PLANE('',#609);
#31=PLANE('',#610);
#32=PLANE('',#611);
#33=PLANE('',#612);
#34=PLANE('',#613);
#35=PLANE('',#614);
#36=PLANE('',#621);
#37=PLANE('',#622);
#38=PLANE('',#627);
#39=PLANE('',#632);
#40=FACE_OUTER_BOUND('',#70,.T.);
#41=FACE_OUTER_BOUND('',#71,.T.);
#42=FACE_OUTER_BOUND('',#72,.T.);
#43=FACE_OUTER_BOUND('',#73,.T.);
#44=FACE_OUTER_BOUND('',#74,.T.);
#45=FACE_OUTER_BOUND('',#75,.T.);
#46=FACE_OUTER_BOUND('',#76,.T.);
#47=FACE_OUTER_BOUND('',#77,.T.);
#48=FACE_OUTER_BOUND('',#78,.T.);
#49=FACE_OUTER_BOUND('',#79,.T.);
#50=FACE_OUTER_BOUND('',#80,.T.);
#51=FACE_OUTER_BOUND('',#81,.T.);
#52=FACE_OUTER_BOUND('',#82,.T.);
#53=FACE_OUTER_BOUND('',#83,.T.);
#54=FACE_OUTER_BOUND('',#84,.T.);
#55=FACE_OUTER_BOUND('',#86,.T.);
#56=FACE_OUTER_BOUND('',#87,.T.);
#57=FACE_OUTER_BOUND('',#88,.T.);
#58=FACE_OUTER_BOUND('',#89,.T.);
#59=FACE_OUTER_BOUND('',#90,.T.);
#60=FACE_OUTER_BOUND('',#91,.T.);
#61=FACE_OUTER_BOUND('',#93,.T.);
#62=FACE_OUTER_BOUND('',#94,.T.);
#63=FACE_OUTER_BOUND('',#95,.T.);
#64=FACE_OUTER_BOUND('',#96,.T.);
#65=FACE_OUTER_BOUND('',#99,.T.);
#66=FACE_OUTER_BOUND('',#100,.T.);
#67=FACE_OUTER_BOUND('',#101,.T.);
#68=FACE_OUTER_BOUND('',#102,.T.);
#69=FACE_OUTER_BOUND('',#103,.T.);
#70=EDGE_LOOP('',(#370,#371,#372,#373));
#71=EDGE_LOOP('',(#374,#375,#376,#377));
#72=EDGE_LOOP('',(#378,#379,#380,#381));
#73=EDGE_LOOP('',(#382,#383,#384,#385));
#74=EDGE_LOOP('',(#386,#387,#388,#389));
#75=EDGE_LOOP('',(#390,#391,#392,#393));
#76=EDGE_LOOP('',(#394,#395,#396,#397));
#77=EDGE_LOOP('',(#398,#399,#400,#401));
#78=EDGE_LOOP('',(#402,#403,#404,#405));
#79=EDGE_LOOP('',(#406,#407,#408,#409));
#80=EDGE_LOOP('',(#410,#411,#412,#413));
#81=EDGE_LOOP('',(#414,#415,#416,#417));
#82=EDGE_LOOP('',(#418,#419,#420,#421));
#83=EDGE_LOOP('',(#422,#423,#424,#425));
#84=EDGE_LOOP('',(#426,#427,#428,#429,#430,#431,#432,#433));
#85=EDGE_LOOP('',(#434));
#86=EDGE_LOOP('',(#435,#436,#437,#438));
#87=EDGE_LOOP('',(#439,#440,#441,#442));
#88=EDGE_LOOP('',(#443,#444,#445,#446));
#89=EDGE_LOOP('',(#447,#448,#449,#450));
#90=EDGE_LOOP('',(#451,#452,#453,#454));
#91=EDGE_LOOP('',(#455,#456,#457,#458,#459,#460));
#92=EDGE_LOOP('',(#461));
#93=EDGE_LOOP('',(#462,#463,#464,#465));
#94=EDGE_LOOP('',(#466,#467,#468,#469));
#95=EDGE_LOOP('',(#470,#471,#472,#473));
#96=EDGE_LOOP('',(#474,#475,#476,#477,#478,#479,#480,#481,#482,#483));
#97=EDGE_LOOP('',(#484,#485,#486,#487,#488,#489));
#98=EDGE_LOOP('',(#490,#491,#492,#493,#494,#495,#496,#497));
#99=EDGE_LOOP('',(#498,#499,#500,#501));
#100=EDGE_LOOP('',(#502,#503,#504,#505));
#101=EDGE_LOOP('',(#506,#507,#508,#509));
#102=EDGE_LOOP('',(#510,#511,#512,#513));
#103=EDGE_LOOP('',(#514,#515,#516,#517,#518,#519,#520,#521,#522,#523));
#104=EDGE_LOOP('',(#524));
#105=EDGE_LOOP('',(#525));
#106=LINE('',#801,#162);
#107=LINE('',#804,#163);
#108=LINE('',#807,#164);
#109=LINE('',#809,#165);
#110=LINE('',#810,#166);
#111=LINE('',#816,#167);
#112=LINE('',#819,#168);
#113=LINE('',#822,#169);
#114=LINE('',#824,#170);
#115=LINE('',#825,#171);
#116=LINE('',#828,#172);
#117=LINE('',#830,#173);
#118=LINE('',#831,#174);
#119=LINE('',#834,#175);
#120=LINE('',#836,#176);
#121=LINE('',#837,#177);
#122=LINE('',#841,#178);
#123=LINE('',#843,#179);
#124=LINE('',#845,#180);
#125=LINE('',#846,#181);
#126=LINE('',#850,#182);
#127=LINE('',#852,#183);
#128=LINE('',#854,#184);
#129=LINE('',#855,#185);
#130=LINE('',#861,#186);
#131=LINE('',#865,#187);
#132=LINE('',#867,#188);
#133=LINE('',#869,#189);
#134=LINE('',#870,#190);
#135=LINE('',#877,#191);
#136=LINE('',#878,#192);
#137=LINE('',#879,#193);
#138=LINE('',#892,#194);
#139=LINE('',#894,#195);
#140=LINE('',#896,#196);
#141=LINE('',#897,#197);
#142=LINE('',#900,#198);
#143=LINE('',#902,#199);
#144=LINE('',#903,#200);
#145=LINE('',#907,#201);
#146=LINE('',#909,#202);
#147=LINE('',#911,#203);
#148=LINE('',#912,#204);
#149=LINE('',#915,#205);
#150=LINE('',#917,#206);
#151=LINE('',#918,#207);
#152=LINE('',#920,#208);
#153=LINE('',#921,#209);
#154=LINE('',#923,#210);
#155=LINE('',#929,#211);
#156=LINE('',#934,#212);
#157=LINE('',#938,#213);
#158=LINE('',#943,#214);
#159=LINE('',#947,#215);
#160=LINE('',#949,#216);
#161=LINE('',#950,#217);
#162=VECTOR('',#639,10.);
#163=VECTOR('',#642,10.);
#164=VECTOR('',#645,10.);
#165=VECTOR('',#646,10.);
#166=VECTOR('',#647,10.);
#167=VECTOR('',#652,10.);
#168=VECTOR('',#655,10.);
#169=VECTOR('',#658,10.);
#170=VECTOR('',#659,10.);
#171=VECTOR('',#660,10.);
#172=VECTOR('',#663,10.);
#173=VECTOR('',#664,10.);
#174=VECTOR('',#665,10.);
#175=VECTOR('',#668,10.);
#176=VECTOR('',#669,10.);
#177=VECTOR('',#670,10.);
#178=VECTOR('',#673,10.);
#179=VECTOR('',#674,10.);
#180=VECTOR('',#675,10.);
#181=VECTOR('',#676,10.);
#182=VECTOR('',#679,10.);
#183=VECTOR('',#680,10.);
#184=VECTOR('',#681,10.);
#185=VECTOR('',#682,10.);
#186=VECTOR('',#689,10.);
#187=VECTOR('',#692,10.);
#188=VECTOR('',#693,10.);
#189=VECTOR('',#694,10.);
#190=VECTOR('',#695,10.);
#191=VECTOR('',#704,10.);
#192=VECTOR('',#705,10.);
#193=VECTOR('',#706,10.);
#194=VECTOR('',#725,10.);
#195=VECTOR('',#726,10.);
#196=VECTOR('',#727,10.);
#197=VECTOR('',#728,10.);
#198=VECTOR('',#731,10.);
#199=VECTOR('',#732,10.);
#200=VECTOR('',#733,10.);
#201=VECTOR('',#736,10.);
#202=VECTOR('',#737,10.);
#203=VECTOR('',#738,10.);
#204=VECTOR('',#739,10.);
#205=VECTOR('',#742,10.);
#206=VECTOR('',#743,10.);
#207=VECTOR('',#744,10.);
#208=VECTOR('',#747,10.);
#209=VECTOR('',#748,10.);
#210=VECTOR('',#751,10.);
#211=VECTOR('',#758,1.6);
#212=VECTOR('',#767,10.);
#213=VECTOR('',#770,10.);
#214=VECTOR('',#777,1.35);
#215=VECTOR('',#782,10.);
#216=VECTOR('',#783,10.);
#217=VECTOR('',#784,10.);
#218=CIRCLE('',#582,5.);
#219=CIRCLE('',#583,5.);
#220=CIRCLE('',#586,5.);
#221=CIRCLE('',#587,5.);
#222=CIRCLE('',#594,2.1);
#223=CIRCLE('',#595,2.1);
#224=CIRCLE('',#598,2.1);
#225=CIRCLE('',#599,2.1);
#226=CIRCLE('',#602,3.9);
#227=CIRCLE('',#603,3.9);
#228=CIRCLE('',#605,3.9);
#229=CIRCLE('',#606,3.9);
#230=CIRCLE('',#608,1.35);
#231=CIRCLE('',#615,1.6);
#232=CIRCLE('',#617,1.6);
#233=CIRCLE('',#619,4.);
#234=CIRCLE('',#620,4.);
#235=CIRCLE('',#623,6.);
#236=CIRCLE('',#624,6.);
#237=CIRCLE('',#626,1.35);
#238=CIRCLE('',#629,6.);
#239=CIRCLE('',#631,6.);
#240=VERTEX_POINT('',#797);
#241=VERTEX_POINT('',#798);
#242=VERTEX_POINT('',#800);
#243=VERTEX_POINT('',#802);
#244=VERTEX_POINT('',#806);
#245=VERTEX_POINT('',#808);
#246=VERTEX_POINT('',#812);
#247=VERTEX_POINT('',#813);
#248=VERTEX_POINT('',#815);
#249=VERTEX_POINT('',#817);
#250=VERTEX_POINT('',#821);
#251=VERTEX_POINT('',#823);
#252=VERTEX_POINT('',#827);
#253=VERTEX_POINT('',#829);
#254=VERTEX_POINT('',#833);
#255=VERTEX_POINT('',#835);
#256=VERTEX_POINT('',#839);
#257=VERTEX_POINT('',#840);
#258=VERTEX_POINT('',#842);
#259=VERTEX_POINT('',#844);
#260=VERTEX_POINT('',#848);
#261=VERTEX_POINT('',#849);
#262=VERTEX_POINT('',#851);
#263=VERTEX_POINT('',#853);
#264=VERTEX_POINT('',#857);
#265=VERTEX_POINT('',#859);
#266=VERTEX_POINT('',#863);
#267=VERTEX_POINT('',#864);
#268=VERTEX_POINT('',#866);
#269=VERTEX_POINT('',#868);
#270=VERTEX_POINT('',#875);
#271=VERTEX_POINT('',#876);
#272=VERTEX_POINT('',#887);
#273=VERTEX_POINT('',#890);
#274=VERTEX_POINT('',#891);
#275=VERTEX_POINT('',#893);
#276=VERTEX_POINT('',#895);
#277=VERTEX_POINT('',#899);
#278=VERTEX_POINT('',#901);
#279=VERTEX_POINT('',#905);
#280=VERTEX_POINT('',#906);
#281=VERTEX_POINT('',#908);
#282=VERTEX_POINT('',#910);
#283=VERTEX_POINT('',#914);
#284=VERTEX_POINT('',#916);
#285=VERTEX_POINT('',#924);
#286=VERTEX_POINT('',#927);
#287=VERTEX_POINT('',#936);
#288=VERTEX_POINT('',#937);
#289=VERTEX_POINT('',#942);
#290=VERTEX_POINT('',#946);
#291=VERTEX_POINT('',#948);
#292=EDGE_CURVE('',#240,#241,#218,.T.);
#293=EDGE_CURVE('',#241,#242,#106,.T.);
#294=EDGE_CURVE('',#242,#243,#219,.T.);
#295=EDGE_CURVE('',#243,#240,#107,.T.);
#296=EDGE_CURVE('',#244,#241,#108,.F.);
#297=EDGE_CURVE('',#245,#244,#109,.T.);
#298=EDGE_CURVE('',#242,#245,#110,.T.);
#299=EDGE_CURVE('',#246,#247,#220,.T.);
#300=EDGE_CURVE('',#247,#248,#111,.T.);
#301=EDGE_CURVE('',#248,#249,#221,.T.);
#302=EDGE_CURVE('',#249,#246,#112,.T.);
#303=EDGE_CURVE('',#250,#247,#113,.T.);
#304=EDGE_CURVE('',#251,#250,#114,.T.);
#305=EDGE_CURVE('',#248,#251,#115,.F.);
#306=EDGE_CURVE('',#252,#243,#116,.T.);
#307=EDGE_CURVE('',#252,#253,#117,.T.);
#308=EDGE_CURVE('',#240,#253,#118,.T.);
#309=EDGE_CURVE('',#254,#249,#119,.T.);
#310=EDGE_CURVE('',#255,#254,#120,.T.);
#311=EDGE_CURVE('',#246,#255,#121,.T.);
#312=EDGE_CURVE('',#256,#257,#122,.T.);
#313=EDGE_CURVE('',#258,#256,#123,.T.);
#314=EDGE_CURVE('',#259,#258,#124,.T.);
#315=EDGE_CURVE('',#259,#257,#125,.T.);
#316=EDGE_CURVE('',#260,#261,#126,.T.);
#317=EDGE_CURVE('',#262,#260,#127,.T.);
#318=EDGE_CURVE('',#263,#262,#128,.T.);
#319=EDGE_CURVE('',#263,#261,#129,.T.);
#320=EDGE_CURVE('',#259,#264,#222,.T.);
#321=EDGE_CURVE('',#265,#258,#223,.T.);
#322=EDGE_CURVE('',#264,#265,#130,.T.);
#323=EDGE_CURVE('',#266,#267,#131,.T.);
#324=EDGE_CURVE('',#268,#266,#132,.T.);
#325=EDGE_CURVE('',#268,#269,#133,.T.);
#326=EDGE_CURVE('',#267,#269,#134,.T.);
#327=EDGE_CURVE('',#263,#268,#224,.T.);
#328=EDGE_CURVE('',#269,#262,#225,.T.);
#329=EDGE_CURVE('',#270,#271,#135,.T.);
#330=EDGE_CURVE('',#264,#270,#136,.T.);
#331=EDGE_CURVE('',#271,#265,#137,.T.);
#332=EDGE_CURVE('',#266,#257,#226,.T.);
#333=EDGE_CURVE('',#256,#267,#227,.F.);
#334=EDGE_CURVE('',#260,#271,#228,.F.);
#335=EDGE_CURVE('',#270,#261,#229,.T.);
#336=EDGE_CURVE('',#272,#272,#230,.T.);
#337=EDGE_CURVE('',#273,#274,#138,.T.);
#338=EDGE_CURVE('',#273,#275,#139,.T.);
#339=EDGE_CURVE('',#275,#276,#140,.T.);
#340=EDGE_CURVE('',#274,#276,#141,.T.);
#341=EDGE_CURVE('',#277,#273,#142,.T.);
#342=EDGE_CURVE('',#278,#277,#143,.T.);
#343=EDGE_CURVE('',#278,#275,#144,.T.);
#344=EDGE_CURVE('',#279,#280,#145,.T.);
#345=EDGE_CURVE('',#279,#281,#146,.T.);
#346=EDGE_CURVE('',#281,#282,#147,.T.);
#347=EDGE_CURVE('',#280,#282,#148,.T.);
#348=EDGE_CURVE('',#283,#279,#149,.T.);
#349=EDGE_CURVE('',#283,#284,#150,.T.);
#350=EDGE_CURVE('',#284,#281,#151,.T.);
#351=EDGE_CURVE('',#274,#283,#152,.T.);
#352=EDGE_CURVE('',#276,#284,#153,.T.);
#353=EDGE_CURVE('',#282,#278,#154,.T.);
#354=EDGE_CURVE('',#285,#285,#231,.T.);
#355=EDGE_CURVE('',#286,#286,#232,.T.);
#356=EDGE_CURVE('',#286,#285,#155,.T.);
#357=EDGE_CURVE('',#255,#252,#233,.T.);
#358=EDGE_CURVE('',#253,#254,#234,.T.);
#359=EDGE_CURVE('',#280,#277,#156,.T.);
#360=EDGE_CURVE('',#287,#288,#157,.T.);
#361=EDGE_CURVE('',#288,#250,#235,.T.);
#362=EDGE_CURVE('',#245,#287,#236,.T.);
#363=EDGE_CURVE('',#272,#289,#158,.T.);
#364=EDGE_CURVE('',#289,#289,#237,.T.);
#365=EDGE_CURVE('',#288,#290,#159,.T.);
#366=EDGE_CURVE('',#287,#291,#160,.T.);
#367=EDGE_CURVE('',#290,#291,#161,.F.);
#368=EDGE_CURVE('',#291,#244,#238,.F.);
#369=EDGE_CURVE('',#251,#290,#239,.F.);
#370=ORIENTED_EDGE('',*,*,#292,.T.);
#371=ORIENTED_EDGE('',*,*,#293,.T.);
#372=ORIENTED_EDGE('',*,*,#294,.T.);
#373=ORIENTED_EDGE('',*,*,#295,.T.);
#374=ORIENTED_EDGE('',*,*,#293,.F.);
#375=ORIENTED_EDGE('',*,*,#296,.F.);
#376=ORIENTED_EDGE('',*,*,#297,.F.);
#377=ORIENTED_EDGE('',*,*,#298,.F.);
#378=ORIENTED_EDGE('',*,*,#299,.T.);
#379=ORIENTED_EDGE('',*,*,#300,.T.);
#380=ORIENTED_EDGE('',*,*,#301,.T.);
#381=ORIENTED_EDGE('',*,*,#302,.T.);
#382=ORIENTED_EDGE('',*,*,#300,.F.);
#383=ORIENTED_EDGE('',*,*,#303,.F.);
#384=ORIENTED_EDGE('',*,*,#304,.F.);
#385=ORIENTED_EDGE('',*,*,#305,.F.);
#386=ORIENTED_EDGE('',*,*,#295,.F.);
#387=ORIENTED_EDGE('',*,*,#306,.F.);
#388=ORIENTED_EDGE('',*,*,#307,.T.);
#389=ORIENTED_EDGE('',*,*,#308,.F.);
#390=ORIENTED_EDGE('',*,*,#302,.F.);
#391=ORIENTED_EDGE('',*,*,#309,.F.);
#392=ORIENTED_EDGE('',*,*,#310,.F.);
#393=ORIENTED_EDGE('',*,*,#311,.F.);
#394=ORIENTED_EDGE('',*,*,#312,.F.);
#395=ORIENTED_EDGE('',*,*,#313,.F.);
#396=ORIENTED_EDGE('',*,*,#314,.F.);
#397=ORIENTED_EDGE('',*,*,#315,.T.);
#398=ORIENTED_EDGE('',*,*,#316,.F.);
#399=ORIENTED_EDGE('',*,*,#317,.F.);
#400=ORIENTED_EDGE('',*,*,#318,.F.);
#401=ORIENTED_EDGE('',*,*,#319,.T.);
#402=ORIENTED_EDGE('',*,*,#320,.F.);
#403=ORIENTED_EDGE('',*,*,#314,.T.);
#404=ORIENTED_EDGE('',*,*,#321,.F.);
#405=ORIENTED_EDGE('',*,*,#322,.F.);
#406=ORIENTED_EDGE('',*,*,#323,.F.);
#407=ORIENTED_EDGE('',*,*,#324,.F.);
#408=ORIENTED_EDGE('',*,*,#325,.T.);
#409=ORIENTED_EDGE('',*,*,#326,.F.);
#410=ORIENTED_EDGE('',*,*,#327,.F.);
#411=ORIENTED_EDGE('',*,*,#318,.T.);
#412=ORIENTED_EDGE('',*,*,#328,.F.);
#413=ORIENTED_EDGE('',*,*,#325,.F.);
#414=ORIENTED_EDGE('',*,*,#329,.F.);
#415=ORIENTED_EDGE('',*,*,#330,.F.);
#416=ORIENTED_EDGE('',*,*,#322,.T.);
#417=ORIENTED_EDGE('',*,*,#331,.F.);
#418=ORIENTED_EDGE('',*,*,#312,.T.);
#419=ORIENTED_EDGE('',*,*,#332,.F.);
#420=ORIENTED_EDGE('',*,*,#323,.T.);
#421=ORIENTED_EDGE('',*,*,#333,.F.);
#422=ORIENTED_EDGE('',*,*,#334,.F.);
#423=ORIENTED_EDGE('',*,*,#316,.T.);
#424=ORIENTED_EDGE('',*,*,#335,.F.);
#425=ORIENTED_EDGE('',*,*,#329,.T.);
#426=ORIENTED_EDGE('',*,*,#315,.F.);
#427=ORIENTED_EDGE('',*,*,#320,.T.);
#428=ORIENTED_EDGE('',*,*,#330,.T.);
#429=ORIENTED_EDGE('',*,*,#335,.T.);
#430=ORIENTED_EDGE('',*,*,#319,.F.);
#431=ORIENTED_EDGE('',*,*,#327,.T.);
#432=ORIENTED_EDGE('',*,*,#324,.T.);
#433=ORIENTED_EDGE('',*,*,#332,.T.);
#434=ORIENTED_EDGE('',*,*,#336,.F.);
#435=ORIENTED_EDGE('',*,*,#337,.F.);
#436=ORIENTED_EDGE('',*,*,#338,.T.);
#437=ORIENTED_EDGE('',*,*,#339,.T.);
#438=ORIENTED_EDGE('',*,*,#340,.F.);
#439=ORIENTED_EDGE('',*,*,#341,.F.);
#440=ORIENTED_EDGE('',*,*,#342,.F.);
#441=ORIENTED_EDGE('',*,*,#343,.T.);
#442=ORIENTED_EDGE('',*,*,#338,.F.);
#443=ORIENTED_EDGE('',*,*,#344,.F.);
#444=ORIENTED_EDGE('',*,*,#345,.T.);
#445=ORIENTED_EDGE('',*,*,#346,.T.);
#446=ORIENTED_EDGE('',*,*,#347,.F.);
#447=ORIENTED_EDGE('',*,*,#348,.F.);
#448=ORIENTED_EDGE('',*,*,#349,.T.);
#449=ORIENTED_EDGE('',*,*,#350,.T.);
#450=ORIENTED_EDGE('',*,*,#345,.F.);
#451=ORIENTED_EDGE('',*,*,#351,.F.);
#452=ORIENTED_EDGE('',*,*,#340,.T.);
#453=ORIENTED_EDGE('',*,*,#352,.T.);
#454=ORIENTED_EDGE('',*,*,#349,.F.);
#455=ORIENTED_EDGE('',*,*,#352,.F.);
#456=ORIENTED_EDGE('',*,*,#339,.F.);
#457=ORIENTED_EDGE('',*,*,#343,.F.);
#458=ORIENTED_EDGE('',*,*,#353,.F.);
#459=ORIENTED_EDGE('',*,*,#346,.F.);
#460=ORIENTED_EDGE('',*,*,#350,.F.);
#461=ORIENTED_EDGE('',*,*,#354,.F.);
#462=ORIENTED_EDGE('',*,*,#355,.F.);
#463=ORIENTED_EDGE('',*,*,#356,.T.);
#464=ORIENTED_EDGE('',*,*,#354,.T.);
#465=ORIENTED_EDGE('',*,*,#356,.F.);
#466=ORIENTED_EDGE('',*,*,#307,.F.);
#467=ORIENTED_EDGE('',*,*,#357,.F.);
#468=ORIENTED_EDGE('',*,*,#310,.T.);
#469=ORIENTED_EDGE('',*,*,#358,.F.);
#470=ORIENTED_EDGE('',*,*,#347,.T.);
#471=ORIENTED_EDGE('',*,*,#353,.T.);
#472=ORIENTED_EDGE('',*,*,#342,.T.);
#473=ORIENTED_EDGE('',*,*,#359,.F.);
#474=ORIENTED_EDGE('',*,*,#360,.T.);
#475=ORIENTED_EDGE('',*,*,#361,.T.);
#476=ORIENTED_EDGE('',*,*,#303,.T.);
#477=ORIENTED_EDGE('',*,*,#299,.F.);
#478=ORIENTED_EDGE('',*,*,#311,.T.);
#479=ORIENTED_EDGE('',*,*,#357,.T.);
#480=ORIENTED_EDGE('',*,*,#306,.T.);
#481=ORIENTED_EDGE('',*,*,#294,.F.);
#482=ORIENTED_EDGE('',*,*,#298,.T.);
#483=ORIENTED_EDGE('',*,*,#362,.T.);
#484=ORIENTED_EDGE('',*,*,#359,.T.);
#485=ORIENTED_EDGE('',*,*,#341,.T.);
#486=ORIENTED_EDGE('',*,*,#337,.T.);
#487=ORIENTED_EDGE('',*,*,#351,.T.);
#488=ORIENTED_EDGE('',*,*,#348,.T.);
#489=ORIENTED_EDGE('',*,*,#344,.T.);
#490=ORIENTED_EDGE('',*,*,#331,.T.);
#491=ORIENTED_EDGE('',*,*,#321,.T.);
#492=ORIENTED_EDGE('',*,*,#313,.T.);
#493=ORIENTED_EDGE('',*,*,#333,.T.);
#494=ORIENTED_EDGE('',*,*,#326,.T.);
#495=ORIENTED_EDGE('',*,*,#328,.T.);
#496=ORIENTED_EDGE('',*,*,#317,.T.);
#497=ORIENTED_EDGE('',*,*,#334,.T.);
#498=ORIENTED_EDGE('',*,*,#336,.T.);
#499=ORIENTED_EDGE('',*,*,#363,.T.);
#500=ORIENTED_EDGE('',*,*,#364,.F.);
#501=ORIENTED_EDGE('',*,*,#363,.F.);
#502=ORIENTED_EDGE('',*,*,#365,.F.);
#503=ORIENTED_EDGE('',*,*,#360,.F.);
#504=ORIENTED_EDGE('',*,*,#366,.T.);
#505=ORIENTED_EDGE('',*,*,#367,.F.);
#506=ORIENTED_EDGE('',*,*,#366,.F.);
#507=ORIENTED_EDGE('',*,*,#362,.F.);
#508=ORIENTED_EDGE('',*,*,#297,.T.);
#509=ORIENTED_EDGE('',*,*,#368,.F.);
#510=ORIENTED_EDGE('',*,*,#304,.T.);
#511=ORIENTED_EDGE('',*,*,#361,.F.);
#512=ORIENTED_EDGE('',*,*,#365,.T.);
#513=ORIENTED_EDGE('',*,*,#369,.F.);
#514=ORIENTED_EDGE('',*,*,#367,.T.);
#515=ORIENTED_EDGE('',*,*,#368,.T.);
#516=ORIENTED_EDGE('',*,*,#296,.T.);
#517=ORIENTED_EDGE('',*,*,#292,.F.);
#518=ORIENTED_EDGE('',*,*,#308,.T.);
#519=ORIENTED_EDGE('',*,*,#358,.T.);
#520=ORIENTED_EDGE('',*,*,#309,.T.);
#521=ORIENTED_EDGE('',*,*,#301,.F.);
#522=ORIENTED_EDGE('',*,*,#305,.T.);
#523=ORIENTED_EDGE('',*,*,#369,.T.);
#524=ORIENTED_EDGE('',*,*,#364,.T.);
#525=ORIENTED_EDGE('',*,*,#355,.T.);
#526=CYLINDRICAL_SURFACE('',#581,5.);
#527=CYLINDRICAL_SURFACE('',#585,5.);
#528=CYLINDRICAL_SURFACE('',#593,2.1);
#529=CYLINDRICAL_SURFACE('',#597,2.1);
#530=CYLINDRICAL_SURFACE('',#601,3.9);
#531=CYLINDRICAL_SURFACE('',#604,3.9);
#532=CYLINDRICAL_SURFACE('',#616,1.6);
#533=CYLINDRICAL_SURFACE('',#618,4.);
#534=CYLINDRICAL_SURFACE('',#625,1.35);
#535=CYLINDRICAL_SURFACE('',#628,6.);
#536=CYLINDRICAL_SURFACE('',#630,6.);
#537=ADVANCED_FACE('',(#40),#526,.F.);
#538=ADVANCED_FACE('',(#41),#21,.T.);
#539=ADVANCED_FACE('',(#42),#527,.F.);
#540=ADVANCED_FACE('',(#43),#22,.T.);
#541=ADVANCED_FACE('',(#44),#23,.T.);
#542=ADVANCED_FACE('',(#45),#24,.T.);
#543=ADVANCED_FACE('',(#46),#25,.F.);
#544=ADVANCED_FACE('',(#47),#26,.F.);
#545=ADVANCED_FACE('',(#48),#528,.F.);
#546=ADVANCED_FACE('',(#49),#27,.F.);
#547=ADVANCED_FACE('',(#50),#529,.F.);
#548=ADVANCED_FACE('',(#51),#28,.F.);
#549=ADVANCED_FACE('',(#52),#530,.F.);
#550=ADVANCED_FACE('',(#53),#531,.F.);
#551=ADVANCED_FACE('',(#54,#15),#29,.F.);
#552=ADVANCED_FACE('',(#55),#30,.F.);
#553=ADVANCED_FACE('',(#56),#31,.F.);
#554=ADVANCED_FACE('',(#57),#32,.F.);
#555=ADVANCED_FACE('',(#58),#33,.F.);
#556=ADVANCED_FACE('',(#59),#34,.F.);
#557=ADVANCED_FACE('',(#60,#16),#35,.T.);
#558=ADVANCED_FACE('',(#61),#532,.F.);
#559=ADVANCED_FACE('',(#62),#533,.T.);
#560=ADVANCED_FACE('',(#63),#36,.F.);
#561=ADVANCED_FACE('',(#64,#17,#18),#37,.F.);
#562=ADVANCED_FACE('',(#65),#534,.F.);
#563=ADVANCED_FACE('',(#66),#38,.T.);
#564=ADVANCED_FACE('',(#67),#535,.T.);
#565=ADVANCED_FACE('',(#68),#536,.T.);
#566=ADVANCED_FACE('',(#69,#19,#20),#39,.T.);
#567=CLOSED_SHELL('',(#537,#538,#539,#540,#541,#542,#543,#544,#545,#546,
#547,#548,#549,#550,#551,#552,#553,#554,#555,#556,#557,#558,#559,#560,#561,
#562,#563,#564,#565,#566));
#568=DERIVED_UNIT_ELEMENT(#570,1.);
#569=DERIVED_UNIT_ELEMENT(#961,-3.);
#570=(
MASS_UNIT()
NAMED_UNIT(*)
SI_UNIT(.KILO.,.GRAM.)
);
#571=DERIVED_UNIT((#568,#569));
#572=MEASURE_REPRESENTATION_ITEM('density measure',
POSITIVE_RATIO_MEASURE(7850.),#571);
#573=PROPERTY_DEFINITION_REPRESENTATION(#578,#575);
#574=PROPERTY_DEFINITION_REPRESENTATION(#579,#576);
#575=REPRESENTATION('material name',(#577),#958);
#576=REPRESENTATION('density',(#572),#958);
#577=DESCRIPTIVE_REPRESENTATION_ITEM('Stahl','Stahl');
#578=PROPERTY_DEFINITION('material property','material name',#968);
#579=PROPERTY_DEFINITION('material property','density of part',#968);
#580=AXIS2_PLACEMENT_3D('',#795,#633,#634);
#581=AXIS2_PLACEMENT_3D('',#796,#635,#636);
#582=AXIS2_PLACEMENT_3D('',#799,#637,#638);
#583=AXIS2_PLACEMENT_3D('',#803,#640,#641);
#584=AXIS2_PLACEMENT_3D('',#805,#643,#644);
#585=AXIS2_PLACEMENT_3D('',#811,#648,#649);
#586=AXIS2_PLACEMENT_3D('',#814,#650,#651);
#587=AXIS2_PLACEMENT_3D('',#818,#653,#654);
#588=AXIS2_PLACEMENT_3D('',#820,#656,#657);
#589=AXIS2_PLACEMENT_3D('',#826,#661,#662);
#590=AXIS2_PLACEMENT_3D('',#832,#666,#667);
#591=AXIS2_PLACEMENT_3D('',#838,#671,#672);
#592=AXIS2_PLACEMENT_3D('',#847,#677,#678);
#593=AXIS2_PLACEMENT_3D('',#856,#683,#684);
#594=AXIS2_PLACEMENT_3D('',#858,#685,#686);
#595=AXIS2_PLACEMENT_3D('',#860,#687,#688);
#596=AXIS2_PLACEMENT_3D('',#862,#690,#691);
#597=AXIS2_PLACEMENT_3D('',#871,#696,#697);
#598=AXIS2_PLACEMENT_3D('',#872,#698,#699);
#599=AXIS2_PLACEMENT_3D('',#873,#700,#701);
#600=AXIS2_PLACEMENT_3D('',#874,#702,#703);
#601=AXIS2_PLACEMENT_3D('',#880,#707,#708);
#602=AXIS2_PLACEMENT_3D('',#881,#709,#710);
#603=AXIS2_PLACEMENT_3D('',#882,#711,#712);
#604=AXIS2_PLACEMENT_3D('',#883,#713,#714);
#605=AXIS2_PLACEMENT_3D('',#884,#715,#716);
#606=AXIS2_PLACEMENT_3D('',#885,#717,#718);
#607=AXIS2_PLACEMENT_3D('',#886,#719,#720);
#608=AXIS2_PLACEMENT_3D('',#888,#721,#722);
#609=AXIS2_PLACEMENT_3D('',#889,#723,#724);
#610=AXIS2_PLACEMENT_3D('',#898,#729,#730);
#611=AXIS2_PLACEMENT_3D('',#904,#734,#735);
#612=AXIS2_PLACEMENT_3D('',#913,#740,#741);
#613=AXIS2_PLACEMENT_3D('',#919,#745,#746);
#614=AXIS2_PLACEMENT_3D('',#922,#749,#750);
#615=AXIS2_PLACEMENT_3D('',#925,#752,#753);
#616=AXIS2_PLACEMENT_3D('',#926,#754,#755);
#617=AXIS2_PLACEMENT_3D('',#928,#756,#757);
#618=AXIS2_PLACEMENT_3D('',#930,#759,#760);
#619=AXIS2_PLACEMENT_3D('',#931,#761,#762);
#620=AXIS2_PLACEMENT_3D('',#932,#763,#764);
#621=AXIS2_PLACEMENT_3D('',#933,#765,#766);
#622=AXIS2_PLACEMENT_3D('',#935,#768,#769);
#623=AXIS2_PLACEMENT_3D('',#939,#771,#772);
#624=AXIS2_PLACEMENT_3D('',#940,#773,#774);
#625=AXIS2_PLACEMENT_3D('',#941,#775,#776);
#626=AXIS2_PLACEMENT_3D('',#944,#778,#779);
#627=AXIS2_PLACEMENT_3D('',#945,#780,#781);
#628=AXIS2_PLACEMENT_3D('',#951,#785,#786);
#629=AXIS2_PLACEMENT_3D('',#952,#787,#788);
#630=AXIS2_PLACEMENT_3D('',#953,#789,#790);
#631=AXIS2_PLACEMENT_3D('',#954,#791,#792);
#632=AXIS2_PLACEMENT_3D('',#955,#793,#794);
#633=DIRECTION('axis',(0.,0.,1.));
#634=DIRECTION('refdir',(1.,0.,0.));
#635=DIRECTION('center_axis',(0.,0.,-1.));
#636=DIRECTION('ref_axis',(-0.707106781186547,0.707106781186547,0.));
#637=DIRECTION('center_axis',(-7.00649232162414E-46,0.,1.));
#638=DIRECTION('ref_axis',(-0.707106781186547,0.707106781186547,0.));
#639=DIRECTION('',(0.,0.,-1.));
#640=DIRECTION('center_axis',(4.70851352803846E-30,3.72736777716927E-29,
-1.));
#641=DIRECTION('ref_axis',(-0.707106781186547,0.707106781186547,0.));
#642=DIRECTION('',(0.,0.,1.));
#643=DIRECTION('center_axis',(1.,7.98721600449721E-17,0.));
#644=DIRECTION('ref_axis',(7.98721600449721E-17,-1.,-3.72736777716927E-29));
#645=DIRECTION('',(7.98721600449721E-17,-1.,5.59623676066631E-62));
#646=DIRECTION('',(0.,0.,1.));
#647=DIRECTION('',(7.98721600449721E-17,-1.,-3.72736777716927E-29));
#648=DIRECTION('center_axis',(0.,0.,1.));
#649=DIRECTION('ref_axis',(-0.707106781186547,-0.707106781186547,0.));
#650=DIRECTION('center_axis',(4.70851352803846E-30,3.72736777716927E-29,
-1.));
#651=DIRECTION('ref_axis',(-0.707106781186547,-0.707106781186547,0.));
#652=DIRECTION('',(0.,0.,1.));
#653=DIRECTION('center_axis',(-7.00649232162414E-46,0.,1.));
#654=DIRECTION('ref_axis',(-0.707106781186547,-0.707106781186547,0.));
#655=DIRECTION('',(0.,0.,-1.));
#656=DIRECTION('center_axis',(1.,7.98721600449721E-17,0.));
#657=DIRECTION('ref_axis',(7.98721600449721E-17,-1.,-3.72736777716927E-29));
#658=DIRECTION('',(7.98721600449721E-17,-1.,-3.72736777716927E-29));
#659=DIRECTION('',(0.,0.,-1.));
#660=DIRECTION('',(7.98721600449721E-17,-1.,5.59623676066631E-62));
#661=DIRECTION('center_axis',(-3.15544362088405E-30,-1.,0.));
#662=DIRECTION('ref_axis',(-1.,3.15544362088405E-30,-4.70851352803846E-30));
#663=DIRECTION('',(-1.,3.15544362088405E-30,-4.70851352803846E-30));
#664=DIRECTION('',(0.,0.,1.));
#665=DIRECTION('',(1.,0.,0.));
#666=DIRECTION('center_axis',(3.15544362088405E-30,1.,0.));
#667=DIRECTION('ref_axis',(1.,-3.15544362088405E-30,4.70851352803846E-30));
#668=DIRECTION('',(-1.,0.,0.));
#669=DIRECTION('',(0.,0.,1.));
#670=DIRECTION('',(1.,-3.15544362088405E-30,4.70851352803846E-30));
#671=DIRECTION('center_axis',(-0.993957831633517,0.109762602622194,0.));
#672=DIRECTION('ref_axis',(0.109762602622194,0.993957831633517,0.));
#673=DIRECTION('',(0.,0.,1.));
#674=DIRECTION('',(-0.109762602622194,-0.993957831633517,-3.75652826342774E-29));
#675=DIRECTION('',(0.,0.,-1.));
#676=DIRECTION('',(-0.109762602622194,-0.993957831633517,0.));
#677=DIRECTION('center_axis',(0.993957916313071,-0.109761835801789,0.));
#678=DIRECTION('ref_axis',(-0.109761835801789,-0.993957916313071,-1.17520359404816E-62));
#679=DIRECTION('',(0.,0.,1.));
#680=DIRECTION('',(0.109761835801789,0.993957916313071,3.75652821800116E-29));
#681=DIRECTION('',(0.,0.,-1.));
#682=DIRECTION('',(0.109761835801789,0.993957916313071,1.17520359404816E-62));
#683=DIRECTION('center_axis',(0.,0.,-1.));
#684=DIRECTION('ref_axis',(1.,0.,0.));
#685=DIRECTION('center_axis',(0.,0.,-1.));
#686=DIRECTION('ref_axis',(1.,0.,0.));
#687=DIRECTION('center_axis',(-4.70851352803846E-30,-3.72736777716927E-29,
1.));
#688=DIRECTION('ref_axis',(1.,0.,0.));
#689=DIRECTION('',(0.,0.,-1.));
#690=DIRECTION('center_axis',(-0.993957831633194,-0.109762602625116,0.));
#691=DIRECTION('ref_axis',(-0.109762602625116,0.993957831633194,0.));
#692=DIRECTION('',(0.,0.,-1.));
#693=DIRECTION('',(-0.109762602625116,0.993957831633194,0.));
#694=DIRECTION('',(0.,0.,-1.));
#695=DIRECTION('',(0.109762602625116,-0.993957831633194,-3.6531645235613E-29));
#696=DIRECTION('center_axis',(0.,0.,-1.));
#697=DIRECTION('ref_axis',(1.,0.,0.));
#698=DIRECTION('center_axis',(0.,0.,-1.));
#699=DIRECTION('ref_axis',(1.,0.,0.));
#700=DIRECTION('center_axis',(-4.70851352803846E-30,-3.72736777716927E-29,
1.));
#701=DIRECTION('ref_axis',(1.,0.,0.));
#702=DIRECTION('center_axis',(0.993957916313071,0.109761835801791,0.));
#703=DIRECTION('ref_axis',(0.109761835801791,-0.99395791631307,1.17520359404816E-62));
#704=DIRECTION('',(0.,0.,-1.));
#705=DIRECTION('',(0.109761835801791,-0.99395791631307,1.17520359404816E-62));
#706=DIRECTION('',(-0.109761835801791,0.99395791631307,3.65316520025414E-29));
#707=DIRECTION('center_axis',(0.,0.,-1.));
#708=DIRECTION('ref_axis',(-1.,-2.94164692604681E-12,0.));
#709=DIRECTION('center_axis',(7.00649232162414E-46,0.,-1.));
#710=DIRECTION('ref_axis',(-1.,3.15544362088405E-30,0.));
#711=DIRECTION('center_axis',(4.70851352803846E-30,3.72736777716927E-29,
-1.));
#712=DIRECTION('ref_axis',(-1.,3.15544362088405E-30,0.));
#713=DIRECTION('center_axis',(0.,0.,-1.));
#714=DIRECTION('ref_axis',(1.,1.22464679914732E-16,0.));
#715=DIRECTION('center_axis',(4.70851352803846E-30,3.72736777716927E-29,
-1.));
#716=DIRECTION('ref_axis',(1.,1.22464679914732E-16,0.));
#717=DIRECTION('center_axis',(7.00649232162414E-46,0.,-1.));
#718=DIRECTION('ref_axis',(1.,1.22464679914732E-16,0.));
#719=DIRECTION('center_axis',(-7.00649232162414E-46,0.,1.));
#720=DIRECTION('ref_axis',(-1.,0.,-7.00649232162414E-46));
#721=DIRECTION('center_axis',(0.,0.,-1.));
#722=DIRECTION('ref_axis',(-1.,0.,0.));
#723=DIRECTION('center_axis',(0.499999999999998,-0.86602540378444,0.));
#724=DIRECTION('ref_axis',(0.86602540378444,0.499999999999998,0.));
#725=DIRECTION('',(0.86602540378444,0.499999999999998,2.27145312151903E-29));
#726=DIRECTION('',(0.,0.,1.));
#727=DIRECTION('',(0.86602540378444,0.499999999999998,0.));
#728=DIRECTION('',(0.,0.,1.));
#729=DIRECTION('center_axis',(-0.500000000000001,-0.866025403784438,0.));
#730=DIRECTION('ref_axis',(0.866025403784438,-0.500000000000001,0.));
#731=DIRECTION('',(0.866025403784438,-0.500000000000001,-1.45591465565024E-29));
#732=DIRECTION('',(0.,0.,-1.));
#733=DIRECTION('',(0.866025403784438,-0.500000000000001,0.));
#734=DIRECTION('center_axis',(-0.499999999999999,0.866025403784439,0.));
#735=DIRECTION('ref_axis',(-0.866025403784439,-0.499999999999999,0.));
#736=DIRECTION('',(-0.866025403784439,-0.499999999999999,-2.27145312151903E-29));
#737=DIRECTION('',(0.,0.,1.));
#738=DIRECTION('',(-0.866025403784439,-0.499999999999999,0.));
#739=DIRECTION('',(0.,0.,1.));
#740=DIRECTION('center_axis',(0.500000000000001,0.866025403784438,0.));
#741=DIRECTION('ref_axis',(-0.866025403784438,0.500000000000001,0.));
#742=DIRECTION('',(-0.866025403784438,0.500000000000001,1.45591465565024E-29));
#743=DIRECTION('',(0.,0.,1.));
#744=DIRECTION('',(-0.866025403784438,0.500000000000001,0.));
#745=DIRECTION('center_axis',(1.,0.,0.));
#746=DIRECTION('ref_axis',(0.,1.,0.));
#747=DIRECTION('',(0.,1.,3.72736777716927E-29));
#748=DIRECTION('',(0.,1.,0.));
#749=DIRECTION('center_axis',(0.,0.,-1.));
#750=DIRECTION('ref_axis',(1.,0.,0.));
#751=DIRECTION('',(0.,-1.,0.));
#752=DIRECTION('center_axis',(0.,0.,-1.));
#753=DIRECTION('ref_axis',(-1.,3.15544362088405E-30,0.));
#754=DIRECTION('center_axis',(0.,0.,-1.));
#755=DIRECTION('ref_axis',(-1.,3.15544362088405E-30,0.));
#756=DIRECTION('center_axis',(0.,0.,-1.));
#757=DIRECTION('ref_axis',(-1.,0.,0.));
#758=DIRECTION('',(0.,0.,-1.));
#759=DIRECTION('center_axis',(0.,0.,-1.));
#760=DIRECTION('ref_axis',(-3.15544362088405E-30,-1.,0.));
#761=DIRECTION('center_axis',(4.70851352803846E-30,3.72736777716927E-29,
-1.));
#762=DIRECTION('ref_axis',(-3.15544362088405E-30,-1.,-3.72736777716927E-29));
#763=DIRECTION('center_axis',(0.,0.,1.));
#764=DIRECTION('ref_axis',(0.,-1.,0.));
#765=DIRECTION('center_axis',(-1.,0.,0.));
#766=DIRECTION('ref_axis',(0.,0.,1.));
#767=DIRECTION('',(0.,-1.,-3.72736777716927E-29));
#768=DIRECTION('center_axis',(-4.70851352803846E-30,-3.72736777716927E-29,
1.));
#769=DIRECTION('ref_axis',(-1.,3.15544362088405E-30,-4.70851352803846E-30));
#770=DIRECTION('',(9.98402000562506E-18,1.,3.72736777716927E-29));
#771=DIRECTION('center_axis',(4.70851352803846E-30,3.72736777716927E-29,
-1.));
#772=DIRECTION('ref_axis',(1.,-3.15544362088405E-30,0.));
#773=DIRECTION('center_axis',(4.70851352803846E-30,3.72736777716927E-29,
-1.));
#774=DIRECTION('ref_axis',(-1.,3.15544362088405E-30,0.));
#775=DIRECTION('center_axis',(0.,0.,1.));
#776=DIRECTION('ref_axis',(-1.,0.,0.));
#777=DIRECTION('',(0.,0.,1.));
#778=DIRECTION('center_axis',(0.,0.,-1.));
#779=DIRECTION('ref_axis',(-1.,0.,0.));
#780=DIRECTION('center_axis',(-1.,9.98402000562506E-18,0.));
#781=DIRECTION('ref_axis',(9.98402000562506E-18,1.,3.72736777716927E-29));
#782=DIRECTION('',(0.,0.,1.));
#783=DIRECTION('',(0.,0.,1.));
#784=DIRECTION('',(9.98402000562506E-18,1.,6.99529595083538E-63));
#785=DIRECTION('center_axis',(0.,0.,-1.));
#786=DIRECTION('ref_axis',(-1.,3.15544362088405E-30,0.));
#787=DIRECTION('center_axis',(7.00649232162414E-46,0.,-1.));
#788=DIRECTION('ref_axis',(-1.,3.15544362088405E-30,0.));
#789=DIRECTION('center_axis',(0.,0.,-1.));
#790=DIRECTION('ref_axis',(1.,-3.15544362088405E-30,0.));
#791=DIRECTION('center_axis',(7.00649232162414E-46,0.,-1.));
#792=DIRECTION('ref_axis',(1.,-3.15544362088405E-30,0.));
#793=DIRECTION('center_axis',(-7.00649232162414E-46,0.,1.));
#794=DIRECTION('ref_axis',(-1.,0.,-7.00649232162414E-46));
#795=CARTESIAN_POINT('',(0.,0.,0.));
#796=CARTESIAN_POINT('Origin',(13.6271775164304,57.1000000000003,20.6999997764811));
#797=CARTESIAN_POINT('',(13.6271775164304,62.1000000000003,22.6999997764811));
#798=CARTESIAN_POINT('',(8.62717751643042,57.1000000000003,22.6999997764811));
#799=CARTESIAN_POINT('Origin',(13.6271775164304,57.1000000000003,22.6999997764811));
#800=CARTESIAN_POINT('',(8.62717751643042,57.1000000000003,17.699999776481));
#801=CARTESIAN_POINT('',(8.62717751643042,57.1000000000003,20.6999997764811));
#802=CARTESIAN_POINT('',(13.6271775164304,62.1000000000003,17.699999776481));
#803=CARTESIAN_POINT('Origin',(13.6271775164304,57.1000000000003,17.699999776481));
#804=CARTESIAN_POINT('',(13.6271775164304,62.1000000000003,20.6999997764811));
#805=CARTESIAN_POINT('Origin',(8.62717751643042,80.0000000000003,20.6999997764811));
#806=CARTESIAN_POINT('',(8.62717751643042,52.2000000000003,22.6999997764811));
#807=CARTESIAN_POINT('',(8.62717751643042,73.0500000000003,22.6999997764811));
#808=CARTESIAN_POINT('',(8.62717751643042,52.2000000000003,17.699999776481));
#809=CARTESIAN_POINT('',(8.62717751643042,52.2000000000003,20.6999997764811));
#810=CARTESIAN_POINT('',(8.62717751643042,73.0500000000003,17.699999776481));
#811=CARTESIAN_POINT('Origin',(13.6271775164304,75.1000000000003,20.6999997764811));
#812=CARTESIAN_POINT('',(13.6271775164304,70.1000000000003,17.699999776481));
#813=CARTESIAN_POINT('',(8.62717751643042,75.1000000000003,17.699999776481));
#814=CARTESIAN_POINT('Origin',(13.6271775164304,75.1000000000003,17.699999776481));
#815=CARTESIAN_POINT('',(8.62717751643042,75.1000000000003,22.6999997764811));
#816=CARTESIAN_POINT('',(8.62717751643042,75.1000000000003,20.6999997764811));
#817=CARTESIAN_POINT('',(13.6271775164304,70.1000000000003,22.6999997764811));
#818=CARTESIAN_POINT('Origin',(13.6271775164304,75.1000000000003,22.6999997764811));
#819=CARTESIAN_POINT('',(13.6271775164304,70.1000000000003,20.6999997764811));
#820=CARTESIAN_POINT('Origin',(8.62717751643042,80.0000000000003,20.6999997764811));
#821=CARTESIAN_POINT('',(8.62717751643042,80.0000000000003,17.699999776481));
#822=CARTESIAN_POINT('',(8.62717751643042,73.0500000000003,17.699999776481));
#823=CARTESIAN_POINT('',(8.62717751643042,80.0000000000003,22.6999997764811));
#824=CARTESIAN_POINT('',(8.62717751643042,80.0000000000003,20.6999997764811));
#825=CARTESIAN_POINT('',(8.62717751643042,73.0500000000003,22.6999997764811));
#826=CARTESIAN_POINT('Origin',(19.2271775164304,62.1000000000003,20.6999997764811));
#827=CARTESIAN_POINT('',(20.0271775164304,62.1000000000003,17.699999776481));
#828=CARTESIAN_POINT('',(2.62717751643042,62.1000000000003,17.699999776481));
#829=CARTESIAN_POINT('',(20.0271775164304,62.1000000000003,22.6999997764811));
#830=CARTESIAN_POINT('',(20.0271775164304,62.1000000000003,20.6999997764811));
#831=CARTESIAN_POINT('',(9.02717751643042,62.1000000000003,22.6999997764811));
#832=CARTESIAN_POINT('Origin',(7.62717751643042,70.1000000000003,20.6999997764811));
#833=CARTESIAN_POINT('',(20.0271775164304,70.1000000000003,22.6999997764811));
#834=CARTESIAN_POINT('',(20.6271775164304,70.1000000000003,22.6999997764811));
#835=CARTESIAN_POINT('',(20.0271775164304,70.1000000000003,17.699999776481));
#836=CARTESIAN_POINT('',(20.0271775164304,70.1000000000003,20.6999997764811));
#837=CARTESIAN_POINT('',(18.6271775164304,70.1000000000003,17.699999776481));
#838=CARTESIAN_POINT('Origin',(-1.27282248356958,66.1000000000003,20.6999997764811));
#839=CARTESIAN_POINT('',(-1.17884941788128,66.9509753082754,17.699999776481));
#840=CARTESIAN_POINT('',(-1.17884941788128,66.9509753082754,20.6999997764811));
#841=CARTESIAN_POINT('',(-1.17884941788128,66.9509753082754,20.6999997764811));
#842=CARTESIAN_POINT('',(0.527183880684358,82.40000000001,17.6999997764811));
#843=CARTESIAN_POINT('',(-1.20535464153696,66.7109566315824,17.699999776481));
#844=CARTESIAN_POINT('',(0.527183880684358,82.40000000001,20.6999997764811));
#845=CARTESIAN_POINT('',(0.527183880684358,82.40000000001,20.6999997764811));
#846=CARTESIAN_POINT('',(0.527183880683332,82.3999999999785,20.6999997764811));
#847=CARTESIAN_POINT('Origin',(6.52717751643042,66.1000000000003,20.6999997764811));
#848=CARTESIAN_POINT('',(6.43320576376151,65.2490305642872,17.699999776481));
#849=CARTESIAN_POINT('',(6.43320576376151,65.2490305642872,20.6999997764811));
#850=CARTESIAN_POINT('',(6.43320576376151,65.2490305642872,20.6999997764811));
#851=CARTESIAN_POINT('',(4.72718388068182,49.8000000000338,17.6999997764811));
#852=CARTESIAN_POINT('',(6.54765853944801,66.2854676975275,17.699999776481));
#853=CARTESIAN_POINT('',(4.72718388068182,49.8000000000338,20.6999997764811));
#854=CARTESIAN_POINT('',(4.72718388068182,49.8000000000338,20.6999997764811));
#855=CARTESIAN_POINT('',(4.72718388068182,49.8000000000338,20.6999997764811));
#856=CARTESIAN_POINT('Origin',(2.62718388068436,82.40000000001,20.6999997764811));
#857=CARTESIAN_POINT('',(4.72718388068436,82.40000000001,20.6999997764811));
#858=CARTESIAN_POINT('Origin',(2.62718388068436,82.40000000001,20.6999997764811));
#859=CARTESIAN_POINT('',(4.72718388068436,82.40000000001,17.6999997764811));
#860=CARTESIAN_POINT('Origin',(2.62718388068436,82.40000000001,17.699999776481));
#861=CARTESIAN_POINT('',(4.72718388068436,82.40000000001,20.6999997764811));
#862=CARTESIAN_POINT('Origin',(0.527183880731837,49.8000000000222,20.6999997764811));
#863=CARTESIAN_POINT('',(-1.17884941787628,65.2490246917028,20.6999997764811));
#864=CARTESIAN_POINT('',(-1.17884941787628,65.2490246917028,17.699999776481));
#865=CARTESIAN_POINT('',(-1.17884941787628,65.2490246917028,20.6999997764811));
#866=CARTESIAN_POINT('',(0.527183880731837,49.8000000000222,20.6999997764811));
#867=CARTESIAN_POINT('',(0.527183880731837,49.8000000000222,20.6999997764811));
#868=CARTESIAN_POINT('',(0.527183880731837,49.8000000000222,17.6999997764811));
#869=CARTESIAN_POINT('',(0.527183880731837,49.8000000000222,20.6999997764811));
#870=CARTESIAN_POINT('',(-0.305351459382656,57.3390433684131,17.699999776481));
#871=CARTESIAN_POINT('Origin',(2.62718388068409,49.7999999999906,20.6999997764811));
#872=CARTESIAN_POINT('Origin',(2.62718388068409,49.7999999999906,20.6999997764811));
#873=CARTESIAN_POINT('Origin',(2.62718388068409,49.7999999999906,17.699999776481));
#874=CARTESIAN_POINT('Origin',(4.72718388068178,82.3999999999668,20.6999997764811));
#875=CARTESIAN_POINT('',(6.43320576376151,66.9509694357134,20.6999997764811));
#876=CARTESIAN_POINT('',(6.43320576376151,66.9509694357134,17.699999776481));
#877=CARTESIAN_POINT('',(6.43320576376151,66.9509694357134,20.6999997764811));
#878=CARTESIAN_POINT('',(4.72718388068178,82.3999999999668,20.6999997764811));
#879=CARTESIAN_POINT('',(5.64766172157369,74.0645323024563,17.699999776481));
#880=CARTESIAN_POINT('Origin',(2.62717751643042,66.1000000000003,20.6999997764811));
#881=CARTESIAN_POINT('Origin',(2.62717751643042,66.1000000000003,20.6999997764811));
#882=CARTESIAN_POINT('Origin',(2.62717751643042,66.1000000000003,17.699999776481));
#883=CARTESIAN_POINT('Origin',(2.62717751643042,66.1000000000003,20.6999997764811));
#884=CARTESIAN_POINT('Origin',(2.62717751643042,66.1000000000003,17.699999776481));
#885=CARTESIAN_POINT('Origin',(2.62717751643042,66.1000000000003,20.6999997764811));
#886=CARTESIAN_POINT('Origin',(9.92717751643043,66.1000000000003,20.6999997764811));
#887=CARTESIAN_POINT('',(3.97717751643042,66.1000000000003,20.6999997764811));
#888=CARTESIAN_POINT('Origin',(2.62717751643042,66.1000000000003,20.6999997764811));
#889=CARTESIAN_POINT('Origin',(20.0271775164304,62.8668384925384,17.699999776481));
#890=CARTESIAN_POINT('',(20.0271775164304,62.8668384925384,17.699999776481));
#891=CARTESIAN_POINT('',(22.8271775164304,64.4834192462693,17.699999776481));
#892=CARTESIAN_POINT('',(17.2396775164304,61.2574746171723,17.699999776481));
#893=CARTESIAN_POINT('',(20.0271775164304,62.8668384925384,20.6999997764811));
#894=CARTESIAN_POINT('',(20.0271775164304,62.8668384925384,17.699999776481));
#895=CARTESIAN_POINT('',(22.8271775164304,64.4834192462693,20.6999997764811));
#896=CARTESIAN_POINT('',(22.8271775164304,64.4834192462693,20.6999997764811));
#897=CARTESIAN_POINT('',(22.8271775164304,64.4834192462693,17.699999776481));
#898=CARTESIAN_POINT('Origin',(17.2271775164304,64.4834192462694,17.699999776481));
#899=CARTESIAN_POINT('',(17.2271775164304,64.4834192462694,17.699999776481));
#900=CARTESIAN_POINT('',(14.4396775164304,66.0927831216354,17.699999776481));
#901=CARTESIAN_POINT('',(17.2271775164304,64.4834192462694,20.6999997764811));
#902=CARTESIAN_POINT('',(17.2271775164304,64.4834192462693,18.9499997764811));
#903=CARTESIAN_POINT('',(20.0271775164304,62.8668384925384,20.6999997764811));
#904=CARTESIAN_POINT('Origin',(20.0271775164304,69.3331615074622,17.699999776481));
#905=CARTESIAN_POINT('',(20.0271775164304,69.3331615074622,17.699999776481));
#906=CARTESIAN_POINT('',(17.2271775164304,67.7165807537313,17.699999776481));
#907=CARTESIAN_POINT('',(15.8396775164304,66.9155072552307,17.699999776481));
#908=CARTESIAN_POINT('',(20.0271775164304,69.3331615074622,20.6999997764811));
#909=CARTESIAN_POINT('',(20.0271775164304,69.3331615074622,17.699999776481));
#910=CARTESIAN_POINT('',(17.2271775164304,67.7165807537313,20.6999997764811));
#911=CARTESIAN_POINT('',(17.2271775164304,67.7165807537313,20.6999997764811));
#912=CARTESIAN_POINT('',(17.2271775164304,67.7165807537313,18.9499997764811));
#913=CARTESIAN_POINT('Origin',(22.8271775164304,67.7165807537313,17.699999776481));
#914=CARTESIAN_POINT('',(22.8271775164304,67.7165807537313,17.699999776481));
#915=CARTESIAN_POINT('',(18.6396775164304,70.1342350059628,17.699999776481));
#916=CARTESIAN_POINT('',(22.8271775164304,67.7165807537313,20.6999997764811));
#917=CARTESIAN_POINT('',(22.8271775164304,67.7165807537313,17.699999776481));
#918=CARTESIAN_POINT('',(20.0271775164304,69.3331615074622,20.6999997764811));
#919=CARTESIAN_POINT('Origin',(22.8271775164304,64.4834192462693,17.699999776481));
#920=CARTESIAN_POINT('',(22.8271775164304,65.2917096231348,17.699999776481));
#921=CARTESIAN_POINT('',(22.8271775164304,67.7165807537313,20.6999997764811));
#922=CARTESIAN_POINT('Origin',(20.0271775164304,66.1000000000003,20.6999997764811));
#923=CARTESIAN_POINT('',(17.2271775164304,66.1000000000003,20.6999997764811));
#924=CARTESIAN_POINT('',(21.6271775164304,66.1000000000003,20.6999997764811));
#925=CARTESIAN_POINT('Origin',(20.0271775164304,66.1000000000003,20.6999997764811));
#926=CARTESIAN_POINT('Origin',(20.0271775164304,66.1000000000003,20.6999997764811));
#927=CARTESIAN_POINT('',(21.6271775164304,66.1000000000003,22.6999997764811));
#928=CARTESIAN_POINT('Origin',(20.0271775164304,66.1000000000003,22.6999997764811));
#929=CARTESIAN_POINT('',(21.6271775164304,66.1000000000003,20.6999997764811));
#930=CARTESIAN_POINT('Origin',(20.0271775164304,66.1000000000003,20.6999997764811));
#931=CARTESIAN_POINT('Origin',(20.0271775164304,66.1000000000003,17.699999776481));
#932=CARTESIAN_POINT('Origin',(20.0271775164304,66.1000000000003,22.6999997764811));
#933=CARTESIAN_POINT('Origin',(17.2271775164304,66.1000000000003,20.1999997764811));
#934=CARTESIAN_POINT('',(17.2271775164304,66.1000000000003,17.699999776481));
#935=CARTESIAN_POINT('Origin',(9.92717751643043,66.1000000000003,17.699999776481));
#936=CARTESIAN_POINT('',(-3.37282248356958,52.2000000000003,17.699999776481));
#937=CARTESIAN_POINT('',(-3.37282248356958,80.0000000000003,17.699999776481));
#938=CARTESIAN_POINT('',(-3.37282248356958,59.1500000000003,17.699999776481));
#939=CARTESIAN_POINT('Origin',(2.62717751643042,80.0000000000003,17.699999776481));
#940=CARTESIAN_POINT('Origin',(2.62717751643042,52.2000000000003,17.699999776481));
#941=CARTESIAN_POINT('Origin',(2.62717751643042,66.1000000000003,20.6999997764811));
#942=CARTESIAN_POINT('',(3.97717751643042,66.1000000000003,22.6999997764811));
#943=CARTESIAN_POINT('',(3.97717751643042,66.1000000000003,20.6999997764811));
#944=CARTESIAN_POINT('Origin',(2.62717751643042,66.1000000000003,22.6999997764811));
#945=CARTESIAN_POINT('Origin',(-3.37282248356958,69.4166247903557,20.6999997764811));
#946=CARTESIAN_POINT('',(-3.37282248356958,80.0000000000003,22.6999997764811));
#947=CARTESIAN_POINT('',(-3.37282248356958,80.0000000000003,20.6999997764811));
#948=CARTESIAN_POINT('',(-3.37282248356958,52.2000000000003,22.6999997764811));
#949=CARTESIAN_POINT('',(-3.37282248356958,52.2000000000003,20.6999997764811));
#950=CARTESIAN_POINT('',(-3.37282248356958,67.758312395178,22.6999997764811));
#951=CARTESIAN_POINT('Origin',(2.62717751643042,52.2000000000003,20.6999997764811));
#952=CARTESIAN_POINT('Origin',(2.62717751643042,52.2000000000003,22.6999997764811));
#953=CARTESIAN_POINT('Origin',(2.62717751643042,80.0000000000003,20.6999997764811));
#954=CARTESIAN_POINT('Origin',(2.62717751643042,80.0000000000003,22.6999997764811));
#955=CARTESIAN_POINT('Origin',(9.92717751643043,66.1000000000003,22.6999997764811));
#956=UNCERTAINTY_MEASURE_WITH_UNIT(LENGTH_MEASURE(0.01),#960,
'DISTANCE_ACCURACY_VALUE',
'Maximum model space distance between geometric entities at asserted c
onnectivities');
#957=UNCERTAINTY_MEASURE_WITH_UNIT(LENGTH_MEASURE(0.01),#960,
'DISTANCE_ACCURACY_VALUE',
'Maximum model space distance between geometric entities at asserted c
onnectivities');
#958=(
GEOMETRIC_REPRESENTATION_CONTEXT(3)
GLOBAL_UNCERTAINTY_ASSIGNED_CONTEXT((#956))
GLOBAL_UNIT_ASSIGNED_CONTEXT((#960,#962,#963))
REPRESENTATION_CONTEXT('','3D')
);
#959=(
GEOMETRIC_REPRESENTATION_CONTEXT(3)
GLOBAL_UNCERTAINTY_ASSIGNED_CONTEXT((#957))
GLOBAL_UNIT_ASSIGNED_CONTEXT((#960,#962,#963))
REPRESENTATION_CONTEXT('','3D')
);
#960=(
LENGTH_UNIT()
NAMED_UNIT(*)
SI_UNIT(.MILLI.,.METRE.)
);
#961=(
LENGTH_UNIT()
NAMED_UNIT(*)
SI_UNIT($,.METRE.)
);
#962=(
NAMED_UNIT(*)
PLANE_ANGLE_UNIT()
SI_UNIT($,.RADIAN.)
);
#963=(
NAMED_UNIT(*)
SI_UNIT($,.STERADIAN.)
SOLID_ANGLE_UNIT()
);
#964=SHAPE_DEFINITION_REPRESENTATION(#965,#966);
#965=PRODUCT_DEFINITION_SHAPE('',$,#968);
#966=SHAPE_REPRESENTATION('',(#580),#958);
#967=PRODUCT_DEFINITION_CONTEXT('part definition',#972,'design');
#968=PRODUCT_DEFINITION('Servo horn attachment large TPU',
'Servo horn attachment large TPU',#969,#967);
#969=PRODUCT_DEFINITION_FORMATION('',$,#974);
#970=PRODUCT_RELATED_PRODUCT_CATEGORY('Servo horn attachment large TPU',
'Servo horn attachment large TPU',(#974));
#971=APPLICATION_PROTOCOL_DEFINITION('international standard',
'automotive_design',2009,#972);
#972=APPLICATION_CONTEXT(
'Core Data for Automotive Mechanical Design Process');
#973=PRODUCT_CONTEXT('part definition',#972,'mechanical');
#974=PRODUCT('Servo horn attachment large TPU',
'Servo horn attachment large TPU',$,(#973));
#975=PRESENTATION_STYLE_ASSIGNMENT((#976));
#976=SURFACE_STYLE_USAGE(.BOTH.,#977);
#977=SURFACE_SIDE_STYLE('',(#978));
#978=SURFACE_STYLE_FILL_AREA(#979);
#979=FILL_AREA_STYLE('Stahl - satiniert',(#980));
#980=FILL_AREA_STYLE_COLOUR('Stahl - satiniert',#981);
#981=COLOUR_RGB('Stahl - satiniert',0.627450980392157,0.627450980392157,
0.627450980392157);
ENDSEC;
END-ISO-10303-21;
