ISO-10303-21;
HEADER;
/* Generated by software containing ST-Developer
 * from STEP Tools, Inc. (www.steptools.com) 
 */

FILE_DESCRIPTION(
/* description */ (''),
/* implementation_level */ '2;1');

FILE_NAME(
/* name */ 'Servo horn attachment small TPU.step',
/* time_stamp */ '2026-04-11T13:46:12+02:00',
/* author */ (''),
/* organization */ (''),
/* preprocessor_version */ 'ST-DEVELOPER v20.1',
/* originating_system */ 'Autodesk Translation Framework v14.24.0.0',
/* authorisation */ '');

FILE_SCHEMA (('AUTOMOTIVE_DESIGN { 1 0 10303 214 3 1 1 }'));
ENDSEC;

DATA;
#10=MECHANICAL_DESIGN_GEOMETRIC_PRESENTATION_REPRESENTATION('',(#13),#1159);
#11=SHAPE_REPRESENTATION_RELATIONSHIP('SRR','None',#1166,#12);
#12=ADVANCED_BREP_SHAPE_REPRESENTATION('',(#14),#1158);
#13=STYLED_ITEM('',(#1175),#14);
#14=MANIFOLD_SOLID_BREP('Servo horn attachment small',#691);
#15=CYLINDRICAL_SURFACE('',#712,1.6);
#16=CYLINDRICAL_SURFACE('',#714,4.);
#17=CYLINDRICAL_SURFACE('',#730,5.);
#18=CYLINDRICAL_SURFACE('',#733,5.);
#19=CYLINDRICAL_SURFACE('',#741,1.35);
#20=CYLINDRICAL_SURFACE('',#744,2.);
#21=CYLINDRICAL_SURFACE('',#747,3.5);
#22=CYLINDRICAL_SURFACE('',#750,2.);
#23=CYLINDRICAL_SURFACE('',#753,3.5);
#24=CYLINDRICAL_SURFACE('',#756,6.);
#25=CYLINDRICAL_SURFACE('',#759,5.);
#26=CYLINDRICAL_SURFACE('',#762,5.);
#27=FACE_BOUND('',#99,.T.);
#28=FACE_BOUND('',#105,.T.);
#29=FACE_BOUND('',#106,.T.);
#30=FACE_BOUND('',#112,.T.);
#31=FACE_BOUND('',#133,.T.);
#32=FACE_BOUND('',#134,.T.);
#33=CIRCLE('',#711,1.6);
#34=CIRCLE('',#713,1.6);
#35=CIRCLE('',#715,4.);
#36=CIRCLE('',#716,4.);
#37=CIRCLE('',#720,5.);
#38=CIRCLE('',#721,5.);
#39=CIRCLE('',#722,6.);
#40=CIRCLE('',#723,5.);
#41=CIRCLE('',#724,5.);
#42=CIRCLE('',#725,3.5);
#43=CIRCLE('',#726,2.);
#44=CIRCLE('',#727,3.5);
#45=CIRCLE('',#728,2.);
#46=CIRCLE('',#731,5.);
#47=CIRCLE('',#734,5.);
#48=CIRCLE('',#736,2.);
#49=CIRCLE('',#737,3.5);
#50=CIRCLE('',#738,2.);
#51=CIRCLE('',#739,3.5);
#52=CIRCLE('',#740,1.35);
#53=CIRCLE('',#742,1.35);
#54=CIRCLE('',#757,6.);
#55=CIRCLE('',#760,5.);
#56=CIRCLE('',#763,5.);
#57=FACE_OUTER_BOUND('',#93,.T.);
#58=FACE_OUTER_BOUND('',#94,.T.);
#59=FACE_OUTER_BOUND('',#95,.T.);
#60=FACE_OUTER_BOUND('',#96,.T.);
#61=FACE_OUTER_BOUND('',#97,.T.);
#62=FACE_OUTER_BOUND('',#98,.T.);
#63=FACE_OUTER_BOUND('',#100,.T.);
#64=FACE_OUTER_BOUND('',#101,.T.);
#65=FACE_OUTER_BOUND('',#102,.T.);
#66=FACE_OUTER_BOUND('',#103,.T.);
#67=FACE_OUTER_BOUND('',#104,.T.);
#68=FACE_OUTER_BOUND('',#107,.T.);
#69=FACE_OUTER_BOUND('',#108,.T.);
#70=FACE_OUTER_BOUND('',#109,.T.);
#71=FACE_OUTER_BOUND('',#110,.T.);
#72=FACE_OUTER_BOUND('',#111,.T.);
#73=FACE_OUTER_BOUND('',#113,.T.);
#74=FACE_OUTER_BOUND('',#114,.T.);
#75=FACE_OUTER_BOUND('',#115,.T.);
#76=FACE_OUTER_BOUND('',#116,.T.);
#77=FACE_OUTER_BOUND('',#117,.T.);
#78=FACE_OUTER_BOUND('',#118,.T.);
#79=FACE_OUTER_BOUND('',#119,.T.);
#80=FACE_OUTER_BOUND('',#120,.T.);
#81=FACE_OUTER_BOUND('',#121,.T.);
#82=FACE_OUTER_BOUND('',#122,.T.);
#83=FACE_OUTER_BOUND('',#123,.T.);
#84=FACE_OUTER_BOUND('',#124,.T.);
#85=FACE_OUTER_BOUND('',#125,.T.);
#86=FACE_OUTER_BOUND('',#126,.T.);
#87=FACE_OUTER_BOUND('',#127,.T.);
#88=FACE_OUTER_BOUND('',#128,.T.);
#89=FACE_OUTER_BOUND('',#129,.T.);
#90=FACE_OUTER_BOUND('',#130,.T.);
#91=FACE_OUTER_BOUND('',#131,.T.);
#92=FACE_OUTER_BOUND('',#132,.T.);
#93=EDGE_LOOP('',(#439,#440,#441,#442));
#94=EDGE_LOOP('',(#443,#444,#445,#446));
#95=EDGE_LOOP('',(#447,#448,#449,#450));
#96=EDGE_LOOP('',(#451,#452,#453,#454));
#97=EDGE_LOOP('',(#455,#456,#457,#458));
#98=EDGE_LOOP('',(#459,#460,#461,#462,#463,#464));
#99=EDGE_LOOP('',(#465));
#100=EDGE_LOOP('',(#466,#467,#468,#469));
#101=EDGE_LOOP('',(#470,#471,#472,#473));
#102=EDGE_LOOP('',(#474,#475,#476,#477));
#103=EDGE_LOOP('',(#478,#479,#480,#481));
#104=EDGE_LOOP('',(#482,#483,#484,#485,#486,#487,#488,#489,#490,#491,#492,
#493));
#105=EDGE_LOOP('',(#494,#495,#496,#497,#498,#499));
#106=EDGE_LOOP('',(#500,#501,#502,#503,#504,#505,#506,#507,#508,#509,#510,
#511));
#107=EDGE_LOOP('',(#512,#513,#514,#515));
#108=EDGE_LOOP('',(#516,#517,#518,#519));
#109=EDGE_LOOP('',(#520,#521,#522,#523));
#110=EDGE_LOOP('',(#524,#525,#526,#527));
#111=EDGE_LOOP('',(#528,#529,#530,#531,#532,#533,#534,#535,#536,#537,#538,
#539));
#112=EDGE_LOOP('',(#540));
#113=EDGE_LOOP('',(#541,#542,#543,#544));
#114=EDGE_LOOP('',(#545,#546,#547,#548));
#115=EDGE_LOOP('',(#549,#550,#551,#552));
#116=EDGE_LOOP('',(#553,#554,#555,#556));
#117=EDGE_LOOP('',(#557,#558,#559,#560));
#118=EDGE_LOOP('',(#561,#562,#563,#564));
#119=EDGE_LOOP('',(#565,#566,#567,#568));
#120=EDGE_LOOP('',(#569,#570,#571,#572));
#121=EDGE_LOOP('',(#573,#574,#575,#576));
#122=EDGE_LOOP('',(#577,#578,#579,#580));
#123=EDGE_LOOP('',(#581,#582,#583,#584));
#124=EDGE_LOOP('',(#585,#586,#587,#588));
#125=EDGE_LOOP('',(#589,#590,#591,#592));
#126=EDGE_LOOP('',(#593,#594,#595,#596));
#127=EDGE_LOOP('',(#597,#598,#599,#600));
#128=EDGE_LOOP('',(#601,#602,#603,#604));
#129=EDGE_LOOP('',(#605,#606,#607,#608));
#130=EDGE_LOOP('',(#609,#610,#611,#612));
#131=EDGE_LOOP('',(#613,#614,#615,#616));
#132=EDGE_LOOP('',(#617,#618,#619,#620,#621,#622,#623,#624,#625,#626,#627,
#628));
#133=EDGE_LOOP('',(#629));
#134=EDGE_LOOP('',(#630));
#135=LINE('',#963,#207);
#136=LINE('',#965,#208);
#137=LINE('',#967,#209);
#138=LINE('',#968,#210);
#139=LINE('',#971,#211);
#140=LINE('',#973,#212);
#141=LINE('',#974,#213);
#142=LINE('',#978,#214);
#143=LINE('',#980,#215);
#144=LINE('',#982,#216);
#145=LINE('',#983,#217);
#146=LINE('',#986,#218);
#147=LINE('',#988,#219);
#148=LINE('',#989,#220);
#149=LINE('',#991,#221);
#150=LINE('',#992,#222);
#151=LINE('',#994,#223);
#152=LINE('',#1000,#224);
#153=LINE('',#1004,#225);
#154=LINE('',#1008,#226);
#155=LINE('',#1011,#227);
#156=LINE('',#1014,#228);
#157=LINE('',#1016,#229);
#158=LINE('',#1017,#230);
#159=LINE('',#1020,#231);
#160=LINE('',#1024,#232);
#161=LINE('',#1028,#233);
#162=LINE('',#1032,#234);
#163=LINE('',#1036,#235);
#164=LINE('',#1040,#236);
#165=LINE('',#1044,#237);
#166=LINE('',#1046,#238);
#167=LINE('',#1050,#239);
#168=LINE('',#1052,#240);
#169=LINE('',#1056,#241);
#170=LINE('',#1058,#242);
#171=LINE('',#1061,#243);
#172=LINE('',#1064,#244);
#173=LINE('',#1065,#245);
#174=LINE('',#1068,#246);
#175=LINE('',#1072,#247);
#176=LINE('',#1073,#248);
#177=LINE('',#1077,#249);
#178=LINE('',#1081,#250);
#179=LINE('',#1085,#251);
#180=LINE('',#1087,#252);
#181=LINE('',#1091,#253);
#182=LINE('',#1093,#254);
#183=LINE('',#1097,#255);
#184=LINE('',#1099,#256);
#185=LINE('',#1102,#257);
#186=LINE('',#1107,#258);
#187=LINE('',#1110,#259);
#188=LINE('',#1111,#260);
#189=LINE('',#1113,#261);
#190=LINE('',#1115,#262);
#191=LINE('',#1117,#263);
#192=LINE('',#1119,#264);
#193=LINE('',#1121,#265);
#194=LINE('',#1123,#266);
#195=LINE('',#1125,#267);
#196=LINE('',#1127,#268);
#197=LINE('',#1129,#269);
#198=LINE('',#1131,#270);
#199=LINE('',#1135,#271);
#200=LINE('',#1137,#272);
#201=LINE('',#1138,#273);
#202=LINE('',#1141,#274);
#203=LINE('',#1145,#275);
#204=LINE('',#1146,#276);
#205=LINE('',#1149,#277);
#206=LINE('',#1152,#278);
#207=VECTOR('',#769,10.);
#208=VECTOR('',#770,10.);
#209=VECTOR('',#771,10.);
#210=VECTOR('',#772,10.);
#211=VECTOR('',#775,10.);
#212=VECTOR('',#776,10.);
#213=VECTOR('',#777,10.);
#214=VECTOR('',#780,10.);
#215=VECTOR('',#781,10.);
#216=VECTOR('',#782,10.);
#217=VECTOR('',#783,10.);
#218=VECTOR('',#786,10.);
#219=VECTOR('',#787,10.);
#220=VECTOR('',#788,10.);
#221=VECTOR('',#791,10.);
#222=VECTOR('',#792,10.);
#223=VECTOR('',#795,10.);
#224=VECTOR('',#802,1.6);
#225=VECTOR('',#805,10.);
#226=VECTOR('',#808,10.);
#227=VECTOR('',#813,10.);
#228=VECTOR('',#816,10.);
#229=VECTOR('',#817,10.);
#230=VECTOR('',#818,10.);
#231=VECTOR('',#821,10.);
#232=VECTOR('',#824,10.);
#233=VECTOR('',#827,10.);
#234=VECTOR('',#830,10.);
#235=VECTOR('',#833,10.);
#236=VECTOR('',#836,10.);
#237=VECTOR('',#839,10.);
#238=VECTOR('',#840,9.99999999999999);
#239=VECTOR('',#843,9.99999999999999);
#240=VECTOR('',#844,10.);
#241=VECTOR('',#847,10.);
#242=VECTOR('',#848,9.99999999999999);
#243=VECTOR('',#851,9.99999999999999);
#244=VECTOR('',#854,10.);
#245=VECTOR('',#855,10.);
#246=VECTOR('',#858,10.);
#247=VECTOR('',#863,10.);
#248=VECTOR('',#864,10.);
#249=VECTOR('',#869,10.);
#250=VECTOR('',#872,9.99999999999999);
#251=VECTOR('',#875,9.99999999999999);
#252=VECTOR('',#876,10.);
#253=VECTOR('',#879,10.);
#254=VECTOR('',#880,9.99999999999999);
#255=VECTOR('',#883,9.99999999999999);
#256=VECTOR('',#884,10.);
#257=VECTOR('',#887,10.);
#258=VECTOR('',#892,1.35);
#259=VECTOR('',#897,10.);
#260=VECTOR('',#898,10.);
#261=VECTOR('',#901,10.);
#262=VECTOR('',#904,10.);
#263=VECTOR('',#907,10.);
#264=VECTOR('',#910,10.);
#265=VECTOR('',#913,10.);
#266=VECTOR('',#916,10.);
#267=VECTOR('',#919,10.);
#268=VECTOR('',#922,10.);
#269=VECTOR('',#925,10.);
#270=VECTOR('',#928,10.);
#271=VECTOR('',#933,10.);
#272=VECTOR('',#934,10.);
#273=VECTOR('',#935,10.);
#274=VECTOR('',#938,10.);
#275=VECTOR('',#943,10.);
#276=VECTOR('',#944,10.);
#277=VECTOR('',#947,10.);
#278=VECTOR('',#952,10.);
#279=VERTEX_POINT('',#961);
#280=VERTEX_POINT('',#962);
#281=VERTEX_POINT('',#964);
#282=VERTEX_POINT('',#966);
#283=VERTEX_POINT('',#970);
#284=VERTEX_POINT('',#972);
#285=VERTEX_POINT('',#976);
#286=VERTEX_POINT('',#977);
#287=VERTEX_POINT('',#979);
#288=VERTEX_POINT('',#981);
#289=VERTEX_POINT('',#985);
#290=VERTEX_POINT('',#987);
#291=VERTEX_POINT('',#995);
#292=VERTEX_POINT('',#998);
#293=VERTEX_POINT('',#1002);
#294=VERTEX_POINT('',#1003);
#295=VERTEX_POINT('',#1005);
#296=VERTEX_POINT('',#1007);
#297=VERTEX_POINT('',#1013);
#298=VERTEX_POINT('',#1015);
#299=VERTEX_POINT('',#1019);
#300=VERTEX_POINT('',#1021);
#301=VERTEX_POINT('',#1023);
#302=VERTEX_POINT('',#1025);
#303=VERTEX_POINT('',#1027);
#304=VERTEX_POINT('',#1029);
#305=VERTEX_POINT('',#1031);
#306=VERTEX_POINT('',#1033);
#307=VERTEX_POINT('',#1035);
#308=VERTEX_POINT('',#1038);
#309=VERTEX_POINT('',#1039);
#310=VERTEX_POINT('',#1041);
#311=VERTEX_POINT('',#1043);
#312=VERTEX_POINT('',#1045);
#313=VERTEX_POINT('',#1047);
#314=VERTEX_POINT('',#1049);
#315=VERTEX_POINT('',#1051);
#316=VERTEX_POINT('',#1053);
#317=VERTEX_POINT('',#1055);
#318=VERTEX_POINT('',#1057);
#319=VERTEX_POINT('',#1059);
#320=VERTEX_POINT('',#1063);
#321=VERTEX_POINT('',#1067);
#322=VERTEX_POINT('',#1071);
#323=VERTEX_POINT('',#1075);
#324=VERTEX_POINT('',#1079);
#325=VERTEX_POINT('',#1080);
#326=VERTEX_POINT('',#1082);
#327=VERTEX_POINT('',#1084);
#328=VERTEX_POINT('',#1086);
#329=VERTEX_POINT('',#1088);
#330=VERTEX_POINT('',#1090);
#331=VERTEX_POINT('',#1092);
#332=VERTEX_POINT('',#1094);
#333=VERTEX_POINT('',#1096);
#334=VERTEX_POINT('',#1098);
#335=VERTEX_POINT('',#1100);
#336=VERTEX_POINT('',#1103);
#337=VERTEX_POINT('',#1106);
#338=VERTEX_POINT('',#1134);
#339=VERTEX_POINT('',#1136);
#340=VERTEX_POINT('',#1140);
#341=VERTEX_POINT('',#1144);
#342=VERTEX_POINT('',#1148);
#343=EDGE_CURVE('',#279,#280,#135,.T.);
#344=EDGE_CURVE('',#279,#281,#136,.T.);
#345=EDGE_CURVE('',#281,#282,#137,.T.);
#346=EDGE_CURVE('',#280,#282,#138,.T.);
#347=EDGE_CURVE('',#283,#279,#139,.T.);
#348=EDGE_CURVE('',#284,#283,#140,.T.);
#349=EDGE_CURVE('',#284,#281,#141,.T.);
#350=EDGE_CURVE('',#285,#286,#142,.T.);
#351=EDGE_CURVE('',#285,#287,#143,.T.);
#352=EDGE_CURVE('',#287,#288,#144,.T.);
#353=EDGE_CURVE('',#286,#288,#145,.T.);
#354=EDGE_CURVE('',#289,#285,#146,.T.);
#355=EDGE_CURVE('',#289,#290,#147,.T.);
#356=EDGE_CURVE('',#290,#287,#148,.T.);
#357=EDGE_CURVE('',#280,#289,#149,.T.);
#358=EDGE_CURVE('',#282,#290,#150,.T.);
#359=EDGE_CURVE('',#288,#284,#151,.T.);
#360=EDGE_CURVE('',#291,#291,#33,.T.);
#361=EDGE_CURVE('',#292,#292,#34,.T.);
#362=EDGE_CURVE('',#292,#291,#152,.T.);
#363=EDGE_CURVE('',#293,#294,#153,.T.);
#364=EDGE_CURVE('',#295,#293,#35,.T.);
#365=EDGE_CURVE('',#295,#296,#154,.T.);
#366=EDGE_CURVE('',#294,#296,#36,.T.);
#367=EDGE_CURVE('',#286,#283,#155,.T.);
#368=EDGE_CURVE('',#297,#295,#156,.T.);
#369=EDGE_CURVE('',#298,#297,#157,.T.);
#370=EDGE_CURVE('',#296,#298,#158,.T.);
#371=EDGE_CURVE('',#293,#299,#159,.T.);
#372=EDGE_CURVE('',#300,#299,#37,.T.);
#373=EDGE_CURVE('',#300,#301,#160,.T.);
#374=EDGE_CURVE('',#301,#302,#38,.T.);
#375=EDGE_CURVE('',#302,#303,#161,.T.);
#376=EDGE_CURVE('',#303,#304,#39,.T.);
#377=EDGE_CURVE('',#304,#305,#162,.T.);
#378=EDGE_CURVE('',#305,#306,#40,.T.);
#379=EDGE_CURVE('',#306,#307,#163,.T.);
#380=EDGE_CURVE('',#297,#307,#41,.T.);
#381=EDGE_CURVE('',#308,#309,#164,.T.);
#382=EDGE_CURVE('',#309,#310,#42,.T.);
#383=EDGE_CURVE('',#310,#311,#165,.T.);
#384=EDGE_CURVE('',#311,#312,#166,.T.);
#385=EDGE_CURVE('',#312,#313,#43,.T.);
#386=EDGE_CURVE('',#313,#314,#167,.T.);
#387=EDGE_CURVE('',#314,#315,#168,.T.);
#388=EDGE_CURVE('',#315,#316,#44,.T.);
#389=EDGE_CURVE('',#316,#317,#169,.T.);
#390=EDGE_CURVE('',#317,#318,#170,.T.);
#391=EDGE_CURVE('',#318,#319,#45,.T.);
#392=EDGE_CURVE('',#319,#308,#171,.T.);
#393=EDGE_CURVE('',#320,#294,#172,.T.);
#394=EDGE_CURVE('',#299,#320,#173,.T.);
#395=EDGE_CURVE('',#307,#321,#174,.T.);
#396=EDGE_CURVE('',#321,#298,#46,.T.);
#397=EDGE_CURVE('',#322,#306,#175,.T.);
#398=EDGE_CURVE('',#321,#322,#176,.T.);
#399=EDGE_CURVE('',#320,#323,#47,.T.);
#400=EDGE_CURVE('',#323,#300,#177,.T.);
#401=EDGE_CURVE('',#324,#325,#178,.T.);
#402=EDGE_CURVE('',#325,#326,#48,.T.);
#403=EDGE_CURVE('',#326,#327,#179,.T.);
#404=EDGE_CURVE('',#327,#328,#180,.T.);
#405=EDGE_CURVE('',#328,#329,#49,.T.);
#406=EDGE_CURVE('',#329,#330,#181,.T.);
#407=EDGE_CURVE('',#330,#331,#182,.T.);
#408=EDGE_CURVE('',#331,#332,#50,.T.);
#409=EDGE_CURVE('',#332,#333,#183,.T.);
#410=EDGE_CURVE('',#333,#334,#184,.T.);
#411=EDGE_CURVE('',#334,#335,#51,.T.);
#412=EDGE_CURVE('',#335,#324,#185,.T.);
#413=EDGE_CURVE('',#336,#336,#52,.T.);
#414=EDGE_CURVE('',#336,#337,#186,.T.);
#415=EDGE_CURVE('',#337,#337,#53,.T.);
#416=EDGE_CURVE('',#324,#308,#187,.T.);
#417=EDGE_CURVE('',#325,#319,#188,.T.);
#418=EDGE_CURVE('',#326,#318,#189,.T.);
#419=EDGE_CURVE('',#327,#317,#190,.T.);
#420=EDGE_CURVE('',#328,#316,#191,.T.);
#421=EDGE_CURVE('',#329,#315,#192,.T.);
#422=EDGE_CURVE('',#330,#314,#193,.T.);
#423=EDGE_CURVE('',#331,#313,#194,.T.);
#424=EDGE_CURVE('',#332,#312,#195,.T.);
#425=EDGE_CURVE('',#333,#311,#196,.T.);
#426=EDGE_CURVE('',#334,#310,#197,.T.);
#427=EDGE_CURVE('',#335,#309,#198,.T.);
#428=EDGE_CURVE('',#305,#338,#199,.T.);
#429=EDGE_CURVE('',#304,#339,#200,.T.);
#430=EDGE_CURVE('',#338,#339,#201,.T.);
#431=EDGE_CURVE('',#303,#340,#202,.T.);
#432=EDGE_CURVE('',#339,#340,#54,.T.);
#433=EDGE_CURVE('',#302,#341,#203,.T.);
#434=EDGE_CURVE('',#340,#341,#204,.T.);
#435=EDGE_CURVE('',#301,#342,#205,.T.);
#436=EDGE_CURVE('',#341,#342,#55,.T.);
#437=EDGE_CURVE('',#342,#323,#206,.T.);
#438=EDGE_CURVE('',#322,#338,#56,.T.);
#439=ORIENTED_EDGE('',*,*,#343,.F.);
#440=ORIENTED_EDGE('',*,*,#344,.T.);
#441=ORIENTED_EDGE('',*,*,#345,.T.);
#442=ORIENTED_EDGE('',*,*,#346,.F.);
#443=ORIENTED_EDGE('',*,*,#347,.F.);
#444=ORIENTED_EDGE('',*,*,#348,.F.);
#445=ORIENTED_EDGE('',*,*,#349,.T.);
#446=ORIENTED_EDGE('',*,*,#344,.F.);
#447=ORIENTED_EDGE('',*,*,#350,.F.);
#448=ORIENTED_EDGE('',*,*,#351,.T.);
#449=ORIENTED_EDGE('',*,*,#352,.T.);
#450=ORIENTED_EDGE('',*,*,#353,.F.);
#451=ORIENTED_EDGE('',*,*,#354,.F.);
#452=ORIENTED_EDGE('',*,*,#355,.T.);
#453=ORIENTED_EDGE('',*,*,#356,.T.);
#454=ORIENTED_EDGE('',*,*,#351,.F.);
#455=ORIENTED_EDGE('',*,*,#357,.F.);
#456=ORIENTED_EDGE('',*,*,#346,.T.);
#457=ORIENTED_EDGE('',*,*,#358,.T.);
#458=ORIENTED_EDGE('',*,*,#355,.F.);
#459=ORIENTED_EDGE('',*,*,#358,.F.);
#460=ORIENTED_EDGE('',*,*,#345,.F.);
#461=ORIENTED_EDGE('',*,*,#349,.F.);
#462=ORIENTED_EDGE('',*,*,#359,.F.);
#463=ORIENTED_EDGE('',*,*,#352,.F.);
#464=ORIENTED_EDGE('',*,*,#356,.F.);
#465=ORIENTED_EDGE('',*,*,#360,.F.);
#466=ORIENTED_EDGE('',*,*,#361,.F.);
#467=ORIENTED_EDGE('',*,*,#362,.T.);
#468=ORIENTED_EDGE('',*,*,#360,.T.);
#469=ORIENTED_EDGE('',*,*,#362,.F.);
#470=ORIENTED_EDGE('',*,*,#363,.F.);
#471=ORIENTED_EDGE('',*,*,#364,.F.);
#472=ORIENTED_EDGE('',*,*,#365,.T.);
#473=ORIENTED_EDGE('',*,*,#366,.F.);
#474=ORIENTED_EDGE('',*,*,#353,.T.);
#475=ORIENTED_EDGE('',*,*,#359,.T.);
#476=ORIENTED_EDGE('',*,*,#348,.T.);
#477=ORIENTED_EDGE('',*,*,#367,.F.);
#478=ORIENTED_EDGE('',*,*,#368,.F.);
#479=ORIENTED_EDGE('',*,*,#369,.F.);
#480=ORIENTED_EDGE('',*,*,#370,.F.);
#481=ORIENTED_EDGE('',*,*,#365,.F.);
#482=ORIENTED_EDGE('',*,*,#368,.T.);
#483=ORIENTED_EDGE('',*,*,#364,.T.);
#484=ORIENTED_EDGE('',*,*,#371,.T.);
#485=ORIENTED_EDGE('',*,*,#372,.F.);
#486=ORIENTED_EDGE('',*,*,#373,.T.);
#487=ORIENTED_EDGE('',*,*,#374,.T.);
#488=ORIENTED_EDGE('',*,*,#375,.T.);
#489=ORIENTED_EDGE('',*,*,#376,.T.);
#490=ORIENTED_EDGE('',*,*,#377,.T.);
#491=ORIENTED_EDGE('',*,*,#378,.T.);
#492=ORIENTED_EDGE('',*,*,#379,.T.);
#493=ORIENTED_EDGE('',*,*,#380,.F.);
#494=ORIENTED_EDGE('',*,*,#367,.T.);
#495=ORIENTED_EDGE('',*,*,#347,.T.);
#496=ORIENTED_EDGE('',*,*,#343,.T.);
#497=ORIENTED_EDGE('',*,*,#357,.T.);
#498=ORIENTED_EDGE('',*,*,#354,.T.);
#499=ORIENTED_EDGE('',*,*,#350,.T.);
#500=ORIENTED_EDGE('',*,*,#381,.T.);
#501=ORIENTED_EDGE('',*,*,#382,.T.);
#502=ORIENTED_EDGE('',*,*,#383,.T.);
#503=ORIENTED_EDGE('',*,*,#384,.T.);
#504=ORIENTED_EDGE('',*,*,#385,.T.);
#505=ORIENTED_EDGE('',*,*,#386,.T.);
#506=ORIENTED_EDGE('',*,*,#387,.T.);
#507=ORIENTED_EDGE('',*,*,#388,.T.);
#508=ORIENTED_EDGE('',*,*,#389,.T.);
#509=ORIENTED_EDGE('',*,*,#390,.T.);
#510=ORIENTED_EDGE('',*,*,#391,.T.);
#511=ORIENTED_EDGE('',*,*,#392,.T.);
#512=ORIENTED_EDGE('',*,*,#393,.F.);
#513=ORIENTED_EDGE('',*,*,#394,.F.);
#514=ORIENTED_EDGE('',*,*,#371,.F.);
#515=ORIENTED_EDGE('',*,*,#363,.T.);
#516=ORIENTED_EDGE('',*,*,#380,.T.);
#517=ORIENTED_EDGE('',*,*,#395,.T.);
#518=ORIENTED_EDGE('',*,*,#396,.T.);
#519=ORIENTED_EDGE('',*,*,#369,.T.);
#520=ORIENTED_EDGE('',*,*,#395,.F.);
#521=ORIENTED_EDGE('',*,*,#379,.F.);
#522=ORIENTED_EDGE('',*,*,#397,.F.);
#523=ORIENTED_EDGE('',*,*,#398,.F.);
#524=ORIENTED_EDGE('',*,*,#372,.T.);
#525=ORIENTED_EDGE('',*,*,#394,.T.);
#526=ORIENTED_EDGE('',*,*,#399,.T.);
#527=ORIENTED_EDGE('',*,*,#400,.T.);
#528=ORIENTED_EDGE('',*,*,#401,.T.);
#529=ORIENTED_EDGE('',*,*,#402,.T.);
#530=ORIENTED_EDGE('',*,*,#403,.T.);
#531=ORIENTED_EDGE('',*,*,#404,.T.);
#532=ORIENTED_EDGE('',*,*,#405,.T.);
#533=ORIENTED_EDGE('',*,*,#406,.T.);
#534=ORIENTED_EDGE('',*,*,#407,.T.);
#535=ORIENTED_EDGE('',*,*,#408,.T.);
#536=ORIENTED_EDGE('',*,*,#409,.T.);
#537=ORIENTED_EDGE('',*,*,#410,.T.);
#538=ORIENTED_EDGE('',*,*,#411,.T.);
#539=ORIENTED_EDGE('',*,*,#412,.T.);
#540=ORIENTED_EDGE('',*,*,#413,.F.);
#541=ORIENTED_EDGE('',*,*,#413,.T.);
#542=ORIENTED_EDGE('',*,*,#414,.T.);
#543=ORIENTED_EDGE('',*,*,#415,.F.);
#544=ORIENTED_EDGE('',*,*,#414,.F.);
#545=ORIENTED_EDGE('',*,*,#401,.F.);
#546=ORIENTED_EDGE('',*,*,#416,.T.);
#547=ORIENTED_EDGE('',*,*,#392,.F.);
#548=ORIENTED_EDGE('',*,*,#417,.F.);
#549=ORIENTED_EDGE('',*,*,#402,.F.);
#550=ORIENTED_EDGE('',*,*,#417,.T.);
#551=ORIENTED_EDGE('',*,*,#391,.F.);
#552=ORIENTED_EDGE('',*,*,#418,.F.);
#553=ORIENTED_EDGE('',*,*,#403,.F.);
#554=ORIENTED_EDGE('',*,*,#418,.T.);
#555=ORIENTED_EDGE('',*,*,#390,.F.);
#556=ORIENTED_EDGE('',*,*,#419,.F.);
#557=ORIENTED_EDGE('',*,*,#404,.F.);
#558=ORIENTED_EDGE('',*,*,#419,.T.);
#559=ORIENTED_EDGE('',*,*,#389,.F.);
#560=ORIENTED_EDGE('',*,*,#420,.F.);
#561=ORIENTED_EDGE('',*,*,#405,.F.);
#562=ORIENTED_EDGE('',*,*,#420,.T.);
#563=ORIENTED_EDGE('',*,*,#388,.F.);
#564=ORIENTED_EDGE('',*,*,#421,.F.);
#565=ORIENTED_EDGE('',*,*,#406,.F.);
#566=ORIENTED_EDGE('',*,*,#421,.T.);
#567=ORIENTED_EDGE('',*,*,#387,.F.);
#568=ORIENTED_EDGE('',*,*,#422,.F.);
#569=ORIENTED_EDGE('',*,*,#407,.F.);
#570=ORIENTED_EDGE('',*,*,#422,.T.);
#571=ORIENTED_EDGE('',*,*,#386,.F.);
#572=ORIENTED_EDGE('',*,*,#423,.F.);
#573=ORIENTED_EDGE('',*,*,#408,.F.);
#574=ORIENTED_EDGE('',*,*,#423,.T.);
#575=ORIENTED_EDGE('',*,*,#385,.F.);
#576=ORIENTED_EDGE('',*,*,#424,.F.);
#577=ORIENTED_EDGE('',*,*,#409,.F.);
#578=ORIENTED_EDGE('',*,*,#424,.T.);
#579=ORIENTED_EDGE('',*,*,#384,.F.);
#580=ORIENTED_EDGE('',*,*,#425,.F.);
#581=ORIENTED_EDGE('',*,*,#410,.F.);
#582=ORIENTED_EDGE('',*,*,#425,.T.);
#583=ORIENTED_EDGE('',*,*,#383,.F.);
#584=ORIENTED_EDGE('',*,*,#426,.F.);
#585=ORIENTED_EDGE('',*,*,#411,.F.);
#586=ORIENTED_EDGE('',*,*,#426,.T.);
#587=ORIENTED_EDGE('',*,*,#382,.F.);
#588=ORIENTED_EDGE('',*,*,#427,.F.);
#589=ORIENTED_EDGE('',*,*,#412,.F.);
#590=ORIENTED_EDGE('',*,*,#427,.T.);
#591=ORIENTED_EDGE('',*,*,#381,.F.);
#592=ORIENTED_EDGE('',*,*,#416,.F.);
#593=ORIENTED_EDGE('',*,*,#428,.F.);
#594=ORIENTED_EDGE('',*,*,#377,.F.);
#595=ORIENTED_EDGE('',*,*,#429,.T.);
#596=ORIENTED_EDGE('',*,*,#430,.F.);
#597=ORIENTED_EDGE('',*,*,#429,.F.);
#598=ORIENTED_EDGE('',*,*,#376,.F.);
#599=ORIENTED_EDGE('',*,*,#431,.T.);
#600=ORIENTED_EDGE('',*,*,#432,.F.);
#601=ORIENTED_EDGE('',*,*,#431,.F.);
#602=ORIENTED_EDGE('',*,*,#375,.F.);
#603=ORIENTED_EDGE('',*,*,#433,.T.);
#604=ORIENTED_EDGE('',*,*,#434,.F.);
#605=ORIENTED_EDGE('',*,*,#433,.F.);
#606=ORIENTED_EDGE('',*,*,#374,.F.);
#607=ORIENTED_EDGE('',*,*,#435,.T.);
#608=ORIENTED_EDGE('',*,*,#436,.F.);
#609=ORIENTED_EDGE('',*,*,#400,.F.);
#610=ORIENTED_EDGE('',*,*,#437,.F.);
#611=ORIENTED_EDGE('',*,*,#435,.F.);
#612=ORIENTED_EDGE('',*,*,#373,.F.);
#613=ORIENTED_EDGE('',*,*,#397,.T.);
#614=ORIENTED_EDGE('',*,*,#378,.F.);
#615=ORIENTED_EDGE('',*,*,#428,.T.);
#616=ORIENTED_EDGE('',*,*,#438,.F.);
#617=ORIENTED_EDGE('',*,*,#370,.T.);
#618=ORIENTED_EDGE('',*,*,#396,.F.);
#619=ORIENTED_EDGE('',*,*,#398,.T.);
#620=ORIENTED_EDGE('',*,*,#438,.T.);
#621=ORIENTED_EDGE('',*,*,#430,.T.);
#622=ORIENTED_EDGE('',*,*,#432,.T.);
#623=ORIENTED_EDGE('',*,*,#434,.T.);
#624=ORIENTED_EDGE('',*,*,#436,.T.);
#625=ORIENTED_EDGE('',*,*,#437,.T.);
#626=ORIENTED_EDGE('',*,*,#399,.F.);
#627=ORIENTED_EDGE('',*,*,#393,.T.);
#628=ORIENTED_EDGE('',*,*,#366,.T.);
#629=ORIENTED_EDGE('',*,*,#361,.T.);
#630=ORIENTED_EDGE('',*,*,#415,.T.);
#631=PLANE('',#705);
#632=PLANE('',#706);
#633=PLANE('',#707);
#634=PLANE('',#708);
#635=PLANE('',#709);
#636=PLANE('',#710);
#637=PLANE('',#717);
#638=PLANE('',#718);
#639=PLANE('',#719);
#640=PLANE('',#729);
#641=PLANE('',#732);
#642=PLANE('',#735);
#643=PLANE('',#743);
#644=PLANE('',#745);
#645=PLANE('',#746);
#646=PLANE('',#748);
#647=PLANE('',#749);
#648=PLANE('',#751);
#649=PLANE('',#752);
#650=PLANE('',#754);
#651=PLANE('',#755);
#652=PLANE('',#758);
#653=PLANE('',#761);
#654=PLANE('',#764);
#655=ADVANCED_FACE('',(#57),#631,.F.);
#656=ADVANCED_FACE('',(#58),#632,.F.);
#657=ADVANCED_FACE('',(#59),#633,.F.);
#658=ADVANCED_FACE('',(#60),#634,.F.);
#659=ADVANCED_FACE('',(#61),#635,.F.);
#660=ADVANCED_FACE('',(#62,#27),#636,.T.);
#661=ADVANCED_FACE('',(#63),#15,.F.);
#662=ADVANCED_FACE('',(#64),#16,.T.);
#663=ADVANCED_FACE('',(#65),#637,.F.);
#664=ADVANCED_FACE('',(#66),#638,.T.);
#665=ADVANCED_FACE('',(#67,#28,#29),#639,.F.);
#666=ADVANCED_FACE('',(#68),#640,.T.);
#667=ADVANCED_FACE('',(#69),#17,.F.);
#668=ADVANCED_FACE('',(#70),#641,.T.);
#669=ADVANCED_FACE('',(#71),#18,.F.);
#670=ADVANCED_FACE('',(#72,#30),#642,.F.);
#671=ADVANCED_FACE('',(#73),#19,.F.);
#672=ADVANCED_FACE('',(#74),#643,.T.);
#673=ADVANCED_FACE('',(#75),#20,.F.);
#674=ADVANCED_FACE('',(#76),#644,.T.);
#675=ADVANCED_FACE('',(#77),#645,.T.);
#676=ADVANCED_FACE('',(#78),#21,.F.);
#677=ADVANCED_FACE('',(#79),#646,.T.);
#678=ADVANCED_FACE('',(#80),#647,.T.);
#679=ADVANCED_FACE('',(#81),#22,.F.);
#680=ADVANCED_FACE('',(#82),#648,.T.);
#681=ADVANCED_FACE('',(#83),#649,.T.);
#682=ADVANCED_FACE('',(#84),#23,.F.);
#683=ADVANCED_FACE('',(#85),#650,.T.);
#684=ADVANCED_FACE('',(#86),#651,.T.);
#685=ADVANCED_FACE('',(#87),#24,.T.);
#686=ADVANCED_FACE('',(#88),#652,.T.);
#687=ADVANCED_FACE('',(#89),#25,.T.);
#688=ADVANCED_FACE('',(#90),#653,.T.);
#689=ADVANCED_FACE('',(#91),#26,.T.);
#690=ADVANCED_FACE('',(#92,#31,#32),#654,.T.);
#691=CLOSED_SHELL('',(#655,#656,#657,#658,#659,#660,#661,#662,#663,#664,
#665,#666,#667,#668,#669,#670,#671,#672,#673,#674,#675,#676,#677,#678,#679,
#680,#681,#682,#683,#684,#685,#686,#687,#688,#689,#690));
#692=DERIVED_UNIT_ELEMENT(#694,1.);
#693=DERIVED_UNIT_ELEMENT(#1161,-3.);
#694=(
MASS_UNIT()
NAMED_UNIT(*)
SI_UNIT(.KILO.,.GRAM.)
);
#695=DERIVED_UNIT((#692,#693));
#696=MEASURE_REPRESENTATION_ITEM('density measure',
POSITIVE_RATIO_MEASURE(7850.),#695);
#697=PROPERTY_DEFINITION_REPRESENTATION(#702,#699);
#698=PROPERTY_DEFINITION_REPRESENTATION(#703,#700);
#699=REPRESENTATION('material name',(#701),#1158);
#700=REPRESENTATION('density',(#696),#1158);
#701=DESCRIPTIVE_REPRESENTATION_ITEM('Stahl','Stahl');
#702=PROPERTY_DEFINITION('material property','material name',#1168);
#703=PROPERTY_DEFINITION('material property','density of part',#1168);
#704=AXIS2_PLACEMENT_3D('',#959,#765,#766);
#705=AXIS2_PLACEMENT_3D('',#960,#767,#768);
#706=AXIS2_PLACEMENT_3D('',#969,#773,#774);
#707=AXIS2_PLACEMENT_3D('',#975,#778,#779);
#708=AXIS2_PLACEMENT_3D('',#984,#784,#785);
#709=AXIS2_PLACEMENT_3D('',#990,#789,#790);
#710=AXIS2_PLACEMENT_3D('',#993,#793,#794);
#711=AXIS2_PLACEMENT_3D('',#996,#796,#797);
#712=AXIS2_PLACEMENT_3D('',#997,#798,#799);
#713=AXIS2_PLACEMENT_3D('',#999,#800,#801);
#714=AXIS2_PLACEMENT_3D('',#1001,#803,#804);
#715=AXIS2_PLACEMENT_3D('',#1006,#806,#807);
#716=AXIS2_PLACEMENT_3D('',#1009,#809,#810);
#717=AXIS2_PLACEMENT_3D('',#1010,#811,#812);
#718=AXIS2_PLACEMENT_3D('',#1012,#814,#815);
#719=AXIS2_PLACEMENT_3D('',#1018,#819,#820);
#720=AXIS2_PLACEMENT_3D('',#1022,#822,#823);
#721=AXIS2_PLACEMENT_3D('',#1026,#825,#826);
#722=AXIS2_PLACEMENT_3D('',#1030,#828,#829);
#723=AXIS2_PLACEMENT_3D('',#1034,#831,#832);
#724=AXIS2_PLACEMENT_3D('',#1037,#834,#835);
#725=AXIS2_PLACEMENT_3D('',#1042,#837,#838);
#726=AXIS2_PLACEMENT_3D('',#1048,#841,#842);
#727=AXIS2_PLACEMENT_3D('',#1054,#845,#846);
#728=AXIS2_PLACEMENT_3D('',#1060,#849,#850);
#729=AXIS2_PLACEMENT_3D('',#1062,#852,#853);
#730=AXIS2_PLACEMENT_3D('',#1066,#856,#857);
#731=AXIS2_PLACEMENT_3D('',#1069,#859,#860);
#732=AXIS2_PLACEMENT_3D('',#1070,#861,#862);
#733=AXIS2_PLACEMENT_3D('',#1074,#865,#866);
#734=AXIS2_PLACEMENT_3D('',#1076,#867,#868);
#735=AXIS2_PLACEMENT_3D('',#1078,#870,#871);
#736=AXIS2_PLACEMENT_3D('',#1083,#873,#874);
#737=AXIS2_PLACEMENT_3D('',#1089,#877,#878);
#738=AXIS2_PLACEMENT_3D('',#1095,#881,#882);
#739=AXIS2_PLACEMENT_3D('',#1101,#885,#886);
#740=AXIS2_PLACEMENT_3D('',#1104,#888,#889);
#741=AXIS2_PLACEMENT_3D('',#1105,#890,#891);
#742=AXIS2_PLACEMENT_3D('',#1108,#893,#894);
#743=AXIS2_PLACEMENT_3D('',#1109,#895,#896);
#744=AXIS2_PLACEMENT_3D('',#1112,#899,#900);
#745=AXIS2_PLACEMENT_3D('',#1114,#902,#903);
#746=AXIS2_PLACEMENT_3D('',#1116,#905,#906);
#747=AXIS2_PLACEMENT_3D('',#1118,#908,#909);
#748=AXIS2_PLACEMENT_3D('',#1120,#911,#912);
#749=AXIS2_PLACEMENT_3D('',#1122,#914,#915);
#750=AXIS2_PLACEMENT_3D('',#1124,#917,#918);
#751=AXIS2_PLACEMENT_3D('',#1126,#920,#921);
#752=AXIS2_PLACEMENT_3D('',#1128,#923,#924);
#753=AXIS2_PLACEMENT_3D('',#1130,#926,#927);
#754=AXIS2_PLACEMENT_3D('',#1132,#929,#930);
#755=AXIS2_PLACEMENT_3D('',#1133,#931,#932);
#756=AXIS2_PLACEMENT_3D('',#1139,#936,#937);
#757=AXIS2_PLACEMENT_3D('',#1142,#939,#940);
#758=AXIS2_PLACEMENT_3D('',#1143,#941,#942);
#759=AXIS2_PLACEMENT_3D('',#1147,#945,#946);
#760=AXIS2_PLACEMENT_3D('',#1150,#948,#949);
#761=AXIS2_PLACEMENT_3D('',#1151,#950,#951);
#762=AXIS2_PLACEMENT_3D('',#1153,#953,#954);
#763=AXIS2_PLACEMENT_3D('',#1154,#955,#956);
#764=AXIS2_PLACEMENT_3D('',#1155,#957,#958);
#765=DIRECTION('axis',(0.,0.,1.));
#766=DIRECTION('refdir',(1.,0.,0.));
#767=DIRECTION('center_axis',(0.499999999999998,-0.86602540378444,0.));
#768=DIRECTION('ref_axis',(0.86602540378444,0.499999999999998,0.));
#769=DIRECTION('',(0.86602540378444,0.499999999999998,2.27145312151903E-29));
#770=DIRECTION('',(0.,0.,1.));
#771=DIRECTION('',(0.86602540378444,0.499999999999998,0.));
#772=DIRECTION('',(0.,0.,1.));
#773=DIRECTION('center_axis',(-0.500000000000001,-0.866025403784438,0.));
#774=DIRECTION('ref_axis',(0.866025403784438,-0.500000000000001,0.));
#775=DIRECTION('',(0.866025403784438,-0.500000000000001,-1.45591465565024E-29));
#776=DIRECTION('',(0.,0.,-1.));
#777=DIRECTION('',(0.866025403784438,-0.500000000000001,0.));
#778=DIRECTION('center_axis',(-0.499999999999999,0.866025403784439,0.));
#779=DIRECTION('ref_axis',(-0.866025403784439,-0.499999999999999,0.));
#780=DIRECTION('',(-0.866025403784439,-0.499999999999999,-2.27145312151903E-29));
#781=DIRECTION('',(0.,0.,1.));
#782=DIRECTION('',(-0.866025403784439,-0.499999999999999,0.));
#783=DIRECTION('',(0.,0.,1.));
#784=DIRECTION('center_axis',(0.500000000000001,0.866025403784438,0.));
#785=DIRECTION('ref_axis',(-0.866025403784438,0.500000000000001,0.));
#786=DIRECTION('',(-0.866025403784438,0.500000000000001,1.45591465565024E-29));
#787=DIRECTION('',(0.,0.,1.));
#788=DIRECTION('',(-0.866025403784438,0.500000000000001,0.));
#789=DIRECTION('center_axis',(1.,0.,0.));
#790=DIRECTION('ref_axis',(0.,1.,0.));
#791=DIRECTION('',(0.,1.,3.72736777716927E-29));
#792=DIRECTION('',(0.,1.,0.));
#793=DIRECTION('center_axis',(0.,0.,-1.));
#794=DIRECTION('ref_axis',(1.,0.,0.));
#795=DIRECTION('',(0.,-1.,0.));
#796=DIRECTION('center_axis',(0.,0.,-1.));
#797=DIRECTION('ref_axis',(-1.,3.15544362088405E-30,0.));
#798=DIRECTION('center_axis',(0.,0.,-1.));
#799=DIRECTION('ref_axis',(-1.,3.15544362088405E-30,0.));
#800=DIRECTION('center_axis',(0.,0.,-1.));
#801=DIRECTION('ref_axis',(-1.,0.,0.));
#802=DIRECTION('',(0.,0.,-1.));
#803=DIRECTION('center_axis',(0.,0.,-1.));
#804=DIRECTION('ref_axis',(-3.15544362088405E-30,-1.,0.));
#805=DIRECTION('',(0.,0.,1.));
#806=DIRECTION('center_axis',(4.70851352803846E-30,3.72736777716927E-29,
-1.));
#807=DIRECTION('ref_axis',(-3.15544362088405E-30,-1.,-3.72736777716927E-29));
#808=DIRECTION('',(0.,0.,1.));
#809=DIRECTION('center_axis',(0.,0.,1.));
#810=DIRECTION('ref_axis',(0.,-1.,0.));
#811=DIRECTION('center_axis',(-1.,0.,0.));
#812=DIRECTION('ref_axis',(0.,0.,1.));
#813=DIRECTION('',(0.,-1.,-3.72736777716927E-29));
#814=DIRECTION('center_axis',(3.15544362088405E-30,1.,0.));
#815=DIRECTION('ref_axis',(1.,-3.15544362088405E-30,4.70851352803846E-30));
#816=DIRECTION('',(1.,-3.15544362088405E-30,4.70851352803846E-30));
#817=DIRECTION('',(0.,0.,-1.));
#818=DIRECTION('',(-1.,0.,0.));
#819=DIRECTION('center_axis',(-4.70851352803846E-30,-3.72736777716927E-29,
1.));
#820=DIRECTION('ref_axis',(-1.,3.15544362088405E-30,-4.70851352803846E-30));
#821=DIRECTION('',(-1.,3.15544362088405E-30,-4.70851352803846E-30));
#822=DIRECTION('center_axis',(4.70851352803846E-30,3.72736777716927E-29,
-1.));
#823=DIRECTION('ref_axis',(-0.707106781186548,0.707106781186548,2.30270484671416E-29));
#824=DIRECTION('',(7.98721600449721E-17,-1.,-3.72736777716927E-29));
#825=DIRECTION('center_axis',(4.70851352803846E-30,3.72736777716927E-29,
-1.));
#826=DIRECTION('ref_axis',(-1.,3.15544362088405E-30,-4.70851352803846E-30));
#827=DIRECTION('',(9.98402000562506E-18,1.,3.72736777716927E-29));
#828=DIRECTION('center_axis',(4.70851352803846E-30,3.72736777716927E-29,
-1.));
#829=DIRECTION('ref_axis',(-1.,3.15544362088405E-30,-4.70851352803846E-30));
#830=DIRECTION('',(9.98402000562506E-18,1.,3.72736777716927E-29));
#831=DIRECTION('center_axis',(4.70851352803846E-30,3.72736777716927E-29,
-1.));
#832=DIRECTION('ref_axis',(1.,-3.15544362088405E-30,4.70851352803846E-30));
#833=DIRECTION('',(7.98721600449721E-17,-1.,-3.72736777716927E-29));
#834=DIRECTION('center_axis',(4.70851352803846E-30,3.72736777716927E-29,
-1.));
#835=DIRECTION('ref_axis',(-0.707106781186548,-0.707106781186548,-2.96858921571108E-29));
#836=DIRECTION('',(-3.15544362088405E-30,-1.,-3.72736777716927E-29));
#837=DIRECTION('center_axis',(-4.70851352803846E-30,-3.72736777716927E-29,
1.));
#838=DIRECTION('ref_axis',(-1.,3.15544362088405E-30,-4.70851352803846E-30));
#839=DIRECTION('',(-3.15544362088405E-30,-1.,-3.72736777716927E-29));
#840=DIRECTION('',(0.043817524169156,-0.999039551056756,-3.70315629019505E-29));
#841=DIRECTION('center_axis',(-4.70851352803846E-30,-3.72736777716927E-29,
1.));
#842=DIRECTION('ref_axis',(-1.,3.15544362088405E-30,-4.70851352803846E-30));
#843=DIRECTION('',(0.0438175241691559,0.999039551056756,3.74441937125817E-29));
#844=DIRECTION('',(3.15544362088405E-30,1.,3.72736777716927E-29));
#845=DIRECTION('center_axis',(-4.70851352803846E-30,-3.72736777716927E-29,
1.));
#846=DIRECTION('ref_axis',(-1.,3.15544362088405E-30,-4.70851352803846E-30));
#847=DIRECTION('',(3.15544362088405E-30,1.,3.72736777716927E-29));
#848=DIRECTION('',(-0.043817524169156,0.999039551056756,3.70315629019505E-29));
#849=DIRECTION('center_axis',(-4.70851352803846E-30,-3.72736777716927E-29,
1.));
#850=DIRECTION('ref_axis',(1.,-3.15544362088405E-30,4.70851352803846E-30));
#851=DIRECTION('',(-0.043817524169156,-0.999039551056756,-3.74441937125817E-29));
#852=DIRECTION('center_axis',(-3.15544362088405E-30,-1.,0.));
#853=DIRECTION('ref_axis',(-1.,3.15544362088405E-30,-4.70851352803846E-30));
#854=DIRECTION('',(1.,0.,0.));
#855=DIRECTION('',(0.,0.,1.));
#856=DIRECTION('center_axis',(0.,0.,1.));
#857=DIRECTION('ref_axis',(-0.707106781186548,-0.707106781186548,0.));
#858=DIRECTION('',(0.,0.,1.));
#859=DIRECTION('center_axis',(-7.00649232162414E-46,0.,1.));
#860=DIRECTION('ref_axis',(-0.707106781186548,-0.707106781186548,-4.95433823295191E-46));
#861=DIRECTION('center_axis',(1.,7.98721600449721E-17,0.));
#862=DIRECTION('ref_axis',(7.98721600449721E-17,-1.,-3.72736777716927E-29));
#863=DIRECTION('',(0.,0.,-1.));
#864=DIRECTION('',(-2.24287479722254E-16,1.,3.53863248566872E-46));
#865=DIRECTION('center_axis',(0.,0.,1.));
#866=DIRECTION('ref_axis',(-0.707106781186548,0.707106781186548,0.));
#867=DIRECTION('center_axis',(-7.00649232162414E-46,0.,1.));
#868=DIRECTION('ref_axis',(-0.707106781186548,0.707106781186548,-4.95433823295191E-46));
#869=DIRECTION('',(0.,0.,-1.));
#870=DIRECTION('center_axis',(-7.00649232162414E-46,0.,1.));
#871=DIRECTION('ref_axis',(-1.,0.,-7.00649232162414E-46));
#872=DIRECTION('',(0.043817524169156,0.999039551056756,3.74441937125817E-29));
#873=DIRECTION('center_axis',(4.70851352803846E-30,3.72736777716927E-29,
-1.));
#874=DIRECTION('ref_axis',(1.,-3.15544362088405E-30,4.70851352803846E-30));
#875=DIRECTION('',(0.043817524169156,-0.999039551056756,-3.70315629019505E-29));
#876=DIRECTION('',(-3.15544362088405E-30,-1.,-3.72736777716927E-29));
#877=DIRECTION('center_axis',(4.70851352803846E-30,3.72736777716927E-29,
-1.));
#878=DIRECTION('ref_axis',(-1.,3.15544362088405E-30,-4.70851352803846E-30));
#879=DIRECTION('',(-3.15544362088405E-30,-1.,-3.72736777716927E-29));
#880=DIRECTION('',(-0.0438175241691559,-0.999039551056756,-3.74441937125817E-29));
#881=DIRECTION('center_axis',(4.70851352803846E-30,3.72736777716927E-29,
-1.));
#882=DIRECTION('ref_axis',(-1.,3.15544362088405E-30,-4.70851352803846E-30));
#883=DIRECTION('',(-0.043817524169156,0.999039551056756,3.70315629019505E-29));
#884=DIRECTION('',(3.15544362088405E-30,1.,3.72736777716927E-29));
#885=DIRECTION('center_axis',(4.70851352803846E-30,3.72736777716927E-29,
-1.));
#886=DIRECTION('ref_axis',(-1.,3.15544362088405E-30,-4.70851352803846E-30));
#887=DIRECTION('',(3.15544362088405E-30,1.,3.72736777716927E-29));
#888=DIRECTION('center_axis',(0.,0.,-1.));
#889=DIRECTION('ref_axis',(-1.,0.,0.));
#890=DIRECTION('center_axis',(0.,0.,1.));
#891=DIRECTION('ref_axis',(-1.,0.,0.));
#892=DIRECTION('',(0.,0.,1.));
#893=DIRECTION('center_axis',(0.,0.,-1.));
#894=DIRECTION('ref_axis',(-1.,0.,0.));
#895=DIRECTION('center_axis',(0.999039551056756,-0.043817524169156,0.));
#896=DIRECTION('ref_axis',(-0.043817524169156,-0.999039551056756,-3.74441937125817E-29));
#897=DIRECTION('',(0.,0.,-1.));
#898=DIRECTION('',(0.,0.,-1.));
#899=DIRECTION('center_axis',(0.,0.,-1.));
#900=DIRECTION('ref_axis',(1.,-3.15544362088405E-30,0.));
#901=DIRECTION('',(0.,0.,-1.));
#902=DIRECTION('center_axis',(-0.999039551056756,-0.043817524169156,0.));
#903=DIRECTION('ref_axis',(-0.043817524169156,0.999039551056756,3.70315629019505E-29));
#904=DIRECTION('',(0.,0.,-1.));
#905=DIRECTION('center_axis',(-1.,3.15544362088405E-30,0.));
#906=DIRECTION('ref_axis',(3.15544362088405E-30,1.,3.72736777716927E-29));
#907=DIRECTION('',(0.,0.,-1.));
#908=DIRECTION('center_axis',(0.,0.,-1.));
#909=DIRECTION('ref_axis',(1.,1.22464679914732E-16,0.));
#910=DIRECTION('',(0.,0.,-1.));
#911=DIRECTION('center_axis',(-1.,3.15544362088405E-30,0.));
#912=DIRECTION('ref_axis',(3.15544362088405E-30,1.,3.72736777716927E-29));
#913=DIRECTION('',(0.,0.,-1.));
#914=DIRECTION('center_axis',(-0.999039551056756,0.0438175241691559,0.));
#915=DIRECTION('ref_axis',(0.0438175241691559,0.999039551056756,3.74441937125817E-29));
#916=DIRECTION('',(0.,0.,-1.));
#917=DIRECTION('center_axis',(0.,0.,-1.));
#918=DIRECTION('ref_axis',(-1.,3.15544362088405E-30,0.));
#919=DIRECTION('',(0.,0.,-1.));
#920=DIRECTION('center_axis',(0.999039551056756,0.043817524169156,0.));
#921=DIRECTION('ref_axis',(0.043817524169156,-0.999039551056756,-3.70315629019505E-29));
#922=DIRECTION('',(0.,0.,-1.));
#923=DIRECTION('center_axis',(1.,-3.15544362088405E-30,0.));
#924=DIRECTION('ref_axis',(-3.15544362088405E-30,-1.,-3.72736777716927E-29));
#925=DIRECTION('',(0.,0.,-1.));
#926=DIRECTION('center_axis',(0.,0.,-1.));
#927=DIRECTION('ref_axis',(-1.,3.15544362088405E-30,0.));
#928=DIRECTION('',(0.,0.,-1.));
#929=DIRECTION('center_axis',(1.,-3.15544362088405E-30,0.));
#930=DIRECTION('ref_axis',(-3.15544362088405E-30,-1.,-3.72736777716927E-29));
#931=DIRECTION('center_axis',(-1.,9.98402000562506E-18,0.));
#932=DIRECTION('ref_axis',(9.98402000562506E-18,1.,3.72736777716927E-29));
#933=DIRECTION('',(0.,0.,1.));
#934=DIRECTION('',(0.,0.,1.));
#935=DIRECTION('',(-1.04902547876542E-16,-1.,3.31014075511519E-46));
#936=DIRECTION('center_axis',(0.,0.,-1.));
#937=DIRECTION('ref_axis',(-1.,3.15544362088405E-30,0.));
#938=DIRECTION('',(0.,0.,1.));
#939=DIRECTION('center_axis',(3.09838748364443E-45,4.67099488108272E-45,
1.));
#940=DIRECTION('ref_axis',(-0.833333333333333,0.552770798392567,2.1780553472514E-60));
#941=DIRECTION('center_axis',(-1.,9.98402000562506E-18,0.));
#942=DIRECTION('ref_axis',(9.98402000562506E-18,1.,3.72736777716927E-29));
#943=DIRECTION('',(0.,0.,1.));
#944=DIRECTION('',(3.93384554537034E-16,-1.,-2.92759863679488E-45));
#945=DIRECTION('center_axis',(0.,0.,-1.));
#946=DIRECTION('ref_axis',(-1.,3.15544362088405E-30,0.));
#947=DIRECTION('',(0.,0.,1.));
#948=DIRECTION('center_axis',(0.,0.,1.));
#949=DIRECTION('ref_axis',(-1.,1.77635683940025E-15,0.));
#950=DIRECTION('center_axis',(1.,7.98721600449721E-17,0.));
#951=DIRECTION('ref_axis',(7.98721600449721E-17,-1.,-3.72736777716927E-29));
#952=DIRECTION('',(0.,1.,0.));
#953=DIRECTION('center_axis',(0.,0.,-1.));
#954=DIRECTION('ref_axis',(1.,-3.15544362088405E-30,0.));
#955=DIRECTION('center_axis',(-7.00649232162414E-46,0.,1.));
#956=DIRECTION('ref_axis',(1.,0.,7.00649232162414E-46));
#957=DIRECTION('center_axis',(-7.00649232162414E-46,0.,1.));
#958=DIRECTION('ref_axis',(-1.,0.,-7.00649232162414E-46));
#959=CARTESIAN_POINT('',(0.,0.,0.));
#960=CARTESIAN_POINT('Origin',(20.0271775164304,62.8668384925384,17.699999776481));
#961=CARTESIAN_POINT('',(20.0271775164304,62.8668384925384,17.699999776481));
#962=CARTESIAN_POINT('',(22.8271775164304,64.4834192462693,17.699999776481));
#963=CARTESIAN_POINT('',(17.2396775164304,61.2574746171723,17.699999776481));
#964=CARTESIAN_POINT('',(20.0271775164304,62.8668384925384,20.6999997764811));
#965=CARTESIAN_POINT('',(20.0271775164304,62.8668384925384,17.699999776481));
#966=CARTESIAN_POINT('',(22.8271775164304,64.4834192462693,20.6999997764811));
#967=CARTESIAN_POINT('',(22.8271775164304,64.4834192462693,20.6999997764811));
#968=CARTESIAN_POINT('',(22.8271775164304,64.4834192462693,17.699999776481));
#969=CARTESIAN_POINT('Origin',(17.2271775164304,64.4834192462694,17.699999776481));
#970=CARTESIAN_POINT('',(17.2271775164304,64.4834192462694,17.699999776481));
#971=CARTESIAN_POINT('',(14.4396775164304,66.0927831216354,17.699999776481));
#972=CARTESIAN_POINT('',(17.2271775164304,64.4834192462694,20.6999997764811));
#973=CARTESIAN_POINT('',(17.2271775164304,64.4834192462693,18.9499997764811));
#974=CARTESIAN_POINT('',(20.0271775164304,62.8668384925384,20.6999997764811));
#975=CARTESIAN_POINT('Origin',(20.0271775164304,69.3331615074622,17.699999776481));
#976=CARTESIAN_POINT('',(20.0271775164304,69.3331615074622,17.699999776481));
#977=CARTESIAN_POINT('',(17.2271775164304,67.7165807537313,17.699999776481));
#978=CARTESIAN_POINT('',(15.8396775164304,66.9155072552307,17.699999776481));
#979=CARTESIAN_POINT('',(20.0271775164304,69.3331615074622,20.6999997764811));
#980=CARTESIAN_POINT('',(20.0271775164304,69.3331615074622,17.699999776481));
#981=CARTESIAN_POINT('',(17.2271775164304,67.7165807537313,20.6999997764811));
#982=CARTESIAN_POINT('',(17.2271775164304,67.7165807537313,20.6999997764811));
#983=CARTESIAN_POINT('',(17.2271775164304,67.7165807537313,18.9499997764811));
#984=CARTESIAN_POINT('Origin',(22.8271775164304,67.7165807537313,17.699999776481));
#985=CARTESIAN_POINT('',(22.8271775164304,67.7165807537313,17.699999776481));
#986=CARTESIAN_POINT('',(18.6396775164304,70.1342350059628,17.699999776481));
#987=CARTESIAN_POINT('',(22.8271775164304,67.7165807537313,20.6999997764811));
#988=CARTESIAN_POINT('',(22.8271775164304,67.7165807537313,17.699999776481));
#989=CARTESIAN_POINT('',(20.0271775164304,69.3331615074622,20.6999997764811));
#990=CARTESIAN_POINT('Origin',(22.8271775164304,64.4834192462693,17.699999776481));
#991=CARTESIAN_POINT('',(22.8271775164304,65.2917096231348,17.699999776481));
#992=CARTESIAN_POINT('',(22.8271775164304,67.7165807537313,20.6999997764811));
#993=CARTESIAN_POINT('Origin',(20.0271775164304,66.1000000000003,20.6999997764811));
#994=CARTESIAN_POINT('',(17.2271775164304,66.1000000000003,20.6999997764811));
#995=CARTESIAN_POINT('',(21.6271775164304,66.1000000000003,20.6999997764811));
#996=CARTESIAN_POINT('Origin',(20.0271775164304,66.1000000000003,20.6999997764811));
#997=CARTESIAN_POINT('Origin',(20.0271775164304,66.1000000000003,20.6999997764811));
#998=CARTESIAN_POINT('',(21.6271775164304,66.1000000000003,22.6999997764811));
#999=CARTESIAN_POINT('Origin',(20.0271775164304,66.1000000000003,22.6999997764811));
#1000=CARTESIAN_POINT('',(21.6271775164304,66.1000000000003,20.6999997764811));
#1001=CARTESIAN_POINT('Origin',(20.0271775164304,66.1000000000003,20.6999997764811));
#1002=CARTESIAN_POINT('',(20.0271775164304,62.1000000000003,17.699999776481));
#1003=CARTESIAN_POINT('',(20.0271775164304,62.1000000000003,22.6999997764811));
#1004=CARTESIAN_POINT('',(20.0271775164304,62.1000000000003,20.6999997764811));
#1005=CARTESIAN_POINT('',(20.0271775164304,70.1000000000003,17.699999776481));
#1006=CARTESIAN_POINT('Origin',(20.0271775164304,66.1000000000003,17.699999776481));
#1007=CARTESIAN_POINT('',(20.0271775164304,70.1000000000003,22.6999997764811));
#1008=CARTESIAN_POINT('',(20.0271775164304,70.1000000000003,20.6999997764811));
#1009=CARTESIAN_POINT('Origin',(20.0271775164304,66.1000000000003,22.6999997764811));
#1010=CARTESIAN_POINT('Origin',(17.2271775164304,66.1000000000003,20.1999997764811));
#1011=CARTESIAN_POINT('',(17.2271775164304,66.1000000000003,17.699999776481));
#1012=CARTESIAN_POINT('Origin',(7.62717751643042,70.1000000000003,20.6999997764811));
#1013=CARTESIAN_POINT('',(12.6271775164304,70.1000000000003,17.699999776481));
#1014=CARTESIAN_POINT('',(18.6271775164304,70.1000000000003,17.699999776481));
#1015=CARTESIAN_POINT('',(12.6271775164304,70.1000000000003,22.6999997764811));
#1016=CARTESIAN_POINT('',(12.6271775164304,70.1000000000003,20.6999997764811));
#1017=CARTESIAN_POINT('',(20.6271775164304,70.1000000000003,22.6999997764811));
#1018=CARTESIAN_POINT('Origin',(9.92717751643043,66.1000000000003,17.699999776481));
#1019=CARTESIAN_POINT('',(12.6271775164304,62.1000000000003,17.699999776481));
#1020=CARTESIAN_POINT('',(2.62717751643042,62.1000000000003,17.699999776481));
#1021=CARTESIAN_POINT('',(7.62717751643042,57.1000000000003,17.699999776481));
#1022=CARTESIAN_POINT('Origin',(12.6271775164304,57.1000000000003,17.699999776481));
#1023=CARTESIAN_POINT('',(7.62717751643042,52.2000000000003,17.699999776481));
#1024=CARTESIAN_POINT('',(7.62717751643042,52.2000000000003,17.699999776481));
#1025=CARTESIAN_POINT('',(-2.37282248356958,52.2000000000003,17.699999776481));
#1026=CARTESIAN_POINT('Origin',(2.62717751643042,52.2000000000003,17.699999776481));
#1027=CARTESIAN_POINT('',(-2.37282248356958,62.7833752096449,17.699999776481));
#1028=CARTESIAN_POINT('',(-2.37282248356958,80.0000000000003,17.699999776481));
#1029=CARTESIAN_POINT('',(-2.37282248356958,69.4166247903557,17.699999776481));
#1030=CARTESIAN_POINT('Origin',(2.62717751643042,66.1000000000003,17.699999776481));
#1031=CARTESIAN_POINT('',(-2.37282248356958,80.0000000000003,17.699999776481));
#1032=CARTESIAN_POINT('',(-2.37282248356958,80.0000000000003,17.699999776481));
#1033=CARTESIAN_POINT('',(7.62717751643042,80.0000000000003,17.699999776481));
#1034=CARTESIAN_POINT('Origin',(2.62717751643042,80.0000000000003,17.699999776481));
#1035=CARTESIAN_POINT('',(7.62717751643042,75.1000000000003,17.699999776481));
#1036=CARTESIAN_POINT('',(7.62717751643042,52.2000000000003,17.699999776481));
#1037=CARTESIAN_POINT('Origin',(12.6271775164304,75.1000000000003,17.699999776481));
#1038=CARTESIAN_POINT('',(0.127177516430423,68.6000000000003,17.699999776481));
#1039=CARTESIAN_POINT('',(0.127177516430423,68.5494897427835,17.699999776481));
#1040=CARTESIAN_POINT('',(0.127177516430423,68.6000000000003,17.699999776481));
#1041=CARTESIAN_POINT('',(0.127177516430423,63.6505102572171,17.699999776481));
#1042=CARTESIAN_POINT('Origin',(2.62717751643042,66.1000000000003,17.699999776481));
#1043=CARTESIAN_POINT('',(0.127177516430423,63.6000000000003,17.699999776481));
#1044=CARTESIAN_POINT('',(0.127177516430423,68.6000000000003,17.699999776481));
#1045=CARTESIAN_POINT('',(0.627177516430422,52.2000000000003,17.699999776481));
#1046=CARTESIAN_POINT('',(0.127177516430423,63.6000000000003,17.699999776481));
#1047=CARTESIAN_POINT('',(4.62717751643043,52.2000000000003,17.699999776481));
#1048=CARTESIAN_POINT('Origin',(2.62717751643042,52.2000000000003,17.699999776481));
#1049=CARTESIAN_POINT('',(5.12717751643042,63.6000000000003,17.699999776481));
#1050=CARTESIAN_POINT('',(4.62717751643042,52.2000000000003,17.699999776481));
#1051=CARTESIAN_POINT('',(5.12717751643042,63.6505102572171,17.699999776481));
#1052=CARTESIAN_POINT('',(5.12717751643042,63.6000000000003,17.699999776481));
#1053=CARTESIAN_POINT('',(5.12717751643042,68.5494897427835,17.699999776481));
#1054=CARTESIAN_POINT('Origin',(2.62717751643042,66.1000000000003,17.699999776481));
#1055=CARTESIAN_POINT('',(5.12717751643042,68.6000000000003,17.699999776481));
#1056=CARTESIAN_POINT('',(5.12717751643042,63.6000000000003,17.699999776481));
#1057=CARTESIAN_POINT('',(4.62717751643042,80.0000000000003,17.699999776481));
#1058=CARTESIAN_POINT('',(5.12717751643042,68.6000000000003,17.699999776481));
#1059=CARTESIAN_POINT('',(0.627177516430426,80.0000000000003,17.699999776481));
#1060=CARTESIAN_POINT('Origin',(2.62717751643042,80.0000000000003,17.699999776481));
#1061=CARTESIAN_POINT('',(0.127177516430423,68.6000000000003,17.699999776481));
#1062=CARTESIAN_POINT('Origin',(19.2271775164304,62.1000000000003,20.6999997764811));
#1063=CARTESIAN_POINT('',(12.6271775164304,62.1000000000003,22.6999997764811));
#1064=CARTESIAN_POINT('',(9.02717751643042,62.1000000000003,22.6999997764811));
#1065=CARTESIAN_POINT('',(12.6271775164304,62.1000000000003,20.6999997764811));
#1066=CARTESIAN_POINT('Origin',(12.6271775164304,75.1000000000003,20.6999997764811));
#1067=CARTESIAN_POINT('',(7.62717751643042,75.1000000000003,22.6999997764811));
#1068=CARTESIAN_POINT('',(7.62717751643042,75.1000000000003,20.6999997764811));
#1069=CARTESIAN_POINT('Origin',(12.6271775164304,75.1000000000003,22.6999997764811));
#1070=CARTESIAN_POINT('Origin',(7.62717751643042,80.0000000000003,20.6999997764811));
#1071=CARTESIAN_POINT('',(7.62717751643042,80.0000000000003,22.6999997764811));
#1072=CARTESIAN_POINT('',(7.62717751643042,80.0000000000003,20.6999997764811));
#1073=CARTESIAN_POINT('',(7.62717751643042,70.1000000000003,22.6999997764811));
#1074=CARTESIAN_POINT('Origin',(12.6271775164304,57.1000000000003,20.6999997764811));
#1075=CARTESIAN_POINT('',(7.62717751643042,57.1000000000003,22.6999997764811));
#1076=CARTESIAN_POINT('Origin',(12.6271775164304,57.1000000000003,22.6999997764811));
#1077=CARTESIAN_POINT('',(7.62717751643042,57.1000000000003,20.6999997764811));
#1078=CARTESIAN_POINT('Origin',(9.92717751643043,66.1000000000003,20.6999997764811));
#1079=CARTESIAN_POINT('',(0.127177516430423,68.6000000000003,20.6999997764811));
#1080=CARTESIAN_POINT('',(0.627177516430424,80.0000000000003,20.6999997764811));
#1081=CARTESIAN_POINT('',(0.127177516430423,68.6000000000003,20.6999997764811));
#1082=CARTESIAN_POINT('',(4.62717751643042,80.0000000000003,20.6999997764811));
#1083=CARTESIAN_POINT('Origin',(2.62717751643042,80.0000000000003,20.6999997764811));
#1084=CARTESIAN_POINT('',(5.12717751643042,68.6000000000003,20.6999997764811));
#1085=CARTESIAN_POINT('',(5.12717751643042,68.6000000000003,20.6999997764811));
#1086=CARTESIAN_POINT('',(5.12717751643042,68.5494897427835,20.6999997764811));
#1087=CARTESIAN_POINT('',(5.12717751643042,63.6000000000003,20.6999997764811));
#1088=CARTESIAN_POINT('',(5.12717751643042,63.6505102572171,20.6999997764811));
#1089=CARTESIAN_POINT('Origin',(2.62717751643042,66.1000000000003,20.6999997764811));
#1090=CARTESIAN_POINT('',(5.12717751643042,63.6000000000003,20.6999997764811));
#1091=CARTESIAN_POINT('',(5.12717751643042,63.6000000000003,20.6999997764811));
#1092=CARTESIAN_POINT('',(4.62717751643042,52.2000000000003,20.6999997764811));
#1093=CARTESIAN_POINT('',(4.62717751643042,52.2000000000003,20.6999997764811));
#1094=CARTESIAN_POINT('',(0.627177516430424,52.2000000000003,20.6999997764811));
#1095=CARTESIAN_POINT('Origin',(2.62717751643042,52.2000000000003,20.6999997764811));
#1096=CARTESIAN_POINT('',(0.127177516430423,63.6000000000003,20.6999997764811));
#1097=CARTESIAN_POINT('',(0.127177516430423,63.6000000000003,20.6999997764811));
#1098=CARTESIAN_POINT('',(0.127177516430423,63.6505102572171,20.6999997764811));
#1099=CARTESIAN_POINT('',(0.127177516430423,68.6000000000003,20.6999997764811));
#1100=CARTESIAN_POINT('',(0.127177516430423,68.5494897427835,20.6999997764811));
#1101=CARTESIAN_POINT('Origin',(2.62717751643042,66.1000000000003,20.6999997764811));
#1102=CARTESIAN_POINT('',(0.127177516430423,68.6000000000003,20.6999997764811));
#1103=CARTESIAN_POINT('',(3.97717751643042,66.1000000000003,20.6999997764811));
#1104=CARTESIAN_POINT('Origin',(2.62717751643042,66.1000000000003,20.6999997764811));
#1105=CARTESIAN_POINT('Origin',(2.62717751643042,66.1000000000003,20.6999997764811));
#1106=CARTESIAN_POINT('',(3.97717751643042,66.1000000000003,22.6999997764811));
#1107=CARTESIAN_POINT('',(3.97717751643042,66.1000000000003,20.6999997764811));
#1108=CARTESIAN_POINT('Origin',(2.62717751643042,66.1000000000003,22.6999997764811));
#1109=CARTESIAN_POINT('Origin',(0.627177516430424,80.0000000000003,20.6999997764811));
#1110=CARTESIAN_POINT('',(0.127177516430423,68.6000000000003,20.6999997764811));
#1111=CARTESIAN_POINT('',(0.627177516430424,80.0000000000003,20.6999997764811));
#1112=CARTESIAN_POINT('Origin',(2.62717751643042,80.0000000000003,20.6999997764811));
#1113=CARTESIAN_POINT('',(4.62717751643042,80.0000000000003,20.6999997764811));
#1114=CARTESIAN_POINT('Origin',(5.12717751643042,68.6000000000003,20.6999997764811));
#1115=CARTESIAN_POINT('',(5.12717751643042,68.6000000000003,20.6999997764811));
#1116=CARTESIAN_POINT('Origin',(5.12717751643042,68.5494897427835,20.6999997764811));
#1117=CARTESIAN_POINT('',(5.12717751643042,68.5494897427835,20.6999997764811));
#1118=CARTESIAN_POINT('Origin',(2.62717751643042,66.1000000000003,20.6999997764811));
#1119=CARTESIAN_POINT('',(5.12717751643042,63.6505102572171,20.6999997764811));
#1120=CARTESIAN_POINT('Origin',(5.12717751643042,63.6000000000003,20.6999997764811));
#1121=CARTESIAN_POINT('',(5.12717751643042,63.6000000000003,20.6999997764811));
#1122=CARTESIAN_POINT('Origin',(4.62717751643042,52.2000000000003,20.6999997764811));
#1123=CARTESIAN_POINT('',(4.62717751643042,52.2000000000003,20.6999997764811));
#1124=CARTESIAN_POINT('Origin',(2.62717751643042,52.2000000000003,20.6999997764811));
#1125=CARTESIAN_POINT('',(0.627177516430424,52.2000000000003,20.6999997764811));
#1126=CARTESIAN_POINT('Origin',(0.127177516430423,63.6000000000003,20.6999997764811));
#1127=CARTESIAN_POINT('',(0.127177516430423,63.6000000000003,20.6999997764811));
#1128=CARTESIAN_POINT('Origin',(0.127177516430423,63.6505102572171,20.6999997764811));
#1129=CARTESIAN_POINT('',(0.127177516430423,63.6505102572171,20.6999997764811));
#1130=CARTESIAN_POINT('Origin',(2.62717751643042,66.1000000000003,20.6999997764811));
#1131=CARTESIAN_POINT('',(0.127177516430423,68.5494897427835,20.6999997764811));
#1132=CARTESIAN_POINT('Origin',(0.127177516430423,68.6000000000003,20.6999997764811));
#1133=CARTESIAN_POINT('Origin',(-2.37282248356958,69.4166247903557,20.6999997764811));
#1134=CARTESIAN_POINT('',(-2.37282248356958,80.0000000000003,22.6999997764811));
#1135=CARTESIAN_POINT('',(-2.37282248356958,80.0000000000003,20.6999997764811));
#1136=CARTESIAN_POINT('',(-2.37282248356958,69.4166247903557,22.6999997764811));
#1137=CARTESIAN_POINT('',(-2.37282248356958,69.4166247903557,20.6999997764811));
#1138=CARTESIAN_POINT('',(-2.37282248356958,80.0000000000003,22.6999997764811));
#1139=CARTESIAN_POINT('Origin',(2.62717751643042,66.1000000000003,20.6999997764811));
#1140=CARTESIAN_POINT('',(-2.37282248356958,62.7833752096449,22.6999997764811));
#1141=CARTESIAN_POINT('',(-2.37282248356958,62.7833752096449,20.6999997764811));
#1142=CARTESIAN_POINT('Origin',(2.62717751643042,66.1000000000003,22.6999997764811));
#1143=CARTESIAN_POINT('Origin',(-2.37282248356958,52.2000000000003,20.6999997764811));
#1144=CARTESIAN_POINT('',(-2.37282248356958,52.2000000000003,22.6999997764811));
#1145=CARTESIAN_POINT('',(-2.37282248356958,52.2000000000003,20.6999997764811));
#1146=CARTESIAN_POINT('',(-2.37282248356958,62.7833752096449,22.6999997764811));
#1147=CARTESIAN_POINT('Origin',(2.62717751643042,52.2000000000003,20.6999997764811));
#1148=CARTESIAN_POINT('',(7.62717751643042,52.2000000000003,22.6999997764811));
#1149=CARTESIAN_POINT('',(7.62717751643042,52.2000000000003,20.6999997764811));
#1150=CARTESIAN_POINT('Origin',(2.62717751643042,52.2000000000003,22.6999997764811));
#1151=CARTESIAN_POINT('Origin',(7.62717751643042,62.1000000000003,20.6999997764811));
#1152=CARTESIAN_POINT('',(7.62717751643042,52.2000000000003,22.6999997764811));
#1153=CARTESIAN_POINT('Origin',(2.62717751643042,80.0000000000003,20.6999997764811));
#1154=CARTESIAN_POINT('Origin',(2.62717751643042,80.0000000000003,22.6999997764811));
#1155=CARTESIAN_POINT('Origin',(9.92717751643043,66.1000000000003,22.6999997764811));
#1156=UNCERTAINTY_MEASURE_WITH_UNIT(LENGTH_MEASURE(0.01),#1160,
'DISTANCE_ACCURACY_VALUE',
'Maximum model space distance between geometric entities at asserted c
onnectivities');
#1157=UNCERTAINTY_MEASURE_WITH_UNIT(LENGTH_MEASURE(0.01),#1160,
'DISTANCE_ACCURACY_VALUE',
'Maximum model space distance between geometric entities at asserted c
onnectivities');
#1158=(
GEOMETRIC_REPRESENTATION_CONTEXT(3)
GLOBAL_UNCERTAINTY_ASSIGNED_CONTEXT((#1156))
GLOBAL_UNIT_ASSIGNED_CONTEXT((#1160,#1162,#1163))
REPRESENTATION_CONTEXT('','3D')
);
#1159=(
GEOMETRIC_REPRESENTATION_CONTEXT(3)
GLOBAL_UNCERTAINTY_ASSIGNED_CONTEXT((#1157))
GLOBAL_UNIT_ASSIGNED_CONTEXT((#1160,#1162,#1163))
REPRESENTATION_CONTEXT('','3D')
);
#1160=(
LENGTH_UNIT()
NAMED_UNIT(*)
SI_UNIT(.MILLI.,.METRE.)
);
#1161=(
LENGTH_UNIT()
NAMED_UNIT(*)
SI_UNIT($,.METRE.)
);
#1162=(
NAMED_UNIT(*)
PLANE_ANGLE_UNIT()
SI_UNIT($,.RADIAN.)
);
#1163=(
NAMED_UNIT(*)
SI_UNIT($,.STERADIAN.)
SOLID_ANGLE_UNIT()
);
#1164=SHAPE_DEFINITION_REPRESENTATION(#1165,#1166);
#1165=PRODUCT_DEFINITION_SHAPE('',$,#1168);
#1166=SHAPE_REPRESENTATION('',(#704),#1158);
#1167=PRODUCT_DEFINITION_CONTEXT('part definition',#1172,'design');
#1168=PRODUCT_DEFINITION('Servo horn attachment small TPU',
'Servo horn attachment small TPU',#1169,#1167);
#1169=PRODUCT_DEFINITION_FORMATION('',$,#1174);
#1170=PRODUCT_RELATED_PRODUCT_CATEGORY(
'Servo horn attachment small TPU','Servo horn attachment small TPU',(#1174));
#1171=APPLICATION_PROTOCOL_DEFINITION('international standard',
'automotive_design',2009,#1172);
#1172=APPLICATION_CONTEXT(
'Core Data for Automotive Mechanical Design Process');
#1173=PRODUCT_CONTEXT('part definition',#1172,'mechanical');
#1174=PRODUCT('Servo horn attachment small TPU',
'Servo horn attachment small TPU',$,(#1173));
#1175=PRESENTATION_STYLE_ASSIGNMENT((#1176));
#1176=SURFACE_STYLE_USAGE(.BOTH.,#1177);
#1177=SURFACE_SIDE_STYLE('',(#1178));
#1178=SURFACE_STYLE_FILL_AREA(#1179);
#1179=FILL_AREA_STYLE('Stahl - satiniert',(#1180));
#1180=FILL_AREA_STYLE_COLOUR('Stahl - satiniert',#1181);
#1181=COLOUR_RGB('Stahl - satiniert',0.627450980392157,0.627450980392157,
0.627450980392157);
ENDSEC;
END-ISO-10303-21;
