ISO-10303-21;
HEADER;
/* Generated by software containing ST-Developer
 * from STEP Tools, Inc. (www.steptools.com) 
 */

FILE_DESCRIPTION(
/* description */ (''),
/* implementation_level */ '2;1');

FILE_NAME(
/* name */ 'Steering linkage.step',
/* time_stamp */ '2026-01-02T21:52:08+01:00',
/* author */ (''),
/* organization */ (''),
/* preprocessor_version */ 'ST-DEVELOPER v20.1',
/* originating_system */ 'Autodesk Translation Framework v14.21.0.0',
/* authorisation */ '');

FILE_SCHEMA (('AUTOMOTIVE_DESIGN { 1 0 10303 214 3 1 1 }'));
ENDSEC;

DATA;
#10=MECHANICAL_DESIGN_GEOMETRIC_PRESENTATION_REPRESENTATION('',(#13),#722);
#11=SHAPE_REPRESENTATION_RELATIONSHIP('SRR','None',#729,#12);
#12=ADVANCED_BREP_SHAPE_REPRESENTATION('',(#14),#721);
#13=STYLED_ITEM('',(#738),#14);
#14=MANIFOLD_SOLID_BREP('K\X\F6rper1',#403);
#15=FACE_BOUND('',#124,.T.);
#16=FACE_BOUND('',#126,.T.);
#17=FACE_BOUND('',#142,.T.);
#18=FACE_BOUND('',#143,.T.);
#19=FACE_BOUND('',#144,.T.);
#20=FACE_BOUND('',#146,.T.);
#21=PLANE('',#429);
#22=PLANE('',#431);
#23=PLANE('',#440);
#24=PLANE('',#444);
#25=PLANE('',#445);
#26=PLANE('',#446);
#27=PLANE('',#450);
#28=PLANE('',#451);
#29=PLANE('',#452);
#30=PLANE('',#456);
#31=PLANE('',#457);
#32=PLANE('',#458);
#33=LINE('',#605,#61);
#34=LINE('',#608,#62);
#35=LINE('',#640,#63);
#36=LINE('',#643,#64);
#37=LINE('',#653,#65);
#38=LINE('',#659,#66);
#39=LINE('',#663,#67);
#40=LINE('',#668,#68);
#41=LINE('',#670,#69);
#42=LINE('',#672,#70);
#43=LINE('',#673,#71);
#44=LINE('',#678,#72);
#45=LINE('',#680,#73);
#46=LINE('',#683,#74);
#47=LINE('',#684,#75);
#48=LINE('',#687,#76);
#49=LINE('',#689,#77);
#50=LINE('',#690,#78);
#51=LINE('',#696,#79);
#52=LINE('',#698,#80);
#53=LINE('',#700,#81);
#54=LINE('',#701,#82);
#55=LINE('',#703,#83);
#56=LINE('',#706,#84);
#57=LINE('',#707,#85);
#58=LINE('',#713,#86);
#59=LINE('',#715,#87);
#60=LINE('',#716,#88);
#61=VECTOR('',#469,10.);
#62=VECTOR('',#472,10.);
#63=VECTOR('',#483,10.);
#64=VECTOR('',#486,10.);
#65=VECTOR('',#499,1.60000000000001);
#66=VECTOR('',#506,1.6);
#67=VECTOR('',#511,1.60000000000001);
#68=VECTOR('',#516,10.);
#69=VECTOR('',#517,10.);
#70=VECTOR('',#518,10.);
#71=VECTOR('',#519,10.);
#72=VECTOR('',#526,10.);
#73=VECTOR('',#529,10.);
#74=VECTOR('',#532,10.);
#75=VECTOR('',#533,10.);
#76=VECTOR('',#536,10.);
#77=VECTOR('',#537,10.);
#78=VECTOR('',#538,10.);
#79=VECTOR('',#545,10.);
#80=VECTOR('',#548,10.);
#81=VECTOR('',#549,10.);
#82=VECTOR('',#550,10.);
#83=VECTOR('',#553,10.);
#84=VECTOR('',#556,10.);
#85=VECTOR('',#557,10.);
#86=VECTOR('',#564,10.);
#87=VECTOR('',#567,10.);
#88=VECTOR('',#568,10.);
#89=CYLINDRICAL_SURFACE('',#420,3.99999999999999);
#90=CYLINDRICAL_SURFACE('',#426,3.99999999999999);
#91=CYLINDRICAL_SURFACE('',#433,1.60000000000001);
#92=CYLINDRICAL_SURFACE('',#435,1.6);
#93=CYLINDRICAL_SURFACE('',#438,1.60000000000001);
#94=CYLINDRICAL_SURFACE('',#441,4.);
#95=CYLINDRICAL_SURFACE('',#447,4.);
#96=CYLINDRICAL_SURFACE('',#453,4.);
#97=FACE_OUTER_BOUND('',#119,.T.);
#98=FACE_OUTER_BOUND('',#120,.T.);
#99=FACE_OUTER_BOUND('',#121,.T.);
#100=FACE_OUTER_BOUND('',#122,.T.);
#101=FACE_OUTER_BOUND('',#123,.T.);
#102=FACE_OUTER_BOUND('',#125,.T.);
#103=FACE_OUTER_BOUND('',#127,.T.);
#104=FACE_OUTER_BOUND('',#128,.T.);
#105=FACE_OUTER_BOUND('',#129,.T.);
#106=FACE_OUTER_BOUND('',#130,.T.);
#107=FACE_OUTER_BOUND('',#131,.T.);
#108=FACE_OUTER_BOUND('',#132,.T.);
#109=FACE_OUTER_BOUND('',#133,.T.);
#110=FACE_OUTER_BOUND('',#134,.T.);
#111=FACE_OUTER_BOUND('',#135,.T.);
#112=FACE_OUTER_BOUND('',#136,.T.);
#113=FACE_OUTER_BOUND('',#137,.T.);
#114=FACE_OUTER_BOUND('',#138,.T.);
#115=FACE_OUTER_BOUND('',#139,.T.);
#116=FACE_OUTER_BOUND('',#140,.T.);
#117=FACE_OUTER_BOUND('',#141,.T.);
#118=FACE_OUTER_BOUND('',#145,.T.);
#119=EDGE_LOOP('',(#267,#268,#269,#270,#271,#272));
#120=EDGE_LOOP('',(#273,#274,#275,#276));
#121=EDGE_LOOP('',(#277,#278,#279,#280,#281,#282));
#122=EDGE_LOOP('',(#283,#284,#285,#286));
#123=EDGE_LOOP('',(#287,#288));
#124=EDGE_LOOP('',(#289));
#125=EDGE_LOOP('',(#290,#291));
#126=EDGE_LOOP('',(#292));
#127=EDGE_LOOP('',(#293,#294,#295,#296));
#128=EDGE_LOOP('',(#297,#298,#299,#300));
#129=EDGE_LOOP('',(#301,#302,#303,#304));
#130=EDGE_LOOP('',(#305,#306,#307,#308));
#131=EDGE_LOOP('',(#309,#310,#311,#312,#313));
#132=EDGE_LOOP('',(#314,#315,#316,#317));
#133=EDGE_LOOP('',(#318,#319,#320,#321));
#134=EDGE_LOOP('',(#322,#323,#324,#325,#326));
#135=EDGE_LOOP('',(#327,#328,#329,#330));
#136=EDGE_LOOP('',(#331,#332,#333,#334,#335));
#137=EDGE_LOOP('',(#336,#337,#338,#339));
#138=EDGE_LOOP('',(#340,#341,#342,#343));
#139=EDGE_LOOP('',(#344,#345,#346,#347,#348));
#140=EDGE_LOOP('',(#349,#350,#351,#352));
#141=EDGE_LOOP('',(#353,#354,#355,#356,#357,#358,#359,#360,#361,#362,#363,
#364,#365));
#142=EDGE_LOOP('',(#366));
#143=EDGE_LOOP('',(#367));
#144=EDGE_LOOP('',(#368));
#145=EDGE_LOOP('',(#369,#370,#371,#372,#373,#374,#375,#376,#377));
#146=EDGE_LOOP('',(#378));
#147=(
BOUNDED_CURVE()
B_SPLINE_CURVE(2,(#590,#591,#592,#593),.UNSPECIFIED.,.F.,.F.)
B_SPLINE_CURVE_WITH_KNOTS((3,1,3),(0.1402258817362,0.144333898176531,0.402391543676179),
 .UNSPECIFIED.)
CURVE()
GEOMETRIC_REPRESENTATION_ITEM()
RATIONAL_B_SPLINE_CURVE((1.96088316418745,1.97454293594765,2.84473098928711,
3.60530808303814))
REPRESENTATION_ITEM('')
);
#148=(
BOUNDED_CURVE()
B_SPLINE_CURVE(2,(#595,#596,#597),.UNSPECIFIED.,.F.,.F.)
B_SPLINE_CURVE_WITH_KNOTS((3,3),(1.74788609059124,2.21648370172219),
 .UNSPECIFIED.)
CURVE()
GEOMETRIC_REPRESENTATION_ITEM()
RATIONAL_B_SPLINE_CURVE((2.6478989743128,2.72500000000019,2.72500000000022))
REPRESENTATION_ITEM('')
);
#149=(
BOUNDED_CURVE()
B_SPLINE_CURVE(2,(#600,#601,#602),.UNSPECIFIED.,.F.,.F.)
B_SPLINE_CURVE_WITH_KNOTS((3,3),(2.21648370172237,3.55541861191457),
 .UNSPECIFIED.)
CURVE()
GEOMETRIC_REPRESENTATION_ITEM()
RATIONAL_B_SPLINE_CURVE((2.72500000000023,2.72500000000022,2.09552433506647))
REPRESENTATION_ITEM('')
);
#150=(
BOUNDED_CURVE()
B_SPLINE_CURVE(2,(#613,#614,#615),.UNSPECIFIED.,.F.,.F.)
B_SPLINE_CURVE_WITH_KNOTS((3,3),(4.49245025341797,4.75461591535969),
 .UNSPECIFIED.)
CURVE()
GEOMETRIC_REPRESENTATION_ITEM()
RATIONAL_B_SPLINE_CURVE((3.60530808304844,2.83262337202309,1.96088316418747))
REPRESENTATION_ITEM('')
);
#151=(
BOUNDED_CURVE()
B_SPLINE_CURVE(2,(#630,#631,#632),.UNSPECIFIED.,.F.,.F.)
B_SPLINE_CURVE_WITH_KNOTS((3,3),(0.877548791360257,2.21648370172219),
 .UNSPECIFIED.)
CURVE()
GEOMETRIC_REPRESENTATION_ITEM()
RATIONAL_B_SPLINE_CURVE((2.09552433490674,2.72500000000018,2.72500000000027))
REPRESENTATION_ITEM('')
);
#152=(
BOUNDED_CURVE()
B_SPLINE_CURVE(2,(#635,#636,#637),.UNSPECIFIED.,.F.,.F.)
B_SPLINE_CURVE_WITH_KNOTS((3,3),(2.2164837017224,2.68508131285218),
 .UNSPECIFIED.)
CURVE()
GEOMETRIC_REPRESENTATION_ITEM()
RATIONAL_B_SPLINE_CURVE((2.72500000000029,2.72500000000029,2.64789897431331))
REPRESENTATION_ITEM('')
);
#153=CIRCLE('',#418,8.60000000000037);
#154=CIRCLE('',#419,3.99999999999999);
#155=CIRCLE('',#421,3.99999999999999);
#156=CIRCLE('',#422,3.99999999999999);
#157=CIRCLE('',#424,8.60000000000043);
#158=CIRCLE('',#425,3.99999999999999);
#159=CIRCLE('',#427,3.99999999999999);
#160=CIRCLE('',#428,3.99999999999999);
#161=CIRCLE('',#430,1.6);
#162=CIRCLE('',#432,1.60000000000001);
#163=CIRCLE('',#434,1.60000000000001);
#164=CIRCLE('',#436,1.6);
#165=CIRCLE('',#437,1.6);
#166=CIRCLE('',#439,1.60000000000001);
#167=CIRCLE('',#442,4.);
#168=CIRCLE('',#443,4.);
#169=CIRCLE('',#448,4.);
#170=CIRCLE('',#449,4.);
#171=CIRCLE('',#454,4.);
#172=CIRCLE('',#455,4.);
#173=B_SPLINE_CURVE_WITH_KNOTS('',3,(#577,#578,#579,#580,#581,#582,#583,
#584,#585,#586),.UNSPECIFIED.,.F.,.F.,(4,2,2,2,4),(1.38720541935831,1.3878978632809,
1.5251736737619,1.66244948424289,1.81918436692801),.UNSPECIFIED.);
#174=B_SPLINE_CURVE_WITH_KNOTS('',3,(#619,#620,#621,#622,#623,#624,#625,
#626,#627,#628),.UNSPECIFIED.,.F.,.F.,(4,2,2,2,4),(0.487640679525606,0.644375562104206,
0.7816513725852,0.918927183066193,0.919619626988842),.UNSPECIFIED.);
#175=VERTEX_POINT('',#575);
#176=VERTEX_POINT('',#576);
#177=VERTEX_POINT('',#587);
#178=VERTEX_POINT('',#589);
#179=VERTEX_POINT('',#594);
#180=VERTEX_POINT('',#598);
#181=VERTEX_POINT('',#604);
#182=VERTEX_POINT('',#607);
#183=VERTEX_POINT('',#611);
#184=VERTEX_POINT('',#612);
#185=VERTEX_POINT('',#616);
#186=VERTEX_POINT('',#618);
#187=VERTEX_POINT('',#629);
#188=VERTEX_POINT('',#633);
#189=VERTEX_POINT('',#639);
#190=VERTEX_POINT('',#642);
#191=VERTEX_POINT('',#646);
#192=VERTEX_POINT('',#649);
#193=VERTEX_POINT('',#652);
#194=VERTEX_POINT('',#656);
#195=VERTEX_POINT('',#658);
#196=VERTEX_POINT('',#662);
#197=VERTEX_POINT('',#666);
#198=VERTEX_POINT('',#667);
#199=VERTEX_POINT('',#669);
#200=VERTEX_POINT('',#671);
#201=VERTEX_POINT('',#676);
#202=VERTEX_POINT('',#682);
#203=VERTEX_POINT('',#686);
#204=VERTEX_POINT('',#688);
#205=VERTEX_POINT('',#692);
#206=VERTEX_POINT('',#694);
#207=VERTEX_POINT('',#699);
#208=VERTEX_POINT('',#705);
#209=VERTEX_POINT('',#709);
#210=VERTEX_POINT('',#711);
#211=EDGE_CURVE('',#175,#176,#173,.T.);
#212=EDGE_CURVE('',#175,#177,#153,.T.);
#213=EDGE_CURVE('',#178,#177,#147,.F.);
#214=EDGE_CURVE('',#179,#178,#148,.F.);
#215=EDGE_CURVE('',#180,#179,#154,.T.);
#216=EDGE_CURVE('',#180,#176,#149,.T.);
#217=EDGE_CURVE('',#180,#181,#33,.T.);
#218=EDGE_CURVE('',#179,#180,#155,.T.);
#219=EDGE_CURVE('',#179,#182,#34,.T.);
#220=EDGE_CURVE('',#181,#182,#156,.T.);
#221=EDGE_CURVE('',#183,#184,#150,.F.);
#222=EDGE_CURVE('',#183,#185,#157,.T.);
#223=EDGE_CURVE('',#186,#185,#174,.T.);
#224=EDGE_CURVE('',#187,#186,#151,.F.);
#225=EDGE_CURVE('',#188,#187,#158,.T.);
#226=EDGE_CURVE('',#184,#188,#152,.F.);
#227=EDGE_CURVE('',#188,#189,#35,.T.);
#228=EDGE_CURVE('',#187,#188,#159,.T.);
#229=EDGE_CURVE('',#187,#190,#36,.T.);
#230=EDGE_CURVE('',#189,#190,#160,.T.);
#231=EDGE_CURVE('',#191,#191,#161,.T.);
#232=EDGE_CURVE('',#192,#192,#162,.T.);
#233=EDGE_CURVE('',#192,#193,#37,.T.);
#234=EDGE_CURVE('',#193,#193,#163,.T.);
#235=EDGE_CURVE('',#194,#194,#164,.T.);
#236=EDGE_CURVE('',#194,#195,#38,.T.);
#237=EDGE_CURVE('',#195,#195,#165,.T.);
#238=EDGE_CURVE('',#191,#196,#39,.T.);
#239=EDGE_CURVE('',#196,#196,#166,.T.);
#240=EDGE_CURVE('',#197,#198,#40,.T.);
#241=EDGE_CURVE('',#197,#199,#41,.T.);
#242=EDGE_CURVE('',#200,#199,#42,.T.);
#243=EDGE_CURVE('',#198,#200,#43,.T.);
#244=EDGE_CURVE('',#185,#198,#167,.T.);
#245=EDGE_CURVE('',#201,#200,#168,.T.);
#246=EDGE_CURVE('',#186,#201,#44,.T.);
#247=EDGE_CURVE('',#190,#201,#45,.T.);
#248=EDGE_CURVE('',#202,#189,#46,.T.);
#249=EDGE_CURVE('',#184,#202,#47,.T.);
#250=EDGE_CURVE('',#203,#202,#48,.T.);
#251=EDGE_CURVE('',#204,#203,#49,.T.);
#252=EDGE_CURVE('',#183,#204,#50,.T.);
#253=EDGE_CURVE('',#205,#204,#169,.T.);
#254=EDGE_CURVE('',#206,#203,#170,.T.);
#255=EDGE_CURVE('',#205,#206,#51,.T.);
#256=EDGE_CURVE('',#177,#205,#52,.T.);
#257=EDGE_CURVE('',#207,#206,#53,.T.);
#258=EDGE_CURVE('',#178,#207,#54,.T.);
#259=EDGE_CURVE('',#182,#207,#55,.T.);
#260=EDGE_CURVE('',#208,#181,#56,.T.);
#261=EDGE_CURVE('',#176,#208,#57,.T.);
#262=EDGE_CURVE('',#209,#175,#171,.T.);
#263=EDGE_CURVE('',#210,#208,#172,.T.);
#264=EDGE_CURVE('',#209,#210,#58,.T.);
#265=EDGE_CURVE('',#197,#209,#59,.T.);
#266=EDGE_CURVE('',#199,#210,#60,.T.);
#267=ORIENTED_EDGE('',*,*,#211,.F.);
#268=ORIENTED_EDGE('',*,*,#212,.T.);
#269=ORIENTED_EDGE('',*,*,#213,.F.);
#270=ORIENTED_EDGE('',*,*,#214,.F.);
#271=ORIENTED_EDGE('',*,*,#215,.F.);
#272=ORIENTED_EDGE('',*,*,#216,.T.);
#273=ORIENTED_EDGE('',*,*,#217,.F.);
#274=ORIENTED_EDGE('',*,*,#218,.F.);
#275=ORIENTED_EDGE('',*,*,#219,.T.);
#276=ORIENTED_EDGE('',*,*,#220,.F.);
#277=ORIENTED_EDGE('',*,*,#221,.F.);
#278=ORIENTED_EDGE('',*,*,#222,.T.);
#279=ORIENTED_EDGE('',*,*,#223,.F.);
#280=ORIENTED_EDGE('',*,*,#224,.F.);
#281=ORIENTED_EDGE('',*,*,#225,.F.);
#282=ORIENTED_EDGE('',*,*,#226,.F.);
#283=ORIENTED_EDGE('',*,*,#227,.F.);
#284=ORIENTED_EDGE('',*,*,#228,.F.);
#285=ORIENTED_EDGE('',*,*,#229,.T.);
#286=ORIENTED_EDGE('',*,*,#230,.F.);
#287=ORIENTED_EDGE('',*,*,#228,.T.);
#288=ORIENTED_EDGE('',*,*,#225,.T.);
#289=ORIENTED_EDGE('',*,*,#231,.T.);
#290=ORIENTED_EDGE('',*,*,#218,.T.);
#291=ORIENTED_EDGE('',*,*,#215,.T.);
#292=ORIENTED_EDGE('',*,*,#232,.T.);
#293=ORIENTED_EDGE('',*,*,#232,.F.);
#294=ORIENTED_EDGE('',*,*,#233,.T.);
#295=ORIENTED_EDGE('',*,*,#234,.F.);
#296=ORIENTED_EDGE('',*,*,#233,.F.);
#297=ORIENTED_EDGE('',*,*,#235,.T.);
#298=ORIENTED_EDGE('',*,*,#236,.T.);
#299=ORIENTED_EDGE('',*,*,#237,.F.);
#300=ORIENTED_EDGE('',*,*,#236,.F.);
#301=ORIENTED_EDGE('',*,*,#231,.F.);
#302=ORIENTED_EDGE('',*,*,#238,.T.);
#303=ORIENTED_EDGE('',*,*,#239,.F.);
#304=ORIENTED_EDGE('',*,*,#238,.F.);
#305=ORIENTED_EDGE('',*,*,#240,.F.);
#306=ORIENTED_EDGE('',*,*,#241,.T.);
#307=ORIENTED_EDGE('',*,*,#242,.F.);
#308=ORIENTED_EDGE('',*,*,#243,.F.);
#309=ORIENTED_EDGE('',*,*,#244,.T.);
#310=ORIENTED_EDGE('',*,*,#243,.T.);
#311=ORIENTED_EDGE('',*,*,#245,.F.);
#312=ORIENTED_EDGE('',*,*,#246,.F.);
#313=ORIENTED_EDGE('',*,*,#223,.T.);
#314=ORIENTED_EDGE('',*,*,#246,.T.);
#315=ORIENTED_EDGE('',*,*,#247,.F.);
#316=ORIENTED_EDGE('',*,*,#229,.F.);
#317=ORIENTED_EDGE('',*,*,#224,.T.);
#318=ORIENTED_EDGE('',*,*,#227,.T.);
#319=ORIENTED_EDGE('',*,*,#248,.F.);
#320=ORIENTED_EDGE('',*,*,#249,.F.);
#321=ORIENTED_EDGE('',*,*,#226,.T.);
#322=ORIENTED_EDGE('',*,*,#249,.T.);
#323=ORIENTED_EDGE('',*,*,#250,.F.);
#324=ORIENTED_EDGE('',*,*,#251,.F.);
#325=ORIENTED_EDGE('',*,*,#252,.F.);
#326=ORIENTED_EDGE('',*,*,#221,.T.);
#327=ORIENTED_EDGE('',*,*,#253,.T.);
#328=ORIENTED_EDGE('',*,*,#251,.T.);
#329=ORIENTED_EDGE('',*,*,#254,.F.);
#330=ORIENTED_EDGE('',*,*,#255,.F.);
#331=ORIENTED_EDGE('',*,*,#256,.T.);
#332=ORIENTED_EDGE('',*,*,#255,.T.);
#333=ORIENTED_EDGE('',*,*,#257,.F.);
#334=ORIENTED_EDGE('',*,*,#258,.F.);
#335=ORIENTED_EDGE('',*,*,#213,.T.);
#336=ORIENTED_EDGE('',*,*,#258,.T.);
#337=ORIENTED_EDGE('',*,*,#259,.F.);
#338=ORIENTED_EDGE('',*,*,#219,.F.);
#339=ORIENTED_EDGE('',*,*,#214,.T.);
#340=ORIENTED_EDGE('',*,*,#217,.T.);
#341=ORIENTED_EDGE('',*,*,#260,.F.);
#342=ORIENTED_EDGE('',*,*,#261,.F.);
#343=ORIENTED_EDGE('',*,*,#216,.F.);
#344=ORIENTED_EDGE('',*,*,#262,.T.);
#345=ORIENTED_EDGE('',*,*,#211,.T.);
#346=ORIENTED_EDGE('',*,*,#261,.T.);
#347=ORIENTED_EDGE('',*,*,#263,.F.);
#348=ORIENTED_EDGE('',*,*,#264,.F.);
#349=ORIENTED_EDGE('',*,*,#265,.T.);
#350=ORIENTED_EDGE('',*,*,#264,.T.);
#351=ORIENTED_EDGE('',*,*,#266,.F.);
#352=ORIENTED_EDGE('',*,*,#241,.F.);
#353=ORIENTED_EDGE('',*,*,#266,.T.);
#354=ORIENTED_EDGE('',*,*,#263,.T.);
#355=ORIENTED_EDGE('',*,*,#260,.T.);
#356=ORIENTED_EDGE('',*,*,#220,.T.);
#357=ORIENTED_EDGE('',*,*,#259,.T.);
#358=ORIENTED_EDGE('',*,*,#257,.T.);
#359=ORIENTED_EDGE('',*,*,#254,.T.);
#360=ORIENTED_EDGE('',*,*,#250,.T.);
#361=ORIENTED_EDGE('',*,*,#248,.T.);
#362=ORIENTED_EDGE('',*,*,#230,.T.);
#363=ORIENTED_EDGE('',*,*,#247,.T.);
#364=ORIENTED_EDGE('',*,*,#245,.T.);
#365=ORIENTED_EDGE('',*,*,#242,.T.);
#366=ORIENTED_EDGE('',*,*,#239,.T.);
#367=ORIENTED_EDGE('',*,*,#237,.T.);
#368=ORIENTED_EDGE('',*,*,#234,.T.);
#369=ORIENTED_EDGE('',*,*,#212,.F.);
#370=ORIENTED_EDGE('',*,*,#262,.F.);
#371=ORIENTED_EDGE('',*,*,#265,.F.);
#372=ORIENTED_EDGE('',*,*,#240,.T.);
#373=ORIENTED_EDGE('',*,*,#244,.F.);
#374=ORIENTED_EDGE('',*,*,#222,.F.);
#375=ORIENTED_EDGE('',*,*,#252,.T.);
#376=ORIENTED_EDGE('',*,*,#253,.F.);
#377=ORIENTED_EDGE('',*,*,#256,.F.);
#378=ORIENTED_EDGE('',*,*,#235,.F.);
#379=CONICAL_SURFACE('',#417,6.30000000000018,0.785398163397489);
#380=CONICAL_SURFACE('',#423,6.30000000000021,0.785398163397496);
#381=ADVANCED_FACE('',(#97),#379,.T.);
#382=ADVANCED_FACE('',(#98),#89,.T.);
#383=ADVANCED_FACE('',(#99),#380,.T.);
#384=ADVANCED_FACE('',(#100),#90,.T.);
#385=ADVANCED_FACE('',(#101,#15),#21,.T.);
#386=ADVANCED_FACE('',(#102,#16),#22,.T.);
#387=ADVANCED_FACE('',(#103),#91,.F.);
#388=ADVANCED_FACE('',(#104),#92,.F.);
#389=ADVANCED_FACE('',(#105),#93,.F.);
#390=ADVANCED_FACE('',(#106),#23,.T.);
#391=ADVANCED_FACE('',(#107),#94,.T.);
#392=ADVANCED_FACE('',(#108),#24,.T.);
#393=ADVANCED_FACE('',(#109),#25,.T.);
#394=ADVANCED_FACE('',(#110),#26,.T.);
#395=ADVANCED_FACE('',(#111),#95,.T.);
#396=ADVANCED_FACE('',(#112),#27,.T.);
#397=ADVANCED_FACE('',(#113),#28,.T.);
#398=ADVANCED_FACE('',(#114),#29,.T.);
#399=ADVANCED_FACE('',(#115),#96,.T.);
#400=ADVANCED_FACE('',(#116),#30,.T.);
#401=ADVANCED_FACE('',(#117,#17,#18,#19),#31,.T.);
#402=ADVANCED_FACE('',(#118,#20),#32,.F.);
#403=CLOSED_SHELL('',(#381,#382,#383,#384,#385,#386,#387,#388,#389,#390,
#391,#392,#393,#394,#395,#396,#397,#398,#399,#400,#401,#402));
#404=DERIVED_UNIT_ELEMENT(#406,1.);
#405=DERIVED_UNIT_ELEMENT(#724,-3.);
#406=(
MASS_UNIT()
NAMED_UNIT(*)
SI_UNIT(.KILO.,.GRAM.)
);
#407=DERIVED_UNIT((#404,#405));
#408=MEASURE_REPRESENTATION_ITEM('density measure',
POSITIVE_RATIO_MEASURE(7850.),#407);
#409=PROPERTY_DEFINITION_REPRESENTATION(#414,#411);
#410=PROPERTY_DEFINITION_REPRESENTATION(#415,#412);
#411=REPRESENTATION('material name',(#413),#721);
#412=REPRESENTATION('density',(#408),#721);
#413=DESCRIPTIVE_REPRESENTATION_ITEM('Stahl','Stahl');
#414=PROPERTY_DEFINITION('material property','material name',#731);
#415=PROPERTY_DEFINITION('material property','density of part',#731);
#416=AXIS2_PLACEMENT_3D('',#573,#459,#460);
#417=AXIS2_PLACEMENT_3D('',#574,#461,#462);
#418=AXIS2_PLACEMENT_3D('',#588,#463,#464);
#419=AXIS2_PLACEMENT_3D('',#599,#465,#466);
#420=AXIS2_PLACEMENT_3D('',#603,#467,#468);
#421=AXIS2_PLACEMENT_3D('',#606,#470,#471);
#422=AXIS2_PLACEMENT_3D('',#609,#473,#474);
#423=AXIS2_PLACEMENT_3D('',#610,#475,#476);
#424=AXIS2_PLACEMENT_3D('',#617,#477,#478);
#425=AXIS2_PLACEMENT_3D('',#634,#479,#480);
#426=AXIS2_PLACEMENT_3D('',#638,#481,#482);
#427=AXIS2_PLACEMENT_3D('',#641,#484,#485);
#428=AXIS2_PLACEMENT_3D('',#644,#487,#488);
#429=AXIS2_PLACEMENT_3D('',#645,#489,#490);
#430=AXIS2_PLACEMENT_3D('',#647,#491,#492);
#431=AXIS2_PLACEMENT_3D('',#648,#493,#494);
#432=AXIS2_PLACEMENT_3D('',#650,#495,#496);
#433=AXIS2_PLACEMENT_3D('',#651,#497,#498);
#434=AXIS2_PLACEMENT_3D('',#654,#500,#501);
#435=AXIS2_PLACEMENT_3D('',#655,#502,#503);
#436=AXIS2_PLACEMENT_3D('',#657,#504,#505);
#437=AXIS2_PLACEMENT_3D('',#660,#507,#508);
#438=AXIS2_PLACEMENT_3D('',#661,#509,#510);
#439=AXIS2_PLACEMENT_3D('',#664,#512,#513);
#440=AXIS2_PLACEMENT_3D('',#665,#514,#515);
#441=AXIS2_PLACEMENT_3D('',#674,#520,#521);
#442=AXIS2_PLACEMENT_3D('',#675,#522,#523);
#443=AXIS2_PLACEMENT_3D('',#677,#524,#525);
#444=AXIS2_PLACEMENT_3D('',#679,#527,#528);
#445=AXIS2_PLACEMENT_3D('',#681,#530,#531);
#446=AXIS2_PLACEMENT_3D('',#685,#534,#535);
#447=AXIS2_PLACEMENT_3D('',#691,#539,#540);
#448=AXIS2_PLACEMENT_3D('',#693,#541,#542);
#449=AXIS2_PLACEMENT_3D('',#695,#543,#544);
#450=AXIS2_PLACEMENT_3D('',#697,#546,#547);
#451=AXIS2_PLACEMENT_3D('',#702,#551,#552);
#452=AXIS2_PLACEMENT_3D('',#704,#554,#555);
#453=AXIS2_PLACEMENT_3D('',#708,#558,#559);
#454=AXIS2_PLACEMENT_3D('',#710,#560,#561);
#455=AXIS2_PLACEMENT_3D('',#712,#562,#563);
#456=AXIS2_PLACEMENT_3D('',#714,#565,#566);
#457=AXIS2_PLACEMENT_3D('',#717,#569,#570);
#458=AXIS2_PLACEMENT_3D('',#718,#571,#572);
#459=DIRECTION('axis',(0.,0.,1.));
#460=DIRECTION('refdir',(1.,0.,0.));
#461=DIRECTION('center_axis',(0.,0.,1.));
#462=DIRECTION('ref_axis',(0.225189131146831,0.974315069786635,0.));
#463=DIRECTION('center_axis',(0.,0.,-1.));
#464=DIRECTION('ref_axis',(0.225189131146831,0.974315069786635,0.));
#465=DIRECTION('center_axis',(0.,0.,-1.));
#466=DIRECTION('ref_axis',(1.,0.,0.));
#467=DIRECTION('center_axis',(0.,0.,1.));
#468=DIRECTION('ref_axis',(0.225189131146831,0.974315069786635,0.));
#469=DIRECTION('',(0.,0.,1.));
#470=DIRECTION('center_axis',(0.,0.,-1.));
#471=DIRECTION('ref_axis',(1.,0.,0.));
#472=DIRECTION('',(0.,0.,1.));
#473=DIRECTION('center_axis',(0.,0.,1.));
#474=DIRECTION('ref_axis',(0.225189131146831,0.974315069786635,0.));
#475=DIRECTION('center_axis',(0.,0.,1.));
#476=DIRECTION('ref_axis',(-0.225189131146831,0.974315069786635,0.));
#477=DIRECTION('center_axis',(0.,0.,-1.));
#478=DIRECTION('ref_axis',(-0.225189131146831,0.974315069786635,0.));
#479=DIRECTION('center_axis',(0.,0.,-1.));
#480=DIRECTION('ref_axis',(1.,0.,0.));
#481=DIRECTION('center_axis',(0.,0.,1.));
#482=DIRECTION('ref_axis',(-0.225189131146831,0.974315069786635,0.));
#483=DIRECTION('',(0.,0.,1.));
#484=DIRECTION('center_axis',(0.,0.,-1.));
#485=DIRECTION('ref_axis',(1.,0.,0.));
#486=DIRECTION('',(0.,0.,1.));
#487=DIRECTION('center_axis',(0.,0.,1.));
#488=DIRECTION('ref_axis',(-0.225189131146831,0.974315069786635,0.));
#489=DIRECTION('center_axis',(-1.20093604362869E-32,-2.77567034128785E-33,
-1.));
#490=DIRECTION('ref_axis',(1.,0.,-1.20093604362869E-32));
#491=DIRECTION('center_axis',(2.73691106313441E-48,-1.23259516440783E-32,
1.));
#492=DIRECTION('ref_axis',(1.,0.,-2.73691106313441E-48));
#493=DIRECTION('center_axis',(-1.20093604362869E-32,2.77567034128784E-33,
-1.));
#494=DIRECTION('ref_axis',(1.,0.,-1.20093604362869E-32));
#495=DIRECTION('center_axis',(2.73691106313441E-48,-1.23259516440783E-32,
1.));
#496=DIRECTION('ref_axis',(1.,0.,-2.73691106313441E-48));
#497=DIRECTION('center_axis',(0.,0.,1.));
#498=DIRECTION('ref_axis',(-1.,0.,0.));
#499=DIRECTION('',(0.,0.,1.));
#500=DIRECTION('center_axis',(0.,0.,-1.));
#501=DIRECTION('ref_axis',(-1.,0.,0.));
#502=DIRECTION('center_axis',(0.,0.,1.));
#503=DIRECTION('ref_axis',(-1.,0.,0.));
#504=DIRECTION('center_axis',(0.,0.,-1.));
#505=DIRECTION('ref_axis',(-1.,0.,0.));
#506=DIRECTION('',(0.,0.,1.));
#507=DIRECTION('center_axis',(0.,0.,-1.));
#508=DIRECTION('ref_axis',(-1.,0.,0.));
#509=DIRECTION('center_axis',(0.,0.,1.));
#510=DIRECTION('ref_axis',(-1.,0.,0.));
#511=DIRECTION('',(0.,0.,1.));
#512=DIRECTION('center_axis',(0.,0.,-1.));
#513=DIRECTION('ref_axis',(-1.,0.,0.));
#514=DIRECTION('center_axis',(0.992053765733512,0.125814648964091,0.));
#515=DIRECTION('ref_axis',(-0.125814648964091,0.992053765733512,0.));
#516=DIRECTION('',(0.125814648964091,-0.992053765733512,0.));
#517=DIRECTION('',(0.,0.,1.));
#518=DIRECTION('',(-0.125814648964091,0.992053765733512,0.));
#519=DIRECTION('',(0.,0.,1.));
#520=DIRECTION('center_axis',(0.,0.,1.));
#521=DIRECTION('ref_axis',(-0.992053765733512,-0.125814648964093,0.));
#522=DIRECTION('center_axis',(0.,0.,1.));
#523=DIRECTION('ref_axis',(-0.992053765733512,-0.125814648964093,0.));
#524=DIRECTION('center_axis',(0.,0.,1.));
#525=DIRECTION('ref_axis',(-0.992053765733512,-0.125814648964093,0.));
#526=DIRECTION('',(0.,0.,1.));
#527=DIRECTION('center_axis',(0.225189131146831,-0.974315069786635,0.));
#528=DIRECTION('ref_axis',(0.974315069786635,0.225189131146831,0.));
#529=DIRECTION('',(0.974315069786635,0.225189131146831,0.));
#530=DIRECTION('center_axis',(-0.225189131146831,0.974315069786635,0.));
#531=DIRECTION('ref_axis',(-0.974315069786635,-0.225189131146831,0.));
#532=DIRECTION('',(-0.974315069786635,-0.225189131146831,0.));
#533=DIRECTION('',(0.,0.,1.));
#534=DIRECTION('center_axis',(-0.992053765733512,-0.125814648964091,0.));
#535=DIRECTION('ref_axis',(0.125814648964091,-0.992053765733512,0.));
#536=DIRECTION('',(0.125814648964091,-0.992053765733512,0.));
#537=DIRECTION('',(0.,0.,1.));
#538=DIRECTION('',(-0.125814648964091,0.992053765733512,0.));
#539=DIRECTION('center_axis',(0.,0.,1.));
#540=DIRECTION('ref_axis',(0.992053765733512,0.125814648964091,0.));
#541=DIRECTION('center_axis',(0.,0.,1.));
#542=DIRECTION('ref_axis',(0.992053765733512,0.125814648964091,0.));
#543=DIRECTION('center_axis',(0.,0.,1.));
#544=DIRECTION('ref_axis',(0.992053765733512,0.125814648964091,0.));
#545=DIRECTION('',(0.,0.,1.));
#546=DIRECTION('center_axis',(-0.992053765733512,0.125814648964091,0.));
#547=DIRECTION('ref_axis',(-0.125814648964091,-0.992053765733512,0.));
#548=DIRECTION('',(-0.125814648964091,-0.992053765733512,0.));
#549=DIRECTION('',(-0.125814648964091,-0.992053765733512,0.));
#550=DIRECTION('',(0.,0.,1.));
#551=DIRECTION('center_axis',(-0.225189131146831,-0.974315069786635,0.));
#552=DIRECTION('ref_axis',(0.974315069786635,-0.225189131146831,0.));
#553=DIRECTION('',(0.974315069786635,-0.225189131146831,0.));
#554=DIRECTION('center_axis',(0.225189131146831,0.974315069786635,0.));
#555=DIRECTION('ref_axis',(-0.974315069786635,0.225189131146831,0.));
#556=DIRECTION('',(-0.974315069786635,0.225189131146831,0.));
#557=DIRECTION('',(0.,0.,1.));
#558=DIRECTION('center_axis',(0.,0.,1.));
#559=DIRECTION('ref_axis',(0.992053765733513,-0.125814648964089,0.));
#560=DIRECTION('center_axis',(0.,0.,1.));
#561=DIRECTION('ref_axis',(0.992053765733513,-0.125814648964089,0.));
#562=DIRECTION('center_axis',(0.,0.,1.));
#563=DIRECTION('ref_axis',(0.992053765733513,-0.125814648964089,0.));
#564=DIRECTION('',(0.,0.,1.));
#565=DIRECTION('center_axis',(0.992053765733512,-0.125814648964091,0.));
#566=DIRECTION('ref_axis',(0.125814648964091,0.992053765733512,0.));
#567=DIRECTION('',(0.125814648964091,0.992053765733512,0.));
#568=DIRECTION('',(0.125814648964091,0.992053765733512,0.));
#569=DIRECTION('center_axis',(0.,0.,1.));
#570=DIRECTION('ref_axis',(-1.,0.,0.));
#571=DIRECTION('center_axis',(0.,0.,1.));
#572=DIRECTION('ref_axis',(-1.,0.,0.));
#573=CARTESIAN_POINT('',(0.,0.,0.));
#574=CARTESIAN_POINT('Origin',(19.5271775164304,101.696,7.39999977648105));
#575=CARTESIAN_POINT('',(28.1204547933316,102.03597888508,9.69999977648105));
#576=CARTESIAN_POINT('',(25.2995093899509,104.467314623413,7.50312401391374));
#577=CARTESIAN_POINT('Ctrl Pts',(28.1204547933314,102.03597888508,9.69999977648092));
#578=CARTESIAN_POINT('Ctrl Pts',(28.1196506137615,102.038020543141,9.69927693724906));
#579=CARTESIAN_POINT('Ctrl Pts',(28.1188452348109,102.040060319191,9.6985535738801));
#580=CARTESIAN_POINT('Ctrl Pts',(27.958137852807,102.446105749979,9.5543214569967));
#581=CARTESIAN_POINT('Ctrl Pts',(27.721303212606,102.840332191365,9.36487476463158));
#582=CARTESIAN_POINT('Ctrl Pts',(27.1485283776973,103.508121594713,8.92455976064092));
#583=CARTESIAN_POINT('Ctrl Pts',(26.8133680965414,103.782086516223,8.67328706309494));
#584=CARTESIAN_POINT('Ctrl Pts',(26.111600361881,104.211270714166,8.14056496470374));
#585=CARTESIAN_POINT('Ctrl Pts',(25.7093812527709,104.372582753269,7.83161749971661));
#586=CARTESIAN_POINT('Ctrl Pts',(25.2995093899508,104.467314623413,7.50312401391371));
#587=CARTESIAN_POINT('',(19.4189221675804,93.0966813770249,9.69999977648105));
#588=CARTESIAN_POINT('Origin',(19.5271775164304,101.696,9.69999977648105));
#589=CARTESIAN_POINT('',(19.9756986417844,97.4868871476069,5.33294227598085));
#590=CARTESIAN_POINT('Ctrl Pts',(19.4189221675804,93.0966813770249,9.69999977648104));
#591=CARTESIAN_POINT('Ctrl Pts',(19.4273096514302,93.1628170377511,9.63376377544431));
#592=CARTESIAN_POINT('Ctrl Pts',(19.7956932349513,96.0675369910754,6.72522879037515));
#593=CARTESIAN_POINT('Ctrl Pts',(19.9756986417844,97.4868871476069,5.33294227598085));
#594=CARTESIAN_POINT('',(18.6264209918435,97.7987397208539,5.09999977648105));
#595=CARTESIAN_POINT('Ctrl Pts',(19.9756986417844,97.486887147607,5.33294227598086));
#596=CARTESIAN_POINT('Ctrl Pts',(19.2819716166768,97.6472252054708,5.09999977648115));
#597=CARTESIAN_POINT('Ctrl Pts',(18.6264209918436,97.7987397208536,5.09999977648107));
#598=CARTESIAN_POINT('',(20.4279340410177,105.593260279147,5.09999977648105));
#599=CARTESIAN_POINT('Origin',(19.5271775164308,101.696,5.09999977648105));
#600=CARTESIAN_POINT('Ctrl Pts',(20.4279340410178,105.593260279147,5.09999977648107));
#601=CARTESIAN_POINT('Ctrl Pts',(22.3010541682611,105.160334311903,5.09999977648108));
#602=CARTESIAN_POINT('Ctrl Pts',(25.299509389797,104.467314623448,7.50312401379036));
#603=CARTESIAN_POINT('Origin',(19.5271775164304,101.696,9.69999977648105));
#604=CARTESIAN_POINT('',(20.4279340410177,105.593260279147,14.6999997764811));
#605=CARTESIAN_POINT('',(20.4279340410177,105.593260279147,9.69999977648105));
#606=CARTESIAN_POINT('Origin',(19.5271775164308,101.696,5.09999977648105));
#607=CARTESIAN_POINT('',(18.6264209918431,97.7987397208538,14.6999997764811));
#608=CARTESIAN_POINT('',(18.6264209918431,97.7987397208538,9.69999977648105));
#609=CARTESIAN_POINT('Origin',(19.5271775164304,101.696,14.6999997764811));
#610=CARTESIAN_POINT('Origin',(19.5271775164304,30.5040000000003,7.39999977648105));
#611=CARTESIAN_POINT('',(19.4189221675804,39.1033186229758,9.69999977648105));
#612=CARTESIAN_POINT('',(19.9756986417844,34.7131128523936,5.33294227598083));
#613=CARTESIAN_POINT('Ctrl Pts',(19.9756986417863,34.7131128523786,5.33294227596605));
#614=CARTESIAN_POINT('Ctrl Pts',(19.7920460772655,36.1612209997182,6.75343843447003));
#615=CARTESIAN_POINT('Ctrl Pts',(19.4189221675804,39.1033186229758,9.69999977648105));
#616=CARTESIAN_POINT('',(28.1204547933317,30.1640211149212,9.69999977648105));
#617=CARTESIAN_POINT('Origin',(19.5271775164304,30.5040000000003,9.69999977648105));
#618=CARTESIAN_POINT('',(25.2995093907866,27.7326853767811,7.50312401458345));
#619=CARTESIAN_POINT('Ctrl Pts',(25.2995093907866,27.7326853767811,7.50312401458344));
#620=CARTESIAN_POINT('Ctrl Pts',(25.7093812533177,27.8274172469505,7.83161750013667));
#621=CARTESIAN_POINT('Ctrl Pts',(26.1116003621354,27.9887292859899,8.14056496489675));
#622=CARTESIAN_POINT('Ctrl Pts',(26.8133680965415,28.4179134837779,8.67328706309494));
#623=CARTESIAN_POINT('Ctrl Pts',(27.1485283776974,28.6918784052878,8.92455976064091));
#624=CARTESIAN_POINT('Ctrl Pts',(27.7213032126061,29.3596678086356,9.36487476463155));
#625=CARTESIAN_POINT('Ctrl Pts',(27.9581378528071,29.7538942500212,9.55432145699668));
#626=CARTESIAN_POINT('Ctrl Pts',(28.118845234811,30.1599396808096,9.69855357388013));
#627=CARTESIAN_POINT('Ctrl Pts',(28.1196506137616,30.1619794568597,9.69927693724915));
#628=CARTESIAN_POINT('Ctrl Pts',(28.1204547933317,30.1640211149212,9.69999977648106));
#629=CARTESIAN_POINT('',(20.4279340410182,26.6067397208539,5.09999977648105));
#630=CARTESIAN_POINT('Ctrl Pts',(25.2995093907866,27.7326853767811,7.50312401458345));
#631=CARTESIAN_POINT('Ctrl Pts',(22.3010541684991,27.0396656881526,5.09999977648133));
#632=CARTESIAN_POINT('Ctrl Pts',(20.4279340410183,26.6067397208539,5.09999977648105));
#633=CARTESIAN_POINT('',(18.6264209918431,34.4012602791468,5.09999977648105));
#634=CARTESIAN_POINT('Origin',(19.5271775164309,30.5040000000004,5.09999977648105));
#635=CARTESIAN_POINT('Ctrl Pts',(18.6264209918431,34.4012602791468,5.09999977648104));
#636=CARTESIAN_POINT('Ctrl Pts',(19.2819716166747,34.5527747945293,5.09999977648104));
#637=CARTESIAN_POINT('Ctrl Pts',(19.9756986417803,34.7131128523927,5.33294227597945));
#638=CARTESIAN_POINT('Origin',(19.5271775164304,30.5040000000003,9.69999977648105));
#639=CARTESIAN_POINT('',(18.6264209918431,34.4012602791468,14.6999997764811));
#640=CARTESIAN_POINT('',(18.6264209918431,34.4012602791468,9.69999977648105));
#641=CARTESIAN_POINT('Origin',(19.5271775164309,30.5040000000004,5.09999977648105));
#642=CARTESIAN_POINT('',(20.4279340410177,26.6067397208538,14.6999997764811));
#643=CARTESIAN_POINT('',(20.4279340410177,26.6067397208538,9.69999977648105));
#644=CARTESIAN_POINT('Origin',(19.5271775164304,30.5040000000003,14.6999997764811));
#645=CARTESIAN_POINT('Origin',(19.5271775164309,30.5040000000004,5.09999977648105));
#646=CARTESIAN_POINT('',(21.1271775164304,30.5040000000003,5.09999977648105));
#647=CARTESIAN_POINT('Origin',(19.5271775164309,30.5040000000004,5.09999977648105));
#648=CARTESIAN_POINT('Origin',(19.5271775164308,101.696,5.09999977648105));
#649=CARTESIAN_POINT('',(21.1271775164304,101.696,5.09999977648105));
#650=CARTESIAN_POINT('Origin',(19.5271775164308,101.696,5.09999977648105));
#651=CARTESIAN_POINT('Origin',(19.5271775164304,101.696,9.69999977648105));
#652=CARTESIAN_POINT('',(21.1271775164304,101.696,14.6999997764811));
#653=CARTESIAN_POINT('',(21.1271775164304,101.696,9.69999977648105));
#654=CARTESIAN_POINT('Origin',(19.5271775164304,101.696,14.6999997764811));
#655=CARTESIAN_POINT('Origin',(20.0271775164304,66.1000000000003,9.69999977648105));
#656=CARTESIAN_POINT('',(21.6271775164304,66.1000000000003,9.69999977648105));
#657=CARTESIAN_POINT('Origin',(20.0271775164304,66.1000000000003,9.69999977648105));
#658=CARTESIAN_POINT('',(21.6271775164304,66.1000000000003,14.6999997764811));
#659=CARTESIAN_POINT('',(21.6271775164304,66.1000000000003,9.69999977648105));
#660=CARTESIAN_POINT('Origin',(20.0271775164304,66.1000000000003,14.6999997764811));
#661=CARTESIAN_POINT('Origin',(19.5271775164304,30.5040000000003,9.69999977648105));
#662=CARTESIAN_POINT('',(21.1271775164304,30.5040000000003,14.6999997764811));
#663=CARTESIAN_POINT('',(21.1271775164304,30.5040000000003,9.69999977648105));
#664=CARTESIAN_POINT('Origin',(19.5271775164304,30.5040000000003,14.6999997764811));
#665=CARTESIAN_POINT('Origin',(28.3669679282977,32.1332042515908,9.69999977648105));
#666=CARTESIAN_POINT('',(24.059217047113,66.1000000000003,9.69999977648105));
#667=CARTESIAN_POINT('',(28.3669679282977,32.1332042515908,9.69999977648105));
#668=CARTESIAN_POINT('',(23.9953925793645,66.6032585958567,9.69999977648105));
#669=CARTESIAN_POINT('',(24.059217047113,66.1000000000003,14.6999997764811));
#670=CARTESIAN_POINT('',(24.059217047113,66.1000000000003,9.69999977648105));
#671=CARTESIAN_POINT('',(28.3669679282977,32.1332042515908,14.6999997764811));
#672=CARTESIAN_POINT('',(23.9953925793645,66.6032585958567,14.6999997764811));
#673=CARTESIAN_POINT('',(28.3669679282977,32.1332042515908,9.69999977648105));
#674=CARTESIAN_POINT('Origin',(24.3987528653636,31.6299456557345,9.69999977648105));
#675=CARTESIAN_POINT('Origin',(24.3987528653636,31.6299456557345,9.69999977648105));
#676=CARTESIAN_POINT('',(25.2995093899509,27.7326853765879,14.6999997764811));
#677=CARTESIAN_POINT('Origin',(24.3987528653636,31.6299456557345,14.6999997764811));
#678=CARTESIAN_POINT('',(25.2995093899509,27.7326853765879,9.69999977648105));
#679=CARTESIAN_POINT('Origin',(20.4279340410177,26.6067397208538,9.69999977648105));
#680=CARTESIAN_POINT('',(25.2995093899509,27.7326853765879,14.6999997764811));
#681=CARTESIAN_POINT('Origin',(19.9756986417844,34.7131128523936,9.69999977648105));
#682=CARTESIAN_POINT('',(19.9756986417844,34.7131128523936,14.6999997764811));
#683=CARTESIAN_POINT('',(18.6264209918431,34.4012602791468,14.6999997764811));
#684=CARTESIAN_POINT('',(19.9756986417844,34.7131128523936,9.69999977648105));
#685=CARTESIAN_POINT('Origin',(16.0589624534964,65.5967414041439,9.69999977648105));
#686=CARTESIAN_POINT('',(16.0589624534964,65.5967414041439,14.6999997764811));
#687=CARTESIAN_POINT('',(20.4305378024296,31.1266870598781,14.6999997764811));
#688=CARTESIAN_POINT('',(16.0589624534964,65.5967414041439,9.69999977648105));
#689=CARTESIAN_POINT('',(16.0589624534964,65.5967414041439,9.69999977648105));
#690=CARTESIAN_POINT('',(20.4305378024296,31.1266870598781,9.69999977648105));
#691=CARTESIAN_POINT('Origin',(20.0271775164304,66.1000000000003,9.69999977648105));
#692=CARTESIAN_POINT('',(16.0589624534964,66.6032585958567,9.69999977648105));
#693=CARTESIAN_POINT('Origin',(20.0271775164304,66.1000000000003,9.69999977648105));
#694=CARTESIAN_POINT('',(16.0589624534964,66.6032585958567,14.6999997764811));
#695=CARTESIAN_POINT('Origin',(20.0271775164304,66.1000000000003,14.6999997764811));
#696=CARTESIAN_POINT('',(16.0589624534964,66.6032585958567,9.69999977648105));
#697=CARTESIAN_POINT('Origin',(19.9756986417844,97.486887147607,9.69999977648105));
#698=CARTESIAN_POINT('',(20.4305378024296,101.073312940123,9.69999977648105));
#699=CARTESIAN_POINT('',(19.9756986417844,97.486887147607,14.6999997764811));
#700=CARTESIAN_POINT('',(20.4305378024296,101.073312940123,14.6999997764811));
#701=CARTESIAN_POINT('',(19.9756986417844,97.486887147607,9.69999977648105));
#702=CARTESIAN_POINT('Origin',(18.6264209918431,97.7987397208538,9.69999977648105));
#703=CARTESIAN_POINT('',(18.6264209918431,97.7987397208538,14.6999997764811));
#704=CARTESIAN_POINT('Origin',(25.2995093899509,104.467314623413,9.69999977648105));
#705=CARTESIAN_POINT('',(25.2995093899509,104.467314623413,14.6999997764811));
#706=CARTESIAN_POINT('',(25.2995093899509,104.467314623413,14.6999997764811));
#707=CARTESIAN_POINT('',(25.2995093899509,104.467314623413,9.69999977648105));
#708=CARTESIAN_POINT('Origin',(24.3987528653636,100.570054344266,9.69999977648105));
#709=CARTESIAN_POINT('',(28.3669679282977,100.06679574841,9.69999977648105));
#710=CARTESIAN_POINT('Origin',(24.3987528653636,100.570054344266,9.69999977648105));
#711=CARTESIAN_POINT('',(28.3669679282977,100.06679574841,14.6999997764811));
#712=CARTESIAN_POINT('Origin',(24.3987528653636,100.570054344266,14.6999997764811));
#713=CARTESIAN_POINT('',(28.3669679282977,100.06679574841,9.69999977648105));
#714=CARTESIAN_POINT('Origin',(24.059217047113,66.1000000000003,9.69999977648105));
#715=CARTESIAN_POINT('',(23.9953925793645,65.5967414041439,9.69999977648105));
#716=CARTESIAN_POINT('',(23.9953925793645,65.5967414041439,14.6999997764811));
#717=CARTESIAN_POINT('Origin',(21.962965190897,66.1000000000003,14.6999997764811));
#718=CARTESIAN_POINT('Origin',(21.962965190897,66.1000000000003,9.69999977648105));
#719=UNCERTAINTY_MEASURE_WITH_UNIT(LENGTH_MEASURE(0.01),#723,
'DISTANCE_ACCURACY_VALUE',
'Maximum model space distance between geometric entities at asserted c
onnectivities');
#720=UNCERTAINTY_MEASURE_WITH_UNIT(LENGTH_MEASURE(0.01),#723,
'DISTANCE_ACCURACY_VALUE',
'Maximum model space distance between geometric entities at asserted c
onnectivities');
#721=(
GEOMETRIC_REPRESENTATION_CONTEXT(3)
GLOBAL_UNCERTAINTY_ASSIGNED_CONTEXT((#719))
GLOBAL_UNIT_ASSIGNED_CONTEXT((#723,#725,#726))
REPRESENTATION_CONTEXT('','3D')
);
#722=(
GEOMETRIC_REPRESENTATION_CONTEXT(3)
GLOBAL_UNCERTAINTY_ASSIGNED_CONTEXT((#720))
GLOBAL_UNIT_ASSIGNED_CONTEXT((#723,#725,#726))
REPRESENTATION_CONTEXT('','3D')
);
#723=(
LENGTH_UNIT()
NAMED_UNIT(*)
SI_UNIT(.MILLI.,.METRE.)
);
#724=(
LENGTH_UNIT()
NAMED_UNIT(*)
SI_UNIT($,.METRE.)
);
#725=(
NAMED_UNIT(*)
PLANE_ANGLE_UNIT()
SI_UNIT($,.RADIAN.)
);
#726=(
NAMED_UNIT(*)
SI_UNIT($,.STERADIAN.)
SOLID_ANGLE_UNIT()
);
#727=SHAPE_DEFINITION_REPRESENTATION(#728,#729);
#728=PRODUCT_DEFINITION_SHAPE('',$,#731);
#729=SHAPE_REPRESENTATION('',(#416),#721);
#730=PRODUCT_DEFINITION_CONTEXT('part definition',#735,'design');
#731=PRODUCT_DEFINITION('Komponente21','Steering linkage',#732,#730);
#732=PRODUCT_DEFINITION_FORMATION('',$,#737);
#733=PRODUCT_RELATED_PRODUCT_CATEGORY('Steering linkage',
'Steering linkage',(#737));
#734=APPLICATION_PROTOCOL_DEFINITION('international standard',
'automotive_design',2009,#735);
#735=APPLICATION_CONTEXT(
'Core Data for Automotive Mechanical Design Process');
#736=PRODUCT_CONTEXT('part definition',#735,'mechanical');
#737=PRODUCT('Komponente21','Steering linkage',$,(#736));
#738=PRESENTATION_STYLE_ASSIGNMENT((#739));
#739=SURFACE_STYLE_USAGE(.BOTH.,#740);
#740=SURFACE_SIDE_STYLE('',(#741));
#741=SURFACE_STYLE_FILL_AREA(#742);
#742=FILL_AREA_STYLE('Opaque(160,160,160)',(#743));
#743=FILL_AREA_STYLE_COLOUR('Opaque(160,160,160)',#744);
#744=COLOUR_RGB('Opaque(160,160,160)',0.392156862745098,0.392156862745098,
0.392156862745098);
ENDSEC;
END-ISO-10303-21;
