ISO-10303-21;
HEADER;
/* Generated by software containing ST-Developer
 * from STEP Tools, Inc. (www.steptools.com) 
 */

FILE_DESCRIPTION(
/* description */ (''),
/* implementation_level */ '2;1');

FILE_NAME(
/* name */ 'Steering linkage connector.step',
/* time_stamp */ '2026-01-02T21:45:42+01:00',
/* author */ (''),
/* organization */ (''),
/* preprocessor_version */ 'ST-DEVELOPER v20.1',
/* originating_system */ 'Autodesk Translation Framework v14.21.0.0',
/* authorisation */ '');

FILE_SCHEMA (('AUTOMOTIVE_DESIGN { 1 0 10303 214 3 1 1 }'));
ENDSEC;

DATA;
#10=MECHANICAL_DESIGN_GEOMETRIC_PRESENTATION_REPRESENTATION('',(#13),#708);
#11=SHAPE_REPRESENTATION_RELATIONSHIP('SRR','None',#715,#12);
#12=ADVANCED_BREP_SHAPE_REPRESENTATION('',(#14),#707);
#13=STYLED_ITEM('',(#724),#14);
#14=MANIFOLD_SOLID_BREP('Steering linkage connector',#402);
#15=CONICAL_SURFACE('',#427,1.50000000000134,0.872664625997165);
#16=CONICAL_SURFACE('',#433,1.50000000000134,0.872664625997165);
#17=FACE_BOUND('',#89,.T.);
#18=FACE_BOUND('',#90,.T.);
#19=FACE_BOUND('',#107,.T.);
#20=FACE_BOUND('',#108,.T.);
#21=FACE_BOUND('',#109,.T.);
#22=FACE_BOUND('',#111,.T.);
#23=FACE_BOUND('',#112,.T.);
#24=CIRCLE('',#419,3.00000000000268);
#25=CIRCLE('',#420,3.00000000000268);
#26=CIRCLE('',#422,3.00000000000268);
#27=CIRCLE('',#423,3.00000000000268);
#28=CIRCLE('',#425,1.60000000000143);
#29=CIRCLE('',#426,1.60000000000143);
#30=CIRCLE('',#428,1.60000000000143);
#31=CIRCLE('',#429,1.60000000000143);
#32=CIRCLE('',#430,3.00000000000268);
#33=CIRCLE('',#432,3.00000000000268);
#34=CIRCLE('',#434,1.60000000000143);
#35=CIRCLE('',#435,1.60000000000143);
#36=CIRCLE('',#436,3.00000000000268);
#37=CIRCLE('',#438,3.00000000000268);
#38=CIRCLE('',#440,2.50000000000223);
#39=CIRCLE('',#441,2.50000000000223);
#40=CIRCLE('',#444,2.50000000000223);
#41=CIRCLE('',#445,2.50000000000223);
#42=CIRCLE('',#447,4.00000000000357);
#43=CIRCLE('',#448,4.00000000000357);
#44=CIRCLE('',#450,1.60000000000143);
#45=CIRCLE('',#451,1.60000000000143);
#46=CIRCLE('',#455,4.00000000000357);
#47=CIRCLE('',#456,4.00000000000357);
#48=CIRCLE('',#458,4.00000000000357);
#49=CIRCLE('',#459,4.00000000000357);
#50=CYLINDRICAL_SURFACE('',#418,3.00000000000268);
#51=CYLINDRICAL_SURFACE('',#421,3.00000000000268);
#52=CYLINDRICAL_SURFACE('',#431,3.00000000000268);
#53=CYLINDRICAL_SURFACE('',#437,3.00000000000268);
#54=CYLINDRICAL_SURFACE('',#439,2.50000000000223);
#55=CYLINDRICAL_SURFACE('',#443,2.50000000000223);
#56=CYLINDRICAL_SURFACE('',#446,4.00000000000357);
#57=CYLINDRICAL_SURFACE('',#449,1.60000000000143);
#58=CYLINDRICAL_SURFACE('',#452,1.60000000000143);
#59=CYLINDRICAL_SURFACE('',#453,1.60000000000143);
#60=CYLINDRICAL_SURFACE('',#454,4.00000000000357);
#61=CYLINDRICAL_SURFACE('',#457,4.00000000000357);
#62=FACE_OUTER_BOUND('',#84,.T.);
#63=FACE_OUTER_BOUND('',#85,.T.);
#64=FACE_OUTER_BOUND('',#86,.T.);
#65=FACE_OUTER_BOUND('',#87,.T.);
#66=FACE_OUTER_BOUND('',#88,.T.);
#67=FACE_OUTER_BOUND('',#91,.T.);
#68=FACE_OUTER_BOUND('',#92,.T.);
#69=FACE_OUTER_BOUND('',#93,.T.);
#70=FACE_OUTER_BOUND('',#94,.T.);
#71=FACE_OUTER_BOUND('',#95,.T.);
#72=FACE_OUTER_BOUND('',#96,.T.);
#73=FACE_OUTER_BOUND('',#97,.T.);
#74=FACE_OUTER_BOUND('',#98,.T.);
#75=FACE_OUTER_BOUND('',#99,.T.);
#76=FACE_OUTER_BOUND('',#100,.T.);
#77=FACE_OUTER_BOUND('',#101,.T.);
#78=FACE_OUTER_BOUND('',#102,.T.);
#79=FACE_OUTER_BOUND('',#103,.T.);
#80=FACE_OUTER_BOUND('',#104,.T.);
#81=FACE_OUTER_BOUND('',#105,.T.);
#82=FACE_OUTER_BOUND('',#106,.T.);
#83=FACE_OUTER_BOUND('',#110,.T.);
#84=EDGE_LOOP('',(#262,#263,#264,#265));
#85=EDGE_LOOP('',(#266,#267,#268,#269));
#86=EDGE_LOOP('',(#270,#271,#272,#273));
#87=EDGE_LOOP('',(#274,#275,#276,#277));
#88=EDGE_LOOP('',(#278,#279,#280,#281));
#89=EDGE_LOOP('',(#282));
#90=EDGE_LOOP('',(#283));
#91=EDGE_LOOP('',(#284,#285,#286,#287,#288));
#92=EDGE_LOOP('',(#289,#290,#291,#292));
#93=EDGE_LOOP('',(#293,#294,#295,#296,#297));
#94=EDGE_LOOP('',(#298,#299,#300,#301));
#95=EDGE_LOOP('',(#302,#303,#304,#305));
#96=EDGE_LOOP('',(#306,#307,#308,#309));
#97=EDGE_LOOP('',(#310,#311,#312,#313));
#98=EDGE_LOOP('',(#314,#315,#316,#317));
#99=EDGE_LOOP('',(#318,#319,#320,#321));
#100=EDGE_LOOP('',(#322,#323,#324,#325,#326));
#101=EDGE_LOOP('',(#327,#328,#329,#330,#331));
#102=EDGE_LOOP('',(#332,#333,#334,#335));
#103=EDGE_LOOP('',(#336,#337,#338,#339));
#104=EDGE_LOOP('',(#340,#341,#342,#343));
#105=EDGE_LOOP('',(#344,#345,#346,#347));
#106=EDGE_LOOP('',(#348,#349,#350,#351,#352,#353,#354,#355));
#107=EDGE_LOOP('',(#356));
#108=EDGE_LOOP('',(#357));
#109=EDGE_LOOP('',(#358));
#110=EDGE_LOOP('',(#359,#360,#361,#362,#363,#364,#365,#366));
#111=EDGE_LOOP('',(#367,#368,#369,#370));
#112=EDGE_LOOP('',(#371));
#113=LINE('',#595,#142);
#114=LINE('',#597,#143);
#115=LINE('',#599,#144);
#116=LINE('',#600,#145);
#117=LINE('',#604,#146);
#118=LINE('',#606,#147);
#119=LINE('',#608,#148);
#120=LINE('',#609,#149);
#121=LINE('',#627,#150);
#122=LINE('',#632,#151);
#123=LINE('',#639,#152);
#124=LINE('',#644,#153);
#125=LINE('',#650,#154);
#126=LINE('',#653,#155);
#127=LINE('',#656,#156);
#128=LINE('',#658,#157);
#129=LINE('',#659,#158);
#130=LINE('',#665,#159);
#131=LINE('',#668,#160);
#132=LINE('',#673,#161);
#133=LINE('',#679,#162);
#134=LINE('',#682,#163);
#135=LINE('',#684,#164);
#136=LINE('',#689,#165);
#137=LINE('',#695,#166);
#138=LINE('',#698,#167);
#139=LINE('',#699,#168);
#140=LINE('',#701,#169);
#141=LINE('',#702,#170);
#142=VECTOR('',#468,10.0000000000089);
#143=VECTOR('',#469,10.0000000000089);
#144=VECTOR('',#470,10.0000000000089);
#145=VECTOR('',#471,10.0000000000089);
#146=VECTOR('',#474,10.0000000000089);
#147=VECTOR('',#475,10.0000000000089);
#148=VECTOR('',#476,10.0000000000089);
#149=VECTOR('',#477,10.0000000000089);
#150=VECTOR('',#502,1.50000000000134);
#151=VECTOR('',#509,3.00000000000268);
#152=VECTOR('',#516,1.50000000000134);
#153=VECTOR('',#523,3.00000000000268);
#154=VECTOR('',#528,10.0000000000089);
#155=VECTOR('',#531,10.0000000000089);
#156=VECTOR('',#534,10.0000000000089);
#157=VECTOR('',#535,10.0000000000089);
#158=VECTOR('',#536,10.0000000000089);
#159=VECTOR('',#541,10.0000000000089);
#160=VECTOR('',#544,10.0000000000089);
#161=VECTOR('',#549,10.0000000000089);
#162=VECTOR('',#556,1.60000000000143);
#163=VECTOR('',#561,1.60000000000143);
#164=VECTOR('',#564,1.60000000000143);
#165=VECTOR('',#569,10.0000000000089);
#166=VECTOR('',#576,10.0000000000089);
#167=VECTOR('',#581,10.0000000000089);
#168=VECTOR('',#582,10.0000000000089);
#169=VECTOR('',#585,10.0000000000089);
#170=VECTOR('',#586,10.0000000000089);
#171=VERTEX_POINT('',#593);
#172=VERTEX_POINT('',#594);
#173=VERTEX_POINT('',#596);
#174=VERTEX_POINT('',#598);
#175=VERTEX_POINT('',#602);
#176=VERTEX_POINT('',#603);
#177=VERTEX_POINT('',#605);
#178=VERTEX_POINT('',#607);
#179=VERTEX_POINT('',#617);
#180=VERTEX_POINT('',#619);
#181=VERTEX_POINT('',#622);
#182=VERTEX_POINT('',#623);
#183=VERTEX_POINT('',#626);
#184=VERTEX_POINT('',#630);
#185=VERTEX_POINT('',#634);
#186=VERTEX_POINT('',#635);
#187=VERTEX_POINT('',#638);
#188=VERTEX_POINT('',#642);
#189=VERTEX_POINT('',#646);
#190=VERTEX_POINT('',#647);
#191=VERTEX_POINT('',#649);
#192=VERTEX_POINT('',#651);
#193=VERTEX_POINT('',#655);
#194=VERTEX_POINT('',#657);
#195=VERTEX_POINT('',#661);
#196=VERTEX_POINT('',#662);
#197=VERTEX_POINT('',#664);
#198=VERTEX_POINT('',#666);
#199=VERTEX_POINT('',#670);
#200=VERTEX_POINT('',#672);
#201=VERTEX_POINT('',#676);
#202=VERTEX_POINT('',#678);
#203=VERTEX_POINT('',#686);
#204=VERTEX_POINT('',#688);
#205=VERTEX_POINT('',#692);
#206=VERTEX_POINT('',#694);
#207=EDGE_CURVE('',#171,#172,#113,.T.);
#208=EDGE_CURVE('',#173,#171,#114,.T.);
#209=EDGE_CURVE('',#174,#173,#115,.T.);
#210=EDGE_CURVE('',#172,#174,#116,.T.);
#211=EDGE_CURVE('',#175,#176,#117,.T.);
#212=EDGE_CURVE('',#177,#175,#118,.T.);
#213=EDGE_CURVE('',#178,#177,#119,.T.);
#214=EDGE_CURVE('',#176,#178,#120,.T.);
#215=EDGE_CURVE('',#172,#175,#24,.T.);
#216=EDGE_CURVE('',#177,#174,#25,.T.);
#217=EDGE_CURVE('',#173,#178,#26,.T.);
#218=EDGE_CURVE('',#176,#171,#27,.T.);
#219=EDGE_CURVE('',#179,#179,#28,.T.);
#220=EDGE_CURVE('',#180,#180,#29,.T.);
#221=EDGE_CURVE('',#181,#182,#30,.T.);
#222=EDGE_CURVE('',#182,#181,#31,.T.);
#223=EDGE_CURVE('',#182,#183,#121,.T.);
#224=EDGE_CURVE('',#183,#183,#32,.T.);
#225=EDGE_CURVE('',#184,#184,#33,.T.);
#226=EDGE_CURVE('',#184,#183,#122,.T.);
#227=EDGE_CURVE('',#185,#186,#34,.T.);
#228=EDGE_CURVE('',#186,#185,#35,.T.);
#229=EDGE_CURVE('',#186,#187,#123,.T.);
#230=EDGE_CURVE('',#187,#187,#36,.T.);
#231=EDGE_CURVE('',#188,#188,#37,.T.);
#232=EDGE_CURVE('',#188,#187,#124,.T.);
#233=EDGE_CURVE('',#189,#190,#38,.T.);
#234=EDGE_CURVE('',#190,#191,#125,.T.);
#235=EDGE_CURVE('',#191,#192,#39,.T.);
#236=EDGE_CURVE('',#192,#189,#126,.T.);
#237=EDGE_CURVE('',#193,#190,#127,.T.);
#238=EDGE_CURVE('',#193,#194,#128,.T.);
#239=EDGE_CURVE('',#194,#191,#129,.T.);
#240=EDGE_CURVE('',#195,#196,#40,.T.);
#241=EDGE_CURVE('',#196,#197,#130,.T.);
#242=EDGE_CURVE('',#197,#198,#41,.T.);
#243=EDGE_CURVE('',#198,#195,#131,.T.);
#244=EDGE_CURVE('',#199,#196,#42,.T.);
#245=EDGE_CURVE('',#199,#200,#132,.T.);
#246=EDGE_CURVE('',#200,#197,#43,.T.);
#247=EDGE_CURVE('',#201,#201,#44,.T.);
#248=EDGE_CURVE('',#201,#202,#133,.T.);
#249=EDGE_CURVE('',#202,#202,#45,.T.);
#250=EDGE_CURVE('',#181,#180,#134,.T.);
#251=EDGE_CURVE('',#185,#179,#135,.T.);
#252=EDGE_CURVE('',#192,#203,#46,.T.);
#253=EDGE_CURVE('',#204,#203,#136,.T.);
#254=EDGE_CURVE('',#189,#204,#47,.T.);
#255=EDGE_CURVE('',#205,#193,#48,.T.);
#256=EDGE_CURVE('',#205,#206,#137,.T.);
#257=EDGE_CURVE('',#206,#194,#49,.T.);
#258=EDGE_CURVE('',#198,#206,#138,.T.);
#259=EDGE_CURVE('',#195,#205,#139,.T.);
#260=EDGE_CURVE('',#204,#199,#140,.T.);
#261=EDGE_CURVE('',#203,#200,#141,.T.);
#262=ORIENTED_EDGE('',*,*,#207,.F.);
#263=ORIENTED_EDGE('',*,*,#208,.F.);
#264=ORIENTED_EDGE('',*,*,#209,.F.);
#265=ORIENTED_EDGE('',*,*,#210,.F.);
#266=ORIENTED_EDGE('',*,*,#211,.F.);
#267=ORIENTED_EDGE('',*,*,#212,.F.);
#268=ORIENTED_EDGE('',*,*,#213,.F.);
#269=ORIENTED_EDGE('',*,*,#214,.F.);
#270=ORIENTED_EDGE('',*,*,#212,.T.);
#271=ORIENTED_EDGE('',*,*,#215,.F.);
#272=ORIENTED_EDGE('',*,*,#210,.T.);
#273=ORIENTED_EDGE('',*,*,#216,.F.);
#274=ORIENTED_EDGE('',*,*,#214,.T.);
#275=ORIENTED_EDGE('',*,*,#217,.F.);
#276=ORIENTED_EDGE('',*,*,#208,.T.);
#277=ORIENTED_EDGE('',*,*,#218,.F.);
#278=ORIENTED_EDGE('',*,*,#217,.T.);
#279=ORIENTED_EDGE('',*,*,#213,.T.);
#280=ORIENTED_EDGE('',*,*,#216,.T.);
#281=ORIENTED_EDGE('',*,*,#209,.T.);
#282=ORIENTED_EDGE('',*,*,#219,.T.);
#283=ORIENTED_EDGE('',*,*,#220,.T.);
#284=ORIENTED_EDGE('',*,*,#221,.F.);
#285=ORIENTED_EDGE('',*,*,#222,.F.);
#286=ORIENTED_EDGE('',*,*,#223,.T.);
#287=ORIENTED_EDGE('',*,*,#224,.F.);
#288=ORIENTED_EDGE('',*,*,#223,.F.);
#289=ORIENTED_EDGE('',*,*,#225,.F.);
#290=ORIENTED_EDGE('',*,*,#226,.T.);
#291=ORIENTED_EDGE('',*,*,#224,.T.);
#292=ORIENTED_EDGE('',*,*,#226,.F.);
#293=ORIENTED_EDGE('',*,*,#227,.F.);
#294=ORIENTED_EDGE('',*,*,#228,.F.);
#295=ORIENTED_EDGE('',*,*,#229,.T.);
#296=ORIENTED_EDGE('',*,*,#230,.F.);
#297=ORIENTED_EDGE('',*,*,#229,.F.);
#298=ORIENTED_EDGE('',*,*,#231,.F.);
#299=ORIENTED_EDGE('',*,*,#232,.T.);
#300=ORIENTED_EDGE('',*,*,#230,.T.);
#301=ORIENTED_EDGE('',*,*,#232,.F.);
#302=ORIENTED_EDGE('',*,*,#233,.T.);
#303=ORIENTED_EDGE('',*,*,#234,.T.);
#304=ORIENTED_EDGE('',*,*,#235,.T.);
#305=ORIENTED_EDGE('',*,*,#236,.T.);
#306=ORIENTED_EDGE('',*,*,#234,.F.);
#307=ORIENTED_EDGE('',*,*,#237,.F.);
#308=ORIENTED_EDGE('',*,*,#238,.T.);
#309=ORIENTED_EDGE('',*,*,#239,.T.);
#310=ORIENTED_EDGE('',*,*,#240,.T.);
#311=ORIENTED_EDGE('',*,*,#241,.T.);
#312=ORIENTED_EDGE('',*,*,#242,.T.);
#313=ORIENTED_EDGE('',*,*,#243,.T.);
#314=ORIENTED_EDGE('',*,*,#241,.F.);
#315=ORIENTED_EDGE('',*,*,#244,.F.);
#316=ORIENTED_EDGE('',*,*,#245,.T.);
#317=ORIENTED_EDGE('',*,*,#246,.T.);
#318=ORIENTED_EDGE('',*,*,#247,.T.);
#319=ORIENTED_EDGE('',*,*,#248,.T.);
#320=ORIENTED_EDGE('',*,*,#249,.F.);
#321=ORIENTED_EDGE('',*,*,#248,.F.);
#322=ORIENTED_EDGE('',*,*,#221,.T.);
#323=ORIENTED_EDGE('',*,*,#222,.T.);
#324=ORIENTED_EDGE('',*,*,#250,.T.);
#325=ORIENTED_EDGE('',*,*,#220,.F.);
#326=ORIENTED_EDGE('',*,*,#250,.F.);
#327=ORIENTED_EDGE('',*,*,#227,.T.);
#328=ORIENTED_EDGE('',*,*,#228,.T.);
#329=ORIENTED_EDGE('',*,*,#251,.T.);
#330=ORIENTED_EDGE('',*,*,#219,.F.);
#331=ORIENTED_EDGE('',*,*,#251,.F.);
#332=ORIENTED_EDGE('',*,*,#236,.F.);
#333=ORIENTED_EDGE('',*,*,#252,.T.);
#334=ORIENTED_EDGE('',*,*,#253,.F.);
#335=ORIENTED_EDGE('',*,*,#254,.F.);
#336=ORIENTED_EDGE('',*,*,#255,.F.);
#337=ORIENTED_EDGE('',*,*,#256,.T.);
#338=ORIENTED_EDGE('',*,*,#257,.T.);
#339=ORIENTED_EDGE('',*,*,#238,.F.);
#340=ORIENTED_EDGE('',*,*,#243,.F.);
#341=ORIENTED_EDGE('',*,*,#258,.T.);
#342=ORIENTED_EDGE('',*,*,#256,.F.);
#343=ORIENTED_EDGE('',*,*,#259,.F.);
#344=ORIENTED_EDGE('',*,*,#260,.F.);
#345=ORIENTED_EDGE('',*,*,#253,.T.);
#346=ORIENTED_EDGE('',*,*,#261,.T.);
#347=ORIENTED_EDGE('',*,*,#245,.F.);
#348=ORIENTED_EDGE('',*,*,#261,.F.);
#349=ORIENTED_EDGE('',*,*,#252,.F.);
#350=ORIENTED_EDGE('',*,*,#235,.F.);
#351=ORIENTED_EDGE('',*,*,#239,.F.);
#352=ORIENTED_EDGE('',*,*,#257,.F.);
#353=ORIENTED_EDGE('',*,*,#258,.F.);
#354=ORIENTED_EDGE('',*,*,#242,.F.);
#355=ORIENTED_EDGE('',*,*,#246,.F.);
#356=ORIENTED_EDGE('',*,*,#225,.T.);
#357=ORIENTED_EDGE('',*,*,#231,.T.);
#358=ORIENTED_EDGE('',*,*,#247,.F.);
#359=ORIENTED_EDGE('',*,*,#260,.T.);
#360=ORIENTED_EDGE('',*,*,#244,.T.);
#361=ORIENTED_EDGE('',*,*,#240,.F.);
#362=ORIENTED_EDGE('',*,*,#259,.T.);
#363=ORIENTED_EDGE('',*,*,#255,.T.);
#364=ORIENTED_EDGE('',*,*,#237,.T.);
#365=ORIENTED_EDGE('',*,*,#233,.F.);
#366=ORIENTED_EDGE('',*,*,#254,.T.);
#367=ORIENTED_EDGE('',*,*,#211,.T.);
#368=ORIENTED_EDGE('',*,*,#218,.T.);
#369=ORIENTED_EDGE('',*,*,#207,.T.);
#370=ORIENTED_EDGE('',*,*,#215,.T.);
#371=ORIENTED_EDGE('',*,*,#249,.T.);
#372=PLANE('',#416);
#373=PLANE('',#417);
#374=PLANE('',#424);
#375=PLANE('',#442);
#376=PLANE('',#460);
#377=PLANE('',#461);
#378=PLANE('',#462);
#379=PLANE('',#463);
#380=ADVANCED_FACE('',(#62),#372,.T.);
#381=ADVANCED_FACE('',(#63),#373,.T.);
#382=ADVANCED_FACE('',(#64),#50,.T.);
#383=ADVANCED_FACE('',(#65),#51,.T.);
#384=ADVANCED_FACE('',(#66,#17,#18),#374,.T.);
#385=ADVANCED_FACE('',(#67),#15,.F.);
#386=ADVANCED_FACE('',(#68),#52,.F.);
#387=ADVANCED_FACE('',(#69),#16,.F.);
#388=ADVANCED_FACE('',(#70),#53,.F.);
#389=ADVANCED_FACE('',(#71),#54,.F.);
#390=ADVANCED_FACE('',(#72),#375,.F.);
#391=ADVANCED_FACE('',(#73),#55,.F.);
#392=ADVANCED_FACE('',(#74),#56,.T.);
#393=ADVANCED_FACE('',(#75),#57,.F.);
#394=ADVANCED_FACE('',(#76),#58,.F.);
#395=ADVANCED_FACE('',(#77),#59,.F.);
#396=ADVANCED_FACE('',(#78),#60,.T.);
#397=ADVANCED_FACE('',(#79),#61,.T.);
#398=ADVANCED_FACE('',(#80),#376,.F.);
#399=ADVANCED_FACE('',(#81),#377,.F.);
#400=ADVANCED_FACE('',(#82,#19,#20,#21),#378,.F.);
#401=ADVANCED_FACE('',(#83,#22,#23),#379,.T.);
#402=CLOSED_SHELL('',(#380,#381,#382,#383,#384,#385,#386,#387,#388,#389,
#390,#391,#392,#393,#394,#395,#396,#397,#398,#399,#400,#401));
#403=DERIVED_UNIT_ELEMENT(#405,1.);
#404=DERIVED_UNIT_ELEMENT(#710,-3.);
#405=(
MASS_UNIT()
NAMED_UNIT(*)
SI_UNIT(.KILO.,.GRAM.)
);
#406=DERIVED_UNIT((#403,#404));
#407=MEASURE_REPRESENTATION_ITEM('density measure',
POSITIVE_RATIO_MEASURE(7850.),#406);
#408=PROPERTY_DEFINITION_REPRESENTATION(#413,#410);
#409=PROPERTY_DEFINITION_REPRESENTATION(#414,#411);
#410=REPRESENTATION('material name',(#412),#707);
#411=REPRESENTATION('density',(#407),#707);
#412=DESCRIPTIVE_REPRESENTATION_ITEM('Stahl','Stahl');
#413=PROPERTY_DEFINITION('material property','material name',#717);
#414=PROPERTY_DEFINITION('material property','density of part',#717);
#415=AXIS2_PLACEMENT_3D('',#591,#464,#465);
#416=AXIS2_PLACEMENT_3D('',#592,#466,#467);
#417=AXIS2_PLACEMENT_3D('',#601,#472,#473);
#418=AXIS2_PLACEMENT_3D('',#610,#478,#479);
#419=AXIS2_PLACEMENT_3D('',#611,#480,#481);
#420=AXIS2_PLACEMENT_3D('',#612,#482,#483);
#421=AXIS2_PLACEMENT_3D('',#613,#484,#485);
#422=AXIS2_PLACEMENT_3D('',#614,#486,#487);
#423=AXIS2_PLACEMENT_3D('',#615,#488,#489);
#424=AXIS2_PLACEMENT_3D('',#616,#490,#491);
#425=AXIS2_PLACEMENT_3D('',#618,#492,#493);
#426=AXIS2_PLACEMENT_3D('',#620,#494,#495);
#427=AXIS2_PLACEMENT_3D('',#621,#496,#497);
#428=AXIS2_PLACEMENT_3D('',#624,#498,#499);
#429=AXIS2_PLACEMENT_3D('',#625,#500,#501);
#430=AXIS2_PLACEMENT_3D('',#628,#503,#504);
#431=AXIS2_PLACEMENT_3D('',#629,#505,#506);
#432=AXIS2_PLACEMENT_3D('',#631,#507,#508);
#433=AXIS2_PLACEMENT_3D('',#633,#510,#511);
#434=AXIS2_PLACEMENT_3D('',#636,#512,#513);
#435=AXIS2_PLACEMENT_3D('',#637,#514,#515);
#436=AXIS2_PLACEMENT_3D('',#640,#517,#518);
#437=AXIS2_PLACEMENT_3D('',#641,#519,#520);
#438=AXIS2_PLACEMENT_3D('',#643,#521,#522);
#439=AXIS2_PLACEMENT_3D('',#645,#524,#525);
#440=AXIS2_PLACEMENT_3D('',#648,#526,#527);
#441=AXIS2_PLACEMENT_3D('',#652,#529,#530);
#442=AXIS2_PLACEMENT_3D('',#654,#532,#533);
#443=AXIS2_PLACEMENT_3D('',#660,#537,#538);
#444=AXIS2_PLACEMENT_3D('',#663,#539,#540);
#445=AXIS2_PLACEMENT_3D('',#667,#542,#543);
#446=AXIS2_PLACEMENT_3D('',#669,#545,#546);
#447=AXIS2_PLACEMENT_3D('',#671,#547,#548);
#448=AXIS2_PLACEMENT_3D('',#674,#550,#551);
#449=AXIS2_PLACEMENT_3D('',#675,#552,#553);
#450=AXIS2_PLACEMENT_3D('',#677,#554,#555);
#451=AXIS2_PLACEMENT_3D('',#680,#557,#558);
#452=AXIS2_PLACEMENT_3D('',#681,#559,#560);
#453=AXIS2_PLACEMENT_3D('',#683,#562,#563);
#454=AXIS2_PLACEMENT_3D('',#685,#565,#566);
#455=AXIS2_PLACEMENT_3D('',#687,#567,#568);
#456=AXIS2_PLACEMENT_3D('',#690,#570,#571);
#457=AXIS2_PLACEMENT_3D('',#691,#572,#573);
#458=AXIS2_PLACEMENT_3D('',#693,#574,#575);
#459=AXIS2_PLACEMENT_3D('',#696,#577,#578);
#460=AXIS2_PLACEMENT_3D('',#697,#579,#580);
#461=AXIS2_PLACEMENT_3D('',#700,#583,#584);
#462=AXIS2_PLACEMENT_3D('',#703,#587,#588);
#463=AXIS2_PLACEMENT_3D('',#704,#589,#590);
#464=DIRECTION('axis',(0.,0.,1.));
#465=DIRECTION('refdir',(1.,0.,0.));
#466=DIRECTION('center_axis',(0.974315906456578,-0.225185511136258,1.15379479261185E-16));
#467=DIRECTION('ref_axis',(-0.225185511136258,-0.974315906456578,3.70202741306359E-17));
#468=DIRECTION('',(0.225185511136258,0.974315906456578,-3.70202741310788E-17));
#469=DIRECTION('',(-1.04079632570238E-16,6.20512289593583E-17,1.));
#470=DIRECTION('',(-0.225185511136258,-0.974315906456578,3.70202741306359E-17));
#471=DIRECTION('',(1.04079632570238E-16,-6.20512289593583E-17,-1.));
#472=DIRECTION('center_axis',(-0.974315906456578,0.225185511136258,-1.15379479261185E-16));
#473=DIRECTION('ref_axis',(0.225185511136258,0.974315906456578,-3.70202741306359E-17));
#474=DIRECTION('',(-0.225185511136258,-0.974315906456578,3.70202741310788E-17));
#475=DIRECTION('',(-1.04079632570238E-16,6.20512289593583E-17,1.));
#476=DIRECTION('',(0.225185511136258,0.974315906456578,-3.70202741306359E-17));
#477=DIRECTION('',(1.04079632570238E-16,-6.20512289593583E-17,-1.));
#478=DIRECTION('center_axis',(1.04079632570238E-16,-6.20512289593583E-17,
-1.));
#479=DIRECTION('ref_axis',(0.225185511139277,0.97431590645588,-3.70202741307213E-17));
#480=DIRECTION('center_axis',(-1.04079632570238E-16,6.20512289593583E-17,
1.));
#481=DIRECTION('ref_axis',(-0.998660415706797,-0.0517433483679545,-1.00729470772501E-16));
#482=DIRECTION('center_axis',(1.04079632570238E-16,-6.20512289593583E-17,
-1.));
#483=DIRECTION('ref_axis',(-0.998660415706797,-0.0517433483679545,-1.00729470772501E-16));
#484=DIRECTION('center_axis',(1.04079632570238E-16,-6.20512289593583E-17,
-1.));
#485=DIRECTION('ref_axis',(-0.225185511134582,-0.974315906456965,3.70202741312773E-17));
#486=DIRECTION('center_axis',(1.04079632570238E-16,-6.20512289593583E-17,
-1.));
#487=DIRECTION('ref_axis',(-0.998660415706797,-0.0517433483679545,-1.00729470772501E-16));
#488=DIRECTION('center_axis',(-1.04079632570238E-16,6.20512289593583E-17,
1.));
#489=DIRECTION('ref_axis',(-0.998660415706797,-0.0517433483679545,-1.00729470772501E-16));
#490=DIRECTION('center_axis',(1.04079632570238E-16,-6.20512289593583E-17,
-1.));
#491=DIRECTION('ref_axis',(-0.998660415706797,-0.0517433483679544,-1.00729470772501E-16));
#492=DIRECTION('center_axis',(-1.04079632570238E-16,6.20512289593583E-17,
1.));
#493=DIRECTION('ref_axis',(-0.998660415706797,-0.0517433483679545,-1.00729470772501E-16));
#494=DIRECTION('center_axis',(-1.04079632570238E-16,6.20512289593583E-17,
1.));
#495=DIRECTION('ref_axis',(-0.998660415706797,-0.0517433483679545,-1.00729470772501E-16));
#496=DIRECTION('center_axis',(-1.04079632570238E-16,6.20512289593583E-17,
1.));
#497=DIRECTION('ref_axis',(0.998660415706797,0.0517433483679545,1.00729470772501E-16));
#498=DIRECTION('center_axis',(-1.04079632570238E-16,6.20512289593583E-17,
1.));
#499=DIRECTION('ref_axis',(-0.998660415706797,-0.0517433483679545,-1.00729470772501E-16));
#500=DIRECTION('center_axis',(-1.04079632570238E-16,6.20512289593583E-17,
1.));
#501=DIRECTION('ref_axis',(-0.998660415706797,-0.0517433483679545,-1.00729470772501E-16));
#502=DIRECTION('',(-0.76501826201508,-0.039637704485641,0.642787609686539));
#503=DIRECTION('center_axis',(1.04079632570238E-16,-6.20512289593583E-17,
-1.));
#504=DIRECTION('ref_axis',(0.998660415706797,0.0517433483679545,1.00729470772501E-16));
#505=DIRECTION('center_axis',(1.04079632570238E-16,-6.20512289593583E-17,
-1.));
#506=DIRECTION('ref_axis',(0.998660415706797,0.0517433483679545,1.00729470772501E-16));
#507=DIRECTION('center_axis',(1.04079632570238E-16,-6.20512289593583E-17,
-1.));
#508=DIRECTION('ref_axis',(0.998660415706797,0.0517433483679545,1.00729470772501E-16));
#509=DIRECTION('',(1.04079632570238E-16,-6.20512289593583E-17,-1.));
#510=DIRECTION('center_axis',(-1.04079632570238E-16,6.20512289593583E-17,
1.));
#511=DIRECTION('ref_axis',(0.998660415706797,0.0517433483679545,1.00729470772501E-16));
#512=DIRECTION('center_axis',(-1.04079632570238E-16,6.20512289593583E-17,
1.));
#513=DIRECTION('ref_axis',(-0.998660415706797,-0.0517433483679545,-1.00729470772501E-16));
#514=DIRECTION('center_axis',(-1.04079632570238E-16,6.20512289593583E-17,
1.));
#515=DIRECTION('ref_axis',(-0.998660415706797,-0.0517433483679545,-1.00729470772501E-16));
#516=DIRECTION('',(-0.76501826201508,-0.039637704485641,0.642787609686539));
#517=DIRECTION('center_axis',(1.04079632570238E-16,-6.20512289593583E-17,
-1.));
#518=DIRECTION('ref_axis',(0.998660415706797,0.0517433483679545,1.00729470772501E-16));
#519=DIRECTION('center_axis',(1.04079632570238E-16,-6.20512289593583E-17,
-1.));
#520=DIRECTION('ref_axis',(0.998660415706797,0.0517433483679545,1.00729470772501E-16));
#521=DIRECTION('center_axis',(1.04079632570238E-16,-6.20512289593583E-17,
-1.));
#522=DIRECTION('ref_axis',(0.998660415706797,0.0517433483679545,1.00729470772501E-16));
#523=DIRECTION('',(1.04079632570238E-16,-6.20512289593583E-17,-1.));
#524=DIRECTION('center_axis',(-1.04079632570238E-16,6.20512289593583E-17,
1.));
#525=DIRECTION('ref_axis',(-0.353087553675284,0.935590283959599,-9.48037497737759E-17));
#526=DIRECTION('center_axis',(1.04079632570238E-16,-6.20512289593583E-17,
-1.));
#527=DIRECTION('ref_axis',(-0.353087553675284,0.935590283959599,-9.48037497737759E-17));
#528=DIRECTION('',(-1.04079632570238E-16,6.20512289593583E-17,1.));
#529=DIRECTION('center_axis',(-1.04079632570238E-16,6.20512289593583E-17,
1.));
#530=DIRECTION('ref_axis',(-0.353087553675284,0.935590283959599,-9.48037497737759E-17));
#531=DIRECTION('',(1.04079632570238E-16,-6.20512289593583E-17,-1.));
#532=DIRECTION('center_axis',(0.225185511136263,0.974315906456576,-3.70202741310782E-17));
#533=DIRECTION('ref_axis',(-0.974315906456576,0.225185511136263,-1.15379479261185E-16));
#534=DIRECTION('',(-0.974315906456576,0.225185511136263,-1.15379479261185E-16));
#535=DIRECTION('',(-1.04079632570238E-16,6.20512289593583E-17,1.));
#536=DIRECTION('',(-0.974315906456576,0.225185511136263,-1.15379479261185E-16));
#537=DIRECTION('center_axis',(-1.04079632570238E-16,6.20512289593583E-17,
1.));
#538=DIRECTION('ref_axis',(-0.727818895318367,-0.685769389530877,-3.31982897993123E-17));
#539=DIRECTION('center_axis',(1.04079632570238E-16,-6.20512289593583E-17,
-1.));
#540=DIRECTION('ref_axis',(-0.727818895318367,-0.685769389530877,-3.31982897993123E-17));
#541=DIRECTION('',(-1.04079632570238E-16,6.20512289593583E-17,1.));
#542=DIRECTION('center_axis',(-1.04079632570238E-16,6.20512289593583E-17,
1.));
#543=DIRECTION('ref_axis',(-0.727818895318367,-0.685769389530877,-3.31982897993123E-17));
#544=DIRECTION('',(1.04079632570238E-16,-6.20512289593583E-17,-1.));
#545=DIRECTION('center_axis',(1.04079632570238E-16,-6.20512289593583E-17,
-1.));
#546=DIRECTION('ref_axis',(-0.887080942128754,0.461613910223643,-1.20970768950933E-16));
#547=DIRECTION('center_axis',(1.04079632570238E-16,-6.20512289593583E-17,
-1.));
#548=DIRECTION('ref_axis',(-0.887080942128754,0.461613910223643,-1.20970768950933E-16));
#549=DIRECTION('',(-1.04079632570238E-16,6.20512289593583E-17,1.));
#550=DIRECTION('center_axis',(1.04079632570238E-16,-6.20512289593583E-17,
-1.));
#551=DIRECTION('ref_axis',(-0.887080942128754,0.461613910223643,-1.20970768950933E-16));
#552=DIRECTION('center_axis',(1.04079632570238E-16,-6.20512289593583E-17,
-1.));
#553=DIRECTION('ref_axis',(-0.998660415706797,-0.0517433483679545,-1.00729470772501E-16));
#554=DIRECTION('center_axis',(-1.04079632570238E-16,6.20512289593583E-17,
1.));
#555=DIRECTION('ref_axis',(-0.998660415706797,-0.0517433483679545,-1.00729470772501E-16));
#556=DIRECTION('',(1.04079632570238E-16,-6.20512289593583E-17,-1.));
#557=DIRECTION('center_axis',(-1.04079632570238E-16,6.20512289593583E-17,
1.));
#558=DIRECTION('ref_axis',(-0.998660415706797,-0.0517433483679545,-1.00729470772501E-16));
#559=DIRECTION('center_axis',(1.04079632570238E-16,-6.20512289593583E-17,
-1.));
#560=DIRECTION('ref_axis',(-0.998660415706797,-0.0517433483679545,-1.00729470772501E-16));
#561=DIRECTION('',(1.04079632570238E-16,-6.20512289593583E-17,-1.));
#562=DIRECTION('center_axis',(1.04079632570238E-16,-6.20512289593583E-17,
-1.));
#563=DIRECTION('ref_axis',(-0.998660415706797,-0.0517433483679545,-1.00729470772501E-16));
#564=DIRECTION('',(1.04079632570238E-16,-6.20512289593583E-17,-1.));
#565=DIRECTION('center_axis',(1.04079632570238E-16,-6.20512289593583E-17,
-1.));
#566=DIRECTION('ref_axis',(0.887080942128765,-0.461613910223623,1.20970768950933E-16));
#567=DIRECTION('center_axis',(1.04079632570238E-16,-6.20512289593583E-17,
-1.));
#568=DIRECTION('ref_axis',(0.887080942128765,-0.461613910223623,1.20970768950933E-16));
#569=DIRECTION('',(-1.04079632570238E-16,6.20512289593583E-17,1.));
#570=DIRECTION('center_axis',(1.04079632570238E-16,-6.20512289593583E-17,
-1.));
#571=DIRECTION('ref_axis',(0.887080942128765,-0.461613910223623,1.20970768950933E-16));
#572=DIRECTION('center_axis',(1.04079632570238E-16,-6.20512289593583E-17,
-1.));
#573=DIRECTION('ref_axis',(0.225185511136263,0.974315906456576,-3.70202741310783E-17));
#574=DIRECTION('center_axis',(1.04079632570238E-16,-6.20512289593583E-17,
-1.));
#575=DIRECTION('ref_axis',(0.225185511136263,0.974315906456576,-3.70202741310783E-17));
#576=DIRECTION('',(-1.04079632570238E-16,6.20512289593583E-17,1.));
#577=DIRECTION('center_axis',(1.04079632570238E-16,-6.20512289593583E-17,
-1.));
#578=DIRECTION('ref_axis',(0.225185511136263,0.974315906456576,-3.70202741310783E-17));
#579=DIRECTION('center_axis',(-0.225185511136264,-0.974315906456576,3.70202741310781E-17));
#580=DIRECTION('ref_axis',(0.974315906456576,-0.225185511136264,1.15379479261185E-16));
#581=DIRECTION('',(0.974315906456576,-0.225185511136264,1.15379479261185E-16));
#582=DIRECTION('',(0.974315906456576,-0.225185511136264,1.15379479261185E-16));
#583=DIRECTION('center_axis',(0.974315906456577,-0.225185511136261,1.15379479261185E-16));
#584=DIRECTION('ref_axis',(0.225185511136261,0.974315906456577,-3.70202741310785E-17));
#585=DIRECTION('',(0.225185511136261,0.974315906456577,-3.70202741310785E-17));
#586=DIRECTION('',(0.225185511136261,0.974315906456577,-3.70202741310785E-17));
#587=DIRECTION('center_axis',(1.04079632570238E-16,-6.20512289593583E-17,
-1.));
#588=DIRECTION('ref_axis',(-0.998660415706797,-0.0517433483679544,-1.00729470772501E-16));
#589=DIRECTION('center_axis',(1.04079632570238E-16,-6.20512289593583E-17,
-1.));
#590=DIRECTION('ref_axis',(-0.998660415706797,-0.0517433483679544,-1.00729470772501E-16));
#591=CARTESIAN_POINT('',(0.,0.,0.));
#592=CARTESIAN_POINT('Origin',(15.0819032657364,104.524908990092,15.0000000000084));
#593=CARTESIAN_POINT('',(14.2874793975431,101.087654935229,15.0000000000084));
#594=CARTESIAN_POINT('',(15.0819032657364,104.524908990092,15.0000000000084));
#595=CARTESIAN_POINT('',(14.9849552006296,104.105441318939,14.9999999999998));
#596=CARTESIAN_POINT('',(14.2874793975431,101.087654935229,4.99999999999947));
#597=CARTESIAN_POINT('',(14.2874793975349,101.087654935194,4.99999999999083));
#598=CARTESIAN_POINT('',(15.0819032657364,104.524908990092,4.99999999999947));
#599=CARTESIAN_POINT('',(15.585433376186,106.703545588492,4.99999999999947));
#600=CARTESIAN_POINT('',(15.0819032657255,104.524908990045,4.99999999999083));
#601=CARTESIAN_POINT('Origin',(10.3902157717133,101.988396979775,15.0000000000084));
#602=CARTESIAN_POINT('',(11.1846396399067,105.425651034638,15.0000000000084));
#603=CARTESIAN_POINT('',(10.3902157717133,101.988396979775,15.0000000000084));
#604=CARTESIAN_POINT('',(10.6904796407032,103.287556336053,14.9999999999998));
#605=CARTESIAN_POINT('',(11.1846396399067,105.425651034638,4.99999999999947));
#606=CARTESIAN_POINT('',(11.1846396398985,105.425651034603,4.99999999999083));
#607=CARTESIAN_POINT('',(10.3902157717133,101.988396979775,4.99999999999947));
#608=CARTESIAN_POINT('',(9.88668566126379,99.8097603813752,4.99999999999947));
#609=CARTESIAN_POINT('',(10.3902157717023,101.988396979728,4.99999999999083));
#610=CARTESIAN_POINT('Origin',(13.6368015632679,107.15391661072,4.99999999999083));
#611=CARTESIAN_POINT('Origin',(13.6368015632679,107.15391661072,14.9999999999998));
#612=CARTESIAN_POINT('Origin',(13.6368015632679,107.15391661072,4.99999999999083));
#613=CARTESIAN_POINT('Origin',(11.8353174741762,99.3593893590609,4.99999999999083));
#614=CARTESIAN_POINT('Origin',(11.8353174741762,99.3593893590609,4.99999999999083));
#615=CARTESIAN_POINT('Origin',(11.8353174741762,99.3593893590609,14.9999999999998));
#616=CARTESIAN_POINT('Origin',(11.8353174741762,99.3593893590609,4.99999999999083));
#617=CARTESIAN_POINT('',(15.2346582284002,107.236705968109,4.99999999999083));
#618=CARTESIAN_POINT('Origin',(13.6368015632679,107.15391661072,4.99999999999083));
#619=CARTESIAN_POINT('',(13.4331741393085,99.4421787164497,4.99999999999083));
#620=CARTESIAN_POINT('Origin',(11.8353174741762,99.3593893590609,4.99999999999083));
#621=CARTESIAN_POINT('Origin',(11.8353174741762,99.3593893590609,16.2413505532349));
#622=CARTESIAN_POINT('',(13.4331741393085,99.4421787164497,16.3252605163528));
#623=CARTESIAN_POINT('',(10.2374608090439,99.2766000016721,16.3252605163527));
#624=CARTESIAN_POINT('Origin',(11.8353174741762,99.3593893590609,16.3252605163528));
#625=CARTESIAN_POINT('Origin',(11.8353174741762,99.3593893590609,16.3252605163528));
#626=CARTESIAN_POINT('',(8.83933622705315,99.2041593139569,17.500000000002));
#627=CARTESIAN_POINT('',(10.3373268506147,99.2817743365089,16.2413505532349));
#628=CARTESIAN_POINT('Origin',(11.8353174741762,99.3593893590609,17.500000000002));
#629=CARTESIAN_POINT('Origin',(11.8353174741762,99.3593893590609,18.7500000000031));
#630=CARTESIAN_POINT('',(8.83933622705316,99.2041593139569,20.0000000000042));
#631=CARTESIAN_POINT('Origin',(11.8353174741762,99.3593893590609,20.0000000000042));
#632=CARTESIAN_POINT('',(8.83933622705313,99.2041593139569,18.7500000000031));
#633=CARTESIAN_POINT('Origin',(13.6368015632679,107.15391661072,16.2413505532349));
#634=CARTESIAN_POINT('',(15.2346582284002,107.236705968109,16.3252605163528));
#635=CARTESIAN_POINT('',(12.0389448981356,107.071127253331,16.3252605163527));
#636=CARTESIAN_POINT('Origin',(13.6368015632679,107.15391661072,16.3252605163528));
#637=CARTESIAN_POINT('Origin',(13.6368015632679,107.15391661072,16.3252605163528));
#638=CARTESIAN_POINT('',(10.6408203161448,106.998686565616,17.500000000002));
#639=CARTESIAN_POINT('',(12.1388109397064,107.076301588168,16.2413505532349));
#640=CARTESIAN_POINT('Origin',(13.6368015632679,107.15391661072,17.500000000002));
#641=CARTESIAN_POINT('Origin',(13.6368015632679,107.15391661072,18.7500000000031));
#642=CARTESIAN_POINT('',(10.6408203161448,106.998686565616,20.0000000000042));
#643=CARTESIAN_POINT('Origin',(13.6368015632679,107.15391661072,20.0000000000042));
#644=CARTESIAN_POINT('',(10.6408203161448,106.998686565616,18.7500000000031));
#645=CARTESIAN_POINT('Origin',(17.1182491350798,95.5724865260986,14.9999999999998));
#646=CARTESIAN_POINT('',(15.0863523424246,97.0289876156995,14.9999999999998));
#647=CARTESIAN_POINT('',(17.6812129129209,98.0082762922422,14.9999999999998));
#648=CARTESIAN_POINT('Origin',(17.1182491350798,95.5724865260986,14.9999999999998));
#649=CARTESIAN_POINT('',(17.6812129129209,98.0082762922422,20.0000000000042));
#650=CARTESIAN_POINT('',(17.6812129129209,98.0082762922422,14.9999999999998));
#651=CARTESIAN_POINT('',(15.0863523424246,97.0289876156995,20.0000000000042));
#652=CARTESIAN_POINT('Origin',(17.1182491350798,95.5724865260986,20.0000000000042));
#653=CARTESIAN_POINT('',(15.0863523424246,97.0289876156995,14.9999999999998));
#654=CARTESIAN_POINT('Origin',(18.5855760846035,97.7992583733941,14.9999999999998));
#655=CARTESIAN_POINT('',(18.5855760846035,97.7992583733941,14.9999999999998));
#656=CARTESIAN_POINT('',(16.746416388411,98.2243280181611,14.9999999999998));
#657=CARTESIAN_POINT('',(18.5855760846035,97.7992583733941,20.0000000000042));
#658=CARTESIAN_POINT('',(18.5855760846035,97.7992583733941,14.9999999999998));
#659=CARTESIAN_POINT('',(16.746416388411,98.2243280181611,20.0000000000042));
#660=CARTESIAN_POINT('Origin',(20.0456607798537,108.238593310045,14.9999999999998));
#661=CARTESIAN_POINT('',(19.4826970020126,105.802803543902,14.9999999999998));
#662=CARTESIAN_POINT('',(17.5807149273207,107.821409964151,14.9999999999998));
#663=CARTESIAN_POINT('Origin',(20.0456607798537,108.238593310045,14.9999999999998));
#664=CARTESIAN_POINT('',(17.5807149273207,107.821409964151,20.0000000000042));
#665=CARTESIAN_POINT('',(17.5807149273207,107.821409964151,14.9999999999998));
#666=CARTESIAN_POINT('',(19.4826970020126,105.802803543902,20.0000000000042));
#667=CARTESIAN_POINT('Origin',(20.0456607798537,108.238593310045,20.0000000000042));
#668=CARTESIAN_POINT('',(19.4826970020126,105.802803543902,14.9999999999998));
#669=CARTESIAN_POINT('Origin',(13.6368015632679,107.15391661072,14.9999999999998));
#670=CARTESIAN_POINT('',(10.0884777947497,109.000372251617,14.9999999999998));
#671=CARTESIAN_POINT('Origin',(13.6368015632679,107.15391661072,14.9999999999998));
#672=CARTESIAN_POINT('',(10.0884777947497,109.000372251617,20.0000000000042));
#673=CARTESIAN_POINT('',(10.0884777947497,109.000372251617,14.9999999999998));
#674=CARTESIAN_POINT('Origin',(13.6368015632679,107.15391661072,20.0000000000042));
#675=CARTESIAN_POINT('Origin',(19.4863181291494,101.696521999224,14.9999999999998));
#676=CARTESIAN_POINT('',(21.0841747942817,101.779311356613,20.0000000000042));
#677=CARTESIAN_POINT('Origin',(19.4863181291494,101.696521999224,20.0000000000042));
#678=CARTESIAN_POINT('',(21.0841747942817,101.779311356613,14.9999999999998));
#679=CARTESIAN_POINT('',(21.0841747942817,101.779311356613,14.9999999999998));
#680=CARTESIAN_POINT('Origin',(19.4863181291494,101.696521999224,14.9999999999998));
#681=CARTESIAN_POINT('Origin',(11.8353174741762,99.3593893590609,14.9999999999998));
#682=CARTESIAN_POINT('',(13.4331741393085,99.4421787164497,14.9999999999998));
#683=CARTESIAN_POINT('Origin',(13.6368015632679,107.15391661072,14.9999999999998));
#684=CARTESIAN_POINT('',(15.2346582284002,107.236705968109,14.9999999999998));
#685=CARTESIAN_POINT('Origin',(11.8353174741762,99.3593893590609,14.9999999999998));
#686=CARTESIAN_POINT('',(7.83662268338509,99.2572131870423,20.0000000000042));
#687=CARTESIAN_POINT('Origin',(11.8353174741762,99.3593893590609,20.0000000000042));
#688=CARTESIAN_POINT('',(7.83662268338509,99.2572131870423,14.9999999999998));
#689=CARTESIAN_POINT('',(7.83662268338509,99.2572131870423,14.9999999999998));
#690=CARTESIAN_POINT('Origin',(11.8353174741762,99.3593893590609,14.9999999999998));
#691=CARTESIAN_POINT('Origin',(19.4863181291494,101.696521999224,14.9999999999998));
#692=CARTESIAN_POINT('',(20.3870601736952,105.593785625054,14.9999999999998));
#693=CARTESIAN_POINT('Origin',(19.4863181291494,101.696521999224,14.9999999999998));
#694=CARTESIAN_POINT('',(20.3870601736952,105.593785625054,20.0000000000042));
#695=CARTESIAN_POINT('',(20.3870601736952,105.593785625054,14.9999999999998));
#696=CARTESIAN_POINT('Origin',(19.4863181291494,101.696521999224,20.0000000000042));
#697=CARTESIAN_POINT('Origin',(17.4103108429226,106.281776876282,14.9999999999998));
#698=CARTESIAN_POINT('',(17.0595258121164,106.362850895435,20.0000000000042));
#699=CARTESIAN_POINT('',(17.0595258121164,106.362850895435,14.9999999999998));
#700=CARTESIAN_POINT('Origin',(7.83662268338509,99.2572131870423,14.9999999999998));
#701=CARTESIAN_POINT('',(7.83662268338509,99.2572131870423,14.9999999999998));
#702=CARTESIAN_POINT('',(7.83662268338509,99.2572131870423,20.0000000000042));
#703=CARTESIAN_POINT('Origin',(16.011314540657,103.426352973924,20.0000000000042));
#704=CARTESIAN_POINT('Origin',(16.011314540657,103.426352973924,14.9999999999998));
#705=UNCERTAINTY_MEASURE_WITH_UNIT(LENGTH_MEASURE(0.01),#709,
'DISTANCE_ACCURACY_VALUE',
'Maximum model space distance between geometric entities at asserted c
onnectivities');
#706=UNCERTAINTY_MEASURE_WITH_UNIT(LENGTH_MEASURE(0.01),#709,
'DISTANCE_ACCURACY_VALUE',
'Maximum model space distance between geometric entities at asserted c
onnectivities');
#707=(
GEOMETRIC_REPRESENTATION_CONTEXT(3)
GLOBAL_UNCERTAINTY_ASSIGNED_CONTEXT((#705))
GLOBAL_UNIT_ASSIGNED_CONTEXT((#709,#711,#712))
REPRESENTATION_CONTEXT('','3D')
);
#708=(
GEOMETRIC_REPRESENTATION_CONTEXT(3)
GLOBAL_UNCERTAINTY_ASSIGNED_CONTEXT((#706))
GLOBAL_UNIT_ASSIGNED_CONTEXT((#709,#711,#712))
REPRESENTATION_CONTEXT('','3D')
);
#709=(
LENGTH_UNIT()
NAMED_UNIT(*)
SI_UNIT(.MILLI.,.METRE.)
);
#710=(
LENGTH_UNIT()
NAMED_UNIT(*)
SI_UNIT($,.METRE.)
);
#711=(
NAMED_UNIT(*)
PLANE_ANGLE_UNIT()
SI_UNIT($,.RADIAN.)
);
#712=(
NAMED_UNIT(*)
SI_UNIT($,.STERADIAN.)
SOLID_ANGLE_UNIT()
);
#713=SHAPE_DEFINITION_REPRESENTATION(#714,#715);
#714=PRODUCT_DEFINITION_SHAPE('',$,#717);
#715=SHAPE_REPRESENTATION('',(#415),#707);
#716=PRODUCT_DEFINITION_CONTEXT('part definition',#721,'design');
#717=PRODUCT_DEFINITION('Steering linkage connector',
'Steering linkage connector',#718,#716);
#718=PRODUCT_DEFINITION_FORMATION('',$,#723);
#719=PRODUCT_RELATED_PRODUCT_CATEGORY('Steering linkage connector',
'Steering linkage connector',(#723));
#720=APPLICATION_PROTOCOL_DEFINITION('international standard',
'automotive_design',2009,#721);
#721=APPLICATION_CONTEXT(
'Core Data for Automotive Mechanical Design Process');
#722=PRODUCT_CONTEXT('part definition',#721,'mechanical');
#723=PRODUCT('Steering linkage connector','Steering linkage connector',
$,(#722));
#724=PRESENTATION_STYLE_ASSIGNMENT((#725));
#725=SURFACE_STYLE_USAGE(.BOTH.,#726);
#726=SURFACE_SIDE_STYLE('',(#727));
#727=SURFACE_STYLE_FILL_AREA(#728);
#728=FILL_AREA_STYLE('Stahl - satiniert',(#729));
#729=FILL_AREA_STYLE_COLOUR('Stahl - satiniert',#730);
#730=COLOUR_RGB('Stahl - satiniert',0.627450980392157,0.627450980392157,
0.627450980392157);
ENDSEC;
END-ISO-10303-21;
