ISO-10303-21;
HEADER;
/* Generated by software containing ST-Developer
 * from STEP Tools, Inc. (www.steptools.com) 
 */

FILE_DESCRIPTION(
/* description */ (''),
/* implementation_level */ '2;1');

FILE_NAME(
/* name */ 'Front LED insert.step',
/* time_stamp */ '2026-01-02T22:19:38+01:00',
/* author */ (''),
/* organization */ (''),
/* preprocessor_version */ 'ST-DEVELOPER v20.1',
/* originating_system */ 'Autodesk Translation Framework v14.21.0.0',
/* authorisation */ '');

FILE_SCHEMA (('AUTOMOTIVE_DESIGN { 1 0 10303 214 3 1 1 }'));
ENDSEC;

DATA;
#10=MECHANICAL_DESIGN_GEOMETRIC_PRESENTATION_REPRESENTATION('',(#13),#415);
#11=SHAPE_REPRESENTATION_RELATIONSHIP('SRR','None',#422,#12);
#12=ADVANCED_BREP_SHAPE_REPRESENTATION('',(#14),#414);
#13=STYLED_ITEM('',(#432),#14);
#14=MANIFOLD_SOLID_BREP('Left front LED insert',#232);
#15=CONICAL_SURFACE('',#263,3.05,0.785398163397448);
#16=CONICAL_SURFACE('',#267,3.05,0.785398163397448);
#17=CIRCLE('',#251,5.);
#18=CIRCLE('',#252,5.);
#19=CIRCLE('',#255,5.);
#20=CIRCLE('',#256,5.);
#21=CIRCLE('',#258,4.);
#22=CIRCLE('',#259,4.);
#23=CIRCLE('',#261,3.55);
#24=CIRCLE('',#262,3.55);
#25=CIRCLE('',#264,2.55);
#26=CIRCLE('',#265,2.55);
#27=CIRCLE('',#268,2.55);
#28=CIRCLE('',#270,2.55);
#29=CIRCLE('',#272,4.);
#30=CYLINDRICAL_SURFACE('',#250,5.);
#31=CYLINDRICAL_SURFACE('',#254,5.);
#32=CYLINDRICAL_SURFACE('',#257,4.);
#33=CYLINDRICAL_SURFACE('',#266,2.55);
#34=CYLINDRICAL_SURFACE('',#269,2.55);
#35=CYLINDRICAL_SURFACE('',#273,4.);
#36=LINE('',#358,#50);
#37=LINE('',#360,#51);
#38=LINE('',#362,#52);
#39=LINE('',#363,#53);
#40=LINE('',#369,#54);
#41=LINE('',#372,#55);
#42=LINE('',#374,#56);
#43=LINE('',#375,#57);
#44=LINE('',#383,#58);
#45=LINE('',#394,#59);
#46=LINE('',#397,#60);
#47=LINE('',#401,#61);
#48=LINE('',#405,#62);
#49=LINE('',#410,#63);
#50=VECTOR('',#285,10.);
#51=VECTOR('',#286,10.);
#52=VECTOR('',#287,10.);
#53=VECTOR('',#288,10.);
#54=VECTOR('',#295,10.);
#55=VECTOR('',#298,10.);
#56=VECTOR('',#299,10.);
#57=VECTOR('',#300,10.);
#58=VECTOR('',#311,4.);
#59=VECTOR('',#324,3.05);
#60=VECTOR('',#329,2.55);
#61=VECTOR('',#334,3.05);
#62=VECTOR('',#339,2.55);
#63=VECTOR('',#346,4.);
#64=FACE_BOUND('',#85,.T.);
#65=FACE_BOUND('',#92,.T.);
#66=FACE_BOUND('',#93,.T.);
#67=FACE_BOUND('',#99,.T.);
#68=FACE_BOUND('',#100,.T.);
#69=FACE_BOUND('',#103,.T.);
#70=FACE_OUTER_BOUND('',#84,.T.);
#71=FACE_OUTER_BOUND('',#86,.T.);
#72=FACE_OUTER_BOUND('',#87,.T.);
#73=FACE_OUTER_BOUND('',#88,.T.);
#74=FACE_OUTER_BOUND('',#89,.T.);
#75=FACE_OUTER_BOUND('',#90,.T.);
#76=FACE_OUTER_BOUND('',#91,.T.);
#77=FACE_OUTER_BOUND('',#94,.T.);
#78=FACE_OUTER_BOUND('',#95,.T.);
#79=FACE_OUTER_BOUND('',#96,.T.);
#80=FACE_OUTER_BOUND('',#97,.T.);
#81=FACE_OUTER_BOUND('',#98,.T.);
#82=FACE_OUTER_BOUND('',#101,.T.);
#83=FACE_OUTER_BOUND('',#102,.T.);
#84=EDGE_LOOP('',(#154));
#85=EDGE_LOOP('',(#155));
#86=EDGE_LOOP('',(#156,#157,#158,#159));
#87=EDGE_LOOP('',(#160,#161,#162,#163));
#88=EDGE_LOOP('',(#164,#165,#166,#167));
#89=EDGE_LOOP('',(#168,#169,#170,#171));
#90=EDGE_LOOP('',(#172,#173,#174,#175));
#91=EDGE_LOOP('',(#176,#177,#178,#179));
#92=EDGE_LOOP('',(#180));
#93=EDGE_LOOP('',(#181));
#94=EDGE_LOOP('',(#182,#183,#184,#185,#186));
#95=EDGE_LOOP('',(#187,#188,#189,#190,#191));
#96=EDGE_LOOP('',(#192,#193,#194,#195));
#97=EDGE_LOOP('',(#196,#197,#198,#199));
#98=EDGE_LOOP('',(#200,#201,#202,#203));
#99=EDGE_LOOP('',(#204));
#100=EDGE_LOOP('',(#205));
#101=EDGE_LOOP('',(#206,#207,#208,#209));
#102=EDGE_LOOP('',(#210));
#103=EDGE_LOOP('',(#211));
#104=ELLIPSE('',#247,4.12310562561766,4.);
#105=ELLIPSE('',#248,2.62847983633126,2.55);
#106=VERTEX_POINT('',#351);
#107=VERTEX_POINT('',#353);
#108=VERTEX_POINT('',#356);
#109=VERTEX_POINT('',#357);
#110=VERTEX_POINT('',#359);
#111=VERTEX_POINT('',#361);
#112=VERTEX_POINT('',#365);
#113=VERTEX_POINT('',#367);
#114=VERTEX_POINT('',#371);
#115=VERTEX_POINT('',#373);
#116=VERTEX_POINT('',#380);
#117=VERTEX_POINT('',#382);
#118=VERTEX_POINT('',#386);
#119=VERTEX_POINT('',#388);
#120=VERTEX_POINT('',#391);
#121=VERTEX_POINT('',#392);
#122=VERTEX_POINT('',#399);
#123=VERTEX_POINT('',#403);
#124=VERTEX_POINT('',#407);
#125=EDGE_CURVE('',#106,#106,#104,.T.);
#126=EDGE_CURVE('',#107,#107,#105,.T.);
#127=EDGE_CURVE('',#108,#109,#36,.F.);
#128=EDGE_CURVE('',#108,#110,#37,.T.);
#129=EDGE_CURVE('',#111,#110,#38,.T.);
#130=EDGE_CURVE('',#109,#111,#39,.T.);
#131=EDGE_CURVE('',#109,#112,#17,.F.);
#132=EDGE_CURVE('',#113,#111,#18,.T.);
#133=EDGE_CURVE('',#112,#113,#40,.T.);
#134=EDGE_CURVE('',#112,#114,#41,.F.);
#135=EDGE_CURVE('',#115,#113,#42,.T.);
#136=EDGE_CURVE('',#114,#115,#43,.T.);
#137=EDGE_CURVE('',#114,#108,#19,.F.);
#138=EDGE_CURVE('',#110,#115,#20,.T.);
#139=EDGE_CURVE('',#116,#116,#21,.T.);
#140=EDGE_CURVE('',#116,#117,#44,.T.);
#141=EDGE_CURVE('',#117,#117,#22,.T.);
#142=EDGE_CURVE('',#118,#118,#23,.T.);
#143=EDGE_CURVE('',#119,#119,#24,.T.);
#144=EDGE_CURVE('',#120,#121,#25,.T.);
#145=EDGE_CURVE('',#121,#118,#45,.T.);
#146=EDGE_CURVE('',#121,#120,#26,.T.);
#147=EDGE_CURVE('',#107,#120,#46,.T.);
#148=EDGE_CURVE('',#122,#122,#27,.T.);
#149=EDGE_CURVE('',#122,#119,#47,.T.);
#150=EDGE_CURVE('',#123,#123,#28,.T.);
#151=EDGE_CURVE('',#123,#122,#48,.T.);
#152=EDGE_CURVE('',#124,#124,#29,.T.);
#153=EDGE_CURVE('',#106,#124,#49,.T.);
#154=ORIENTED_EDGE('',*,*,#125,.F.);
#155=ORIENTED_EDGE('',*,*,#126,.F.);
#156=ORIENTED_EDGE('',*,*,#127,.F.);
#157=ORIENTED_EDGE('',*,*,#128,.T.);
#158=ORIENTED_EDGE('',*,*,#129,.F.);
#159=ORIENTED_EDGE('',*,*,#130,.F.);
#160=ORIENTED_EDGE('',*,*,#131,.F.);
#161=ORIENTED_EDGE('',*,*,#130,.T.);
#162=ORIENTED_EDGE('',*,*,#132,.F.);
#163=ORIENTED_EDGE('',*,*,#133,.F.);
#164=ORIENTED_EDGE('',*,*,#134,.F.);
#165=ORIENTED_EDGE('',*,*,#133,.T.);
#166=ORIENTED_EDGE('',*,*,#135,.F.);
#167=ORIENTED_EDGE('',*,*,#136,.F.);
#168=ORIENTED_EDGE('',*,*,#137,.F.);
#169=ORIENTED_EDGE('',*,*,#136,.T.);
#170=ORIENTED_EDGE('',*,*,#138,.F.);
#171=ORIENTED_EDGE('',*,*,#128,.F.);
#172=ORIENTED_EDGE('',*,*,#139,.F.);
#173=ORIENTED_EDGE('',*,*,#140,.T.);
#174=ORIENTED_EDGE('',*,*,#141,.T.);
#175=ORIENTED_EDGE('',*,*,#140,.F.);
#176=ORIENTED_EDGE('',*,*,#137,.T.);
#177=ORIENTED_EDGE('',*,*,#127,.T.);
#178=ORIENTED_EDGE('',*,*,#131,.T.);
#179=ORIENTED_EDGE('',*,*,#134,.T.);
#180=ORIENTED_EDGE('',*,*,#142,.F.);
#181=ORIENTED_EDGE('',*,*,#143,.F.);
#182=ORIENTED_EDGE('',*,*,#144,.T.);
#183=ORIENTED_EDGE('',*,*,#145,.T.);
#184=ORIENTED_EDGE('',*,*,#142,.T.);
#185=ORIENTED_EDGE('',*,*,#145,.F.);
#186=ORIENTED_EDGE('',*,*,#146,.T.);
#187=ORIENTED_EDGE('',*,*,#126,.T.);
#188=ORIENTED_EDGE('',*,*,#147,.T.);
#189=ORIENTED_EDGE('',*,*,#146,.F.);
#190=ORIENTED_EDGE('',*,*,#144,.F.);
#191=ORIENTED_EDGE('',*,*,#147,.F.);
#192=ORIENTED_EDGE('',*,*,#148,.T.);
#193=ORIENTED_EDGE('',*,*,#149,.T.);
#194=ORIENTED_EDGE('',*,*,#143,.T.);
#195=ORIENTED_EDGE('',*,*,#149,.F.);
#196=ORIENTED_EDGE('',*,*,#150,.F.);
#197=ORIENTED_EDGE('',*,*,#151,.T.);
#198=ORIENTED_EDGE('',*,*,#148,.F.);
#199=ORIENTED_EDGE('',*,*,#151,.F.);
#200=ORIENTED_EDGE('',*,*,#138,.T.);
#201=ORIENTED_EDGE('',*,*,#135,.T.);
#202=ORIENTED_EDGE('',*,*,#132,.T.);
#203=ORIENTED_EDGE('',*,*,#129,.T.);
#204=ORIENTED_EDGE('',*,*,#141,.F.);
#205=ORIENTED_EDGE('',*,*,#152,.F.);
#206=ORIENTED_EDGE('',*,*,#125,.T.);
#207=ORIENTED_EDGE('',*,*,#153,.T.);
#208=ORIENTED_EDGE('',*,*,#152,.T.);
#209=ORIENTED_EDGE('',*,*,#153,.F.);
#210=ORIENTED_EDGE('',*,*,#139,.T.);
#211=ORIENTED_EDGE('',*,*,#150,.T.);
#212=PLANE('',#246);
#213=PLANE('',#249);
#214=PLANE('',#253);
#215=PLANE('',#260);
#216=PLANE('',#271);
#217=PLANE('',#274);
#218=ADVANCED_FACE('',(#70,#64),#212,.F.);
#219=ADVANCED_FACE('',(#71),#213,.T.);
#220=ADVANCED_FACE('',(#72),#30,.T.);
#221=ADVANCED_FACE('',(#73),#214,.T.);
#222=ADVANCED_FACE('',(#74),#31,.T.);
#223=ADVANCED_FACE('',(#75),#32,.T.);
#224=ADVANCED_FACE('',(#76,#65,#66),#215,.T.);
#225=ADVANCED_FACE('',(#77),#15,.F.);
#226=ADVANCED_FACE('',(#78),#33,.F.);
#227=ADVANCED_FACE('',(#79),#16,.F.);
#228=ADVANCED_FACE('',(#80),#34,.F.);
#229=ADVANCED_FACE('',(#81,#67,#68),#216,.F.);
#230=ADVANCED_FACE('',(#82),#35,.T.);
#231=ADVANCED_FACE('',(#83,#69),#217,.F.);
#232=CLOSED_SHELL('',(#218,#219,#220,#221,#222,#223,#224,#225,#226,#227,
#228,#229,#230,#231));
#233=DERIVED_UNIT_ELEMENT(#235,1.);
#234=DERIVED_UNIT_ELEMENT(#417,-3.);
#235=(
MASS_UNIT()
NAMED_UNIT(*)
SI_UNIT(.KILO.,.GRAM.)
);
#236=DERIVED_UNIT((#233,#234));
#237=MEASURE_REPRESENTATION_ITEM('density measure',
POSITIVE_RATIO_MEASURE(7850.),#236);
#238=PROPERTY_DEFINITION_REPRESENTATION(#243,#240);
#239=PROPERTY_DEFINITION_REPRESENTATION(#244,#241);
#240=REPRESENTATION('material name',(#242),#414);
#241=REPRESENTATION('density',(#237),#414);
#242=DESCRIPTIVE_REPRESENTATION_ITEM('Stahl','Stahl');
#243=PROPERTY_DEFINITION('material property','material name',#424);
#244=PROPERTY_DEFINITION('material property','density of part',#424);
#245=AXIS2_PLACEMENT_3D('',#349,#275,#276);
#246=AXIS2_PLACEMENT_3D('',#350,#277,#278);
#247=AXIS2_PLACEMENT_3D('',#352,#279,#280);
#248=AXIS2_PLACEMENT_3D('',#354,#281,#282);
#249=AXIS2_PLACEMENT_3D('',#355,#283,#284);
#250=AXIS2_PLACEMENT_3D('',#364,#289,#290);
#251=AXIS2_PLACEMENT_3D('',#366,#291,#292);
#252=AXIS2_PLACEMENT_3D('',#368,#293,#294);
#253=AXIS2_PLACEMENT_3D('',#370,#296,#297);
#254=AXIS2_PLACEMENT_3D('',#376,#301,#302);
#255=AXIS2_PLACEMENT_3D('',#377,#303,#304);
#256=AXIS2_PLACEMENT_3D('',#378,#305,#306);
#257=AXIS2_PLACEMENT_3D('',#379,#307,#308);
#258=AXIS2_PLACEMENT_3D('',#381,#309,#310);
#259=AXIS2_PLACEMENT_3D('',#384,#312,#313);
#260=AXIS2_PLACEMENT_3D('',#385,#314,#315);
#261=AXIS2_PLACEMENT_3D('',#387,#316,#317);
#262=AXIS2_PLACEMENT_3D('',#389,#318,#319);
#263=AXIS2_PLACEMENT_3D('',#390,#320,#321);
#264=AXIS2_PLACEMENT_3D('',#393,#322,#323);
#265=AXIS2_PLACEMENT_3D('',#395,#325,#326);
#266=AXIS2_PLACEMENT_3D('',#396,#327,#328);
#267=AXIS2_PLACEMENT_3D('',#398,#330,#331);
#268=AXIS2_PLACEMENT_3D('',#400,#332,#333);
#269=AXIS2_PLACEMENT_3D('',#402,#335,#336);
#270=AXIS2_PLACEMENT_3D('',#404,#337,#338);
#271=AXIS2_PLACEMENT_3D('',#406,#340,#341);
#272=AXIS2_PLACEMENT_3D('',#408,#342,#343);
#273=AXIS2_PLACEMENT_3D('',#409,#344,#345);
#274=AXIS2_PLACEMENT_3D('',#411,#347,#348);
#275=DIRECTION('axis',(0.,0.,1.));
#276=DIRECTION('refdir',(1.,0.,0.));
#277=DIRECTION('center_axis',(0.970142500145332,0.242535625036333,0.));
#278=DIRECTION('ref_axis',(0.242535625036333,-0.970142500145332,0.));
#279=DIRECTION('center_axis',(0.970142500145332,0.242535625036333,0.));
#280=DIRECTION('ref_axis',(-0.242535625036333,0.970142500145332,0.));
#281=DIRECTION('center_axis',(-0.970142500145332,-0.242535625036333,0.));
#282=DIRECTION('ref_axis',(0.242535625036333,-0.970142500145332,0.));
#283=DIRECTION('center_axis',(0.,0.,1.));
#284=DIRECTION('ref_axis',(0.,1.,0.));
#285=DIRECTION('',(0.,1.,0.));
#286=DIRECTION('',(-1.,0.,0.));
#287=DIRECTION('',(0.,1.,0.));
#288=DIRECTION('',(-1.,0.,0.));
#289=DIRECTION('center_axis',(-1.,0.,0.));
#290=DIRECTION('ref_axis',(0.,0.,1.));
#291=DIRECTION('center_axis',(-1.,0.,0.));
#292=DIRECTION('ref_axis',(0.,0.,1.));
#293=DIRECTION('center_axis',(-1.,0.,0.));
#294=DIRECTION('ref_axis',(0.,0.,1.));
#295=DIRECTION('',(-1.,0.,0.));
#296=DIRECTION('center_axis',(0.,0.,-1.));
#297=DIRECTION('ref_axis',(0.,-1.,0.));
#298=DIRECTION('',(0.,-1.,0.));
#299=DIRECTION('',(0.,-1.,0.));
#300=DIRECTION('',(-1.,0.,0.));
#301=DIRECTION('center_axis',(-1.,0.,0.));
#302=DIRECTION('ref_axis',(0.,0.,-1.));
#303=DIRECTION('center_axis',(-1.,0.,0.));
#304=DIRECTION('ref_axis',(0.,0.,-1.));
#305=DIRECTION('center_axis',(-1.,0.,0.));
#306=DIRECTION('ref_axis',(0.,0.,-1.));
#307=DIRECTION('center_axis',(-1.,0.,0.));
#308=DIRECTION('ref_axis',(0.,1.,0.));
#309=DIRECTION('center_axis',(-1.,0.,0.));
#310=DIRECTION('ref_axis',(0.,1.,0.));
#311=DIRECTION('',(1.,0.,0.));
#312=DIRECTION('center_axis',(-1.,0.,0.));
#313=DIRECTION('ref_axis',(0.,1.,0.));
#314=DIRECTION('center_axis',(1.,0.,0.));
#315=DIRECTION('ref_axis',(0.,1.,0.));
#316=DIRECTION('center_axis',(1.,0.,0.));
#317=DIRECTION('ref_axis',(0.,1.,0.));
#318=DIRECTION('center_axis',(1.,0.,0.));
#319=DIRECTION('ref_axis',(0.,-1.,0.));
#320=DIRECTION('center_axis',(1.,0.,0.));
#321=DIRECTION('ref_axis',(0.,1.,0.));
#322=DIRECTION('center_axis',(-1.,0.,0.));
#323=DIRECTION('ref_axis',(0.,1.,0.));
#324=DIRECTION('',(0.707106781186548,-0.707106781186547,-8.65956056235493E-17));
#325=DIRECTION('center_axis',(-1.,0.,0.));
#326=DIRECTION('ref_axis',(0.,1.,0.));
#327=DIRECTION('center_axis',(1.,0.,0.));
#328=DIRECTION('ref_axis',(0.,-1.,0.));
#329=DIRECTION('',(1.,0.,0.));
#330=DIRECTION('center_axis',(1.,0.,0.));
#331=DIRECTION('ref_axis',(0.,-1.,0.));
#332=DIRECTION('center_axis',(-1.,0.,0.));
#333=DIRECTION('ref_axis',(0.,-1.,0.));
#334=DIRECTION('',(0.707106781186548,0.707106781186547,8.65956056235493E-17));
#335=DIRECTION('center_axis',(1.,0.,0.));
#336=DIRECTION('ref_axis',(0.,-1.,0.));
#337=DIRECTION('center_axis',(1.,0.,0.));
#338=DIRECTION('ref_axis',(0.,-1.,0.));
#339=DIRECTION('',(1.,0.,0.));
#340=DIRECTION('center_axis',(1.,0.,0.));
#341=DIRECTION('ref_axis',(0.,1.,0.));
#342=DIRECTION('center_axis',(-1.,0.,0.));
#343=DIRECTION('ref_axis',(0.,1.,0.));
#344=DIRECTION('center_axis',(-1.,0.,0.));
#345=DIRECTION('ref_axis',(0.,1.,0.));
#346=DIRECTION('',(1.,0.,0.));
#347=DIRECTION('center_axis',(1.,0.,0.));
#348=DIRECTION('ref_axis',(0.,1.,0.));
#349=CARTESIAN_POINT('',(0.,0.,0.));
#350=CARTESIAN_POINT('Origin',(-42.4000004172325,25.453236448715,26.0239512141617));
#351=CARTESIAN_POINT('',(-40.4000004172325,17.453236448715,21.0239512141617));
#352=CARTESIAN_POINT('Origin',(-41.4000004172325,21.453236448715,21.0239512141617));
#353=CARTESIAN_POINT('',(-42.0375004172325,24.003236448715,21.0239512141617));
#354=CARTESIAN_POINT('Origin',(-41.4000004172325,21.453236448715,21.0239512141617));
#355=CARTESIAN_POINT('Origin',(-34.9000004172325,21.453236448715,26.0239512141617));
#356=CARTESIAN_POINT('',(-34.9000004172325,31.453236448715,26.0239512141617));
#357=CARTESIAN_POINT('',(-34.9000004172325,21.453236448715,26.0239512141617));
#358=CARTESIAN_POINT('',(-34.9000004172325,26.453236448715,26.0239512141617));
#359=CARTESIAN_POINT('',(-36.9000004172325,31.453236448715,26.0239512141617));
#360=CARTESIAN_POINT('',(-34.9000004172325,31.453236448715,26.0239512141617));
#361=CARTESIAN_POINT('',(-36.9000004172325,21.453236448715,26.0239512141617));
#362=CARTESIAN_POINT('',(-36.9000004172325,22.953236448715,26.0239512141617));
#363=CARTESIAN_POINT('',(-34.9000004172325,21.453236448715,26.0239512141617));
#364=CARTESIAN_POINT('Origin',(-34.9000004172325,21.453236448715,21.0239512141617));
#365=CARTESIAN_POINT('',(-34.9000004172325,21.453236448715,16.0239512141617));
#366=CARTESIAN_POINT('Origin',(-34.9000004172325,21.453236448715,21.0239512141617));
#367=CARTESIAN_POINT('',(-36.9000004172325,21.453236448715,16.0239512141617));
#368=CARTESIAN_POINT('Origin',(-36.9000004172325,21.453236448715,21.0239512141617));
#369=CARTESIAN_POINT('',(-34.9000004172325,21.453236448715,16.0239512141617));
#370=CARTESIAN_POINT('Origin',(-34.9000004172325,31.453236448715,16.0239512141617));
#371=CARTESIAN_POINT('',(-34.9000004172325,31.453236448715,16.0239512141617));
#372=CARTESIAN_POINT('',(-34.9000004172325,31.453236448715,16.0239512141617));
#373=CARTESIAN_POINT('',(-36.9000004172325,31.453236448715,16.0239512141617));
#374=CARTESIAN_POINT('',(-36.9000004172325,27.953236448715,16.0239512141617));
#375=CARTESIAN_POINT('',(-34.9000004172325,31.453236448715,16.0239512141617));
#376=CARTESIAN_POINT('Origin',(-34.9000004172325,31.453236448715,21.0239512141617));
#377=CARTESIAN_POINT('Origin',(-34.9000004172325,31.453236448715,21.0239512141617));
#378=CARTESIAN_POINT('Origin',(-36.9000004172325,31.453236448715,21.0239512141617));
#379=CARTESIAN_POINT('Origin',(-35.9000004172325,31.453236448715,21.0239512141617));
#380=CARTESIAN_POINT('',(-43.4000004172325,27.453236448715,21.0239512141617));
#381=CARTESIAN_POINT('Origin',(-43.4000004172325,31.453236448715,21.0239512141617));
#382=CARTESIAN_POINT('',(-36.9000004172325,27.453236448715,21.0239512141617));
#383=CARTESIAN_POINT('',(-35.9000004172325,27.453236448715,21.0239512141617));
#384=CARTESIAN_POINT('Origin',(-36.9000004172325,31.453236448715,21.0239512141617));
#385=CARTESIAN_POINT('Origin',(-34.9000004172325,31.453236448715,21.0239512141617));
#386=CARTESIAN_POINT('',(-34.9000004172325,17.903236448715,21.0239512141617));
#387=CARTESIAN_POINT('Origin',(-34.9000004172325,21.453236448715,21.0239512141617));
#388=CARTESIAN_POINT('',(-34.9000004172325,35.003236448715,21.0239512141617));
#389=CARTESIAN_POINT('Origin',(-34.9000004172325,31.453236448715,21.0239512141617));
#390=CARTESIAN_POINT('Origin',(-35.4000004172325,21.453236448715,21.0239512141617));
#391=CARTESIAN_POINT('',(-35.9000004172325,24.003236448715,21.0239512141617));
#392=CARTESIAN_POINT('',(-35.9000004172325,18.903236448715,21.0239512141617));
#393=CARTESIAN_POINT('Origin',(-35.9000004172325,21.453236448715,21.0239512141617));
#394=CARTESIAN_POINT('',(-35.4000004172325,18.403236448715,21.0239512141617));
#395=CARTESIAN_POINT('Origin',(-35.9000004172325,21.453236448715,21.0239512141617));
#396=CARTESIAN_POINT('Origin',(-36.4000004172325,21.453236448715,21.0239512141617));
#397=CARTESIAN_POINT('',(-36.4000004172325,24.003236448715,21.0239512141617));
#398=CARTESIAN_POINT('Origin',(-35.4000004172325,31.453236448715,21.0239512141617));
#399=CARTESIAN_POINT('',(-35.9000004172325,34.003236448715,21.0239512141617));
#400=CARTESIAN_POINT('Origin',(-35.9000004172325,31.453236448715,21.0239512141617));
#401=CARTESIAN_POINT('',(-35.4000004172325,34.503236448715,21.0239512141617));
#402=CARTESIAN_POINT('Origin',(-37.4000004172325,31.453236448715,21.0239512141617));
#403=CARTESIAN_POINT('',(-43.4000004172325,34.003236448715,21.0239512141617));
#404=CARTESIAN_POINT('Origin',(-43.4000004172325,31.453236448715,21.0239512141617));
#405=CARTESIAN_POINT('',(-37.4000004172325,34.003236448715,21.0239512141617));
#406=CARTESIAN_POINT('Origin',(-36.9000004172325,24.453236448715,21.0239512141617));
#407=CARTESIAN_POINT('',(-36.9000004172325,17.453236448715,21.0239512141617));
#408=CARTESIAN_POINT('Origin',(-36.9000004172325,21.453236448715,21.0239512141617));
#409=CARTESIAN_POINT('Origin',(-34.9000004172325,21.453236448715,21.0239512141617));
#410=CARTESIAN_POINT('',(-34.9000004172325,17.453236448715,21.0239512141617));
#411=CARTESIAN_POINT('Origin',(-43.4000004172325,31.453236448715,21.0239512141617));
#412=UNCERTAINTY_MEASURE_WITH_UNIT(LENGTH_MEASURE(0.01),#416,
'DISTANCE_ACCURACY_VALUE',
'Maximum model space distance between geometric entities at asserted c
onnectivities');
#413=UNCERTAINTY_MEASURE_WITH_UNIT(LENGTH_MEASURE(0.01),#416,
'DISTANCE_ACCURACY_VALUE',
'Maximum model space distance between geometric entities at asserted c
onnectivities');
#414=(
GEOMETRIC_REPRESENTATION_CONTEXT(3)
GLOBAL_UNCERTAINTY_ASSIGNED_CONTEXT((#412))
GLOBAL_UNIT_ASSIGNED_CONTEXT((#416,#418,#419))
REPRESENTATION_CONTEXT('','3D')
);
#415=(
GEOMETRIC_REPRESENTATION_CONTEXT(3)
GLOBAL_UNCERTAINTY_ASSIGNED_CONTEXT((#413))
GLOBAL_UNIT_ASSIGNED_CONTEXT((#416,#418,#419))
REPRESENTATION_CONTEXT('','3D')
);
#416=(
LENGTH_UNIT()
NAMED_UNIT(*)
SI_UNIT(.MILLI.,.METRE.)
);
#417=(
LENGTH_UNIT()
NAMED_UNIT(*)
SI_UNIT($,.METRE.)
);
#418=(
NAMED_UNIT(*)
PLANE_ANGLE_UNIT()
SI_UNIT($,.RADIAN.)
);
#419=(
NAMED_UNIT(*)
SI_UNIT($,.STERADIAN.)
SOLID_ANGLE_UNIT()
);
#420=SHAPE_DEFINITION_REPRESENTATION(#421,#422);
#421=PRODUCT_DEFINITION_SHAPE('',$,#424);
#422=SHAPE_REPRESENTATION('',(#245),#414);
#423=PRODUCT_DEFINITION_CONTEXT('part definition',#428,'design');
#424=PRODUCT_DEFINITION('Front LED insert','Front LED insert',#425,#423);
#425=PRODUCT_DEFINITION_FORMATION('',$,#430);
#426=PRODUCT_RELATED_PRODUCT_CATEGORY('Front LED insert',
'Front LED insert',(#430));
#427=APPLICATION_PROTOCOL_DEFINITION('international standard',
'automotive_design',2009,#428);
#428=APPLICATION_CONTEXT(
'Core Data for Automotive Mechanical Design Process');
#429=PRODUCT_CONTEXT('part definition',#428,'mechanical');
#430=PRODUCT('Front LED insert','Front LED insert',$,(#429));
#431=PRESENTATION_STYLE_ASSIGNMENT((#433));
#432=PRESENTATION_STYLE_ASSIGNMENT((#434));
#433=SURFACE_STYLE_USAGE(.BOTH.,#435);
#434=SURFACE_STYLE_USAGE(.BOTH.,#436);
#435=SURFACE_SIDE_STYLE('',(#437));
#436=SURFACE_SIDE_STYLE('',(#438));
#437=SURFACE_STYLE_FILL_AREA(#439);
#438=SURFACE_STYLE_FILL_AREA(#440);
#439=FILL_AREA_STYLE('Stahl - satiniert',(#441));
#440=FILL_AREA_STYLE('Opaque(160,160,160)',(#442));
#441=FILL_AREA_STYLE_COLOUR('Stahl - satiniert',#443);
#442=FILL_AREA_STYLE_COLOUR('Opaque(160,160,160)',#444);
#443=COLOUR_RGB('Stahl - satiniert',0.627450980392157,0.627450980392157,
0.627450980392157);
#444=COLOUR_RGB('Opaque(160,160,160)',0.392156862745098,0.392156862745098,
0.392156862745098);
ENDSEC;
END-ISO-10303-21;
