ISO-10303-21;
HEADER;
/* Generated by software containing ST-Developer
 * from STEP Tools, Inc. (www.steptools.com) 
 */

FILE_DESCRIPTION(
/* description */ (''),
/* implementation_level */ '2;1');

FILE_NAME(
/* name */ 'Rear light clamp.step',
/* time_stamp */ '2026-01-02T22:19:44+01:00',
/* author */ (''),
/* organization */ (''),
/* preprocessor_version */ 'ST-DEVELOPER v20.1',
/* originating_system */ 'Autodesk Translation Framework v14.21.0.0',
/* authorisation */ '');

FILE_SCHEMA (('AUTOMOTIVE_DESIGN { 1 0 10303 214 3 1 1 }'));
ENDSEC;

DATA;
#10=MECHANICAL_DESIGN_GEOMETRIC_PRESENTATION_REPRESENTATION('',(#13),#992);
#11=SHAPE_REPRESENTATION_RELATIONSHIP('SRR','None',#999,#12);
#12=ADVANCED_BREP_SHAPE_REPRESENTATION('',(#14),#991);
#13=STYLED_ITEM('',(#1009),#14);
#14=MANIFOLD_SOLID_BREP('Rear light clamp',#589);
#15=CONICAL_SURFACE('',#645,1.5,0.872664625997165);
#16=FACE_BOUND('',#91,.T.);
#17=FACE_BOUND('',#94,.T.);
#18=FACE_BOUND('',#98,.T.);
#19=FACE_BOUND('',#113,.T.);
#20=CIRCLE('',#606,7.5);
#21=CIRCLE('',#607,7.5);
#22=CIRCLE('',#609,7.5);
#23=CIRCLE('',#610,0.999999999999996);
#24=CIRCLE('',#611,0.999999999999996);
#25=CIRCLE('',#623,6.);
#26=CIRCLE('',#624,7.5);
#27=CIRCLE('',#626,7.5);
#28=CIRCLE('',#628,6.);
#29=CIRCLE('',#629,3.);
#30=CIRCLE('',#633,1.6);
#31=CIRCLE('',#636,0.999999999999996);
#32=CIRCLE('',#638,0.999999999999996);
#33=CIRCLE('',#644,3.);
#34=CIRCLE('',#646,1.6);
#35=CIRCLE('',#649,6.);
#36=CIRCLE('',#651,5.);
#37=CIRCLE('',#653,5.);
#38=CYLINDRICAL_SURFACE('',#605,7.5);
#39=CYLINDRICAL_SURFACE('',#625,7.5);
#40=CYLINDRICAL_SURFACE('',#639,0.999999999999996);
#41=CYLINDRICAL_SURFACE('',#641,0.999999999999996);
#42=CYLINDRICAL_SURFACE('',#643,3.);
#43=CYLINDRICAL_SURFACE('',#647,1.6);
#44=CYLINDRICAL_SURFACE('',#648,6.);
#45=CYLINDRICAL_SURFACE('',#652,5.);
#46=FACE_OUTER_BOUND('',#78,.T.);
#47=FACE_OUTER_BOUND('',#79,.T.);
#48=FACE_OUTER_BOUND('',#80,.T.);
#49=FACE_OUTER_BOUND('',#81,.T.);
#50=FACE_OUTER_BOUND('',#82,.T.);
#51=FACE_OUTER_BOUND('',#83,.T.);
#52=FACE_OUTER_BOUND('',#84,.T.);
#53=FACE_OUTER_BOUND('',#85,.T.);
#54=FACE_OUTER_BOUND('',#86,.T.);
#55=FACE_OUTER_BOUND('',#87,.T.);
#56=FACE_OUTER_BOUND('',#88,.T.);
#57=FACE_OUTER_BOUND('',#89,.T.);
#58=FACE_OUTER_BOUND('',#90,.T.);
#59=FACE_OUTER_BOUND('',#92,.T.);
#60=FACE_OUTER_BOUND('',#93,.T.);
#61=FACE_OUTER_BOUND('',#95,.T.);
#62=FACE_OUTER_BOUND('',#96,.T.);
#63=FACE_OUTER_BOUND('',#97,.T.);
#64=FACE_OUTER_BOUND('',#99,.T.);
#65=FACE_OUTER_BOUND('',#100,.T.);
#66=FACE_OUTER_BOUND('',#101,.T.);
#67=FACE_OUTER_BOUND('',#102,.T.);
#68=FACE_OUTER_BOUND('',#103,.T.);
#69=FACE_OUTER_BOUND('',#104,.T.);
#70=FACE_OUTER_BOUND('',#105,.T.);
#71=FACE_OUTER_BOUND('',#106,.T.);
#72=FACE_OUTER_BOUND('',#107,.T.);
#73=FACE_OUTER_BOUND('',#108,.T.);
#74=FACE_OUTER_BOUND('',#109,.T.);
#75=FACE_OUTER_BOUND('',#110,.T.);
#76=FACE_OUTER_BOUND('',#111,.T.);
#77=FACE_OUTER_BOUND('',#112,.T.);
#78=EDGE_LOOP('',(#372,#373,#374,#375));
#79=EDGE_LOOP('',(#376,#377,#378,#379,#380));
#80=EDGE_LOOP('',(#381,#382,#383,#384,#385,#386,#387,#388,#389,#390,#391,
#392));
#81=EDGE_LOOP('',(#393,#394,#395,#396));
#82=EDGE_LOOP('',(#397,#398,#399,#400,#401));
#83=EDGE_LOOP('',(#402,#403,#404,#405,#406,#407,#408,#409,#410,#411,#412,
#413));
#84=EDGE_LOOP('',(#414,#415,#416,#417));
#85=EDGE_LOOP('',(#418,#419,#420,#421,#422));
#86=EDGE_LOOP('',(#423,#424,#425,#426));
#87=EDGE_LOOP('',(#427,#428,#429,#430));
#88=EDGE_LOOP('',(#431,#432,#433,#434));
#89=EDGE_LOOP('',(#435,#436,#437,#438));
#90=EDGE_LOOP('',(#439,#440,#441,#442,#443));
#91=EDGE_LOOP('',(#444,#445,#446,#447));
#92=EDGE_LOOP('',(#448,#449,#450,#451,#452,#453,#454));
#93=EDGE_LOOP('',(#455,#456,#457,#458,#459,#460,#461));
#94=EDGE_LOOP('',(#462));
#95=EDGE_LOOP('',(#463,#464,#465,#466));
#96=EDGE_LOOP('',(#467,#468,#469,#470,#471,#472));
#97=EDGE_LOOP('',(#473,#474,#475,#476));
#98=EDGE_LOOP('',(#477));
#99=EDGE_LOOP('',(#478,#479,#480,#481));
#100=EDGE_LOOP('',(#482,#483,#484,#485));
#101=EDGE_LOOP('',(#486,#487,#488,#489));
#102=EDGE_LOOP('',(#490,#491,#492,#493));
#103=EDGE_LOOP('',(#494,#495,#496,#497,#498));
#104=EDGE_LOOP('',(#499,#500,#501,#502));
#105=EDGE_LOOP('',(#503,#504,#505,#506,#507));
#106=EDGE_LOOP('',(#508,#509,#510,#511));
#107=EDGE_LOOP('',(#512,#513,#514,#515));
#108=EDGE_LOOP('',(#516,#517,#518,#519));
#109=EDGE_LOOP('',(#520,#521,#522,#523,#524,#525,#526));
#110=EDGE_LOOP('',(#527));
#111=EDGE_LOOP('',(#528,#529,#530,#531));
#112=EDGE_LOOP('',(#532));
#113=EDGE_LOOP('',(#533));
#114=LINE('',#828,#175);
#115=LINE('',#830,#176);
#116=LINE('',#831,#177);
#117=LINE('',#834,#178);
#118=LINE('',#838,#179);
#119=LINE('',#842,#180);
#120=LINE('',#846,#181);
#121=LINE('',#848,#182);
#122=LINE('',#852,#183);
#123=LINE('',#854,#184);
#124=LINE('',#856,#185);
#125=LINE('',#859,#186);
#126=LINE('',#862,#187);
#127=LINE('',#864,#188);
#128=LINE('',#865,#189);
#129=LINE('',#868,#190);
#130=LINE('',#870,#191);
#131=LINE('',#871,#192);
#132=LINE('',#874,#193);
#133=LINE('',#876,#194);
#134=LINE('',#877,#195);
#135=LINE('',#879,#196);
#136=LINE('',#881,#197);
#137=LINE('',#883,#198);
#138=LINE('',#885,#199);
#139=LINE('',#886,#200);
#140=LINE('',#889,#201);
#141=LINE('',#892,#202);
#142=LINE('',#893,#203);
#143=LINE('',#897,#204);
#144=LINE('',#899,#205);
#145=LINE('',#901,#206);
#146=LINE('',#902,#207);
#147=LINE('',#905,#208);
#148=LINE('',#907,#209);
#149=LINE('',#908,#210);
#150=LINE('',#911,#211);
#151=LINE('',#913,#212);
#152=LINE('',#914,#213);
#153=LINE('',#916,#214);
#154=LINE('',#917,#215);
#155=LINE('',#921,#216);
#156=LINE('',#923,#217);
#157=LINE('',#927,#218);
#158=LINE('',#930,#219);
#159=LINE('',#932,#220);
#160=LINE('',#937,#221);
#161=LINE('',#938,#222);
#162=LINE('',#940,#223);
#163=LINE('',#945,#224);
#164=LINE('',#946,#225);
#165=LINE('',#952,#226);
#166=LINE('',#957,#227);
#167=LINE('',#960,#228);
#168=LINE('',#963,#229);
#169=LINE('',#965,#230);
#170=LINE('',#970,#231);
#171=LINE('',#974,#232);
#172=LINE('',#976,#233);
#173=LINE('',#980,#234);
#174=LINE('',#986,#235);
#175=VECTOR('',#661,10.);
#176=VECTOR('',#662,10.);
#177=VECTOR('',#663,10.);
#178=VECTOR('',#666,10.);
#179=VECTOR('',#669,10.);
#180=VECTOR('',#674,10.);
#181=VECTOR('',#677,10.);
#182=VECTOR('',#678,10.);
#183=VECTOR('',#681,10.);
#184=VECTOR('',#682,10.);
#185=VECTOR('',#683,10.);
#186=VECTOR('',#686,10.);
#187=VECTOR('',#689,10.);
#188=VECTOR('',#690,10.);
#189=VECTOR('',#691,10.);
#190=VECTOR('',#694,10.);
#191=VECTOR('',#695,10.);
#192=VECTOR('',#696,10.);
#193=VECTOR('',#699,10.);
#194=VECTOR('',#700,10.);
#195=VECTOR('',#701,10.);
#196=VECTOR('',#702,10.);
#197=VECTOR('',#703,10.);
#198=VECTOR('',#704,10.);
#199=VECTOR('',#705,10.);
#200=VECTOR('',#706,10.);
#201=VECTOR('',#711,10.);
#202=VECTOR('',#714,10.);
#203=VECTOR('',#715,10.);
#204=VECTOR('',#718,10.);
#205=VECTOR('',#719,10.);
#206=VECTOR('',#720,10.);
#207=VECTOR('',#721,10.);
#208=VECTOR('',#724,10.);
#209=VECTOR('',#725,10.);
#210=VECTOR('',#726,10.);
#211=VECTOR('',#729,10.);
#212=VECTOR('',#730,10.);
#213=VECTOR('',#731,10.);
#214=VECTOR('',#734,10.);
#215=VECTOR('',#735,10.);
#216=VECTOR('',#738,10.);
#217=VECTOR('',#739,10.);
#218=VECTOR('',#742,10.);
#219=VECTOR('',#747,10.);
#220=VECTOR('',#748,10.);
#221=VECTOR('',#753,10.);
#222=VECTOR('',#754,10.);
#223=VECTOR('',#755,10.);
#224=VECTOR('',#762,10.);
#225=VECTOR('',#763,10.);
#226=VECTOR('',#772,10.);
#227=VECTOR('',#779,10.);
#228=VECTOR('',#782,10.);
#229=VECTOR('',#787,10.);
#230=VECTOR('',#790,10.);
#231=VECTOR('',#797,3.);
#232=VECTOR('',#802,1.5);
#233=VECTOR('',#805,1.6);
#234=VECTOR('',#810,6.);
#235=VECTOR('',#817,5.);
#236=ELLIPSE('',#604,10.6066017177981,7.5);
#237=ELLIPSE('',#616,10.6066017177981,7.5);
#238=VERTEX_POINT('',#824);
#239=VERTEX_POINT('',#825);
#240=VERTEX_POINT('',#827);
#241=VERTEX_POINT('',#829);
#242=VERTEX_POINT('',#833);
#243=VERTEX_POINT('',#835);
#244=VERTEX_POINT('',#837);
#245=VERTEX_POINT('',#841);
#246=VERTEX_POINT('',#843);
#247=VERTEX_POINT('',#845);
#248=VERTEX_POINT('',#847);
#249=VERTEX_POINT('',#849);
#250=VERTEX_POINT('',#851);
#251=VERTEX_POINT('',#853);
#252=VERTEX_POINT('',#855);
#253=VERTEX_POINT('',#857);
#254=VERTEX_POINT('',#861);
#255=VERTEX_POINT('',#863);
#256=VERTEX_POINT('',#867);
#257=VERTEX_POINT('',#869);
#258=VERTEX_POINT('',#873);
#259=VERTEX_POINT('',#875);
#260=VERTEX_POINT('',#878);
#261=VERTEX_POINT('',#880);
#262=VERTEX_POINT('',#882);
#263=VERTEX_POINT('',#884);
#264=VERTEX_POINT('',#891);
#265=VERTEX_POINT('',#895);
#266=VERTEX_POINT('',#896);
#267=VERTEX_POINT('',#898);
#268=VERTEX_POINT('',#900);
#269=VERTEX_POINT('',#904);
#270=VERTEX_POINT('',#906);
#271=VERTEX_POINT('',#910);
#272=VERTEX_POINT('',#912);
#273=VERTEX_POINT('',#919);
#274=VERTEX_POINT('',#920);
#275=VERTEX_POINT('',#922);
#276=VERTEX_POINT('',#924);
#277=VERTEX_POINT('',#926);
#278=VERTEX_POINT('',#931);
#279=VERTEX_POINT('',#935);
#280=VERTEX_POINT('',#936);
#281=VERTEX_POINT('',#939);
#282=VERTEX_POINT('',#942);
#283=VERTEX_POINT('',#949);
#284=VERTEX_POINT('',#956);
#285=VERTEX_POINT('',#958);
#286=VERTEX_POINT('',#968);
#287=VERTEX_POINT('',#972);
#288=VERTEX_POINT('',#978);
#289=VERTEX_POINT('',#982);
#290=VERTEX_POINT('',#985);
#291=EDGE_CURVE('',#238,#239,#236,.T.);
#292=EDGE_CURVE('',#240,#238,#114,.T.);
#293=EDGE_CURVE('',#241,#240,#115,.T.);
#294=EDGE_CURVE('',#239,#241,#116,.T.);
#295=EDGE_CURVE('',#239,#242,#117,.T.);
#296=EDGE_CURVE('',#242,#243,#20,.T.);
#297=EDGE_CURVE('',#244,#243,#118,.T.);
#298=EDGE_CURVE('',#244,#238,#21,.T.);
#299=EDGE_CURVE('',#245,#244,#119,.T.);
#300=EDGE_CURVE('',#246,#245,#22,.T.);
#301=EDGE_CURVE('',#246,#247,#120,.T.);
#302=EDGE_CURVE('',#248,#247,#121,.T.);
#303=EDGE_CURVE('',#249,#248,#23,.T.);
#304=EDGE_CURVE('',#250,#249,#122,.T.);
#305=EDGE_CURVE('',#250,#251,#123,.T.);
#306=EDGE_CURVE('',#252,#251,#124,.T.);
#307=EDGE_CURVE('',#253,#252,#24,.T.);
#308=EDGE_CURVE('',#240,#253,#125,.T.);
#309=EDGE_CURVE('',#254,#250,#126,.T.);
#310=EDGE_CURVE('',#255,#254,#127,.T.);
#311=EDGE_CURVE('',#251,#255,#128,.T.);
#312=EDGE_CURVE('',#256,#249,#129,.T.);
#313=EDGE_CURVE('',#256,#257,#130,.T.);
#314=EDGE_CURVE('',#257,#254,#131,.T.);
#315=EDGE_CURVE('',#258,#241,#132,.T.);
#316=EDGE_CURVE('',#259,#258,#133,.T.);
#317=EDGE_CURVE('',#255,#259,#134,.T.);
#318=EDGE_CURVE('',#260,#257,#135,.T.);
#319=EDGE_CURVE('',#261,#260,#136,.T.);
#320=EDGE_CURVE('',#261,#262,#137,.T.);
#321=EDGE_CURVE('',#263,#262,#138,.T.);
#322=EDGE_CURVE('',#263,#242,#139,.T.);
#323=EDGE_CURVE('',#262,#246,#237,.T.);
#324=EDGE_CURVE('',#247,#261,#140,.T.);
#325=EDGE_CURVE('',#264,#260,#141,.T.);
#326=EDGE_CURVE('',#264,#248,#142,.T.);
#327=EDGE_CURVE('',#265,#266,#143,.T.);
#328=EDGE_CURVE('',#266,#267,#144,.T.);
#329=EDGE_CURVE('',#267,#268,#145,.T.);
#330=EDGE_CURVE('',#265,#268,#146,.T.);
#331=EDGE_CURVE('',#266,#269,#147,.T.);
#332=EDGE_CURVE('',#269,#270,#148,.T.);
#333=EDGE_CURVE('',#270,#267,#149,.T.);
#334=EDGE_CURVE('',#269,#271,#150,.T.);
#335=EDGE_CURVE('',#271,#272,#151,.T.);
#336=EDGE_CURVE('',#272,#270,#152,.T.);
#337=EDGE_CURVE('',#271,#265,#153,.T.);
#338=EDGE_CURVE('',#268,#272,#154,.T.);
#339=EDGE_CURVE('',#273,#274,#155,.T.);
#340=EDGE_CURVE('',#275,#274,#156,.T.);
#341=EDGE_CURVE('',#275,#276,#25,.T.);
#342=EDGE_CURVE('',#277,#276,#157,.T.);
#343=EDGE_CURVE('',#277,#273,#26,.T.);
#344=EDGE_CURVE('',#245,#273,#158,.T.);
#345=EDGE_CURVE('',#278,#277,#159,.T.);
#346=EDGE_CURVE('',#278,#263,#27,.T.);
#347=EDGE_CURVE('',#279,#280,#160,.F.);
#348=EDGE_CURVE('',#243,#279,#161,.T.);
#349=EDGE_CURVE('',#281,#278,#162,.F.);
#350=EDGE_CURVE('',#280,#281,#28,.T.);
#351=EDGE_CURVE('',#282,#282,#29,.T.);
#352=EDGE_CURVE('',#275,#280,#163,.T.);
#353=EDGE_CURVE('',#279,#274,#164,.F.);
#354=EDGE_CURVE('',#283,#283,#30,.T.);
#355=EDGE_CURVE('',#276,#281,#165,.T.);
#356=EDGE_CURVE('',#264,#256,#31,.T.);
#357=EDGE_CURVE('',#284,#258,#166,.T.);
#358=EDGE_CURVE('',#285,#284,#32,.T.);
#359=EDGE_CURVE('',#285,#259,#167,.T.);
#360=EDGE_CURVE('',#284,#253,#168,.T.);
#361=EDGE_CURVE('',#285,#252,#169,.T.);
#362=EDGE_CURVE('',#286,#286,#33,.T.);
#363=EDGE_CURVE('',#286,#282,#170,.T.);
#364=EDGE_CURVE('',#287,#287,#34,.T.);
#365=EDGE_CURVE('',#287,#286,#171,.T.);
#366=EDGE_CURVE('',#287,#283,#172,.T.);
#367=EDGE_CURVE('',#288,#288,#35,.T.);
#368=EDGE_CURVE('',#288,#276,#173,.T.);
#369=EDGE_CURVE('',#289,#289,#36,.T.);
#370=EDGE_CURVE('',#289,#290,#174,.T.);
#371=EDGE_CURVE('',#290,#290,#37,.T.);
#372=ORIENTED_EDGE('',*,*,#291,.F.);
#373=ORIENTED_EDGE('',*,*,#292,.F.);
#374=ORIENTED_EDGE('',*,*,#293,.F.);
#375=ORIENTED_EDGE('',*,*,#294,.F.);
#376=ORIENTED_EDGE('',*,*,#291,.T.);
#377=ORIENTED_EDGE('',*,*,#295,.T.);
#378=ORIENTED_EDGE('',*,*,#296,.T.);
#379=ORIENTED_EDGE('',*,*,#297,.F.);
#380=ORIENTED_EDGE('',*,*,#298,.T.);
#381=ORIENTED_EDGE('',*,*,#292,.T.);
#382=ORIENTED_EDGE('',*,*,#298,.F.);
#383=ORIENTED_EDGE('',*,*,#299,.F.);
#384=ORIENTED_EDGE('',*,*,#300,.F.);
#385=ORIENTED_EDGE('',*,*,#301,.T.);
#386=ORIENTED_EDGE('',*,*,#302,.F.);
#387=ORIENTED_EDGE('',*,*,#303,.F.);
#388=ORIENTED_EDGE('',*,*,#304,.F.);
#389=ORIENTED_EDGE('',*,*,#305,.T.);
#390=ORIENTED_EDGE('',*,*,#306,.F.);
#391=ORIENTED_EDGE('',*,*,#307,.F.);
#392=ORIENTED_EDGE('',*,*,#308,.F.);
#393=ORIENTED_EDGE('',*,*,#309,.F.);
#394=ORIENTED_EDGE('',*,*,#310,.F.);
#395=ORIENTED_EDGE('',*,*,#311,.F.);
#396=ORIENTED_EDGE('',*,*,#305,.F.);
#397=ORIENTED_EDGE('',*,*,#309,.T.);
#398=ORIENTED_EDGE('',*,*,#304,.T.);
#399=ORIENTED_EDGE('',*,*,#312,.F.);
#400=ORIENTED_EDGE('',*,*,#313,.T.);
#401=ORIENTED_EDGE('',*,*,#314,.T.);
#402=ORIENTED_EDGE('',*,*,#294,.T.);
#403=ORIENTED_EDGE('',*,*,#315,.F.);
#404=ORIENTED_EDGE('',*,*,#316,.F.);
#405=ORIENTED_EDGE('',*,*,#317,.F.);
#406=ORIENTED_EDGE('',*,*,#310,.T.);
#407=ORIENTED_EDGE('',*,*,#314,.F.);
#408=ORIENTED_EDGE('',*,*,#318,.F.);
#409=ORIENTED_EDGE('',*,*,#319,.F.);
#410=ORIENTED_EDGE('',*,*,#320,.T.);
#411=ORIENTED_EDGE('',*,*,#321,.F.);
#412=ORIENTED_EDGE('',*,*,#322,.T.);
#413=ORIENTED_EDGE('',*,*,#295,.F.);
#414=ORIENTED_EDGE('',*,*,#323,.F.);
#415=ORIENTED_EDGE('',*,*,#320,.F.);
#416=ORIENTED_EDGE('',*,*,#324,.F.);
#417=ORIENTED_EDGE('',*,*,#301,.F.);
#418=ORIENTED_EDGE('',*,*,#324,.T.);
#419=ORIENTED_EDGE('',*,*,#319,.T.);
#420=ORIENTED_EDGE('',*,*,#325,.F.);
#421=ORIENTED_EDGE('',*,*,#326,.T.);
#422=ORIENTED_EDGE('',*,*,#302,.T.);
#423=ORIENTED_EDGE('',*,*,#327,.T.);
#424=ORIENTED_EDGE('',*,*,#328,.T.);
#425=ORIENTED_EDGE('',*,*,#329,.T.);
#426=ORIENTED_EDGE('',*,*,#330,.F.);
#427=ORIENTED_EDGE('',*,*,#331,.T.);
#428=ORIENTED_EDGE('',*,*,#332,.T.);
#429=ORIENTED_EDGE('',*,*,#333,.T.);
#430=ORIENTED_EDGE('',*,*,#328,.F.);
#431=ORIENTED_EDGE('',*,*,#334,.T.);
#432=ORIENTED_EDGE('',*,*,#335,.T.);
#433=ORIENTED_EDGE('',*,*,#336,.T.);
#434=ORIENTED_EDGE('',*,*,#332,.F.);
#435=ORIENTED_EDGE('',*,*,#337,.T.);
#436=ORIENTED_EDGE('',*,*,#330,.T.);
#437=ORIENTED_EDGE('',*,*,#338,.T.);
#438=ORIENTED_EDGE('',*,*,#335,.F.);
#439=ORIENTED_EDGE('',*,*,#339,.T.);
#440=ORIENTED_EDGE('',*,*,#340,.F.);
#441=ORIENTED_EDGE('',*,*,#341,.T.);
#442=ORIENTED_EDGE('',*,*,#342,.F.);
#443=ORIENTED_EDGE('',*,*,#343,.T.);
#444=ORIENTED_EDGE('',*,*,#338,.F.);
#445=ORIENTED_EDGE('',*,*,#329,.F.);
#446=ORIENTED_EDGE('',*,*,#333,.F.);
#447=ORIENTED_EDGE('',*,*,#336,.F.);
#448=ORIENTED_EDGE('',*,*,#323,.T.);
#449=ORIENTED_EDGE('',*,*,#300,.T.);
#450=ORIENTED_EDGE('',*,*,#344,.T.);
#451=ORIENTED_EDGE('',*,*,#343,.F.);
#452=ORIENTED_EDGE('',*,*,#345,.F.);
#453=ORIENTED_EDGE('',*,*,#346,.T.);
#454=ORIENTED_EDGE('',*,*,#321,.T.);
#455=ORIENTED_EDGE('',*,*,#347,.F.);
#456=ORIENTED_EDGE('',*,*,#348,.F.);
#457=ORIENTED_EDGE('',*,*,#296,.F.);
#458=ORIENTED_EDGE('',*,*,#322,.F.);
#459=ORIENTED_EDGE('',*,*,#346,.F.);
#460=ORIENTED_EDGE('',*,*,#349,.F.);
#461=ORIENTED_EDGE('',*,*,#350,.F.);
#462=ORIENTED_EDGE('',*,*,#351,.F.);
#463=ORIENTED_EDGE('',*,*,#347,.T.);
#464=ORIENTED_EDGE('',*,*,#352,.F.);
#465=ORIENTED_EDGE('',*,*,#340,.T.);
#466=ORIENTED_EDGE('',*,*,#353,.F.);
#467=ORIENTED_EDGE('',*,*,#353,.T.);
#468=ORIENTED_EDGE('',*,*,#339,.F.);
#469=ORIENTED_EDGE('',*,*,#344,.F.);
#470=ORIENTED_EDGE('',*,*,#299,.T.);
#471=ORIENTED_EDGE('',*,*,#297,.T.);
#472=ORIENTED_EDGE('',*,*,#348,.T.);
#473=ORIENTED_EDGE('',*,*,#327,.F.);
#474=ORIENTED_EDGE('',*,*,#337,.F.);
#475=ORIENTED_EDGE('',*,*,#334,.F.);
#476=ORIENTED_EDGE('',*,*,#331,.F.);
#477=ORIENTED_EDGE('',*,*,#354,.T.);
#478=ORIENTED_EDGE('',*,*,#345,.T.);
#479=ORIENTED_EDGE('',*,*,#342,.T.);
#480=ORIENTED_EDGE('',*,*,#355,.T.);
#481=ORIENTED_EDGE('',*,*,#349,.T.);
#482=ORIENTED_EDGE('',*,*,#318,.T.);
#483=ORIENTED_EDGE('',*,*,#313,.F.);
#484=ORIENTED_EDGE('',*,*,#356,.F.);
#485=ORIENTED_EDGE('',*,*,#325,.T.);
#486=ORIENTED_EDGE('',*,*,#316,.T.);
#487=ORIENTED_EDGE('',*,*,#357,.F.);
#488=ORIENTED_EDGE('',*,*,#358,.F.);
#489=ORIENTED_EDGE('',*,*,#359,.T.);
#490=ORIENTED_EDGE('',*,*,#312,.T.);
#491=ORIENTED_EDGE('',*,*,#303,.T.);
#492=ORIENTED_EDGE('',*,*,#326,.F.);
#493=ORIENTED_EDGE('',*,*,#356,.T.);
#494=ORIENTED_EDGE('',*,*,#293,.T.);
#495=ORIENTED_EDGE('',*,*,#308,.T.);
#496=ORIENTED_EDGE('',*,*,#360,.F.);
#497=ORIENTED_EDGE('',*,*,#357,.T.);
#498=ORIENTED_EDGE('',*,*,#315,.T.);
#499=ORIENTED_EDGE('',*,*,#360,.T.);
#500=ORIENTED_EDGE('',*,*,#307,.T.);
#501=ORIENTED_EDGE('',*,*,#361,.F.);
#502=ORIENTED_EDGE('',*,*,#358,.T.);
#503=ORIENTED_EDGE('',*,*,#311,.T.);
#504=ORIENTED_EDGE('',*,*,#317,.T.);
#505=ORIENTED_EDGE('',*,*,#359,.F.);
#506=ORIENTED_EDGE('',*,*,#361,.T.);
#507=ORIENTED_EDGE('',*,*,#306,.T.);
#508=ORIENTED_EDGE('',*,*,#362,.F.);
#509=ORIENTED_EDGE('',*,*,#363,.T.);
#510=ORIENTED_EDGE('',*,*,#351,.T.);
#511=ORIENTED_EDGE('',*,*,#363,.F.);
#512=ORIENTED_EDGE('',*,*,#364,.T.);
#513=ORIENTED_EDGE('',*,*,#365,.T.);
#514=ORIENTED_EDGE('',*,*,#362,.T.);
#515=ORIENTED_EDGE('',*,*,#365,.F.);
#516=ORIENTED_EDGE('',*,*,#364,.F.);
#517=ORIENTED_EDGE('',*,*,#366,.T.);
#518=ORIENTED_EDGE('',*,*,#354,.F.);
#519=ORIENTED_EDGE('',*,*,#366,.F.);
#520=ORIENTED_EDGE('',*,*,#367,.F.);
#521=ORIENTED_EDGE('',*,*,#368,.T.);
#522=ORIENTED_EDGE('',*,*,#341,.F.);
#523=ORIENTED_EDGE('',*,*,#352,.T.);
#524=ORIENTED_EDGE('',*,*,#350,.T.);
#525=ORIENTED_EDGE('',*,*,#355,.F.);
#526=ORIENTED_EDGE('',*,*,#368,.F.);
#527=ORIENTED_EDGE('',*,*,#369,.T.);
#528=ORIENTED_EDGE('',*,*,#369,.F.);
#529=ORIENTED_EDGE('',*,*,#370,.T.);
#530=ORIENTED_EDGE('',*,*,#371,.F.);
#531=ORIENTED_EDGE('',*,*,#370,.F.);
#532=ORIENTED_EDGE('',*,*,#367,.T.);
#533=ORIENTED_EDGE('',*,*,#371,.T.);
#534=PLANE('',#603);
#535=PLANE('',#608);
#536=PLANE('',#612);
#537=PLANE('',#613);
#538=PLANE('',#614);
#539=PLANE('',#615);
#540=PLANE('',#617);
#541=PLANE('',#618);
#542=PLANE('',#619);
#543=PLANE('',#620);
#544=PLANE('',#621);
#545=PLANE('',#622);
#546=PLANE('',#627);
#547=PLANE('',#630);
#548=PLANE('',#631);
#549=PLANE('',#632);
#550=PLANE('',#634);
#551=PLANE('',#635);
#552=PLANE('',#637);
#553=PLANE('',#640);
#554=PLANE('',#642);
#555=PLANE('',#650);
#556=PLANE('',#654);
#557=ADVANCED_FACE('',(#46),#534,.F.);
#558=ADVANCED_FACE('',(#47),#38,.T.);
#559=ADVANCED_FACE('',(#48),#535,.T.);
#560=ADVANCED_FACE('',(#49),#536,.F.);
#561=ADVANCED_FACE('',(#50),#537,.F.);
#562=ADVANCED_FACE('',(#51),#538,.F.);
#563=ADVANCED_FACE('',(#52),#539,.F.);
#564=ADVANCED_FACE('',(#53),#540,.F.);
#565=ADVANCED_FACE('',(#54),#541,.F.);
#566=ADVANCED_FACE('',(#55),#542,.F.);
#567=ADVANCED_FACE('',(#56),#543,.F.);
#568=ADVANCED_FACE('',(#57),#544,.F.);
#569=ADVANCED_FACE('',(#58,#16),#545,.F.);
#570=ADVANCED_FACE('',(#59),#39,.T.);
#571=ADVANCED_FACE('',(#60,#17),#546,.F.);
#572=ADVANCED_FACE('',(#61),#547,.F.);
#573=ADVANCED_FACE('',(#62),#548,.F.);
#574=ADVANCED_FACE('',(#63,#18),#549,.T.);
#575=ADVANCED_FACE('',(#64),#550,.F.);
#576=ADVANCED_FACE('',(#65),#551,.F.);
#577=ADVANCED_FACE('',(#66),#552,.F.);
#578=ADVANCED_FACE('',(#67),#40,.F.);
#579=ADVANCED_FACE('',(#68),#553,.F.);
#580=ADVANCED_FACE('',(#69),#41,.F.);
#581=ADVANCED_FACE('',(#70),#554,.F.);
#582=ADVANCED_FACE('',(#71),#42,.F.);
#583=ADVANCED_FACE('',(#72),#15,.F.);
#584=ADVANCED_FACE('',(#73),#43,.F.);
#585=ADVANCED_FACE('',(#74),#44,.T.);
#586=ADVANCED_FACE('',(#75),#555,.F.);
#587=ADVANCED_FACE('',(#76),#45,.F.);
#588=ADVANCED_FACE('',(#77,#19),#556,.F.);
#589=CLOSED_SHELL('',(#557,#558,#559,#560,#561,#562,#563,#564,#565,#566,
#567,#568,#569,#570,#571,#572,#573,#574,#575,#576,#577,#578,#579,#580,#581,
#582,#583,#584,#585,#586,#587,#588));
#590=DERIVED_UNIT_ELEMENT(#592,1.);
#591=DERIVED_UNIT_ELEMENT(#994,-3.);
#592=(
MASS_UNIT()
NAMED_UNIT(*)
SI_UNIT(.KILO.,.GRAM.)
);
#593=DERIVED_UNIT((#590,#591));
#594=MEASURE_REPRESENTATION_ITEM('density measure',
POSITIVE_RATIO_MEASURE(7850.),#593);
#595=PROPERTY_DEFINITION_REPRESENTATION(#600,#597);
#596=PROPERTY_DEFINITION_REPRESENTATION(#601,#598);
#597=REPRESENTATION('material name',(#599),#991);
#598=REPRESENTATION('density',(#594),#991);
#599=DESCRIPTIVE_REPRESENTATION_ITEM('Stahl','Stahl');
#600=PROPERTY_DEFINITION('material property','material name',#1001);
#601=PROPERTY_DEFINITION('material property','density of part',#1001);
#602=AXIS2_PLACEMENT_3D('',#822,#655,#656);
#603=AXIS2_PLACEMENT_3D('',#823,#657,#658);
#604=AXIS2_PLACEMENT_3D('',#826,#659,#660);
#605=AXIS2_PLACEMENT_3D('',#832,#664,#665);
#606=AXIS2_PLACEMENT_3D('',#836,#667,#668);
#607=AXIS2_PLACEMENT_3D('',#839,#670,#671);
#608=AXIS2_PLACEMENT_3D('',#840,#672,#673);
#609=AXIS2_PLACEMENT_3D('',#844,#675,#676);
#610=AXIS2_PLACEMENT_3D('',#850,#679,#680);
#611=AXIS2_PLACEMENT_3D('',#858,#684,#685);
#612=AXIS2_PLACEMENT_3D('',#860,#687,#688);
#613=AXIS2_PLACEMENT_3D('',#866,#692,#693);
#614=AXIS2_PLACEMENT_3D('',#872,#697,#698);
#615=AXIS2_PLACEMENT_3D('',#887,#707,#708);
#616=AXIS2_PLACEMENT_3D('',#888,#709,#710);
#617=AXIS2_PLACEMENT_3D('',#890,#712,#713);
#618=AXIS2_PLACEMENT_3D('',#894,#716,#717);
#619=AXIS2_PLACEMENT_3D('',#903,#722,#723);
#620=AXIS2_PLACEMENT_3D('',#909,#727,#728);
#621=AXIS2_PLACEMENT_3D('',#915,#732,#733);
#622=AXIS2_PLACEMENT_3D('',#918,#736,#737);
#623=AXIS2_PLACEMENT_3D('',#925,#740,#741);
#624=AXIS2_PLACEMENT_3D('',#928,#743,#744);
#625=AXIS2_PLACEMENT_3D('',#929,#745,#746);
#626=AXIS2_PLACEMENT_3D('',#933,#749,#750);
#627=AXIS2_PLACEMENT_3D('',#934,#751,#752);
#628=AXIS2_PLACEMENT_3D('',#941,#756,#757);
#629=AXIS2_PLACEMENT_3D('',#943,#758,#759);
#630=AXIS2_PLACEMENT_3D('',#944,#760,#761);
#631=AXIS2_PLACEMENT_3D('',#947,#764,#765);
#632=AXIS2_PLACEMENT_3D('',#948,#766,#767);
#633=AXIS2_PLACEMENT_3D('',#950,#768,#769);
#634=AXIS2_PLACEMENT_3D('',#951,#770,#771);
#635=AXIS2_PLACEMENT_3D('',#953,#773,#774);
#636=AXIS2_PLACEMENT_3D('',#954,#775,#776);
#637=AXIS2_PLACEMENT_3D('',#955,#777,#778);
#638=AXIS2_PLACEMENT_3D('',#959,#780,#781);
#639=AXIS2_PLACEMENT_3D('',#961,#783,#784);
#640=AXIS2_PLACEMENT_3D('',#962,#785,#786);
#641=AXIS2_PLACEMENT_3D('',#964,#788,#789);
#642=AXIS2_PLACEMENT_3D('',#966,#791,#792);
#643=AXIS2_PLACEMENT_3D('',#967,#793,#794);
#644=AXIS2_PLACEMENT_3D('',#969,#795,#796);
#645=AXIS2_PLACEMENT_3D('',#971,#798,#799);
#646=AXIS2_PLACEMENT_3D('',#973,#800,#801);
#647=AXIS2_PLACEMENT_3D('',#975,#803,#804);
#648=AXIS2_PLACEMENT_3D('',#977,#806,#807);
#649=AXIS2_PLACEMENT_3D('',#979,#808,#809);
#650=AXIS2_PLACEMENT_3D('',#981,#811,#812);
#651=AXIS2_PLACEMENT_3D('',#983,#813,#814);
#652=AXIS2_PLACEMENT_3D('',#984,#815,#816);
#653=AXIS2_PLACEMENT_3D('',#987,#818,#819);
#654=AXIS2_PLACEMENT_3D('',#988,#820,#821);
#655=DIRECTION('axis',(0.,0.,1.));
#656=DIRECTION('refdir',(1.,0.,0.));
#657=DIRECTION('center_axis',(-0.707106781186555,0.,-0.70710678118654));
#658=DIRECTION('ref_axis',(0.70710678118654,0.,-0.707106781186555));
#659=DIRECTION('center_axis',(-0.707106781186555,0.,-0.70710678118654));
#660=DIRECTION('ref_axis',(-0.70710678118654,-1.30841038223649E-17,0.707106781186555));
#661=DIRECTION('',(0.,-1.,0.));
#662=DIRECTION('',(0.70710678118654,1.3357933527076E-13,-0.707106781186555));
#663=DIRECTION('',(0.,1.,0.));
#664=DIRECTION('center_axis',(1.,0.,0.));
#665=DIRECTION('ref_axis',(0.,0.0871557427476569,0.996194698091746));
#666=DIRECTION('',(-1.,0.,0.));
#667=DIRECTION('center_axis',(1.,0.,0.));
#668=DIRECTION('ref_axis',(0.,0.0871557427476569,0.996194698091746));
#669=DIRECTION('',(-1.,0.,0.));
#670=DIRECTION('center_axis',(-1.,0.,0.));
#671=DIRECTION('ref_axis',(0.,0.0871557427476569,0.996194698091746));
#672=DIRECTION('center_axis',(1.,0.,0.));
#673=DIRECTION('ref_axis',(0.,0.996194698091746,-0.0871557427476582));
#674=DIRECTION('',(0.,-0.996194698091746,0.0871557427476573));
#675=DIRECTION('center_axis',(-1.,0.,0.));
#676=DIRECTION('ref_axis',(0.,-0.0871557427476569,-0.996194698091746));
#677=DIRECTION('',(0.,-1.,0.));
#678=DIRECTION('',(0.,-1.88252713948499E-13,1.));
#679=DIRECTION('center_axis',(1.,0.,0.));
#680=DIRECTION('ref_axis',(0.,1.,1.86517468137027E-13));
#681=DIRECTION('',(0.,1.88252713948499E-13,-1.));
#682=DIRECTION('',(0.,-1.,0.));
#683=DIRECTION('',(0.,-1.8890970759269E-13,1.));
#684=DIRECTION('center_axis',(1.,0.,0.));
#685=DIRECTION('ref_axis',(0.,1.,1.90958360235528E-13));
#686=DIRECTION('',(0.,1.8890970759269E-13,-1.));
#687=DIRECTION('center_axis',(-0.707106781186555,0.,-0.70710678118654));
#688=DIRECTION('ref_axis',(0.70710678118654,0.,-0.707106781186555));
#689=DIRECTION('',(0.70710678118654,1.33114770609757E-13,-0.707106781186555));
#690=DIRECTION('',(0.,1.,0.));
#691=DIRECTION('',(-0.70710678118654,-1.3357933527076E-13,0.707106781186555));
#692=DIRECTION('center_axis',(0.,-1.,-1.88252713948499E-13));
#693=DIRECTION('ref_axis',(0.,-1.88252713948499E-13,1.));
#694=DIRECTION('',(1.,0.,0.));
#695=DIRECTION('',(0.,-1.88252713948499E-13,1.));
#696=DIRECTION('',(1.,0.,0.));
#697=DIRECTION('center_axis',(0.,0.,-1.));
#698=DIRECTION('ref_axis',(0.,-1.,0.));
#699=DIRECTION('',(1.,0.,0.));
#700=DIRECTION('',(0.,-1.,0.));
#701=DIRECTION('',(-1.,0.,0.));
#702=DIRECTION('',(0.,-1.,0.));
#703=DIRECTION('',(-1.,0.,0.));
#704=DIRECTION('',(0.,1.,0.));
#705=DIRECTION('',(1.,0.,0.));
#706=DIRECTION('',(0.,-1.,0.));
#707=DIRECTION('center_axis',(-0.707106781186555,0.,-0.70710678118654));
#708=DIRECTION('ref_axis',(0.70710678118654,0.,-0.707106781186555));
#709=DIRECTION('center_axis',(-0.707106781186555,0.,-0.70710678118654));
#710=DIRECTION('ref_axis',(0.70710678118654,1.30841038223649E-17,-0.707106781186555));
#711=DIRECTION('',(-0.70710678118654,-1.33114770609757E-13,0.707106781186555));
#712=DIRECTION('center_axis',(0.,1.,1.88252713948499E-13));
#713=DIRECTION('ref_axis',(0.,1.88252713948499E-13,-1.));
#714=DIRECTION('',(0.,-1.88252713948499E-13,1.));
#715=DIRECTION('',(1.,0.,0.));
#716=DIRECTION('center_axis',(0.,1.,0.));
#717=DIRECTION('ref_axis',(0.,0.,1.));
#718=DIRECTION('',(0.,0.,-1.));
#719=DIRECTION('',(1.,0.,0.));
#720=DIRECTION('',(0.,0.,1.));
#721=DIRECTION('',(1.,0.,0.));
#722=DIRECTION('center_axis',(0.,0.,-1.));
#723=DIRECTION('ref_axis',(0.,1.,0.));
#724=DIRECTION('',(0.,-1.,0.));
#725=DIRECTION('',(1.,0.,0.));
#726=DIRECTION('',(0.,1.,0.));
#727=DIRECTION('center_axis',(0.,-1.,0.));
#728=DIRECTION('ref_axis',(0.,0.,-1.));
#729=DIRECTION('',(0.,0.,1.));
#730=DIRECTION('',(1.,0.,0.));
#731=DIRECTION('',(0.,0.,-1.));
#732=DIRECTION('center_axis',(0.,0.,1.));
#733=DIRECTION('ref_axis',(0.,-1.,0.));
#734=DIRECTION('',(0.,1.,0.));
#735=DIRECTION('',(0.,-1.,0.));
#736=DIRECTION('center_axis',(-1.,0.,0.));
#737=DIRECTION('ref_axis',(0.,-1.,0.));
#738=DIRECTION('',(0.,-0.996194698091746,0.0871557427476573));
#739=DIRECTION('',(0.,0.,1.));
#740=DIRECTION('center_axis',(-1.,0.,0.));
#741=DIRECTION('ref_axis',(0.,-1.,0.));
#742=DIRECTION('',(0.,5.31367132890657E-14,-1.));
#743=DIRECTION('center_axis',(-1.,0.,0.));
#744=DIRECTION('ref_axis',(0.,-0.0871557427476569,-0.996194698091746));
#745=DIRECTION('center_axis',(1.,0.,0.));
#746=DIRECTION('ref_axis',(0.,-0.0871557427476569,-0.996194698091746));
#747=DIRECTION('',(-1.,0.,0.));
#748=DIRECTION('',(1.,0.,0.));
#749=DIRECTION('center_axis',(1.,0.,0.));
#750=DIRECTION('ref_axis',(0.,-0.0871557427476569,-0.996194698091746));
#751=DIRECTION('center_axis',(1.,0.,0.));
#752=DIRECTION('ref_axis',(0.,1.,0.));
#753=DIRECTION('',(0.,0.,1.));
#754=DIRECTION('',(0.,0.996194698091746,-0.0871557427476573));
#755=DIRECTION('',(0.,0.,-1.));
#756=DIRECTION('center_axis',(1.,0.,0.));
#757=DIRECTION('ref_axis',(0.,-1.,0.));
#758=DIRECTION('center_axis',(-1.,0.,0.));
#759=DIRECTION('ref_axis',(0.,-2.22044604925031E-16,-1.));
#760=DIRECTION('center_axis',(0.,1.,0.));
#761=DIRECTION('ref_axis',(0.,0.,1.));
#762=DIRECTION('',(-1.,0.,0.));
#763=DIRECTION('',(-1.,0.,0.));
#764=DIRECTION('center_axis',(0.,0.0871557427476573,0.996194698091746));
#765=DIRECTION('ref_axis',(0.,0.996194698091746,-0.0871557427476573));
#766=DIRECTION('center_axis',(1.,0.,0.));
#767=DIRECTION('ref_axis',(0.,1.,0.));
#768=DIRECTION('center_axis',(-1.,0.,0.));
#769=DIRECTION('ref_axis',(0.,-2.22044604925031E-16,-1.));
#770=DIRECTION('center_axis',(0.,-1.,0.));
#771=DIRECTION('ref_axis',(0.,0.,-1.));
#772=DIRECTION('',(-1.,0.,0.));
#773=DIRECTION('center_axis',(-1.,0.,0.));
#774=DIRECTION('ref_axis',(0.,-1.,0.));
#775=DIRECTION('center_axis',(-1.,0.,0.));
#776=DIRECTION('ref_axis',(0.,1.,1.86517468137027E-13));
#777=DIRECTION('center_axis',(-1.,0.,0.));
#778=DIRECTION('ref_axis',(0.,-1.,0.));
#779=DIRECTION('',(0.,-1.8890970759269E-13,1.));
#780=DIRECTION('center_axis',(-1.,0.,0.));
#781=DIRECTION('ref_axis',(0.,1.,1.90958360235528E-13));
#782=DIRECTION('',(0.,-1.8890970759269E-13,1.));
#783=DIRECTION('center_axis',(1.,0.,0.));
#784=DIRECTION('ref_axis',(0.,1.,1.86517468137027E-13));
#785=DIRECTION('center_axis',(0.,-1.,-1.8890970759269E-13));
#786=DIRECTION('ref_axis',(0.,-1.8890970759269E-13,1.));
#787=DIRECTION('',(1.,0.,0.));
#788=DIRECTION('center_axis',(1.,0.,0.));
#789=DIRECTION('ref_axis',(0.,1.,1.90958360235528E-13));
#790=DIRECTION('',(1.,0.,0.));
#791=DIRECTION('center_axis',(0.,1.,1.8890970759269E-13));
#792=DIRECTION('ref_axis',(0.,1.8890970759269E-13,-1.));
#793=DIRECTION('center_axis',(-1.,0.,0.));
#794=DIRECTION('ref_axis',(0.,-2.22044604925031E-16,-1.));
#795=DIRECTION('center_axis',(-1.,0.,0.));
#796=DIRECTION('ref_axis',(0.,-2.22044604925031E-16,-1.));
#797=DIRECTION('',(-1.,0.,0.));
#798=DIRECTION('center_axis',(-1.,0.,0.));
#799=DIRECTION('ref_axis',(0.,-2.22044604925031E-16,-1.));
#800=DIRECTION('center_axis',(1.,0.,0.));
#801=DIRECTION('ref_axis',(0.,-2.22044604925031E-16,-1.));
#802=DIRECTION('',(-0.642787609686539,2.63909423254396E-16,0.766044443118978));
#803=DIRECTION('center_axis',(1.,0.,0.));
#804=DIRECTION('ref_axis',(0.,-2.22044604925031E-16,-1.));
#805=DIRECTION('',(1.,0.,0.));
#806=DIRECTION('center_axis',(1.,0.,0.));
#807=DIRECTION('ref_axis',(0.,-1.,0.));
#808=DIRECTION('center_axis',(1.,0.,0.));
#809=DIRECTION('ref_axis',(0.,-1.,0.));
#810=DIRECTION('',(-1.,0.,0.));
#811=DIRECTION('center_axis',(-1.,0.,0.));
#812=DIRECTION('ref_axis',(0.,-1.,0.));
#813=DIRECTION('center_axis',(1.,0.,0.));
#814=DIRECTION('ref_axis',(0.,-1.,0.));
#815=DIRECTION('center_axis',(1.,0.,0.));
#816=DIRECTION('ref_axis',(0.,-1.,0.));
#817=DIRECTION('',(1.,0.,0.));
#818=DIRECTION('center_axis',(-1.,0.,0.));
#819=DIRECTION('ref_axis',(0.,-1.,0.));
#820=DIRECTION('center_axis',(-1.,0.,0.));
#821=DIRECTION('ref_axis',(0.,-1.,0.));
#822=CARTESIAN_POINT('',(0.,0.,0.));
#823=CARTESIAN_POINT('Origin',(212.8,32.4443320632615,30.4171572875254));
#824=CARTESIAN_POINT('',(213.1,15.8108879147376,30.1171572875254));
#825=CARTESIAN_POINT('',(212.5,16.3677053740728,30.7171572875218));
#826=CARTESIAN_POINT('Origin',(217.894179876648,21.578542490936,25.3229774108773));
#827=CARTESIAN_POINT('',(213.1,20.578542490935,30.1171572875254));
#828=CARTESIAN_POINT('',(213.1,32.4443320632615,30.1171572875254));
#829=CARTESIAN_POINT('',(212.5,20.5785424909349,30.7171572875226));
#830=CARTESIAN_POINT('',(214.248544969163,20.5785424909353,28.9686123183627));
#831=CARTESIAN_POINT('',(212.5,32.4443320632615,30.7171572875254));
#832=CARTESIAN_POINT('Origin',(212.5,21.578542490936,25.3229774108773));
#833=CARTESIAN_POINT('',(201.5,16.3677053740728,30.7171572875218));
#834=CARTESIAN_POINT('',(212.5,16.3677053740728,30.7171572875218));
#835=CARTESIAN_POINT('',(201.5,20.9248744203285,17.8515171751892));
#836=CARTESIAN_POINT('Origin',(201.5,21.578542490936,25.3229774108773));
#837=CARTESIAN_POINT('',(213.1,20.9248744203285,17.8515171751892));
#838=CARTESIAN_POINT('',(212.5,20.9248744203285,17.8515171751892));
#839=CARTESIAN_POINT('Origin',(213.1,21.578542490936,25.3229774108773));
#840=CARTESIAN_POINT('Origin',(213.1,29.2262168630735,25.7052766078271));
#841=CARTESIAN_POINT('',(213.1,30.886821401246,16.9799597477126));
#842=CARTESIAN_POINT('',(213.1,20.9248744203285,17.8515171751892));
#843=CARTESIAN_POINT('',(213.1,36.4546954912068,30.1171572875254));
#844=CARTESIAN_POINT('Origin',(213.1,31.5404894718534,24.4514199834007));
#845=CARTESIAN_POINT('',(213.1,32.5404894718524,30.1171572875254));
#846=CARTESIAN_POINT('',(213.1,32.4443320632615,30.1171572875254));
#847=CARTESIAN_POINT('',(213.1,32.5404894718536,23.4514199834009));
#848=CARTESIAN_POINT('',(213.1,32.540489471853,26.7814704286394));
#849=CARTESIAN_POINT('',(213.1,30.5404894718536,23.4514199834005));
#850=CARTESIAN_POINT('Origin',(213.1,31.5404894718536,23.4514199834007));
#851=CARTESIAN_POINT('',(213.1,30.5404894718523,30.1171572875254));
#852=CARTESIAN_POINT('',(213.1,30.5404894718536,23.4514199834005));
#853=CARTESIAN_POINT('',(213.1,22.578542490935,30.1171572875254));
#854=CARTESIAN_POINT('',(213.1,32.4443320632615,30.1171572875254));
#855=CARTESIAN_POINT('',(213.1,22.5785424909361,24.3229774108774));
#856=CARTESIAN_POINT('',(213.1,22.5785424909356,27.2172491423768));
#857=CARTESIAN_POINT('',(213.1,20.5785424909362,24.3229774108771));
#858=CARTESIAN_POINT('Origin',(213.1,21.5785424909361,24.3229774108773));
#859=CARTESIAN_POINT('',(213.1,20.5785424909362,24.3229774108771));
#860=CARTESIAN_POINT('Origin',(212.8,32.4443320632615,30.4171572875254));
#861=CARTESIAN_POINT('',(212.5,30.5404894718522,30.7171572875245));
#862=CARTESIAN_POINT('',(214.466434326031,30.5404894718526,28.7507229614941));
#863=CARTESIAN_POINT('',(212.5,22.5785424909349,30.7171572875254));
#864=CARTESIAN_POINT('',(212.5,32.4443320632615,30.7171572875254));
#865=CARTESIAN_POINT('',(213.14698390265,22.5785424909351,30.0701733848755));
#866=CARTESIAN_POINT('Origin',(212.5,30.5404894718536,23.4514199834005));
#867=CARTESIAN_POINT('',(202.5,30.5404894718536,23.4514199834005));
#868=CARTESIAN_POINT('',(212.5,30.5404894718536,23.4514199834005));
#869=CARTESIAN_POINT('',(202.5,30.5404894718522,30.7171572875245));
#870=CARTESIAN_POINT('',(202.5,30.5404894718536,23.4514199834005));
#871=CARTESIAN_POINT('',(212.5,30.5404894718522,30.7171572875245));
#872=CARTESIAN_POINT('Origin',(212.5,35.6624472634495,30.7171572875254));
#873=CARTESIAN_POINT('',(202.5,20.5785424909349,30.7171572875226));
#874=CARTESIAN_POINT('',(212.5,20.5785424909349,30.7171572875226));
#875=CARTESIAN_POINT('',(202.5,22.5785424909349,30.717157287523));
#876=CARTESIAN_POINT('',(202.5,28.6204948771923,30.7171572875254));
#877=CARTESIAN_POINT('',(212.5,22.5785424909349,30.7171572875254));
#878=CARTESIAN_POINT('',(202.5,32.5404894718522,30.7171572875249));
#879=CARTESIAN_POINT('',(202.5,33.601468367651,30.7171572875254));
#880=CARTESIAN_POINT('',(212.5,32.5404894718522,30.7171572875254));
#881=CARTESIAN_POINT('',(212.5,32.5404894718522,30.7171572875254));
#882=CARTESIAN_POINT('',(212.5,35.6624472634495,30.7171572875254));
#883=CARTESIAN_POINT('',(212.5,32.4443320632615,30.7171572875254));
#884=CARTESIAN_POINT('',(201.5,35.6624472634495,30.7171572875254));
#885=CARTESIAN_POINT('',(212.5,35.6624472634495,30.7171572875254));
#886=CARTESIAN_POINT('',(201.5,26.5595159813947,30.7171572875254));
#887=CARTESIAN_POINT('Origin',(212.8,32.4443320632615,30.4171572875254));
#888=CARTESIAN_POINT('Origin',(218.765737304125,31.5404894718534,24.4514199834007));
#889=CARTESIAN_POINT('',(213.364873259519,32.5404894718524,29.8522840280068));
#890=CARTESIAN_POINT('Origin',(212.5,32.5404894718528,27.8576642494511));
#891=CARTESIAN_POINT('',(202.5,32.5404894718536,23.4514199834009));
#892=CARTESIAN_POINT('',(202.5,32.5404894718522,30.7171572875249));
#893=CARTESIAN_POINT('',(212.5,32.5404894718536,23.4514199834009));
#894=CARTESIAN_POINT('Origin',(206.5,32.1,5.53960780543712));
#895=CARTESIAN_POINT('',(206.5,32.1,13.7396078054371));
#896=CARTESIAN_POINT('',(206.5,32.1,5.53960780543712));
#897=CARTESIAN_POINT('',(206.5,32.1,7.08960780543713));
#898=CARTESIAN_POINT('',(210.5,32.1,5.53960780543712));
#899=CARTESIAN_POINT('',(206.5,32.1,5.53960780543712));
#900=CARTESIAN_POINT('',(210.5,32.1,13.7396078054371));
#901=CARTESIAN_POINT('',(210.5,32.1,5.53960780543712));
#902=CARTESIAN_POINT('',(206.5,32.1,13.7396078054371));
#903=CARTESIAN_POINT('Origin',(206.5,23.9,5.53960780543712));
#904=CARTESIAN_POINT('',(206.5,23.9,5.53960780543712));
#905=CARTESIAN_POINT('',(206.5,25.95,5.53960780543712));
#906=CARTESIAN_POINT('',(210.5,23.9,5.53960780543712));
#907=CARTESIAN_POINT('',(206.5,23.9,5.53960780543712));
#908=CARTESIAN_POINT('',(210.5,23.9,5.53960780543712));
#909=CARTESIAN_POINT('Origin',(206.5,23.9,13.7396078054371));
#910=CARTESIAN_POINT('',(206.5,23.9,13.7396078054371));
#911=CARTESIAN_POINT('',(206.5,23.9,11.1896078054371));
#912=CARTESIAN_POINT('',(210.5,23.9,13.7396078054371));
#913=CARTESIAN_POINT('',(206.5,23.9,13.7396078054371));
#914=CARTESIAN_POINT('',(210.5,23.9,13.7396078054371));
#915=CARTESIAN_POINT('Origin',(206.5,32.1,13.7396078054371));
#916=CARTESIAN_POINT('',(206.5,30.05,13.7396078054371));
#917=CARTESIAN_POINT('',(210.5,32.1,13.7396078054371));
#918=CARTESIAN_POINT('Origin',(210.5,28.,7.19853184026915));
#919=CARTESIAN_POINT('',(210.5,30.886821401246,16.9799597477126));
#920=CARTESIAN_POINT('',(210.5,22.,17.7574558751012));
#921=CARTESIAN_POINT('',(210.5,24.8980333188756,17.5039108131791));
#922=CARTESIAN_POINT('',(210.5,22.,-3.36039219456287));
#923=CARTESIAN_POINT('',(210.5,22.,-3.36039219456287));
#924=CARTESIAN_POINT('',(210.5,34.,-3.36039219456287));
#925=CARTESIAN_POINT('Origin',(210.5,28.,-3.36039219456287));
#926=CARTESIAN_POINT('',(210.5,33.9999999999989,17.3661671324474));
#927=CARTESIAN_POINT('',(210.5,33.9999999999989,17.3661671324474));
#928=CARTESIAN_POINT('Origin',(210.5,31.5404894718534,24.4514199834007));
#929=CARTESIAN_POINT('Origin',(212.5,31.5404894718534,24.4514199834007));
#930=CARTESIAN_POINT('',(212.5,30.886821401246,16.9799597477126));
#931=CARTESIAN_POINT('',(201.5,33.9999999999995,17.3661671324459));
#932=CARTESIAN_POINT('',(212.5,33.9999999999989,17.3661671324474));
#933=CARTESIAN_POINT('Origin',(201.5,31.5404894718534,24.4514199834007));
#934=CARTESIAN_POINT('Origin',(201.5,28.,8.63960780543714));
#935=CARTESIAN_POINT('',(201.5,22.,17.7574558751012));
#936=CARTESIAN_POINT('',(201.5,22.,-3.36039219456287));
#937=CARTESIAN_POINT('',(201.5,22.,8.13960780543714));
#938=CARTESIAN_POINT('',(201.5,20.9248744203285,17.8515171751892));
#939=CARTESIAN_POINT('',(201.5,34.,-3.36039219456287));
#940=CARTESIAN_POINT('',(201.5,34.,12.1396078054371));
#941=CARTESIAN_POINT('Origin',(201.5,28.,-3.36039219456287));
#942=CARTESIAN_POINT('',(201.5,28.,12.6396078054371));
#943=CARTESIAN_POINT('Origin',(201.5,28.,9.63960780543712));
#944=CARTESIAN_POINT('Origin',(205.5,22.,7.63960780543714));
#945=CARTESIAN_POINT('',(225.5,22.,-3.36039219456287));
#946=CARTESIAN_POINT('',(209.,22.,17.7574558751012));
#947=CARTESIAN_POINT('Origin',(212.5,20.9248744203285,17.8515171751892));
#948=CARTESIAN_POINT('Origin',(206.5,28.,8.63960780543714));
#949=CARTESIAN_POINT('',(206.5,28.,11.2396078054371));
#950=CARTESIAN_POINT('Origin',(206.5,28.,9.63960780543712));
#951=CARTESIAN_POINT('Origin',(205.5,34.,15.6396078054371));
#952=CARTESIAN_POINT('',(225.5,34.,-3.36039219456287));
#953=CARTESIAN_POINT('Origin',(202.5,31.5404894718525,29.2874107684878));
#954=CARTESIAN_POINT('Origin',(202.5,31.5404894718536,23.4514199834007));
#955=CARTESIAN_POINT('Origin',(202.5,21.5785424909351,29.7231894822251));
#956=CARTESIAN_POINT('',(202.5,20.5785424909362,24.3229774108771));
#957=CARTESIAN_POINT('',(202.5,20.5785424909362,24.3229774108771));
#958=CARTESIAN_POINT('',(202.5,22.5785424909361,24.3229774108774));
#959=CARTESIAN_POINT('Origin',(202.5,21.5785424909361,24.3229774108773));
#960=CARTESIAN_POINT('',(202.5,22.5785424909349,30.717157287523));
#961=CARTESIAN_POINT('Origin',(212.5,31.5404894718536,23.4514199834007));
#962=CARTESIAN_POINT('Origin',(212.5,20.5785424909362,24.3229774108771));
#963=CARTESIAN_POINT('',(212.5,20.5785424909362,24.3229774108771));
#964=CARTESIAN_POINT('Origin',(212.5,21.5785424909361,24.3229774108773));
#965=CARTESIAN_POINT('',(212.5,22.5785424909361,24.3229774108774));
#966=CARTESIAN_POINT('Origin',(212.5,22.5785424909353,28.7292216769277));
#967=CARTESIAN_POINT('Origin',(202.75,28.,9.63960780543712));
#968=CARTESIAN_POINT('',(204.,28.,12.6396078054371));
#969=CARTESIAN_POINT('Origin',(204.,28.,9.63960780543712));
#970=CARTESIAN_POINT('',(202.75,28.,12.6396078054371));
#971=CARTESIAN_POINT('Origin',(205.258649446766,28.,9.63960780543712));
#972=CARTESIAN_POINT('',(205.174739483648,28.,11.2396078054371));
#973=CARTESIAN_POINT('Origin',(205.174739483648,28.,9.63960780543712));
#974=CARTESIAN_POINT('',(205.258649446766,28.,11.1396078054371));
#975=CARTESIAN_POINT('Origin',(215.5,28.,9.63960780543712));
#976=CARTESIAN_POINT('',(215.5,28.,11.2396078054371));
#977=CARTESIAN_POINT('Origin',(225.5,28.,-3.36039219456287));
#978=CARTESIAN_POINT('',(225.,34.,-3.36039219456287));
#979=CARTESIAN_POINT('Origin',(225.,28.,-3.36039219456287));
#980=CARTESIAN_POINT('',(225.5,34.,-3.36039219456287));
#981=CARTESIAN_POINT('Origin',(202.5,28.,-3.36039219456287));
#982=CARTESIAN_POINT('',(202.5,33.,-3.36039219456287));
#983=CARTESIAN_POINT('Origin',(202.5,28.,-3.36039219456287));
#984=CARTESIAN_POINT('Origin',(225.5,28.,-3.36039219456287));
#985=CARTESIAN_POINT('',(225.,33.,-3.36039219456287));
#986=CARTESIAN_POINT('',(225.5,33.,-3.36039219456287));
#987=CARTESIAN_POINT('Origin',(225.,28.,-3.36039219456287));
#988=CARTESIAN_POINT('Origin',(225.,28.,-3.36039219456287));
#989=UNCERTAINTY_MEASURE_WITH_UNIT(LENGTH_MEASURE(0.01),#993,
'DISTANCE_ACCURACY_VALUE',
'Maximum model space distance between geometric entities at asserted c
onnectivities');
#990=UNCERTAINTY_MEASURE_WITH_UNIT(LENGTH_MEASURE(0.01),#993,
'DISTANCE_ACCURACY_VALUE',
'Maximum model space distance between geometric entities at asserted c
onnectivities');
#991=(
GEOMETRIC_REPRESENTATION_CONTEXT(3)
GLOBAL_UNCERTAINTY_ASSIGNED_CONTEXT((#989))
GLOBAL_UNIT_ASSIGNED_CONTEXT((#993,#995,#996))
REPRESENTATION_CONTEXT('','3D')
);
#992=(
GEOMETRIC_REPRESENTATION_CONTEXT(3)
GLOBAL_UNCERTAINTY_ASSIGNED_CONTEXT((#990))
GLOBAL_UNIT_ASSIGNED_CONTEXT((#993,#995,#996))
REPRESENTATION_CONTEXT('','3D')
);
#993=(
LENGTH_UNIT()
NAMED_UNIT(*)
SI_UNIT(.MILLI.,.METRE.)
);
#994=(
LENGTH_UNIT()
NAMED_UNIT(*)
SI_UNIT($,.METRE.)
);
#995=(
NAMED_UNIT(*)
PLANE_ANGLE_UNIT()
SI_UNIT($,.RADIAN.)
);
#996=(
NAMED_UNIT(*)
SI_UNIT($,.STERADIAN.)
SOLID_ANGLE_UNIT()
);
#997=SHAPE_DEFINITION_REPRESENTATION(#998,#999);
#998=PRODUCT_DEFINITION_SHAPE('',$,#1001);
#999=SHAPE_REPRESENTATION('',(#602),#991);
#1000=PRODUCT_DEFINITION_CONTEXT('part definition',#1005,'design');
#1001=PRODUCT_DEFINITION('Rear light clamp','Rear light clamp',#1002,#1000);
#1002=PRODUCT_DEFINITION_FORMATION('',$,#1007);
#1003=PRODUCT_RELATED_PRODUCT_CATEGORY('Rear light clamp',
'Rear light clamp',(#1007));
#1004=APPLICATION_PROTOCOL_DEFINITION('international standard',
'automotive_design',2009,#1005);
#1005=APPLICATION_CONTEXT(
'Core Data for Automotive Mechanical Design Process');
#1006=PRODUCT_CONTEXT('part definition',#1005,'mechanical');
#1007=PRODUCT('Rear light clamp','Rear light clamp',$,(#1006));
#1008=PRESENTATION_STYLE_ASSIGNMENT((#1010));
#1009=PRESENTATION_STYLE_ASSIGNMENT((#1011));
#1010=SURFACE_STYLE_USAGE(.BOTH.,#1012);
#1011=SURFACE_STYLE_USAGE(.BOTH.,#1013);
#1012=SURFACE_SIDE_STYLE('',(#1014));
#1013=SURFACE_SIDE_STYLE('',(#1015));
#1014=SURFACE_STYLE_FILL_AREA(#1016);
#1015=SURFACE_STYLE_FILL_AREA(#1017);
#1016=FILL_AREA_STYLE('Stahl - satiniert',(#1018));
#1017=FILL_AREA_STYLE('Opaque(160,160,160)',(#1019));
#1018=FILL_AREA_STYLE_COLOUR('Stahl - satiniert',#1020);
#1019=FILL_AREA_STYLE_COLOUR('Opaque(160,160,160)',#1021);
#1020=COLOUR_RGB('Stahl - satiniert',0.627450980392157,0.627450980392157,
0.627450980392157);
#1021=COLOUR_RGB('Opaque(160,160,160)',0.392156862745098,0.392156862745098,
0.392156862745098);
ENDSEC;
END-ISO-10303-21;
