ISO-10303-21;
HEADER;
/* Generated by software containing ST-Developer
 * from STEP Tools, Inc. (www.steptools.com) 
 */

FILE_DESCRIPTION(
/* description */ (''),
/* implementation_level */ '2;1');

FILE_NAME(
/* name */ 'Remote control joystick extension.step',
/* time_stamp */ '2026-04-11T13:41:38+02:00',
/* author */ (''),
/* organization */ (''),
/* preprocessor_version */ 'ST-DEVELOPER v20.1',
/* originating_system */ 'Autodesk Translation Framework v14.24.0.0',
/* authorisation */ '');

FILE_SCHEMA (('AUTOMOTIVE_DESIGN { 1 0 10303 214 3 1 1 }'));
ENDSEC;

DATA;
#10=MECHANICAL_DESIGN_GEOMETRIC_PRESENTATION_REPRESENTATION('',(#13),#257);
#11=SHAPE_REPRESENTATION_RELATIONSHIP('SRR','None',#264,#12);
#12=ADVANCED_BREP_SHAPE_REPRESENTATION('',(#14),#256);
#13=STYLED_ITEM('',(#274),#14);
#14=MANIFOLD_SOLID_BREP('Remote control joystick extension',#142);
#15=CYLINDRICAL_SURFACE('',#162,3.5);
#16=CYLINDRICAL_SURFACE('',#168,2.09999999999981);
#17=CYLINDRICAL_SURFACE('',#170,2.1);
#18=FACE_BOUND('',#35,.T.);
#19=PLANE('',#159);
#20=PLANE('',#164);
#21=PLANE('',#165);
#22=PLANE('',#169);
#23=PLANE('',#171);
#24=FACE_OUTER_BOUND('',#33,.T.);
#25=FACE_OUTER_BOUND('',#34,.T.);
#26=FACE_OUTER_BOUND('',#36,.T.);
#27=FACE_OUTER_BOUND('',#37,.T.);
#28=FACE_OUTER_BOUND('',#38,.T.);
#29=FACE_OUTER_BOUND('',#39,.T.);
#30=FACE_OUTER_BOUND('',#40,.T.);
#31=FACE_OUTER_BOUND('',#41,.T.);
#32=FACE_OUTER_BOUND('',#42,.T.);
#33=EDGE_LOOP('',(#98,#99,#100,#101));
#34=EDGE_LOOP('',(#102));
#35=EDGE_LOOP('',(#103,#104,#105,#106));
#36=EDGE_LOOP('',(#107,#108,#109,#110));
#37=EDGE_LOOP('',(#111));
#38=EDGE_LOOP('',(#112,#113,#114,#115));
#39=EDGE_LOOP('',(#116,#117,#118,#119));
#40=EDGE_LOOP('',(#120,#121,#122,#123));
#41=EDGE_LOOP('',(#124,#125,#126,#127));
#42=EDGE_LOOP('',(#128,#129,#130,#131));
#43=LINE('',#221,#53);
#44=LINE('',#226,#54);
#45=LINE('',#230,#55);
#46=LINE('',#234,#56);
#47=LINE('',#242,#57);
#48=LINE('',#245,#58);
#49=LINE('',#247,#59);
#50=LINE('',#248,#60);
#51=LINE('',#250,#61);
#52=LINE('',#252,#62);
#53=VECTOR('',#178,3.00000000000001);
#54=VECTOR('',#183,10.);
#55=VECTOR('',#186,10.);
#56=VECTOR('',#191,4.);
#57=VECTOR('',#200,10.);
#58=VECTOR('',#203,10.);
#59=VECTOR('',#206,10.);
#60=VECTOR('',#207,10.);
#61=VECTOR('',#210,10.);
#62=VECTOR('',#213,10.);
#63=CIRCLE('',#157,3.5);
#64=CIRCLE('',#158,2.50000000000001);
#65=CIRCLE('',#160,2.1);
#66=CIRCLE('',#161,2.09999999999981);
#67=CIRCLE('',#163,3.5);
#68=CIRCLE('',#166,2.09999999999981);
#69=CIRCLE('',#167,2.1);
#70=VERTEX_POINT('',#218);
#71=VERTEX_POINT('',#220);
#72=VERTEX_POINT('',#224);
#73=VERTEX_POINT('',#225);
#74=VERTEX_POINT('',#227);
#75=VERTEX_POINT('',#229);
#76=VERTEX_POINT('',#233);
#77=VERTEX_POINT('',#238);
#78=VERTEX_POINT('',#239);
#79=VERTEX_POINT('',#241);
#80=VERTEX_POINT('',#243);
#81=EDGE_CURVE('',#70,#70,#63,.T.);
#82=EDGE_CURVE('',#70,#71,#43,.T.);
#83=EDGE_CURVE('',#71,#71,#64,.T.);
#84=EDGE_CURVE('',#72,#73,#44,.T.);
#85=EDGE_CURVE('',#73,#74,#65,.T.);
#86=EDGE_CURVE('',#74,#75,#45,.T.);
#87=EDGE_CURVE('',#75,#72,#66,.T.);
#88=EDGE_CURVE('',#70,#76,#46,.T.);
#89=EDGE_CURVE('',#76,#76,#67,.T.);
#90=EDGE_CURVE('',#77,#78,#68,.F.);
#91=EDGE_CURVE('',#78,#79,#47,.F.);
#92=EDGE_CURVE('',#79,#80,#69,.F.);
#93=EDGE_CURVE('',#80,#77,#48,.F.);
#94=EDGE_CURVE('',#77,#72,#49,.T.);
#95=EDGE_CURVE('',#78,#75,#50,.F.);
#96=EDGE_CURVE('',#79,#74,#51,.F.);
#97=EDGE_CURVE('',#80,#73,#52,.F.);
#98=ORIENTED_EDGE('',*,*,#81,.T.);
#99=ORIENTED_EDGE('',*,*,#82,.T.);
#100=ORIENTED_EDGE('',*,*,#83,.T.);
#101=ORIENTED_EDGE('',*,*,#82,.F.);
#102=ORIENTED_EDGE('',*,*,#83,.F.);
#103=ORIENTED_EDGE('',*,*,#84,.T.);
#104=ORIENTED_EDGE('',*,*,#85,.T.);
#105=ORIENTED_EDGE('',*,*,#86,.T.);
#106=ORIENTED_EDGE('',*,*,#87,.T.);
#107=ORIENTED_EDGE('',*,*,#81,.F.);
#108=ORIENTED_EDGE('',*,*,#88,.T.);
#109=ORIENTED_EDGE('',*,*,#89,.T.);
#110=ORIENTED_EDGE('',*,*,#88,.F.);
#111=ORIENTED_EDGE('',*,*,#89,.F.);
#112=ORIENTED_EDGE('',*,*,#90,.T.);
#113=ORIENTED_EDGE('',*,*,#91,.T.);
#114=ORIENTED_EDGE('',*,*,#92,.T.);
#115=ORIENTED_EDGE('',*,*,#93,.T.);
#116=ORIENTED_EDGE('',*,*,#90,.F.);
#117=ORIENTED_EDGE('',*,*,#94,.T.);
#118=ORIENTED_EDGE('',*,*,#87,.F.);
#119=ORIENTED_EDGE('',*,*,#95,.F.);
#120=ORIENTED_EDGE('',*,*,#91,.F.);
#121=ORIENTED_EDGE('',*,*,#95,.T.);
#122=ORIENTED_EDGE('',*,*,#86,.F.);
#123=ORIENTED_EDGE('',*,*,#96,.F.);
#124=ORIENTED_EDGE('',*,*,#92,.F.);
#125=ORIENTED_EDGE('',*,*,#96,.T.);
#126=ORIENTED_EDGE('',*,*,#85,.F.);
#127=ORIENTED_EDGE('',*,*,#97,.F.);
#128=ORIENTED_EDGE('',*,*,#93,.F.);
#129=ORIENTED_EDGE('',*,*,#97,.T.);
#130=ORIENTED_EDGE('',*,*,#84,.F.);
#131=ORIENTED_EDGE('',*,*,#94,.F.);
#132=CONICAL_SURFACE('',#156,3.00000000000001,0.785398163397446);
#133=ADVANCED_FACE('',(#24),#132,.T.);
#134=ADVANCED_FACE('',(#25,#18),#19,.F.);
#135=ADVANCED_FACE('',(#26),#15,.T.);
#136=ADVANCED_FACE('',(#27),#20,.T.);
#137=ADVANCED_FACE('',(#28),#21,.F.);
#138=ADVANCED_FACE('',(#29),#16,.F.);
#139=ADVANCED_FACE('',(#30),#22,.T.);
#140=ADVANCED_FACE('',(#31),#17,.F.);
#141=ADVANCED_FACE('',(#32),#23,.T.);
#142=CLOSED_SHELL('',(#133,#134,#135,#136,#137,#138,#139,#140,#141));
#143=DERIVED_UNIT_ELEMENT(#145,1.);
#144=DERIVED_UNIT_ELEMENT(#259,-3.);
#145=(
MASS_UNIT()
NAMED_UNIT(*)
SI_UNIT(.KILO.,.GRAM.)
);
#146=DERIVED_UNIT((#143,#144));
#147=MEASURE_REPRESENTATION_ITEM('density measure',
POSITIVE_RATIO_MEASURE(7850.),#146);
#148=PROPERTY_DEFINITION_REPRESENTATION(#153,#150);
#149=PROPERTY_DEFINITION_REPRESENTATION(#154,#151);
#150=REPRESENTATION('material name',(#152),#256);
#151=REPRESENTATION('density',(#147),#256);
#152=DESCRIPTIVE_REPRESENTATION_ITEM('Stahl','Stahl');
#153=PROPERTY_DEFINITION('material property','material name',#266);
#154=PROPERTY_DEFINITION('material property','density of part',#266);
#155=AXIS2_PLACEMENT_3D('',#216,#172,#173);
#156=AXIS2_PLACEMENT_3D('',#217,#174,#175);
#157=AXIS2_PLACEMENT_3D('',#219,#176,#177);
#158=AXIS2_PLACEMENT_3D('',#222,#179,#180);
#159=AXIS2_PLACEMENT_3D('',#223,#181,#182);
#160=AXIS2_PLACEMENT_3D('',#228,#184,#185);
#161=AXIS2_PLACEMENT_3D('',#231,#187,#188);
#162=AXIS2_PLACEMENT_3D('',#232,#189,#190);
#163=AXIS2_PLACEMENT_3D('',#235,#192,#193);
#164=AXIS2_PLACEMENT_3D('',#236,#194,#195);
#165=AXIS2_PLACEMENT_3D('',#237,#196,#197);
#166=AXIS2_PLACEMENT_3D('',#240,#198,#199);
#167=AXIS2_PLACEMENT_3D('',#244,#201,#202);
#168=AXIS2_PLACEMENT_3D('',#246,#204,#205);
#169=AXIS2_PLACEMENT_3D('',#249,#208,#209);
#170=AXIS2_PLACEMENT_3D('',#251,#211,#212);
#171=AXIS2_PLACEMENT_3D('',#253,#214,#215);
#172=DIRECTION('axis',(0.,0.,1.));
#173=DIRECTION('refdir',(1.,0.,0.));
#174=DIRECTION('center_axis',(0.,0.,1.));
#175=DIRECTION('ref_axis',(-1.,0.,0.));
#176=DIRECTION('center_axis',(0.,0.,-1.));
#177=DIRECTION('ref_axis',(-1.,0.,0.));
#178=DIRECTION('',(-0.707106781186546,-8.65956056235491E-17,-0.707106781186549));
#179=DIRECTION('center_axis',(0.,0.,1.));
#180=DIRECTION('ref_axis',(-1.,0.,0.));
#181=DIRECTION('center_axis',(0.,0.,1.));
#182=DIRECTION('ref_axis',(-1.,0.,0.));
#183=DIRECTION('',(0.,-1.,0.));
#184=DIRECTION('center_axis',(0.,0.,1.));
#185=DIRECTION('ref_axis',(-0.750000000000073,-0.661437827766065,0.));
#186=DIRECTION('',(-5.37119821344294E-14,1.,0.));
#187=DIRECTION('center_axis',(0.,0.,1.));
#188=DIRECTION('ref_axis',(0.750000000000073,0.661437827766065,0.));
#189=DIRECTION('center_axis',(0.,0.,-1.));
#190=DIRECTION('ref_axis',(-1.,0.,0.));
#191=DIRECTION('',(0.,0.,1.));
#192=DIRECTION('center_axis',(0.,0.,-1.));
#193=DIRECTION('ref_axis',(-1.,0.,0.));
#194=DIRECTION('center_axis',(0.,0.,1.));
#195=DIRECTION('ref_axis',(-1.,0.,0.));
#196=DIRECTION('center_axis',(0.,0.,1.));
#197=DIRECTION('ref_axis',(-1.,0.,0.));
#198=DIRECTION('center_axis',(0.,0.,1.));
#199=DIRECTION('ref_axis',(0.750000000000073,0.661437827766065,0.));
#200=DIRECTION('',(-5.37119821344294E-14,1.,0.));
#201=DIRECTION('center_axis',(0.,0.,1.));
#202=DIRECTION('ref_axis',(-0.750000000000073,-0.661437827766065,0.));
#203=DIRECTION('',(0.,-1.,0.));
#204=DIRECTION('center_axis',(0.,0.,-1.));
#205=DIRECTION('ref_axis',(0.750000000000073,0.661437827766065,0.));
#206=DIRECTION('',(0.,0.,-1.));
#207=DIRECTION('',(0.,0.,1.));
#208=DIRECTION('center_axis',(-1.,-5.37119821344294E-14,0.));
#209=DIRECTION('ref_axis',(-5.37119821344294E-14,1.,0.));
#210=DIRECTION('',(0.,0.,1.));
#211=DIRECTION('center_axis',(0.,0.,-1.));
#212=DIRECTION('ref_axis',(-0.750000000000073,-0.661437827766065,0.));
#213=DIRECTION('',(0.,0.,1.));
#214=DIRECTION('center_axis',(1.,0.,0.));
#215=DIRECTION('ref_axis',(0.,-1.,0.));
#216=CARTESIAN_POINT('',(0.,0.,0.));
#217=CARTESIAN_POINT('Origin',(90.525,-43.65,16.695));
#218=CARTESIAN_POINT('',(94.025,-43.65,17.195));
#219=CARTESIAN_POINT('Origin',(90.525,-43.65,17.195));
#220=CARTESIAN_POINT('',(93.025,-43.65,16.195));
#221=CARTESIAN_POINT('',(93.525,-43.65,16.695));
#222=CARTESIAN_POINT('Origin',(90.525,-43.65,16.195));
#223=CARTESIAN_POINT('Origin',(90.525,-43.65,16.195));
#224=CARTESIAN_POINT('',(88.9249999999999,-42.2898529491269,16.195));
#225=CARTESIAN_POINT('',(88.9249999999999,-45.0101470508734,16.195));
#226=CARTESIAN_POINT('',(88.9249999999999,-42.9885621722339,16.195));
#227=CARTESIAN_POINT('',(92.1250000000001,-45.0101470508734,16.195));
#228=CARTESIAN_POINT('Origin',(90.525,-43.65,16.195));
#229=CARTESIAN_POINT('',(92.125,-42.2898529491267,16.195));
#230=CARTESIAN_POINT('',(92.1250000000001,-44.311437827766,16.195));
#231=CARTESIAN_POINT('Origin',(90.525,-43.65,16.195));
#232=CARTESIAN_POINT('Origin',(90.525,-43.65,20.595));
#233=CARTESIAN_POINT('',(94.025,-43.65,30.595));
#234=CARTESIAN_POINT('',(94.025,-43.65,20.595));
#235=CARTESIAN_POINT('Origin',(90.525,-43.65,30.595));
#236=CARTESIAN_POINT('Origin',(90.525,-43.65,30.595));
#237=CARTESIAN_POINT('Origin',(90.525,-43.65,20.595));
#238=CARTESIAN_POINT('',(88.9249999999999,-42.2898529491269,20.595));
#239=CARTESIAN_POINT('',(92.125,-42.2898529491267,20.595));
#240=CARTESIAN_POINT('Origin',(90.525,-43.65,20.595));
#241=CARTESIAN_POINT('',(92.1250000000001,-45.0101470508734,20.595));
#242=CARTESIAN_POINT('',(92.1250000000001,-44.311437827766,20.595));
#243=CARTESIAN_POINT('',(88.9249999999999,-45.0101470508734,20.595));
#244=CARTESIAN_POINT('Origin',(90.525,-43.65,20.595));
#245=CARTESIAN_POINT('',(88.9249999999999,-42.9885621722339,20.595));
#246=CARTESIAN_POINT('Origin',(90.525,-43.65,20.595));
#247=CARTESIAN_POINT('',(88.9249999999999,-42.2898529491269,20.595));
#248=CARTESIAN_POINT('',(92.125,-42.2898529491267,20.595));
#249=CARTESIAN_POINT('Origin',(92.1250000000001,-44.9728756555321,20.595));
#250=CARTESIAN_POINT('',(92.1250000000001,-45.0101470508734,20.595));
#251=CARTESIAN_POINT('Origin',(90.525,-43.65,20.595));
#252=CARTESIAN_POINT('',(88.9249999999999,-45.0101470508734,20.595));
#253=CARTESIAN_POINT('Origin',(88.9249999999999,-42.3271243444679,20.595));
#254=UNCERTAINTY_MEASURE_WITH_UNIT(LENGTH_MEASURE(0.01),#258,
'DISTANCE_ACCURACY_VALUE',
'Maximum model space distance between geometric entities at asserted c
onnectivities');
#255=UNCERTAINTY_MEASURE_WITH_UNIT(LENGTH_MEASURE(0.01),#258,
'DISTANCE_ACCURACY_VALUE',
'Maximum model space distance between geometric entities at asserted c
onnectivities');
#256=(
GEOMETRIC_REPRESENTATION_CONTEXT(3)
GLOBAL_UNCERTAINTY_ASSIGNED_CONTEXT((#254))
GLOBAL_UNIT_ASSIGNED_CONTEXT((#258,#260,#261))
REPRESENTATION_CONTEXT('','3D')
);
#257=(
GEOMETRIC_REPRESENTATION_CONTEXT(3)
GLOBAL_UNCERTAINTY_ASSIGNED_CONTEXT((#255))
GLOBAL_UNIT_ASSIGNED_CONTEXT((#258,#260,#261))
REPRESENTATION_CONTEXT('','3D')
);
#258=(
LENGTH_UNIT()
NAMED_UNIT(*)
SI_UNIT(.MILLI.,.METRE.)
);
#259=(
LENGTH_UNIT()
NAMED_UNIT(*)
SI_UNIT($,.METRE.)
);
#260=(
NAMED_UNIT(*)
PLANE_ANGLE_UNIT()
SI_UNIT($,.RADIAN.)
);
#261=(
NAMED_UNIT(*)
SI_UNIT($,.STERADIAN.)
SOLID_ANGLE_UNIT()
);
#262=SHAPE_DEFINITION_REPRESENTATION(#263,#264);
#263=PRODUCT_DEFINITION_SHAPE('',$,#266);
#264=SHAPE_REPRESENTATION('',(#155),#256);
#265=PRODUCT_DEFINITION_CONTEXT('part definition',#270,'design');
#266=PRODUCT_DEFINITION('Remote control joystick extension',
'Remote control joystick extension',#267,#265);
#267=PRODUCT_DEFINITION_FORMATION('',$,#272);
#268=PRODUCT_RELATED_PRODUCT_CATEGORY(
'Remote control joystick extension','Remote control joystick extension',
(#272));
#269=APPLICATION_PROTOCOL_DEFINITION('international standard',
'automotive_design',2009,#270);
#270=APPLICATION_CONTEXT(
'Core Data for Automotive Mechanical Design Process');
#271=PRODUCT_CONTEXT('part definition',#270,'mechanical');
#272=PRODUCT('Remote control joystick extension',
'Remote control joystick extension',$,(#271));
#273=PRESENTATION_STYLE_ASSIGNMENT((#275));
#274=PRESENTATION_STYLE_ASSIGNMENT((#276));
#275=SURFACE_STYLE_USAGE(.BOTH.,#277);
#276=SURFACE_STYLE_USAGE(.BOTH.,#278);
#277=SURFACE_SIDE_STYLE('',(#279));
#278=SURFACE_SIDE_STYLE('',(#280));
#279=SURFACE_STYLE_FILL_AREA(#281);
#280=SURFACE_STYLE_FILL_AREA(#282);
#281=FILL_AREA_STYLE('Stahl - satiniert',(#283));
#282=FILL_AREA_STYLE('Opaque(115,115,115)',(#284));
#283=FILL_AREA_STYLE_COLOUR('Stahl - satiniert',#285);
#284=FILL_AREA_STYLE_COLOUR('Opaque(115,115,115)',#286);
#285=COLOUR_RGB('Stahl - satiniert',0.627450980392157,0.627450980392157,
0.627450980392157);
#286=COLOUR_RGB('Opaque(115,115,115)',0.450980392156863,0.450980392156863,
0.450980392156863);
ENDSEC;
END-ISO-10303-21;
