ISO-10303-21;
HEADER;
/* Generated by software containing ST-Developer
 * from STEP Tools, Inc. (www.steptools.com) 
 */

FILE_DESCRIPTION(
/* description */ (''),
/* implementation_level */ '2;1');

FILE_NAME(
/* name */ 'Remote control battery cover.step',
/* time_stamp */ '2026-04-11T13:41:48+02:00',
/* author */ (''),
/* organization */ (''),
/* preprocessor_version */ 'ST-DEVELOPER v20.1',
/* originating_system */ 'Autodesk Translation Framework v14.24.0.0',
/* authorisation */ '');

FILE_SCHEMA (('AUTOMOTIVE_DESIGN { 1 0 10303 214 3 1 1 }'));
ENDSEC;

DATA;
#10=MECHANICAL_DESIGN_GEOMETRIC_PRESENTATION_REPRESENTATION('',(#13),#1191);
#11=SHAPE_REPRESENTATION_RELATIONSHIP('SRR','None',#1198,#12);
#12=ADVANCED_BREP_SHAPE_REPRESENTATION('',(#14),#1190);
#13=STYLED_ITEM('',(#1208),#14);
#14=MANIFOLD_SOLID_BREP('Remote control battery cover',#705);
#15=CONICAL_SURFACE('',#760,1.5,0.872664625997165);
#16=CONICAL_SURFACE('',#765,1.5,0.872664625997165);
#17=FACE_BOUND('',#84,.T.);
#18=FACE_BOUND('',#86,.T.);
#19=FACE_BOUND('',#87,.T.);
#20=FACE_BOUND('',#91,.T.);
#21=PLANE('',#722);
#22=PLANE('',#723);
#23=PLANE('',#727);
#24=PLANE('',#731);
#25=PLANE('',#732);
#26=PLANE('',#736);
#27=PLANE('',#745);
#28=PLANE('',#747);
#29=PLANE('',#752);
#30=PLANE('',#755);
#31=PLANE('',#758);
#32=PLANE('',#759);
#33=PLANE('',#772);
#34=PLANE('',#773);
#35=PLANE('',#774);
#36=PLANE('',#775);
#37=PLANE('',#776);
#38=PLANE('',#778);
#39=PLANE('',#779);
#40=PLANE('',#780);
#41=PLANE('',#782);
#42=FACE_OUTER_BOUND('',#78,.T.);
#43=FACE_OUTER_BOUND('',#79,.T.);
#44=FACE_OUTER_BOUND('',#80,.T.);
#45=FACE_OUTER_BOUND('',#81,.T.);
#46=FACE_OUTER_BOUND('',#82,.T.);
#47=FACE_OUTER_BOUND('',#83,.T.);
#48=FACE_OUTER_BOUND('',#85,.T.);
#49=FACE_OUTER_BOUND('',#88,.T.);
#50=FACE_OUTER_BOUND('',#89,.T.);
#51=FACE_OUTER_BOUND('',#90,.T.);
#52=FACE_OUTER_BOUND('',#92,.T.);
#53=FACE_OUTER_BOUND('',#93,.T.);
#54=FACE_OUTER_BOUND('',#94,.T.);
#55=FACE_OUTER_BOUND('',#95,.T.);
#56=FACE_OUTER_BOUND('',#96,.T.);
#57=FACE_OUTER_BOUND('',#97,.T.);
#58=FACE_OUTER_BOUND('',#98,.T.);
#59=FACE_OUTER_BOUND('',#99,.T.);
#60=FACE_OUTER_BOUND('',#100,.T.);
#61=FACE_OUTER_BOUND('',#101,.T.);
#62=FACE_OUTER_BOUND('',#102,.T.);
#63=FACE_OUTER_BOUND('',#103,.T.);
#64=FACE_OUTER_BOUND('',#104,.T.);
#65=FACE_OUTER_BOUND('',#105,.T.);
#66=FACE_OUTER_BOUND('',#106,.T.);
#67=FACE_OUTER_BOUND('',#107,.T.);
#68=FACE_OUTER_BOUND('',#108,.T.);
#69=FACE_OUTER_BOUND('',#109,.T.);
#70=FACE_OUTER_BOUND('',#110,.T.);
#71=FACE_OUTER_BOUND('',#111,.T.);
#72=FACE_OUTER_BOUND('',#112,.T.);
#73=FACE_OUTER_BOUND('',#113,.T.);
#74=FACE_OUTER_BOUND('',#114,.T.);
#75=FACE_OUTER_BOUND('',#115,.T.);
#76=FACE_OUTER_BOUND('',#116,.T.);
#77=FACE_OUTER_BOUND('',#117,.T.);
#78=EDGE_LOOP('',(#456,#457,#458,#459));
#79=EDGE_LOOP('',(#460,#461,#462,#463,#464,#465));
#80=EDGE_LOOP('',(#466,#467,#468,#469,#470,#471,#472,#473,#474,#475,#476,
#477,#478));
#81=EDGE_LOOP('',(#479,#480,#481,#482,#483,#484,#485,#486,#487,#488,#489,
#490,#491));
#82=EDGE_LOOP('',(#492,#493,#494,#495,#496,#497));
#83=EDGE_LOOP('',(#498,#499,#500,#501,#502,#503));
#84=EDGE_LOOP('',(#504));
#85=EDGE_LOOP('',(#505,#506,#507,#508,#509,#510,#511,#512,#513,#514,#515,
#516,#517,#518,#519,#520,#521,#522));
#86=EDGE_LOOP('',(#523));
#87=EDGE_LOOP('',(#524));
#88=EDGE_LOOP('',(#525,#526,#527,#528,#529,#530));
#89=EDGE_LOOP('',(#531,#532,#533,#534));
#90=EDGE_LOOP('',(#535,#536,#537,#538,#539,#540));
#91=EDGE_LOOP('',(#541));
#92=EDGE_LOOP('',(#542,#543,#544,#545));
#93=EDGE_LOOP('',(#546,#547,#548,#549,#550,#551));
#94=EDGE_LOOP('',(#552,#553,#554,#555));
#95=EDGE_LOOP('',(#556,#557,#558,#559));
#96=EDGE_LOOP('',(#560,#561,#562,#563,#564,#565));
#97=EDGE_LOOP('',(#566,#567,#568,#569));
#98=EDGE_LOOP('',(#570,#571,#572,#573));
#99=EDGE_LOOP('',(#574,#575,#576,#577));
#100=EDGE_LOOP('',(#578,#579,#580,#581));
#101=EDGE_LOOP('',(#582,#583,#584,#585,#586));
#102=EDGE_LOOP('',(#587,#588,#589,#590));
#103=EDGE_LOOP('',(#591,#592,#593,#594,#595));
#104=EDGE_LOOP('',(#596,#597,#598,#599));
#105=EDGE_LOOP('',(#600,#601,#602,#603,#604));
#106=EDGE_LOOP('',(#605,#606,#607,#608,#609));
#107=EDGE_LOOP('',(#610,#611,#612,#613));
#108=EDGE_LOOP('',(#614,#615,#616,#617));
#109=EDGE_LOOP('',(#618,#619,#620,#621));
#110=EDGE_LOOP('',(#622,#623,#624,#625,#626,#627));
#111=EDGE_LOOP('',(#628,#629,#630,#631));
#112=EDGE_LOOP('',(#632,#633,#634,#635));
#113=EDGE_LOOP('',(#636,#637,#638,#639));
#114=EDGE_LOOP('',(#640,#641,#642,#643));
#115=EDGE_LOOP('',(#644,#645,#646,#647));
#116=EDGE_LOOP('',(#648,#649,#650,#651));
#117=EDGE_LOOP('',(#652,#653,#654,#655));
#118=LINE('',#991,#190);
#119=LINE('',#994,#191);
#120=LINE('',#997,#192);
#121=LINE('',#999,#193);
#122=LINE('',#1001,#194);
#123=LINE('',#1003,#195);
#124=LINE('',#1004,#196);
#125=LINE('',#1007,#197);
#126=LINE('',#1009,#198);
#127=LINE('',#1013,#199);
#128=LINE('',#1015,#200);
#129=LINE('',#1017,#201);
#130=LINE('',#1021,#202);
#131=LINE('',#1023,#203);
#132=LINE('',#1026,#204);
#133=LINE('',#1029,#205);
#134=LINE('',#1033,#206);
#135=LINE('',#1035,#207);
#136=LINE('',#1037,#208);
#137=LINE('',#1041,#209);
#138=LINE('',#1043,#210);
#139=LINE('',#1047,#211);
#140=LINE('',#1048,#212);
#141=LINE('',#1051,#213);
#142=LINE('',#1053,#214);
#143=LINE('',#1055,#215);
#144=LINE('',#1057,#216);
#145=LINE('',#1058,#217);
#146=LINE('',#1063,#218);
#147=LINE('',#1067,#219);
#148=LINE('',#1068,#220);
#149=LINE('',#1074,#221);
#150=LINE('',#1076,#222);
#151=LINE('',#1080,#223);
#152=LINE('',#1082,#224);
#153=LINE('',#1086,#225);
#154=LINE('',#1090,#226);
#155=LINE('',#1092,#227);
#156=LINE('',#1094,#228);
#157=LINE('',#1098,#229);
#158=LINE('',#1100,#230);
#159=LINE('',#1107,#231);
#160=LINE('',#1109,#232);
#161=LINE('',#1111,#233);
#162=LINE('',#1112,#234);
#163=LINE('',#1114,#235);
#164=LINE('',#1119,#236);
#165=LINE('',#1123,#237);
#166=LINE('',#1124,#238);
#167=LINE('',#1128,#239);
#168=LINE('',#1129,#240);
#169=LINE('',#1131,#241);
#170=LINE('',#1132,#242);
#171=LINE('',#1135,#243);
#172=LINE('',#1137,#244);
#173=LINE('',#1138,#245);
#174=LINE('',#1140,#246);
#175=LINE('',#1142,#247);
#176=LINE('',#1145,#248);
#177=LINE('',#1150,#249);
#178=LINE('',#1155,#250);
#179=LINE('',#1160,#251);
#180=LINE('',#1165,#252);
#181=LINE('',#1167,#253);
#182=LINE('',#1169,#254);
#183=LINE('',#1171,#255);
#184=LINE('',#1173,#256);
#185=LINE('',#1176,#257);
#186=LINE('',#1178,#258);
#187=LINE('',#1180,#259);
#188=LINE('',#1184,#260);
#189=LINE('',#1186,#261);
#190=VECTOR('',#789,10.);
#191=VECTOR('',#792,10.);
#192=VECTOR('',#795,10.);
#193=VECTOR('',#796,10.);
#194=VECTOR('',#797,10.);
#195=VECTOR('',#798,10.);
#196=VECTOR('',#799,10.);
#197=VECTOR('',#802,10.);
#198=VECTOR('',#803,10.);
#199=VECTOR('',#806,10.);
#200=VECTOR('',#807,10.);
#201=VECTOR('',#808,10.);
#202=VECTOR('',#811,10.);
#203=VECTOR('',#812,10.);
#204=VECTOR('',#815,10.);
#205=VECTOR('',#818,10.);
#206=VECTOR('',#821,10.);
#207=VECTOR('',#822,10.);
#208=VECTOR('',#823,10.);
#209=VECTOR('',#826,10.);
#210=VECTOR('',#827,10.);
#211=VECTOR('',#830,10.);
#212=VECTOR('',#831,10.);
#213=VECTOR('',#834,10.);
#214=VECTOR('',#835,10.);
#215=VECTOR('',#836,10.);
#216=VECTOR('',#837,10.);
#217=VECTOR('',#838,10.);
#218=VECTOR('',#843,10.);
#219=VECTOR('',#846,10.);
#220=VECTOR('',#847,10.);
#221=VECTOR('',#854,10.);
#222=VECTOR('',#855,10.);
#223=VECTOR('',#858,10.);
#224=VECTOR('',#859,10.);
#225=VECTOR('',#862,10.);
#226=VECTOR('',#865,10.);
#227=VECTOR('',#866,10.);
#228=VECTOR('',#867,10.);
#229=VECTOR('',#870,10.);
#230=VECTOR('',#871,10.);
#231=VECTOR('',#880,10.);
#232=VECTOR('',#881,10.);
#233=VECTOR('',#882,10.);
#234=VECTOR('',#883,10.);
#235=VECTOR('',#886,10.);
#236=VECTOR('',#891,10.);
#237=VECTOR('',#894,10.);
#238=VECTOR('',#895,10.);
#239=VECTOR('',#900,10.);
#240=VECTOR('',#901,10.);
#241=VECTOR('',#904,10.);
#242=VECTOR('',#905,10.);
#243=VECTOR('',#910,10.);
#244=VECTOR('',#913,10.);
#245=VECTOR('',#914,10.);
#246=VECTOR('',#917,10.);
#247=VECTOR('',#920,10.);
#248=VECTOR('',#925,10.);
#249=VECTOR('',#930,1.5);
#250=VECTOR('',#937,3.);
#251=VECTOR('',#942,1.5);
#252=VECTOR('',#949,3.);
#253=VECTOR('',#952,1.6);
#254=VECTOR('',#955,1.6);
#255=VECTOR('',#958,10.);
#256=VECTOR('',#961,10.);
#257=VECTOR('',#966,10.);
#258=VECTOR('',#969,10.);
#259=VECTOR('',#972,10.);
#260=VECTOR('',#979,10.);
#261=VECTOR('',#982,10.);
#262=CIRCLE('',#720,12.);
#263=CIRCLE('',#721,12.);
#264=CIRCLE('',#724,4.2);
#265=CIRCLE('',#725,4.);
#266=CIRCLE('',#726,4.2);
#267=CIRCLE('',#728,4.2);
#268=CIRCLE('',#729,4.);
#269=CIRCLE('',#730,4.2);
#270=CIRCLE('',#733,3.5);
#271=CIRCLE('',#734,4.);
#272=CIRCLE('',#735,1.6);
#273=CIRCLE('',#737,4.2);
#274=CIRCLE('',#738,4.2);
#275=CIRCLE('',#739,3.50000000000001);
#276=CIRCLE('',#740,4.2);
#277=CIRCLE('',#741,4.2);
#278=CIRCLE('',#742,3.5);
#279=CIRCLE('',#743,3.);
#280=CIRCLE('',#744,3.);
#281=CIRCLE('',#748,3.50000000000001);
#282=CIRCLE('',#749,4.);
#283=CIRCLE('',#750,1.6);
#284=CIRCLE('',#761,3.);
#285=CIRCLE('',#762,1.6);
#286=CIRCLE('',#763,1.6);
#287=CIRCLE('',#766,3.);
#288=CIRCLE('',#767,1.6);
#289=CIRCLE('',#768,1.6);
#290=VERTEX_POINT('',#987);
#291=VERTEX_POINT('',#988);
#292=VERTEX_POINT('',#990);
#293=VERTEX_POINT('',#992);
#294=VERTEX_POINT('',#996);
#295=VERTEX_POINT('',#998);
#296=VERTEX_POINT('',#1000);
#297=VERTEX_POINT('',#1002);
#298=VERTEX_POINT('',#1006);
#299=VERTEX_POINT('',#1008);
#300=VERTEX_POINT('',#1010);
#301=VERTEX_POINT('',#1012);
#302=VERTEX_POINT('',#1014);
#303=VERTEX_POINT('',#1016);
#304=VERTEX_POINT('',#1018);
#305=VERTEX_POINT('',#1020);
#306=VERTEX_POINT('',#1022);
#307=VERTEX_POINT('',#1024);
#308=VERTEX_POINT('',#1028);
#309=VERTEX_POINT('',#1030);
#310=VERTEX_POINT('',#1032);
#311=VERTEX_POINT('',#1034);
#312=VERTEX_POINT('',#1036);
#313=VERTEX_POINT('',#1038);
#314=VERTEX_POINT('',#1040);
#315=VERTEX_POINT('',#1042);
#316=VERTEX_POINT('',#1044);
#317=VERTEX_POINT('',#1046);
#318=VERTEX_POINT('',#1050);
#319=VERTEX_POINT('',#1052);
#320=VERTEX_POINT('',#1054);
#321=VERTEX_POINT('',#1056);
#322=VERTEX_POINT('',#1060);
#323=VERTEX_POINT('',#1062);
#324=VERTEX_POINT('',#1064);
#325=VERTEX_POINT('',#1066);
#326=VERTEX_POINT('',#1069);
#327=VERTEX_POINT('',#1072);
#328=VERTEX_POINT('',#1075);
#329=VERTEX_POINT('',#1077);
#330=VERTEX_POINT('',#1079);
#331=VERTEX_POINT('',#1081);
#332=VERTEX_POINT('',#1083);
#333=VERTEX_POINT('',#1085);
#334=VERTEX_POINT('',#1087);
#335=VERTEX_POINT('',#1089);
#336=VERTEX_POINT('',#1091);
#337=VERTEX_POINT('',#1093);
#338=VERTEX_POINT('',#1095);
#339=VERTEX_POINT('',#1097);
#340=VERTEX_POINT('',#1099);
#341=VERTEX_POINT('',#1102);
#342=VERTEX_POINT('',#1104);
#343=VERTEX_POINT('',#1108);
#344=VERTEX_POINT('',#1110);
#345=VERTEX_POINT('',#1116);
#346=VERTEX_POINT('',#1118);
#347=VERTEX_POINT('',#1120);
#348=VERTEX_POINT('',#1122);
#349=VERTEX_POINT('',#1125);
#350=VERTEX_POINT('',#1147);
#351=VERTEX_POINT('',#1149);
#352=VERTEX_POINT('',#1151);
#353=VERTEX_POINT('',#1157);
#354=VERTEX_POINT('',#1159);
#355=VERTEX_POINT('',#1161);
#356=EDGE_CURVE('',#290,#291,#262,.T.);
#357=EDGE_CURVE('',#292,#290,#118,.T.);
#358=EDGE_CURVE('',#293,#292,#263,.T.);
#359=EDGE_CURVE('',#291,#293,#119,.T.);
#360=EDGE_CURVE('',#294,#292,#120,.T.);
#361=EDGE_CURVE('',#295,#294,#121,.F.);
#362=EDGE_CURVE('',#295,#296,#122,.T.);
#363=EDGE_CURVE('',#296,#297,#123,.F.);
#364=EDGE_CURVE('',#293,#297,#124,.T.);
#365=EDGE_CURVE('',#290,#298,#125,.T.);
#366=EDGE_CURVE('',#298,#299,#126,.T.);
#367=EDGE_CURVE('',#300,#299,#264,.F.);
#368=EDGE_CURVE('',#301,#300,#127,.T.);
#369=EDGE_CURVE('',#302,#301,#128,.T.);
#370=EDGE_CURVE('',#302,#303,#129,.T.);
#371=EDGE_CURVE('',#303,#304,#265,.T.);
#372=EDGE_CURVE('',#304,#305,#130,.T.);
#373=EDGE_CURVE('',#305,#306,#131,.T.);
#374=EDGE_CURVE('',#306,#307,#266,.T.);
#375=EDGE_CURVE('',#307,#294,#132,.T.);
#376=EDGE_CURVE('',#297,#308,#133,.T.);
#377=EDGE_CURVE('',#309,#308,#267,.F.);
#378=EDGE_CURVE('',#310,#309,#134,.T.);
#379=EDGE_CURVE('',#311,#310,#135,.T.);
#380=EDGE_CURVE('',#311,#312,#136,.T.);
#381=EDGE_CURVE('',#312,#313,#268,.T.);
#382=EDGE_CURVE('',#313,#314,#137,.T.);
#383=EDGE_CURVE('',#314,#315,#138,.T.);
#384=EDGE_CURVE('',#315,#316,#269,.T.);
#385=EDGE_CURVE('',#316,#317,#139,.T.);
#386=EDGE_CURVE('',#317,#291,#140,.T.);
#387=EDGE_CURVE('',#309,#318,#141,.T.);
#388=EDGE_CURVE('',#318,#319,#142,.T.);
#389=EDGE_CURVE('',#319,#320,#143,.T.);
#390=EDGE_CURVE('',#320,#321,#144,.T.);
#391=EDGE_CURVE('',#321,#310,#145,.T.);
#392=EDGE_CURVE('',#320,#322,#270,.T.);
#393=EDGE_CURVE('',#323,#322,#146,.T.);
#394=EDGE_CURVE('',#323,#324,#271,.T.);
#395=EDGE_CURVE('',#324,#325,#147,.T.);
#396=EDGE_CURVE('',#325,#321,#148,.T.);
#397=EDGE_CURVE('',#326,#326,#272,.T.);
#398=EDGE_CURVE('',#327,#318,#273,.T.);
#399=EDGE_CURVE('',#296,#327,#149,.T.);
#400=EDGE_CURVE('',#328,#295,#150,.T.);
#401=EDGE_CURVE('',#329,#328,#274,.T.);
#402=EDGE_CURVE('',#330,#329,#151,.T.);
#403=EDGE_CURVE('',#331,#330,#152,.T.);
#404=EDGE_CURVE('',#331,#332,#275,.T.);
#405=EDGE_CURVE('',#333,#332,#153,.T.);
#406=EDGE_CURVE('',#334,#333,#276,.T.);
#407=EDGE_CURVE('',#335,#334,#154,.T.);
#408=EDGE_CURVE('',#336,#335,#155,.T.);
#409=EDGE_CURVE('',#337,#336,#156,.T.);
#410=EDGE_CURVE('',#338,#337,#277,.T.);
#411=EDGE_CURVE('',#339,#338,#157,.T.);
#412=EDGE_CURVE('',#340,#339,#158,.T.);
#413=EDGE_CURVE('',#340,#319,#278,.T.);
#414=EDGE_CURVE('',#341,#341,#279,.T.);
#415=EDGE_CURVE('',#342,#342,#280,.T.);
#416=EDGE_CURVE('',#300,#333,#159,.T.);
#417=EDGE_CURVE('',#332,#343,#160,.T.);
#418=EDGE_CURVE('',#343,#344,#161,.T.);
#419=EDGE_CURVE('',#344,#301,#162,.T.);
#420=EDGE_CURVE('',#299,#334,#163,.T.);
#421=EDGE_CURVE('',#343,#345,#281,.T.);
#422=EDGE_CURVE('',#346,#345,#164,.T.);
#423=EDGE_CURVE('',#346,#347,#282,.T.);
#424=EDGE_CURVE('',#347,#348,#165,.T.);
#425=EDGE_CURVE('',#348,#344,#166,.T.);
#426=EDGE_CURVE('',#349,#349,#283,.T.);
#427=EDGE_CURVE('',#304,#346,#167,.T.);
#428=EDGE_CURVE('',#303,#347,#168,.T.);
#429=EDGE_CURVE('',#345,#331,#169,.T.);
#430=EDGE_CURVE('',#330,#305,#170,.F.);
#431=EDGE_CURVE('',#340,#322,#171,.T.);
#432=EDGE_CURVE('',#339,#314,#172,.F.);
#433=EDGE_CURVE('',#313,#323,#173,.T.);
#434=EDGE_CURVE('',#312,#324,#174,.T.);
#435=EDGE_CURVE('',#308,#327,#175,.T.);
#436=EDGE_CURVE('',#335,#298,#176,.F.);
#437=EDGE_CURVE('',#350,#350,#284,.T.);
#438=EDGE_CURVE('',#350,#351,#177,.T.);
#439=EDGE_CURVE('',#352,#351,#285,.T.);
#440=EDGE_CURVE('',#351,#352,#286,.T.);
#441=EDGE_CURVE('',#341,#350,#178,.T.);
#442=EDGE_CURVE('',#353,#353,#287,.T.);
#443=EDGE_CURVE('',#353,#354,#179,.T.);
#444=EDGE_CURVE('',#355,#354,#288,.T.);
#445=EDGE_CURVE('',#354,#355,#289,.T.);
#446=EDGE_CURVE('',#342,#353,#180,.T.);
#447=EDGE_CURVE('',#352,#349,#181,.T.);
#448=EDGE_CURVE('',#326,#355,#182,.T.);
#449=EDGE_CURVE('',#302,#348,#183,.F.);
#450=EDGE_CURVE('',#311,#325,#184,.F.);
#451=EDGE_CURVE('',#336,#317,#185,.F.);
#452=EDGE_CURVE('',#337,#316,#186,.T.);
#453=EDGE_CURVE('',#338,#315,#187,.T.);
#454=EDGE_CURVE('',#328,#307,#188,.T.);
#455=EDGE_CURVE('',#329,#306,#189,.T.);
#456=ORIENTED_EDGE('',*,*,#356,.F.);
#457=ORIENTED_EDGE('',*,*,#357,.F.);
#458=ORIENTED_EDGE('',*,*,#358,.F.);
#459=ORIENTED_EDGE('',*,*,#359,.F.);
#460=ORIENTED_EDGE('',*,*,#358,.T.);
#461=ORIENTED_EDGE('',*,*,#360,.F.);
#462=ORIENTED_EDGE('',*,*,#361,.F.);
#463=ORIENTED_EDGE('',*,*,#362,.T.);
#464=ORIENTED_EDGE('',*,*,#363,.T.);
#465=ORIENTED_EDGE('',*,*,#364,.F.);
#466=ORIENTED_EDGE('',*,*,#357,.T.);
#467=ORIENTED_EDGE('',*,*,#365,.T.);
#468=ORIENTED_EDGE('',*,*,#366,.T.);
#469=ORIENTED_EDGE('',*,*,#367,.F.);
#470=ORIENTED_EDGE('',*,*,#368,.F.);
#471=ORIENTED_EDGE('',*,*,#369,.F.);
#472=ORIENTED_EDGE('',*,*,#370,.T.);
#473=ORIENTED_EDGE('',*,*,#371,.T.);
#474=ORIENTED_EDGE('',*,*,#372,.T.);
#475=ORIENTED_EDGE('',*,*,#373,.T.);
#476=ORIENTED_EDGE('',*,*,#374,.T.);
#477=ORIENTED_EDGE('',*,*,#375,.T.);
#478=ORIENTED_EDGE('',*,*,#360,.T.);
#479=ORIENTED_EDGE('',*,*,#359,.T.);
#480=ORIENTED_EDGE('',*,*,#364,.T.);
#481=ORIENTED_EDGE('',*,*,#376,.T.);
#482=ORIENTED_EDGE('',*,*,#377,.F.);
#483=ORIENTED_EDGE('',*,*,#378,.F.);
#484=ORIENTED_EDGE('',*,*,#379,.F.);
#485=ORIENTED_EDGE('',*,*,#380,.T.);
#486=ORIENTED_EDGE('',*,*,#381,.T.);
#487=ORIENTED_EDGE('',*,*,#382,.T.);
#488=ORIENTED_EDGE('',*,*,#383,.T.);
#489=ORIENTED_EDGE('',*,*,#384,.T.);
#490=ORIENTED_EDGE('',*,*,#385,.T.);
#491=ORIENTED_EDGE('',*,*,#386,.T.);
#492=ORIENTED_EDGE('',*,*,#378,.T.);
#493=ORIENTED_EDGE('',*,*,#387,.T.);
#494=ORIENTED_EDGE('',*,*,#388,.T.);
#495=ORIENTED_EDGE('',*,*,#389,.T.);
#496=ORIENTED_EDGE('',*,*,#390,.T.);
#497=ORIENTED_EDGE('',*,*,#391,.T.);
#498=ORIENTED_EDGE('',*,*,#390,.F.);
#499=ORIENTED_EDGE('',*,*,#392,.T.);
#500=ORIENTED_EDGE('',*,*,#393,.F.);
#501=ORIENTED_EDGE('',*,*,#394,.T.);
#502=ORIENTED_EDGE('',*,*,#395,.T.);
#503=ORIENTED_EDGE('',*,*,#396,.T.);
#504=ORIENTED_EDGE('',*,*,#397,.T.);
#505=ORIENTED_EDGE('',*,*,#388,.F.);
#506=ORIENTED_EDGE('',*,*,#398,.F.);
#507=ORIENTED_EDGE('',*,*,#399,.F.);
#508=ORIENTED_EDGE('',*,*,#362,.F.);
#509=ORIENTED_EDGE('',*,*,#400,.F.);
#510=ORIENTED_EDGE('',*,*,#401,.F.);
#511=ORIENTED_EDGE('',*,*,#402,.F.);
#512=ORIENTED_EDGE('',*,*,#403,.F.);
#513=ORIENTED_EDGE('',*,*,#404,.T.);
#514=ORIENTED_EDGE('',*,*,#405,.F.);
#515=ORIENTED_EDGE('',*,*,#406,.F.);
#516=ORIENTED_EDGE('',*,*,#407,.F.);
#517=ORIENTED_EDGE('',*,*,#408,.F.);
#518=ORIENTED_EDGE('',*,*,#409,.F.);
#519=ORIENTED_EDGE('',*,*,#410,.F.);
#520=ORIENTED_EDGE('',*,*,#411,.F.);
#521=ORIENTED_EDGE('',*,*,#412,.F.);
#522=ORIENTED_EDGE('',*,*,#413,.T.);
#523=ORIENTED_EDGE('',*,*,#414,.T.);
#524=ORIENTED_EDGE('',*,*,#415,.T.);
#525=ORIENTED_EDGE('',*,*,#368,.T.);
#526=ORIENTED_EDGE('',*,*,#416,.T.);
#527=ORIENTED_EDGE('',*,*,#405,.T.);
#528=ORIENTED_EDGE('',*,*,#417,.T.);
#529=ORIENTED_EDGE('',*,*,#418,.T.);
#530=ORIENTED_EDGE('',*,*,#419,.T.);
#531=ORIENTED_EDGE('',*,*,#416,.F.);
#532=ORIENTED_EDGE('',*,*,#367,.T.);
#533=ORIENTED_EDGE('',*,*,#420,.T.);
#534=ORIENTED_EDGE('',*,*,#406,.T.);
#535=ORIENTED_EDGE('',*,*,#418,.F.);
#536=ORIENTED_EDGE('',*,*,#421,.T.);
#537=ORIENTED_EDGE('',*,*,#422,.F.);
#538=ORIENTED_EDGE('',*,*,#423,.T.);
#539=ORIENTED_EDGE('',*,*,#424,.T.);
#540=ORIENTED_EDGE('',*,*,#425,.T.);
#541=ORIENTED_EDGE('',*,*,#426,.T.);
#542=ORIENTED_EDGE('',*,*,#427,.F.);
#543=ORIENTED_EDGE('',*,*,#371,.F.);
#544=ORIENTED_EDGE('',*,*,#428,.T.);
#545=ORIENTED_EDGE('',*,*,#423,.F.);
#546=ORIENTED_EDGE('',*,*,#422,.T.);
#547=ORIENTED_EDGE('',*,*,#429,.T.);
#548=ORIENTED_EDGE('',*,*,#403,.T.);
#549=ORIENTED_EDGE('',*,*,#430,.T.);
#550=ORIENTED_EDGE('',*,*,#372,.F.);
#551=ORIENTED_EDGE('',*,*,#427,.T.);
#552=ORIENTED_EDGE('',*,*,#429,.F.);
#553=ORIENTED_EDGE('',*,*,#421,.F.);
#554=ORIENTED_EDGE('',*,*,#417,.F.);
#555=ORIENTED_EDGE('',*,*,#404,.F.);
#556=ORIENTED_EDGE('',*,*,#431,.T.);
#557=ORIENTED_EDGE('',*,*,#392,.F.);
#558=ORIENTED_EDGE('',*,*,#389,.F.);
#559=ORIENTED_EDGE('',*,*,#413,.F.);
#560=ORIENTED_EDGE('',*,*,#431,.F.);
#561=ORIENTED_EDGE('',*,*,#412,.T.);
#562=ORIENTED_EDGE('',*,*,#432,.T.);
#563=ORIENTED_EDGE('',*,*,#382,.F.);
#564=ORIENTED_EDGE('',*,*,#433,.T.);
#565=ORIENTED_EDGE('',*,*,#393,.T.);
#566=ORIENTED_EDGE('',*,*,#433,.F.);
#567=ORIENTED_EDGE('',*,*,#381,.F.);
#568=ORIENTED_EDGE('',*,*,#434,.T.);
#569=ORIENTED_EDGE('',*,*,#394,.F.);
#570=ORIENTED_EDGE('',*,*,#387,.F.);
#571=ORIENTED_EDGE('',*,*,#377,.T.);
#572=ORIENTED_EDGE('',*,*,#435,.T.);
#573=ORIENTED_EDGE('',*,*,#398,.T.);
#574=ORIENTED_EDGE('',*,*,#435,.F.);
#575=ORIENTED_EDGE('',*,*,#376,.F.);
#576=ORIENTED_EDGE('',*,*,#363,.F.);
#577=ORIENTED_EDGE('',*,*,#399,.T.);
#578=ORIENTED_EDGE('',*,*,#420,.F.);
#579=ORIENTED_EDGE('',*,*,#366,.F.);
#580=ORIENTED_EDGE('',*,*,#436,.F.);
#581=ORIENTED_EDGE('',*,*,#407,.T.);
#582=ORIENTED_EDGE('',*,*,#437,.F.);
#583=ORIENTED_EDGE('',*,*,#438,.T.);
#584=ORIENTED_EDGE('',*,*,#439,.F.);
#585=ORIENTED_EDGE('',*,*,#440,.F.);
#586=ORIENTED_EDGE('',*,*,#438,.F.);
#587=ORIENTED_EDGE('',*,*,#414,.F.);
#588=ORIENTED_EDGE('',*,*,#441,.T.);
#589=ORIENTED_EDGE('',*,*,#437,.T.);
#590=ORIENTED_EDGE('',*,*,#441,.F.);
#591=ORIENTED_EDGE('',*,*,#442,.F.);
#592=ORIENTED_EDGE('',*,*,#443,.T.);
#593=ORIENTED_EDGE('',*,*,#444,.F.);
#594=ORIENTED_EDGE('',*,*,#445,.F.);
#595=ORIENTED_EDGE('',*,*,#443,.F.);
#596=ORIENTED_EDGE('',*,*,#415,.F.);
#597=ORIENTED_EDGE('',*,*,#446,.T.);
#598=ORIENTED_EDGE('',*,*,#442,.T.);
#599=ORIENTED_EDGE('',*,*,#446,.F.);
#600=ORIENTED_EDGE('',*,*,#439,.T.);
#601=ORIENTED_EDGE('',*,*,#440,.T.);
#602=ORIENTED_EDGE('',*,*,#447,.T.);
#603=ORIENTED_EDGE('',*,*,#426,.F.);
#604=ORIENTED_EDGE('',*,*,#447,.F.);
#605=ORIENTED_EDGE('',*,*,#397,.F.);
#606=ORIENTED_EDGE('',*,*,#448,.T.);
#607=ORIENTED_EDGE('',*,*,#444,.T.);
#608=ORIENTED_EDGE('',*,*,#445,.T.);
#609=ORIENTED_EDGE('',*,*,#448,.F.);
#610=ORIENTED_EDGE('',*,*,#370,.F.);
#611=ORIENTED_EDGE('',*,*,#449,.T.);
#612=ORIENTED_EDGE('',*,*,#424,.F.);
#613=ORIENTED_EDGE('',*,*,#428,.F.);
#614=ORIENTED_EDGE('',*,*,#380,.F.);
#615=ORIENTED_EDGE('',*,*,#450,.T.);
#616=ORIENTED_EDGE('',*,*,#395,.F.);
#617=ORIENTED_EDGE('',*,*,#434,.F.);
#618=ORIENTED_EDGE('',*,*,#419,.F.);
#619=ORIENTED_EDGE('',*,*,#425,.F.);
#620=ORIENTED_EDGE('',*,*,#449,.F.);
#621=ORIENTED_EDGE('',*,*,#369,.T.);
#622=ORIENTED_EDGE('',*,*,#356,.T.);
#623=ORIENTED_EDGE('',*,*,#386,.F.);
#624=ORIENTED_EDGE('',*,*,#451,.F.);
#625=ORIENTED_EDGE('',*,*,#408,.T.);
#626=ORIENTED_EDGE('',*,*,#436,.T.);
#627=ORIENTED_EDGE('',*,*,#365,.F.);
#628=ORIENTED_EDGE('',*,*,#409,.T.);
#629=ORIENTED_EDGE('',*,*,#451,.T.);
#630=ORIENTED_EDGE('',*,*,#385,.F.);
#631=ORIENTED_EDGE('',*,*,#452,.F.);
#632=ORIENTED_EDGE('',*,*,#410,.T.);
#633=ORIENTED_EDGE('',*,*,#452,.T.);
#634=ORIENTED_EDGE('',*,*,#384,.F.);
#635=ORIENTED_EDGE('',*,*,#453,.F.);
#636=ORIENTED_EDGE('',*,*,#411,.T.);
#637=ORIENTED_EDGE('',*,*,#453,.T.);
#638=ORIENTED_EDGE('',*,*,#383,.F.);
#639=ORIENTED_EDGE('',*,*,#432,.F.);
#640=ORIENTED_EDGE('',*,*,#391,.F.);
#641=ORIENTED_EDGE('',*,*,#396,.F.);
#642=ORIENTED_EDGE('',*,*,#450,.F.);
#643=ORIENTED_EDGE('',*,*,#379,.T.);
#644=ORIENTED_EDGE('',*,*,#400,.T.);
#645=ORIENTED_EDGE('',*,*,#361,.T.);
#646=ORIENTED_EDGE('',*,*,#375,.F.);
#647=ORIENTED_EDGE('',*,*,#454,.F.);
#648=ORIENTED_EDGE('',*,*,#401,.T.);
#649=ORIENTED_EDGE('',*,*,#454,.T.);
#650=ORIENTED_EDGE('',*,*,#374,.F.);
#651=ORIENTED_EDGE('',*,*,#455,.F.);
#652=ORIENTED_EDGE('',*,*,#402,.T.);
#653=ORIENTED_EDGE('',*,*,#455,.T.);
#654=ORIENTED_EDGE('',*,*,#373,.F.);
#655=ORIENTED_EDGE('',*,*,#430,.F.);
#656=CYLINDRICAL_SURFACE('',#719,12.);
#657=CYLINDRICAL_SURFACE('',#746,4.2);
#658=CYLINDRICAL_SURFACE('',#751,4.);
#659=CYLINDRICAL_SURFACE('',#753,3.50000000000001);
#660=CYLINDRICAL_SURFACE('',#754,3.5);
#661=CYLINDRICAL_SURFACE('',#756,4.);
#662=CYLINDRICAL_SURFACE('',#757,4.2);
#663=CYLINDRICAL_SURFACE('',#764,3.);
#664=CYLINDRICAL_SURFACE('',#769,3.);
#665=CYLINDRICAL_SURFACE('',#770,1.6);
#666=CYLINDRICAL_SURFACE('',#771,1.6);
#667=CYLINDRICAL_SURFACE('',#777,4.2);
#668=CYLINDRICAL_SURFACE('',#781,4.2);
#669=ADVANCED_FACE('',(#42),#656,.F.);
#670=ADVANCED_FACE('',(#43),#21,.T.);
#671=ADVANCED_FACE('',(#44),#22,.F.);
#672=ADVANCED_FACE('',(#45),#23,.F.);
#673=ADVANCED_FACE('',(#46),#24,.T.);
#674=ADVANCED_FACE('',(#47,#17),#25,.F.);
#675=ADVANCED_FACE('',(#48,#18,#19),#26,.T.);
#676=ADVANCED_FACE('',(#49),#27,.T.);
#677=ADVANCED_FACE('',(#50),#657,.F.);
#678=ADVANCED_FACE('',(#51,#20),#28,.F.);
#679=ADVANCED_FACE('',(#52),#658,.T.);
#680=ADVANCED_FACE('',(#53),#29,.T.);
#681=ADVANCED_FACE('',(#54),#659,.T.);
#682=ADVANCED_FACE('',(#55),#660,.T.);
#683=ADVANCED_FACE('',(#56),#30,.T.);
#684=ADVANCED_FACE('',(#57),#661,.T.);
#685=ADVANCED_FACE('',(#58),#662,.F.);
#686=ADVANCED_FACE('',(#59),#31,.T.);
#687=ADVANCED_FACE('',(#60),#32,.T.);
#688=ADVANCED_FACE('',(#61),#15,.F.);
#689=ADVANCED_FACE('',(#62),#663,.F.);
#690=ADVANCED_FACE('',(#63),#16,.F.);
#691=ADVANCED_FACE('',(#64),#664,.F.);
#692=ADVANCED_FACE('',(#65),#665,.F.);
#693=ADVANCED_FACE('',(#66),#666,.F.);
#694=ADVANCED_FACE('',(#67),#33,.T.);
#695=ADVANCED_FACE('',(#68),#34,.T.);
#696=ADVANCED_FACE('',(#69),#35,.T.);
#697=ADVANCED_FACE('',(#70),#36,.T.);
#698=ADVANCED_FACE('',(#71),#37,.T.);
#699=ADVANCED_FACE('',(#72),#667,.F.);
#700=ADVANCED_FACE('',(#73),#38,.T.);
#701=ADVANCED_FACE('',(#74),#39,.T.);
#702=ADVANCED_FACE('',(#75),#40,.T.);
#703=ADVANCED_FACE('',(#76),#668,.F.);
#704=ADVANCED_FACE('',(#77),#41,.T.);
#705=CLOSED_SHELL('',(#669,#670,#671,#672,#673,#674,#675,#676,#677,#678,
#679,#680,#681,#682,#683,#684,#685,#686,#687,#688,#689,#690,#691,#692,#693,
#694,#695,#696,#697,#698,#699,#700,#701,#702,#703,#704));
#706=DERIVED_UNIT_ELEMENT(#708,1.);
#707=DERIVED_UNIT_ELEMENT(#1193,-3.);
#708=(
MASS_UNIT()
NAMED_UNIT(*)
SI_UNIT(.KILO.,.GRAM.)
);
#709=DERIVED_UNIT((#706,#707));
#710=MEASURE_REPRESENTATION_ITEM('density measure',
POSITIVE_RATIO_MEASURE(7850.),#709);
#711=PROPERTY_DEFINITION_REPRESENTATION(#716,#713);
#712=PROPERTY_DEFINITION_REPRESENTATION(#717,#714);
#713=REPRESENTATION('material name',(#715),#1190);
#714=REPRESENTATION('density',(#710),#1190);
#715=DESCRIPTIVE_REPRESENTATION_ITEM('Stahl','Stahl');
#716=PROPERTY_DEFINITION('material property','material name',#1200);
#717=PROPERTY_DEFINITION('material property','density of part',#1200);
#718=AXIS2_PLACEMENT_3D('',#985,#783,#784);
#719=AXIS2_PLACEMENT_3D('',#986,#785,#786);
#720=AXIS2_PLACEMENT_3D('',#989,#787,#788);
#721=AXIS2_PLACEMENT_3D('',#993,#790,#791);
#722=AXIS2_PLACEMENT_3D('',#995,#793,#794);
#723=AXIS2_PLACEMENT_3D('',#1005,#800,#801);
#724=AXIS2_PLACEMENT_3D('',#1011,#804,#805);
#725=AXIS2_PLACEMENT_3D('',#1019,#809,#810);
#726=AXIS2_PLACEMENT_3D('',#1025,#813,#814);
#727=AXIS2_PLACEMENT_3D('',#1027,#816,#817);
#728=AXIS2_PLACEMENT_3D('',#1031,#819,#820);
#729=AXIS2_PLACEMENT_3D('',#1039,#824,#825);
#730=AXIS2_PLACEMENT_3D('',#1045,#828,#829);
#731=AXIS2_PLACEMENT_3D('',#1049,#832,#833);
#732=AXIS2_PLACEMENT_3D('',#1059,#839,#840);
#733=AXIS2_PLACEMENT_3D('',#1061,#841,#842);
#734=AXIS2_PLACEMENT_3D('',#1065,#844,#845);
#735=AXIS2_PLACEMENT_3D('',#1070,#848,#849);
#736=AXIS2_PLACEMENT_3D('',#1071,#850,#851);
#737=AXIS2_PLACEMENT_3D('',#1073,#852,#853);
#738=AXIS2_PLACEMENT_3D('',#1078,#856,#857);
#739=AXIS2_PLACEMENT_3D('',#1084,#860,#861);
#740=AXIS2_PLACEMENT_3D('',#1088,#863,#864);
#741=AXIS2_PLACEMENT_3D('',#1096,#868,#869);
#742=AXIS2_PLACEMENT_3D('',#1101,#872,#873);
#743=AXIS2_PLACEMENT_3D('',#1103,#874,#875);
#744=AXIS2_PLACEMENT_3D('',#1105,#876,#877);
#745=AXIS2_PLACEMENT_3D('',#1106,#878,#879);
#746=AXIS2_PLACEMENT_3D('',#1113,#884,#885);
#747=AXIS2_PLACEMENT_3D('',#1115,#887,#888);
#748=AXIS2_PLACEMENT_3D('',#1117,#889,#890);
#749=AXIS2_PLACEMENT_3D('',#1121,#892,#893);
#750=AXIS2_PLACEMENT_3D('',#1126,#896,#897);
#751=AXIS2_PLACEMENT_3D('',#1127,#898,#899);
#752=AXIS2_PLACEMENT_3D('',#1130,#902,#903);
#753=AXIS2_PLACEMENT_3D('',#1133,#906,#907);
#754=AXIS2_PLACEMENT_3D('',#1134,#908,#909);
#755=AXIS2_PLACEMENT_3D('',#1136,#911,#912);
#756=AXIS2_PLACEMENT_3D('',#1139,#915,#916);
#757=AXIS2_PLACEMENT_3D('',#1141,#918,#919);
#758=AXIS2_PLACEMENT_3D('',#1143,#921,#922);
#759=AXIS2_PLACEMENT_3D('',#1144,#923,#924);
#760=AXIS2_PLACEMENT_3D('',#1146,#926,#927);
#761=AXIS2_PLACEMENT_3D('',#1148,#928,#929);
#762=AXIS2_PLACEMENT_3D('',#1152,#931,#932);
#763=AXIS2_PLACEMENT_3D('',#1153,#933,#934);
#764=AXIS2_PLACEMENT_3D('',#1154,#935,#936);
#765=AXIS2_PLACEMENT_3D('',#1156,#938,#939);
#766=AXIS2_PLACEMENT_3D('',#1158,#940,#941);
#767=AXIS2_PLACEMENT_3D('',#1162,#943,#944);
#768=AXIS2_PLACEMENT_3D('',#1163,#945,#946);
#769=AXIS2_PLACEMENT_3D('',#1164,#947,#948);
#770=AXIS2_PLACEMENT_3D('',#1166,#950,#951);
#771=AXIS2_PLACEMENT_3D('',#1168,#953,#954);
#772=AXIS2_PLACEMENT_3D('',#1170,#956,#957);
#773=AXIS2_PLACEMENT_3D('',#1172,#959,#960);
#774=AXIS2_PLACEMENT_3D('',#1174,#962,#963);
#775=AXIS2_PLACEMENT_3D('',#1175,#964,#965);
#776=AXIS2_PLACEMENT_3D('',#1177,#967,#968);
#777=AXIS2_PLACEMENT_3D('',#1179,#970,#971);
#778=AXIS2_PLACEMENT_3D('',#1181,#973,#974);
#779=AXIS2_PLACEMENT_3D('',#1182,#975,#976);
#780=AXIS2_PLACEMENT_3D('',#1183,#977,#978);
#781=AXIS2_PLACEMENT_3D('',#1185,#980,#981);
#782=AXIS2_PLACEMENT_3D('',#1187,#983,#984);
#783=DIRECTION('axis',(0.,0.,1.));
#784=DIRECTION('refdir',(1.,0.,0.));
#785=DIRECTION('center_axis',(0.,-1.,0.));
#786=DIRECTION('ref_axis',(-1.,0.,0.));
#787=DIRECTION('center_axis',(0.,-1.,0.));
#788=DIRECTION('ref_axis',(-1.,0.,0.));
#789=DIRECTION('',(0.,1.,0.));
#790=DIRECTION('center_axis',(0.,1.,0.));
#791=DIRECTION('ref_axis',(-1.,0.,0.));
#792=DIRECTION('',(0.,-1.,0.));
#793=DIRECTION('center_axis',(0.,-1.,0.));
#794=DIRECTION('ref_axis',(1.,0.,0.));
#795=DIRECTION('',(1.,0.,0.));
#796=DIRECTION('',(0.,0.,-1.));
#797=DIRECTION('',(1.,0.,0.));
#798=DIRECTION('',(0.,0.,-1.));
#799=DIRECTION('',(1.,0.,0.));
#800=DIRECTION('center_axis',(0.,0.,-1.));
#801=DIRECTION('ref_axis',(1.,0.,0.));
#802=DIRECTION('',(-1.,0.,0.));
#803=DIRECTION('',(0.,-1.,0.));
#804=DIRECTION('center_axis',(0.,0.,-1.));
#805=DIRECTION('ref_axis',(0.707106781186548,-0.707106781186547,0.));
#806=DIRECTION('',(0.69436507482942,0.719622917128918,0.));
#807=DIRECTION('',(-1.,0.,0.));
#808=DIRECTION('',(0.,-1.,0.));
#809=DIRECTION('center_axis',(0.,0.,-1.));
#810=DIRECTION('ref_axis',(1.,0.,0.));
#811=DIRECTION('',(1.5819810820174E-16,-1.,0.));
#812=DIRECTION('',(1.,0.,0.));
#813=DIRECTION('center_axis',(0.,0.,-1.));
#814=DIRECTION('ref_axis',(0.,1.,0.));
#815=DIRECTION('',(-4.44089209850064E-15,-1.,0.));
#816=DIRECTION('center_axis',(0.,0.,-1.));
#817=DIRECTION('ref_axis',(1.,0.,0.));
#818=DIRECTION('',(-3.22973970800047E-15,1.,0.));
#819=DIRECTION('center_axis',(0.,0.,-1.));
#820=DIRECTION('ref_axis',(-0.707106781186551,0.707106781186544,0.));
#821=DIRECTION('',(-0.694365074829425,-0.719622917128914,0.));
#822=DIRECTION('',(1.,4.44089209850062E-15,0.));
#823=DIRECTION('',(-3.22973970800047E-15,1.,0.));
#824=DIRECTION('center_axis',(0.,0.,-1.));
#825=DIRECTION('ref_axis',(1.,0.,0.));
#826=DIRECTION('',(0.,1.,0.));
#827=DIRECTION('',(-1.,0.,0.));
#828=DIRECTION('center_axis',(0.,0.,-1.));
#829=DIRECTION('ref_axis',(0.,-1.,0.));
#830=DIRECTION('',(8.88178419700109E-15,1.,0.));
#831=DIRECTION('',(-1.,0.,0.));
#832=DIRECTION('center_axis',(0.719622917128914,-0.694365074829425,0.));
#833=DIRECTION('ref_axis',(0.,0.,-1.));
#834=DIRECTION('',(0.,0.,-1.));
#835=DIRECTION('',(0.694365074829425,0.719622917128914,0.));
#836=DIRECTION('',(0.,0.,1.));
#837=DIRECTION('',(-0.694365074829425,-0.719622917128914,0.));
#838=DIRECTION('',(0.,0.,-1.));
#839=DIRECTION('center_axis',(0.,0.,-1.));
#840=DIRECTION('ref_axis',(1.,0.,0.));
#841=DIRECTION('center_axis',(0.,0.,1.));
#842=DIRECTION('ref_axis',(1.,0.,0.));
#843=DIRECTION('',(0.,-1.,0.));
#844=DIRECTION('center_axis',(0.,0.,1.));
#845=DIRECTION('ref_axis',(1.,0.,0.));
#846=DIRECTION('',(3.22973970800047E-15,-1.,0.));
#847=DIRECTION('',(1.,4.44089209850062E-15,0.));
#848=DIRECTION('center_axis',(0.,0.,-1.));
#849=DIRECTION('ref_axis',(1.,0.,0.));
#850=DIRECTION('center_axis',(0.,0.,-1.));
#851=DIRECTION('ref_axis',(1.,0.,0.));
#852=DIRECTION('center_axis',(0.,0.,-1.));
#853=DIRECTION('ref_axis',(-0.707106781186551,0.707106781186544,0.));
#854=DIRECTION('',(-3.22973970800047E-15,1.,0.));
#855=DIRECTION('',(-4.44089209850064E-15,-1.,0.));
#856=DIRECTION('center_axis',(0.,0.,-1.));
#857=DIRECTION('ref_axis',(0.,1.,0.));
#858=DIRECTION('',(1.,0.,0.));
#859=DIRECTION('',(1.5819810820174E-16,-1.,0.));
#860=DIRECTION('center_axis',(0.,0.,-1.));
#861=DIRECTION('ref_axis',(1.,0.,0.));
#862=DIRECTION('',(-0.69436507482942,-0.719622917128918,0.));
#863=DIRECTION('center_axis',(0.,0.,-1.));
#864=DIRECTION('ref_axis',(0.707106781186548,-0.707106781186547,0.));
#865=DIRECTION('',(0.,-1.,0.));
#866=DIRECTION('',(-1.,0.,0.));
#867=DIRECTION('',(8.88178419700109E-15,1.,0.));
#868=DIRECTION('center_axis',(0.,0.,-1.));
#869=DIRECTION('ref_axis',(0.,-1.,0.));
#870=DIRECTION('',(-1.,0.,0.));
#871=DIRECTION('',(0.,1.,0.));
#872=DIRECTION('center_axis',(0.,0.,-1.));
#873=DIRECTION('ref_axis',(1.,0.,0.));
#874=DIRECTION('center_axis',(0.,0.,1.));
#875=DIRECTION('ref_axis',(-1.,0.,0.));
#876=DIRECTION('center_axis',(0.,0.,1.));
#877=DIRECTION('ref_axis',(-1.,0.,0.));
#878=DIRECTION('center_axis',(-0.719622917128919,0.69436507482942,0.));
#879=DIRECTION('ref_axis',(0.,0.,1.));
#880=DIRECTION('',(0.,0.,-1.));
#881=DIRECTION('',(0.,0.,1.));
#882=DIRECTION('',(0.69436507482942,0.719622917128918,0.));
#883=DIRECTION('',(0.,0.,-1.));
#884=DIRECTION('center_axis',(0.,0.,1.));
#885=DIRECTION('ref_axis',(0.707106781186548,-0.707106781186547,0.));
#886=DIRECTION('',(0.,0.,-1.));
#887=DIRECTION('center_axis',(0.,0.,-1.));
#888=DIRECTION('ref_axis',(1.,0.,0.));
#889=DIRECTION('center_axis',(0.,0.,1.));
#890=DIRECTION('ref_axis',(1.,0.,0.));
#891=DIRECTION('',(-1.5819810820174E-16,1.,0.));
#892=DIRECTION('center_axis',(0.,0.,1.));
#893=DIRECTION('ref_axis',(1.,0.,0.));
#894=DIRECTION('',(0.,1.,0.));
#895=DIRECTION('',(-1.,0.,0.));
#896=DIRECTION('center_axis',(0.,0.,-1.));
#897=DIRECTION('ref_axis',(1.,0.,0.));
#898=DIRECTION('center_axis',(0.,0.,1.));
#899=DIRECTION('ref_axis',(1.,0.,0.));
#900=DIRECTION('',(0.,0.,1.));
#901=DIRECTION('',(0.,0.,1.));
#902=DIRECTION('center_axis',(-1.,-1.5819810820174E-16,0.));
#903=DIRECTION('ref_axis',(1.5819810820174E-16,-1.,0.));
#904=DIRECTION('',(0.,0.,-1.));
#905=DIRECTION('',(0.,0.,-1.));
#906=DIRECTION('center_axis',(0.,0.,1.));
#907=DIRECTION('ref_axis',(-0.913632850827007,0.4065402979899,0.));
#908=DIRECTION('center_axis',(0.,0.,1.));
#909=DIRECTION('ref_axis',(1.,0.,0.));
#910=DIRECTION('',(0.,0.,1.));
#911=DIRECTION('center_axis',(1.,0.,0.));
#912=DIRECTION('ref_axis',(0.,1.,0.));
#913=DIRECTION('',(0.,0.,-1.));
#914=DIRECTION('',(0.,0.,1.));
#915=DIRECTION('center_axis',(0.,0.,1.));
#916=DIRECTION('ref_axis',(1.,0.,0.));
#917=DIRECTION('',(0.,0.,1.));
#918=DIRECTION('center_axis',(0.,0.,1.));
#919=DIRECTION('ref_axis',(-0.707106781186551,0.707106781186544,0.));
#920=DIRECTION('',(0.,0.,-1.));
#921=DIRECTION('center_axis',(1.,3.22973970800047E-15,0.));
#922=DIRECTION('ref_axis',(-3.22973970800047E-15,1.,0.));
#923=DIRECTION('center_axis',(-1.,0.,0.));
#924=DIRECTION('ref_axis',(0.,-1.,0.));
#925=DIRECTION('',(0.,0.,-1.));
#926=DIRECTION('center_axis',(0.,0.,-1.));
#927=DIRECTION('ref_axis',(-1.,0.,0.));
#928=DIRECTION('center_axis',(0.,0.,1.));
#929=DIRECTION('ref_axis',(-1.,0.,0.));
#930=DIRECTION('',(-0.766044443118978,-9.38133875270273E-17,0.642787609686539));
#931=DIRECTION('center_axis',(0.,0.,-1.));
#932=DIRECTION('ref_axis',(1.,0.,0.));
#933=DIRECTION('center_axis',(0.,0.,-1.));
#934=DIRECTION('ref_axis',(1.,0.,0.));
#935=DIRECTION('center_axis',(0.,0.,1.));
#936=DIRECTION('ref_axis',(-1.,0.,0.));
#937=DIRECTION('',(0.,0.,1.));
#938=DIRECTION('center_axis',(0.,0.,-1.));
#939=DIRECTION('ref_axis',(-1.,0.,0.));
#940=DIRECTION('center_axis',(0.,0.,1.));
#941=DIRECTION('ref_axis',(-1.,0.,0.));
#942=DIRECTION('',(-0.766044443118978,-9.38133875270273E-17,0.642787609686539));
#943=DIRECTION('center_axis',(0.,0.,-1.));
#944=DIRECTION('ref_axis',(1.,0.,0.));
#945=DIRECTION('center_axis',(0.,0.,-1.));
#946=DIRECTION('ref_axis',(1.,0.,0.));
#947=DIRECTION('center_axis',(0.,0.,1.));
#948=DIRECTION('ref_axis',(-1.,0.,0.));
#949=DIRECTION('',(0.,0.,1.));
#950=DIRECTION('center_axis',(0.,0.,1.));
#951=DIRECTION('ref_axis',(1.,0.,0.));
#952=DIRECTION('',(0.,0.,1.));
#953=DIRECTION('center_axis',(0.,0.,1.));
#954=DIRECTION('ref_axis',(1.,0.,0.));
#955=DIRECTION('',(0.,0.,-1.));
#956=DIRECTION('center_axis',(1.,0.,0.));
#957=DIRECTION('ref_axis',(0.,1.,0.));
#958=DIRECTION('',(0.,0.,-1.));
#959=DIRECTION('center_axis',(-1.,-3.22973970800047E-15,0.));
#960=DIRECTION('ref_axis',(3.22973970800047E-15,-1.,0.));
#961=DIRECTION('',(0.,0.,-1.));
#962=DIRECTION('center_axis',(0.,1.,0.));
#963=DIRECTION('ref_axis',(-1.,0.,0.));
#964=DIRECTION('center_axis',(0.,1.,0.));
#965=DIRECTION('ref_axis',(-1.,0.,0.));
#966=DIRECTION('',(0.,0.,-1.));
#967=DIRECTION('center_axis',(1.,-8.88178419700109E-15,0.));
#968=DIRECTION('ref_axis',(8.88178419700109E-15,1.,0.));
#969=DIRECTION('',(0.,0.,1.));
#970=DIRECTION('center_axis',(0.,0.,1.));
#971=DIRECTION('ref_axis',(0.,-1.,0.));
#972=DIRECTION('',(0.,0.,1.));
#973=DIRECTION('center_axis',(0.,1.,0.));
#974=DIRECTION('ref_axis',(-1.,0.,0.));
#975=DIRECTION('center_axis',(4.44089209850062E-15,-1.,0.));
#976=DIRECTION('ref_axis',(1.,4.44089209850062E-15,0.));
#977=DIRECTION('center_axis',(-1.,4.44089209850064E-15,0.));
#978=DIRECTION('ref_axis',(-4.44089209850064E-15,-1.,0.));
#979=DIRECTION('',(0.,0.,1.));
#980=DIRECTION('center_axis',(0.,0.,1.));
#981=DIRECTION('ref_axis',(0.,1.,0.));
#982=DIRECTION('',(0.,0.,1.));
#983=DIRECTION('center_axis',(0.,-1.,0.));
#984=DIRECTION('ref_axis',(1.,0.,0.));
#985=CARTESIAN_POINT('',(0.,0.,0.));
#986=CARTESIAN_POINT('Origin',(91.1,-30.2,-12.05));
#987=CARTESIAN_POINT('',(86.3041684766873,-30.2,-23.05));
#988=CARTESIAN_POINT('',(95.8958315233127,-30.2,-23.05));
#989=CARTESIAN_POINT('Origin',(91.1,-30.2,-12.05));
#990=CARTESIAN_POINT('',(86.3041684766873,-105.8,-23.05));
#991=CARTESIAN_POINT('',(86.3041684766873,-30.2,-23.05));
#992=CARTESIAN_POINT('',(95.8958315233127,-105.8,-23.05));
#993=CARTESIAN_POINT('Origin',(91.1,-105.8,-12.05));
#994=CARTESIAN_POINT('',(95.8958315233127,-30.2,-23.05));
#995=CARTESIAN_POINT('Origin',(79.9,-105.8,-25.05));
#996=CARTESIAN_POINT('',(80.1,-105.8,-23.05));
#997=CARTESIAN_POINT('',(85.5,-105.8,-23.05));
#998=CARTESIAN_POINT('',(80.1,-105.8,-25.05));
#999=CARTESIAN_POINT('',(80.1,-105.8,-25.05));
#1000=CARTESIAN_POINT('',(102.1,-105.8,-25.05));
#1001=CARTESIAN_POINT('',(85.5,-105.8,-25.05));
#1002=CARTESIAN_POINT('',(102.1,-105.8,-23.05));
#1003=CARTESIAN_POINT('',(102.1,-105.8,-25.05));
#1004=CARTESIAN_POINT('',(85.5,-105.8,-23.05));
#1005=CARTESIAN_POINT('Origin',(91.1,-68.,-23.05));
#1006=CARTESIAN_POINT('',(80.1,-30.2,-23.05));
#1007=CARTESIAN_POINT('',(96.7,-30.2,-23.05));
#1008=CARTESIAN_POINT('',(80.1,-33.000000551343,-23.05));
#1009=CARTESIAN_POINT('',(80.1,-49.,-23.05));
#1010=CARTESIAN_POINT('',(76.1998086124207,-37.1892862656287,-23.05));
#1011=CARTESIAN_POINT('Origin',(75.9,-33.000000551343,-23.05));
#1012=CARTESIAN_POINT('',(76.1894703844062,-37.200000551343,-23.05));
#1013=CARTESIAN_POINT('',(72.0191024394457,-41.5220675083982,-23.05));
#1014=CARTESIAN_POINT('',(79.9,-37.200000551343,-23.05));
#1015=CARTESIAN_POINT('',(85.5,-37.200000551343,-23.05));
#1016=CARTESIAN_POINT('',(79.9,-41.,-23.05));
#1017=CARTESIAN_POINT('',(79.9,-54.5,-23.05));
#1018=CARTESIAN_POINT('',(73.3,-44.0397368307141,-23.05));
#1019=CARTESIAN_POINT('Origin',(75.9,-41.,-23.05));
#1020=CARTESIAN_POINT('',(73.3,-99.8,-23.05));
#1021=CARTESIAN_POINT('',(73.3,-55.9282856857086,-23.05));
#1022=CARTESIAN_POINT('',(75.9,-99.8,-23.05));
#1023=CARTESIAN_POINT('',(82.1,-99.8,-23.05));
#1024=CARTESIAN_POINT('',(80.1,-104.,-23.05));
#1025=CARTESIAN_POINT('Origin',(75.9,-104.,-23.05));
#1026=CARTESIAN_POINT('',(80.1000000000001,-86.,-23.05));
#1027=CARTESIAN_POINT('Origin',(91.1,-68.,-23.05));
#1028=CARTESIAN_POINT('',(102.1,-103.000001475215,-23.05));
#1029=CARTESIAN_POINT('',(102.1,-87.,-23.05));
#1030=CARTESIAN_POINT('',(106.000191387579,-98.8107157609292,-23.05));
#1031=CARTESIAN_POINT('Origin',(106.3,-103.000001475215,-23.05));
#1032=CARTESIAN_POINT('',(106.010529615594,-98.800001475215,-23.05));
#1033=CARTESIAN_POINT('',(110.180898066871,-94.477933993426,-23.05));
#1034=CARTESIAN_POINT('',(102.3,-98.800001475215,-23.05));
#1035=CARTESIAN_POINT('',(96.7,-98.800001475215,-23.05));
#1036=CARTESIAN_POINT('',(102.3,-95.0000000000001,-23.05));
#1037=CARTESIAN_POINT('',(102.3,-81.5,-23.05));
#1038=CARTESIAN_POINT('',(108.9,-91.9602631692859,-23.05));
#1039=CARTESIAN_POINT('Origin',(106.3,-95.0000000000001,-23.05));
#1040=CARTESIAN_POINT('',(108.9,-36.2,-23.05));
#1041=CARTESIAN_POINT('',(108.9,-80.0717143142915,-23.05));
#1042=CARTESIAN_POINT('',(106.3,-36.2,-23.05));
#1043=CARTESIAN_POINT('',(100.1,-36.2,-23.05));
#1044=CARTESIAN_POINT('',(102.1,-32.,-23.05));
#1045=CARTESIAN_POINT('Origin',(106.3,-32.,-23.05));
#1046=CARTESIAN_POINT('',(102.1,-30.2,-23.05));
#1047=CARTESIAN_POINT('',(102.1,-50.,-23.05));
#1048=CARTESIAN_POINT('',(96.7,-30.2,-23.05));
#1049=CARTESIAN_POINT('Origin',(106.15009569379,-98.6553586180721,-25.05));
#1050=CARTESIAN_POINT('',(106.000191387579,-98.8107157609292,-25.05));
#1051=CARTESIAN_POINT('',(106.000191387579,-98.8107157609292,-25.05));
#1052=CARTESIAN_POINT('',(106.3,-98.5000000000001,-25.05));
#1053=CARTESIAN_POINT('',(110.180898066871,-94.477933993426,-25.05));
#1054=CARTESIAN_POINT('',(106.3,-98.5000000000001,-20.05));
#1055=CARTESIAN_POINT('',(106.3,-98.5000000000001,-25.05));
#1056=CARTESIAN_POINT('',(106.010529615594,-98.800001475215,-20.05));
#1057=CARTESIAN_POINT('',(107.039221960263,-97.7338899832436,-20.05));
#1058=CARTESIAN_POINT('',(106.010529615594,-98.800001475215,-25.05));
#1059=CARTESIAN_POINT('Origin',(106.05,-95.0000007376075,-20.05));
#1060=CARTESIAN_POINT('',(108.9,-92.6569250972281,-20.05));
#1061=CARTESIAN_POINT('Origin',(106.3,-95.0000000000001,-20.05));
#1062=CARTESIAN_POINT('',(108.9,-91.9602631692859,-20.05));
#1063=CARTESIAN_POINT('',(108.9,-93.5717146830952,-20.05));
#1064=CARTESIAN_POINT('',(102.3,-95.0000000000001,-20.05));
#1065=CARTESIAN_POINT('Origin',(106.3,-95.0000000000001,-20.05));
#1066=CARTESIAN_POINT('',(102.3,-98.800001475215,-20.05));
#1067=CARTESIAN_POINT('',(102.3,-106.,-20.05));
#1068=CARTESIAN_POINT('',(104.175,-98.800001475215,-20.05));
#1069=CARTESIAN_POINT('',(104.7,-95.0000000000001,-20.05));
#1070=CARTESIAN_POINT('Origin',(106.3,-95.0000000000001,-20.05));
#1071=CARTESIAN_POINT('Origin',(91.1,-68.,-25.05));
#1072=CARTESIAN_POINT('',(102.1,-103.000001475215,-25.05));
#1073=CARTESIAN_POINT('Origin',(106.3,-103.000001475215,-25.05));
#1074=CARTESIAN_POINT('',(102.1,-87.,-25.05));
#1075=CARTESIAN_POINT('',(80.1,-104.,-25.05));
#1076=CARTESIAN_POINT('',(80.1000000000001,-86.,-25.05));
#1077=CARTESIAN_POINT('',(75.9,-99.8,-25.05));
#1078=CARTESIAN_POINT('Origin',(75.9,-104.,-25.05));
#1079=CARTESIAN_POINT('',(73.3,-99.8,-25.05));
#1080=CARTESIAN_POINT('',(82.1,-99.8,-25.05));
#1081=CARTESIAN_POINT('',(73.3,-43.343074902772,-25.05));
#1082=CARTESIAN_POINT('',(73.3,-55.9282856857086,-25.05));
#1083=CARTESIAN_POINT('',(75.9,-37.5,-25.05));
#1084=CARTESIAN_POINT('Origin',(75.9,-41.,-25.05));
#1085=CARTESIAN_POINT('',(76.1998086124207,-37.1892862656287,-25.05));
#1086=CARTESIAN_POINT('',(72.0191024394457,-41.5220675083982,-25.05));
#1087=CARTESIAN_POINT('',(80.1,-33.000000551343,-25.05));
#1088=CARTESIAN_POINT('Origin',(75.9,-33.000000551343,-25.05));
#1089=CARTESIAN_POINT('',(80.1,-30.2,-25.05));
#1090=CARTESIAN_POINT('',(80.1,-49.,-25.05));
#1091=CARTESIAN_POINT('',(102.1,-30.2,-25.05));
#1092=CARTESIAN_POINT('',(96.7,-30.2,-25.05));
#1093=CARTESIAN_POINT('',(102.1,-32.,-25.05));
#1094=CARTESIAN_POINT('',(102.1,-50.,-25.05));
#1095=CARTESIAN_POINT('',(106.3,-36.2,-25.05));
#1096=CARTESIAN_POINT('Origin',(106.3,-32.,-25.05));
#1097=CARTESIAN_POINT('',(108.9,-36.2,-25.05));
#1098=CARTESIAN_POINT('',(100.1,-36.2,-25.05));
#1099=CARTESIAN_POINT('',(108.9,-92.6569250972281,-25.05));
#1100=CARTESIAN_POINT('',(108.9,-80.0717143142915,-25.05));
#1101=CARTESIAN_POINT('Origin',(106.3,-95.0000000000001,-25.05));
#1102=CARTESIAN_POINT('',(78.9,-41.,-25.05));
#1103=CARTESIAN_POINT('Origin',(75.9,-41.,-25.05));
#1104=CARTESIAN_POINT('',(109.3,-95.0000000000001,-25.05));
#1105=CARTESIAN_POINT('Origin',(106.3,-95.0000000000001,-25.05));
#1106=CARTESIAN_POINT('Origin',(76.0499043062104,-37.3446434084858,-25.05));
#1107=CARTESIAN_POINT('',(76.1998086124207,-37.1892862656287,-25.05));
#1108=CARTESIAN_POINT('',(75.9,-37.5,-20.05));
#1109=CARTESIAN_POINT('',(75.9,-37.5,-25.05));
#1110=CARTESIAN_POINT('',(76.1894703844062,-37.200000551343,-20.05));
#1111=CARTESIAN_POINT('',(75.2451532928949,-38.1786676023248,-20.05));
#1112=CARTESIAN_POINT('',(76.1894703844062,-37.200000551343,-25.05));
#1113=CARTESIAN_POINT('Origin',(75.9,-33.000000551343,-25.05));
#1114=CARTESIAN_POINT('',(80.1,-33.000000551343,-25.05));
#1115=CARTESIAN_POINT('Origin',(76.5,-41.0000002756715,-20.05));
#1116=CARTESIAN_POINT('',(73.3,-43.343074902772,-20.05));
#1117=CARTESIAN_POINT('Origin',(75.9,-41.,-20.05));
#1118=CARTESIAN_POINT('',(73.3,-44.0397368307141,-20.05));
#1119=CARTESIAN_POINT('',(73.3,-42.4282858235443,-20.05));
#1120=CARTESIAN_POINT('',(79.9,-41.,-20.05));
#1121=CARTESIAN_POINT('Origin',(75.9,-41.,-20.05));
#1122=CARTESIAN_POINT('',(79.9,-37.200000551343,-20.05));
#1123=CARTESIAN_POINT('',(79.9,-30.,-20.05));
#1124=CARTESIAN_POINT('',(78.2,-37.200000551343,-20.05));
#1125=CARTESIAN_POINT('',(74.3,-41.,-20.05));
#1126=CARTESIAN_POINT('Origin',(75.9,-41.,-20.05));
#1127=CARTESIAN_POINT('Origin',(75.9,-41.,-25.05));
#1128=CARTESIAN_POINT('',(73.3,-44.0397368307141,-25.05));
#1129=CARTESIAN_POINT('',(79.9,-41.,-25.05));
#1130=CARTESIAN_POINT('Origin',(73.3,-43.8565713714171,-25.05));
#1131=CARTESIAN_POINT('',(73.3,-43.343074902772,-25.05));
#1132=CARTESIAN_POINT('',(73.3,-99.8,-25.05));
#1133=CARTESIAN_POINT('Origin',(75.9,-41.,-25.05));
#1134=CARTESIAN_POINT('Origin',(106.3,-95.0000000000001,-25.05));
#1135=CARTESIAN_POINT('',(108.9,-92.6569250972281,-25.05));
#1136=CARTESIAN_POINT('Origin',(108.9,-92.1434286285829,-25.05));
#1137=CARTESIAN_POINT('',(108.9,-36.2,-25.05));
#1138=CARTESIAN_POINT('',(108.9,-91.9602631692859,-25.05));
#1139=CARTESIAN_POINT('Origin',(106.3,-95.0000000000001,-25.05));
#1140=CARTESIAN_POINT('',(102.3,-95.0000000000001,-25.05));
#1141=CARTESIAN_POINT('Origin',(106.3,-103.000001475215,-25.05));
#1142=CARTESIAN_POINT('',(102.1,-103.000001475215,-25.05));
#1143=CARTESIAN_POINT('Origin',(102.1,-106.,-25.05));
#1144=CARTESIAN_POINT('Origin',(80.1,-30.,-25.05));
#1145=CARTESIAN_POINT('',(80.1,-30.2,-25.05));
#1146=CARTESIAN_POINT('Origin',(75.9,-41.,-21.2913505532341));
#1147=CARTESIAN_POINT('',(78.9,-41.,-22.55));
#1148=CARTESIAN_POINT('Origin',(75.9,-41.,-22.55));
#1149=CARTESIAN_POINT('',(77.5,-41.,-21.3752605163518));
#1150=CARTESIAN_POINT('',(77.4,-41.,-21.2913505532341));
#1151=CARTESIAN_POINT('',(74.3,-41.,-21.3752605163518));
#1152=CARTESIAN_POINT('Origin',(75.9,-41.,-21.3752605163518));
#1153=CARTESIAN_POINT('Origin',(75.9,-41.,-21.3752605163518));
#1154=CARTESIAN_POINT('Origin',(75.9,-41.,-23.8));
#1155=CARTESIAN_POINT('',(78.9,-41.,-23.8));
#1156=CARTESIAN_POINT('Origin',(106.3,-95.0000000000001,-21.2913505532341));
#1157=CARTESIAN_POINT('',(109.3,-95.0000000000001,-22.55));
#1158=CARTESIAN_POINT('Origin',(106.3,-95.0000000000001,-22.55));
#1159=CARTESIAN_POINT('',(107.9,-95.0000000000001,-21.3752605163518));
#1160=CARTESIAN_POINT('',(107.8,-95.0000000000001,-21.2913505532341));
#1161=CARTESIAN_POINT('',(104.7,-95.0000000000001,-21.3752605163518));
#1162=CARTESIAN_POINT('Origin',(106.3,-95.0000000000001,-21.3752605163518));
#1163=CARTESIAN_POINT('Origin',(106.3,-95.0000000000001,-21.3752605163518));
#1164=CARTESIAN_POINT('Origin',(106.3,-95.0000000000001,-23.8));
#1165=CARTESIAN_POINT('',(109.3,-95.0000000000001,-23.8));
#1166=CARTESIAN_POINT('Origin',(75.9,-41.,-25.05));
#1167=CARTESIAN_POINT('',(74.3,-41.,-25.05));
#1168=CARTESIAN_POINT('Origin',(106.3,-95.0000000000001,-25.05));
#1169=CARTESIAN_POINT('',(104.7,-95.0000000000001,-25.05));
#1170=CARTESIAN_POINT('Origin',(79.9,-41.,-25.05));
#1171=CARTESIAN_POINT('',(79.9,-37.200000551343,-25.05));
#1172=CARTESIAN_POINT('Origin',(102.3,-95.0000000000001,-25.05));
#1173=CARTESIAN_POINT('',(102.3,-98.800001475215,-25.05));
#1174=CARTESIAN_POINT('Origin',(79.9,-37.200000551343,-25.05));
#1175=CARTESIAN_POINT('Origin',(102.3,-30.2,-25.05));
#1176=CARTESIAN_POINT('',(102.1,-30.2,-25.05));
#1177=CARTESIAN_POINT('Origin',(102.1,-32.,-25.05));
#1178=CARTESIAN_POINT('',(102.1,-32.,-25.05));
#1179=CARTESIAN_POINT('Origin',(106.3,-32.,-25.05));
#1180=CARTESIAN_POINT('',(106.3,-36.2,-25.05));
#1181=CARTESIAN_POINT('Origin',(109.1,-36.2,-25.05));
#1182=CARTESIAN_POINT('Origin',(102.3,-98.800001475215,-25.05));
#1183=CARTESIAN_POINT('Origin',(80.1,-104.,-25.05));
#1184=CARTESIAN_POINT('',(80.1,-104.,-25.05));
#1185=CARTESIAN_POINT('Origin',(75.9,-104.,-25.05));
#1186=CARTESIAN_POINT('',(75.9,-99.8,-25.05));
#1187=CARTESIAN_POINT('Origin',(73.1,-99.8,-25.05));
#1188=UNCERTAINTY_MEASURE_WITH_UNIT(LENGTH_MEASURE(0.01),#1192,
'DISTANCE_ACCURACY_VALUE',
'Maximum model space distance between geometric entities at asserted c
onnectivities');
#1189=UNCERTAINTY_MEASURE_WITH_UNIT(LENGTH_MEASURE(0.01),#1192,
'DISTANCE_ACCURACY_VALUE',
'Maximum model space distance between geometric entities at asserted c
onnectivities');
#1190=(
GEOMETRIC_REPRESENTATION_CONTEXT(3)
GLOBAL_UNCERTAINTY_ASSIGNED_CONTEXT((#1188))
GLOBAL_UNIT_ASSIGNED_CONTEXT((#1192,#1194,#1195))
REPRESENTATION_CONTEXT('','3D')
);
#1191=(
GEOMETRIC_REPRESENTATION_CONTEXT(3)
GLOBAL_UNCERTAINTY_ASSIGNED_CONTEXT((#1189))
GLOBAL_UNIT_ASSIGNED_CONTEXT((#1192,#1194,#1195))
REPRESENTATION_CONTEXT('','3D')
);
#1192=(
LENGTH_UNIT()
NAMED_UNIT(*)
SI_UNIT(.MILLI.,.METRE.)
);
#1193=(
LENGTH_UNIT()
NAMED_UNIT(*)
SI_UNIT($,.METRE.)
);
#1194=(
NAMED_UNIT(*)
PLANE_ANGLE_UNIT()
SI_UNIT($,.RADIAN.)
);
#1195=(
NAMED_UNIT(*)
SI_UNIT($,.STERADIAN.)
SOLID_ANGLE_UNIT()
);
#1196=SHAPE_DEFINITION_REPRESENTATION(#1197,#1198);
#1197=PRODUCT_DEFINITION_SHAPE('',$,#1200);
#1198=SHAPE_REPRESENTATION('',(#718),#1190);
#1199=PRODUCT_DEFINITION_CONTEXT('part definition',#1204,'design');
#1200=PRODUCT_DEFINITION('Remote control battery cover',
'Remote control battery cover',#1201,#1199);
#1201=PRODUCT_DEFINITION_FORMATION('',$,#1206);
#1202=PRODUCT_RELATED_PRODUCT_CATEGORY('Remote control battery cover',
'Remote control battery cover',(#1206));
#1203=APPLICATION_PROTOCOL_DEFINITION('international standard',
'automotive_design',2009,#1204);
#1204=APPLICATION_CONTEXT(
'Core Data for Automotive Mechanical Design Process');
#1205=PRODUCT_CONTEXT('part definition',#1204,'mechanical');
#1206=PRODUCT('Remote control battery cover',
'Remote control battery cover',$,(#1205));
#1207=PRESENTATION_STYLE_ASSIGNMENT((#1209));
#1208=PRESENTATION_STYLE_ASSIGNMENT((#1210));
#1209=SURFACE_STYLE_USAGE(.BOTH.,#1211);
#1210=SURFACE_STYLE_USAGE(.BOTH.,#1212);
#1211=SURFACE_SIDE_STYLE('',(#1213));
#1212=SURFACE_SIDE_STYLE('',(#1214));
#1213=SURFACE_STYLE_FILL_AREA(#1215);
#1214=SURFACE_STYLE_FILL_AREA(#1216);
#1215=FILL_AREA_STYLE('Stahl - satiniert',(#1217));
#1216=FILL_AREA_STYLE('Opaque(115,115,115)',(#1218));
#1217=FILL_AREA_STYLE_COLOUR('Stahl - satiniert',#1219);
#1218=FILL_AREA_STYLE_COLOUR('Opaque(115,115,115)',#1220);
#1219=COLOUR_RGB('Stahl - satiniert',0.627450980392157,0.627450980392157,
0.627450980392157);
#1220=COLOUR_RGB('Opaque(115,115,115)',0.450980392156863,0.450980392156863,
0.450980392156863);
ENDSEC;
END-ISO-10303-21;
