ISO-10303-21;
HEADER;
/* Generated by software containing ST-Developer
 * from STEP Tools, Inc. (www.steptools.com) 
 */

FILE_DESCRIPTION(
/* description */ (''),
/* implementation_level */ '2;1');

FILE_NAME(
/* name */ 'Remote control upper intermediate frame.step',
/* time_stamp */ '2026-04-11T13:41:59+02:00',
/* author */ (''),
/* organization */ (''),
/* preprocessor_version */ 'ST-DEVELOPER v20.1',
/* originating_system */ 'Autodesk Translation Framework v14.24.0.0',
/* authorisation */ '');

FILE_SCHEMA (('AUTOMOTIVE_DESIGN { 1 0 10303 214 3 1 1 }'));
ENDSEC;

DATA;
#10=MECHANICAL_DESIGN_GEOMETRIC_PRESENTATION_REPRESENTATION('',(#13),#1248);
#11=SHAPE_REPRESENTATION_RELATIONSHIP('SRR','None',#1255,#12);
#12=ADVANCED_BREP_SHAPE_REPRESENTATION('',(#14),#1247);
#13=STYLED_ITEM('',(#1265),#14);
#14=MANIFOLD_SOLID_BREP('Remote control upper intermediate frame',#740);
#15=FACE_BOUND('',#87,.T.);
#16=FACE_BOUND('',#88,.T.);
#17=FACE_BOUND('',#89,.T.);
#18=FACE_BOUND('',#90,.T.);
#19=FACE_BOUND('',#100,.T.);
#20=FACE_BOUND('',#101,.T.);
#21=FACE_BOUND('',#102,.T.);
#22=FACE_BOUND('',#103,.T.);
#23=FACE_BOUND('',#104,.T.);
#24=PLANE('',#757);
#25=PLANE('',#764);
#26=PLANE('',#768);
#27=PLANE('',#781);
#28=PLANE('',#782);
#29=PLANE('',#783);
#30=PLANE('',#784);
#31=PLANE('',#785);
#32=PLANE('',#786);
#33=PLANE('',#787);
#34=PLANE('',#788);
#35=PLANE('',#789);
#36=PLANE('',#802);
#37=PLANE('',#803);
#38=PLANE('',#805);
#39=PLANE('',#807);
#40=PLANE('',#810);
#41=PLANE('',#815);
#42=PLANE('',#818);
#43=PLANE('',#819);
#44=FACE_OUTER_BOUND('',#80,.T.);
#45=FACE_OUTER_BOUND('',#81,.T.);
#46=FACE_OUTER_BOUND('',#82,.T.);
#47=FACE_OUTER_BOUND('',#83,.T.);
#48=FACE_OUTER_BOUND('',#84,.T.);
#49=FACE_OUTER_BOUND('',#85,.T.);
#50=FACE_OUTER_BOUND('',#86,.T.);
#51=FACE_OUTER_BOUND('',#91,.T.);
#52=FACE_OUTER_BOUND('',#92,.T.);
#53=FACE_OUTER_BOUND('',#93,.T.);
#54=FACE_OUTER_BOUND('',#94,.T.);
#55=FACE_OUTER_BOUND('',#95,.T.);
#56=FACE_OUTER_BOUND('',#96,.T.);
#57=FACE_OUTER_BOUND('',#97,.T.);
#58=FACE_OUTER_BOUND('',#98,.T.);
#59=FACE_OUTER_BOUND('',#99,.T.);
#60=FACE_OUTER_BOUND('',#105,.T.);
#61=FACE_OUTER_BOUND('',#106,.T.);
#62=FACE_OUTER_BOUND('',#107,.T.);
#63=FACE_OUTER_BOUND('',#108,.T.);
#64=FACE_OUTER_BOUND('',#109,.T.);
#65=FACE_OUTER_BOUND('',#110,.T.);
#66=FACE_OUTER_BOUND('',#111,.T.);
#67=FACE_OUTER_BOUND('',#112,.T.);
#68=FACE_OUTER_BOUND('',#113,.T.);
#69=FACE_OUTER_BOUND('',#114,.T.);
#70=FACE_OUTER_BOUND('',#115,.T.);
#71=FACE_OUTER_BOUND('',#116,.T.);
#72=FACE_OUTER_BOUND('',#117,.T.);
#73=FACE_OUTER_BOUND('',#118,.T.);
#74=FACE_OUTER_BOUND('',#119,.T.);
#75=FACE_OUTER_BOUND('',#120,.T.);
#76=FACE_OUTER_BOUND('',#121,.T.);
#77=FACE_OUTER_BOUND('',#122,.T.);
#78=FACE_OUTER_BOUND('',#123,.T.);
#79=FACE_OUTER_BOUND('',#124,.T.);
#80=EDGE_LOOP('',(#478,#479,#480,#481));
#81=EDGE_LOOP('',(#482,#483,#484,#485));
#82=EDGE_LOOP('',(#486,#487,#488,#489));
#83=EDGE_LOOP('',(#490,#491,#492,#493));
#84=EDGE_LOOP('',(#494,#495,#496,#497,#498,#499,#500,#501));
#85=EDGE_LOOP('',(#502,#503,#504,#505));
#86=EDGE_LOOP('',(#506,#507,#508,#509,#510,#511,#512,#513,#514,#515,#516,
#517,#518,#519,#520,#521,#522,#523,#524,#525,#526,#527,#528,#529,#530,#531,
#532,#533));
#87=EDGE_LOOP('',(#534));
#88=EDGE_LOOP('',(#535));
#89=EDGE_LOOP('',(#536));
#90=EDGE_LOOP('',(#537));
#91=EDGE_LOOP('',(#538,#539,#540,#541,#542,#543,#544));
#92=EDGE_LOOP('',(#545,#546,#547,#548,#549,#550,#551));
#93=EDGE_LOOP('',(#552,#553,#554,#555));
#94=EDGE_LOOP('',(#556,#557,#558,#559));
#95=EDGE_LOOP('',(#560,#561,#562,#563));
#96=EDGE_LOOP('',(#564,#565,#566,#567));
#97=EDGE_LOOP('',(#568,#569,#570,#571,#572,#573,#574,#575));
#98=EDGE_LOOP('',(#576,#577,#578,#579));
#99=EDGE_LOOP('',(#580,#581,#582,#583,#584,#585,#586,#587));
#100=EDGE_LOOP('',(#588,#589,#590,#591,#592,#593,#594,#595,#596,#597,#598,
#599,#600,#601,#602,#603));
#101=EDGE_LOOP('',(#604));
#102=EDGE_LOOP('',(#605));
#103=EDGE_LOOP('',(#606));
#104=EDGE_LOOP('',(#607));
#105=EDGE_LOOP('',(#608,#609,#610,#611));
#106=EDGE_LOOP('',(#612,#613,#614,#615));
#107=EDGE_LOOP('',(#616,#617,#618,#619));
#108=EDGE_LOOP('',(#620,#621,#622,#623));
#109=EDGE_LOOP('',(#624,#625,#626,#627));
#110=EDGE_LOOP('',(#628,#629,#630,#631));
#111=EDGE_LOOP('',(#632,#633,#634,#635));
#112=EDGE_LOOP('',(#636,#637,#638,#639));
#113=EDGE_LOOP('',(#640,#641,#642,#643));
#114=EDGE_LOOP('',(#644,#645,#646,#647));
#115=EDGE_LOOP('',(#648,#649,#650,#651));
#116=EDGE_LOOP('',(#652,#653,#654,#655));
#117=EDGE_LOOP('',(#656,#657,#658,#659));
#118=EDGE_LOOP('',(#660,#661,#662,#663));
#119=EDGE_LOOP('',(#664,#665,#666,#667));
#120=EDGE_LOOP('',(#668,#669,#670,#671));
#121=EDGE_LOOP('',(#672,#673,#674,#675));
#122=EDGE_LOOP('',(#676,#677,#678,#679));
#123=EDGE_LOOP('',(#680,#681,#682,#683));
#124=EDGE_LOOP('',(#684,#685,#686,#687));
#125=LINE('',#1039,#198);
#126=LINE('',#1042,#199);
#127=LINE('',#1045,#200);
#128=LINE('',#1047,#201);
#129=LINE('',#1048,#202);
#130=LINE('',#1053,#203);
#131=LINE('',#1060,#204);
#132=LINE('',#1063,#205);
#133=LINE('',#1066,#206);
#134=LINE('',#1068,#207);
#135=LINE('',#1070,#208);
#136=LINE('',#1072,#209);
#137=LINE('',#1074,#210);
#138=LINE('',#1076,#211);
#139=LINE('',#1077,#212);
#140=LINE('',#1082,#213);
#141=LINE('',#1087,#214);
#142=LINE('',#1090,#215);
#143=LINE('',#1092,#216);
#144=LINE('',#1096,#217);
#145=LINE('',#1100,#218);
#146=LINE('',#1104,#219);
#147=LINE('',#1108,#220);
#148=LINE('',#1109,#221);
#149=LINE('',#1113,#222);
#150=LINE('',#1115,#223);
#151=LINE('',#1117,#224);
#152=LINE('',#1122,#225);
#153=LINE('',#1123,#226);
#154=LINE('',#1134,#227);
#155=LINE('',#1136,#228);
#156=LINE('',#1138,#229);
#157=LINE('',#1140,#230);
#158=LINE('',#1141,#231);
#159=LINE('',#1144,#232);
#160=LINE('',#1146,#233);
#161=LINE('',#1148,#234);
#162=LINE('',#1150,#235);
#163=LINE('',#1151,#236);
#164=LINE('',#1153,#237);
#165=LINE('',#1155,#238);
#166=LINE('',#1157,#239);
#167=LINE('',#1158,#240);
#168=LINE('',#1162,#241);
#169=LINE('',#1164,#242);
#170=LINE('',#1165,#243);
#171=LINE('',#1168,#244);
#172=LINE('',#1170,#245);
#173=LINE('',#1171,#246);
#174=LINE('',#1175,#247);
#175=LINE('',#1179,#248);
#176=LINE('',#1183,#249);
#177=LINE('',#1189,#250);
#178=LINE('',#1191,#251);
#179=LINE('',#1193,#252);
#180=LINE('',#1197,#253);
#181=LINE('',#1199,#254);
#182=LINE('',#1210,#255);
#183=LINE('',#1211,#256);
#184=LINE('',#1213,#257);
#185=LINE('',#1214,#258);
#186=LINE('',#1216,#259);
#187=LINE('',#1218,#260);
#188=LINE('',#1220,#261);
#189=LINE('',#1222,#262);
#190=LINE('',#1225,#263);
#191=LINE('',#1228,#264);
#192=LINE('',#1230,#265);
#193=LINE('',#1232,#266);
#194=LINE('',#1234,#267);
#195=LINE('',#1236,#268);
#196=LINE('',#1239,#269);
#197=LINE('',#1242,#270);
#198=VECTOR('',#828,3.);
#199=VECTOR('',#831,3.);
#200=VECTOR('',#834,10.);
#201=VECTOR('',#835,3.);
#202=VECTOR('',#836,10.);
#203=VECTOR('',#841,3.);
#204=VECTOR('',#848,3.00000000000001);
#205=VECTOR('',#851,3.00000000000001);
#206=VECTOR('',#854,10.);
#207=VECTOR('',#855,10.);
#208=VECTOR('',#856,10.);
#209=VECTOR('',#857,10.);
#210=VECTOR('',#858,10.);
#211=VECTOR('',#859,3.00000000000001);
#212=VECTOR('',#860,10.);
#213=VECTOR('',#865,3.00000000000001);
#214=VECTOR('',#870,10.);
#215=VECTOR('',#873,10.);
#216=VECTOR('',#874,10.);
#217=VECTOR('',#877,10.);
#218=VECTOR('',#880,10.);
#219=VECTOR('',#883,10.);
#220=VECTOR('',#886,10.);
#221=VECTOR('',#887,10.);
#222=VECTOR('',#890,10.);
#223=VECTOR('',#891,10.);
#224=VECTOR('',#892,10.);
#225=VECTOR('',#897,10.);
#226=VECTOR('',#898,10.);
#227=VECTOR('',#909,10.);
#228=VECTOR('',#910,10.);
#229=VECTOR('',#911,10.);
#230=VECTOR('',#912,10.);
#231=VECTOR('',#913,10.);
#232=VECTOR('',#916,10.);
#233=VECTOR('',#917,10.);
#234=VECTOR('',#918,10.);
#235=VECTOR('',#919,10.);
#236=VECTOR('',#920,10.);
#237=VECTOR('',#923,10.);
#238=VECTOR('',#926,10.);
#239=VECTOR('',#929,10.);
#240=VECTOR('',#930,10.);
#241=VECTOR('',#935,10.);
#242=VECTOR('',#936,10.);
#243=VECTOR('',#937,10.);
#244=VECTOR('',#940,10.);
#245=VECTOR('',#941,10.);
#246=VECTOR('',#942,10.);
#247=VECTOR('',#945,10.);
#248=VECTOR('',#948,10.);
#249=VECTOR('',#951,10.);
#250=VECTOR('',#958,10.);
#251=VECTOR('',#959,10.);
#252=VECTOR('',#960,10.);
#253=VECTOR('',#965,10.);
#254=VECTOR('',#966,10.);
#255=VECTOR('',#979,10.);
#256=VECTOR('',#980,10.);
#257=VECTOR('',#983,10.);
#258=VECTOR('',#984,10.);
#259=VECTOR('',#987,10.);
#260=VECTOR('',#990,10.);
#261=VECTOR('',#993,10.);
#262=VECTOR('',#996,10.);
#263=VECTOR('',#1001,10.);
#264=VECTOR('',#1006,1.6);
#265=VECTOR('',#1009,1.6);
#266=VECTOR('',#1012,1.6);
#267=VECTOR('',#1015,1.6);
#268=VECTOR('',#1018,10.);
#269=VECTOR('',#1023,10.);
#270=VECTOR('',#1028,10.);
#271=CIRCLE('',#755,3.);
#272=CIRCLE('',#756,3.);
#273=CIRCLE('',#759,3.);
#274=CIRCLE('',#760,3.);
#275=CIRCLE('',#762,3.00000000000001);
#276=CIRCLE('',#763,3.00000000000001);
#277=CIRCLE('',#766,3.00000000000001);
#278=CIRCLE('',#767,3.00000000000001);
#279=CIRCLE('',#769,4.);
#280=CIRCLE('',#770,4.);
#281=CIRCLE('',#771,4.);
#282=CIRCLE('',#772,4.);
#283=CIRCLE('',#773,4.);
#284=CIRCLE('',#774,4.);
#285=CIRCLE('',#775,4.);
#286=CIRCLE('',#776,4.);
#287=CIRCLE('',#777,1.6);
#288=CIRCLE('',#778,1.6);
#289=CIRCLE('',#779,1.6);
#290=CIRCLE('',#780,1.6);
#291=CIRCLE('',#790,4.);
#292=CIRCLE('',#791,4.);
#293=CIRCLE('',#792,4.);
#294=CIRCLE('',#793,4.);
#295=CIRCLE('',#794,4.);
#296=CIRCLE('',#795,4.);
#297=CIRCLE('',#796,4.);
#298=CIRCLE('',#797,4.);
#299=CIRCLE('',#798,1.6);
#300=CIRCLE('',#799,1.6);
#301=CIRCLE('',#800,1.6);
#302=CIRCLE('',#801,1.6);
#303=VERTEX_POINT('',#1035);
#304=VERTEX_POINT('',#1036);
#305=VERTEX_POINT('',#1038);
#306=VERTEX_POINT('',#1040);
#307=VERTEX_POINT('',#1044);
#308=VERTEX_POINT('',#1046);
#309=VERTEX_POINT('',#1050);
#310=VERTEX_POINT('',#1052);
#311=VERTEX_POINT('',#1056);
#312=VERTEX_POINT('',#1057);
#313=VERTEX_POINT('',#1059);
#314=VERTEX_POINT('',#1061);
#315=VERTEX_POINT('',#1065);
#316=VERTEX_POINT('',#1067);
#317=VERTEX_POINT('',#1069);
#318=VERTEX_POINT('',#1071);
#319=VERTEX_POINT('',#1073);
#320=VERTEX_POINT('',#1075);
#321=VERTEX_POINT('',#1079);
#322=VERTEX_POINT('',#1081);
#323=VERTEX_POINT('',#1085);
#324=VERTEX_POINT('',#1086);
#325=VERTEX_POINT('',#1089);
#326=VERTEX_POINT('',#1091);
#327=VERTEX_POINT('',#1093);
#328=VERTEX_POINT('',#1095);
#329=VERTEX_POINT('',#1097);
#330=VERTEX_POINT('',#1099);
#331=VERTEX_POINT('',#1101);
#332=VERTEX_POINT('',#1103);
#333=VERTEX_POINT('',#1105);
#334=VERTEX_POINT('',#1107);
#335=VERTEX_POINT('',#1110);
#336=VERTEX_POINT('',#1112);
#337=VERTEX_POINT('',#1114);
#338=VERTEX_POINT('',#1116);
#339=VERTEX_POINT('',#1119);
#340=VERTEX_POINT('',#1121);
#341=VERTEX_POINT('',#1124);
#342=VERTEX_POINT('',#1126);
#343=VERTEX_POINT('',#1128);
#344=VERTEX_POINT('',#1130);
#345=VERTEX_POINT('',#1133);
#346=VERTEX_POINT('',#1135);
#347=VERTEX_POINT('',#1137);
#348=VERTEX_POINT('',#1139);
#349=VERTEX_POINT('',#1143);
#350=VERTEX_POINT('',#1145);
#351=VERTEX_POINT('',#1147);
#352=VERTEX_POINT('',#1149);
#353=VERTEX_POINT('',#1161);
#354=VERTEX_POINT('',#1163);
#355=VERTEX_POINT('',#1167);
#356=VERTEX_POINT('',#1169);
#357=VERTEX_POINT('',#1173);
#358=VERTEX_POINT('',#1174);
#359=VERTEX_POINT('',#1176);
#360=VERTEX_POINT('',#1178);
#361=VERTEX_POINT('',#1180);
#362=VERTEX_POINT('',#1182);
#363=VERTEX_POINT('',#1186);
#364=VERTEX_POINT('',#1188);
#365=VERTEX_POINT('',#1190);
#366=VERTEX_POINT('',#1192);
#367=VERTEX_POINT('',#1195);
#368=VERTEX_POINT('',#1198);
#369=VERTEX_POINT('',#1201);
#370=VERTEX_POINT('',#1203);
#371=VERTEX_POINT('',#1205);
#372=VERTEX_POINT('',#1207);
#373=EDGE_CURVE('',#303,#304,#271,.T.);
#374=EDGE_CURVE('',#304,#305,#125,.T.);
#375=EDGE_CURVE('',#306,#305,#272,.F.);
#376=EDGE_CURVE('',#306,#303,#126,.T.);
#377=EDGE_CURVE('',#306,#307,#127,.T.);
#378=EDGE_CURVE('',#308,#307,#128,.T.);
#379=EDGE_CURVE('',#303,#308,#129,.T.);
#380=EDGE_CURVE('',#309,#307,#273,.F.);
#381=EDGE_CURVE('',#309,#310,#130,.T.);
#382=EDGE_CURVE('',#310,#308,#274,.T.);
#383=EDGE_CURVE('',#311,#312,#275,.F.);
#384=EDGE_CURVE('',#311,#313,#131,.T.);
#385=EDGE_CURVE('',#313,#314,#276,.T.);
#386=EDGE_CURVE('',#314,#312,#132,.T.);
#387=EDGE_CURVE('',#315,#314,#133,.T.);
#388=EDGE_CURVE('',#315,#316,#134,.T.);
#389=EDGE_CURVE('',#316,#317,#135,.T.);
#390=EDGE_CURVE('',#317,#318,#136,.T.);
#391=EDGE_CURVE('',#319,#318,#137,.T.);
#392=EDGE_CURVE('',#320,#319,#138,.T.);
#393=EDGE_CURVE('',#320,#312,#139,.T.);
#394=EDGE_CURVE('',#321,#319,#277,.F.);
#395=EDGE_CURVE('',#321,#322,#140,.T.);
#396=EDGE_CURVE('',#322,#320,#278,.T.);
#397=EDGE_CURVE('',#323,#324,#141,.T.);
#398=EDGE_CURVE('',#324,#321,#279,.T.);
#399=EDGE_CURVE('',#325,#318,#142,.T.);
#400=EDGE_CURVE('',#325,#326,#143,.T.);
#401=EDGE_CURVE('',#326,#327,#280,.T.);
#402=EDGE_CURVE('',#327,#328,#144,.T.);
#403=EDGE_CURVE('',#328,#329,#281,.T.);
#404=EDGE_CURVE('',#329,#330,#145,.T.);
#405=EDGE_CURVE('',#330,#331,#282,.T.);
#406=EDGE_CURVE('',#331,#332,#146,.T.);
#407=EDGE_CURVE('',#332,#333,#283,.T.);
#408=EDGE_CURVE('',#333,#334,#147,.T.);
#409=EDGE_CURVE('',#315,#334,#148,.T.);
#410=EDGE_CURVE('',#313,#335,#284,.T.);
#411=EDGE_CURVE('',#335,#336,#149,.T.);
#412=EDGE_CURVE('',#336,#337,#150,.T.);
#413=EDGE_CURVE('',#337,#338,#151,.T.);
#414=EDGE_CURVE('',#338,#304,#285,.T.);
#415=EDGE_CURVE('',#310,#339,#286,.T.);
#416=EDGE_CURVE('',#339,#340,#152,.T.);
#417=EDGE_CURVE('',#340,#323,#153,.T.);
#418=EDGE_CURVE('',#341,#341,#287,.T.);
#419=EDGE_CURVE('',#342,#342,#288,.T.);
#420=EDGE_CURVE('',#343,#343,#289,.T.);
#421=EDGE_CURVE('',#344,#344,#290,.T.);
#422=EDGE_CURVE('',#334,#345,#154,.T.);
#423=EDGE_CURVE('',#346,#345,#155,.T.);
#424=EDGE_CURVE('',#346,#347,#156,.T.);
#425=EDGE_CURVE('',#348,#347,#157,.T.);
#426=EDGE_CURVE('',#316,#348,#158,.T.);
#427=EDGE_CURVE('',#349,#317,#159,.T.);
#428=EDGE_CURVE('',#350,#349,#160,.T.);
#429=EDGE_CURVE('',#351,#350,#161,.T.);
#430=EDGE_CURVE('',#352,#351,#162,.T.);
#431=EDGE_CURVE('',#325,#352,#163,.T.);
#432=EDGE_CURVE('',#348,#349,#164,.T.);
#433=EDGE_CURVE('',#347,#350,#165,.T.);
#434=EDGE_CURVE('',#351,#346,#166,.T.);
#435=EDGE_CURVE('',#345,#352,#167,.T.);
#436=EDGE_CURVE('',#353,#333,#168,.T.);
#437=EDGE_CURVE('',#354,#353,#169,.T.);
#438=EDGE_CURVE('',#354,#326,#170,.T.);
#439=EDGE_CURVE('',#355,#340,#171,.T.);
#440=EDGE_CURVE('',#356,#355,#172,.T.);
#441=EDGE_CURVE('',#323,#356,#173,.T.);
#442=EDGE_CURVE('',#357,#358,#174,.T.);
#443=EDGE_CURVE('',#359,#358,#291,.T.);
#444=EDGE_CURVE('',#359,#360,#175,.T.);
#445=EDGE_CURVE('',#361,#360,#292,.T.);
#446=EDGE_CURVE('',#361,#362,#176,.T.);
#447=EDGE_CURVE('',#354,#362,#293,.T.);
#448=EDGE_CURVE('',#357,#353,#294,.T.);
#449=EDGE_CURVE('',#363,#305,#295,.T.);
#450=EDGE_CURVE('',#363,#364,#177,.F.);
#451=EDGE_CURVE('',#364,#365,#178,.T.);
#452=EDGE_CURVE('',#365,#366,#179,.T.);
#453=EDGE_CURVE('',#366,#311,#296,.T.);
#454=EDGE_CURVE('',#322,#367,#297,.T.);
#455=EDGE_CURVE('',#367,#356,#180,.T.);
#456=EDGE_CURVE('',#355,#368,#181,.T.);
#457=EDGE_CURVE('',#309,#368,#298,.T.);
#458=EDGE_CURVE('',#369,#369,#299,.T.);
#459=EDGE_CURVE('',#370,#370,#300,.T.);
#460=EDGE_CURVE('',#371,#371,#301,.T.);
#461=EDGE_CURVE('',#372,#372,#302,.T.);
#462=EDGE_CURVE('',#365,#336,#182,.T.);
#463=EDGE_CURVE('',#337,#364,#183,.F.);
#464=EDGE_CURVE('',#362,#327,#184,.T.);
#465=EDGE_CURVE('',#361,#328,#185,.T.);
#466=EDGE_CURVE('',#360,#329,#186,.T.);
#467=EDGE_CURVE('',#359,#330,#187,.T.);
#468=EDGE_CURVE('',#358,#331,#188,.T.);
#469=EDGE_CURVE('',#368,#339,#189,.T.);
#470=EDGE_CURVE('',#363,#338,#190,.T.);
#471=EDGE_CURVE('',#344,#369,#191,.T.);
#472=EDGE_CURVE('',#343,#370,#192,.T.);
#473=EDGE_CURVE('',#342,#372,#193,.T.);
#474=EDGE_CURVE('',#341,#371,#194,.T.);
#475=EDGE_CURVE('',#367,#324,#195,.T.);
#476=EDGE_CURVE('',#366,#335,#196,.T.);
#477=EDGE_CURVE('',#357,#332,#197,.T.);
#478=ORIENTED_EDGE('',*,*,#373,.T.);
#479=ORIENTED_EDGE('',*,*,#374,.T.);
#480=ORIENTED_EDGE('',*,*,#375,.F.);
#481=ORIENTED_EDGE('',*,*,#376,.T.);
#482=ORIENTED_EDGE('',*,*,#376,.F.);
#483=ORIENTED_EDGE('',*,*,#377,.T.);
#484=ORIENTED_EDGE('',*,*,#378,.F.);
#485=ORIENTED_EDGE('',*,*,#379,.F.);
#486=ORIENTED_EDGE('',*,*,#380,.F.);
#487=ORIENTED_EDGE('',*,*,#381,.T.);
#488=ORIENTED_EDGE('',*,*,#382,.T.);
#489=ORIENTED_EDGE('',*,*,#378,.T.);
#490=ORIENTED_EDGE('',*,*,#383,.F.);
#491=ORIENTED_EDGE('',*,*,#384,.T.);
#492=ORIENTED_EDGE('',*,*,#385,.T.);
#493=ORIENTED_EDGE('',*,*,#386,.T.);
#494=ORIENTED_EDGE('',*,*,#386,.F.);
#495=ORIENTED_EDGE('',*,*,#387,.F.);
#496=ORIENTED_EDGE('',*,*,#388,.T.);
#497=ORIENTED_EDGE('',*,*,#389,.T.);
#498=ORIENTED_EDGE('',*,*,#390,.T.);
#499=ORIENTED_EDGE('',*,*,#391,.F.);
#500=ORIENTED_EDGE('',*,*,#392,.F.);
#501=ORIENTED_EDGE('',*,*,#393,.T.);
#502=ORIENTED_EDGE('',*,*,#394,.F.);
#503=ORIENTED_EDGE('',*,*,#395,.T.);
#504=ORIENTED_EDGE('',*,*,#396,.T.);
#505=ORIENTED_EDGE('',*,*,#392,.T.);
#506=ORIENTED_EDGE('',*,*,#397,.T.);
#507=ORIENTED_EDGE('',*,*,#398,.T.);
#508=ORIENTED_EDGE('',*,*,#394,.T.);
#509=ORIENTED_EDGE('',*,*,#391,.T.);
#510=ORIENTED_EDGE('',*,*,#399,.F.);
#511=ORIENTED_EDGE('',*,*,#400,.T.);
#512=ORIENTED_EDGE('',*,*,#401,.T.);
#513=ORIENTED_EDGE('',*,*,#402,.T.);
#514=ORIENTED_EDGE('',*,*,#403,.T.);
#515=ORIENTED_EDGE('',*,*,#404,.T.);
#516=ORIENTED_EDGE('',*,*,#405,.T.);
#517=ORIENTED_EDGE('',*,*,#406,.T.);
#518=ORIENTED_EDGE('',*,*,#407,.T.);
#519=ORIENTED_EDGE('',*,*,#408,.T.);
#520=ORIENTED_EDGE('',*,*,#409,.F.);
#521=ORIENTED_EDGE('',*,*,#387,.T.);
#522=ORIENTED_EDGE('',*,*,#385,.F.);
#523=ORIENTED_EDGE('',*,*,#410,.T.);
#524=ORIENTED_EDGE('',*,*,#411,.T.);
#525=ORIENTED_EDGE('',*,*,#412,.T.);
#526=ORIENTED_EDGE('',*,*,#413,.T.);
#527=ORIENTED_EDGE('',*,*,#414,.T.);
#528=ORIENTED_EDGE('',*,*,#373,.F.);
#529=ORIENTED_EDGE('',*,*,#379,.T.);
#530=ORIENTED_EDGE('',*,*,#382,.F.);
#531=ORIENTED_EDGE('',*,*,#415,.T.);
#532=ORIENTED_EDGE('',*,*,#416,.T.);
#533=ORIENTED_EDGE('',*,*,#417,.T.);
#534=ORIENTED_EDGE('',*,*,#418,.T.);
#535=ORIENTED_EDGE('',*,*,#419,.T.);
#536=ORIENTED_EDGE('',*,*,#420,.T.);
#537=ORIENTED_EDGE('',*,*,#421,.T.);
#538=ORIENTED_EDGE('',*,*,#409,.T.);
#539=ORIENTED_EDGE('',*,*,#422,.T.);
#540=ORIENTED_EDGE('',*,*,#423,.F.);
#541=ORIENTED_EDGE('',*,*,#424,.T.);
#542=ORIENTED_EDGE('',*,*,#425,.F.);
#543=ORIENTED_EDGE('',*,*,#426,.F.);
#544=ORIENTED_EDGE('',*,*,#388,.F.);
#545=ORIENTED_EDGE('',*,*,#399,.T.);
#546=ORIENTED_EDGE('',*,*,#390,.F.);
#547=ORIENTED_EDGE('',*,*,#427,.F.);
#548=ORIENTED_EDGE('',*,*,#428,.F.);
#549=ORIENTED_EDGE('',*,*,#429,.F.);
#550=ORIENTED_EDGE('',*,*,#430,.F.);
#551=ORIENTED_EDGE('',*,*,#431,.F.);
#552=ORIENTED_EDGE('',*,*,#426,.T.);
#553=ORIENTED_EDGE('',*,*,#432,.T.);
#554=ORIENTED_EDGE('',*,*,#427,.T.);
#555=ORIENTED_EDGE('',*,*,#389,.F.);
#556=ORIENTED_EDGE('',*,*,#432,.F.);
#557=ORIENTED_EDGE('',*,*,#425,.T.);
#558=ORIENTED_EDGE('',*,*,#433,.T.);
#559=ORIENTED_EDGE('',*,*,#428,.T.);
#560=ORIENTED_EDGE('',*,*,#430,.T.);
#561=ORIENTED_EDGE('',*,*,#434,.T.);
#562=ORIENTED_EDGE('',*,*,#423,.T.);
#563=ORIENTED_EDGE('',*,*,#435,.T.);
#564=ORIENTED_EDGE('',*,*,#434,.F.);
#565=ORIENTED_EDGE('',*,*,#429,.T.);
#566=ORIENTED_EDGE('',*,*,#433,.F.);
#567=ORIENTED_EDGE('',*,*,#424,.F.);
#568=ORIENTED_EDGE('',*,*,#435,.F.);
#569=ORIENTED_EDGE('',*,*,#422,.F.);
#570=ORIENTED_EDGE('',*,*,#408,.F.);
#571=ORIENTED_EDGE('',*,*,#436,.F.);
#572=ORIENTED_EDGE('',*,*,#437,.F.);
#573=ORIENTED_EDGE('',*,*,#438,.T.);
#574=ORIENTED_EDGE('',*,*,#400,.F.);
#575=ORIENTED_EDGE('',*,*,#431,.T.);
#576=ORIENTED_EDGE('',*,*,#439,.F.);
#577=ORIENTED_EDGE('',*,*,#440,.F.);
#578=ORIENTED_EDGE('',*,*,#441,.F.);
#579=ORIENTED_EDGE('',*,*,#417,.F.);
#580=ORIENTED_EDGE('',*,*,#442,.T.);
#581=ORIENTED_EDGE('',*,*,#443,.F.);
#582=ORIENTED_EDGE('',*,*,#444,.T.);
#583=ORIENTED_EDGE('',*,*,#445,.F.);
#584=ORIENTED_EDGE('',*,*,#446,.T.);
#585=ORIENTED_EDGE('',*,*,#447,.F.);
#586=ORIENTED_EDGE('',*,*,#437,.T.);
#587=ORIENTED_EDGE('',*,*,#448,.F.);
#588=ORIENTED_EDGE('',*,*,#449,.F.);
#589=ORIENTED_EDGE('',*,*,#450,.T.);
#590=ORIENTED_EDGE('',*,*,#451,.T.);
#591=ORIENTED_EDGE('',*,*,#452,.T.);
#592=ORIENTED_EDGE('',*,*,#453,.T.);
#593=ORIENTED_EDGE('',*,*,#383,.T.);
#594=ORIENTED_EDGE('',*,*,#393,.F.);
#595=ORIENTED_EDGE('',*,*,#396,.F.);
#596=ORIENTED_EDGE('',*,*,#454,.T.);
#597=ORIENTED_EDGE('',*,*,#455,.T.);
#598=ORIENTED_EDGE('',*,*,#440,.T.);
#599=ORIENTED_EDGE('',*,*,#456,.T.);
#600=ORIENTED_EDGE('',*,*,#457,.F.);
#601=ORIENTED_EDGE('',*,*,#380,.T.);
#602=ORIENTED_EDGE('',*,*,#377,.F.);
#603=ORIENTED_EDGE('',*,*,#375,.T.);
#604=ORIENTED_EDGE('',*,*,#458,.F.);
#605=ORIENTED_EDGE('',*,*,#459,.F.);
#606=ORIENTED_EDGE('',*,*,#460,.F.);
#607=ORIENTED_EDGE('',*,*,#461,.F.);
#608=ORIENTED_EDGE('',*,*,#462,.F.);
#609=ORIENTED_EDGE('',*,*,#451,.F.);
#610=ORIENTED_EDGE('',*,*,#463,.F.);
#611=ORIENTED_EDGE('',*,*,#412,.F.);
#612=ORIENTED_EDGE('',*,*,#464,.F.);
#613=ORIENTED_EDGE('',*,*,#446,.F.);
#614=ORIENTED_EDGE('',*,*,#465,.T.);
#615=ORIENTED_EDGE('',*,*,#402,.F.);
#616=ORIENTED_EDGE('',*,*,#465,.F.);
#617=ORIENTED_EDGE('',*,*,#445,.T.);
#618=ORIENTED_EDGE('',*,*,#466,.T.);
#619=ORIENTED_EDGE('',*,*,#403,.F.);
#620=ORIENTED_EDGE('',*,*,#466,.F.);
#621=ORIENTED_EDGE('',*,*,#444,.F.);
#622=ORIENTED_EDGE('',*,*,#467,.T.);
#623=ORIENTED_EDGE('',*,*,#404,.F.);
#624=ORIENTED_EDGE('',*,*,#467,.F.);
#625=ORIENTED_EDGE('',*,*,#443,.T.);
#626=ORIENTED_EDGE('',*,*,#468,.T.);
#627=ORIENTED_EDGE('',*,*,#405,.F.);
#628=ORIENTED_EDGE('',*,*,#469,.F.);
#629=ORIENTED_EDGE('',*,*,#456,.F.);
#630=ORIENTED_EDGE('',*,*,#439,.T.);
#631=ORIENTED_EDGE('',*,*,#416,.F.);
#632=ORIENTED_EDGE('',*,*,#381,.F.);
#633=ORIENTED_EDGE('',*,*,#457,.T.);
#634=ORIENTED_EDGE('',*,*,#469,.T.);
#635=ORIENTED_EDGE('',*,*,#415,.F.);
#636=ORIENTED_EDGE('',*,*,#374,.F.);
#637=ORIENTED_EDGE('',*,*,#414,.F.);
#638=ORIENTED_EDGE('',*,*,#470,.F.);
#639=ORIENTED_EDGE('',*,*,#449,.T.);
#640=ORIENTED_EDGE('',*,*,#463,.T.);
#641=ORIENTED_EDGE('',*,*,#450,.F.);
#642=ORIENTED_EDGE('',*,*,#470,.T.);
#643=ORIENTED_EDGE('',*,*,#413,.F.);
#644=ORIENTED_EDGE('',*,*,#421,.F.);
#645=ORIENTED_EDGE('',*,*,#471,.T.);
#646=ORIENTED_EDGE('',*,*,#458,.T.);
#647=ORIENTED_EDGE('',*,*,#471,.F.);
#648=ORIENTED_EDGE('',*,*,#420,.F.);
#649=ORIENTED_EDGE('',*,*,#472,.T.);
#650=ORIENTED_EDGE('',*,*,#459,.T.);
#651=ORIENTED_EDGE('',*,*,#472,.F.);
#652=ORIENTED_EDGE('',*,*,#419,.F.);
#653=ORIENTED_EDGE('',*,*,#473,.T.);
#654=ORIENTED_EDGE('',*,*,#461,.T.);
#655=ORIENTED_EDGE('',*,*,#473,.F.);
#656=ORIENTED_EDGE('',*,*,#418,.F.);
#657=ORIENTED_EDGE('',*,*,#474,.T.);
#658=ORIENTED_EDGE('',*,*,#460,.T.);
#659=ORIENTED_EDGE('',*,*,#474,.F.);
#660=ORIENTED_EDGE('',*,*,#441,.T.);
#661=ORIENTED_EDGE('',*,*,#455,.F.);
#662=ORIENTED_EDGE('',*,*,#475,.T.);
#663=ORIENTED_EDGE('',*,*,#397,.F.);
#664=ORIENTED_EDGE('',*,*,#395,.F.);
#665=ORIENTED_EDGE('',*,*,#398,.F.);
#666=ORIENTED_EDGE('',*,*,#475,.F.);
#667=ORIENTED_EDGE('',*,*,#454,.F.);
#668=ORIENTED_EDGE('',*,*,#384,.F.);
#669=ORIENTED_EDGE('',*,*,#453,.F.);
#670=ORIENTED_EDGE('',*,*,#476,.T.);
#671=ORIENTED_EDGE('',*,*,#410,.F.);
#672=ORIENTED_EDGE('',*,*,#476,.F.);
#673=ORIENTED_EDGE('',*,*,#452,.F.);
#674=ORIENTED_EDGE('',*,*,#462,.T.);
#675=ORIENTED_EDGE('',*,*,#411,.F.);
#676=ORIENTED_EDGE('',*,*,#468,.F.);
#677=ORIENTED_EDGE('',*,*,#442,.F.);
#678=ORIENTED_EDGE('',*,*,#477,.T.);
#679=ORIENTED_EDGE('',*,*,#406,.F.);
#680=ORIENTED_EDGE('',*,*,#477,.F.);
#681=ORIENTED_EDGE('',*,*,#448,.T.);
#682=ORIENTED_EDGE('',*,*,#436,.T.);
#683=ORIENTED_EDGE('',*,*,#407,.F.);
#684=ORIENTED_EDGE('',*,*,#438,.F.);
#685=ORIENTED_EDGE('',*,*,#447,.T.);
#686=ORIENTED_EDGE('',*,*,#464,.T.);
#687=ORIENTED_EDGE('',*,*,#401,.F.);
#688=CYLINDRICAL_SURFACE('',#754,3.);
#689=CYLINDRICAL_SURFACE('',#758,3.);
#690=CYLINDRICAL_SURFACE('',#761,3.00000000000001);
#691=CYLINDRICAL_SURFACE('',#765,3.00000000000001);
#692=CYLINDRICAL_SURFACE('',#804,4.);
#693=CYLINDRICAL_SURFACE('',#806,4.);
#694=CYLINDRICAL_SURFACE('',#808,4.);
#695=CYLINDRICAL_SURFACE('',#809,4.);
#696=CYLINDRICAL_SURFACE('',#811,1.6);
#697=CYLINDRICAL_SURFACE('',#812,1.6);
#698=CYLINDRICAL_SURFACE('',#813,1.6);
#699=CYLINDRICAL_SURFACE('',#814,1.6);
#700=CYLINDRICAL_SURFACE('',#816,4.);
#701=CYLINDRICAL_SURFACE('',#817,4.);
#702=CYLINDRICAL_SURFACE('',#820,4.);
#703=CYLINDRICAL_SURFACE('',#821,4.);
#704=ADVANCED_FACE('',(#44),#688,.F.);
#705=ADVANCED_FACE('',(#45),#24,.F.);
#706=ADVANCED_FACE('',(#46),#689,.F.);
#707=ADVANCED_FACE('',(#47),#690,.F.);
#708=ADVANCED_FACE('',(#48),#25,.F.);
#709=ADVANCED_FACE('',(#49),#691,.F.);
#710=ADVANCED_FACE('',(#50,#15,#16,#17,#18),#26,.T.);
#711=ADVANCED_FACE('',(#51),#27,.T.);
#712=ADVANCED_FACE('',(#52),#28,.T.);
#713=ADVANCED_FACE('',(#53),#29,.T.);
#714=ADVANCED_FACE('',(#54),#30,.T.);
#715=ADVANCED_FACE('',(#55),#31,.T.);
#716=ADVANCED_FACE('',(#56),#32,.T.);
#717=ADVANCED_FACE('',(#57),#33,.T.);
#718=ADVANCED_FACE('',(#58),#34,.F.);
#719=ADVANCED_FACE('',(#59,#19,#20,#21,#22,#23),#35,.F.);
#720=ADVANCED_FACE('',(#60),#36,.F.);
#721=ADVANCED_FACE('',(#61),#37,.T.);
#722=ADVANCED_FACE('',(#62),#692,.T.);
#723=ADVANCED_FACE('',(#63),#38,.T.);
#724=ADVANCED_FACE('',(#64),#693,.T.);
#725=ADVANCED_FACE('',(#65),#39,.T.);
#726=ADVANCED_FACE('',(#66),#694,.T.);
#727=ADVANCED_FACE('',(#67),#695,.T.);
#728=ADVANCED_FACE('',(#68),#40,.F.);
#729=ADVANCED_FACE('',(#69),#696,.F.);
#730=ADVANCED_FACE('',(#70),#697,.F.);
#731=ADVANCED_FACE('',(#71),#698,.F.);
#732=ADVANCED_FACE('',(#72),#699,.F.);
#733=ADVANCED_FACE('',(#73),#41,.T.);
#734=ADVANCED_FACE('',(#74),#700,.T.);
#735=ADVANCED_FACE('',(#75),#701,.T.);
#736=ADVANCED_FACE('',(#76),#42,.T.);
#737=ADVANCED_FACE('',(#77),#43,.T.);
#738=ADVANCED_FACE('',(#78),#702,.T.);
#739=ADVANCED_FACE('',(#79),#703,.T.);
#740=CLOSED_SHELL('',(#704,#705,#706,#707,#708,#709,#710,#711,#712,#713,
#714,#715,#716,#717,#718,#719,#720,#721,#722,#723,#724,#725,#726,#727,#728,
#729,#730,#731,#732,#733,#734,#735,#736,#737,#738,#739));
#741=DERIVED_UNIT_ELEMENT(#743,1.);
#742=DERIVED_UNIT_ELEMENT(#1250,-3.);
#743=(
MASS_UNIT()
NAMED_UNIT(*)
SI_UNIT(.KILO.,.GRAM.)
);
#744=DERIVED_UNIT((#741,#742));
#745=MEASURE_REPRESENTATION_ITEM('density measure',
POSITIVE_RATIO_MEASURE(7850.),#744);
#746=PROPERTY_DEFINITION_REPRESENTATION(#751,#748);
#747=PROPERTY_DEFINITION_REPRESENTATION(#752,#749);
#748=REPRESENTATION('material name',(#750),#1247);
#749=REPRESENTATION('density',(#745),#1247);
#750=DESCRIPTIVE_REPRESENTATION_ITEM('Stahl','Stahl');
#751=PROPERTY_DEFINITION('material property','material name',#1257);
#752=PROPERTY_DEFINITION('material property','density of part',#1257);
#753=AXIS2_PLACEMENT_3D('',#1033,#822,#823);
#754=AXIS2_PLACEMENT_3D('',#1034,#824,#825);
#755=AXIS2_PLACEMENT_3D('',#1037,#826,#827);
#756=AXIS2_PLACEMENT_3D('',#1041,#829,#830);
#757=AXIS2_PLACEMENT_3D('',#1043,#832,#833);
#758=AXIS2_PLACEMENT_3D('',#1049,#837,#838);
#759=AXIS2_PLACEMENT_3D('',#1051,#839,#840);
#760=AXIS2_PLACEMENT_3D('',#1054,#842,#843);
#761=AXIS2_PLACEMENT_3D('',#1055,#844,#845);
#762=AXIS2_PLACEMENT_3D('',#1058,#846,#847);
#763=AXIS2_PLACEMENT_3D('',#1062,#849,#850);
#764=AXIS2_PLACEMENT_3D('',#1064,#852,#853);
#765=AXIS2_PLACEMENT_3D('',#1078,#861,#862);
#766=AXIS2_PLACEMENT_3D('',#1080,#863,#864);
#767=AXIS2_PLACEMENT_3D('',#1083,#866,#867);
#768=AXIS2_PLACEMENT_3D('',#1084,#868,#869);
#769=AXIS2_PLACEMENT_3D('',#1088,#871,#872);
#770=AXIS2_PLACEMENT_3D('',#1094,#875,#876);
#771=AXIS2_PLACEMENT_3D('',#1098,#878,#879);
#772=AXIS2_PLACEMENT_3D('',#1102,#881,#882);
#773=AXIS2_PLACEMENT_3D('',#1106,#884,#885);
#774=AXIS2_PLACEMENT_3D('',#1111,#888,#889);
#775=AXIS2_PLACEMENT_3D('',#1118,#893,#894);
#776=AXIS2_PLACEMENT_3D('',#1120,#895,#896);
#777=AXIS2_PLACEMENT_3D('',#1125,#899,#900);
#778=AXIS2_PLACEMENT_3D('',#1127,#901,#902);
#779=AXIS2_PLACEMENT_3D('',#1129,#903,#904);
#780=AXIS2_PLACEMENT_3D('',#1131,#905,#906);
#781=AXIS2_PLACEMENT_3D('',#1132,#907,#908);
#782=AXIS2_PLACEMENT_3D('',#1142,#914,#915);
#783=AXIS2_PLACEMENT_3D('',#1152,#921,#922);
#784=AXIS2_PLACEMENT_3D('',#1154,#924,#925);
#785=AXIS2_PLACEMENT_3D('',#1156,#927,#928);
#786=AXIS2_PLACEMENT_3D('',#1159,#931,#932);
#787=AXIS2_PLACEMENT_3D('',#1160,#933,#934);
#788=AXIS2_PLACEMENT_3D('',#1166,#938,#939);
#789=AXIS2_PLACEMENT_3D('',#1172,#943,#944);
#790=AXIS2_PLACEMENT_3D('',#1177,#946,#947);
#791=AXIS2_PLACEMENT_3D('',#1181,#949,#950);
#792=AXIS2_PLACEMENT_3D('',#1184,#952,#953);
#793=AXIS2_PLACEMENT_3D('',#1185,#954,#955);
#794=AXIS2_PLACEMENT_3D('',#1187,#956,#957);
#795=AXIS2_PLACEMENT_3D('',#1194,#961,#962);
#796=AXIS2_PLACEMENT_3D('',#1196,#963,#964);
#797=AXIS2_PLACEMENT_3D('',#1200,#967,#968);
#798=AXIS2_PLACEMENT_3D('',#1202,#969,#970);
#799=AXIS2_PLACEMENT_3D('',#1204,#971,#972);
#800=AXIS2_PLACEMENT_3D('',#1206,#973,#974);
#801=AXIS2_PLACEMENT_3D('',#1208,#975,#976);
#802=AXIS2_PLACEMENT_3D('',#1209,#977,#978);
#803=AXIS2_PLACEMENT_3D('',#1212,#981,#982);
#804=AXIS2_PLACEMENT_3D('',#1215,#985,#986);
#805=AXIS2_PLACEMENT_3D('',#1217,#988,#989);
#806=AXIS2_PLACEMENT_3D('',#1219,#991,#992);
#807=AXIS2_PLACEMENT_3D('',#1221,#994,#995);
#808=AXIS2_PLACEMENT_3D('',#1223,#997,#998);
#809=AXIS2_PLACEMENT_3D('',#1224,#999,#1000);
#810=AXIS2_PLACEMENT_3D('',#1226,#1002,#1003);
#811=AXIS2_PLACEMENT_3D('',#1227,#1004,#1005);
#812=AXIS2_PLACEMENT_3D('',#1229,#1007,#1008);
#813=AXIS2_PLACEMENT_3D('',#1231,#1010,#1011);
#814=AXIS2_PLACEMENT_3D('',#1233,#1013,#1014);
#815=AXIS2_PLACEMENT_3D('',#1235,#1016,#1017);
#816=AXIS2_PLACEMENT_3D('',#1237,#1019,#1020);
#817=AXIS2_PLACEMENT_3D('',#1238,#1021,#1022);
#818=AXIS2_PLACEMENT_3D('',#1240,#1024,#1025);
#819=AXIS2_PLACEMENT_3D('',#1241,#1026,#1027);
#820=AXIS2_PLACEMENT_3D('',#1243,#1029,#1030);
#821=AXIS2_PLACEMENT_3D('',#1244,#1031,#1032);
#822=DIRECTION('axis',(0.,0.,1.));
#823=DIRECTION('refdir',(1.,0.,0.));
#824=DIRECTION('center_axis',(0.,0.,1.));
#825=DIRECTION('ref_axis',(1.,0.,0.));
#826=DIRECTION('center_axis',(0.,0.,1.));
#827=DIRECTION('ref_axis',(1.,0.,0.));
#828=DIRECTION('',(0.,0.,-1.));
#829=DIRECTION('center_axis',(0.,0.,-1.));
#830=DIRECTION('ref_axis',(1.,0.,0.));
#831=DIRECTION('',(0.,0.,1.));
#832=DIRECTION('center_axis',(-1.,0.,0.));
#833=DIRECTION('ref_axis',(0.,-1.,0.));
#834=DIRECTION('',(0.,1.,0.));
#835=DIRECTION('',(0.,0.,-1.));
#836=DIRECTION('',(0.,1.,0.));
#837=DIRECTION('center_axis',(0.,0.,-1.));
#838=DIRECTION('ref_axis',(1.,0.,0.));
#839=DIRECTION('center_axis',(0.,0.,-1.));
#840=DIRECTION('ref_axis',(1.,0.,0.));
#841=DIRECTION('',(0.,0.,1.));
#842=DIRECTION('center_axis',(0.,0.,1.));
#843=DIRECTION('ref_axis',(1.,0.,0.));
#844=DIRECTION('center_axis',(0.,0.,-1.));
#845=DIRECTION('ref_axis',(-1.,0.,0.));
#846=DIRECTION('center_axis',(0.,0.,-1.));
#847=DIRECTION('ref_axis',(-1.,0.,0.));
#848=DIRECTION('',(0.,0.,1.));
#849=DIRECTION('center_axis',(0.,0.,1.));
#850=DIRECTION('ref_axis',(-1.,0.,0.));
#851=DIRECTION('',(0.,0.,-1.));
#852=DIRECTION('center_axis',(1.,0.,0.));
#853=DIRECTION('ref_axis',(0.,1.,0.));
#854=DIRECTION('',(0.,-1.,0.));
#855=DIRECTION('',(0.,0.,1.));
#856=DIRECTION('',(0.,1.,0.));
#857=DIRECTION('',(0.,0.,-1.));
#858=DIRECTION('',(0.,-1.,0.));
#859=DIRECTION('',(0.,0.,1.));
#860=DIRECTION('',(0.,-1.,0.));
#861=DIRECTION('center_axis',(0.,0.,1.));
#862=DIRECTION('ref_axis',(-1.,0.,0.));
#863=DIRECTION('center_axis',(0.,0.,1.));
#864=DIRECTION('ref_axis',(-1.,0.,0.));
#865=DIRECTION('',(0.,0.,-1.));
#866=DIRECTION('center_axis',(0.,0.,-1.));
#867=DIRECTION('ref_axis',(-1.,0.,0.));
#868=DIRECTION('center_axis',(0.,0.,1.));
#869=DIRECTION('ref_axis',(1.,0.,0.));
#870=DIRECTION('',(0.,-1.,0.));
#871=DIRECTION('center_axis',(0.,0.,1.));
#872=DIRECTION('ref_axis',(1.,0.,0.));
#873=DIRECTION('',(-1.,0.,0.));
#874=DIRECTION('',(0.,1.,0.));
#875=DIRECTION('center_axis',(0.,0.,1.));
#876=DIRECTION('ref_axis',(0.707106781186547,0.707106781186548,0.));
#877=DIRECTION('',(-1.,0.,0.));
#878=DIRECTION('center_axis',(0.,0.,1.));
#879=DIRECTION('ref_axis',(-0.707106781186548,0.707106781186548,0.));
#880=DIRECTION('',(0.,-1.,0.));
#881=DIRECTION('center_axis',(0.,0.,1.));
#882=DIRECTION('ref_axis',(-0.707106781186546,-0.707106781186549,0.));
#883=DIRECTION('',(1.,0.,0.));
#884=DIRECTION('center_axis',(0.,0.,1.));
#885=DIRECTION('ref_axis',(0.707106781186551,-0.707106781186544,0.));
#886=DIRECTION('',(0.,1.,0.));
#887=DIRECTION('',(1.,0.,0.));
#888=DIRECTION('center_axis',(0.,0.,1.));
#889=DIRECTION('ref_axis',(1.,0.,0.));
#890=DIRECTION('',(0.,-1.,0.));
#891=DIRECTION('',(-1.,0.,0.));
#892=DIRECTION('',(0.,1.,0.));
#893=DIRECTION('center_axis',(0.,0.,1.));
#894=DIRECTION('ref_axis',(0.707106781186546,0.707106781186549,0.));
#895=DIRECTION('center_axis',(0.,0.,1.));
#896=DIRECTION('ref_axis',(0.707106781186548,-0.707106781186548,0.));
#897=DIRECTION('',(0.,1.,0.));
#898=DIRECTION('',(1.,0.,0.));
#899=DIRECTION('center_axis',(0.,0.,-1.));
#900=DIRECTION('ref_axis',(-1.,0.,0.));
#901=DIRECTION('center_axis',(0.,0.,-1.));
#902=DIRECTION('ref_axis',(-1.,0.,0.));
#903=DIRECTION('center_axis',(0.,0.,-1.));
#904=DIRECTION('ref_axis',(-1.,0.,0.));
#905=DIRECTION('center_axis',(0.,0.,-1.));
#906=DIRECTION('ref_axis',(-1.,0.,0.));
#907=DIRECTION('center_axis',(0.,-1.,0.));
#908=DIRECTION('ref_axis',(0.,0.,1.));
#909=DIRECTION('',(0.,0.,1.));
#910=DIRECTION('',(0.707106781186552,0.,-0.707106781186543));
#911=DIRECTION('',(-1.,0.,0.));
#912=DIRECTION('',(0.,0.,1.));
#913=DIRECTION('',(0.707106781186561,0.,0.707106781186534));
#914=DIRECTION('center_axis',(0.,1.,0.));
#915=DIRECTION('ref_axis',(0.,0.,-1.));
#916=DIRECTION('',(-0.707106781186561,0.,-0.707106781186534));
#917=DIRECTION('',(0.,0.,-1.));
#918=DIRECTION('',(-1.,0.,0.));
#919=DIRECTION('',(-0.707106781186552,0.,0.707106781186543));
#920=DIRECTION('',(0.,0.,1.));
#921=DIRECTION('center_axis',(-0.707106781186534,0.,0.707106781186561));
#922=DIRECTION('ref_axis',(0.707106781186561,0.,0.707106781186534));
#923=DIRECTION('',(0.,1.,0.));
#924=DIRECTION('center_axis',(-1.,0.,0.));
#925=DIRECTION('ref_axis',(0.,0.,1.));
#926=DIRECTION('',(0.,1.,0.));
#927=DIRECTION('center_axis',(0.707106781186543,0.,0.707106781186552));
#928=DIRECTION('ref_axis',(0.707106781186552,0.,-0.707106781186543));
#929=DIRECTION('',(0.,-1.,0.));
#930=DIRECTION('',(0.,1.,0.));
#931=DIRECTION('center_axis',(0.,0.,1.));
#932=DIRECTION('ref_axis',(1.,0.,0.));
#933=DIRECTION('center_axis',(1.,0.,0.));
#934=DIRECTION('ref_axis',(0.,1.,0.));
#935=DIRECTION('',(0.,0.,1.));
#936=DIRECTION('',(0.,-1.,0.));
#937=DIRECTION('',(0.,0.,1.));
#938=DIRECTION('center_axis',(0.,1.,0.));
#939=DIRECTION('ref_axis',(0.,0.,1.));
#940=DIRECTION('',(0.,0.,1.));
#941=DIRECTION('',(-1.,0.,0.));
#942=DIRECTION('',(0.,0.,-1.));
#943=DIRECTION('center_axis',(0.,0.,1.));
#944=DIRECTION('ref_axis',(-1.,0.,0.));
#945=DIRECTION('',(-1.,0.,0.));
#946=DIRECTION('center_axis',(0.,0.,1.));
#947=DIRECTION('ref_axis',(-0.707106781186546,-0.707106781186549,0.));
#948=DIRECTION('',(0.,1.,0.));
#949=DIRECTION('center_axis',(0.,0.,1.));
#950=DIRECTION('ref_axis',(-0.707106781186548,0.707106781186548,0.));
#951=DIRECTION('',(1.,0.,0.));
#952=DIRECTION('center_axis',(0.,0.,1.));
#953=DIRECTION('ref_axis',(0.707106781186547,0.707106781186548,0.));
#954=DIRECTION('center_axis',(0.,0.,1.));
#955=DIRECTION('ref_axis',(0.707106781186551,-0.707106781186544,0.));
#956=DIRECTION('center_axis',(0.,0.,1.));
#957=DIRECTION('ref_axis',(0.707106781186546,0.707106781186549,0.));
#958=DIRECTION('',(0.,1.,0.));
#959=DIRECTION('',(1.,0.,0.));
#960=DIRECTION('',(0.,1.,0.));
#961=DIRECTION('center_axis',(0.,0.,-1.));
#962=DIRECTION('ref_axis',(1.,0.,0.));
#963=DIRECTION('center_axis',(0.,0.,-1.));
#964=DIRECTION('ref_axis',(1.,0.,0.));
#965=DIRECTION('',(0.,1.,0.));
#966=DIRECTION('',(0.,-1.,0.));
#967=DIRECTION('center_axis',(0.,0.,1.));
#968=DIRECTION('ref_axis',(0.707106781186548,-0.707106781186548,0.));
#969=DIRECTION('center_axis',(0.,0.,-1.));
#970=DIRECTION('ref_axis',(-1.,0.,0.));
#971=DIRECTION('center_axis',(0.,0.,-1.));
#972=DIRECTION('ref_axis',(-1.,0.,0.));
#973=DIRECTION('center_axis',(0.,0.,-1.));
#974=DIRECTION('ref_axis',(-1.,0.,0.));
#975=DIRECTION('center_axis',(0.,0.,-1.));
#976=DIRECTION('ref_axis',(-1.,0.,0.));
#977=DIRECTION('center_axis',(0.,-1.,0.));
#978=DIRECTION('ref_axis',(0.,0.,-1.));
#979=DIRECTION('',(0.,0.,1.));
#980=DIRECTION('',(0.,0.,1.));
#981=DIRECTION('center_axis',(0.,1.,0.));
#982=DIRECTION('ref_axis',(-1.,0.,0.));
#983=DIRECTION('',(0.,0.,1.));
#984=DIRECTION('',(0.,0.,1.));
#985=DIRECTION('center_axis',(0.,0.,1.));
#986=DIRECTION('ref_axis',(-0.707106781186548,0.707106781186548,0.));
#987=DIRECTION('',(0.,0.,1.));
#988=DIRECTION('center_axis',(-1.,0.,0.));
#989=DIRECTION('ref_axis',(0.,-1.,0.));
#990=DIRECTION('',(0.,0.,1.));
#991=DIRECTION('center_axis',(0.,0.,1.));
#992=DIRECTION('ref_axis',(-0.707106781186546,-0.707106781186549,0.));
#993=DIRECTION('',(0.,0.,1.));
#994=DIRECTION('center_axis',(1.,0.,0.));
#995=DIRECTION('ref_axis',(0.,1.,0.));
#996=DIRECTION('',(0.,0.,1.));
#997=DIRECTION('center_axis',(0.,0.,1.));
#998=DIRECTION('ref_axis',(0.707106781186548,-0.707106781186548,0.));
#999=DIRECTION('center_axis',(0.,0.,1.));
#1000=DIRECTION('ref_axis',(0.707106781186546,0.707106781186549,0.));
#1001=DIRECTION('',(0.,0.,1.));
#1002=DIRECTION('center_axis',(-1.,0.,0.));
#1003=DIRECTION('ref_axis',(0.,1.,0.));
#1004=DIRECTION('center_axis',(0.,0.,1.));
#1005=DIRECTION('ref_axis',(-1.,0.,0.));
#1006=DIRECTION('',(0.,0.,-1.));
#1007=DIRECTION('center_axis',(0.,0.,1.));
#1008=DIRECTION('ref_axis',(-1.,0.,0.));
#1009=DIRECTION('',(0.,0.,-1.));
#1010=DIRECTION('center_axis',(0.,0.,1.));
#1011=DIRECTION('ref_axis',(-1.,0.,0.));
#1012=DIRECTION('',(0.,0.,-1.));
#1013=DIRECTION('center_axis',(0.,0.,1.));
#1014=DIRECTION('ref_axis',(-1.,0.,0.));
#1015=DIRECTION('',(0.,0.,-1.));
#1016=DIRECTION('center_axis',(-1.,0.,0.));
#1017=DIRECTION('ref_axis',(0.,-1.,0.));
#1018=DIRECTION('',(0.,0.,1.));
#1019=DIRECTION('center_axis',(0.,0.,1.));
#1020=DIRECTION('ref_axis',(1.,0.,0.));
#1021=DIRECTION('center_axis',(0.,0.,1.));
#1022=DIRECTION('ref_axis',(1.,0.,0.));
#1023=DIRECTION('',(0.,0.,1.));
#1024=DIRECTION('center_axis',(-1.,0.,0.));
#1025=DIRECTION('ref_axis',(0.,-1.,0.));
#1026=DIRECTION('center_axis',(0.,-1.,0.));
#1027=DIRECTION('ref_axis',(1.,0.,0.));
#1028=DIRECTION('',(0.,0.,1.));
#1029=DIRECTION('center_axis',(0.,0.,1.));
#1030=DIRECTION('ref_axis',(0.707106781186551,-0.707106781186544,0.));
#1031=DIRECTION('center_axis',(0.,0.,1.));
#1032=DIRECTION('ref_axis',(0.707106781186547,0.707106781186548,0.));
#1033=CARTESIAN_POINT('',(0.,0.,0.));
#1034=CARTESIAN_POINT('Origin',(76.1,-97.0028577261856,-0.05));
#1035=CARTESIAN_POINT('',(73.1,-97.0028577261856,4.95));
#1036=CARTESIAN_POINT('',(76.0142857142857,-100.001632986392,4.95));
#1037=CARTESIAN_POINT('Origin',(76.1,-97.0028577261856,4.95));
#1038=CARTESIAN_POINT('',(76.0142857142857,-100.001632986392,-0.05));
#1039=CARTESIAN_POINT('',(76.0142857142857,-100.001632986392,-0.05));
#1040=CARTESIAN_POINT('',(73.1,-97.0028577261856,-0.05));
#1041=CARTESIAN_POINT('Origin',(76.1,-97.0028577261856,-0.05));
#1042=CARTESIAN_POINT('',(73.1,-97.0028577261856,-0.05));
#1043=CARTESIAN_POINT('Origin',(73.1,-28.,-0.05));
#1044=CARTESIAN_POINT('',(73.1,-38.9971422738144,-0.05));
#1045=CARTESIAN_POINT('',(73.1,-48.,-0.05));
#1046=CARTESIAN_POINT('',(73.1,-38.9971422738144,4.95));
#1047=CARTESIAN_POINT('',(73.1,-38.9971422738144,-0.05));
#1048=CARTESIAN_POINT('',(73.1,-48.,4.95));
#1049=CARTESIAN_POINT('Origin',(76.1,-38.9971422738144,-0.05));
#1050=CARTESIAN_POINT('',(76.0142857142857,-35.9983670136082,-0.05));
#1051=CARTESIAN_POINT('Origin',(76.1,-38.9971422738144,-0.05));
#1052=CARTESIAN_POINT('',(76.0142857142857,-35.9983670136082,4.95));
#1053=CARTESIAN_POINT('',(76.0142857142857,-35.9983670136082,-0.05));
#1054=CARTESIAN_POINT('Origin',(76.1,-38.9971422738144,4.95));
#1055=CARTESIAN_POINT('Origin',(106.1,-97.0717967697245,-0.05));
#1056=CARTESIAN_POINT('',(106.528571428571,-100.041026725557,-0.05));
#1057=CARTESIAN_POINT('',(109.1,-97.0717967697245,-0.05));
#1058=CARTESIAN_POINT('Origin',(106.1,-97.0717967697245,-0.05));
#1059=CARTESIAN_POINT('',(106.528571428571,-100.041026725557,4.95));
#1060=CARTESIAN_POINT('',(106.528571428571,-100.041026725557,-0.05));
#1061=CARTESIAN_POINT('',(109.1,-97.0717967697245,4.95));
#1062=CARTESIAN_POINT('Origin',(106.1,-97.0717967697245,4.95));
#1063=CARTESIAN_POINT('',(109.1,-97.0717967697245,-0.05));
#1064=CARTESIAN_POINT('Origin',(109.1,-108.,-0.05));
#1065=CARTESIAN_POINT('',(109.1,-85.3,4.95));
#1066=CARTESIAN_POINT('',(109.1,-88.,4.95));
#1067=CARTESIAN_POINT('',(109.1,-85.3,8.95));
#1068=CARTESIAN_POINT('',(109.1,-85.3,0.95));
#1069=CARTESIAN_POINT('',(109.1,-75.7,8.95));
#1070=CARTESIAN_POINT('',(109.1,-75.5,8.95));
#1071=CARTESIAN_POINT('',(109.1,-75.7,4.95));
#1072=CARTESIAN_POINT('',(109.1,-75.7,4.45));
#1073=CARTESIAN_POINT('',(109.1,-38.9282032302755,4.95));
#1074=CARTESIAN_POINT('',(109.1,-88.,4.95));
#1075=CARTESIAN_POINT('',(109.1,-38.9282032302755,-0.05));
#1076=CARTESIAN_POINT('',(109.1,-38.9282032302755,-0.05));
#1077=CARTESIAN_POINT('',(109.1,-88.,-0.05));
#1078=CARTESIAN_POINT('Origin',(106.1,-38.9282032302755,-0.05));
#1079=CARTESIAN_POINT('',(106.528571428571,-35.9589732744432,4.95));
#1080=CARTESIAN_POINT('Origin',(106.1,-38.9282032302755,4.95));
#1081=CARTESIAN_POINT('',(106.528571428571,-35.9589732744432,-0.05));
#1082=CARTESIAN_POINT('',(106.528571428571,-35.9589732744432,-0.05));
#1083=CARTESIAN_POINT('Origin',(106.1,-38.9282032302755,-0.05));
#1084=CARTESIAN_POINT('Origin',(91.1,-68.,4.95));
#1085=CARTESIAN_POINT('',(103.1,-29.9,4.95));
#1086=CARTESIAN_POINT('',(103.1,-32.,4.95));
#1087=CARTESIAN_POINT('',(103.1,-49.,4.95));
#1088=CARTESIAN_POINT('Origin',(107.1,-32.,4.95));
#1089=CARTESIAN_POINT('',(111.1,-75.7,4.95));
#1090=CARTESIAN_POINT('',(101.1,-75.7,4.95));
#1091=CARTESIAN_POINT('',(111.1,-32.,4.95));
#1092=CARTESIAN_POINT('',(111.1,-88.,4.95));
#1093=CARTESIAN_POINT('',(107.1,-28.,4.95));
#1094=CARTESIAN_POINT('Origin',(107.1,-32.,4.95));
#1095=CARTESIAN_POINT('',(75.1,-28.,4.95));
#1096=CARTESIAN_POINT('',(101.1,-28.,4.95));
#1097=CARTESIAN_POINT('',(71.1,-32.,4.95));
#1098=CARTESIAN_POINT('Origin',(75.1,-32.,4.95));
#1099=CARTESIAN_POINT('',(71.1,-104.,4.95));
#1100=CARTESIAN_POINT('',(71.1,-48.,4.95));
#1101=CARTESIAN_POINT('',(75.1,-108.,4.95));
#1102=CARTESIAN_POINT('Origin',(75.1,-104.,4.95));
#1103=CARTESIAN_POINT('',(107.1,-108.,4.95));
#1104=CARTESIAN_POINT('',(81.1,-108.,4.95));
#1105=CARTESIAN_POINT('',(111.1,-104.,4.95));
#1106=CARTESIAN_POINT('Origin',(107.1,-104.,4.95));
#1107=CARTESIAN_POINT('',(111.1,-85.3,4.95));
#1108=CARTESIAN_POINT('',(111.1,-88.,4.95));
#1109=CARTESIAN_POINT('',(101.1,-85.3,4.95));
#1110=CARTESIAN_POINT('',(103.1,-104.,4.95));
#1111=CARTESIAN_POINT('Origin',(107.1,-104.,4.95));
#1112=CARTESIAN_POINT('',(103.1,-106.1,4.95));
#1113=CARTESIAN_POINT('',(103.1,-87.,4.95));
#1114=CARTESIAN_POINT('',(79.9,-106.1,4.95));
#1115=CARTESIAN_POINT('',(81.1,-106.1,4.95));
#1116=CARTESIAN_POINT('',(79.9,-104.,4.95));
#1117=CARTESIAN_POINT('',(79.9,-88.,4.95));
#1118=CARTESIAN_POINT('Origin',(75.9,-104.,4.95));
#1119=CARTESIAN_POINT('',(79.9,-32.,4.95));
#1120=CARTESIAN_POINT('Origin',(75.9,-32.,4.95));
#1121=CARTESIAN_POINT('',(79.9,-29.9,4.95));
#1122=CARTESIAN_POINT('',(79.9,-50.,4.95));
#1123=CARTESIAN_POINT('',(101.1,-29.9,4.95));
#1124=CARTESIAN_POINT('',(76.7,-104.,4.95));
#1125=CARTESIAN_POINT('Origin',(75.1,-104.,4.95));
#1126=CARTESIAN_POINT('',(108.7,-104.,4.95));
#1127=CARTESIAN_POINT('Origin',(107.1,-104.,4.95));
#1128=CARTESIAN_POINT('',(108.7,-32.,4.95));
#1129=CARTESIAN_POINT('Origin',(107.1,-32.,4.95));
#1130=CARTESIAN_POINT('',(76.7,-32.,4.95));
#1131=CARTESIAN_POINT('Origin',(75.1,-32.,4.95));
#1132=CARTESIAN_POINT('Origin',(111.1,-85.3,1.95));
#1133=CARTESIAN_POINT('',(111.1,-85.3,9.85));
#1134=CARTESIAN_POINT('',(111.1,-85.3,8.95));
#1135=CARTESIAN_POINT('',(110.6,-85.3,10.35));
#1136=CARTESIAN_POINT('',(112.95,-85.3,8.00000000000003));
#1137=CARTESIAN_POINT('',(109.7,-85.3,10.35));
#1138=CARTESIAN_POINT('',(110.1,-85.3,10.35));
#1139=CARTESIAN_POINT('',(109.7,-85.3,9.55));
#1140=CARTESIAN_POINT('',(109.7,-85.3,8.95));
#1141=CARTESIAN_POINT('',(108.,-85.3,7.85000000000007));
#1142=CARTESIAN_POINT('Origin',(111.1,-75.7,8.95));
#1143=CARTESIAN_POINT('',(109.7,-75.7,9.55));
#1144=CARTESIAN_POINT('',(109.75,-75.7,9.6));
#1145=CARTESIAN_POINT('',(109.7,-75.7,10.35));
#1146=CARTESIAN_POINT('',(109.7,-75.7,8.95));
#1147=CARTESIAN_POINT('',(110.6,-75.7,10.35));
#1148=CARTESIAN_POINT('',(111.1,-75.7,10.35));
#1149=CARTESIAN_POINT('',(111.1,-75.7,9.85));
#1150=CARTESIAN_POINT('',(111.2,-75.7,9.75));
#1151=CARTESIAN_POINT('',(111.1,-75.7,8.95));
#1152=CARTESIAN_POINT('Origin',(109.4,-80.6,9.25));
#1153=CARTESIAN_POINT('',(109.7,-80.6,9.55));
#1154=CARTESIAN_POINT('Origin',(109.7,-75.7,8.95));
#1155=CARTESIAN_POINT('',(109.7,-75.7,10.35));
#1156=CARTESIAN_POINT('Origin',(110.85,-94.25,10.1));
#1157=CARTESIAN_POINT('',(110.6,-94.25,10.35));
#1158=CARTESIAN_POINT('',(111.1,-94.25,9.85));
#1159=CARTESIAN_POINT('Origin',(110.6,-80.5,10.35));
#1160=CARTESIAN_POINT('Origin',(111.1,-108.,-0.05));
#1161=CARTESIAN_POINT('',(111.1,-104.,-0.05));
#1162=CARTESIAN_POINT('',(111.1,-104.,-0.05));
#1163=CARTESIAN_POINT('',(111.1,-32.,-0.05));
#1164=CARTESIAN_POINT('',(111.1,-28.,-0.05));
#1165=CARTESIAN_POINT('',(111.1,-32.,1.95));
#1166=CARTESIAN_POINT('Origin',(111.1,-29.9,-0.0499999999999989));
#1167=CARTESIAN_POINT('',(79.9,-29.9,-0.05));
#1168=CARTESIAN_POINT('',(79.9,-29.9,1.95));
#1169=CARTESIAN_POINT('',(103.1,-29.9,-0.05));
#1170=CARTESIAN_POINT('',(101.1,-29.9,-0.05));
#1171=CARTESIAN_POINT('',(103.1,-29.9,-0.0499999999999995));
#1172=CARTESIAN_POINT('Origin',(91.1,-68.,-0.05));
#1173=CARTESIAN_POINT('',(107.1,-108.,-0.05));
#1174=CARTESIAN_POINT('',(75.1,-108.,-0.05));
#1175=CARTESIAN_POINT('',(111.1,-108.,-0.05));
#1176=CARTESIAN_POINT('',(71.1,-104.,-0.05));
#1177=CARTESIAN_POINT('Origin',(75.1,-104.,-0.05));
#1178=CARTESIAN_POINT('',(71.1,-32.,-0.05));
#1179=CARTESIAN_POINT('',(71.1,-108.,-0.05));
#1180=CARTESIAN_POINT('',(75.1,-28.,-0.05));
#1181=CARTESIAN_POINT('Origin',(75.1,-32.,-0.05));
#1182=CARTESIAN_POINT('',(107.1,-28.,-0.05));
#1183=CARTESIAN_POINT('',(71.1,-28.,-0.05));
#1184=CARTESIAN_POINT('Origin',(107.1,-32.,-0.05));
#1185=CARTESIAN_POINT('Origin',(107.1,-104.,-0.05));
#1186=CARTESIAN_POINT('',(79.9,-104.,-0.05));
#1187=CARTESIAN_POINT('Origin',(75.9,-104.,-0.05));
#1188=CARTESIAN_POINT('',(79.9,-106.1,-0.0499999999999995));
#1189=CARTESIAN_POINT('',(79.9,-88.,-0.05));
#1190=CARTESIAN_POINT('',(103.1,-106.1,-0.05));
#1191=CARTESIAN_POINT('',(81.1,-106.1,-0.05));
#1192=CARTESIAN_POINT('',(103.1,-104.,-0.05));
#1193=CARTESIAN_POINT('',(103.1,-87.,-0.05));
#1194=CARTESIAN_POINT('Origin',(107.1,-104.,-0.05));
#1195=CARTESIAN_POINT('',(103.1,-32.,-0.05));
#1196=CARTESIAN_POINT('Origin',(107.1,-32.,-0.05));
#1197=CARTESIAN_POINT('',(103.1,-49.,-0.05));
#1198=CARTESIAN_POINT('',(79.9,-32.,-0.05));
#1199=CARTESIAN_POINT('',(79.9,-49.,-0.05));
#1200=CARTESIAN_POINT('Origin',(75.9,-32.,-0.05));
#1201=CARTESIAN_POINT('',(76.7,-32.,-0.05));
#1202=CARTESIAN_POINT('Origin',(75.1,-32.,-0.05));
#1203=CARTESIAN_POINT('',(108.7,-32.,-0.05));
#1204=CARTESIAN_POINT('Origin',(107.1,-32.,-0.05));
#1205=CARTESIAN_POINT('',(76.7,-104.,-0.05));
#1206=CARTESIAN_POINT('Origin',(75.1,-104.,-0.05));
#1207=CARTESIAN_POINT('',(108.7,-104.,-0.05));
#1208=CARTESIAN_POINT('Origin',(107.1,-104.,-0.05));
#1209=CARTESIAN_POINT('Origin',(71.1,-106.1,-0.05));
#1210=CARTESIAN_POINT('',(103.1,-106.1,1.95));
#1211=CARTESIAN_POINT('',(79.9,-106.1,5.75));
#1212=CARTESIAN_POINT('Origin',(111.1,-28.,-0.05));
#1213=CARTESIAN_POINT('',(107.1,-28.,-0.05));
#1214=CARTESIAN_POINT('',(75.1,-28.,1.95));
#1215=CARTESIAN_POINT('Origin',(75.1,-32.,-0.05));
#1216=CARTESIAN_POINT('',(71.1,-32.,1.95));
#1217=CARTESIAN_POINT('Origin',(71.1,-28.,-0.05));
#1218=CARTESIAN_POINT('',(71.1,-104.,1.95));
#1219=CARTESIAN_POINT('Origin',(75.1,-104.,-0.05));
#1220=CARTESIAN_POINT('',(75.1,-108.,1.95));
#1221=CARTESIAN_POINT('Origin',(79.9,-32.,-0.05));
#1222=CARTESIAN_POINT('',(79.9,-32.,1.95));
#1223=CARTESIAN_POINT('Origin',(75.9,-32.,-0.05));
#1224=CARTESIAN_POINT('Origin',(75.9,-104.,-0.05));
#1225=CARTESIAN_POINT('',(79.9,-104.,1.95));
#1226=CARTESIAN_POINT('Origin',(79.9,-108.,11.55));
#1227=CARTESIAN_POINT('Origin',(75.1,-32.,-0.05));
#1228=CARTESIAN_POINT('',(76.7,-32.,-0.05));
#1229=CARTESIAN_POINT('Origin',(107.1,-32.,-0.05));
#1230=CARTESIAN_POINT('',(108.7,-32.,-0.05));
#1231=CARTESIAN_POINT('Origin',(107.1,-104.,-0.05));
#1232=CARTESIAN_POINT('',(108.7,-104.,-0.05));
#1233=CARTESIAN_POINT('Origin',(75.1,-104.,-0.05));
#1234=CARTESIAN_POINT('',(76.7,-104.,-0.05));
#1235=CARTESIAN_POINT('Origin',(103.1,-30.,-0.05));
#1236=CARTESIAN_POINT('',(103.1,-32.,1.95));
#1237=CARTESIAN_POINT('Origin',(107.1,-32.,-0.05));
#1238=CARTESIAN_POINT('Origin',(107.1,-104.,-0.05));
#1239=CARTESIAN_POINT('',(103.1,-104.,-0.05));
#1240=CARTESIAN_POINT('Origin',(103.1,-104.,-0.05));
#1241=CARTESIAN_POINT('Origin',(71.1,-108.,-0.05));
#1242=CARTESIAN_POINT('',(107.1,-108.,1.95));
#1243=CARTESIAN_POINT('Origin',(107.1,-104.,-0.05));
#1244=CARTESIAN_POINT('Origin',(107.1,-32.,-0.05));
#1245=UNCERTAINTY_MEASURE_WITH_UNIT(LENGTH_MEASURE(0.01),#1249,
'DISTANCE_ACCURACY_VALUE',
'Maximum model space distance between geometric entities at asserted c
onnectivities');
#1246=UNCERTAINTY_MEASURE_WITH_UNIT(LENGTH_MEASURE(0.01),#1249,
'DISTANCE_ACCURACY_VALUE',
'Maximum model space distance between geometric entities at asserted c
onnectivities');
#1247=(
GEOMETRIC_REPRESENTATION_CONTEXT(3)
GLOBAL_UNCERTAINTY_ASSIGNED_CONTEXT((#1245))
GLOBAL_UNIT_ASSIGNED_CONTEXT((#1249,#1251,#1252))
REPRESENTATION_CONTEXT('','3D')
);
#1248=(
GEOMETRIC_REPRESENTATION_CONTEXT(3)
GLOBAL_UNCERTAINTY_ASSIGNED_CONTEXT((#1246))
GLOBAL_UNIT_ASSIGNED_CONTEXT((#1249,#1251,#1252))
REPRESENTATION_CONTEXT('','3D')
);
#1249=(
LENGTH_UNIT()
NAMED_UNIT(*)
SI_UNIT(.MILLI.,.METRE.)
);
#1250=(
LENGTH_UNIT()
NAMED_UNIT(*)
SI_UNIT($,.METRE.)
);
#1251=(
NAMED_UNIT(*)
PLANE_ANGLE_UNIT()
SI_UNIT($,.RADIAN.)
);
#1252=(
NAMED_UNIT(*)
SI_UNIT($,.STERADIAN.)
SOLID_ANGLE_UNIT()
);
#1253=SHAPE_DEFINITION_REPRESENTATION(#1254,#1255);
#1254=PRODUCT_DEFINITION_SHAPE('',$,#1257);
#1255=SHAPE_REPRESENTATION('',(#753),#1247);
#1256=PRODUCT_DEFINITION_CONTEXT('part definition',#1261,'design');
#1257=PRODUCT_DEFINITION('Remote control upper intermediate frame',
'Remote control upper intermediate frame',#1258,#1256);
#1258=PRODUCT_DEFINITION_FORMATION('',$,#1263);
#1259=PRODUCT_RELATED_PRODUCT_CATEGORY(
'Remote control upper intermediate frame',
'Remote control upper intermediate frame',(#1263));
#1260=APPLICATION_PROTOCOL_DEFINITION('international standard',
'automotive_design',2009,#1261);
#1261=APPLICATION_CONTEXT(
'Core Data for Automotive Mechanical Design Process');
#1262=PRODUCT_CONTEXT('part definition',#1261,'mechanical');
#1263=PRODUCT('Remote control upper intermediate frame',
'Remote control upper intermediate frame',$,(#1262));
#1264=PRESENTATION_STYLE_ASSIGNMENT((#1266));
#1265=PRESENTATION_STYLE_ASSIGNMENT((#1267));
#1266=SURFACE_STYLE_USAGE(.BOTH.,#1268);
#1267=SURFACE_STYLE_USAGE(.BOTH.,#1269);
#1268=SURFACE_SIDE_STYLE('',(#1270));
#1269=SURFACE_SIDE_STYLE('',(#1271));
#1270=SURFACE_STYLE_FILL_AREA(#1272);
#1271=SURFACE_STYLE_FILL_AREA(#1273);
#1272=FILL_AREA_STYLE('Stahl - satiniert',(#1274));
#1273=FILL_AREA_STYLE('Opaque(115,115,115)',(#1275));
#1274=FILL_AREA_STYLE_COLOUR('Stahl - satiniert',#1276);
#1275=FILL_AREA_STYLE_COLOUR('Opaque(115,115,115)',#1277);
#1276=COLOUR_RGB('Stahl - satiniert',0.627450980392157,0.627450980392157,
0.627450980392157);
#1277=COLOUR_RGB('Opaque(115,115,115)',0.450980392156863,0.450980392156863,
0.450980392156863);
ENDSEC;
END-ISO-10303-21;
